<?xml version="1.0" standalone="no"?>
<!DOCTYPE svg PUBLIC "-//W3C//DTD SVG 1.1//EN" "http://www.w3.org/Graphics/SVG/1.1/DTD/svg11.dtd" >
<svg xmlns="http://www.w3.org/2000/svg" xmlns:xlink="http://www.w3.org/1999/xlink" version="1.1">
<metadata>
Created by FontForge 20170731 at Sat Nov 12 06:11:23 2011
 By Aleksey,,,
(c) 2011 Microsoft Corporation. All Rights Reserved.
</metadata>
<defs>
<font id="GeorgiaPro-LightItalic" horiz-adv-x="1024" >
  <font-face 
    font-family="Georgia"
    font-weight="300"
    font-style="italic"
    font-stretch="normal"
    units-per-em="2048"
    panose-1="2 4 3 2 5 4 5 9 3 3"
    ascent="1638"
    descent="-410"
    x-height="979"
    cap-height="1419"
    bbox="-420 -621 2318 1878"
    underline-thickness="101"
    underline-position="-331"
    slope="-13"
    unicode-range="U+0020-FB04"
  />
<missing-glyph horiz-adv-x="2048" 
d="M256 0v1536h1536v-1536h-1536zM385 129h1280v1280h-1280v-1280z" />
    <glyph glyph-name="f_f" unicode="ff" horiz-adv-x="1155" 
d="M1237 981l-23 -84h-247l-168 -799q-29 -140 -98.5 -256t-166.5 -182t-204 -66q-48 0 -83.5 26.5t-35.5 68.5q0 29 18 52t62 23q29 0 54.5 -17.5t62.5 -70.5q94 7 162 106.5t106 278.5l176 836h-420l-176 -838q-30 -141 -99 -256t-165.5 -181t-204.5 -66q-52 0 -85.5 27
t-33.5 67q0 29 18.5 52.5t61.5 23.5q29 0 54.5 -17.5t62.5 -70.5q92 5 160.5 104t107.5 281l184 874h-194l18 84h195q58 252 188 389t291 137q50 0 84.5 -23t34.5 -61q0 -35 -20.5 -60.5t-55.5 -25.5q-68 0 -129 93q-184 -13 -266 -392l-12 -57h419l15 61q52 228 181.5 367
t293.5 139q50 0 84.5 -23t34.5 -61q0 -35 -20.5 -60.5t-55.5 -25.5q-42 0 -73 27.5t-56 64.5q-91 -4 -156.5 -100.5t-109.5 -288.5l-23 -100h252z" />
    <glyph glyph-name="fi" unicode="fi" horiz-adv-x="1071" 
d="M336 981q40 174 84 257.5t118 156.5t163.5 113t172.5 40q207 0 207 -118q0 -33 -19.5 -52.5t-49.5 -19.5q-81 0 -140 121h-24q-143 0 -238 -103.5t-139 -302.5l-20 -92h274l246 8l10 -12l-154 -655q-30 -140 -30 -170q0 -42 26 -56t64 -14q67 0 119 16l-11 -53
q-114 -61 -217 -61q-108 0 -108 112q0 45 18 117l146 600q6 28 6 47q0 21 -4 37h-404l-176 -838q-30 -141 -99 -256t-165.5 -181t-204.5 -66q-52 0 -85.5 27t-33.5 67q0 29 18.5 52.5t61.5 23.5q29 0 54.5 -17.5t62.5 -70.5q92 5 160.5 104t107.5 281l184 874h-194l18 84
h195z" />
    <glyph glyph-name="fl" unicode="fl" horiz-adv-x="1112" 
d="M123 897l18 84h195q37 166 81.5 254.5t122 162.5t167 112t170.5 38q42 0 78 -7t92 -34l69 41l10 -12l-282 -1223q-29 -118 -29 -163q0 -68 86 -68q83 0 123 16l-10 -53q-41 -25 -105.5 -43t-109.5 -18q-111 0 -111 110q0 41 19 117l249 1081q15 66 15 109q0 36 -32 58
t-91 22q-289 0 -381 -424l-16 -76h251l-22 -84h-248l-176 -838q-30 -141 -99 -256t-165.5 -181t-204.5 -66q-52 0 -85.5 27t-33.5 67q0 29 18.5 52.5t61.5 23.5q29 0 54.5 -17.5t62.5 -70.5q92 5 160.5 104t107.5 281l184 874h-194z" />
    <glyph glyph-name="f_f_i" unicode="ffi" horiz-adv-x="1606" 
d="M432 897l-176 -838q-30 -141 -99 -256t-165.5 -181t-204.5 -66q-52 0 -85.5 27t-33.5 67q0 29 18.5 52.5t61.5 23.5q29 0 54.5 -17.5t62.5 -70.5q92 5 160.5 104t107.5 281l184 874h-194l18 84h195q58 252 188 389t291 137q50 0 84.5 -23t34.5 -61q0 -35 -20.5 -60.5
t-55.5 -25.5q-68 0 -129 93q-184 -13 -266 -392l-12 -57h419l9 35q34 146 78.5 228t119 154.5t162.5 111t170 38.5q207 0 207 -118q0 -26 -17.5 -49t-52.5 -23q-45 0 -78 32t-61 89h-25q-286 0 -376 -406l-21 -92h275l245 8l11 -12l-154 -655q-31 -145 -31 -170
q0 -42 26 -56t64 -14q67 0 119 16l-10 -53q-116 -61 -217 -61q-109 0 -109 112q0 41 19 117l145 600q6 28 6 47q0 21 -4 37h-403l-168 -799q-29 -140 -98.5 -256t-166.5 -182t-204 -66q-48 0 -83.5 26.5t-35.5 68.5q0 29 18 52t62 23q29 0 54.5 -17.5t62.5 -70.5
q94 7 162 106.5t106 278.5l176 836h-420z" />
    <glyph glyph-name="f_f_l" unicode="ffl" horiz-adv-x="1647" 
d="M1237 981l-23 -84h-247l-168 -799q-29 -140 -98.5 -256t-166.5 -182t-204 -66q-48 0 -83.5 26.5t-35.5 68.5q0 29 18 52t62 23q29 0 54.5 -17.5t62.5 -70.5q94 7 162 106.5t106 278.5l176 836h-420l-176 -838q-30 -141 -99 -256t-165.5 -181t-204.5 -66q-52 0 -85.5 27
t-33.5 67q0 29 18.5 52.5t61.5 23.5q29 0 54.5 -17.5t62.5 -70.5q92 5 160.5 104t107.5 281l184 874h-194l18 84h195q58 252 188 389t291 137q50 0 84.5 -23t34.5 -61q0 -35 -20.5 -60.5t-55.5 -25.5q-68 0 -129 93q-184 -13 -266 -392l-12 -57h419l7 27q32 141 76.5 229
t122.5 162.5t166.5 111.5t168.5 37q44 0 81 -7.5t89 -33.5l70 41l10 -12l-283 -1223q-28 -114 -28 -163q0 -68 86 -68q83 0 123 16l-11 -53q-41 -25 -105.5 -43t-109.5 -18q-110 0 -110 110q0 45 18 117l250 1081q14 61 14 109q0 38 -32.5 59t-90.5 21q-289 0 -381 -424
l-16 -76h252z" />
    <glyph glyph-name="f_j" unicode="fj" horiz-adv-x="1051" 
d="M840 860q0 21 -4 37h-404l-176 -838q-30 -141 -99 -256t-165.5 -181t-204.5 -66q-52 0 -85.5 27t-33.5 67q0 29 18.5 52.5t61.5 23.5q29 0 54.5 -17.5t62.5 -70.5q94 5 162.5 105t105.5 280l184 874h-194l18 84h195q40 174 84 257.5t118 156.5t163.5 113t172.5 40
q207 0 207 -118q0 -33 -19.5 -52.5t-49.5 -19.5q-81 0 -140 121h-24q-143 0 -238 -103.5t-139 -302.5l-20 -92h274l246 8l10 -12l-106 -526l-76 -355q-31 -145 -103.5 -259t-171 -179.5t-198.5 -65.5q-49 0 -81 25t-32 70q0 32 18.5 53.5t53.5 21.5q38 0 64 -25t50 -63
q79 0 133.5 55t96 170t126.5 516.5t85 444.5z" />
    <glyph glyph-name=".notdef" horiz-adv-x="2048" 
d="M256 0v1536h1536v-1536h-1536zM385 129h1280v1280h-1280v-1280z" />
    <glyph glyph-name=".null" horiz-adv-x="0" 
 />
    <glyph glyph-name="nonmarkingreturn" horiz-adv-x="479" 
 />
    <glyph glyph-name="space" unicode=" " horiz-adv-x="479" 
 />
    <glyph glyph-name="space" unicode="&#xa0;" horiz-adv-x="479" 
 />
    <glyph glyph-name="exclam" unicode="!" horiz-adv-x="631" 
d="M629 1382q0 -41 -30.5 -147t-113.5 -353l-155 -466h-60l58 344q72 452 100 598q9 49 40.5 75.5t78.5 26.5q40 0 61 -21t21 -57zM358 94q0 -47 -32 -78.5t-76 -31.5q-47 0 -78 31t-31 79q0 46 31.5 79.5t77.5 33.5t77 -34t31 -79z" />
    <glyph glyph-name="quotedbl" unicode="&#x22;" horiz-adv-x="743" 
d="M336 1038h-57l6 155q4 155 10 214.5t19 79.5t33.5 31.5t51.5 11.5q70 0 70 -70q0 -38 -43 -160zM664 1038h-60l7 155q7 220 13.5 256.5t31.5 58.5t65 22q38 0 56 -20.5t18 -49.5q0 -38 -81 -271z" />
    <glyph glyph-name="numbersign" unicode="#" horiz-adv-x="1255" 
d="M889 743l-92 -247h254l-39 -105h-250l-146 -391h-94l144 391h-209l-142 -391h-94l144 391h-218l41 105h215l93 247h-256l43 105h249l138 373h92l-139 -373h211l139 373h90l-137 -373h219l-43 -105h-213zM584 743l-95 -249h218l96 249h-219z" />
    <glyph glyph-name="dollar" unicode="$" horiz-adv-x="1217" 
d="M602 612l-78 31q-231 92 -231 281q0 163 133.5 265.5t335.5 106.5l53 228h72l-56 -234q86 -12 153.5 -45.5t106.5 -81.5t39 -98q0 -55 -27 -97t-67 -42q-38 0 -58 20t-20 43q0 49 56 127q-5 35 -62 67.5t-135 39.5l-121 -516l23 -9q313 -110 313 -317
q0 -106 -66.5 -198.5t-184 -146.5t-255.5 -54l-65 -281h-72l66 276q-140 9 -231 83.5t-91 183.5q0 69 35 113t84 44q31 0 50.5 -20.5t19.5 -46.5q0 -63 -91 -131q25 -136 238 -154zM745 1225q-152 -3 -233.5 -73.5t-81.5 -188.5q0 -83 45 -135.5t156 -90.5zM881 342
q0 86 -47.5 139.5t-165.5 100.5l-125 -535l25 -1q141 0 227 81t86 215z" />
    <glyph glyph-name="percent" unicode="%" horiz-adv-x="1610" 
d="M434 713q-120 0 -185 65t-65 195q0 133 54.5 245.5t144 171t203.5 58.5q120 0 184 -67.5t64 -194.5q0 -131 -51 -240.5t-143 -171t-206 -61.5zM178 0h-137l1460 1421h139zM717 1184q0 94 -39 147t-105 53q-117 0 -191.5 -116t-74.5 -291q0 -93 37 -146t102 -53
q73 0 134.5 54.5t99 151t37.5 200.5zM1094 -29q-122 0 -187 65t-65 195q0 126 53 239.5t144 175t206 61.5q118 0 182 -66.5t64 -196.5q0 -133 -50.5 -242.5t-140.5 -170t-206 -60.5zM1372 442q0 94 -36.5 146.5t-104.5 52.5q-76 0 -137.5 -53.5t-96 -148.5t-34.5 -208
q0 -88 38.5 -141t106.5 -53q72 0 133 57t96 153.5t35 194.5z" />
    <glyph glyph-name="ampersand" unicode="&#x26;" horiz-adv-x="1403" 
d="M946 0l-129 193q-122 -126 -226 -177t-210 -51q-161 0 -261 96t-100 244q0 105 38 185t120 149.5t254 159.5q-53 99 -73.5 166t-20.5 145q0 94 51 173.5t140 123t194 43.5q120 0 194 -65.5t74 -174.5q0 -84 -41.5 -150t-123 -124t-265.5 -141q109 -193 303 -465
q79 86 143.5 183t88.5 156.5t24 94.5q0 26 -39 43t-116 31l16 61h522l-16 -61q-78 -8 -126.5 -25t-84 -45t-82.5 -97q-127 -185 -182 -258t-113 -132q25 -40 69.5 -94.5t73.5 -73.5q25 -20 86 -36t115 -18l-16 -59h-281zM872 1208q0 79 -46.5 122.5t-125.5 43.5
q-107 0 -178 -69t-71 -183q0 -59 18.5 -118t69.5 -158q178 78 255.5 163t77.5 199zM782 248l-77 113q-178 258 -248 384q-131 -65 -205 -170t-74 -239q0 -114 66 -187t176 -73q94 0 188 44.5t174 127.5z" />
    <glyph glyph-name="quotesingle" unicode="'" horiz-adv-x="385" 
d="M319 1038h-57l6 155q4 151 9.5 210t18 80t34 34t53.5 13q70 0 70 -70q0 -46 -82 -271z" />
    <glyph glyph-name="parenleft" unicode="(" horiz-adv-x="694" 
d="M479 -328q-364 40 -364 588q0 337 90 621.5t251.5 453.5t372.5 197l-10 -78q-163 -27 -295 -196t-211.5 -454t-79.5 -591q0 -210 66 -330.5t197 -144.5z" />
    <glyph glyph-name="parenright" unicode=")" horiz-adv-x="694" 
d="M643 944q0 -337 -90.5 -622t-253 -453.5t-371.5 -196.5l11 74q162 29 294.5 199.5t210.5 456t78 589.5q0 427 -260 475l17 66q364 -45 364 -588z" />
    <glyph glyph-name="asterisk" unicode="*" horiz-adv-x="956" 
d="M993 1108q0 -64 -65 -64q-17 0 -112 22q-108 25 -193 34q47 -66 85.5 -109t65.5 -73t42 -52t15 -47t-21.5 -41t-47.5 -16q-45 0 -68 77q-50 165 -92 251q-32 -70 -68 -184q-29 -95 -39 -111t-23.5 -24.5t-31.5 -8.5q-23 0 -43 16t-20 41t15 47t42.5 52t65.5 73t84 109
q-84 -9 -194 -34q-97 -22 -111 -22q-64 0 -64 64q0 61 64 61q15 0 43 -6q178 -38 262 -47q-46 66 -84 109t-65.5 73t-42.5 52t-15 47t20 41t43 16q36 0 56 -35q10 -17 38 -107q35 -112 68 -184q39 82 71 184l21 66q23 76 68 76q26 0 47.5 -16t21.5 -41q0 -24 -15.5 -46
t-43 -52.5t-65.5 -73.5t-84 -109q67 7 193 33q97 20 112 20q28 0 46.5 -15t18.5 -46z" />
    <glyph glyph-name="plus" unicode="+" horiz-adv-x="1255" 
d="M711 500v-443h-109v443h-438v106h438v438h109v-438h438v-106h-438z" />
    <glyph glyph-name="comma" unicode="," horiz-adv-x="494" 
d="M-4 -270q214 121 268 274h-41q-42 0 -66 25t-24 69q0 48 32 78.5t85 30.5q115 0 115 -125q0 -77 -38.5 -152t-109.5 -137.5t-144 -102.5l-46 -26z" />
    <glyph glyph-name="hyphen" unicode="-" horiz-adv-x="762" 
d="M88 487l27 117h590l-27 -117h-590z" />
    <glyph glyph-name="hyphen" unicode="&#xad;" horiz-adv-x="762" 
d="M88 487l27 117h590l-27 -117h-590z" />
    <glyph glyph-name="period" unicode="." horiz-adv-x="494" 
d="M346 88q0 -45 -30 -74.5t-76 -29.5q-45 0 -74 29.5t-29 74.5q0 47 29 78t74 31q46 0 76 -31t30 -78z" />
    <glyph glyph-name="slash" unicode="/" horiz-adv-x="956" 
d="M16 -424h-116l1032 1948h117z" />
    <glyph glyph-name="zero" unicode="0" horiz-adv-x="1126" 
d="M461 -33q-178 0 -271.5 116.5t-93.5 332.5q0 177 56 382t145 349.5t207 221.5t260 77q169 0 257.5 -113.5t88.5 -326.5q0 -225 -86 -494t-228.5 -407t-334.5 -138zM971 1040q0 334 -211 334q-138 0 -252.5 -135t-193 -397.5t-78.5 -468.5q0 -166 59 -250t172 -84
q135 0 241.5 133t184.5 401.5t78 466.5z" />
    <glyph glyph-name="one" unicode="1" horiz-adv-x="1126" 
d="M117 0l14 61l55 4q97 6 139 13.5t66.5 34.5t34.5 69l258 1090h-281l17 74h115q167 0 274 100h45l-19 -72l-59 -233l-219 -938l-6 -41q0 -34 18.5 -55t58 -29t177.5 -17l-17 -61h-671z" />
    <glyph glyph-name="two" unicode="2" horiz-adv-x="1126" 
d="M895 0h-877l25 111q76 122 187 231.5t294 239.5q186 130 261 207.5t116 162.5t41 189q0 107 -58.5 168t-164.5 61q-88 0 -156 -29.5t-106 -80.5q2 -53 2 -70q0 -69 -30 -114.5t-93 -45.5q-37 0 -57.5 19.5t-20.5 56.5q0 86 68.5 165t179.5 127t223 48q160 0 256 -81
t96 -226q0 -113 -36 -194t-127.5 -169.5t-317.5 -238.5q-167 -112 -270.5 -208t-171.5 -204h766z" />
    <glyph glyph-name="three" unicode="3" horiz-adv-x="1126" 
d="M746 1442q98 0 164.5 -36t102.5 -99t36 -140q0 -294 -336 -397l-4 -10q129 -18 200.5 -92t71.5 -189q0 -143 -71 -259t-199 -181t-283 -65q-148 0 -257 68t-109 167q0 68 34 112t87 44q34 0 55 -20t21 -46q0 -45 -22.5 -81t-51.5 -68q23 -49 98.5 -78t171.5 -29
q109 0 201.5 59t145 162.5t52.5 225.5q0 211 -256 211h-139l23 96h110q86 0 161 51t118 139t43 189q0 192 -186 192q-81 0 -152.5 -29.5t-110.5 -78.5q9 -54 9 -88q0 -146 -115 -146q-38 0 -61 22t-23 68q0 74 66 152.5t173.5 126t231.5 47.5z" />
    <glyph glyph-name="four" unicode="4" horiz-adv-x="1126" 
d="M813 451l-100 -451h-129l106 451h-639l29 110l895 879h67l-202 -877h225l-29 -112h-223zM870 1235l-684 -672h531z" />
    <glyph glyph-name="five" unicode="5" horiz-adv-x="1126" 
d="M401 -14q-156 0 -252 65.5t-96 165.5q0 60 31 97.5t84 37.5q37 0 57.5 -20t20.5 -47q0 -67 -72 -142q23 -35 83.5 -61.5t164.5 -26.5q113 0 211 66t154.5 180t56.5 248q0 122 -69.5 192t-184.5 70q-170 0 -297 -127l-60 27l228 708h647l-33 -127h-569l-154 -469
q143 88 285 88q98 0 176 -42t121 -120.5t43 -181.5q0 -159 -75.5 -292.5t-211.5 -211t-289 -77.5z" />
    <glyph glyph-name="six" unicode="6" horiz-adv-x="1126" 
d="M495 -31q-176 0 -274 117.5t-98 335.5q0 243 118 465.5t327 374t458 190.5l-4 -80l-80 -18q-218 -59 -389.5 -219t-243.5 -375q191 143 383 143q139 0 234.5 -102t95.5 -258q0 -152 -70.5 -285t-193.5 -211t-263 -78zM888 508q0 140 -69 219.5t-191 79.5
q-174 0 -333 -135q-14 -30 -26.5 -104.5t-12.5 -153.5q0 -184 65.5 -278.5t192.5 -94.5q100 0 187 62.5t137 171.5t50 233z" />
    <glyph glyph-name="seven" unicode="7" horiz-adv-x="1126" 
d="M242 0h-113l956 1309h-432q-80 0 -137.5 -3.5t-95.5 -17.5q-31 -11 -69 -66.5t-70 -142.5h-62l78 340h958l-6 -33z" />
    <glyph glyph-name="eight" unicode="8" horiz-adv-x="1126" 
d="M458 -33q-177 0 -282 91.5t-105 240.5q0 147 90.5 256t290.5 199q-85 62 -130.5 128t-45.5 152q0 112 65 209.5t179.5 154t247.5 56.5q156 0 243.5 -83t87.5 -216q0 -128 -81.5 -240.5t-233.5 -191.5q116 -65 167.5 -140.5t51.5 -166.5q0 -118 -70.5 -222.5
t-195.5 -165.5t-279 -61zM977 1163q0 98 -67 160.5t-167 62.5q-91 0 -172 -41t-127.5 -112t-46.5 -152q0 -109 74 -183t252 -140q119 54 186.5 164.5t67.5 240.5zM878 385q0 73 -31 124.5t-99 96t-234 113.5q-314 -132 -314 -410q0 -122 78.5 -197t208.5 -75q170 0 280.5 98
t110.5 250z" />
    <glyph glyph-name="nine" unicode="9" horiz-adv-x="1126" 
d="M1073 1010q0 -258 -125 -492.5t-337.5 -381.5t-457.5 -173v88l89 13q481 133 636 571q-176 -131 -383 -131q-142 0 -231.5 101t-89.5 255q0 145 74 282.5t196 215.5t256 78q170 0 271.5 -115.5t101.5 -310.5zM938 1024q0 155 -68.5 249.5t-187.5 94.5
q-102 0 -186.5 -64.5t-137.5 -186.5t-53 -242q0 -127 70.5 -200t189.5 -73q190 0 336 123q37 114 37 299z" />
    <glyph glyph-name="colon" unicode=":" horiz-adv-x="805" 
d="M582 883q0 -47 -31.5 -78t-77.5 -31q-43 0 -73.5 30.5t-30.5 78.5q0 45 31 73.5t73 28.5q43 0 76 -28.5t33 -73.5zM401 88q0 -45 -30.5 -74.5t-75.5 -29.5q-43 0 -75 29.5t-32 74.5q0 47 32.5 78t74.5 31q45 0 75.5 -31.5t30.5 -77.5z" />
    <glyph glyph-name="semicolon" unicode=";" horiz-adv-x="805" 
d="M582 883q0 -47 -31.5 -78t-77.5 -31q-43 0 -73.5 30.5t-30.5 78.5q0 45 31 73.5t73 28.5q43 0 76 -28.5t33 -73.5zM55 -270q216 126 269 274h-41q-44 0 -68.5 25t-24.5 69q0 47 33 78t86 31q115 0 115 -125q0 -113 -79.5 -215t-213.5 -177l-45 -26z" />
    <glyph glyph-name="semicolon" unicode="&#x37e;" horiz-adv-x="805" 
d="M582 883q0 -47 -31.5 -78t-77.5 -31q-43 0 -73.5 30.5t-30.5 78.5q0 45 31 73.5t73 28.5q43 0 76 -28.5t33 -73.5zM55 -270q216 126 269 274h-41q-44 0 -68.5 25t-24.5 69q0 47 33 78t86 31q115 0 115 -125q0 -113 -79.5 -215t-213.5 -177l-45 -26z" />
    <glyph glyph-name="less" unicode="&#x3c;" horiz-adv-x="1255" 
d="M209 502v100l889 471v-110l-758 -412l758 -410v-110z" />
    <glyph glyph-name="equal" unicode="=" horiz-adv-x="1255" 
d="M164 672v110h979v-110h-979zM164 324v106h979v-106h-979z" />
    <glyph glyph-name="greater" unicode="&#x3e;" horiz-adv-x="1255" 
d="M207 31v110l764 410l-764 412v110l889 -471v-100z" />
    <glyph glyph-name="question" unicode="?" horiz-adv-x="909" 
d="M395 94q0 -48 -31 -79t-79 -31q-44 0 -76.5 31.5t-32.5 78.5t32.5 80t76.5 33q47 0 78.5 -33.5t31.5 -79.5zM588 1452q164 0 254 -85.5t90 -236.5q0 -211 -133.5 -350.5t-370.5 -177.5l-78 -254h-80l82 375q443 43 443 424q0 110 -57 173.5t-163 63.5q-35 0 -74 -12
t-61 -26q-9 -106 -25 -138.5t-40 -49.5t-64 -17q-35 0 -52 18.5t-17 38.5q0 57 46 117.5t125 98.5t175 38z" />
    <glyph glyph-name="at" unicode="@" horiz-adv-x="1847" 
d="M1520 -119q-96 -86 -228.5 -138t-296.5 -52q-224 0 -411 104t-284 282t-97 400q0 240 116.5 447.5t316 325.5t441.5 118q193 0 339 -79.5t227 -231.5t81 -340q0 -160 -58.5 -292.5t-163.5 -206t-234 -73.5q-76 0 -127 49t-51 130h-11q-44 -80 -111 -128.5t-132 -48.5
q-95 0 -152 75.5t-57 195.5q0 125 64.5 253.5t164.5 203.5t207 75q61 0 106.5 -37.5t59.5 -101.5h8l47 127h113l-185 -532q-18 -56 -18 -109q0 -48 22 -74t76 -26q94 0 176.5 67.5t129.5 189t47 273.5q0 164 -70.5 294.5t-200.5 201.5t-305 71q-199 0 -371.5 -108.5
t-267 -293.5t-94.5 -411q0 -222 82.5 -384.5t234 -248.5t351.5 -86q152 0 268.5 40t216.5 122zM1208 733q-15 91 -52.5 130.5t-96.5 39.5q-74 0 -142 -66.5t-115.5 -190t-47.5 -236.5q0 -90 25.5 -141.5t76.5 -51.5q67 0 128 52.5t128 174.5z" />
    <glyph glyph-name="A" unicode="A" horiz-adv-x="1284" 
d="M1249 0h-489l12 61q95 12 126 20.5t47 23t16 38.5q0 34 -9 95l-32 264h-531l-143 -238q-51 -92 -51 -125q0 -31 50.5 -52.5t133.5 -25.5l-12 -61h-519l13 61q87 7 151.5 50.5t112.5 126.5l772 1202h18l177 -1227q12 -78 63 -113t107 -39zM823 1192l-389 -614h473z" />
    <glyph glyph-name="B" unicode="B" horiz-adv-x="1272" 
d="M463 1284q0 31 -50.5 49t-109.5 25l12 61h590q79 0 159.5 -33.5t121.5 -88.5t41 -126q0 -151 -104.5 -259.5t-288.5 -147.5l2 -2q161 -27 249.5 -108t88.5 -197q0 -91 -42.5 -173t-118 -144t-176.5 -101t-182 -39h-663l12 61l37 3q93 7 124.5 31t45.5 83l246 1057
q6 30 6 49zM1063 1165q0 89 -64.5 138t-183.5 49l-194 -4l-127 -564h174q119 0 208 49t138 137.5t49 194.5zM1012 492q0 96 -86 160.5t-211 64.5l-240 -4l-104 -457q-13 -57 -13 -88q0 -50 57 -77.5t169 -27.5q119 0 213.5 53.5t154.5 161.5t60 214z" />
    <glyph glyph-name="C" unicode="C" horiz-adv-x="1280" 
d="M1229 352q-115 -198 -262 -289.5t-336 -91.5q-151 0 -270 70.5t-185.5 197.5t-66.5 283q0 238 108 454t293.5 345t390.5 129q231 0 371 -104l47 73h78l-109 -499h-69v51q0 150 -35.5 235t-108.5 125.5t-178 40.5q-165 0 -314 -108.5t-232 -291t-83 -399.5
q0 -143 53.5 -260.5t149 -182t215.5 -64.5q145 0 270 86.5t207 236.5z" />
    <glyph glyph-name="D" unicode="D" horiz-adv-x="1446" 
d="M463 1284q0 31 -50.5 49t-109.5 25l12 61h545q164 0 299.5 -70.5t203 -190.5t67.5 -279q0 -248 -115.5 -447t-325 -315.5t-446.5 -116.5h-557l12 61q109 6 145 21q50 21 68 96l246 1057q6 30 6 49zM1274 850q0 228 -131.5 364t-349.5 136l-170 -4l-252 -1090
q-13 -65 -13 -76q0 -60 53.5 -83t182.5 -23q191 0 345.5 99t244.5 282.5t90 394.5z" />
    <glyph glyph-name="E" unicode="E" horiz-adv-x="1309" 
d="M1364 1419l-80 -332h-61q-7 244 -136 259q-108 6 -210 6h-252l-133 -580h213q86 0 133 20t83.5 75.5t63.5 129.5h64l-123 -534h-62l2 76q0 78 -10 98q-18 35 -59 48t-111 13h-213l-100 -436q-13 -57 -13 -96q0 -52 43 -72t177 -20q155 0 260 15t139 42q83 65 192 275h68
l-121 -406h-1145l13 61q123 7 157 21q50 21 68 96l246 1057q6 30 6 49q0 52 -144 70l-30 4l12 61h1063z" />
    <glyph glyph-name="F" unicode="F" horiz-adv-x="1194" 
d="M1374 1419l-80 -342h-63v10q0 102 -36.5 175.5t-96.5 83.5q-42 6 -168 6h-305l-136 -584h228q75 0 123 16.5t88.5 63.5t75.5 145h65l-125 -536h-65l4 38l2 42q0 64 -13 92q-17 29 -37 41t-52 20t-85 8h-227l-100 -448q-17 -68 -17 -105q0 -43 47 -59.5t131 -24.5l-14 -61
h-543l11 61q123 7 157 21q50 21 68 96l246 1057q6 30 6 49q0 52 -144 70l-30 4l12 61h1073z" />
    <glyph glyph-name="G" unicode="G" horiz-adv-x="1442" 
d="M659 -29q-156 0 -282.5 71t-197 201.5t-70.5 299.5q0 237 114 447t308.5 335t408.5 125q123 0 232.5 -28t175.5 -76l49 73h65l-104 -483h-68q2 51 2 68q-3 190 -101 279t-280 89q-174 0 -326.5 -111t-236.5 -299t-84 -413q0 -226 125.5 -365t331.5 -139q167 0 280 80
q27 40 54 167t32 189q0 32 -18 48.5t-78.5 26t-106.5 9.5h-10l13 68h551l-13 -68l-31 -3q-75 -7 -105 -22.5t-48 -43.5t-29 -70q-36 -157 -54 -236.5t-21 -117.5q-166 -58 -272 -79.5t-206 -21.5z" />
    <glyph glyph-name="H" unicode="H" horiz-adv-x="1610" 
d="M1346 1284q0 31 -52 49t-108 25l12 61h502l-14 -61q-96 -9 -141.5 -29.5t-63.5 -93.5l-234 -1018q-10 -47 -10 -67q0 -29 14.5 -46t55 -30t79.5 -13l-16 -61h-496l13 61l37 3q93 7 124.5 31t45.5 83l120 522h-739l-110 -483q-11 -38 -11 -67t14 -45.5t55.5 -30
t80.5 -13.5l-17 -61h-495l12 61l37 3q93 7 124.5 31t45.5 83l246 1057q6 30 6 49q0 31 -50.5 49t-109.5 25l12 61h502l-14 -61q-98 -9 -143.5 -31t-61.5 -92l-104 -459h739l106 459q7 35 7 49z" />
    <glyph glyph-name="I" unicode="I" horiz-adv-x="729" 
d="M463 1276q0 41 -68 60t-123 22l13 61h565l-14 -61q-107 -8 -164 -28.5t-74 -92.5l-233 -1016q-11 -38 -11 -69q0 -45 51 -65.5t134 -25.5l-13 -61h-565l12 61q131 9 152 17q69 26 86 98l244 1051q8 29 8 49z" />
    <glyph glyph-name="J" unicode="J" horiz-adv-x="1022" 
d="M788 1276q0 40 -67 59t-123 23l12 61h551l-14 -61q-61 -5 -118 -19.5t-76 -40.5t-27 -63l-193 -827q-47 -202 -175.5 -321.5t-307.5 -119.5q-136 0 -218.5 67.5t-82.5 182.5q0 105 46.5 173.5t119.5 68.5q34 0 56 -23t22 -57q0 -38 -16.5 -71.5t-40 -65t-48.5 -61.5
t-43 -60q24 -42 83 -68t132 -26q93 0 157 46t108 132t89 280l168 750q6 18 6 41z" />
    <glyph glyph-name="K" unicode="K" horiz-adv-x="1335" 
d="M487 717q120 75 268 192.5t268 233t120 166.5q0 22 -40.5 35.5t-92.5 13.5l12 61h491l-16 -57q-52 0 -104 -15.5t-82 -41.5q-159 -147 -306 -270.5t-364 -286.5q163 -226 265 -384l67 -104q66 -103 117.5 -146.5t166.5 -52.5l-20 -61h-274q-80 151 -205 346.5t-234 337.5
h-53l-106 -467q-11 -38 -11 -67t14 -45.5t55.5 -30t80.5 -13.5l-17 -61h-495l12 61l37 3q93 7 124.5 31t45.5 83l246 1057q6 30 6 49q0 31 -50.5 49t-109.5 25l12 61h502l-14 -61q-98 -9 -143.5 -31t-61.5 -92l-119 -518h8z" />
    <glyph glyph-name="L" unicode="L" horiz-adv-x="1194" 
d="M825 1419l-12 -61q-73 -6 -137 -27q-61 -20 -80 -102l-223 -977q-17 -74 -17 -107q0 -48 37.5 -62.5t163.5 -14.5q119 0 208.5 15t121.5 40q32 26 95 109t122 174h59l-123 -406h-1048l12 61l37 3q93 7 124.5 31t45.5 83l246 1057q6 30 6 49q0 31 -50.5 49t-109.5 25
l12 61h510z" />
    <glyph glyph-name="M" unicode="M" horiz-adv-x="1831" 
d="M1452 150q0 -27 20.5 -46.5t69.5 -31t74 -11.5l-17 -61h-534l14 61q18 0 67.5 6.5t79.5 16.5t54.5 33.5t36.5 70.5l258 1086h-10l-795 -1251h-22l-68 454l-133 797h-8l-205 -875q-27 -108 -27 -186q0 -63 25 -90q32 -43 166 -62l-13 -61h-555l17 61l33 5q82 11 127 34
t72.5 77t64.5 208l176 758q8 37 8 78q0 69 -49.5 100.5t-126.5 36.5l14 61h389l185 -1140l608 960q86 150 94 180h385l-12 -61q-107 -9 -152.5 -30.5t-62.5 -92.5l-227 -967q-21 -94 -21 -118z" />
    <glyph glyph-name="N" unicode="N" horiz-adv-x="1546" 
d="M1362 1206q0 63 -25 90q-26 39 -186 62l12 61h576l-17 -61l-33 -5q-85 -11 -128.5 -34t-71.5 -78t-64 -207l-243 -1052h-47l-611 1230l-190 -813q-7 -28 -17 -89.5t-10 -96.5q0 -63 25 -90q26 -39 186 -62l-12 -61h-576l17 61l33 5q82 11 127 34t72.5 77t64.5 208
l178 766q8 32 8 63q0 45 -45 90.5t-174 53.5l16 61h348l582 -1165l178 766q7 28 17 89.5t10 96.5z" />
    <glyph glyph-name="O" unicode="O" horiz-adv-x="1446" 
d="M1425 870q0 -230 -108 -435t-300 -336.5t-388 -131.5q-236 0 -378 157t-142 415q0 237 110.5 448.5t297.5 336t388 124.5q237 0 378.5 -158.5t141.5 -419.5zM1266 911q0 218 -98 338.5t-279 120.5q-131 0 -244.5 -65.5t-197 -186t-132.5 -284.5t-49 -316
q0 -228 97.5 -349.5t279.5 -121.5q176 0 316.5 114t223.5 321t83 429z" />
    <glyph glyph-name="P" unicode="P" horiz-adv-x="1192" 
d="M1073 1108q0 112 -67 175t-185 63h-200l-142 -633h176q126 0 220.5 49t146 146t51.5 200zM893 1419q160 0 255 -82.5t95 -224.5q0 -128 -74.5 -236.5t-207.5 -174.5t-273 -66h-227l-96 -418q-11 -38 -11 -67q0 -35 21 -52.5t74.5 -27t85.5 -9.5l-17 -61h-526l12 61l37 3
q93 7 124.5 31t45.5 83l246 1057q6 30 6 49q0 26 -52 46t-116 28l12 61h586z" />
    <glyph glyph-name="Q" unicode="Q" horiz-adv-x="1446" 
d="M1425 870q0 -202 -84.5 -386.5t-237 -317.5t-325.5 -178q-6 -35 -6 -80q0 -87 59 -140t154 -53q60 0 126 7t106 16l-17 -74q-54 -13 -135 -23t-145 -10q-147 0 -225.5 72.5t-78.5 206.5q0 43 7 57q-155 1 -271.5 72t-179.5 201t-63 299q0 237 110.5 448.5t297.5 336
t388 124.5q237 0 378.5 -158.5t141.5 -419.5zM1266 911q0 218 -98 338.5t-279 120.5q-131 0 -244.5 -65.5t-197 -186t-132.5 -284.5t-49 -316q0 -228 97.5 -349.5t279.5 -121.5q176 0 316.5 114t223.5 321t83 429z" />
    <glyph glyph-name="R" unicode="R" horiz-adv-x="1339" 
d="M348 145q0 -51 31 -65q11 -7 67.5 -13t73.5 -6l-16 -61h-516l16 61q110 9 131 21q62 25 80 102l242 1059q4 7 4 35t-13 43.5t-66.5 26t-73.5 10.5h-5l12 61h568q97 0 175 -31.5t121.5 -91.5t43.5 -143q0 -176 -116 -299t-331 -170l131 -251l107 -212q42 -79 80 -105
l26 -20q45 -29 140 -35l-17 -61h-278q-82 203 -237 496l-79 151h-188l-109 -477zM1051 1130q0 102 -62 161t-164 59h-204l-140 -625h164q105 0 200 55t150.5 149t55.5 201z" />
    <glyph glyph-name="S" unicode="S" horiz-adv-x="1102" 
d="M504 -23q-129 0 -220.5 25.5t-160.5 79.5l-47 -82h-66l90 471h70q4 -159 41 -246.5t113 -132.5t198 -45q163 0 260 94t97 250q0 79 -39 138.5t-101 86.5q-58 26 -152 60q-156 54 -218.5 101.5t-94.5 111.5t-32 139q0 116 65 211.5t176 151t228 55.5q194 0 329 -98l43 71
h68l-98 -465h-68v21q0 168 -29.5 244t-95 115.5t-180.5 39.5q-130 0 -217.5 -85t-87.5 -216q0 -139 96 -199q60 -34 150 -65q143 -50 206 -85.5t101 -75t61 -92.5t23 -124q0 -123 -70.5 -227.5t-190 -166t-247.5 -61.5z" />
    <glyph glyph-name="T" unicode="T" horiz-adv-x="1241" 
d="M739 1352h-61q-130 0 -188.5 -8.5t-113 -50t-99.5 -106t-74 -143.5h-70l88 375h1204l-84 -375h-65v14q0 104 -24 174t-65 95t-239 25h-67l-260 -1131q-11 -38 -11 -71q0 -47 61 -66t144 -23l-12 -61h-606l12 61l40 3q108 6 142 18q59 22 76 94z" />
    <glyph glyph-name="U" unicode="U" horiz-adv-x="1597" 
d="M657 -33q-125 0 -227.5 43t-159.5 116.5t-57 160.5q0 57 18 131l191 815q6 30 6 51q0 31 -51 49t-109 25l13 61h501l-14 -61q-105 -10 -148.5 -33.5t-58.5 -91.5l-192 -838q-13 -48 -13 -100q0 -64 39 -117t111.5 -85t175.5 -32q192 0 323.5 87t172.5 239q24 87 98 416.5
t74 402.5q0 63 -25 90q-13 20 -64.5 37.5t-121.5 24.5l12 61h575l-16 -61l-33 -5q-90 -12 -133 -36.5t-68.5 -78.5t-58.5 -196l-47 -222q-22 -99 -98 -417q-55 -211 -214 -323.5t-401 -112.5z" />
    <glyph glyph-name="V" unicode="V" horiz-adv-x="1309" 
d="M526 -20h-22q-33 270 -94 707.5t-82 551.5q-9 41 -30 65.5t-61.5 39t-70.5 14.5l14 61h494l-17 -61q-109 0 -147.5 -14t-38.5 -48l4 -48q14 -133 70 -530t65 -458l298 471l225 363q75 131 75 182q0 31 -50.5 53.5t-127.5 28.5l12 61h517l-13 -61q-56 0 -115.5 -28
t-134.5 -140q-179 -272 -411.5 -638t-358.5 -572z" />
    <glyph glyph-name="W" unicode="W" horiz-adv-x="1886" 
d="M1235 -20h-33l-133 1128l-661 -1128h-31q-17 915 -33 1230q-5 70 -23.5 95.5t-54 39t-65.5 13.5l12 61h485l-12 -61q-203 0 -203 -66v-62l2 -91l27 -826l635 1076h31l135 -1092q185 365 385 784q43 97 57 138t14 65q0 62 -161 74l12 61h494l-13 -61q-53 0 -127 -37
q-74 -46 -123 -137z" />
    <glyph glyph-name="X" unicode="X" horiz-adv-x="1401" 
d="M244 1358l16 61h506l-12 -61q-105 0 -138.5 -14.5t-33.5 -49.5q0 -34 30.5 -110t169.5 -367l94 99q60 62 145 152.5t114.5 123.5t47 62t17.5 46q0 27 -40.5 42.5t-115.5 15.5l17 61h504l-13 -61l-26 -2q-78 -4 -128.5 -29.5t-140.5 -118.5l-97 -101q-247 -249 -347 -357
q132 -287 168 -362t78 -158.5t73.5 -117.5t59.5 -42.5t82 -8.5l-14 -61h-521l13 61q174 0 174 60q0 59 -56.5 194.5t-150.5 327.5q-95 -92 -377 -403q-35 -39 -57.5 -73t-22.5 -48q0 -58 70.5 -58h87.5l-12 -61h-514l16 61l24 3q61 5 113 30q79 36 152 115t249 257.5
t238 248.5l-233 491q-26 55 -54 86.5t-81.5 48.5t-73.5 17z" />
    <glyph glyph-name="Y" unicode="Y" horiz-adv-x="1180" 
d="M567 143q0 -30 40.5 -50t166.5 -32l-12 -61h-606l12 61l40 3q108 6 144 18q57 22 74 94l72 307q14 63 14 82q0 57 -58 249.5t-122 377.5q-31 87 -56.5 114.5t-53.5 37.5t-68 14l16 61h473l-14 -61l-54 -3q-116 -6 -116 -50q0 -55 176 -621q67 82 136 166t130.5 159.5
t111 137.5t77.5 100q16 23 16 45q0 55 -116 62l-60 4l16 61h486l-17 -61q-63 -9 -101 -25.5t-80 -57t-167 -183.5t-237 -283t-135.5 -176t-36 -73t-80.5 -347q-11 -41 -11 -70z" />
    <glyph glyph-name="Z" unicode="Z" horiz-adv-x="1184" 
d="M1001 0h-1087l6 20l1206 1330h-364q-115 0 -182 -9q-88 -13 -182 -103t-146 -204h-64l129 385h1022l-6 -20l-1204 -1329h322q108 0 226 13.5t148 35.5q52 37 108.5 100.5t100.5 132.5l47 72h66z" />
    <glyph glyph-name="bracketleft" unicode="[" horiz-adv-x="694" 
d="M-35 -309l422 1829h467l-18 -88h-359l-381 -1651h361l-25 -90h-467z" />
    <glyph glyph-name="backslash" unicode="\" horiz-adv-x="956" 
d="M551 -424l-184 1948h110l185 -1948h-111z" />
    <glyph glyph-name="bracketright" unicode="]" horiz-adv-x="694" 
d="M762 1520l-422 -1829h-467l18 88h359l381 1651h-361l25 90h467z" />
    <glyph glyph-name="asciicircum" unicode="^" horiz-adv-x="1255" 
d="M1008 815l-326 531l-326 -531h-120l395 641h102l393 -641h-118z" />
    <glyph glyph-name="underscore" unicode="_" horiz-adv-x="1255" 
d="M-180 -274l20 94h1268l-23 -94h-1265z" />
    <glyph glyph-name="grave" unicode="`" 
d="M930 1114l-256 242q-64 55 -64 110q0 26 16.5 47t45.5 21q34 0 59 -24t80 -115q71 -118 158 -250z" />
    <glyph glyph-name="a" unicode="a" horiz-adv-x="1124" 
d="M412 66q68 0 144.5 37t176.5 128l127 543q0 79 -57.5 125.5t-145.5 46.5q-114 0 -222.5 -88t-170 -229.5t-61.5 -296.5q0 -123 52 -194.5t157 -71.5zM707 143l-62 -54q-128 -116 -262 -116q-146 0 -228.5 102t-82.5 271q0 166 81.5 319t217.5 247t286 94q107 0 195 -38
l39 -18l123 39l8 -12l-154 -662q-12 -55 -21 -96.5t-9 -68.5q0 -68 86 -68q83 0 123 16l-11 -53q-41 -25 -105.5 -43t-109.5 -18q-110 0 -110 110q0 27 4 49h-8z" />
    <glyph glyph-name="b" unicode="b" horiz-adv-x="1077" 
d="M874 627q0 135 -60 213t-183 78q-59 0 -122 -29t-165 -115l-139 -618q16 -46 83.5 -83.5t153.5 -37.5q114 0 215 80t159 217t58 295zM371 866q89 78 159.5 109t135.5 31q155 0 247.5 -105t92.5 -278q0 -162 -73.5 -310t-205.5 -245t-272 -97q-143 0 -231 43t-140 121
l264 1157q14 56 14 103q0 39 -28 52.5t-129 25.5l12 55l291 20l12 -12l-158 -670h9z" />
    <glyph glyph-name="c" unicode="c" horiz-adv-x="897" 
d="M877 811q0 -68 -28 -115t-75 -47q-42 0 -61 21.5t-19 50.5q0 39 51 166q-13 22 -56 37.5t-93 15.5q-102 0 -194.5 -76.5t-146.5 -209t-54 -289.5q0 -134 71 -216.5t187 -82.5q176 0 329 202l50 -32q-76 -117 -196 -190t-230 -73q-162 0 -251 99.5t-89 275.5t73 332.5
t195 241t268 84.5q122 0 195.5 -53t73.5 -142z" />
    <glyph glyph-name="d" unicode="d" horiz-adv-x="1124" 
d="M412 66q68 0 144.5 37t176.5 128l127 543q0 77 -49 124.5t-154 47.5q-114 0 -222.5 -88t-170 -229.5t-61.5 -296.5q0 -123 52 -194.5t157 -71.5zM838 150q0 -68 86 -68q83 0 123 16l-11 -53q-41 -25 -105.5 -43t-109.5 -18q-110 0 -110 110q0 27 4 49h-8l-62 -54
q-128 -116 -262 -116q-146 0 -228.5 102t-82.5 271q0 166 81.5 319t217.5 247t286 94q59 0 114 -11t136 -47l80 346q14 56 14 101q0 40 -33.5 55t-140.5 23l15 55l303 20l10 -12l-287 -1221q-12 -55 -21 -96.5t-9 -68.5z" />
    <glyph glyph-name="e" unicode="e" horiz-adv-x="922" 
d="M881 809q0 -108 -70.5 -187.5t-230.5 -132t-387 -83.5v-18q0 -156 63.5 -239t187.5 -83q178 0 336 204l49 -34q-81 -120 -199 -191.5t-239 -71.5q-154 0 -237.5 98t-83.5 277q0 167 77 322t210 245.5t288 90.5q114 0 175 -53t61 -144zM641 940q-101 0 -196 -62.5
t-160 -171.5t-84 -237q178 24 264.5 50.5t159 72t107 102t34.5 123.5q0 57 -32.5 90t-92.5 33z" />
    <glyph glyph-name="f" unicode="f" horiz-adv-x="621" 
d="M702 981l-22 -84h-248l-176 -838q-30 -141 -99 -256t-165.5 -181t-204.5 -66q-52 0 -85.5 27t-33.5 67q0 29 18.5 52.5t61.5 23.5q29 0 54.5 -17.5t62.5 -70.5q92 5 160.5 104t107.5 281l184 874h-194l18 84h195l14 61q55 231 184 368.5t291 137.5q50 0 84.5 -23
t34.5 -61q0 -35 -20.5 -60.5t-55.5 -25.5q-42 0 -73 27.5t-56 64.5q-179 -9 -266 -389l-22 -100h251z" />
    <glyph glyph-name="g" unicode="g" horiz-adv-x="1116" 
d="M422 72q146 0 321 159l121 543q0 85 -50.5 128.5t-145.5 43.5q-112 0 -219 -85t-171.5 -227.5t-64.5 -301.5q0 -124 52 -192t157 -68zM1016 989l8 -12l-168 -776q-74 -340 -223.5 -492.5t-411.5 -152.5q-100 0 -155.5 33.5t-55.5 95.5q0 31 17.5 56.5t58.5 25.5
q62 0 96 -104l17 -48h43q182 0 307 134t178 394h-10l-62 -52q-128 -111 -262 -111q-145 0 -228 98.5t-83 267.5q0 171 85 325t220 244.5t281 90.5q57 0 111 -12t122 -44z" />
    <glyph glyph-name="h" unicode="h" horiz-adv-x="1038" 
d="M520 1536l-168 -696h4q80 74 186.5 120t194.5 46q89 0 145 -55t56 -140q0 -61 -25 -158q-101 -392 -109.5 -433.5t-8.5 -69.5q0 -68 86 -68q83 0 123 16l-11 -53q-41 -25 -105.5 -43t-109.5 -18q-110 0 -110 110q0 47 18 117l105 399q28 112 28 174q0 53 -41 91t-108 38
q-78 0 -172.5 -50t-163.5 -124l-170 -739h-113l297 1292q14 56 14 103q0 39 -28 52.5t-129 25.5l12 55l291 20z" />
    <glyph glyph-name="i" unicode="i" horiz-adv-x="537" 
d="M467 1284q-76 0 -76 88q0 53 27.5 85t66.5 32q78 0 78 -88q0 -51 -28 -84t-68 -33zM262 150q0 -68 86 -68q83 0 123 16l-10 -53q-41 -25 -105.5 -43t-109.5 -18q-111 0 -111 110q0 41 19 117l110 465q29 116 29 164q0 67 -82 67q-58 0 -119 -16l10 53q44 25 106 43.5
t107 18.5q105 0 105 -111q0 -41 -19 -117l-110 -465q-29 -111 -29 -163z" />
    <glyph glyph-name="j" unicode="j" horiz-adv-x="520" 
d="M299 838q0 32 -17.5 50.5t-68.5 18.5q-23 0 -63.5 -7t-55.5 -13l10 55q58 31 115.5 47.5t95.5 16.5q111 0 111 -111q0 -51 -16 -125q-48 -238 -150 -711q-32 -146 -105 -261t-172 -178.5t-198 -63.5q-51 0 -81 26t-30 68q0 32 18.5 54t53.5 22q28 0 52.5 -17t62.5 -71
q102 0 167 96t107 289l70 311q94 414 94 504zM467 1284q-76 0 -76 88q0 53 27.5 85t66.5 32q78 0 78 -88q0 -51 -28 -84t-68 -33z" />
    <glyph glyph-name="k" unicode="k" horiz-adv-x="1014" 
d="M274 492q131 126 469 413q57 48 95 68t75 20q41 0 63.5 -26.5t22.5 -61.5q0 -38 -23.5 -63t-64.5 -25t-104 17q-135 -82 -318 -236q57 -136 125.5 -273.5t97.5 -174.5t61 -54.5t69 -17.5q30 0 72 7t59 11l-10 -53q-108 -53 -205 -53q-56 0 -97 37.5t-81 119.5
q-104 203 -170 373l-160 -131l-86 -389h-113l297 1292q14 56 14 103q0 39 -28 52.5t-129 25.5l12 55l291 20l12 -12l-250 -1044h4z" />
    <glyph glyph-name="l" unicode="l" horiz-adv-x="512" 
d="M215 150q0 -68 86 -68q83 0 123 16l-10 -53q-41 -25 -105.5 -43t-109.5 -18q-111 0 -111 110q0 45 18 117l250 1081q15 60 15 103q0 39 -28 52.5t-130 25.5l12 55l291 20l10 -12l-282 -1223q-29 -123 -29 -163z" />
    <glyph glyph-name="m" unicode="m" horiz-adv-x="1720" 
d="M1378 1006q90 0 145.5 -54t55.5 -141q0 -61 -25 -158q-101 -392 -109.5 -433.5t-8.5 -69.5q0 -68 86 -68q83 0 123 16l-11 -53q-41 -25 -105.5 -43t-109.5 -18q-110 0 -110 110q0 47 18 117l105 399q28 112 28 174q0 53 -38.5 91t-106.5 38q-69 0 -153.5 -41.5
t-168.5 -128.5l-174 -743h-114l163 696q11 59 11 88q0 56 -39 92.5t-109 36.5q-73 0 -164 -47t-166 -127l-170 -739h-112l158 695q18 78 18 126q0 44 -17.5 60t-60.5 16q-55 0 -111 -16l11 53q123 59 213 59q51 0 70.5 -28.5t19.5 -83.5l-2 -41h6q80 74 184.5 120t192.5 46
q86 0 140 -50t58 -127h2q121 101 204 139t173 38z" />
    <glyph glyph-name="n" unicode="n" horiz-adv-x="1147" 
d="M846 -16q-111 0 -111 110q0 51 19 117l104 399q29 116 29 174q0 53 -41 91t-109 38q-75 0 -168 -47.5t-168 -126.5l-170 -739h-112l158 695q18 78 18 126q0 44 -17.5 60t-60.5 16q-55 0 -111 -16l11 53q123 59 213 59q51 0 70.5 -28.5t19.5 -83.5l-2 -41h6
q79 73 185.5 119.5t195.5 46.5q90 0 145.5 -54t55.5 -141q0 -54 -25 -158q-100 -390 -109.5 -432t-9.5 -71q0 -68 86 -68q83 0 123 16l-10 -53q-41 -25 -105.5 -43t-109.5 -18z" />
    <glyph glyph-name="o" unicode="o" horiz-adv-x="1038" 
d="M971 627q0 -176 -76.5 -332t-205.5 -240t-286 -84q-148 0 -241.5 103t-93.5 276q0 180 77.5 334t205.5 238t280 84q155 0 247.5 -104.5t92.5 -274.5zM844 623q0 154 -60 234.5t-174 80.5q-118 0 -210.5 -70t-148.5 -210.5t-56 -297.5q0 -160 60 -240.5t175 -80.5
q121 0 215.5 76.5t146.5 210t52 297.5z" />
    <glyph glyph-name="p" unicode="p" horiz-adv-x="1143" 
d="M940 627q0 135 -60.5 213t-183.5 78q-59 0 -122.5 -29.5t-163.5 -114.5l-140 -618q19 -48 86.5 -84.5t151.5 -36.5q114 0 215.5 81t159 218t57.5 293zM170 -309q0 -21 9 -33t39.5 -24t71.5 -15l50 -4l-14 -59h-465l14 59q87 7 107 12q58 20 73 92l215 945q23 101 23 141
q0 53 -16 72.5t-72 19.5q-21 0 -101 -20l11 53q133 63 213 63q48 0 74 -33.5t26 -93.5h8q70 59 112 84t87.5 40.5t95.5 15.5q155 0 247.5 -105t92.5 -278q0 -162 -73.5 -310t-205.5 -245t-272 -97q-174 0 -282 72q-34 -160 -52 -244t-16 -108z" />
    <glyph glyph-name="q" unicode="q" horiz-adv-x="1075" 
d="M412 66q68 0 144.5 37t176.5 128l127 543q0 79 -57.5 125.5t-145.5 46.5q-114 0 -222.5 -88t-170 -229.5t-61.5 -296.5q0 -123 52 -194.5t157 -71.5zM709 143l-62 -54q-130 -116 -264 -116q-146 0 -228.5 102t-82.5 271q0 166 81.5 319t217.5 247t286 94q107 0 195 -38
l39 -18l115 39l10 -12l-266 -1186q-17 -79 -17 -104q0 -32 35 -48t121 -24l-15 -59h-464l12 59l65 4q66 4 91.5 25.5t37.5 74.5l101 424h-8z" />
    <glyph glyph-name="r" unicode="r" horiz-adv-x="909" 
d="M231 0h-112l151 664q25 100 25 157q0 44 -17.5 60t-60.5 16q-55 0 -111 -16l11 53q123 59 213 59q53 0 69.5 -36t16.5 -89l-2 -47h6q96 84 178 134.5t158 50.5q75 0 109 -34.5t34 -105.5q0 -61 -27.5 -103t-70.5 -42q-44 0 -62 21t-18 49q0 44 41 133q-79 0 -171 -47
t-190 -142z" />
    <glyph glyph-name="s" unicode="s" horiz-adv-x="834" 
d="M246 754q0 -66 44.5 -109.5t153.5 -81.5q160 -55 220.5 -112t60.5 -140q0 -149 -106 -243.5t-275 -94.5q-137 0 -230.5 54.5t-93.5 130.5q0 40 22 63t56 23q39 0 65 -39t34 -113q64 -49 186 -49q108 0 176 58.5t68 150.5q0 68 -55.5 115t-155.5 82q-138 43 -200 104.5
t-62 144.5q0 82 47.5 153t132.5 113t182 42q116 0 196.5 -41t80.5 -103q0 -35 -17.5 -59.5t-52.5 -24.5q-42 0 -70 31.5t-49 108.5q-52 18 -121 18q-103 0 -170 -51.5t-67 -130.5z" />
    <glyph glyph-name="t" unicode="t" horiz-adv-x="639" 
d="M244 176q0 -49 24.5 -70.5t83.5 -21.5q85 0 160 20l-12 -61q-115 -59 -230 -59q-68 0 -110.5 39t-42.5 104q0 53 14 115l154 655h-174l18 84h176l70 287h108l-65 -287h282l-18 -84h-285l-129 -561q-24 -98 -24 -160z" />
    <glyph glyph-name="u" unicode="u" horiz-adv-x="1106" 
d="M809 -14q-52 0 -81.5 30.5t-29.5 85.5l2 27h-6q-113 -89 -191 -120.5t-159 -31.5q-91 0 -149 53.5t-58 143.5q0 57 23 156l78 334q26 121 26 161q0 35 -16 53.5t-60 18.5q-36 0 -116 -20l14 53q126 63 207 63q98 0 98 -100q0 -59 -20 -139l-86 -383q-27 -108 -27 -166
q0 -60 41 -96.5t111 -36.5q68 0 158.5 46.5t158.5 114.5l176 746l103 10l12 -14l-158 -658q-5 -24 -10.5 -48.5t-10 -46.5t-7.5 -40.5t-3 -29.5q0 -42 26.5 -56t80.5 -14q15 0 48.5 4t49.5 10l-10 -51q-116 -59 -215 -59z" />
    <glyph glyph-name="v" unicode="v" horiz-adv-x="1067" 
d="M821 924q0 32 22 57t62 25q88 0 88 -154q0 -216 -84 -422.5t-226 -332.5t-304 -126q-112 0 -179 62t-67 168q0 64 25 151l64 232q48 168 48 241q0 72 -71 72q-32 0 -74.5 -9.5t-52.5 -13.5l12 54q132 65 219 65q96 0 96 -104q0 -47 -12 -105l-117 -452q-16 -71 -16 -121
q0 -65 44 -102t124 -37q93 0 175 49t147 137.5t109 210.5t44 205q0 52 -12 84.5t-26 57t-26 48.5t-12 60z" />
    <glyph glyph-name="w" unicode="w" horiz-adv-x="1595" 
d="M950 -29q-96 0 -156.5 47t-82.5 136h-6q-114 -93 -161.5 -120t-96.5 -42t-103 -15q-91 0 -149 53.5t-58 143.5q0 57 23 156l78 334q26 121 26 161q0 35 -16 53.5t-60 18.5q-36 0 -116 -20l14 53q126 63 207 63q98 0 98 -100q0 -59 -20 -139l-86 -383q-27 -108 -27 -166
q0 -60 41 -96.5t111 -36.5q66 0 147.5 46t149.5 115l176 746l102 10l12 -14l-155 -643q-17 -68 -17 -121q0 -65 44 -102t124 -37q92 0 170.5 47.5t140.5 135t103 209t41 210.5q0 52 -12 84.5t-26 57t-26 48.5t-12 60q0 32 22 57t62 25q88 0 88 -154q0 -224 -82.5 -431.5
t-218.5 -328.5t-293 -121z" />
    <glyph glyph-name="x" unicode="x" horiz-adv-x="983" 
d="M518 571q132 202 244 328q85 94 190 94q35 0 58.5 -21t23.5 -57q-4 -73 -96 -73q-56 0 -111 22q-81 -72 -148 -159.5t-138 -204.5q14 -49 45.5 -136.5t50.5 -138.5q30 -79 65 -111t91 -32q59 0 122 14l-16 -53q-85 -53 -176 -53q-47 0 -79.5 18.5t-57 57t-57 133.5
t-64.5 196q-47 -68 -106 -149.5t-140 -169.5q-86 -92 -182 -92q-38 0 -64 21.5t-26 60.5q0 30 23 51.5t71 21.5q50 0 113 -30q139 121 288 358q-25 89 -66 203t-62 152t-43.5 54.5t-61.5 16.5q-58 0 -125 -23l16 58q47 29 96 47t78 18q43 0 72.5 -20.5t53 -64.5t65 -167
t53.5 -170z" />
    <glyph glyph-name="y" unicode="y" horiz-adv-x="1075" 
d="M707 137q-113 -89 -196 -124.5t-167 -35.5q-91 0 -149 53.5t-58 143.5q0 57 23 156l78 334q26 121 26 161q0 35 -16 53.5t-60 18.5q-36 0 -116 -20l14 53q126 63 207 63q98 0 98 -100q0 -59 -20 -139l-86 -383q-27 -108 -27 -166q0 -60 41 -96.5t111 -36.5t163.5 45.5
t159.5 111.5l172 750l101 10l10 -12l-170 -766q-58 -264 -136.5 -397t-201.5 -195.5t-307 -62.5q-199 0 -199 118q0 40 20 62t54 22q64 0 106 -97l19 -46h22q190 0 316 133t176 389h-8z" />
    <glyph glyph-name="z" unicode="z" horiz-adv-x="874" 
d="M133 78q132 -2 172 -2q145 0 244 6q42 0 72 35.5t71 129.5l43 93h53l-65 -340h-750l15 61l745 840h-174q-111 0 -175 -8t-87 -26.5t-48 -65.5t-54 -117h-56l58 295h704l-10 -51z" />
    <glyph glyph-name="braceleft" unicode="{" horiz-adv-x="809" 
d="M539 -334q-170 0 -242 51t-72 164q0 51 16.5 114t37 127.5t37 125t16.5 108.5q0 85 -60 129t-202 56l26 118q142 13 217.5 51t117 109t65.5 242q26 191 78.5 288.5t146.5 142t250 44.5l-19 -80q-120 -5 -169.5 -25.5t-84.5 -64t-53 -121.5l-59 -254q-45 -184 -144 -277
t-276 -110l-2 -8q138 -12 200 -73t62 -173q0 -60 -18 -139l-60 -254q-10 -44 -10 -74q0 -50 22 -77.5t59.5 -42t137.5 -21.5z" />
    <glyph glyph-name="bar" unicode="|" horiz-adv-x="754" 
d="M356 -424v1948h103v-1948h-103z" />
    <glyph glyph-name="braceright" unicode="}" horiz-adv-x="809" 
d="M297 1536q168 0 240.5 -50.5t72.5 -164.5q0 -51 -16.5 -114t-36.5 -127.5t-36.5 -125t-16.5 -108.5q0 -86 60.5 -130t201.5 -54l-27 -119q-176 -17 -260 -79t-114 -188q-10 -41 -25 -134q-29 -180 -62.5 -259t-88 -126.5t-134.5 -69t-190 -21.5l18 80q120 5 169.5 25.5
t84.5 64t53 121.5l60 254q42 180 140.5 275t279.5 112l2 8q-143 15 -202.5 75.5t-59.5 170.5q0 59 18 139l59 254q11 48 11 74q0 48 -19.5 74.5t-50.5 40t-70 18t-79 8.5z" />
    <glyph glyph-name="asciitilde" unicode="~" horiz-adv-x="1255" 
d="M1159 705q-28 -73 -78.5 -135t-115.5 -100t-136 -38q-64 0 -118 18t-105 39.5t-100.5 39.5t-104.5 18q-36 0 -63.5 -13.5t-50 -38.5t-72.5 -110l-65 25q25 69 80 136t118.5 100.5t128.5 33.5q66 0 121 -18t105.5 -39.5t99 -39.5t102.5 -18q52 0 93 31.5t98 132.5z" />
    <glyph glyph-name="exclamdown" unicode="&#xa1;" horiz-adv-x="631" 
d="M600 1352q0 -50 -30 -81.5t-76 -31.5q-50 0 -79.5 31.5t-29.5 81.5q0 46 29.5 76t79.5 30q46 0 76 -30t30 -76zM483 1028q-38 -135 -106 -516q-44 -313 -55 -380t-28.5 -94t-42.5 -40.5t-56 -13.5q-74 0 -74 77q0 24 14 86q44 167 193 638l75 243h80z" />
    <glyph glyph-name="cent" unicode="&#xa2;" 
d="M942 811q0 -72 -29 -117t-73 -45q-42 0 -61 21.5t-19 50.5q0 53 51 166q-11 17 -42 31.5t-75 19.5l-207 -870q28 -2 37 -2q177 0 330 202l49 -32q-77 -119 -196 -191t-230 -72h-12l-64 -272h-82l68 281q-117 25 -183.5 121.5t-66.5 244.5q0 163 64.5 311.5t177 239.5
t250.5 105l63 272h82l-65 -272q108 -7 170.5 -59.5t62.5 -133.5zM266 365q0 -95 38.5 -168.5t107.5 -106.5l200 846q-93 -18 -173.5 -98.5t-126.5 -205t-46 -267.5z" />
    <glyph glyph-name="sterling" unicode="&#xa3;" horiz-adv-x="1206" 
d="M1083 1257q-5 55 -55.5 91t-120.5 36q-78 0 -143 -34.5t-112 -101.5t-71.5 -158t-68.5 -388h399l-18 -84h-395q-28 -163 -104 -282.5t-216 -196.5v-8h866l-28 -131h-985l24 127q110 36 199 173t119 318h-158l18 84h154l17 129l20 144q42 220 177 349.5t317 129.5
q88 0 152.5 -31.5t99 -87.5t34.5 -123q0 -77 -30.5 -121t-83.5 -44q-76 0 -76 53q0 46 47 120z" />
    <glyph glyph-name="currency" unicode="&#xa4;" horiz-adv-x="1038" 
d="M836 188l-166 162q-61 -39 -127 -39q-71 0 -127 39l-164 -164l-74 78l158 164q-35 57 -35 125t35 125l-158 168l78 74l160 -164q56 39 127 39q66 0 127 -37l161 162l80 -74l-163 -168q36 -52 36 -125t-36 -125l163 -166zM686 553q0 60 -42 102.5t-101 42.5q-58 0 -99 -41
t-41 -104q0 -61 41 -103t99 -42q59 0 101 41.5t42 103.5z" />
    <glyph glyph-name="yen" unicode="&#xa5;" horiz-adv-x="1143" 
d="M643 547h385l-18 -82h-385l-64 -279q-4 -16 -4 -34q0 -31 21.5 -48t59 -27.5t91.5 -15.5l-12 -61h-520l16 61q111 9 144.5 23.5t49 38t25.5 65.5l66 277h-365l21 82h362l21 92l-50 201q-44 159 -78 271.5t-50 145t-41.5 58t-51.5 33t-63 10.5l12 61h449l-13 -61
q-71 -3 -113 -14.5t-42 -43.5q0 -23 42 -187t103 -376l303 391q70 88 89.5 120t19.5 46q0 29 -33 44t-117 20l15 61h462l-16 -61q-79 -18 -113 -35q-43 -23 -70.5 -48.5t-163 -187t-236.5 -293.5l-111 -143z" />
    <glyph glyph-name="brokenbar" unicode="&#xa6;" horiz-adv-x="754" 
d="M356 723v801h103v-801h-103zM356 -424v809h103v-809h-103z" />
    <glyph glyph-name="section" unicode="&#xa7;" horiz-adv-x="961" 
d="M51 -121q0 40 19 67t59 27q43 0 75.5 -45.5t37.5 -109.5q42 -21 123 -21q119 0 187.5 57.5t68.5 161.5q0 42 -16.5 73.5t-45.5 57.5t-70 48.5t-90 48.5q-153 79 -205.5 144.5t-52.5 164.5q0 226 318 358q-172 88 -172 232q0 132 112 221.5t285 89.5q117 0 191.5 -42
t74.5 -105q0 -41 -18.5 -69t-59.5 -28q-95 0 -116 158q-45 16 -113 16q-115 0 -184.5 -57t-69.5 -151q0 -65 54 -114t188 -110q132 -60 190 -127t58 -155q0 -117 -82 -213t-238 -164q89 -47 125.5 -100.5t36.5 -126.5q0 -148 -105.5 -243t-279.5 -95q-130 0 -207.5 41.5
t-77.5 109.5zM766 639q0 70 -55.5 124.5t-190.5 113.5q-274 -93 -274 -295q0 -78 54.5 -133t199.5 -125q134 63 200 138.5t66 176.5z" />
    <glyph glyph-name="dieresis" unicode="&#xa8;" 
d="M596 1370q0 -42 -23 -71t-65 -29t-65 29t-23 71q0 43 23 73t65 30t65 -30t23 -73zM1004 1370q0 -42 -23.5 -71t-65.5 -29t-65 29t-23 71q0 43 23 73t65 30t65.5 -30t23.5 -73z" />
    <glyph glyph-name="copyright" unicode="&#xa9;" horiz-adv-x="1929" 
d="M1874 604q0 -234 -117 -438.5t-321.5 -325.5t-444.5 -121q-239 0 -443.5 119t-324 324t-119.5 442q0 233 118.5 437t324 324t444.5 120q241 0 446 -122t321 -325.5t116 -433.5zM1776 604q0 217 -106 401t-287.5 288t-391.5 104q-211 0 -392.5 -104t-288.5 -287.5
t-107 -401.5q0 -222 108 -407.5t289.5 -288.5t390.5 -103t390 103t288 288.5t107 407.5zM1364 369q-57 -136 -145.5 -198t-217.5 -62q-122 0 -223.5 62.5t-160 176t-58.5 248.5q0 142 60.5 258t165 181t225.5 65q140 0 247 -70l23 49h47l6 -334h-57q-14 129 -82 211t-172 82
q-149 0 -238.5 -119.5t-89.5 -318.5q0 -177 94.5 -293.5t241.5 -116.5q95 0 164.5 46t118.5 155z" />
    <glyph glyph-name="ordfeminine" unicode="&#xaa;" horiz-adv-x="971" 
d="M782 625q-42 0 -68 23.5t-26 68.5l4 35h-4l-45 -39q-113 -99 -213 -99q-111 0 -175.5 84.5t-64.5 225.5q0 125 65 246.5t179 200.5t234 79q102 0 188 -43l96 33l11 -13l-132 -497q-28 -106 -28 -156q0 -65 78 -65q33 0 84 16l-9 -49q-102 -51 -174 -51zM811 1257
q0 77 -35.5 110.5t-109.5 33.5q-84 0 -167.5 -68.5t-134.5 -179.5t-51 -225q0 -110 40.5 -171t117.5 -61q52 0 101.5 27t125.5 106z" />
    <glyph glyph-name="guillemotleft" unicode="&#xab;" horiz-adv-x="1214" 
d="M485 133l-278 356q-10 10 -10 25q0 16 10.5 27t464.5 368l41 -45l-353 -348l179 -354zM852 133l-254 326q-15 20 -25 30t-10 25q0 16 11 27t32 28l432 340l41 -45l-352 -348l178 -354z" />
    <glyph glyph-name="logicalnot" unicode="&#xac;" horiz-adv-x="1255" 
d="M1022 90v438h-864v105h975v-543h-111z" />
    <glyph glyph-name="registered" unicode="&#xae;" horiz-adv-x="1929" 
d="M1874 604q0 -234 -117 -438.5t-321.5 -325.5t-444.5 -121q-239 0 -443.5 119t-324 324t-119.5 442q0 233 118.5 437t324 324t444.5 120q241 0 446 -122t321 -325.5t116 -433.5zM1776 604q0 217 -106 401t-287.5 288t-391.5 104q-211 0 -392.5 -104t-288.5 -287.5
t-107 -401.5q0 -222 108 -407.5t289.5 -288.5t390.5 -103t390 103t288 288.5t107 407.5zM1262 135q-104 165 -224 323l-75 99h-138v-287q0 -57 33 -67q23 -10 100 -10v-58h-370v58l20 2l64 8q37 17 37 69v674q0 61 -37 72q-5 1 -11.5 2.5t-72.5 9.5v57h416q137 0 221 -62
t84 -165q0 -95 -55 -162t-177 -106l126 -159q47 -58 106 -138q45 -65 90 -82q24 -13 94 -20v-58h-231zM1171 846q0 89 -51 133.5t-145 44.5h-150v-401h119q98 0 162.5 63t64.5 160z" />
    <glyph glyph-name="macron" unicode="&#xaf;" horiz-adv-x="1180" 
d="M193 1606l20 94h1268l-23 -94h-1265z" />
    <glyph glyph-name="degree" unicode="&#xb0;" horiz-adv-x="858" 
d="M831 1128q0 -139 -89.5 -231t-229.5 -92q-138 0 -226.5 93t-88.5 230q0 138 88.5 229t226.5 91t228.5 -90t90.5 -230zM696 1120q0 128 -50 195t-134 67t-133 -70t-49 -182q0 -121 50 -188.5t136 -67.5q77 0 128.5 66t51.5 180z" />
    <glyph glyph-name="plusminus" unicode="&#xb1;" horiz-adv-x="1255" 
d="M164 0v106h432v406h-432v104h432v445h109v-445h430v-104h-430v-406h430v-106h-971z" />
    <glyph glyph-name="twosuperior" unicode="&#xb2;" horiz-adv-x="971" 
d="M131 489l23 99q59 81 133 138.5t215 131.5q137 73 192 120.5t83 103.5t28 128q0 76 -47.5 122t-120.5 46q-128 0 -203 -90q0 -164 -102 -164q-29 0 -43.5 18.5t-14.5 43.5q0 69 53.5 129.5t142.5 97.5t175 37q132 0 210.5 -67t78.5 -177q0 -80 -33 -142t-96.5 -113.5
t-202.5 -119.5q-127 -61 -176.5 -90.5t-93 -63t-76.5 -71.5h618l-26 -117h-717z" />
    <glyph glyph-name="threesuperior" unicode="&#xb3;" horiz-adv-x="971" 
d="M877 780q0 -94 -57.5 -168t-155.5 -115.5t-215 -41.5q-139 0 -226.5 53t-87.5 131q0 46 26 79.5t66 33.5q31 0 48.5 -18.5t17.5 -47.5q0 -36 -33 -96q13 -26 66.5 -46t122.5 -20q126 0 208 75t82 192q0 143 -200 143h-107l21 92h84q118 0 192 58t74 155q0 70 -41 107.5
t-111 37.5q-109 0 -180 -59q0 -166 -96 -166q-34 0 -51 19t-17 47q0 62 51 113t137 81.5t169 30.5q129 0 203.5 -56.5t74.5 -146.5q0 -91 -63 -152.5t-205 -101.5l-2 -8q96 -18 150.5 -73t54.5 -132z" />
    <glyph glyph-name="acute" unicode="&#xb4;" 
d="M872 1468q0 -40 -24.5 -74t-135.5 -135l-159 -145l-37 31l117 188q95 154 120.5 177.5t57.5 23.5q29 0 45 -20t16 -46z" />
    <glyph glyph-name="mu" unicode="&#xb5;" horiz-adv-x="1079" 
d="M141 98h-4q-28 -120 -38 -199.5t-13 -187.5q-4 -155 -88 -155q-32 0 -50 19t-18 48q0 31 15 78t53 138q43 104 100 341l187 799l102 10l12 -14l-141 -600q-27 -126 -27 -166q0 -59 37 -98t115 -39q68 0 158.5 46.5t158.5 114.5l177 746l102 10l12 -14l-157 -658
q-31 -124 -31 -165q0 -42 26 -56t80 -14q15 0 48.5 4t50.5 10l-11 -51q-116 -59 -215 -59q-52 0 -81 30.5t-29 88.5l2 28h-6q-102 -85 -177 -119t-157 -34q-73 0 -125 31t-68 87z" />
    <glyph glyph-name="paragraph" unicode="&#xb6;" horiz-adv-x="975" 
d="M1102 1350h-111l-362 -1565h-92l362 1565h-158l-362 -1565h-94l223 960q-149 6 -236.5 81t-87.5 198q0 116 60 206.5t166 139.5t233 49h475z" />
    <glyph glyph-name="periodcentered" unicode="&#xb7;" horiz-adv-x="512" 
d="M385 565q0 -45 -30 -74.5t-76 -29.5q-45 0 -74 29.5t-29 74.5q0 47 29 78t74 31q46 0 76 -31t30 -78z" />
    <glyph glyph-name="cedilla" unicode="&#xb8;" 
d="M545 -242q0 -202 -412 -202l14 69q131 0 206 27t75 72q0 40 -37.5 58.5t-118.5 18.5l41 215h72l-23 -118q183 -11 183 -140z" />
    <glyph glyph-name="onesuperior" unicode="&#xb9;" horiz-adv-x="971" 
d="M197 489l16 68q37 0 95.5 3.5t78.5 10.5q45 16 55 60l154 661h-217l16 72h74q80 0 145 24t105 56h37q-18 -62 -62 -242l-127 -545l-6 -39q0 -34 43 -47.5t144 -13.5l-17 -68h-534z" />
    <glyph glyph-name="ordmasculine" unicode="&#xba;" horiz-adv-x="971" 
d="M965 1141q0 -138 -62.5 -264.5t-167.5 -198.5t-227 -72q-125 0 -204 89t-79 231q0 136 61.5 258.5t166.5 194t225 71.5q128 0 207.5 -86.5t79.5 -222.5zM838 1145q0 112 -45.5 176.5t-126.5 64.5q-87 0 -156.5 -58.5t-114.5 -175.5t-45 -232q0 -114 48.5 -181t127.5 -67
q83 0 156 67.5t114.5 177.5t41.5 228z" />
    <glyph glyph-name="guillemotright" unicode="&#xbb;" horiz-adv-x="1214" 
d="M729 905l254 -325q16 -20 25.5 -30t9.5 -26q0 -15 -10.5 -26.5t-32.5 -28.5l-432 -340l-41 45l352 348l-178 355zM362 905l254 -325q16 -20 25.5 -30t9.5 -26q0 -15 -10.5 -26.5t-32.5 -28.5l-432 -340l-41 45l352 348l-178 355z" />
    <glyph glyph-name="onequarter" unicode="&#xbc;" horiz-adv-x="2128" 
d="M1881 209h-158l-53 -227h-134l54 227h-498l25 105l698 647h82l-152 -651h158zM1612 310l113 477l-506 -477h393zM156 489l16 68q37 0 95.5 3.5t78.5 10.5q45 16 55 60l154 661h-217l16 72h74q80 0 145 24t105 56h37q-18 -62 -62 -242l-127 -545l-6 -39q0 -34 43 -47.5
t144 -13.5l-17 -68h-534zM604 0h-127l1022 1419h127z" />
    <glyph glyph-name="onehalf" unicode="&#xbd;" horiz-adv-x="2128" 
d="M1210 2l23 99q59 81 133 138.5t215 131.5q137 73 192 120.5t83 103.5t28 128q0 76 -47.5 122t-120.5 46q-128 0 -203 -90q0 -164 -102 -164q-29 0 -43.5 18.5t-14.5 43.5q0 69 53.5 129.5t142.5 97.5t175 37q132 0 210.5 -67t78.5 -177q0 -80 -33 -142t-96.5 -113.5
t-202.5 -119.5q-127 -61 -176.5 -90.5t-93 -63t-76.5 -71.5h618l-26 -117h-717zM156 489l16 68q37 0 95.5 3.5t78.5 10.5q45 16 55 60l154 661h-217l16 72h74q80 0 145 24t105 56h37q-18 -62 -62 -242l-127 -545l-6 -39q0 -34 43 -47.5t144 -13.5l-17 -68h-534zM604 0h-127
l1022 1419h127z" />
    <glyph glyph-name="threequarters" unicode="&#xbe;" horiz-adv-x="2128" 
d="M1952 209h-158l-53 -227h-134l54 227h-498l25 105l698 647h82l-152 -651h158zM1683 310l113 477l-506 -477h393zM895 780q0 -94 -57.5 -168t-155.5 -115.5t-215 -41.5q-139 0 -226.5 53t-87.5 131q0 46 26 79.5t66 33.5q31 0 48.5 -18.5t17.5 -47.5q0 -36 -33 -96
q13 -26 66.5 -46t122.5 -20q126 0 208 75t82 192q0 143 -200 143h-107l21 92h84q118 0 192 58t74 155q0 70 -41 107.5t-111 37.5q-109 0 -180 -59q0 -166 -96 -166q-34 0 -51 19t-17 47q0 62 51 113t137 81.5t169 30.5q129 0 203.5 -56.5t74.5 -146.5q0 -91 -63 -152.5
t-205 -101.5l-2 -8q96 -18 150.5 -73t54.5 -132zM739 0h-127l1022 1419h127z" />
    <glyph glyph-name="questiondown" unicode="&#xbf;" horiz-adv-x="909" 
d="M821 1341q0 -45 -30.5 -77.5t-77.5 -32.5q-49 0 -80 32.5t-31 77.5q0 48 31.5 79.5t79.5 31.5q45 0 76.5 -31t31.5 -80zM758 240q0 -58 -46.5 -119t-125 -99t-176.5 -38q-163 0 -252.5 85t-89.5 236q0 213 132.5 353t368.5 180l62 249h96l-82 -374q-161 -19 -256 -72
t-140.5 -141.5t-45.5 -210.5q0 -114 59 -176t160 -62q30 0 67.5 11.5t67.5 29.5l11 66q7 56 25 81.5t49 40.5t73 15q28 0 35.5 -17t7.5 -38z" />
    <glyph glyph-name="Agrave" unicode="&#xc0;" horiz-adv-x="1284" 
d="M1249 0h-489l12 61q95 12 126 20.5t47 23t16 38.5q0 34 -9 95l-32 264h-531l-143 -238q-51 -92 -51 -125q0 -31 50.5 -52.5t133.5 -25.5l-12 -61h-519l13 61q87 7 151.5 50.5t112.5 126.5l772 1202h18l177 -1227q12 -78 63 -113t107 -39zM823 1192l-389 -614h473z
M635 1798q0 29 18.5 49.5t44.5 20.5t47 -13.5t52 -44.5q134 -134 260 -254l-29 -38l-305 168q-55 32 -71.5 55.5t-16.5 56.5z" />
    <glyph glyph-name="Aacute" unicode="&#xc1;" horiz-adv-x="1284" 
d="M1249 0h-489l12 61q95 12 126 20.5t47 23t16 38.5q0 34 -9 95l-32 264h-531l-143 -238q-51 -92 -51 -125q0 -31 50.5 -52.5t133.5 -25.5l-12 -61h-519l13 61q87 7 151.5 50.5t112.5 126.5l772 1202h18l177 -1227q12 -78 63 -113t107 -39zM823 1192l-389 -614h473z
M805 1518l-29 38l78 75l127 124q88 88 109 100.5t45 12.5q26 0 44.5 -20.5t18.5 -49.5q0 -32 -16 -56t-72 -56z" />
    <glyph glyph-name="Acircumflex" unicode="&#xc2;" horiz-adv-x="1284" 
d="M1249 0h-489l12 61q95 12 126 20.5t47 23t16 38.5q0 34 -9 95l-32 264h-531l-143 -238q-51 -92 -51 -125q0 -31 50.5 -52.5t133.5 -25.5l-12 -61h-519l13 61q87 7 151.5 50.5t112.5 126.5l772 1202h18l177 -1227q12 -78 63 -113t107 -39zM823 1192l-389 -614h473z
M1229 1538l-49 -31l-236 211l-319 -211l-47 31l291 285q18 18 39.5 31.5t60.5 13.5q43 0 57.5 -13.5t22.5 -27.5z" />
    <glyph glyph-name="Atilde" unicode="&#xc3;" horiz-adv-x="1284" 
d="M1249 0h-489l12 61q95 12 126 20.5t47 23t16 38.5q0 34 -9 95l-32 264h-531l-143 -238q-51 -92 -51 -125q0 -31 50.5 -52.5t133.5 -25.5l-12 -61h-519l13 61q87 7 151.5 50.5t112.5 126.5l772 1202h18l177 -1227q12 -78 63 -113t107 -39zM823 1192l-389 -614h473z
M1299 1831q-36 -102 -97 -157.5t-137 -54.5q-50 -1 -86.5 14.5t-67 34t-60 34t-64.5 16.5q-40 -1 -68.5 -27t-71.5 -102l-53 22q41 88 72.5 128.5t70 63t84.5 22.5q47 0 83.5 -15.5t67.5 -34.5t59 -34.5t59 -15.5q52 0 83.5 26.5t69.5 104.5z" />
    <glyph glyph-name="Adieresis" unicode="&#xc4;" horiz-adv-x="1284" 
d="M1249 0h-489l12 61q95 12 126 20.5t47 23t16 38.5q0 34 -9 95l-32 264h-531l-143 -238q-51 -92 -51 -125q0 -31 50.5 -52.5t133.5 -25.5l-12 -61h-519l13 61q87 7 151.5 50.5t112.5 126.5l772 1202h18l177 -1227q12 -78 63 -113t107 -39zM823 1192l-389 -614h473z
M805 1745q0 -42 -23 -71t-65 -29t-65 29t-23 71q0 43 23 72.5t65 29.5t65 -29.5t23 -72.5zM1213 1745q0 -42 -23 -71t-65 -29t-65 29t-23 71q0 43 23 72.5t65 29.5t65 -29.5t23 -72.5z" />
    <glyph glyph-name="Aring" unicode="&#xc5;" horiz-adv-x="1284" 
d="M1249 0h-489l12 61q95 12 126 20.5t47 23t16 38.5q0 34 -9 95l-32 264h-531l-143 -238q-51 -92 -51 -125q0 -31 50.5 -52.5t133.5 -25.5l-12 -61h-519l13 61q87 7 151.5 50.5t112.5 126.5l772 1202h18l177 -1227q12 -78 63 -113t107 -39zM823 1192l-389 -614h473z
M893 1380q-100 0 -159.5 48t-59.5 128q0 108 77.5 183t200.5 75q98 0 157.5 -51t59.5 -133q0 -68 -34.5 -126t-98 -91t-143.5 -33zM1055 1628q0 56 -28.5 91.5t-82.5 35.5q-71 0 -115.5 -56t-44.5 -139q0 -54 30 -87t83 -33q70 0 114 52.5t44 135.5z" />
    <glyph glyph-name="AE" unicode="&#xc6;" horiz-adv-x="1890" 
d="M1946 1419l-80 -332h-62q-2 87 -16 135.5t-40 80.5t-64 40.5t-226 8.5h-209l-133 -580h170q90 0 138 22t84 81.5t59 121.5h63l-123 -534h-61l2 76q0 78 -10 98q-18 35 -59 48t-111 13h-170l-101 -436q-12 -53 -12 -96q0 -52 43 -72t176 -20q144 0 235 15.5t128.5 47
t87.5 104.5t98 165h68l-121 -406h-1102l12 61q124 7 158 21q50 21 68 96l98 428h-461q-150 -182 -258 -342q-47 -66 -47 -112q0 -40 30 -61.5t113 -29.5l-12 -61h-512l12 61q67 14 115.5 36.5t96.5 74t356.5 440t570.5 734.5q-23 8 -122 11l-38 1l17 61h1151zM1104 1337h-68
l-499 -647h417z" />
    <glyph glyph-name="Ccedilla" unicode="&#xc7;" horiz-adv-x="1280" 
d="M1229 352q-115 -198 -262 -289.5t-336 -91.5q-151 0 -270 70.5t-185.5 197.5t-66.5 283q0 238 108 454t293.5 345t390.5 129q231 0 371 -104l47 73h78l-109 -499h-69v51q0 150 -35.5 235t-108.5 125.5t-178 40.5q-165 0 -314 -108.5t-232 -291t-83 -399.5
q0 -143 53.5 -260.5t149 -182t215.5 -64.5q145 0 270 86.5t207 236.5zM793 -242q0 -202 -412 -202l14 69q131 0 206 27t75 72q0 40 -37.5 58.5t-118.5 18.5l41 215h72l-23 -118q183 -11 183 -140z" />
    <glyph glyph-name="Egrave" unicode="&#xc8;" horiz-adv-x="1309" 
d="M1364 1419l-80 -332h-61q-7 244 -136 259q-108 6 -210 6h-252l-133 -580h213q86 0 133 20t83.5 75.5t63.5 129.5h64l-123 -534h-62l2 76q0 78 -10 98q-18 35 -59 48t-111 13h-213l-100 -436q-13 -57 -13 -96q0 -52 43 -72t177 -20q155 0 260 15t139 42q83 65 192 275h68
l-121 -406h-1145l13 61q123 7 157 21q50 21 68 96l246 1057q6 30 6 49q0 52 -144 70l-30 4l12 61h1063zM576 1798q0 29 18.5 49.5t44.5 20.5t47 -13.5t52 -44.5q134 -134 260 -254l-29 -38l-305 168q-55 32 -71.5 55.5t-16.5 56.5z" />
    <glyph glyph-name="Eacute" unicode="&#xc9;" horiz-adv-x="1309" 
d="M1364 1419l-80 -332h-61q-7 244 -136 259q-108 6 -210 6h-252l-133 -580h213q86 0 133 20t83.5 75.5t63.5 129.5h64l-123 -534h-62l2 76q0 78 -10 98q-18 35 -59 48t-111 13h-213l-100 -436q-13 -57 -13 -96q0 -52 43 -72t177 -20q155 0 260 15t139 42q83 65 192 275h68
l-121 -406h-1145l13 61q123 7 157 21q50 21 68 96l246 1057q6 30 6 49q0 52 -144 70l-30 4l12 61h1063zM741 1518l-29 38l78 75l127 124q88 88 109 100.5t45 12.5q26 0 44.5 -20.5t18.5 -49.5q0 -32 -16 -56t-72 -56z" />
    <glyph glyph-name="Ecircumflex" unicode="&#xca;" horiz-adv-x="1309" 
d="M1364 1419l-80 -332h-61q-7 244 -136 259q-108 6 -210 6h-252l-133 -580h213q86 0 133 20t83.5 75.5t63.5 129.5h64l-123 -534h-62l2 76q0 78 -10 98q-18 35 -59 48t-111 13h-213l-100 -436q-13 -57 -13 -96q0 -52 43 -72t177 -20q155 0 260 15t139 42q83 65 192 275h68
l-121 -406h-1145l13 61q123 7 157 21q50 21 68 96l246 1057q6 30 6 49q0 52 -144 70l-30 4l12 61h1063zM1184 1538l-49 -31l-236 211l-319 -211l-47 31l291 285q18 18 39.5 31.5t60.5 13.5q43 0 57.5 -13.5t22.5 -27.5z" />
    <glyph glyph-name="Edieresis" unicode="&#xcb;" horiz-adv-x="1309" 
d="M1364 1419l-80 -332h-61q-7 244 -136 259q-108 6 -210 6h-252l-133 -580h213q86 0 133 20t83.5 75.5t63.5 129.5h64l-123 -534h-62l2 76q0 78 -10 98q-18 35 -59 48t-111 13h-213l-100 -436q-13 -57 -13 -96q0 -52 43 -72t177 -20q155 0 260 15t139 42q83 65 192 275h68
l-121 -406h-1145l13 61q123 7 157 21q50 21 68 96l246 1057q6 30 6 49q0 52 -144 70l-30 4l12 61h1063zM749 1745q0 -42 -23 -71t-65 -29t-65 29t-23 71q0 43 23 72.5t65 29.5t65 -29.5t23 -72.5zM1157 1745q0 -42 -23 -71t-65 -29t-65 29t-23 71q0 43 23 72.5t65 29.5
t65 -29.5t23 -72.5z" />
    <glyph glyph-name="Igrave" unicode="&#xcc;" horiz-adv-x="729" 
d="M463 1276q0 41 -68 60t-123 22l13 61h565l-14 -61q-107 -8 -164 -28.5t-74 -92.5l-233 -1016q-11 -38 -11 -69q0 -45 51 -65.5t134 -25.5l-13 -61h-565l12 61q131 9 152 17q69 26 86 98l244 1051q8 29 8 49zM363 1798q0 29 18.5 49.5t44.5 20.5t47 -13.5t52 -44.5
q134 -134 260 -254l-29 -38l-305 168q-55 32 -71.5 55.5t-16.5 56.5z" />
    <glyph glyph-name="Iacute" unicode="&#xcd;" horiz-adv-x="729" 
d="M463 1276q0 41 -68 60t-123 22l13 61h565l-14 -61q-107 -8 -164 -28.5t-74 -92.5l-233 -1016q-11 -38 -11 -69q0 -45 51 -65.5t134 -25.5l-13 -61h-565l12 61q131 9 152 17q69 26 86 98l244 1051q8 29 8 49zM483 1518l-29 38l78 75l127 124q88 88 109 100.5t45 12.5
q26 0 44.5 -20.5t18.5 -49.5q0 -32 -16 -56t-72 -56z" />
    <glyph glyph-name="Icircumflex" unicode="&#xce;" horiz-adv-x="729" 
d="M463 1276q0 41 -68 60t-123 22l13 61h565l-14 -61q-107 -8 -164 -28.5t-74 -92.5l-233 -1016q-11 -38 -11 -69q0 -45 51 -65.5t134 -25.5l-13 -61h-565l12 61q131 9 152 17q69 26 86 98l244 1051q8 29 8 49zM915 1538l-49 -31l-236 211l-319 -211l-47 31l291 285
q18 18 39.5 31.5t60.5 13.5q43 0 57.5 -13.5t22.5 -27.5z" />
    <glyph glyph-name="Idieresis" unicode="&#xcf;" horiz-adv-x="729" 
d="M463 1276q0 41 -68 60t-123 22l13 61h565l-14 -61q-107 -8 -164 -28.5t-74 -92.5l-233 -1016q-11 -38 -11 -69q0 -45 51 -65.5t134 -25.5l-13 -61h-565l12 61q131 9 152 17q69 26 86 98l244 1051q8 29 8 49zM500 1745q0 -42 -23 -71t-65 -29t-65 29t-23 71q0 43 23 73
t65 30t65 -30t23 -73zM908 1745q0 -42 -23.5 -71t-65.5 -29t-65 29t-23 71q0 43 23 73t65 30t65.5 -30t23.5 -73z" />
    <glyph glyph-name="Eth" unicode="&#xd0;" horiz-adv-x="1446" 
d="M178 799h176l103 436q6 30 6 49q0 31 -50.5 49t-109.5 25l12 61h545q164 0 299.5 -70.5t203 -190.5t67.5 -279q0 -248 -115.5 -447t-325 -315.5t-446.5 -116.5h-557l12 61q109 6 145 21q50 21 68 96l123 531h-178zM1274 850q0 228 -131.5 364t-349.5 136l-170 -4
l-127 -547h305l-19 -90h-307l-104 -453q-13 -49 -13 -76q0 -60 53.5 -83t182.5 -23q191 0 345.5 99t244.5 282.5t90 394.5z" />
    <glyph glyph-name="Ntilde" unicode="&#xd1;" horiz-adv-x="1546" 
d="M1362 1206q0 63 -25 90q-26 39 -186 62l12 61h576l-17 -61l-33 -5q-85 -11 -128.5 -34t-71.5 -78t-64 -207l-243 -1052h-47l-611 1230l-190 -813q-7 -28 -17 -89.5t-10 -96.5q0 -63 25 -90q26 -39 186 -62l-12 -61h-576l17 61l33 5q82 11 127 34t72.5 77t64.5 208
l178 766q8 32 8 63q0 45 -45 90.5t-174 53.5l16 61h348l582 -1165l178 766q7 28 17 89.5t10 96.5zM1366 1831q-36 -102 -97 -157.5t-137 -54.5q-50 -1 -86.5 14.5t-67 34t-60 34t-64.5 16.5q-40 -1 -68.5 -27t-71.5 -102l-53 22q41 88 72.5 128.5t70 63t84.5 22.5
q47 0 83.5 -15.5t67.5 -34.5t59 -34.5t59 -15.5q52 0 83.5 26.5t69.5 104.5z" />
    <glyph glyph-name="Ograve" unicode="&#xd2;" horiz-adv-x="1446" 
d="M1425 870q0 -230 -108 -435t-300 -336.5t-388 -131.5q-236 0 -378 157t-142 415q0 237 110.5 448.5t297.5 336t388 124.5q237 0 378.5 -158.5t141.5 -419.5zM1266 911q0 218 -98 338.5t-279 120.5q-131 0 -244.5 -65.5t-197 -186t-132.5 -284.5t-49 -316
q0 -228 97.5 -349.5t279.5 -121.5q176 0 316.5 114t223.5 321t83 429zM705 1798q0 29 18.5 49.5t44.5 20.5t47 -13.5t52 -44.5q134 -134 260 -254l-29 -38l-305 168q-55 32 -71.5 55.5t-16.5 56.5z" />
    <glyph glyph-name="Oacute" unicode="&#xd3;" horiz-adv-x="1446" 
d="M1425 870q0 -230 -108 -435t-300 -336.5t-388 -131.5q-236 0 -378 157t-142 415q0 237 110.5 448.5t297.5 336t388 124.5q237 0 378.5 -158.5t141.5 -419.5zM1266 911q0 218 -98 338.5t-279 120.5q-131 0 -244.5 -65.5t-197 -186t-132.5 -284.5t-49 -316
q0 -228 97.5 -349.5t279.5 -121.5q176 0 316.5 114t223.5 321t83 429zM762 1518l-29 38l78 75l127 124q88 88 109 100.5t45 12.5q26 0 44.5 -20.5t18.5 -49.5q0 -32 -16 -56t-72 -56z" />
    <glyph glyph-name="Ocircumflex" unicode="&#xd4;" horiz-adv-x="1446" 
d="M1425 870q0 -230 -108 -435t-300 -336.5t-388 -131.5q-236 0 -378 157t-142 415q0 237 110.5 448.5t297.5 336t388 124.5q237 0 378.5 -158.5t141.5 -419.5zM1266 911q0 218 -98 338.5t-279 120.5q-131 0 -244.5 -65.5t-197 -186t-132.5 -284.5t-49 -316
q0 -228 97.5 -349.5t279.5 -121.5q176 0 316.5 114t223.5 321t83 429zM1225 1538l-49 -31l-236 211l-319 -211l-47 31l291 285q18 18 39.5 31.5t60.5 13.5q43 0 57.5 -13.5t22.5 -27.5z" />
    <glyph glyph-name="Otilde" unicode="&#xd5;" horiz-adv-x="1446" 
d="M1425 870q0 -230 -108 -435t-300 -336.5t-388 -131.5q-236 0 -378 157t-142 415q0 237 110.5 448.5t297.5 336t388 124.5q237 0 378.5 -158.5t141.5 -419.5zM1266 911q0 218 -98 338.5t-279 120.5q-131 0 -244.5 -65.5t-197 -186t-132.5 -284.5t-49 -316
q0 -228 97.5 -349.5t279.5 -121.5q176 0 316.5 114t223.5 321t83 429zM1299 1831q-36 -102 -97 -157.5t-137 -54.5q-50 -1 -86.5 14.5t-67 34t-60 34t-64.5 16.5q-40 -1 -68.5 -27t-71.5 -102l-53 22q41 88 72.5 128.5t70 63t84.5 22.5q47 0 83.5 -15.5t67.5 -34.5t59 -34.5
t59 -15.5q52 0 83.5 26.5t69.5 104.5z" />
    <glyph glyph-name="Odieresis" unicode="&#xd6;" horiz-adv-x="1446" 
d="M1425 870q0 -230 -108 -435t-300 -336.5t-388 -131.5q-236 0 -378 157t-142 415q0 237 110.5 448.5t297.5 336t388 124.5q237 0 378.5 -158.5t141.5 -419.5zM1266 911q0 218 -98 338.5t-279 120.5q-131 0 -244.5 -65.5t-197 -186t-132.5 -284.5t-49 -316
q0 -228 97.5 -349.5t279.5 -121.5q176 0 316.5 114t223.5 321t83 429zM823 1745q0 -42 -23 -71t-65 -29t-65 29t-23 71q0 43 23 72.5t65 29.5t65 -29.5t23 -72.5zM1231 1745q0 -42 -23 -71t-65 -29t-65 29t-23 71q0 43 23 72.5t65 29.5t65 -29.5t23 -72.5z" />
    <glyph glyph-name="multiply" unicode="&#xd7;" horiz-adv-x="1255" 
d="M997 127l-352 352l-348 -354l-76 78l354 348l-354 352l76 74l348 -350l352 350l76 -74l-354 -352l354 -348z" />
    <glyph glyph-name="Oslash" unicode="&#xd8;" horiz-adv-x="1446" 
d="M1425 870q0 -230 -108 -435t-300 -336.5t-388 -131.5q-238 0 -379 158l-152 -143l-55 57l158 151q-92 147 -92 349q0 237 110.5 448.5t297.5 336t388 124.5q131 0 237 -51.5t171 -145.5l141 135l59 -59l-155 -147q67 -136 67 -310zM266 518q0 -143 35 -233l920 878
q-91 207 -332 207q-131 0 -244.5 -65.5t-197 -186t-132.5 -284.5t-49 -316zM1266 911q0 91 -17 164l-913 -868q95 -160 307 -160q176 0 316.5 114t223.5 321t83 429z" />
    <glyph glyph-name="Ugrave" unicode="&#xd9;" horiz-adv-x="1597" 
d="M657 -33q-125 0 -227.5 43t-159.5 116.5t-57 160.5q0 57 18 131l191 815q6 30 6 51q0 31 -51 49t-109 25l13 61h501l-14 -61q-105 -10 -148.5 -33.5t-58.5 -91.5l-192 -838q-13 -48 -13 -100q0 -64 39 -117t111.5 -85t175.5 -32q192 0 323.5 87t172.5 239q24 87 98 416.5
t74 402.5q0 63 -25 90q-13 20 -64.5 37.5t-121.5 24.5l12 61h575l-16 -61l-33 -5q-90 -12 -133 -36.5t-68.5 -78.5t-58.5 -196l-47 -222q-22 -99 -98 -417q-55 -211 -214 -323.5t-401 -112.5zM723 1798q0 29 18.5 49.5t44.5 20.5t47 -13.5t52 -44.5q134 -134 260 -254
l-29 -38l-305 168q-55 32 -71.5 55.5t-16.5 56.5z" />
    <glyph glyph-name="Uacute" unicode="&#xda;" horiz-adv-x="1597" 
d="M657 -33q-125 0 -227.5 43t-159.5 116.5t-57 160.5q0 57 18 131l191 815q6 30 6 51q0 31 -51 49t-109 25l13 61h501l-14 -61q-105 -10 -148.5 -33.5t-58.5 -91.5l-192 -838q-13 -48 -13 -100q0 -64 39 -117t111.5 -85t175.5 -32q192 0 323.5 87t172.5 239q24 87 98 416.5
t74 402.5q0 63 -25 90q-13 20 -64.5 37.5t-121.5 24.5l12 61h575l-16 -61l-33 -5q-90 -12 -133 -36.5t-68.5 -78.5t-58.5 -196l-47 -222q-22 -99 -98 -417q-55 -211 -214 -323.5t-401 -112.5zM860 1518l-29 38l78 75l127 124q88 88 109 100.5t45 12.5q26 0 44.5 -20.5
t18.5 -49.5q0 -32 -16 -56t-72 -56z" />
    <glyph glyph-name="Ucircumflex" unicode="&#xdb;" horiz-adv-x="1597" 
d="M657 -33q-125 0 -227.5 43t-159.5 116.5t-57 160.5q0 57 18 131l191 815q6 30 6 51q0 31 -51 49t-109 25l13 61h501l-14 -61q-105 -10 -148.5 -33.5t-58.5 -91.5l-192 -838q-13 -48 -13 -100q0 -64 39 -117t111.5 -85t175.5 -32q192 0 323.5 87t172.5 239q24 87 98 416.5
t74 402.5q0 63 -25 90q-13 20 -64.5 37.5t-121.5 24.5l12 61h575l-16 -61l-33 -5q-90 -12 -133 -36.5t-68.5 -78.5t-58.5 -196l-47 -222q-22 -99 -98 -417q-55 -211 -214 -323.5t-401 -112.5zM1313 1538l-49 -31l-236 211l-319 -211l-47 31l291 285q18 18 39.5 31.5
t60.5 13.5q43 0 57.5 -13.5t22.5 -27.5z" />
    <glyph glyph-name="Udieresis" unicode="&#xdc;" horiz-adv-x="1597" 
d="M657 -33q-125 0 -227.5 43t-159.5 116.5t-57 160.5q0 57 18 131l191 815q6 30 6 51q0 31 -51 49t-109 25l13 61h501l-14 -61q-105 -10 -148.5 -33.5t-58.5 -91.5l-192 -838q-13 -48 -13 -100q0 -64 39 -117t111.5 -85t175.5 -32q192 0 323.5 87t172.5 239q24 87 98 416.5
t74 402.5q0 63 -25 90q-13 20 -64.5 37.5t-121.5 24.5l12 61h575l-16 -61l-33 -5q-90 -12 -133 -36.5t-68.5 -78.5t-58.5 -196l-47 -222q-22 -99 -98 -417q-55 -211 -214 -323.5t-401 -112.5zM903 1745q0 -42 -23 -71t-65 -29t-65 29t-23 71q0 43 23 72.5t65 29.5t65 -29.5
t23 -72.5zM1311 1745q0 -42 -23 -71t-65 -29t-65 29t-23 71q0 43 23 72.5t65 29.5t65 -29.5t23 -72.5z" />
    <glyph glyph-name="Yacute" unicode="&#xdd;" horiz-adv-x="1180" 
d="M567 143q0 -30 40.5 -50t166.5 -32l-12 -61h-606l12 61l40 3q108 6 144 18q57 22 74 94l72 307q14 63 14 82q0 57 -58 249.5t-122 377.5q-31 87 -56.5 114.5t-53.5 37.5t-68 14l16 61h473l-14 -61l-54 -3q-116 -6 -116 -50q0 -55 176 -621q67 82 136 166t130.5 159.5
t111 137.5t77.5 100q16 23 16 45q0 55 -116 62l-60 4l16 61h486l-17 -61q-63 -9 -101 -25.5t-80 -57t-167 -183.5t-237 -283t-135.5 -176t-36 -73t-80.5 -347q-11 -41 -11 -70zM705 1518l-29 38l78 75l127 124q88 88 109 100.5t45 12.5q26 0 44.5 -20.5t18.5 -49.5
q0 -32 -16 -56t-72 -56z" />
    <glyph glyph-name="Thorn" unicode="&#xde;" horiz-adv-x="1194" 
d="M461 1284q0 31 -50.5 49t-109.5 25l12 61h502l-14 -61q-103 -9 -147 -32.5t-59.5 -95.5t-21.5 -104h256q161 0 256 -82.5t95 -224.5q0 -128 -74.5 -236.5t-207.5 -174.5t-273 -66h-228q-20 -85 -32 -134t-9 -58q0 -35 21 -52.5t74.5 -27t85.5 -9.5l-17 -61h-526l12 61
l37 3q93 7 124.5 31t45.5 83l240 1039q8 29 8 67zM1010 815q0 112 -67 175t-185 63h-201l-141 -633h176q126 0 220.5 49t146 146t51.5 200z" />
    <glyph glyph-name="germandbls" unicode="&#xdf;" horiz-adv-x="993" 
d="M776 1550q112 0 178 -61.5t66 -161.5q0 -147 -87 -246.5t-263 -142.5v-6q118 -32 184 -117.5t66 -204.5q0 -160 -73.5 -303t-206 -230t-280.5 -87q-44 0 -71 8l14 76q56 -13 96 -13q109 0 198 76.5t140 210.5t51 285q0 121 -64.5 191.5t-174.5 70.5h-14l18 78h29
q84 0 165.5 49.5t122.5 126.5t41 174q0 74 -46 118t-122 44q-136 0 -216.5 -101.5t-129.5 -334.5l-209 -990q-48 -228 -178.5 -365.5t-288.5 -137.5q-51 0 -85.5 26.5t-34.5 65.5q0 34 20 56t57 22q29 0 51.5 -13.5t67.5 -74.5q94 6 162 105t107 280l208 985
q56 261 191.5 401.5t310.5 140.5z" />
    <glyph glyph-name="agrave" unicode="&#xe0;" horiz-adv-x="1124" 
d="M412 66q68 0 144.5 37t176.5 128l127 543q0 79 -57.5 125.5t-145.5 46.5q-114 0 -222.5 -88t-170 -229.5t-61.5 -296.5q0 -123 52 -194.5t157 -71.5zM707 143l-62 -54q-128 -116 -262 -116q-146 0 -228.5 102t-82.5 271q0 166 81.5 319t217.5 247t286 94q107 0 195 -38
l39 -18l123 39l8 -12l-154 -662q-12 -55 -21 -96.5t-9 -68.5q0 -68 86 -68q83 0 123 16l-11 -53q-41 -25 -105.5 -43t-109.5 -18q-110 0 -110 110q0 27 4 49h-8zM819 1114l-256 242q-64 55 -64 110q0 26 16.5 47t45.5 21q34 0 59 -24t80 -115q71 -118 158 -250z" />
    <glyph glyph-name="aacute" unicode="&#xe1;" horiz-adv-x="1124" 
d="M412 66q68 0 144.5 37t176.5 128l127 543q0 79 -57.5 125.5t-145.5 46.5q-114 0 -222.5 -88t-170 -229.5t-61.5 -296.5q0 -123 52 -194.5t157 -71.5zM707 143l-62 -54q-128 -116 -262 -116q-146 0 -228.5 102t-82.5 271q0 166 81.5 319t217.5 247t286 94q107 0 195 -38
l39 -18l123 39l8 -12l-154 -662q-12 -55 -21 -96.5t-9 -68.5q0 -68 86 -68q83 0 123 16l-11 -53q-41 -25 -105.5 -43t-109.5 -18q-110 0 -110 110q0 27 4 49h-8zM946 1468q0 -40 -24.5 -74t-135.5 -135l-159 -145l-37 31l117 188q95 154 120.5 177.5t57.5 23.5q29 0 45 -20
t16 -46z" />
    <glyph glyph-name="acircumflex" unicode="&#xe2;" horiz-adv-x="1124" 
d="M412 66q68 0 144.5 37t176.5 128l127 543q0 79 -57.5 125.5t-145.5 46.5q-114 0 -222.5 -88t-170 -229.5t-61.5 -296.5q0 -123 52 -194.5t157 -71.5zM707 143l-62 -54q-128 -116 -262 -116q-146 0 -228.5 102t-82.5 271q0 166 81.5 319t217.5 247t286 94q107 0 195 -38
l39 -18l123 39l8 -12l-154 -662q-12 -55 -21 -96.5t-9 -68.5q0 -68 86 -68q83 0 123 16l-11 -53q-41 -25 -105.5 -43t-109.5 -18q-110 0 -110 110q0 27 4 49h-8zM899 1126l-197 265l-315 -265l-41 43l303 334q31 35 72 35q43 0 63 -43l162 -338z" />
    <glyph glyph-name="atilde" unicode="&#xe3;" horiz-adv-x="1124" 
d="M412 66q68 0 144.5 37t176.5 128l127 543q0 79 -57.5 125.5t-145.5 46.5q-114 0 -222.5 -88t-170 -229.5t-61.5 -296.5q0 -123 52 -194.5t157 -71.5zM707 143l-62 -54q-128 -116 -262 -116q-146 0 -228.5 102t-82.5 271q0 166 81.5 319t217.5 247t286 94q107 0 195 -38
l39 -18l123 39l8 -12l-154 -662q-12 -55 -21 -96.5t-9 -68.5q0 -68 86 -68q83 0 123 16l-11 -53q-41 -25 -105.5 -43t-109.5 -18q-110 0 -110 110q0 27 4 49h-8zM1037 1460q-36 -102 -97 -157.5t-137 -54.5q-50 -1 -86.5 14.5t-67 34t-60 34t-64.5 16.5q-40 -1 -68.5 -27
t-71.5 -102l-53 22q41 88 72.5 128.5t70 63t84.5 22.5q47 0 83.5 -15.5t67.5 -34.5t59 -34.5t59 -15.5q52 0 83.5 26.5t69.5 104.5z" />
    <glyph glyph-name="adieresis" unicode="&#xe4;" horiz-adv-x="1124" 
d="M412 66q68 0 144.5 37t176.5 128l127 543q0 79 -57.5 125.5t-145.5 46.5q-114 0 -222.5 -88t-170 -229.5t-61.5 -296.5q0 -123 52 -194.5t157 -71.5zM707 143l-62 -54q-128 -116 -262 -116q-146 0 -228.5 102t-82.5 271q0 166 81.5 319t217.5 247t286 94q107 0 195 -38
l39 -18l123 39l8 -12l-154 -662q-12 -55 -21 -96.5t-9 -68.5q0 -68 86 -68q83 0 123 16l-11 -53q-41 -25 -105.5 -43t-109.5 -18q-110 0 -110 110q0 27 4 49h-8zM573 1370q0 -42 -23 -71t-65 -29t-65 29t-23 71q0 43 23 73t65 30t65 -30t23 -73zM981 1370q0 -42 -23.5 -71
t-65.5 -29t-65 29t-23 71q0 43 23 73t65 30t65.5 -30t23.5 -73z" />
    <glyph glyph-name="aring" unicode="&#xe5;" horiz-adv-x="1124" 
d="M412 66q68 0 144.5 37t176.5 128l127 543q0 79 -57.5 125.5t-145.5 46.5q-114 0 -222.5 -88t-170 -229.5t-61.5 -296.5q0 -123 52 -194.5t157 -71.5zM707 143l-62 -54q-128 -116 -262 -116q-146 0 -228.5 102t-82.5 271q0 166 81.5 319t217.5 247t286 94q107 0 195 -38
l39 -18l123 39l8 -12l-154 -662q-12 -55 -21 -96.5t-9 -68.5q0 -68 86 -68q83 0 123 16l-11 -53q-41 -25 -105.5 -43t-109.5 -18q-110 0 -110 110q0 27 4 49h-8zM662 1120q-100 0 -159.5 48t-59.5 128q0 108 77.5 183t200.5 75q98 0 157.5 -51t59.5 -133q0 -68 -34.5 -126
t-98 -91t-143.5 -33zM824 1368q0 56 -28.5 91.5t-82.5 35.5q-71 0 -115.5 -56t-44.5 -139q0 -54 30 -87t83 -33q70 0 114 52.5t44 135.5z" />
    <glyph glyph-name="ae" unicode="&#xe6;" horiz-adv-x="1436" 
d="M1395 809q0 -108 -66 -187t-207.5 -127.5t-382.5 -68.5q0 -184 56 -272t182 -88q169 0 317 204l49 -34q-83 -123 -194.5 -193t-228.5 -70q-202 0 -277 197h-6q-88 -100 -173 -146.5t-177 -46.5q-124 0 -186 51.5t-62 143.5q0 109 64 193.5t191.5 133.5t256.5 68l106 17
l13 46q24 73 24 132q0 78 -50 128t-132 50q-50 0 -103.5 -17t-95.5 -44q0 -106 -22.5 -153.5t-75.5 -47.5q-31 0 -48 17t-17 48q0 61 58 122.5t152.5 101t182.5 39.5q102 0 164.5 -36t91.5 -120q67 73 161 114.5t199 41.5q114 0 175 -53t61 -144zM1163 940q-91 0 -182 -61.5
t-154.5 -165.5t-83.5 -224q162 13 249.5 35.5t155 66.5t100 101t32.5 125q0 60 -33 91.5t-84 31.5zM625 238q-9 47 -9 102q0 89 17 170q-213 -21 -335 -105t-122 -212q0 -59 34 -92t93 -33q190 0 322 170z" />
    <glyph glyph-name="ccedilla" unicode="&#xe7;" horiz-adv-x="897" 
d="M877 811q0 -68 -28 -115t-75 -47q-42 0 -61 21.5t-19 50.5q0 39 51 166q-13 22 -56 37.5t-93 15.5q-102 0 -194.5 -76.5t-146.5 -209t-54 -289.5q0 -134 71 -216.5t187 -82.5q176 0 329 202l50 -32q-76 -117 -196 -190t-230 -73q-162 0 -251 99.5t-89 275.5t73 332.5
t195 241t268 84.5q122 0 195.5 -53t73.5 -142zM621 -242q0 -202 -412 -202l14 69q131 0 206 27t75 72q0 40 -37.5 58.5t-118.5 18.5l41 215h72l-23 -118q183 -11 183 -140z" />
    <glyph glyph-name="egrave" unicode="&#xe8;" horiz-adv-x="922" 
d="M881 809q0 -108 -70.5 -187.5t-230.5 -132t-387 -83.5v-18q0 -156 63.5 -239t187.5 -83q178 0 336 204l49 -34q-81 -120 -199 -191.5t-239 -71.5q-154 0 -237.5 98t-83.5 277q0 167 77 322t210 245.5t288 90.5q114 0 175 -53t61 -144zM641 940q-101 0 -196 -62.5
t-160 -171.5t-84 -237q178 24 264.5 50.5t159 72t107 102t34.5 123.5q0 57 -32.5 90t-92.5 33zM692 1114l-256 242q-64 55 -64 110q0 26 16.5 47t45.5 21q34 0 59 -24t80 -115q71 -118 158 -250z" />
    <glyph glyph-name="eacute" unicode="&#xe9;" horiz-adv-x="922" 
d="M881 809q0 -108 -70.5 -187.5t-230.5 -132t-387 -83.5v-18q0 -156 63.5 -239t187.5 -83q178 0 336 204l49 -34q-81 -120 -199 -191.5t-239 -71.5q-154 0 -237.5 98t-83.5 277q0 167 77 322t210 245.5t288 90.5q114 0 175 -53t61 -144zM641 940q-101 0 -196 -62.5
t-160 -171.5t-84 -237q178 24 264.5 50.5t159 72t107 102t34.5 123.5q0 57 -32.5 90t-92.5 33zM849 1468q0 -40 -24.5 -74t-135.5 -135l-159 -145l-37 31l117 188q95 154 120.5 177.5t57.5 23.5q29 0 45 -20t16 -46z" />
    <glyph glyph-name="ecircumflex" unicode="&#xea;" horiz-adv-x="922" 
d="M881 809q0 -108 -70.5 -187.5t-230.5 -132t-387 -83.5v-18q0 -156 63.5 -239t187.5 -83q178 0 336 204l49 -34q-81 -120 -199 -191.5t-239 -71.5q-154 0 -237.5 98t-83.5 277q0 167 77 322t210 245.5t288 90.5q114 0 175 -53t61 -144zM641 940q-101 0 -196 -62.5
t-160 -171.5t-84 -237q178 24 264.5 50.5t159 72t107 102t34.5 123.5q0 57 -32.5 90t-92.5 33zM862 1126l-197 265l-315 -265l-41 43l303 334q31 35 72 35q43 0 63 -43l162 -338z" />
    <glyph glyph-name="edieresis" unicode="&#xeb;" horiz-adv-x="922" 
d="M881 809q0 -108 -70.5 -187.5t-230.5 -132t-387 -83.5v-18q0 -156 63.5 -239t187.5 -83q178 0 336 204l49 -34q-81 -120 -199 -191.5t-239 -71.5q-154 0 -237.5 98t-83.5 277q0 167 77 322t210 245.5t288 90.5q114 0 175 -53t61 -144zM641 940q-101 0 -196 -62.5
t-160 -171.5t-84 -237q178 24 264.5 50.5t159 72t107 102t34.5 123.5q0 57 -32.5 90t-92.5 33zM506 1370q0 -42 -23 -71t-65 -29t-65 29t-23 71q0 43 23 73t65 30t65 -30t23 -73zM914 1370q0 -42 -23.5 -71t-65.5 -29t-65 29t-23 71q0 43 23 73t65 30t65.5 -30t23.5 -73z
" />
    <glyph glyph-name="igrave" unicode="&#xec;" horiz-adv-x="537" 
d="M262 150q0 -68 86 -68q83 0 123 16l-10 -53q-41 -25 -105.5 -43t-109.5 -18q-111 0 -111 110q0 41 19 117l110 465q29 116 29 164q0 67 -82 67q-58 0 -119 -16l10 53q44 25 106 43.5t107 18.5q105 0 105 -111q0 -41 -19 -117l-110 -465q-29 -111 -29 -163zM506 1114
l-256 242q-64 55 -64 110q0 26 16.5 47t45.5 21q34 0 59 -24t80 -115q71 -118 158 -250z" />
    <glyph glyph-name="iacute" unicode="&#xed;" horiz-adv-x="537" 
d="M262 150q0 -68 86 -68q83 0 123 16l-10 -53q-41 -25 -105.5 -43t-109.5 -18q-111 0 -111 110q0 41 19 117l110 465q29 116 29 164q0 67 -82 67q-58 0 -119 -16l10 53q44 25 106 43.5t107 18.5q105 0 105 -111q0 -41 -19 -117l-110 -465q-29 -111 -29 -163zM614 1468
q0 -40 -24.5 -74t-135.5 -135l-159 -145l-37 31l117 188q95 154 120.5 177.5t57.5 23.5q29 0 45 -20t16 -46z" />
    <glyph glyph-name="icircumflex" unicode="&#xee;" horiz-adv-x="537" 
d="M262 150q0 -68 86 -68q83 0 123 16l-10 -53q-41 -25 -105.5 -43t-109.5 -18q-111 0 -111 110q0 41 19 117l110 465q29 116 29 164q0 67 -82 67q-58 0 -119 -16l10 53q44 25 106 43.5t107 18.5q105 0 105 -111q0 -41 -19 -117l-110 -465q-29 -111 -29 -163zM596 1126
l-197 265l-315 -265l-41 43l303 334q31 35 72 35q43 0 63 -43l162 -338z" />
    <glyph glyph-name="idieresis" unicode="&#xef;" horiz-adv-x="537" 
d="M262 150q0 -68 86 -68q83 0 123 16l-10 -53q-41 -25 -105.5 -43t-109.5 -18q-111 0 -111 110q0 41 19 117l110 465q29 116 29 164q0 67 -82 67q-58 0 -119 -16l10 53q44 25 106 43.5t107 18.5q105 0 105 -111q0 -41 -19 -117l-110 -465q-29 -111 -29 -163zM307 1370
q0 -42 -23 -71t-65 -29t-65 29t-23 71q0 43 23 73t65 30t65 -30t23 -73zM715 1370q0 -42 -23.5 -71t-65.5 -29t-65 29t-23 71q0 43 23 73t65 30t65.5 -30t23.5 -73z" />
    <glyph glyph-name="eth" unicode="&#xf0;" 
d="M401 -29q-97 0 -172 45.5t-117 132.5t-42 207q0 171 70.5 310.5t194 217t267.5 77.5q81 0 149 -41.5t95 -102.5l8 2v27q0 114 -33.5 235.5t-85.5 208.5l-270 -141l-39 70l272 141q-48 94 -131 151l45 56q94 -56 176 -166l226 117l43 -74l-228 -109q146 -231 146 -499
q0 -257 -70.5 -456.5t-200.5 -304t-303 -104.5zM819 627q0 122 -64.5 196t-168.5 74q-184 0 -285.5 -150t-101.5 -421q0 -131 60 -209t165 -78q102 0 190.5 77.5t146.5 221.5t58 289z" />
    <glyph glyph-name="ntilde" unicode="&#xf1;" horiz-adv-x="1147" 
d="M846 -16q-111 0 -111 110q0 51 19 117l104 399q29 116 29 174q0 53 -41 91t-109 38q-75 0 -168 -47.5t-168 -126.5l-170 -739h-112l158 695q18 78 18 126q0 44 -17.5 60t-60.5 16q-55 0 -111 -16l11 53q123 59 213 59q51 0 70.5 -28.5t19.5 -83.5l-2 -41h6
q79 73 185.5 119.5t195.5 46.5q90 0 145.5 -54t55.5 -141q0 -54 -25 -158q-100 -390 -109.5 -432t-9.5 -71q0 -68 86 -68q83 0 123 16l-10 -53q-41 -25 -105.5 -43t-109.5 -18zM1063 1460q-36 -102 -97 -157.5t-137 -54.5q-50 -1 -86.5 14.5t-67 34t-60 34t-64.5 16.5
q-40 -1 -68.5 -27t-71.5 -102l-53 22q41 88 72.5 128.5t70 63t84.5 22.5q47 0 83.5 -15.5t67.5 -34.5t59 -34.5t59 -15.5q52 0 83.5 26.5t69.5 104.5z" />
    <glyph glyph-name="ograve" unicode="&#xf2;" horiz-adv-x="1038" 
d="M971 627q0 -176 -76.5 -332t-205.5 -240t-286 -84q-148 0 -241.5 103t-93.5 276q0 180 77.5 334t205.5 238t280 84q155 0 247.5 -104.5t92.5 -274.5zM844 623q0 154 -60 234.5t-174 80.5q-118 0 -210.5 -70t-148.5 -210.5t-56 -297.5q0 -160 60 -240.5t175 -80.5
q121 0 215.5 76.5t146.5 210t52 297.5zM768 1114l-256 242q-64 55 -64 110q0 26 16.5 47t45.5 21q34 0 59 -24t80 -115q71 -118 158 -250z" />
    <glyph glyph-name="oacute" unicode="&#xf3;" horiz-adv-x="1038" 
d="M971 627q0 -176 -76.5 -332t-205.5 -240t-286 -84q-148 0 -241.5 103t-93.5 276q0 180 77.5 334t205.5 238t280 84q155 0 247.5 -104.5t92.5 -274.5zM844 623q0 154 -60 234.5t-174 80.5q-118 0 -210.5 -70t-148.5 -210.5t-56 -297.5q0 -160 60 -240.5t175 -80.5
q121 0 215.5 76.5t146.5 210t52 297.5zM854 1468q0 -40 -24.5 -74t-135.5 -135l-159 -145l-37 31l117 188q95 154 120.5 177.5t57.5 23.5q29 0 45 -20t16 -46z" />
    <glyph glyph-name="ocircumflex" unicode="&#xf4;" horiz-adv-x="1038" 
d="M971 627q0 -176 -76.5 -332t-205.5 -240t-286 -84q-148 0 -241.5 103t-93.5 276q0 180 77.5 334t205.5 238t280 84q155 0 247.5 -104.5t92.5 -274.5zM844 623q0 154 -60 234.5t-174 80.5q-118 0 -210.5 -70t-148.5 -210.5t-56 -297.5q0 -160 60 -240.5t175 -80.5
q121 0 215.5 76.5t146.5 210t52 297.5zM881 1126l-197 265l-315 -265l-41 43l303 334q31 35 72 35q43 0 63 -43l162 -338z" />
    <glyph glyph-name="otilde" unicode="&#xf5;" horiz-adv-x="1038" 
d="M971 627q0 -176 -76.5 -332t-205.5 -240t-286 -84q-148 0 -241.5 103t-93.5 276q0 180 77.5 334t205.5 238t280 84q155 0 247.5 -104.5t92.5 -274.5zM844 623q0 154 -60 234.5t-174 80.5q-118 0 -210.5 -70t-148.5 -210.5t-56 -297.5q0 -160 60 -240.5t175 -80.5
q121 0 215.5 76.5t146.5 210t52 297.5zM1016 1460q-36 -102 -97 -157.5t-137 -54.5q-50 -1 -86.5 14.5t-67 34t-60 34t-64.5 16.5q-40 -1 -68.5 -27t-71.5 -102l-53 22q41 88 72.5 128.5t70 63t84.5 22.5q47 0 83.5 -15.5t67.5 -34.5t59 -34.5t59 -15.5q52 0 83.5 26.5
t69.5 104.5z" />
    <glyph glyph-name="odieresis" unicode="&#xf6;" horiz-adv-x="1038" 
d="M971 627q0 -176 -76.5 -332t-205.5 -240t-286 -84q-148 0 -241.5 103t-93.5 276q0 180 77.5 334t205.5 238t280 84q155 0 247.5 -104.5t92.5 -274.5zM844 623q0 154 -60 234.5t-174 80.5q-118 0 -210.5 -70t-148.5 -210.5t-56 -297.5q0 -160 60 -240.5t175 -80.5
q121 0 215.5 76.5t146.5 210t52 297.5zM535 1370q0 -42 -23 -71t-65 -29t-65 29t-23 71q0 43 23 73t65 30t65 -30t23 -73zM943 1370q0 -42 -23.5 -71t-65.5 -29t-65 29t-23 71q0 43 23 73t65 30t65.5 -30t23.5 -73z" />
    <glyph glyph-name="divide" unicode="&#xf7;" horiz-adv-x="1255" 
d="M768 958q0 -46 -34 -77t-79 -31q-47 0 -79.5 31.5t-32.5 76.5q0 47 33 77t79 30q45 0 79 -30.5t34 -76.5zM768 147q0 -46 -33.5 -76t-79.5 -30q-48 0 -80 30.5t-32 75.5t33 77t79 32q45 0 79 -32.5t34 -76.5zM164 500v106h985v-106h-985z" />
    <glyph glyph-name="oslash" unicode="&#xf8;" horiz-adv-x="1038" 
d="M971 627q0 -176 -76.5 -332t-205.5 -240t-286 -84q-170 0 -268 135l-121 -106l-43 45l133 117q-36 90 -36 188q0 180 77.5 334t205.5 238t280 84q181 0 272 -138l109 97l43 -47l-121 -107q37 -82 37 -184zM195 360q0 -68 8 -110l614 543q-51 145 -207 145
q-118 0 -210.5 -70t-148.5 -210.5t-56 -297.5zM844 623q0 67 -8 102l-615 -543q54 -143 209 -143q121 0 215.5 76.5t146.5 210t52 297.5z" />
    <glyph glyph-name="ugrave" unicode="&#xf9;" horiz-adv-x="1106" 
d="M809 -14q-52 0 -81.5 30.5t-29.5 85.5l2 27h-6q-113 -89 -191 -120.5t-159 -31.5q-91 0 -149 53.5t-58 143.5q0 57 23 156l78 334q26 121 26 161q0 35 -16 53.5t-60 18.5q-36 0 -116 -20l14 53q126 63 207 63q98 0 98 -100q0 -59 -20 -139l-86 -383q-27 -108 -27 -166
q0 -60 41 -96.5t111 -36.5q68 0 158.5 46.5t158.5 114.5l176 746l103 10l12 -14l-158 -658q-5 -24 -10.5 -48.5t-10 -46.5t-7.5 -40.5t-3 -29.5q0 -42 26.5 -56t80.5 -14q15 0 48.5 4t49.5 10l-10 -51q-116 -59 -215 -59zM748 1114l-256 242q-64 55 -64 110q0 26 16.5 47
t45.5 21q34 0 59 -24t80 -115q71 -118 158 -250z" />
    <glyph glyph-name="uacute" unicode="&#xfa;" horiz-adv-x="1106" 
d="M809 -14q-52 0 -81.5 30.5t-29.5 85.5l2 27h-6q-113 -89 -191 -120.5t-159 -31.5q-91 0 -149 53.5t-58 143.5q0 57 23 156l78 334q26 121 26 161q0 35 -16 53.5t-60 18.5q-36 0 -116 -20l14 53q126 63 207 63q98 0 98 -100q0 -59 -20 -139l-86 -383q-27 -108 -27 -166
q0 -60 41 -96.5t111 -36.5q68 0 158.5 46.5t158.5 114.5l176 746l103 10l12 -14l-158 -658q-5 -24 -10.5 -48.5t-10 -46.5t-7.5 -40.5t-3 -29.5q0 -42 26.5 -56t80.5 -14q15 0 48.5 4t49.5 10l-10 -51q-116 -59 -215 -59zM897 1468q0 -40 -24.5 -74t-135.5 -135l-159 -145
l-37 31l117 188q95 154 120.5 177.5t57.5 23.5q29 0 45 -20t16 -46z" />
    <glyph glyph-name="ucircumflex" unicode="&#xfb;" horiz-adv-x="1106" 
d="M809 -14q-52 0 -81.5 30.5t-29.5 85.5l2 27h-6q-113 -89 -191 -120.5t-159 -31.5q-91 0 -149 53.5t-58 143.5q0 57 23 156l78 334q26 121 26 161q0 35 -16 53.5t-60 18.5q-36 0 -116 -20l14 53q126 63 207 63q98 0 98 -100q0 -59 -20 -139l-86 -383q-27 -108 -27 -166
q0 -60 41 -96.5t111 -36.5q68 0 158.5 46.5t158.5 114.5l176 746l103 10l12 -14l-158 -658q-5 -24 -10.5 -48.5t-10 -46.5t-7.5 -40.5t-3 -29.5q0 -42 26.5 -56t80.5 -14q15 0 48.5 4t49.5 10l-10 -51q-116 -59 -215 -59zM901 1126l-197 265l-315 -265l-41 43l303 334
q31 35 72 35q43 0 63 -43l162 -338z" />
    <glyph glyph-name="udieresis" unicode="&#xfc;" horiz-adv-x="1106" 
d="M809 -14q-52 0 -81.5 30.5t-29.5 85.5l2 27h-6q-113 -89 -191 -120.5t-159 -31.5q-91 0 -149 53.5t-58 143.5q0 57 23 156l78 334q26 121 26 161q0 35 -16 53.5t-60 18.5q-36 0 -116 -20l14 53q126 63 207 63q98 0 98 -100q0 -59 -20 -139l-86 -383q-27 -108 -27 -166
q0 -60 41 -96.5t111 -36.5q68 0 158.5 46.5t158.5 114.5l176 746l103 10l12 -14l-158 -658q-5 -24 -10.5 -48.5t-10 -46.5t-7.5 -40.5t-3 -29.5q0 -42 26.5 -56t80.5 -14q15 0 48.5 4t49.5 10l-10 -51q-116 -59 -215 -59zM551 1370q0 -42 -23 -71t-65 -29t-65 29t-23 71
q0 43 23 73t65 30t65 -30t23 -73zM959 1370q0 -42 -23.5 -71t-65.5 -29t-65 29t-23 71q0 43 23 73t65 30t65.5 -30t23.5 -73z" />
    <glyph glyph-name="yacute" unicode="&#xfd;" horiz-adv-x="1075" 
d="M707 137q-113 -89 -196 -124.5t-167 -35.5q-91 0 -149 53.5t-58 143.5q0 57 23 156l78 334q26 121 26 161q0 35 -16 53.5t-60 18.5q-36 0 -116 -20l14 53q126 63 207 63q98 0 98 -100q0 -59 -20 -139l-86 -383q-27 -108 -27 -166q0 -60 41 -96.5t111 -36.5t163.5 45.5
t159.5 111.5l172 750l101 10l10 -12l-170 -766q-58 -264 -136.5 -397t-201.5 -195.5t-307 -62.5q-199 0 -199 118q0 40 20 62t54 22q64 0 106 -97l19 -46h22q190 0 316 133t176 389h-8zM897 1468q0 -40 -24.5 -74t-135.5 -135l-159 -145l-37 31l117 188q95 154 120.5 177.5
t57.5 23.5q29 0 45 -20t16 -46z" />
    <glyph glyph-name="thorn" unicode="&#xfe;" horiz-adv-x="1077" 
d="M104 -309q0 -17 6 -28t25.5 -21t40 -15t98.5 -12l-14 -59h-465l15 59q84 6 106 12q59 20 74 92l358 1573q14 56 14 103q0 39 -28 52.5t-129 25.5l12 55l291 20l12 -12l-158 -670h9q89 78 159.5 109t135.5 31q155 0 247.5 -105t92.5 -278q0 -162 -73.5 -310t-205.5 -245
t-272 -97q-175 0 -283 72q-34 -163 -52 -248.5t-16 -103.5zM874 627q0 135 -60 213t-183 78q-59 0 -122 -29t-165 -115l-139 -618q16 -46 83.5 -83.5t153.5 -37.5q114 0 215 80t159 217t58 295z" />
    <glyph glyph-name="ydieresis" unicode="&#xff;" horiz-adv-x="1075" 
d="M707 137q-113 -89 -196 -124.5t-167 -35.5q-91 0 -149 53.5t-58 143.5q0 57 23 156l78 334q26 121 26 161q0 35 -16 53.5t-60 18.5q-36 0 -116 -20l14 53q126 63 207 63q98 0 98 -100q0 -59 -20 -139l-86 -383q-27 -108 -27 -166q0 -60 41 -96.5t111 -36.5t163.5 45.5
t159.5 111.5l172 750l101 10l10 -12l-170 -766q-58 -264 -136.5 -397t-201.5 -195.5t-307 -62.5q-199 0 -199 118q0 40 20 62t54 22q64 0 106 -97l19 -46h22q190 0 316 133t176 389h-8zM551 1370q0 -42 -23 -71t-65 -29t-65 29t-23 71q0 43 23 73t65 30t65 -30t23 -73z
M959 1370q0 -42 -23.5 -71t-65.5 -29t-65 29t-23 71q0 43 23 73t65 30t65.5 -30t23.5 -73z" />
    <glyph glyph-name="Amacron" unicode="&#x100;" horiz-adv-x="1284" 
d="M1249 0h-489l12 61q95 12 126 20.5t47 23t16 38.5q0 34 -9 95l-32 264h-531l-143 -238q-51 -92 -51 -125q0 -31 50.5 -52.5t133.5 -25.5l-12 -61h-519l13 61q87 7 151.5 50.5t112.5 126.5l772 1202h18l177 -1227q12 -78 63 -113t107 -39zM823 1192l-389 -614h473z
M604 1651l21 108h643l-21 -108h-643z" />
    <glyph glyph-name="amacron" unicode="&#x101;" horiz-adv-x="1124" 
d="M412 66q68 0 144.5 37t176.5 128l127 543q0 79 -57.5 125.5t-145.5 46.5q-114 0 -222.5 -88t-170 -229.5t-61.5 -296.5q0 -123 52 -194.5t157 -71.5zM707 143l-62 -54q-128 -116 -262 -116q-146 0 -228.5 102t-82.5 271q0 166 81.5 319t217.5 247t286 94q107 0 195 -38
l39 -18l123 39l8 -12l-154 -662q-12 -55 -21 -96.5t-9 -68.5q0 -68 86 -68q83 0 123 16l-11 -53q-41 -25 -105.5 -43t-109.5 -18q-110 0 -110 110q0 27 4 49h-8zM356 1305l21 108h643l-21 -108h-643z" />
    <glyph glyph-name="Abreve" unicode="&#x102;" horiz-adv-x="1284" 
d="M1249 0h-489l12 61q95 12 126 20.5t47 23t16 38.5q0 34 -9 95l-32 264h-531l-143 -238q-51 -92 -51 -125q0 -31 50.5 -52.5t133.5 -25.5l-12 -61h-519l13 61q87 7 151.5 50.5t112.5 126.5l772 1202h18l177 -1227q12 -78 63 -113t107 -39zM823 1192l-389 -614h473z
M1282 1853q-56 -159 -145 -241t-220 -82q-256 0 -256 328l56 14q15 -115 68 -163t149 -48q65 0 114 20t88 59t91 132z" />
    <glyph glyph-name="abreve" unicode="&#x103;" horiz-adv-x="1124" 
d="M412 66q68 0 144.5 37t176.5 128l127 543q0 79 -57.5 125.5t-145.5 46.5q-114 0 -222.5 -88t-170 -229.5t-61.5 -296.5q0 -123 52 -194.5t157 -71.5zM707 143l-62 -54q-128 -116 -262 -116q-146 0 -228.5 102t-82.5 271q0 166 81.5 319t217.5 247t286 94q107 0 195 -38
l39 -18l123 39l8 -12l-154 -662q-12 -55 -21 -96.5t-9 -68.5q0 -68 86 -68q83 0 123 16l-11 -53q-41 -25 -105.5 -43t-109.5 -18q-110 0 -110 110q0 27 4 49h-8zM993 1470q-56 -171 -143.5 -259.5t-218.5 -88.5q-254 0 -254 357l49 8q15 -120 69.5 -172.5t151.5 -52.5
q96 0 162.5 47.5t132.5 177.5z" />
    <glyph glyph-name="Aogonek" unicode="&#x104;" horiz-adv-x="1284" 
d="M1249 0h-489l12 61q95 12 126 20.5t47 23t16 38.5q0 34 -9 95l-32 264h-531l-143 -238q-51 -92 -51 -125q0 -31 50.5 -52.5t133.5 -25.5l-12 -61h-519l13 61q87 7 151.5 50.5t112.5 126.5l772 1202h18l177 -1227q12 -78 63 -113t107 -39zM823 1192l-389 -614h473z
M1002 -444q-113 0 -175.5 41.5t-62.5 113.5q0 82 76.5 168t218.5 160h53q-102 -64 -157.5 -141t-55.5 -150q0 -64 49 -92.5t156 -30.5l-12 -69h-90z" />
    <glyph glyph-name="aogonek" unicode="&#x105;" horiz-adv-x="1124" 
d="M412 66q68 0 144.5 37t176.5 128l127 543q0 79 -57.5 125.5t-145.5 46.5q-114 0 -222.5 -88t-170 -229.5t-61.5 -296.5q0 -123 52 -194.5t157 -71.5zM707 143l-62 -54q-128 -116 -262 -116q-146 0 -228.5 102t-82.5 271q0 166 81.5 319t217.5 247t286 94q107 0 195 -38
l39 -18l123 39l8 -12l-154 -662q-12 -55 -21 -96.5t-9 -68.5q0 -68 86 -68q83 0 123 16l-11 -53q-41 -25 -105.5 -43t-109.5 -18q-110 0 -110 110q0 27 4 49h-8zM791 -444q-113 0 -175.5 41.5t-62.5 113.5q0 82 76.5 168t218.5 160h53q-102 -64 -157.5 -141t-55.5 -150
q0 -64 49 -92.5t156 -30.5l-12 -69h-90z" />
    <glyph glyph-name="Cacute" unicode="&#x106;" horiz-adv-x="1280" 
d="M1229 352q-115 -198 -262 -289.5t-336 -91.5q-151 0 -270 70.5t-185.5 197.5t-66.5 283q0 238 108 454t293.5 345t390.5 129q231 0 371 -104l47 73h78l-109 -499h-69v51q0 150 -35.5 235t-108.5 125.5t-178 40.5q-165 0 -314 -108.5t-232 -291t-83 -399.5
q0 -143 53.5 -260.5t149 -182t215.5 -64.5q145 0 270 86.5t207 236.5zM821 1518l-29 38l78 75l127 124q88 88 109 100.5t45 12.5q26 0 44.5 -20.5t18.5 -49.5q0 -32 -16 -56t-72 -56z" />
    <glyph glyph-name="cacute" unicode="&#x107;" horiz-adv-x="897" 
d="M877 811q0 -68 -28 -115t-75 -47q-42 0 -61 21.5t-19 50.5q0 39 51 166q-13 22 -56 37.5t-93 15.5q-102 0 -194.5 -76.5t-146.5 -209t-54 -289.5q0 -134 71 -216.5t187 -82.5q176 0 329 202l50 -32q-76 -117 -196 -190t-230 -73q-162 0 -251 99.5t-89 275.5t73 332.5
t195 241t268 84.5q122 0 195.5 -53t73.5 -142zM827 1468q0 -40 -24.5 -74t-135.5 -135l-159 -145l-37 31l117 188q95 154 120.5 177.5t57.5 23.5q29 0 45 -20t16 -46z" />
    <glyph glyph-name="Ccircumflex" unicode="&#x108;" horiz-adv-x="1280" 
d="M1229 352q-115 -198 -262 -289.5t-336 -91.5q-151 0 -270 70.5t-185.5 197.5t-66.5 283q0 238 108 454t293.5 345t390.5 129q231 0 371 -104l47 73h78l-109 -499h-69v51q0 150 -35.5 235t-108.5 125.5t-178 40.5q-165 0 -314 -108.5t-232 -291t-83 -399.5
q0 -143 53.5 -260.5t149 -182t215.5 -64.5q145 0 270 86.5t207 236.5zM1204 1538l-49 -31l-236 211l-319 -211l-47 31l291 285q18 18 39.5 31.5t60.5 13.5q43 0 57.5 -13.5t22.5 -27.5z" />
    <glyph glyph-name="ccircumflex" unicode="&#x109;" horiz-adv-x="897" 
d="M877 811q0 -68 -28 -115t-75 -47q-42 0 -61 21.5t-19 50.5q0 39 51 166q-13 22 -56 37.5t-93 15.5q-102 0 -194.5 -76.5t-146.5 -209t-54 -289.5q0 -134 71 -216.5t187 -82.5q176 0 329 202l50 -32q-76 -117 -196 -190t-230 -73q-162 0 -251 99.5t-89 275.5t73 332.5
t195 241t268 84.5q122 0 195.5 -53t73.5 -142zM817 1126l-197 265l-315 -265l-41 43l303 334q31 35 72 35q43 0 63 -43l162 -338z" />
    <glyph glyph-name="Cdotaccent" unicode="&#x10a;" horiz-adv-x="1280" 
d="M1229 352q-115 -198 -262 -289.5t-336 -91.5q-151 0 -270 70.5t-185.5 197.5t-66.5 283q0 238 108 454t293.5 345t390.5 129q231 0 371 -104l47 73h78l-109 -499h-69v51q0 150 -35.5 235t-108.5 125.5t-178 40.5q-165 0 -314 -108.5t-232 -291t-83 -399.5
q0 -143 53.5 -260.5t149 -182t215.5 -64.5q145 0 270 86.5t207 236.5zM879 1628q-76 0 -76 88q0 53 27.5 85t66.5 32q78 0 78 -88q0 -51 -28 -84t-68 -33z" />
    <glyph glyph-name="cdotaccent" unicode="&#x10b;" horiz-adv-x="897" 
d="M877 811q0 -68 -28 -115t-75 -47q-42 0 -61 21.5t-19 50.5q0 39 51 166q-13 22 -56 37.5t-93 15.5q-102 0 -194.5 -76.5t-146.5 -209t-54 -289.5q0 -134 71 -216.5t187 -82.5q176 0 329 202l50 -32q-76 -117 -196 -190t-230 -73q-162 0 -251 99.5t-89 275.5t73 332.5
t195 241t268 84.5q122 0 195.5 -53t73.5 -142zM623 1284q-76 0 -76 88q0 53 27.5 85t66.5 32q78 0 78 -88q0 -51 -28 -84t-68 -33z" />
    <glyph glyph-name="Ccaron" unicode="&#x10c;" horiz-adv-x="1280" 
d="M1229 352q-115 -198 -262 -289.5t-336 -91.5q-151 0 -270 70.5t-185.5 197.5t-66.5 283q0 238 108 454t293.5 345t390.5 129q231 0 371 -104l47 73h78l-109 -499h-69v51q0 150 -35.5 235t-108.5 125.5t-178 40.5q-165 0 -314 -108.5t-232 -291t-83 -399.5
q0 -143 53.5 -260.5t149 -182t215.5 -64.5q145 0 270 86.5t207 236.5zM1276 1837l-289 -285q-24 -22 -38.5 -33.5t-61.5 -11.5q-41 0 -55.5 13.5t-24.5 27.5l-180 289l49 33l233 -213l322 213z" />
    <glyph glyph-name="ccaron" unicode="&#x10d;" horiz-adv-x="897" 
d="M877 811q0 -68 -28 -115t-75 -47q-42 0 -61 21.5t-19 50.5q0 39 51 166q-13 22 -56 37.5t-93 15.5q-102 0 -194.5 -76.5t-146.5 -209t-54 -289.5q0 -134 71 -216.5t187 -82.5q176 0 329 202l50 -32q-76 -117 -196 -190t-230 -73q-162 0 -251 99.5t-89 275.5t73 332.5
t195 241t268 84.5q122 0 195.5 -53t73.5 -142zM407 1538l197 -264l315 264l41 -43l-303 -334q-17 -18 -32.5 -26.5t-38.5 -8.5q-42 0 -64 43l-162 338z" />
    <glyph glyph-name="Dcaron" unicode="&#x10e;" horiz-adv-x="1446" 
d="M463 1284q0 31 -50.5 49t-109.5 25l12 61h545q164 0 299.5 -70.5t203 -190.5t67.5 -279q0 -248 -115.5 -447t-325 -315.5t-446.5 -116.5h-557l12 61q109 6 145 21q50 21 68 96l246 1057q6 30 6 49zM1274 850q0 228 -131.5 364t-349.5 136l-170 -4l-252 -1090
q-13 -65 -13 -76q0 -60 53.5 -83t182.5 -23q191 0 345.5 99t244.5 282.5t90 394.5zM1251 1837l-289 -285q-24 -22 -38.5 -33.5t-61.5 -11.5q-41 0 -55.5 13.5t-24.5 27.5l-180 289l49 33l233 -213l322 213z" />
    <glyph glyph-name="dcaron" unicode="&#x10f;" horiz-adv-x="1284" 
d="M412 66q68 0 144.5 37t176.5 128l127 543q0 77 -49 124.5t-154 47.5q-114 0 -222.5 -88t-170 -229.5t-61.5 -296.5q0 -123 52 -194.5t157 -71.5zM838 150q0 -68 86 -68q83 0 123 16l-11 -53q-41 -25 -105.5 -43t-109.5 -18q-110 0 -110 110q0 27 4 49h-8l-62 -54
q-128 -116 -262 -116q-146 0 -228.5 102t-82.5 271q0 166 81.5 319t217.5 247t286 94q59 0 114 -11t136 -47l80 346q14 56 14 101q0 40 -33.5 55t-140.5 23l15 55l303 20l10 -12l-287 -1221q-12 -55 -21 -96.5t-9 -68.5zM1165 1124l68 38q114 65 141 177h-26q-42 0 -69.5 25
t-27.5 63q0 47 28 75t71 28q52 0 81 -31.5t29 -87.5q0 -79 -30 -138t-79 -103t-157 -97z" />
    <glyph glyph-name="Dcroat" unicode="&#x110;" horiz-adv-x="1446" 
d="M178 799h176l103 436q6 30 6 49q0 31 -50.5 49t-109.5 25l12 61h545q164 0 299.5 -70.5t203 -190.5t67.5 -279q0 -248 -115.5 -447t-325 -315.5t-446.5 -116.5h-557l12 61q109 6 145 21q50 21 68 96l123 531h-178zM1274 850q0 228 -131.5 364t-349.5 136l-170 -4
l-127 -547h305l-19 -90h-307l-104 -453q-13 -49 -13 -76q0 -60 53.5 -83t182.5 -23q191 0 345.5 99t244.5 282.5t90 394.5z" />
    <glyph glyph-name="dcroat" unicode="&#x111;" horiz-adv-x="1124" 
d="M1090 1255h225l-21 -75h-223l-203 -865q-12 -55 -21 -96.5t-9 -68.5q0 -68 86 -68q83 0 123 16l-11 -53q-41 -25 -105.5 -43t-109.5 -18q-110 0 -110 110q0 27 4 49h-8l-62 -54q-128 -116 -262 -116q-146 0 -228.5 102t-82.5 271q0 166 81.5 319t217.5 247t286 94
q59 0 114 -11t136 -47l54 232h-334l14 75h338q22 94 22 140q0 40 -33.5 55t-140.5 23l15 55l303 20l10 -12zM412 66q68 0 144.5 37t176.5 128l127 543q0 77 -49 124.5t-154 47.5q-114 0 -222.5 -88t-170 -229.5t-61.5 -296.5q0 -123 52 -194.5t157 -71.5z" />
    <glyph glyph-name="Emacron" unicode="&#x112;" horiz-adv-x="1309" 
d="M1364 1419l-80 -332h-61q-7 244 -136 259q-108 6 -210 6h-252l-133 -580h213q86 0 133 20t83.5 75.5t63.5 129.5h64l-123 -534h-62l2 76q0 78 -10 98q-18 35 -59 48t-111 13h-213l-100 -436q-13 -57 -13 -96q0 -52 43 -72t177 -20q155 0 260 15t139 42q83 65 192 275h68
l-121 -406h-1145l13 61q123 7 157 21q50 21 68 96l246 1057q6 30 6 49q0 52 -144 70l-30 4l12 61h1063zM541 1645l21 108h643l-21 -108h-643z" />
    <glyph glyph-name="emacron" unicode="&#x113;" horiz-adv-x="922" 
d="M881 809q0 -108 -70.5 -187.5t-230.5 -132t-387 -83.5v-18q0 -156 63.5 -239t187.5 -83q178 0 336 204l49 -34q-81 -120 -199 -191.5t-239 -71.5q-154 0 -237.5 98t-83.5 277q0 167 77 322t210 245.5t288 90.5q114 0 175 -53t61 -144zM641 940q-101 0 -196 -62.5
t-160 -171.5t-84 -237q178 24 264.5 50.5t159 72t107 102t34.5 123.5q0 57 -32.5 90t-92.5 33zM293 1305l21 108h643l-21 -108h-643z" />
    <glyph glyph-name="Ebreve" unicode="&#x114;" horiz-adv-x="1309" 
d="M1364 1419l-80 -332h-61q-7 244 -136 259q-108 6 -210 6h-252l-133 -580h213q86 0 133 20t83.5 75.5t63.5 129.5h64l-123 -534h-62l2 76q0 78 -10 98q-18 35 -59 48t-111 13h-213l-100 -436q-13 -57 -13 -96q0 -52 43 -72t177 -20q155 0 260 15t139 42q83 65 192 275h68
l-121 -406h-1145l13 61q123 7 157 21q50 21 68 96l246 1057q6 30 6 49q0 52 -144 70l-30 4l12 61h1063zM1212 1853q-56 -159 -145 -241t-220 -82q-256 0 -256 328l56 14q15 -115 68 -163t149 -48q65 0 114 20t88 59t91 132z" />
    <glyph glyph-name="ebreve" unicode="&#x115;" horiz-adv-x="922" 
d="M881 809q0 -108 -70.5 -187.5t-230.5 -132t-387 -83.5v-18q0 -156 63.5 -239t187.5 -83q178 0 336 204l49 -34q-81 -120 -199 -191.5t-239 -71.5q-154 0 -237.5 98t-83.5 277q0 167 77 322t210 245.5t288 90.5q114 0 175 -53t61 -144zM641 940q-101 0 -196 -62.5
t-160 -171.5t-84 -237q178 24 264.5 50.5t159 72t107 102t34.5 123.5q0 57 -32.5 90t-92.5 33zM956 1470q-56 -171 -143.5 -259.5t-218.5 -88.5q-254 0 -254 357l49 8q15 -120 69.5 -172.5t151.5 -52.5q96 0 162.5 47.5t132.5 177.5z" />
    <glyph glyph-name="Edotaccent" unicode="&#x116;" horiz-adv-x="1309" 
d="M1364 1419l-80 -332h-61q-7 244 -136 259q-108 6 -210 6h-252l-133 -580h213q86 0 133 20t83.5 75.5t63.5 129.5h64l-123 -534h-62l2 76q0 78 -10 98q-18 35 -59 48t-111 13h-213l-100 -436q-13 -57 -13 -96q0 -52 43 -72t177 -20q155 0 260 15t139 42q83 65 192 275h68
l-121 -406h-1145l13 61q123 7 157 21q50 21 68 96l246 1057q6 30 6 49q0 52 -144 70l-30 4l12 61h1063zM895 1628q-76 0 -76 88q0 53 27.5 85t66.5 32q78 0 78 -88q0 -51 -28 -84t-68 -33z" />
    <glyph glyph-name="edotaccent" unicode="&#x117;" horiz-adv-x="922" 
d="M881 809q0 -108 -70.5 -187.5t-230.5 -132t-387 -83.5v-18q0 -156 63.5 -239t187.5 -83q178 0 336 204l49 -34q-81 -120 -199 -191.5t-239 -71.5q-154 0 -237.5 98t-83.5 277q0 167 77 322t210 245.5t288 90.5q114 0 175 -53t61 -144zM641 940q-101 0 -196 -62.5
t-160 -171.5t-84 -237q178 24 264.5 50.5t159 72t107 102t34.5 123.5q0 57 -32.5 90t-92.5 33zM625 1284q-76 0 -76 88q0 53 27.5 85t66.5 32q78 0 78 -88q0 -51 -28 -84t-68 -33z" />
    <glyph glyph-name="Eogonek" unicode="&#x118;" horiz-adv-x="1309" 
d="M1364 1419l-80 -332h-61q-7 244 -136 259q-108 6 -210 6h-252l-133 -580h213q86 0 133 20t83.5 75.5t63.5 129.5h64l-123 -534h-62l2 76q0 78 -10 98q-18 35 -59 48t-111 13h-213l-100 -436q-13 -57 -13 -96q0 -52 43 -72t177 -20q155 0 260 15t139 42q83 65 192 275h68
l-121 -406h-1145l13 61q123 7 157 21q50 21 68 96l246 1057q6 30 6 49q0 52 -144 70l-30 4l12 61h1063zM883 -444q-113 0 -175.5 41.5t-62.5 113.5q0 82 76.5 168t218.5 160h53q-102 -64 -157.5 -141t-55.5 -150q0 -64 49 -92.5t156 -30.5l-12 -69h-90z" />
    <glyph glyph-name="eogonek" unicode="&#x119;" horiz-adv-x="922" 
d="M881 809q0 -108 -70.5 -187.5t-230.5 -132t-387 -83.5v-18q0 -156 63.5 -239t187.5 -83q178 0 336 204l49 -34q-81 -120 -199 -191.5t-239 -71.5q-154 0 -237.5 98t-83.5 277q0 167 77 322t210 245.5t288 90.5q114 0 175 -53t61 -144zM641 940q-101 0 -196 -62.5
t-160 -171.5t-84 -237q178 24 264.5 50.5t159 72t107 102t34.5 123.5q0 57 -32.5 90t-92.5 33zM510 -444q-113 0 -175.5 41.5t-62.5 113.5q0 82 76.5 168t218.5 160h53q-102 -64 -157.5 -141t-55.5 -150q0 -64 49 -92.5t156 -30.5l-12 -69h-90z" />
    <glyph glyph-name="Ecaron" unicode="&#x11a;" horiz-adv-x="1309" 
d="M1364 1419l-80 -332h-61q-7 244 -136 259q-108 6 -210 6h-252l-133 -580h213q86 0 133 20t83.5 75.5t63.5 129.5h64l-123 -534h-62l2 76q0 78 -10 98q-18 35 -59 48t-111 13h-213l-100 -436q-13 -57 -13 -96q0 -52 43 -72t177 -20q155 0 260 15t139 42q83 65 192 275h68
l-121 -406h-1145l13 61q123 7 157 21q50 21 68 96l246 1057q6 30 6 49q0 52 -144 70l-30 4l12 61h1063zM1241 1837l-289 -285q-24 -22 -38.5 -33.5t-61.5 -11.5q-41 0 -55.5 13.5t-24.5 27.5l-180 289l49 33l233 -213l322 213z" />
    <glyph glyph-name="ecaron" unicode="&#x11b;" horiz-adv-x="922" 
d="M881 809q0 -108 -70.5 -187.5t-230.5 -132t-387 -83.5v-18q0 -156 63.5 -239t187.5 -83q178 0 336 204l49 -34q-81 -120 -199 -191.5t-239 -71.5q-154 0 -237.5 98t-83.5 277q0 167 77 322t210 245.5t288 90.5q114 0 175 -53t61 -144zM641 940q-101 0 -196 -62.5
t-160 -171.5t-84 -237q178 24 264.5 50.5t159 72t107 102t34.5 123.5q0 57 -32.5 90t-92.5 33zM403 1538l197 -264l315 264l41 -43l-303 -334q-17 -18 -32.5 -26.5t-38.5 -8.5q-42 0 -64 43l-162 338z" />
    <glyph glyph-name="Gcircumflex" unicode="&#x11c;" horiz-adv-x="1442" 
d="M659 -29q-156 0 -282.5 71t-197 201.5t-70.5 299.5q0 237 114 447t308.5 335t408.5 125q123 0 232.5 -28t175.5 -76l49 73h65l-104 -483h-68q2 51 2 68q-3 190 -101 279t-280 89q-174 0 -326.5 -111t-236.5 -299t-84 -413q0 -226 125.5 -365t331.5 -139q167 0 280 80
q27 40 54 167t32 189q0 32 -18 48.5t-78.5 26t-106.5 9.5h-10l13 68h551l-13 -68l-31 -3q-75 -7 -105 -22.5t-48 -43.5t-29 -70q-36 -157 -54 -236.5t-21 -117.5q-166 -58 -272 -79.5t-206 -21.5zM1237 1538l-49 -31l-236 211l-319 -211l-47 31l291 285q18 18 39.5 31.5
t60.5 13.5q43 0 57.5 -13.5t22.5 -27.5z" />
    <glyph glyph-name="gcircumflex" unicode="&#x11d;" horiz-adv-x="1116" 
d="M422 72q146 0 321 159l121 543q0 85 -50.5 128.5t-145.5 43.5q-112 0 -219 -85t-171.5 -227.5t-64.5 -301.5q0 -124 52 -192t157 -68zM1016 989l8 -12l-168 -776q-74 -340 -223.5 -492.5t-411.5 -152.5q-100 0 -155.5 33.5t-55.5 95.5q0 31 17.5 56.5t58.5 25.5
q62 0 96 -104l17 -48h43q182 0 307 134t178 394h-10l-62 -52q-128 -111 -262 -111q-145 0 -228 98.5t-83 267.5q0 171 85 325t220 244.5t281 90.5q57 0 111 -12t122 -44zM912 1126l-197 265l-315 -265l-41 43l303 334q31 35 72 35q43 0 63 -43l162 -338z" />
    <glyph glyph-name="Gbreve" unicode="&#x11e;" horiz-adv-x="1442" 
d="M659 -29q-156 0 -282.5 71t-197 201.5t-70.5 299.5q0 237 114 447t308.5 335t408.5 125q123 0 232.5 -28t175.5 -76l49 73h65l-104 -483h-68q2 51 2 68q-3 190 -101 279t-280 89q-174 0 -326.5 -111t-236.5 -299t-84 -413q0 -226 125.5 -365t331.5 -139q167 0 280 80
q27 40 54 167t32 189q0 32 -18 48.5t-78.5 26t-106.5 9.5h-10l13 68h551l-13 -68l-31 -3q-75 -7 -105 -22.5t-48 -43.5t-29 -70q-36 -157 -54 -236.5t-21 -117.5q-166 -58 -272 -79.5t-206 -21.5zM1317 1853q-56 -159 -145 -241t-220 -82q-256 0 -256 328l56 14
q15 -115 68 -163t149 -48q65 0 114 20t88 59t91 132z" />
    <glyph glyph-name="gbreve" unicode="&#x11f;" horiz-adv-x="1116" 
d="M422 72q146 0 321 159l121 543q0 85 -50.5 128.5t-145.5 43.5q-112 0 -219 -85t-171.5 -227.5t-64.5 -301.5q0 -124 52 -192t157 -68zM1016 989l8 -12l-168 -776q-74 -340 -223.5 -492.5t-411.5 -152.5q-100 0 -155.5 33.5t-55.5 95.5q0 31 17.5 56.5t58.5 25.5
q62 0 96 -104l17 -48h43q182 0 307 134t178 394h-10l-62 -52q-128 -111 -262 -111q-145 0 -228 98.5t-83 267.5q0 171 85 325t220 244.5t281 90.5q57 0 111 -12t122 -44zM999 1470q-56 -171 -143.5 -259.5t-218.5 -88.5q-254 0 -254 357l49 8q15 -120 69.5 -172.5
t151.5 -52.5q96 0 162.5 47.5t132.5 177.5z" />
    <glyph glyph-name="Gdotaccent" unicode="&#x120;" horiz-adv-x="1442" 
d="M659 -29q-156 0 -282.5 71t-197 201.5t-70.5 299.5q0 237 114 447t308.5 335t408.5 125q123 0 232.5 -28t175.5 -76l49 73h65l-104 -483h-68q2 51 2 68q-3 190 -101 279t-280 89q-174 0 -326.5 -111t-236.5 -299t-84 -413q0 -226 125.5 -365t331.5 -139q167 0 280 80
q27 40 54 167t32 189q0 32 -18 48.5t-78.5 26t-106.5 9.5h-10l13 68h551l-13 -68l-31 -3q-75 -7 -105 -22.5t-48 -43.5t-29 -70q-36 -157 -54 -236.5t-21 -117.5q-166 -58 -272 -79.5t-206 -21.5zM975 1628q-76 0 -76 88q0 53 27.5 85t66.5 32q78 0 78 -88q0 -51 -28 -84
t-68 -33z" />
    <glyph glyph-name="gdotaccent" unicode="&#x121;" horiz-adv-x="1116" 
d="M422 72q146 0 321 159l121 543q0 85 -50.5 128.5t-145.5 43.5q-112 0 -219 -85t-171.5 -227.5t-64.5 -301.5q0 -124 52 -192t157 -68zM1016 989l8 -12l-168 -776q-74 -340 -223.5 -492.5t-411.5 -152.5q-100 0 -155.5 33.5t-55.5 95.5q0 31 17.5 56.5t58.5 25.5
q62 0 96 -104l17 -48h43q182 0 307 134t178 394h-10l-62 -52q-128 -111 -262 -111q-145 0 -228 98.5t-83 267.5q0 171 85 325t220 244.5t281 90.5q57 0 111 -12t122 -44zM680 1284q-76 0 -76 88q0 53 27.5 85t66.5 32q78 0 78 -88q0 -51 -28 -84t-68 -33z" />
    <glyph glyph-name="uni0122" unicode="&#x122;" horiz-adv-x="1442" 
d="M659 -29q-156 0 -282.5 71t-197 201.5t-70.5 299.5q0 237 114 447t308.5 335t408.5 125q123 0 232.5 -28t175.5 -76l49 73h65l-104 -483h-68q2 51 2 68q-3 190 -101 279t-280 89q-174 0 -326.5 -111t-236.5 -299t-84 -413q0 -226 125.5 -365t331.5 -139q167 0 280 80
q27 40 54 167t32 189q0 32 -18 48.5t-78.5 26t-106.5 9.5h-10l13 68h551l-13 -68l-31 -3q-75 -7 -105 -22.5t-48 -43.5t-29 -70q-36 -157 -54 -236.5t-21 -117.5q-166 -58 -272 -79.5t-206 -21.5zM483 -444l10 55q83 8 124.5 37t58.5 96h-31q-51 0 -80 24t-29 64
q0 47 31.5 74.5t79.5 27.5q50 0 83.5 -37.5t33.5 -93.5q0 -115 -72.5 -180t-208.5 -67z" />
    <glyph glyph-name="uni0123" unicode="&#x123;" horiz-adv-x="1116" 
d="M422 72q146 0 321 159l121 543q0 85 -50.5 128.5t-145.5 43.5q-112 0 -219 -85t-171.5 -227.5t-64.5 -301.5q0 -124 52 -192t157 -68zM1016 989l8 -12l-168 -776q-74 -340 -223.5 -492.5t-411.5 -152.5q-100 0 -155.5 33.5t-55.5 95.5q0 31 17.5 56.5t58.5 25.5
q62 0 96 -104l17 -48h43q182 0 307 134t178 394h-10l-62 -52q-128 -111 -262 -111q-145 0 -228 98.5t-83 267.5q0 171 85 325t220 244.5t281 90.5q57 0 111 -12t122 -44zM803 1505l-10 -55q-84 -8 -125.5 -37.5t-56.5 -95.5h30q51 0 80 -24t29 -64q0 -46 -30.5 -74.5
t-80.5 -28.5q-51 0 -83.5 37.5t-32.5 93.5q0 117 74 181.5t206 66.5z" />
    <glyph glyph-name="Hcircumflex" unicode="&#x124;" horiz-adv-x="1610" 
d="M1346 1284q0 31 -52 49t-108 25l12 61h502l-14 -61q-96 -9 -141.5 -29.5t-63.5 -93.5l-234 -1018q-10 -47 -10 -67q0 -29 14.5 -46t55 -30t79.5 -13l-16 -61h-496l13 61l37 3q93 7 124.5 31t45.5 83l120 522h-739l-110 -483q-11 -38 -11 -67t14 -45.5t55.5 -30
t80.5 -13.5l-17 -61h-495l12 61l37 3q93 7 124.5 31t45.5 83l246 1057q6 30 6 49q0 31 -50.5 49t-109.5 25l12 61h502l-14 -61q-98 -9 -143.5 -31t-61.5 -92l-104 -459h739l106 459q7 35 7 49zM1343 1538l-49 -31l-236 211l-319 -211l-47 31l291 285q18 18 39.5 31.5
t60.5 13.5q43 0 57.5 -13.5t22.5 -27.5z" />
    <glyph glyph-name="hcircumflex" unicode="&#x125;" horiz-adv-x="1038" 
d="M489 1407l-137 -567h4q80 74 186.5 120t194.5 46q89 0 145 -55t56 -140q0 -61 -25 -158q-101 -392 -109.5 -433.5t-8.5 -69.5q0 -68 86 -68q83 0 123 16l-11 -53q-41 -25 -105.5 -43t-109.5 -18q-110 0 -110 110q0 47 18 117l105 399q28 112 28 174q0 53 -41 91t-108 38
q-78 0 -172.5 -50t-163.5 -124l-170 -739h-113l266 1163q15 60 15 103q0 40 -31 54t-127 23l12 56l291 20zM1018 1538l-49 -31l-236 211l-319 -211l-47 31l290 285q19 18 41 31.5t60 13.5q28 0 47 -8.5t33 -32.5z" />
    <glyph glyph-name="Hbar" unicode="&#x126;" horiz-adv-x="1610" 
d="M1430 1016l-183 -799q-10 -47 -10 -67q0 -29 14.5 -46t55 -30t79.5 -13l-16 -61h-496l13 61l37 3q93 7 124.5 31t45.5 83l120 522h-739l-110 -483q-11 -38 -11 -67t14 -45.5t55.5 -30t80.5 -13.5l-17 -61h-495l12 61l37 3q93 7 124.5 31t45.5 83l195 838h-181l19 78h180
l33 141q6 30 6 49q0 31 -50.5 49t-109.5 25l12 61h502l-14 -61q-98 -9 -143.5 -31t-61.5 -92l-33 -141h742l32 141q7 35 7 49q0 31 -52 49t-108 25l12 61h502l-14 -61q-96 -9 -141.5 -29.5t-63.5 -93.5l-33 -141h182l-18 -78h-182zM1288 1016h-741l-53 -240h739z" />
    <glyph glyph-name="hbar" unicode="&#x127;" horiz-adv-x="1038" 
d="M520 1536l-67 -279h350l-21 -75h-348l-82 -342h4q80 74 186.5 120t194.5 46q89 0 145 -55t56 -140q0 -61 -25 -158q-101 -392 -109.5 -433.5t-8.5 -69.5q0 -68 86 -68q83 0 123 16l-11 -53q-41 -25 -105.5 -43t-109.5 -18q-110 0 -110 110q0 47 18 117l105 399
q28 112 28 174q0 53 -41 91t-108 38q-78 0 -172.5 -50t-163.5 -124l-170 -739h-113l273 1182h-218l19 75h215q22 88 22 138q0 39 -28 52.5t-129 25.5l12 55l291 20z" />
    <glyph glyph-name="Itilde" unicode="&#x128;" horiz-adv-x="729" 
d="M463 1276q0 41 -68 60t-123 22l13 61h565l-14 -61q-107 -8 -164 -28.5t-74 -92.5l-233 -1016q-11 -38 -11 -69q0 -45 51 -65.5t134 -25.5l-13 -61h-565l12 61q131 9 152 17q69 26 86 98l244 1051q8 29 8 49zM973 1829q-36 -102 -97 -157.5t-137 -54.5q-50 -1 -86.5 14.5
t-67 34t-60 34t-64.5 16.5q-40 -1 -68.5 -27t-71.5 -102l-53 22q41 88 72.5 128.5t70 63t84.5 22.5q47 0 83.5 -15.5t67.5 -34.5t59 -34.5t59 -15.5q52 0 83.5 26.5t69.5 104.5z" />
    <glyph glyph-name="itilde" unicode="&#x129;" horiz-adv-x="537" 
d="M262 150q0 -68 86 -68q83 0 123 16l-10 -53q-41 -25 -105.5 -43t-109.5 -18q-111 0 -111 110q0 41 19 117l110 465q29 116 29 164q0 67 -82 67q-58 0 -119 -16l10 53q44 25 106 43.5t107 18.5q105 0 105 -111q0 -41 -19 -117l-110 -465q-29 -111 -29 -163zM746 1460
q-36 -102 -97 -157.5t-137 -54.5q-50 -1 -86.5 14.5t-67 34t-60 34t-64.5 16.5q-40 -1 -68.5 -27t-71.5 -102l-53 22q41 88 72.5 128.5t70 63t84.5 22.5q47 0 83.5 -15.5t67.5 -34.5t59 -34.5t59 -15.5q52 0 83.5 26.5t69.5 104.5z" />
    <glyph glyph-name="Imacron" unicode="&#x12a;" horiz-adv-x="729" 
d="M463 1276q0 41 -68 60t-123 22l13 61h565l-14 -61q-107 -8 -164 -28.5t-74 -92.5l-233 -1016q-11 -38 -11 -69q0 -45 51 -65.5t134 -25.5l-13 -61h-565l12 61q131 9 152 17q69 26 86 98l244 1051q8 29 8 49zM297 1661l21 108h643l-21 -108h-643z" />
    <glyph glyph-name="imacron" unicode="&#x12b;" horiz-adv-x="537" 
d="M262 150q0 -68 86 -68q83 0 123 16l-10 -53q-41 -25 -105.5 -43t-109.5 -18q-111 0 -111 110q0 41 19 117l110 465q29 116 29 164q0 67 -82 67q-58 0 -119 -16l10 53q44 25 106 43.5t107 18.5q105 0 105 -111q0 -41 -19 -117l-110 -465q-29 -111 -29 -163zM65 1305
l21 108h643l-21 -108h-643z" />
    <glyph glyph-name="Ibreve" unicode="&#x12c;" horiz-adv-x="729" 
d="M463 1276q0 41 -68 60t-123 22l13 61h565l-14 -61q-107 -8 -164 -28.5t-74 -92.5l-233 -1016q-11 -38 -11 -69q0 -45 51 -65.5t134 -25.5l-13 -61h-565l12 61q131 9 152 17q69 26 86 98l244 1051q8 29 8 49zM944 1853q-56 -159 -145 -241t-220 -82q-256 0 -256 328l56 14
q15 -115 68 -163t149 -48q65 0 114 20t88 59t91 132z" />
    <glyph glyph-name="ibreve" unicode="&#x12d;" horiz-adv-x="537" 
d="M262 150q0 -68 86 -68q83 0 123 16l-10 -53q-41 -25 -105.5 -43t-109.5 -18q-111 0 -111 110q0 41 19 117l110 465q29 116 29 164q0 67 -82 67q-58 0 -119 -16l10 53q44 25 106 43.5t107 18.5q105 0 105 -111q0 -41 -19 -117l-110 -465q-29 -111 -29 -163zM721 1470
q-56 -171 -143.5 -259.5t-218.5 -88.5q-254 0 -254 357l49 8q15 -120 69.5 -172.5t151.5 -52.5q96 0 162.5 47.5t132.5 177.5z" />
    <glyph glyph-name="Iogonek" unicode="&#x12e;" horiz-adv-x="729" 
d="M463 1276q0 41 -68 60t-123 22l13 61h565l-14 -61q-107 -8 -164 -28.5t-74 -92.5l-233 -1016q-11 -38 -11 -69q0 -45 51 -65.5t134 -25.5l-13 -61h-565l12 61q131 9 152 17q69 26 86 98l244 1051q8 29 8 49zM293 -444q-113 0 -175.5 41.5t-62.5 113.5q0 82 76.5 168
t218.5 160h53q-102 -64 -157.5 -141t-55.5 -150q0 -64 49 -92.5t156 -30.5l-12 -69h-90z" />
    <glyph glyph-name="iogonek" unicode="&#x12f;" horiz-adv-x="537" 
d="M467 1284q-76 0 -76 88q0 53 27.5 85t66.5 32q78 0 78 -88q0 -51 -28 -84t-68 -33zM262 150q0 -68 86 -68q83 0 123 16l-10 -53q-41 -25 -105.5 -43t-109.5 -18q-111 0 -111 110q0 41 19 117l110 465q29 116 29 164q0 67 -82 67q-58 0 -119 -16l10 53q44 25 106 43.5
t107 18.5q105 0 105 -111q0 -41 -19 -117l-110 -465q-29 -111 -29 -163zM340 -444q-113 0 -175.5 41.5t-62.5 113.5q0 82 76.5 168t218.5 160h53q-102 -64 -157.5 -141t-55.5 -150q0 -64 49 -92.5t156 -30.5l-12 -69h-90z" />
    <glyph glyph-name="Idotaccent" unicode="&#x130;" horiz-adv-x="729" 
d="M463 1276q0 41 -68 60t-123 22l13 61h565l-14 -61q-107 -8 -164 -28.5t-74 -92.5l-233 -1016q-11 -38 -11 -69q0 -45 51 -65.5t134 -25.5l-13 -61h-565l12 61q131 9 152 17q69 26 86 98l244 1051q8 29 8 49zM598 1628q-76 0 -76 88q0 53 27.5 85t66.5 32q78 0 78 -88
q0 -51 -28 -84t-68 -33z" />
    <glyph glyph-name="dotlessi" unicode="&#x131;" horiz-adv-x="537" 
d="M262 150q0 -68 86 -68q83 0 123 16l-10 -53q-41 -25 -105.5 -43t-109.5 -18q-111 0 -111 110q0 41 19 117l110 465q29 116 29 164q0 67 -82 67q-58 0 -119 -16l10 53q44 25 106 43.5t107 18.5q105 0 105 -111q0 -41 -19 -117l-110 -465q-29 -111 -29 -163z" />
    <glyph glyph-name="IJ" unicode="&#x132;" horiz-adv-x="1751" 
d="M463 1276q0 41 -68 60t-123 22l13 61h565l-14 -61q-107 -8 -164 -28.5t-74 -92.5l-233 -1016q-11 -38 -11 -69q0 -45 51 -65.5t134 -25.5l-13 -61h-565l12 61q131 9 152 17q69 26 86 98l244 1051q8 29 8 49zM1517 1276q0 40 -67 59t-123 23l12 61h551l-14 -61
q-61 -5 -118 -19.5t-76 -40.5t-27 -63l-193 -827q-47 -202 -175.5 -321.5t-307.5 -119.5q-136 0 -218.5 67.5t-82.5 182.5q0 105 46.5 173.5t119.5 68.5q34 0 56 -23t22 -57q0 -38 -16.5 -71.5t-40 -65t-48.5 -61.5t-43 -60q24 -42 83 -68t132 -26q93 0 157 46t108 132
t89 280l168 750q6 18 6 41z" />
    <glyph glyph-name="ij" unicode="&#x133;" horiz-adv-x="1057" 
d="M467 1284q-76 0 -76 88q0 53 27.5 85t66.5 32q78 0 78 -88q0 -51 -28 -84t-68 -33zM262 150q0 -68 86 -68q83 0 123 16l-10 -53q-41 -25 -105.5 -43t-109.5 -18q-111 0 -111 110q0 41 19 117l110 465q29 116 29 164q0 67 -82 67q-58 0 -119 -16l10 53q44 25 106 43.5
t107 18.5q105 0 105 -111q0 -41 -19 -117l-110 -465q-29 -111 -29 -163zM836 838q0 32 -17.5 50.5t-68.5 18.5q-23 0 -63.5 -7t-55.5 -13l10 55q58 31 115.5 47.5t95.5 16.5q111 0 111 -111q0 -51 -16 -125q-48 -238 -150 -711q-32 -146 -105 -261t-172 -178.5t-198 -63.5
q-51 0 -81 26t-30 68q0 32 18.5 54t53.5 22q28 0 52.5 -17t62.5 -71q102 0 167 96t107 289l70 311q94 414 94 504zM1004 1284q-76 0 -76 88q0 53 27.5 85t66.5 32q78 0 78 -88q0 -51 -28 -84t-68 -33z" />
    <glyph glyph-name="Jcircumflex" unicode="&#x134;" horiz-adv-x="1022" 
d="M788 1276q0 40 -67 59t-123 23l12 61h551l-14 -61q-61 -5 -118 -19.5t-76 -40.5t-27 -63l-193 -827q-47 -202 -175.5 -321.5t-307.5 -119.5q-136 0 -218.5 67.5t-82.5 182.5q0 105 46.5 173.5t119.5 68.5q34 0 56 -23t22 -57q0 -38 -16.5 -71.5t-40 -65t-48.5 -61.5
t-43 -60q24 -42 83 -68t132 -26q93 0 157 46t108 132t89 280l168 750q6 18 6 41zM1214 1538l-49 -31l-236 211l-319 -211l-47 31l291 285q18 18 39.5 31.5t60.5 13.5q43 0 57.5 -13.5t22.5 -27.5z" />
    <glyph glyph-name="jcircumflex" unicode="&#x135;" horiz-adv-x="520" 
d="M299 838q0 32 -17.5 50.5t-68.5 18.5q-23 0 -63.5 -7t-55.5 -13l10 55q58 31 115.5 47.5t95.5 16.5q111 0 111 -111q0 -51 -16 -125q-48 -238 -150 -711q-32 -146 -105 -261t-172 -178.5t-198 -63.5q-51 0 -81 26t-30 68q0 32 18.5 54t53.5 22q28 0 52.5 -17t62.5 -71
q102 0 167 96t107 289l70 311q94 414 94 504zM596 1126l-197 265l-315 -265l-41 43l303 334q31 35 72 35q43 0 63 -43l162 -338z" />
    <glyph glyph-name="uni0136" unicode="&#x136;" horiz-adv-x="1335" 
d="M487 717q120 75 268 192.5t268 233t120 166.5q0 22 -40.5 35.5t-92.5 13.5l12 61h491l-16 -57q-52 0 -104 -15.5t-82 -41.5q-159 -147 -306 -270.5t-364 -286.5q163 -226 265 -384l67 -104q66 -103 117.5 -146.5t166.5 -52.5l-20 -61h-274q-80 151 -205 346.5t-234 337.5
h-53l-106 -467q-11 -38 -11 -67t14 -45.5t55.5 -30t80.5 -13.5l-17 -61h-495l12 61l37 3q93 7 124.5 31t45.5 83l246 1057q6 30 6 49q0 31 -50.5 49t-109.5 25l12 61h502l-14 -61q-98 -9 -143.5 -31t-61.5 -92l-119 -518h8zM463 -444l10 55q83 8 124.5 37t58.5 96h-31
q-51 0 -80 24t-29 64q0 47 31.5 74.5t79.5 27.5q50 0 83.5 -37.5t33.5 -93.5q0 -115 -72.5 -180t-208.5 -67z" />
    <glyph glyph-name="uni0137" unicode="&#x137;" horiz-adv-x="1014" 
d="M274 492q131 126 469 413q57 48 95 68t75 20q41 0 63.5 -26.5t22.5 -61.5q0 -38 -23.5 -63t-64.5 -25t-104 17q-135 -82 -318 -236q57 -136 125.5 -273.5t97.5 -174.5t61 -54.5t69 -17.5q30 0 72 7t59 11l-10 -53q-108 -53 -205 -53q-56 0 -97 37.5t-81 119.5
q-104 203 -170 373l-160 -131l-86 -389h-113l297 1292q14 56 14 103q0 39 -28 52.5t-129 25.5l12 55l291 20l12 -12l-250 -1044h4zM264 -444l10 55q83 8 124.5 37t58.5 96h-31q-51 0 -80 24t-29 64q0 47 31.5 74.5t79.5 27.5q50 0 83.5 -37.5t33.5 -93.5q0 -115 -72.5 -180
t-208.5 -67z" />
    <glyph glyph-name="kgreenlandic" unicode="&#x138;" horiz-adv-x="1047" 
d="M307 492h2q146 140 467 413q57 48 95 68t75 20q40 0 63 -26.5t23 -61.5q0 -38 -24 -63t-64 -25q-41 0 -104 17q-131 -78 -318 -236q34 -81 66 -149.5t88 -181t99 -151t99 -38.5q30 0 75 7.5t57 10.5l-11 -53q-106 -53 -204 -53q-49 0 -87 29t-78 101.5t-100.5 205.5
t-83.5 194l-159 -131l-86 -389h-113l154 664q26 121 26 161q0 35 -16 53.5t-60 18.5q-36 0 -116 -20l14 53q126 63 207 63q98 0 98 -100q0 -52 -24 -148z" />
    <glyph glyph-name="Lacute" unicode="&#x139;" horiz-adv-x="1194" 
d="M825 1419l-12 -61q-73 -6 -137 -27q-61 -20 -80 -102l-223 -977q-17 -74 -17 -107q0 -48 37.5 -62.5t163.5 -14.5q119 0 208.5 15t121.5 40q32 26 95 109t122 174h59l-123 -406h-1048l12 61l37 3q93 7 124.5 31t45.5 83l246 1057q6 30 6 49q0 31 -50.5 49t-109.5 25
l12 61h510zM573 1518l-29 38l78 75l127 124q88 88 109 100.5t45 12.5q26 0 44.5 -20.5t18.5 -49.5q0 -32 -16 -56t-72 -56z" />
    <glyph glyph-name="lacute" unicode="&#x13a;" horiz-adv-x="512" 
d="M215 150q0 -68 86 -68q83 0 123 16l-10 -53q-41 -25 -105.5 -43t-109.5 -18q-111 0 -111 110q0 45 18 117l220 950q14 56 14 103q0 40 -31 54t-127 23l13 56l290 20l11 -12l-252 -1092q-29 -120 -29 -163zM365 1518l-29 38l204 199q75 76 100.5 94.5t53.5 18.5
q26 0 45 -20.5t19 -49.5q0 -32 -16 -56t-72 -56z" />
    <glyph glyph-name="uni013B" unicode="&#x13b;" horiz-adv-x="1194" 
d="M825 1419l-12 -61q-73 -6 -137 -27q-61 -20 -80 -102l-223 -977q-17 -74 -17 -107q0 -48 37.5 -62.5t163.5 -14.5q119 0 208.5 15t121.5 40q32 26 95 109t122 174h59l-123 -406h-1048l12 61l37 3q93 7 124.5 31t45.5 83l246 1057q6 30 6 49q0 31 -50.5 49t-109.5 25
l12 61h510zM412 -444l10 55q83 8 124.5 37t58.5 96h-31q-51 0 -80 24t-29 64q0 47 31.5 74.5t79.5 27.5q50 0 83.5 -37.5t33.5 -93.5q0 -115 -72.5 -180t-208.5 -67z" />
    <glyph glyph-name="uni013C" unicode="&#x13c;" horiz-adv-x="512" 
d="M215 150q0 -68 86 -68q83 0 123 16l-10 -53q-41 -25 -105.5 -43t-109.5 -18q-111 0 -111 110q0 45 18 117l250 1081q15 60 15 103q0 39 -28 52.5t-130 25.5l12 55l291 20l10 -12l-282 -1223q-29 -123 -29 -163zM43 -444l10 55q83 8 124.5 37t58.5 96h-31q-51 0 -80 24
t-29 64q0 47 31.5 74.5t79.5 27.5q50 0 83.5 -37.5t33.5 -93.5q0 -115 -72.5 -180t-208.5 -67z" />
    <glyph glyph-name="Lcaron" unicode="&#x13d;" horiz-adv-x="1194" 
d="M825 1419l-12 -61q-73 -6 -137 -27q-61 -20 -80 -102l-223 -977q-17 -74 -17 -107q0 -48 37.5 -62.5t163.5 -14.5q119 0 208.5 15t121.5 40q32 26 95 109t122 174h59l-123 -406h-1048l12 61l37 3q93 7 124.5 31t45.5 83l246 1057q6 30 6 49q0 31 -50.5 49t-109.5 25
l12 61h510zM925 1124l68 38q114 65 141 177h-26q-42 0 -69.5 25t-27.5 63q0 47 28 75t71 28q52 0 81 -31.5t29 -87.5q0 -79 -30 -138t-79 -103t-157 -97z" />
    <glyph glyph-name="lcaron" unicode="&#x13e;" horiz-adv-x="655" 
d="M215 150q0 -68 86 -68q83 0 123 16l-10 -53q-41 -25 -105.5 -43t-109.5 -18q-111 0 -111 110q0 45 18 117l250 1081q15 60 15 103q0 39 -28 52.5t-130 25.5l12 55l291 20l10 -12l-282 -1223q-29 -123 -29 -163zM536 1124l68 38q114 65 141 177h-26q-42 0 -69.5 25
t-27.5 63q0 47 28 75t71 28q52 0 81 -31.5t29 -87.5q0 -79 -30 -138t-79 -103t-157 -97z" />
    <glyph glyph-name="Ldot" unicode="&#x13f;" horiz-adv-x="1194" 
d="M825 1419l-12 -61q-73 -6 -137 -27q-61 -20 -80 -102l-223 -977q-17 -74 -17 -107q0 -48 37.5 -62.5t163.5 -14.5q119 0 208.5 15t121.5 40q32 26 95 109t122 174h59l-123 -406h-1048l12 61l37 3q93 7 124.5 31t45.5 83l246 1057q6 30 6 49q0 31 -50.5 49t-109.5 25
l12 61h510zM1091 721q0 -45 -30 -74.5t-76 -29.5q-45 0 -74 29.5t-29 74.5q0 47 29 78t74 31q46 0 76 -31t30 -78z" />
    <glyph glyph-name="ldot" unicode="&#x140;" horiz-adv-x="664" 
d="M215 150q0 -68 86 -68q83 0 123 16l-10 -53q-41 -25 -105.5 -43t-109.5 -18q-111 0 -111 110q0 45 18 117l250 1081q15 60 15 103q0 39 -28 52.5t-130 25.5l12 55l291 20l10 -12l-282 -1223q-29 -123 -29 -163zM708 670q0 -45 -30 -74.5t-76 -29.5q-45 0 -74 29.5
t-29 74.5q0 47 29 78t74 31q46 0 76 -31t30 -78z" />
    <glyph glyph-name="Lslash" unicode="&#x141;" horiz-adv-x="1194" 
d="M825 1419l-12 -61q-73 -6 -137 -27q-61 -20 -80 -102l-102 -445l297 111l20 -84l-340 -125l-98 -434q-17 -74 -17 -107q0 -48 37.5 -62.5t163.5 -14.5q119 0 208.5 15t121.5 40q32 26 95 109t122 174h59l-123 -406h-1048l12 61l37 3q93 7 124.5 31t45.5 83l104 451
l-176 -64l-22 80l221 82l119 508q6 30 6 49q0 31 -50.5 49t-109.5 25l12 61h510z" />
    <glyph glyph-name="lslash" unicode="&#x142;" horiz-adv-x="512" 
d="M344 748l141 63l33 -72l-196 -86l-78 -340q-29 -120 -29 -163q0 -68 86 -68q83 0 123 16l-10 -53q-41 -25 -105.5 -43t-109.5 -18q-111 0 -111 110q0 45 18 117l91 389l-109 -45l-35 72l166 67l137 598q15 60 15 103q0 39 -28 52.5t-130 25.5l12 55l291 20l10 -12z" />
    <glyph glyph-name="Nacute" unicode="&#x143;" horiz-adv-x="1546" 
d="M1362 1206q0 63 -25 90q-26 39 -186 62l12 61h576l-17 -61l-33 -5q-85 -11 -128.5 -34t-71.5 -78t-64 -207l-243 -1052h-47l-611 1230l-190 -813q-7 -28 -17 -89.5t-10 -96.5q0 -63 25 -90q26 -39 186 -62l-12 -61h-576l17 61l33 5q82 11 127 34t72.5 77t64.5 208
l178 766q8 32 8 63q0 45 -45 90.5t-174 53.5l16 61h348l582 -1165l178 766q7 28 17 89.5t10 96.5zM899 1518l-29 38l78 75l127 124q88 88 109 100.5t45 12.5q26 0 44.5 -20.5t18.5 -49.5q0 -32 -16 -56t-72 -56z" />
    <glyph glyph-name="nacute" unicode="&#x144;" horiz-adv-x="1147" 
d="M846 -16q-111 0 -111 110q0 51 19 117l104 399q29 116 29 174q0 53 -41 91t-109 38q-75 0 -168 -47.5t-168 -126.5l-170 -739h-112l158 695q18 78 18 126q0 44 -17.5 60t-60.5 16q-55 0 -111 -16l11 53q123 59 213 59q51 0 70.5 -28.5t19.5 -83.5l-2 -41h6
q79 73 185.5 119.5t195.5 46.5q90 0 145.5 -54t55.5 -141q0 -54 -25 -158q-100 -390 -109.5 -432t-9.5 -71q0 -68 86 -68q83 0 123 16l-10 -53q-41 -25 -105.5 -43t-109.5 -18zM923 1468q0 -40 -24.5 -74t-135.5 -135l-159 -145l-37 31l117 188q95 154 120.5 177.5
t57.5 23.5q29 0 45 -20t16 -46z" />
    <glyph glyph-name="uni0145" unicode="&#x145;" horiz-adv-x="1546" 
d="M1362 1206q0 63 -25 90q-26 39 -186 62l12 61h576l-17 -61l-33 -5q-85 -11 -128.5 -34t-71.5 -78t-64 -207l-243 -1052h-47l-611 1230l-190 -813q-7 -28 -17 -89.5t-10 -96.5q0 -63 25 -90q26 -39 186 -62l-12 -61h-576l17 61l33 5q82 11 127 34t72.5 77t64.5 208
l178 766q8 32 8 63q0 45 -45 90.5t-174 53.5l16 61h348l582 -1165l178 766q7 28 17 89.5t10 96.5zM496 -444l10 55q83 8 124.5 37t58.5 96h-31q-51 0 -80 24t-29 64q0 47 31.5 74.5t79.5 27.5q50 0 83.5 -37.5t33.5 -93.5q0 -115 -72.5 -180t-208.5 -67z" />
    <glyph glyph-name="uni0146" unicode="&#x146;" horiz-adv-x="1147" 
d="M846 -16q-111 0 -111 110q0 51 19 117l104 399q29 116 29 174q0 53 -41 91t-109 38q-75 0 -168 -47.5t-168 -126.5l-170 -739h-112l158 695q18 78 18 126q0 44 -17.5 60t-60.5 16q-55 0 -111 -16l11 53q123 59 213 59q51 0 70.5 -28.5t19.5 -83.5l-2 -41h6
q79 73 185.5 119.5t195.5 46.5q90 0 145.5 -54t55.5 -141q0 -54 -25 -158q-100 -390 -109.5 -432t-9.5 -71q0 -68 86 -68q83 0 123 16l-10 -53q-41 -25 -105.5 -43t-109.5 -18zM340 -444l10 55q83 8 124.5 37t58.5 96h-31q-51 0 -80 24t-29 64q0 47 31.5 74.5t79.5 27.5
q50 0 83.5 -37.5t33.5 -93.5q0 -115 -72.5 -180t-208.5 -67z" />
    <glyph glyph-name="Ncaron" unicode="&#x147;" horiz-adv-x="1546" 
d="M1362 1206q0 63 -25 90q-26 39 -186 62l12 61h576l-17 -61l-33 -5q-85 -11 -128.5 -34t-71.5 -78t-64 -207l-243 -1052h-47l-611 1230l-190 -813q-7 -28 -17 -89.5t-10 -96.5q0 -63 25 -90q26 -39 186 -62l-12 -61h-576l17 61l33 5q82 11 127 34t72.5 77t64.5 208
l178 766q8 32 8 63q0 45 -45 90.5t-174 53.5l16 61h348l582 -1165l178 766q7 28 17 89.5t10 96.5zM1335 1837l-289 -285q-24 -22 -38.5 -33.5t-61.5 -11.5q-41 0 -55.5 13.5t-24.5 27.5l-180 289l49 33l233 -213l322 213z" />
    <glyph glyph-name="ncaron" unicode="&#x148;" horiz-adv-x="1147" 
d="M846 -16q-111 0 -111 110q0 51 19 117l104 399q29 116 29 174q0 53 -41 91t-109 38q-75 0 -168 -47.5t-168 -126.5l-170 -739h-112l158 695q18 78 18 126q0 44 -17.5 60t-60.5 16q-55 0 -111 -16l11 53q123 59 213 59q51 0 70.5 -28.5t19.5 -83.5l-2 -41h6
q79 73 185.5 119.5t195.5 46.5q90 0 145.5 -54t55.5 -141q0 -54 -25 -158q-100 -390 -109.5 -432t-9.5 -71q0 -68 86 -68q83 0 123 16l-10 -53q-41 -25 -105.5 -43t-109.5 -18zM458 1538l197 -264l315 264l41 -43l-303 -334q-17 -18 -32.5 -26.5t-38.5 -8.5q-42 0 -64 43
l-162 338z" />
    <glyph glyph-name="napostrophe" unicode="&#x149;" horiz-adv-x="1147" 
d="M846 -16q-111 0 -111 110q0 51 19 117l104 399q29 116 29 174q0 53 -41 91t-109 38q-75 0 -168 -47.5t-168 -126.5l-170 -739h-112l158 695q18 78 18 126q0 44 -17.5 60t-60.5 16q-55 0 -111 -16l11 53q123 59 213 59q51 0 70.5 -28.5t19.5 -83.5l-2 -41h6
q79 73 185.5 119.5t195.5 46.5q90 0 145.5 -54t55.5 -141q0 -54 -25 -158q-100 -390 -109.5 -432t-9.5 -71q0 -68 86 -68q83 0 123 16l-10 -53q-41 -25 -105.5 -43t-109.5 -18zM20 1124l68 38q114 65 141 177h-26q-42 0 -69.5 25t-27.5 63q0 47 28 75t71 28q52 0 81 -31.5
t29 -87.5q0 -79 -30 -138t-79 -103t-157 -97z" />
    <glyph glyph-name="Eng" unicode="&#x14a;" horiz-adv-x="1546" 
d="M1362 1206q0 63 -25 90q-26 39 -186 62l12 61h576l-17 -61l-36 -5q-84 -11 -127 -34.5t-70.5 -79t-63.5 -205.5l-233 -1007q-55 -230 -172 -350.5t-289 -120.5q-70 0 -116 34.5t-46 81.5q0 37 22 63.5t64 26.5q30 0 51.5 -12t39.5 -29t34 -37t35 -36q91 5 167 95.5
t120 258.5l-578 1210l-190 -813q-7 -28 -17 -89.5t-10 -96.5q0 -63 25 -90q26 -39 186 -62l-12 -61h-576l17 61l37 5q82 11 126.5 36t71.5 80t62 203l176 758q8 32 8 63q0 35 -29 72t-78.5 56.5t-109.5 23.5l16 61h351l571 -1198l186 799q7 28 17 89.5t10 96.5z" />
    <glyph glyph-name="eng" unicode="&#x14b;" horiz-adv-x="1120" 
d="M807 1006q86 0 142.5 -53t56.5 -140q0 -132 -160 -772q-35 -139 -108.5 -250.5t-168 -173t-184.5 -61.5q-51 0 -86 23t-35 71q0 31 18 53.5t50 22.5q57 0 100 -62l19 -26q95 0 158 88t112 278q95 373 149 643q17 79 17 135q0 57 -42 94t-106 37q-78 0 -165.5 -44.5
t-172.5 -129.5l-170 -739h-112l158 695q18 76 18 110q0 52 -17.5 72t-70.5 20q-45 0 -101 -16l11 53q123 59 213 59q58 0 74 -34t16 -84l-2 -35h6q87 78 192.5 122t190.5 44z" />
    <glyph glyph-name="Omacron" unicode="&#x14c;" horiz-adv-x="1446" 
d="M1425 870q0 -230 -108 -435t-300 -336.5t-388 -131.5q-236 0 -378 157t-142 415q0 237 110.5 448.5t297.5 336t388 124.5q237 0 378.5 -158.5t141.5 -419.5zM1266 911q0 218 -98 338.5t-279 120.5q-131 0 -244.5 -65.5t-197 -186t-132.5 -284.5t-49 -316
q0 -228 97.5 -349.5t279.5 -121.5q176 0 316.5 114t223.5 321t83 429zM600 1645l21 108h643l-21 -108h-643z" />
    <glyph glyph-name="omacron" unicode="&#x14d;" horiz-adv-x="1038" 
d="M971 627q0 -176 -76.5 -332t-205.5 -240t-286 -84q-148 0 -241.5 103t-93.5 276q0 180 77.5 334t205.5 238t280 84q155 0 247.5 -104.5t92.5 -274.5zM844 623q0 154 -60 234.5t-174 80.5q-118 0 -210.5 -70t-148.5 -210.5t-56 -297.5q0 -160 60 -240.5t175 -80.5
q121 0 215.5 76.5t146.5 210t52 297.5zM324 1305l21 108h643l-21 -108h-643z" />
    <glyph glyph-name="Obreve" unicode="&#x14e;" horiz-adv-x="1446" 
d="M1425 870q0 -230 -108 -435t-300 -336.5t-388 -131.5q-236 0 -378 157t-142 415q0 237 110.5 448.5t297.5 336t388 124.5q237 0 378.5 -158.5t141.5 -419.5zM1266 911q0 218 -98 338.5t-279 120.5q-131 0 -244.5 -65.5t-197 -186t-132.5 -284.5t-49 -316
q0 -228 97.5 -349.5t279.5 -121.5q176 0 316.5 114t223.5 321t83 429zM1264 1853q-56 -159 -145 -241t-220 -82q-256 0 -256 328l56 14q15 -115 68 -163t149 -48q65 0 114 20t88 59t91 132z" />
    <glyph glyph-name="obreve" unicode="&#x14f;" horiz-adv-x="1038" 
d="M971 627q0 -176 -76.5 -332t-205.5 -240t-286 -84q-148 0 -241.5 103t-93.5 276q0 180 77.5 334t205.5 238t280 84q155 0 247.5 -104.5t92.5 -274.5zM844 623q0 154 -60 234.5t-174 80.5q-118 0 -210.5 -70t-148.5 -210.5t-56 -297.5q0 -160 60 -240.5t175 -80.5
q121 0 215.5 76.5t146.5 210t52 297.5zM979 1470q-56 -171 -143.5 -259.5t-218.5 -88.5q-254 0 -254 357l49 8q15 -120 69.5 -172.5t151.5 -52.5q96 0 162.5 47.5t132.5 177.5z" />
    <glyph glyph-name="Ohungarumlaut" unicode="&#x150;" horiz-adv-x="1446" 
d="M1425 870q0 -230 -108 -435t-300 -336.5t-388 -131.5q-236 0 -378 157t-142 415q0 237 110.5 448.5t297.5 336t388 124.5q237 0 378.5 -158.5t141.5 -419.5zM1266 911q0 218 -98 338.5t-279 120.5q-131 0 -244.5 -65.5t-197 -186t-132.5 -284.5t-49 -316
q0 -228 97.5 -349.5t279.5 -121.5q176 0 316.5 114t223.5 321t83 429zM686 1518l-28 38q139 154 201.5 217t85.5 79t51 16q26 0 44.5 -20.5t18.5 -49.5q0 -32 -16 -56t-72 -56zM1022 1518l-29 38l129 137q46 52 93 99t68 61.5t48 14.5q26 0 45 -20.5t19 -49.5q0 -32 -16 -56
t-72 -56z" />
    <glyph glyph-name="ohungarumlaut" unicode="&#x151;" horiz-adv-x="1038" 
d="M971 627q0 -176 -76.5 -332t-205.5 -240t-286 -84q-148 0 -241.5 103t-93.5 276q0 180 77.5 334t205.5 238t280 84q155 0 247.5 -104.5t92.5 -274.5zM844 623q0 154 -60 234.5t-174 80.5q-118 0 -210.5 -70t-148.5 -210.5t-56 -297.5q0 -160 60 -240.5t175 -80.5
q121 0 215.5 76.5t146.5 210t52 297.5zM725 1468q0 -37 -23.5 -71t-76.5 -86l-199 -197l-39 27l103 190q40 74 71 121t49 63.5t47 18.5q29 0 48.5 -20t19.5 -46zM1065 1468q0 -37 -23.5 -71t-76.5 -86l-199 -197l-39 27l103 190q40 74 71 121t49 63.5t47 18.5q29 0 48.5 -20
t19.5 -46z" />
    <glyph glyph-name="OE" unicode="&#x152;" horiz-adv-x="1942" 
d="M686 0q-267 0 -422 144t-155 395q0 185 68.5 348t194 282t288 184.5t327.5 65.5h1010l-80 -332h-62q-2 87 -16 135.5t-40 80.5t-64 40.5t-226 8.5h-209l-133 -580h170q87 0 133.5 20t82.5 73.5t65 131.5h63l-122 -534h-62l2 76q0 78 -10 98q-18 35 -59 48t-111 13h-170
l-100 -436q-13 -57 -13 -96q0 -52 43 -72t176 -20q284 0 357 57q83 65 192 275h68l-121 -406h-1065zM737 74q90 0 127 4l287 1253q-76 10 -158 10q-204 0 -370 -106t-261.5 -297t-95.5 -420q0 -215 121.5 -329.5t349.5 -114.5z" />
    <glyph glyph-name="oe" unicode="&#x153;" horiz-adv-x="1581" 
d="M1540 809q0 -182 -179.5 -273t-467.5 -130q0 -340 229 -340q170 0 318 204l49 -34q-80 -119 -191.5 -191t-222.5 -72t-185.5 50t-107.5 149q-74 -97 -174.5 -149t-218.5 -52q-142 0 -231.5 103.5t-89.5 275.5q0 179 75 334t197 238.5t266 83.5q116 0 193 -59.5
t106 -162.5q72 108 176.5 165t229.5 57q110 0 169.5 -53t59.5 -144zM803 623q0 156 -56.5 235.5t-162.5 79.5q-111 0 -198 -71t-139 -210.5t-52 -296.5q0 -162 57 -241.5t164 -79.5q113 0 202 77t137 212.5t48 294.5zM1305 940q-92 0 -178 -62.5t-147.5 -173t-80.5 -235.5
q152 21 233 48t153.5 73t106 102.5t33.5 124.5q0 57 -31 90t-89 33z" />
    <glyph glyph-name="Racute" unicode="&#x154;" horiz-adv-x="1339" 
d="M348 145q0 -51 31 -65q11 -7 67.5 -13t73.5 -6l-16 -61h-516l16 61q110 9 131 21q62 25 80 102l242 1059q4 7 4 35t-13 43.5t-66.5 26t-73.5 10.5h-5l12 61h568q97 0 175 -31.5t121.5 -91.5t43.5 -143q0 -176 -116 -299t-331 -170l131 -251l107 -212q42 -79 80 -105
l26 -20q45 -29 140 -35l-17 -61h-278q-82 203 -237 496l-79 151h-188l-109 -477zM1051 1130q0 102 -62 161t-164 59h-204l-140 -625h164q105 0 200 55t150.5 149t55.5 201zM719 1518l-29 38l78 75l127 124q88 88 109 100.5t45 12.5q26 0 44.5 -20.5t18.5 -49.5
q0 -32 -16 -56t-72 -56z" />
    <glyph glyph-name="racute" unicode="&#x155;" horiz-adv-x="909" 
d="M231 0h-112l151 664q25 100 25 157q0 44 -17.5 60t-60.5 16q-55 0 -111 -16l11 53q123 59 213 59q53 0 69.5 -36t16.5 -89l-2 -47h6q96 84 178 134.5t158 50.5q75 0 109 -34.5t34 -105.5q0 -61 -27.5 -103t-70.5 -42q-44 0 -62 21t-18 49q0 44 41 133q-79 0 -171 -47
t-190 -142zM841 1468q0 -40 -24.5 -74t-135.5 -135l-159 -145l-37 31l117 188q95 154 120.5 177.5t57.5 23.5q29 0 45 -20t16 -46z" />
    <glyph glyph-name="uni0156" unicode="&#x156;" horiz-adv-x="1339" 
d="M348 145q0 -51 31 -65q11 -7 67.5 -13t73.5 -6l-16 -61h-516l16 61q110 9 131 21q62 25 80 102l242 1059q4 7 4 35t-13 43.5t-66.5 26t-73.5 10.5h-5l12 61h568q97 0 175 -31.5t121.5 -91.5t43.5 -143q0 -176 -116 -299t-331 -170l131 -251l107 -212q42 -79 80 -105
l26 -20q45 -29 140 -35l-17 -61h-278q-82 203 -237 496l-79 151h-188l-109 -477zM1051 1130q0 102 -62 161t-164 59h-204l-140 -625h164q105 0 200 55t150.5 149t55.5 201zM487 -444l10 55q83 8 124.5 37t58.5 96h-31q-51 0 -80 24t-29 64q0 47 31.5 74.5t79.5 27.5
q50 0 83.5 -37.5t33.5 -93.5q0 -115 -72.5 -180t-208.5 -67z" />
    <glyph glyph-name="uni0157" unicode="&#x157;" horiz-adv-x="909" 
d="M231 0h-112l151 664q25 100 25 157q0 44 -17.5 60t-60.5 16q-55 0 -111 -16l11 53q123 59 213 59q53 0 69.5 -36t16.5 -89l-2 -47h6q96 84 178 134.5t158 50.5q75 0 109 -34.5t34 -105.5q0 -61 -27.5 -103t-70.5 -42q-44 0 -62 21t-18 49q0 44 41 133q-79 0 -171 -47
t-190 -142zM-8 -444l10 55q83 8 124.5 37t58.5 96h-31q-51 0 -80 24t-29 64q0 47 31.5 74.5t79.5 27.5q50 0 83.5 -37.5t33.5 -93.5q0 -115 -72.5 -180t-208.5 -67z" />
    <glyph glyph-name="Rcaron" unicode="&#x158;" horiz-adv-x="1339" 
d="M348 145q0 -51 31 -65q11 -7 67.5 -13t73.5 -6l-16 -61h-516l16 61q110 9 131 21q62 25 80 102l242 1059q4 7 4 35t-13 43.5t-66.5 26t-73.5 10.5h-5l12 61h568q97 0 175 -31.5t121.5 -91.5t43.5 -143q0 -176 -116 -299t-331 -170l131 -251l107 -212q42 -79 80 -105
l26 -20q45 -29 140 -35l-17 -61h-278q-82 203 -237 496l-79 151h-188l-109 -477zM1051 1130q0 102 -62 161t-164 59h-204l-140 -625h164q105 0 200 55t150.5 149t55.5 201zM1155 1837l-289 -285q-24 -22 -38.5 -33.5t-61.5 -11.5q-41 0 -55.5 13.5t-24.5 27.5l-180 289
l49 33l233 -213l322 213z" />
    <glyph glyph-name="rcaron" unicode="&#x159;" horiz-adv-x="909" 
d="M231 0h-112l151 664q25 100 25 157q0 44 -17.5 60t-60.5 16q-55 0 -111 -16l11 53q123 59 213 59q53 0 69.5 -36t16.5 -89l-2 -47h6q96 84 178 134.5t158 50.5q75 0 109 -34.5t34 -105.5q0 -61 -27.5 -103t-70.5 -42q-44 0 -62 21t-18 49q0 44 41 133q-79 0 -171 -47
t-190 -142zM335 1538l197 -264l315 264l41 -43l-303 -334q-17 -18 -32.5 -26.5t-38.5 -8.5q-42 0 -64 43l-162 338z" />
    <glyph glyph-name="Sacute" unicode="&#x15a;" horiz-adv-x="1102" 
d="M504 -23q-129 0 -220.5 25.5t-160.5 79.5l-47 -82h-66l90 471h70q4 -159 41 -246.5t113 -132.5t198 -45q163 0 260 94t97 250q0 79 -39 138.5t-101 86.5q-58 26 -152 60q-156 54 -218.5 101.5t-94.5 111.5t-32 139q0 116 65 211.5t176 151t228 55.5q194 0 329 -98l43 71
h68l-98 -465h-68v21q0 168 -29.5 244t-95 115.5t-180.5 39.5q-130 0 -217.5 -85t-87.5 -216q0 -139 96 -199q60 -34 150 -65q143 -50 206 -85.5t101 -75t61 -92.5t23 -124q0 -123 -70.5 -227.5t-190 -166t-247.5 -61.5zM643 1518l-29 38l78 75l127 124q88 88 109 100.5
t45 12.5q26 0 44.5 -20.5t18.5 -49.5q0 -32 -16 -56t-72 -56z" />
    <glyph glyph-name="sacute" unicode="&#x15b;" horiz-adv-x="834" 
d="M246 754q0 -66 44.5 -109.5t153.5 -81.5q160 -55 220.5 -112t60.5 -140q0 -149 -106 -243.5t-275 -94.5q-137 0 -230.5 54.5t-93.5 130.5q0 40 22 63t56 23q39 0 65 -39t34 -113q64 -49 186 -49q108 0 176 58.5t68 150.5q0 68 -55.5 115t-155.5 82q-138 43 -200 104.5
t-62 144.5q0 82 47.5 153t132.5 113t182 42q116 0 196.5 -41t80.5 -103q0 -35 -17.5 -59.5t-52.5 -24.5q-42 0 -70 31.5t-49 108.5q-52 18 -121 18q-103 0 -170 -51.5t-67 -130.5zM798 1468q0 -40 -24.5 -74t-135.5 -135l-159 -145l-37 31l117 188q95 154 120.5 177.5
t57.5 23.5q29 0 45 -20t16 -46z" />
    <glyph glyph-name="Scircumflex" unicode="&#x15c;" horiz-adv-x="1102" 
d="M504 -23q-129 0 -220.5 25.5t-160.5 79.5l-47 -82h-66l90 471h70q4 -159 41 -246.5t113 -132.5t198 -45q163 0 260 94t97 250q0 79 -39 138.5t-101 86.5q-58 26 -152 60q-156 54 -218.5 101.5t-94.5 111.5t-32 139q0 116 65 211.5t176 151t228 55.5q194 0 329 -98l43 71
h68l-98 -465h-68v21q0 168 -29.5 244t-95 115.5t-180.5 39.5q-130 0 -217.5 -85t-87.5 -216q0 -139 96 -199q60 -34 150 -65q143 -50 206 -85.5t101 -75t61 -92.5t23 -124q0 -123 -70.5 -227.5t-190 -166t-247.5 -61.5zM1053 1538l-49 -31l-236 211l-319 -211l-47 31
l291 285q18 18 39.5 31.5t60.5 13.5q43 0 57.5 -13.5t22.5 -27.5z" />
    <glyph glyph-name="scircumflex" unicode="&#x15d;" horiz-adv-x="834" 
d="M246 754q0 -66 44.5 -109.5t153.5 -81.5q160 -55 220.5 -112t60.5 -140q0 -149 -106 -243.5t-275 -94.5q-137 0 -230.5 54.5t-93.5 130.5q0 40 22 63t56 23q39 0 65 -39t34 -113q64 -49 186 -49q108 0 176 58.5t68 150.5q0 68 -55.5 115t-155.5 82q-138 43 -200 104.5
t-62 144.5q0 82 47.5 153t132.5 113t182 42q116 0 196.5 -41t80.5 -103q0 -35 -17.5 -59.5t-52.5 -24.5q-42 0 -70 31.5t-49 108.5q-52 18 -121 18q-103 0 -170 -51.5t-67 -130.5zM780 1126l-197 265l-315 -265l-41 43l303 334q31 35 72 35q43 0 63 -43l162 -338z" />
    <glyph glyph-name="Scedilla" unicode="&#x15e;" horiz-adv-x="1102" 
d="M504 -23q-129 0 -220.5 25.5t-160.5 79.5l-47 -82h-66l90 471h70q4 -159 41 -246.5t113 -132.5t198 -45q163 0 260 94t97 250q0 79 -39 138.5t-101 86.5q-58 26 -152 60q-156 54 -218.5 101.5t-94.5 111.5t-32 139q0 116 65 211.5t176 151t228 55.5q194 0 329 -98l43 71
h68l-98 -465h-68v21q0 168 -29.5 244t-95 115.5t-180.5 39.5q-130 0 -217.5 -85t-87.5 -216q0 -139 96 -199q60 -34 150 -65q143 -50 206 -85.5t101 -75t61 -92.5t23 -124q0 -123 -70.5 -227.5t-190 -166t-247.5 -61.5zM658 -242q0 -202 -412 -202l14 69q131 0 206 27t75 72
q0 40 -37.5 58.5t-118.5 18.5l41 215h72l-23 -118q183 -11 183 -140z" />
    <glyph glyph-name="scedilla" unicode="&#x15f;" horiz-adv-x="834" 
d="M246 754q0 -66 44.5 -109.5t153.5 -81.5q160 -55 220.5 -112t60.5 -140q0 -149 -106 -243.5t-275 -94.5q-137 0 -230.5 54.5t-93.5 130.5q0 40 22 63t56 23q39 0 65 -39t34 -113q64 -49 186 -49q108 0 176 58.5t68 150.5q0 68 -55.5 115t-155.5 82q-138 43 -200 104.5
t-62 144.5q0 82 47.5 153t132.5 113t182 42q116 0 196.5 -41t80.5 -103q0 -35 -17.5 -59.5t-52.5 -24.5q-42 0 -70 31.5t-49 108.5q-52 18 -121 18q-103 0 -170 -51.5t-67 -130.5zM547 -242q0 -202 -412 -202l14 69q131 0 206 27t75 72q0 40 -37.5 58.5t-118.5 18.5l41 215
h72l-23 -118q183 -11 183 -140z" />
    <glyph glyph-name="Scaron" unicode="&#x160;" horiz-adv-x="1102" 
d="M504 -23q-129 0 -220.5 25.5t-160.5 79.5l-47 -82h-66l90 471h70q4 -159 41 -246.5t113 -132.5t198 -45q163 0 260 94t97 250q0 79 -39 138.5t-101 86.5q-58 26 -152 60q-156 54 -218.5 101.5t-94.5 111.5t-32 139q0 116 65 211.5t176 151t228 55.5q194 0 329 -98l43 71
h68l-98 -465h-68v21q0 168 -29.5 244t-95 115.5t-180.5 39.5q-130 0 -217.5 -85t-87.5 -216q0 -139 96 -199q60 -34 150 -65q143 -50 206 -85.5t101 -75t61 -92.5t23 -124q0 -123 -70.5 -227.5t-190 -166t-247.5 -61.5zM1118 1837l-289 -285q-24 -22 -38.5 -33.5
t-61.5 -11.5q-41 0 -55.5 13.5t-24.5 27.5l-180 289l49 33l233 -213l322 213z" />
    <glyph glyph-name="scaron" unicode="&#x161;" horiz-adv-x="834" 
d="M246 754q0 -66 44.5 -109.5t153.5 -81.5q160 -55 220.5 -112t60.5 -140q0 -149 -106 -243.5t-275 -94.5q-137 0 -230.5 54.5t-93.5 130.5q0 40 22 63t56 23q39 0 65 -39t34 -113q64 -49 186 -49q108 0 176 58.5t68 150.5q0 68 -55.5 115t-155.5 82q-138 43 -200 104.5
t-62 144.5q0 82 47.5 153t132.5 113t182 42q116 0 196.5 -41t80.5 -103q0 -35 -17.5 -59.5t-52.5 -24.5q-42 0 -70 31.5t-49 108.5q-52 18 -121 18q-103 0 -170 -51.5t-67 -130.5zM350 1538l197 -264l315 264l41 -43l-303 -334q-17 -18 -32.5 -26.5t-38.5 -8.5q-42 0 -64 43
l-162 338z" />
    <glyph glyph-name="uni0162" unicode="&#x162;" horiz-adv-x="1241" 
d="M739 1352h-61q-130 0 -188.5 -8.5t-113 -50t-99.5 -106t-74 -143.5h-70l88 375h1204l-84 -375h-65v14q0 104 -24 174t-65 95t-239 25h-67l-260 -1131q-11 -38 -11 -71q0 -47 61 -66t144 -23l-12 -61h-606l12 61l40 3q108 6 142 18q59 22 76 94zM697 -242
q0 -202 -412 -202l14 69q131 0 206 27t75 72q0 40 -37.5 58.5t-118.5 18.5l41 215h72l-23 -118q183 -11 183 -140z" />
    <glyph glyph-name="uni0163" unicode="&#x163;" horiz-adv-x="639" 
d="M244 176q0 -49 24.5 -70.5t83.5 -21.5q85 0 160 20l-12 -61q-115 -59 -230 -59q-68 0 -110.5 39t-42.5 104q0 53 14 115l154 655h-174l18 84h176l70 287h108l-65 -287h282l-18 -84h-285l-129 -561q-24 -98 -24 -160zM432 -242q0 -202 -412 -202l14 69q131 0 206 27t75 72
q0 40 -37.5 58.5t-118.5 18.5l41 215h72l-23 -118q183 -11 183 -140z" />
    <glyph glyph-name="Tcaron" unicode="&#x164;" horiz-adv-x="1241" 
d="M739 1352h-61q-130 0 -188.5 -8.5t-113 -50t-99.5 -106t-74 -143.5h-70l88 375h1204l-84 -375h-65v14q0 104 -24 174t-65 95t-239 25h-67l-260 -1131q-11 -38 -11 -71q0 -47 61 -66t144 -23l-12 -61h-606l12 61l40 3q108 6 142 18q59 22 76 94zM1219 1837l-289 -285
q-24 -22 -38.5 -33.5t-61.5 -11.5q-41 0 -55.5 13.5t-24.5 27.5l-180 289l49 33l233 -213l322 213z" />
    <glyph glyph-name="tcaron" unicode="&#x165;" horiz-adv-x="655" 
d="M244 176q0 -49 24.5 -70.5t83.5 -21.5q85 0 160 20l-12 -61q-115 -59 -230 -59q-68 0 -110.5 39t-42.5 104q0 53 14 115l154 655h-174l18 84h176l70 287h108l-65 -287h282l-18 -84h-285l-129 -561q-24 -98 -24 -160zM585 1130l68 38q114 65 141 177h-26q-42 0 -69.5 25
t-27.5 63q0 47 28 75t71 28q52 0 81 -31.5t29 -87.5q0 -79 -30 -138t-79 -103t-157 -97z" />
    <glyph glyph-name="Tbar" unicode="&#x166;" horiz-adv-x="1241" 
d="M590 700h-311l18 78h309l133 574h-61q-130 0 -188.5 -8.5t-113 -50t-99.5 -106t-74 -143.5h-70l88 375h1204l-84 -375h-65v14q0 104 -24 174t-65 95t-239 25h-67l-133 -574h319l-18 -78h-318l-110 -479q-11 -38 -11 -71q0 -47 61 -66t144 -23l-12 -61h-606l12 61l40 3
q108 6 142 18q59 22 76 94z" />
    <glyph glyph-name="tbar" unicode="&#x167;" horiz-adv-x="639" 
d="M244 176q0 -49 24.5 -70.5t83.5 -21.5q85 0 160 20l-12 -61q-115 -59 -230 -59q-68 0 -110.5 39t-42.5 104q0 53 14 115l59 247h-170l17 72h170l78 336h-174l18 84h176l70 287h108l-65 -287h282l-18 -84h-285l-78 -336h238l-18 -72h-236q-49 -214 -54 -250t-5 -63z" />
    <glyph glyph-name="Utilde" unicode="&#x168;" horiz-adv-x="1597" 
d="M657 -33q-125 0 -227.5 43t-159.5 116.5t-57 160.5q0 57 18 131l191 815q6 30 6 51q0 31 -51 49t-109 25l13 61h501l-14 -61q-105 -10 -148.5 -33.5t-58.5 -91.5l-192 -838q-13 -48 -13 -100q0 -64 39 -117t111.5 -85t175.5 -32q192 0 323.5 87t172.5 239q24 87 98 416.5
t74 402.5q0 63 -25 90q-13 20 -64.5 37.5t-121.5 24.5l12 61h575l-16 -61l-33 -5q-90 -12 -133 -36.5t-68.5 -78.5t-58.5 -196l-47 -222q-22 -99 -98 -417q-55 -211 -214 -323.5t-401 -112.5zM1366 1831q-36 -102 -97 -157.5t-137 -54.5q-50 -1 -86.5 14.5t-67 34t-60 34
t-64.5 16.5q-40 -1 -68.5 -27t-71.5 -102l-53 22q41 88 72.5 128.5t70 63t84.5 22.5q47 0 83.5 -15.5t67.5 -34.5t59 -34.5t59 -15.5q52 0 83.5 26.5t69.5 104.5z" />
    <glyph glyph-name="utilde" unicode="&#x169;" horiz-adv-x="1106" 
d="M809 -14q-52 0 -81.5 30.5t-29.5 85.5l2 27h-6q-113 -89 -191 -120.5t-159 -31.5q-91 0 -149 53.5t-58 143.5q0 57 23 156l78 334q26 121 26 161q0 35 -16 53.5t-60 18.5q-36 0 -116 -20l14 53q126 63 207 63q98 0 98 -100q0 -59 -20 -139l-86 -383q-27 -108 -27 -166
q0 -60 41 -96.5t111 -36.5q68 0 158.5 46.5t158.5 114.5l176 746l103 10l12 -14l-158 -658q-5 -24 -10.5 -48.5t-10 -46.5t-7.5 -40.5t-3 -29.5q0 -42 26.5 -56t80.5 -14q15 0 48.5 4t49.5 10l-10 -51q-116 -59 -215 -59zM1032 1460q-36 -102 -97 -157.5t-137 -54.5
q-50 -1 -86.5 14.5t-67 34t-60 34t-64.5 16.5q-40 -1 -68.5 -27t-71.5 -102l-53 22q41 88 72.5 128.5t70 63t84.5 22.5q47 0 83.5 -15.5t67.5 -34.5t59 -34.5t59 -15.5q52 0 83.5 26.5t69.5 104.5z" />
    <glyph glyph-name="Umacron" unicode="&#x16a;" horiz-adv-x="1597" 
d="M657 -33q-125 0 -227.5 43t-159.5 116.5t-57 160.5q0 57 18 131l191 815q6 30 6 51q0 31 -51 49t-109 25l13 61h501l-14 -61q-105 -10 -148.5 -33.5t-58.5 -91.5l-192 -838q-13 -48 -13 -100q0 -64 39 -117t111.5 -85t175.5 -32q192 0 323.5 87t172.5 239q24 87 98 416.5
t74 402.5q0 63 -25 90q-13 20 -64.5 37.5t-121.5 24.5l12 61h575l-16 -61l-33 -5q-90 -12 -133 -36.5t-68.5 -78.5t-58.5 -196l-47 -222q-22 -99 -98 -417q-55 -211 -214 -323.5t-401 -112.5zM674 1645l21 108h643l-21 -108h-643z" />
    <glyph glyph-name="umacron" unicode="&#x16b;" horiz-adv-x="1106" 
d="M809 -14q-52 0 -81.5 30.5t-29.5 85.5l2 27h-6q-113 -89 -191 -120.5t-159 -31.5q-91 0 -149 53.5t-58 143.5q0 57 23 156l78 334q26 121 26 161q0 35 -16 53.5t-60 18.5q-36 0 -116 -20l14 53q126 63 207 63q98 0 98 -100q0 -59 -20 -139l-86 -383q-27 -108 -27 -166
q0 -60 41 -96.5t111 -36.5q68 0 158.5 46.5t158.5 114.5l176 746l103 10l12 -14l-158 -658q-5 -24 -10.5 -48.5t-10 -46.5t-7.5 -40.5t-3 -29.5q0 -42 26.5 -56t80.5 -14q15 0 48.5 4t49.5 10l-10 -51q-116 -59 -215 -59zM360 1305l21 108h643l-21 -108h-643z" />
    <glyph glyph-name="Ubreve" unicode="&#x16c;" horiz-adv-x="1597" 
d="M657 -33q-125 0 -227.5 43t-159.5 116.5t-57 160.5q0 57 18 131l191 815q6 30 6 51q0 31 -51 49t-109 25l13 61h501l-14 -61q-105 -10 -148.5 -33.5t-58.5 -91.5l-192 -838q-13 -48 -13 -100q0 -64 39 -117t111.5 -85t175.5 -32q192 0 323.5 87t172.5 239q24 87 98 416.5
t74 402.5q0 63 -25 90q-13 20 -64.5 37.5t-121.5 24.5l12 61h575l-16 -61l-33 -5q-90 -12 -133 -36.5t-68.5 -78.5t-58.5 -196l-47 -222q-22 -99 -98 -417q-55 -211 -214 -323.5t-401 -112.5zM1341 1853q-56 -159 -145 -241t-220 -82q-256 0 -256 328l56 14q15 -115 68 -163
t149 -48q65 0 114 20t88 59t91 132z" />
    <glyph glyph-name="ubreve" unicode="&#x16d;" horiz-adv-x="1106" 
d="M809 -14q-52 0 -81.5 30.5t-29.5 85.5l2 27h-6q-113 -89 -191 -120.5t-159 -31.5q-91 0 -149 53.5t-58 143.5q0 57 23 156l78 334q26 121 26 161q0 35 -16 53.5t-60 18.5q-36 0 -116 -20l14 53q126 63 207 63q98 0 98 -100q0 -59 -20 -139l-86 -383q-27 -108 -27 -166
q0 -60 41 -96.5t111 -36.5q68 0 158.5 46.5t158.5 114.5l176 746l103 10l12 -14l-158 -658q-5 -24 -10.5 -48.5t-10 -46.5t-7.5 -40.5t-3 -29.5q0 -42 26.5 -56t80.5 -14q15 0 48.5 4t49.5 10l-10 -51q-116 -59 -215 -59zM995 1470q-56 -171 -143.5 -259.5t-218.5 -88.5
q-254 0 -254 357l49 8q15 -120 69.5 -172.5t151.5 -52.5q96 0 162.5 47.5t132.5 177.5z" />
    <glyph glyph-name="Uring" unicode="&#x16e;" horiz-adv-x="1597" 
d="M657 -33q-125 0 -227.5 43t-159.5 116.5t-57 160.5q0 57 18 131l191 815q6 30 6 51q0 31 -51 49t-109 25l13 61h501l-14 -61q-105 -10 -148.5 -33.5t-58.5 -91.5l-192 -838q-13 -48 -13 -100q0 -64 39 -117t111.5 -85t175.5 -32q192 0 323.5 87t172.5 239q24 87 98 416.5
t74 402.5q0 63 -25 90q-13 20 -64.5 37.5t-121.5 24.5l12 61h575l-16 -61l-33 -5q-90 -12 -133 -36.5t-68.5 -78.5t-58.5 -196l-47 -222q-22 -99 -98 -417q-55 -211 -214 -323.5t-401 -112.5zM956 1427q-100 0 -159.5 48t-59.5 128q0 108 77.5 183t200.5 75q98 0 157.5 -51
t59.5 -133q0 -68 -34.5 -126t-98 -91t-143.5 -33zM1118 1675q0 56 -28.5 91.5t-82.5 35.5q-71 0 -115.5 -56t-44.5 -139q0 -54 30 -87t83 -33q70 0 114 52.5t44 135.5z" />
    <glyph glyph-name="uring" unicode="&#x16f;" horiz-adv-x="1106" 
d="M809 -14q-52 0 -81.5 30.5t-29.5 85.5l2 27h-6q-113 -89 -191 -120.5t-159 -31.5q-91 0 -149 53.5t-58 143.5q0 57 23 156l78 334q26 121 26 161q0 35 -16 53.5t-60 18.5q-36 0 -116 -20l14 53q126 63 207 63q98 0 98 -100q0 -59 -20 -139l-86 -383q-27 -108 -27 -166
q0 -60 41 -96.5t111 -36.5q68 0 158.5 46.5t158.5 114.5l176 746l103 10l12 -14l-158 -658q-5 -24 -10.5 -48.5t-10 -46.5t-7.5 -40.5t-3 -29.5q0 -42 26.5 -56t80.5 -14q15 0 48.5 4t49.5 10l-10 -51q-116 -59 -215 -59zM643 1120q-100 0 -159.5 48t-59.5 128
q0 108 77.5 183t200.5 75q98 0 157.5 -51t59.5 -133q0 -68 -34.5 -126t-98 -91t-143.5 -33zM805 1368q0 56 -28.5 91.5t-82.5 35.5q-71 0 -115.5 -56t-44.5 -139q0 -54 30 -87t83 -33q70 0 114 52.5t44 135.5z" />
    <glyph glyph-name="Uhungarumlaut" unicode="&#x170;" horiz-adv-x="1597" 
d="M657 -33q-125 0 -227.5 43t-159.5 116.5t-57 160.5q0 57 18 131l191 815q6 30 6 51q0 31 -51 49t-109 25l13 61h501l-14 -61q-105 -10 -148.5 -33.5t-58.5 -91.5l-192 -838q-13 -48 -13 -100q0 -64 39 -117t111.5 -85t175.5 -32q192 0 323.5 87t172.5 239q24 87 98 416.5
t74 402.5q0 63 -25 90q-13 20 -64.5 37.5t-121.5 24.5l12 61h575l-16 -61l-33 -5q-90 -12 -133 -36.5t-68.5 -78.5t-58.5 -196l-47 -222q-22 -99 -98 -417q-55 -211 -214 -323.5t-401 -112.5zM739 1518l-28 38q139 154 201.5 217t85.5 79t51 16q26 0 44.5 -20.5t18.5 -49.5
q0 -32 -16 -56t-72 -56zM1075 1518l-29 38l129 137q46 52 93 99t68 61.5t48 14.5q26 0 45 -20.5t19 -49.5q0 -32 -16 -56t-72 -56z" />
    <glyph glyph-name="uhungarumlaut" unicode="&#x171;" horiz-adv-x="1106" 
d="M809 -14q-52 0 -81.5 30.5t-29.5 85.5l2 27h-6q-113 -89 -191 -120.5t-159 -31.5q-91 0 -149 53.5t-58 143.5q0 57 23 156l78 334q26 121 26 161q0 35 -16 53.5t-60 18.5q-36 0 -116 -20l14 53q126 63 207 63q98 0 98 -100q0 -59 -20 -139l-86 -383q-27 -108 -27 -166
q0 -60 41 -96.5t111 -36.5q68 0 158.5 46.5t158.5 114.5l176 746l103 10l12 -14l-158 -658q-5 -24 -10.5 -48.5t-10 -46.5t-7.5 -40.5t-3 -29.5q0 -42 26.5 -56t80.5 -14q15 0 48.5 4t49.5 10l-10 -51q-116 -59 -215 -59zM750 1468q0 -37 -23.5 -71t-76.5 -86l-199 -197
l-39 27l103 190q40 74 71 121t49 63.5t47 18.5q29 0 48.5 -20t19.5 -46zM1090 1468q0 -37 -23.5 -71t-76.5 -86l-199 -197l-39 27l103 190q40 74 71 121t49 63.5t47 18.5q29 0 48.5 -20t19.5 -46z" />
    <glyph glyph-name="Uogonek" unicode="&#x172;" horiz-adv-x="1597" 
d="M657 -33q-125 0 -227.5 43t-159.5 116.5t-57 160.5q0 57 18 131l191 815q6 30 6 51q0 31 -51 49t-109 25l13 61h501l-14 -61q-105 -10 -148.5 -33.5t-58.5 -91.5l-192 -838q-13 -48 -13 -100q0 -64 39 -117t111.5 -85t175.5 -32q192 0 323.5 87t172.5 239q24 87 98 416.5
t74 402.5q0 63 -25 90q-13 20 -64.5 37.5t-121.5 24.5l12 61h575l-16 -61l-33 -5q-90 -12 -133 -36.5t-68.5 -78.5t-58.5 -196l-47 -222q-22 -99 -98 -417q-55 -211 -214 -323.5t-401 -112.5zM842 -444q-113 0 -175.5 41.5t-62.5 113.5q0 82 76.5 168t218.5 160h53
q-102 -64 -157.5 -141t-55.5 -150q0 -64 49 -92.5t156 -30.5l-12 -69h-90z" />
    <glyph glyph-name="uogonek" unicode="&#x173;" horiz-adv-x="1106" 
d="M809 -14q-52 0 -81.5 30.5t-29.5 85.5l2 27h-6q-113 -89 -191 -120.5t-159 -31.5q-91 0 -149 53.5t-58 143.5q0 57 23 156l78 334q26 121 26 161q0 35 -16 53.5t-60 18.5q-36 0 -116 -20l14 53q126 63 207 63q98 0 98 -100q0 -59 -20 -139l-86 -383q-27 -108 -27 -166
q0 -60 41 -96.5t111 -36.5q68 0 158.5 46.5t158.5 114.5l176 746l103 10l12 -14l-158 -658q-5 -24 -10.5 -48.5t-10 -46.5t-7.5 -40.5t-3 -29.5q0 -42 26.5 -56t80.5 -14q15 0 48.5 4t49.5 10l-10 -51q-116 -59 -215 -59zM758 -444q-113 0 -175.5 41.5t-62.5 113.5
q0 82 76.5 168t218.5 160h53q-102 -64 -157.5 -141t-55.5 -150q0 -64 49 -92.5t156 -30.5l-12 -69h-90z" />
    <glyph glyph-name="Wcircumflex" unicode="&#x174;" horiz-adv-x="1886" 
d="M1235 -20h-33l-133 1128l-661 -1128h-31q-17 915 -33 1230q-5 70 -23.5 95.5t-54 39t-65.5 13.5l12 61h485l-12 -61q-203 0 -203 -66v-62l2 -91l27 -826l635 1076h31l135 -1092q185 365 385 784q43 97 57 138t14 65q0 62 -161 74l12 61h494l-13 -61q-53 0 -127 -37
q-74 -46 -123 -137zM1501 1538l-49 -31l-236 211l-319 -211l-47 31l291 285q18 18 39.5 31.5t60.5 13.5q43 0 57.5 -13.5t22.5 -27.5z" />
    <glyph glyph-name="wcircumflex" unicode="&#x175;" horiz-adv-x="1595" 
d="M950 -29q-96 0 -156.5 47t-82.5 136h-6q-114 -93 -161.5 -120t-96.5 -42t-103 -15q-91 0 -149 53.5t-58 143.5q0 57 23 156l78 334q26 121 26 161q0 35 -16 53.5t-60 18.5q-36 0 -116 -20l14 53q126 63 207 63q98 0 98 -100q0 -59 -20 -139l-86 -383q-27 -108 -27 -166
q0 -60 41 -96.5t111 -36.5q66 0 147.5 46t149.5 115l176 746l102 10l12 -14l-155 -643q-17 -68 -17 -121q0 -65 44 -102t124 -37q92 0 170.5 47.5t140.5 135t103 209t41 210.5q0 52 -12 84.5t-26 57t-26 48.5t-12 60q0 32 22 57t62 25q88 0 88 -154q0 -224 -82.5 -431.5
t-218.5 -328.5t-293 -121zM1217 1126l-197 265l-315 -265l-41 43l303 334q31 35 72 35q43 0 63 -43l162 -338z" />
    <glyph glyph-name="Ycircumflex" unicode="&#x176;" horiz-adv-x="1180" 
d="M567 143q0 -30 40.5 -50t166.5 -32l-12 -61h-606l12 61l40 3q108 6 144 18q57 22 74 94l72 307q14 63 14 82q0 57 -58 249.5t-122 377.5q-31 87 -56.5 114.5t-53.5 37.5t-68 14l16 61h473l-14 -61l-54 -3q-116 -6 -116 -50q0 -55 176 -621q67 82 136 166t130.5 159.5
t111 137.5t77.5 100q16 23 16 45q0 55 -116 62l-60 4l16 61h486l-17 -61q-63 -9 -101 -25.5t-80 -57t-167 -183.5t-237 -283t-135.5 -176t-36 -73t-80.5 -347q-11 -41 -11 -70zM1122 1538l-49 -31l-236 211l-319 -211l-47 31l291 285q18 18 39.5 31.5t60.5 13.5
q43 0 57.5 -13.5t22.5 -27.5z" />
    <glyph glyph-name="ycircumflex" unicode="&#x177;" horiz-adv-x="1075" 
d="M707 137q-113 -89 -196 -124.5t-167 -35.5q-91 0 -149 53.5t-58 143.5q0 57 23 156l78 334q26 121 26 161q0 35 -16 53.5t-60 18.5q-36 0 -116 -20l14 53q126 63 207 63q98 0 98 -100q0 -59 -20 -139l-86 -383q-27 -108 -27 -166q0 -60 41 -96.5t111 -36.5t163.5 45.5
t159.5 111.5l172 750l101 10l10 -12l-170 -766q-58 -264 -136.5 -397t-201.5 -195.5t-307 -62.5q-199 0 -199 118q0 40 20 62t54 22q64 0 106 -97l19 -46h22q190 0 316 133t176 389h-8zM901 1126l-197 265l-315 -265l-41 43l303 334q31 35 72 35q43 0 63 -43l162 -338z" />
    <glyph glyph-name="Ydieresis" unicode="&#x178;" horiz-adv-x="1180" 
d="M567 143q0 -30 40.5 -50t166.5 -32l-12 -61h-606l12 61l40 3q108 6 144 18q57 22 74 94l72 307q14 63 14 82q0 57 -58 249.5t-122 377.5q-31 87 -56.5 114.5t-53.5 37.5t-68 14l16 61h473l-14 -61l-54 -3q-116 -6 -116 -50q0 -55 176 -621q67 82 136 166t130.5 159.5
t111 137.5t77.5 100q16 23 16 45q0 55 -116 62l-60 4l16 61h486l-17 -61q-63 -9 -101 -25.5t-80 -57t-167 -183.5t-237 -283t-135.5 -176t-36 -73t-80.5 -347q-11 -41 -11 -70zM731 1745q0 -42 -23 -71t-65 -29t-65 29t-23 71q0 43 23 72.5t65 29.5t65 -29.5t23 -72.5z
M1139 1745q0 -42 -23 -71t-65 -29t-65 29t-23 71q0 43 23 72.5t65 29.5t65 -29.5t23 -72.5z" />
    <glyph glyph-name="Zacute" unicode="&#x179;" horiz-adv-x="1184" 
d="M1001 0h-1087l6 20l1206 1330h-364q-115 0 -182 -9q-88 -13 -182 -103t-146 -204h-64l129 385h1022l-6 -20l-1204 -1329h322q108 0 226 13.5t148 35.5q52 37 108.5 100.5t100.5 132.5l47 72h66zM729 1518l-29 38l78 75l127 124q88 88 109 100.5t45 12.5q26 0 44.5 -20.5
t18.5 -49.5q0 -32 -16 -56t-72 -56z" />
    <glyph glyph-name="zacute" unicode="&#x17a;" horiz-adv-x="874" 
d="M133 78q132 -2 172 -2q145 0 244 6q42 0 72 35.5t71 129.5l43 93h53l-65 -340h-750l15 61l745 840h-174q-111 0 -175 -8t-87 -26.5t-48 -65.5t-54 -117h-56l58 295h704l-10 -51zM829 1468q0 -40 -24.5 -74t-135.5 -135l-159 -145l-37 31l117 188q95 154 120.5 177.5
t57.5 23.5q29 0 45 -20t16 -46z" />
    <glyph glyph-name="Zdotaccent" unicode="&#x17b;" horiz-adv-x="1184" 
d="M1001 0h-1087l6 20l1206 1330h-364q-115 0 -182 -9q-88 -13 -182 -103t-146 -204h-64l129 385h1022l-6 -20l-1204 -1329h322q108 0 226 13.5t148 35.5q52 37 108.5 100.5t100.5 132.5l47 72h66zM805 1628q-76 0 -76 88q0 53 27.5 85t66.5 32q78 0 78 -88q0 -51 -28 -84
t-68 -33z" />
    <glyph glyph-name="zdotaccent" unicode="&#x17c;" horiz-adv-x="874" 
d="M133 78q132 -2 172 -2q145 0 244 6q42 0 72 35.5t71 129.5l43 93h53l-65 -340h-750l15 61l745 840h-174q-111 0 -175 -8t-87 -26.5t-48 -65.5t-54 -117h-56l58 295h704l-10 -51zM570 1284q-76 0 -76 88q0 53 27.5 85t66.5 32q78 0 78 -88q0 -51 -28 -84t-68 -33z" />
    <glyph glyph-name="Zcaron" unicode="&#x17d;" horiz-adv-x="1184" 
d="M1001 0h-1087l6 20l1206 1330h-364q-115 0 -182 -9q-88 -13 -182 -103t-146 -204h-64l129 385h1022l-6 -20l-1204 -1329h322q108 0 226 13.5t148 35.5q52 37 108.5 100.5t100.5 132.5l47 72h66zM1159 1837l-289 -285q-24 -22 -38.5 -33.5t-61.5 -11.5q-41 0 -55.5 13.5
t-24.5 27.5l-180 289l49 33l233 -213l322 213z" />
    <glyph glyph-name="zcaron" unicode="&#x17e;" horiz-adv-x="874" 
d="M133 78q132 -2 172 -2q145 0 244 6q42 0 72 35.5t71 129.5l43 93h53l-65 -340h-750l15 61l745 840h-174q-111 0 -175 -8t-87 -26.5t-48 -65.5t-54 -117h-56l58 295h704l-10 -51zM358 1538l197 -264l315 264l41 -43l-303 -334q-17 -18 -32.5 -26.5t-38.5 -8.5
q-42 0 -64 43l-162 338z" />
    <glyph glyph-name="longs" unicode="&#x17f;" horiz-adv-x="545" 
d="M-281 -444q-51 0 -84.5 26.5t-33.5 67.5q0 29 18 52.5t62 23.5q28 0 52 -16t64 -72q93 5 161 103t108 282l215 1009q50 231 180 373.5t297 142.5q50 0 84.5 -23t34.5 -61q0 -35 -20.5 -60.5t-55.5 -25.5q-42 0 -73 27.5t-56 64.5q-92 -4 -161 -108t-108 -291l-215 -1012
q-30 -141 -99 -256t-165.5 -181t-204.5 -66z" />
    <glyph glyph-name="florin" unicode="&#x192;" horiz-adv-x="1004" 
d="M1102 1184q0 -32 -20 -56t-58 -24q-85 0 -137 139q-104 -4 -179 -115.5t-114 -312.5l-23 -113h254l-18 -79h-250q-50 -304 -90 -462t-89.5 -258t-111 -162t-129.5 -86t-139 -24q-79 0 -123.5 31.5t-44.5 81.5q0 35 20.5 59.5t55.5 24.5q37 0 67 -27t68 -108
q191 4 285 399q37 160 60.5 290t45.5 241h-205l19 79h203q49 230 111.5 346t158.5 186.5t215 70.5q80 0 124 -31.5t44 -89.5z" />
    <glyph glyph-name="Aringacute" unicode="&#x1fa;" horiz-adv-x="1284" 
d="M1004 1647q66 -17 104.5 -63t38.5 -111q0 -88 -56 -155t-147 -87l148 -1018q12 -78 63 -113t107 -39l-13 -61h-489l12 61q95 12 126 20.5t47 23t16 38.5q0 34 -9 95l-32 264h-531l-143 -238q-51 -92 -51 -125q0 -31 50.5 -52.5t133.5 -25.5l-12 -61h-519l13 61
q87 7 151.5 50.5t112.5 126.5l641 1001q-54 20 -84.5 61.5t-30.5 98.5q0 77 42 140.5t116 94.5l266 193q69 51 121 51q26 0 45 -17t19 -46q0 -75 -99 -109zM823 1192l-389 -614h473zM1032 1470q0 56 -28 91.5t-82 35.5q-71 0 -115.5 -56t-44.5 -138q0 -54 30 -87.5t82 -33.5
q70 0 114 52.5t44 135.5z" />
    <glyph glyph-name="aringacute" unicode="&#x1fb;" horiz-adv-x="1124" 
d="M412 66q68 0 144.5 37t176.5 128l127 543q0 79 -57.5 125.5t-145.5 46.5q-114 0 -222.5 -88t-170 -229.5t-61.5 -296.5q0 -123 52 -194.5t157 -71.5zM707 143l-62 -54q-128 -116 -262 -116q-146 0 -228.5 102t-82.5 271q0 166 81.5 319t217.5 247t286 94q107 0 195 -38
l39 -18l123 39l8 -12l-154 -662q-12 -55 -21 -96.5t-9 -68.5q0 -68 86 -68q83 0 123 16l-11 -53q-41 -25 -105.5 -43t-109.5 -18q-110 0 -110 110q0 27 4 49h-8zM649 993q-100 0 -159.5 48t-59.5 128q0 108 77.5 183t200.5 75q98 0 157.5 -51t59.5 -133q0 -68 -34.5 -126
t-98 -91t-143.5 -33zM811 1241q0 56 -28.5 91.5t-82.5 35.5q-71 0 -115.5 -56t-44.5 -139q0 -54 30 -87t83 -33q70 0 114 52.5t44 135.5zM616 1487l-29 38l78 75l127 124q88 88 109 100.5t45 12.5q26 0 44.5 -20.5t18.5 -49.5q0 -32 -16 -56t-72 -56z" />
    <glyph glyph-name="AEacute" unicode="&#x1fc;" horiz-adv-x="1890" 
d="M1946 1419l-80 -332h-62q-2 87 -16 135.5t-40 80.5t-64 40.5t-226 8.5h-209l-133 -580h170q90 0 138 22t84 81.5t59 121.5h63l-123 -534h-61l2 76q0 78 -10 98q-18 35 -59 48t-111 13h-170l-101 -436q-12 -53 -12 -96q0 -52 43 -72t176 -20q144 0 235 15.5t128.5 47
t87.5 104.5t98 165h68l-121 -406h-1102l12 61q124 7 158 21q50 21 68 96l98 428h-461q-150 -182 -258 -342q-47 -66 -47 -112q0 -40 30 -61.5t113 -29.5l-12 -61h-512l12 61q67 14 115.5 36.5t96.5 74t356.5 440t570.5 734.5q-23 8 -122 11l-38 1l17 61h1151zM1104 1337h-68
l-499 -647h417zM1225 1518l-29 38l78 75l127 124q88 88 109 100.5t45 12.5q26 0 44.5 -20.5t18.5 -49.5q0 -32 -16 -56t-72 -56z" />
    <glyph glyph-name="aeacute" unicode="&#x1fd;" horiz-adv-x="1436" 
d="M1395 809q0 -108 -66 -187t-207.5 -127.5t-382.5 -68.5q0 -184 56 -272t182 -88q169 0 317 204l49 -34q-83 -123 -194.5 -193t-228.5 -70q-202 0 -277 197h-6q-88 -100 -173 -146.5t-177 -46.5q-124 0 -186 51.5t-62 143.5q0 109 64 193.5t191.5 133.5t256.5 68l106 17
l13 46q24 73 24 132q0 78 -50 128t-132 50q-50 0 -103.5 -17t-95.5 -44q0 -106 -22.5 -153.5t-75.5 -47.5q-31 0 -48 17t-17 48q0 61 58 122.5t152.5 101t182.5 39.5q102 0 164.5 -36t91.5 -120q67 73 161 114.5t199 41.5q114 0 175 -53t61 -144zM1163 940q-91 0 -182 -61.5
t-154.5 -165.5t-83.5 -224q162 13 249.5 35.5t155 66.5t100 101t32.5 125q0 60 -33 91.5t-84 31.5zM625 238q-9 47 -9 102q0 89 17 170q-213 -21 -335 -105t-122 -212q0 -59 34 -92t93 -33q190 0 322 170zM1116 1468q0 -40 -24.5 -74t-135.5 -135l-159 -145l-37 31l117 188
q95 154 120.5 177.5t57.5 23.5q29 0 45 -20t16 -46z" />
    <glyph glyph-name="Oslashacute" unicode="&#x1fe;" horiz-adv-x="1446" 
d="M1425 870q0 -230 -108 -435t-300 -336.5t-388 -131.5q-238 0 -379 158l-152 -143l-55 57l158 151q-92 147 -92 349q0 237 110.5 448.5t297.5 336t388 124.5q131 0 237 -51.5t171 -145.5l141 135l59 -59l-155 -147q67 -136 67 -310zM266 518q0 -143 35 -233l920 878
q-91 207 -332 207q-131 0 -244.5 -65.5t-197 -186t-132.5 -284.5t-49 -316zM1266 911q0 91 -17 164l-913 -868q95 -160 307 -160q176 0 316.5 114t223.5 321t83 429zM762 1518l-29 38l78 75l127 124q88 88 109 100.5t45 12.5q26 0 44.5 -20.5t18.5 -49.5q0 -32 -16 -56
t-72 -56z" />
    <glyph glyph-name="oslashacute" unicode="&#x1ff;" horiz-adv-x="1038" 
d="M971 627q0 -176 -76.5 -332t-205.5 -240t-286 -84q-170 0 -268 135l-121 -106l-43 45l133 117q-36 90 -36 188q0 180 77.5 334t205.5 238t280 84q181 0 272 -138l109 97l43 -47l-121 -107q37 -82 37 -184zM195 360q0 -68 8 -110l614 543q-51 145 -207 145
q-118 0 -210.5 -70t-148.5 -210.5t-56 -297.5zM844 623q0 67 -8 102l-615 -543q54 -143 209 -143q121 0 215.5 76.5t146.5 210t52 297.5zM854 1468q0 -40 -24.5 -74t-135.5 -135l-159 -145l-37 31l117 188q95 154 120.5 177.5t57.5 23.5q29 0 45 -20t16 -46z" />
    <glyph glyph-name="uni0218" unicode="&#x218;" horiz-adv-x="1102" 
d="M504 -23q-129 0 -220.5 25.5t-160.5 79.5l-47 -82h-66l90 471h70q4 -159 41 -246.5t113 -132.5t198 -45q163 0 260 94t97 250q0 79 -39 138.5t-101 86.5q-58 26 -152 60q-156 54 -218.5 101.5t-94.5 111.5t-32 139q0 116 65 211.5t176 151t228 55.5q194 0 329 -98l43 71
h68l-98 -465h-68v21q0 168 -29.5 244t-95 115.5t-180.5 39.5q-130 0 -217.5 -85t-87.5 -216q0 -139 96 -199q60 -34 150 -65q143 -50 206 -85.5t101 -75t61 -92.5t23 -124q0 -123 -70.5 -227.5t-190 -166t-247.5 -61.5zM297 -444l10 55q83 8 124.5 37t58.5 96h-31
q-51 0 -80 24t-29 64q0 47 31.5 74.5t79.5 27.5q50 0 83.5 -37.5t33.5 -93.5q0 -115 -72.5 -180t-208.5 -67z" />
    <glyph glyph-name="uni0219" unicode="&#x219;" horiz-adv-x="834" 
d="M246 754q0 -66 44.5 -109.5t153.5 -81.5q160 -55 220.5 -112t60.5 -140q0 -149 -106 -243.5t-275 -94.5q-137 0 -230.5 54.5t-93.5 130.5q0 40 22 63t56 23q39 0 65 -39t34 -113q64 -49 186 -49q108 0 176 58.5t68 150.5q0 68 -55.5 115t-155.5 82q-138 43 -200 104.5
t-62 144.5q0 82 47.5 153t132.5 113t182 42q116 0 196.5 -41t80.5 -103q0 -35 -17.5 -59.5t-52.5 -24.5q-42 0 -70 31.5t-49 108.5q-52 18 -121 18q-103 0 -170 -51.5t-67 -130.5zM172 -444l10 55q83 8 124.5 37t58.5 96h-31q-51 0 -80 24t-29 64q0 47 31.5 74.5t79.5 27.5
q50 0 83.5 -37.5t33.5 -93.5q0 -115 -72.5 -180t-208.5 -67z" />
    <glyph glyph-name="uni021A" unicode="&#x21a;" horiz-adv-x="1241" 
d="M739 1352h-61q-130 0 -188.5 -8.5t-113 -50t-99.5 -106t-74 -143.5h-70l88 375h1204l-84 -375h-65v14q0 104 -24 174t-65 95t-239 25h-67l-260 -1131q-11 -38 -11 -71q0 -47 61 -66t144 -23l-12 -61h-606l12 61l40 3q108 6 142 18q59 22 76 94zM326 -444l10 55
q83 8 124.5 37t58.5 96h-31q-51 0 -80 24t-29 64q0 47 31.5 74.5t79.5 27.5q50 0 83.5 -37.5t33.5 -93.5q0 -115 -72.5 -180t-208.5 -67z" />
    <glyph glyph-name="uni021B" unicode="&#x21b;" horiz-adv-x="639" 
d="M244 176q0 -49 24.5 -70.5t83.5 -21.5q85 0 160 20l-12 -61q-115 -59 -230 -59q-68 0 -110.5 39t-42.5 104q0 53 14 115l154 655h-174l18 84h176l70 287h108l-65 -287h282l-18 -84h-285l-129 -561q-24 -98 -24 -160zM69 -444l10 55q83 8 124.5 37t58.5 96h-31
q-51 0 -80 24t-29 64q0 47 31.5 74.5t79.5 27.5q50 0 83.5 -37.5t33.5 -93.5q0 -115 -72.5 -180t-208.5 -67z" />
    <glyph glyph-name="uni0237" unicode="&#x237;" horiz-adv-x="520" 
d="M299 838q0 32 -17.5 50.5t-68.5 18.5q-23 0 -63.5 -7t-55.5 -13l10 55q58 31 115.5 47.5t95.5 16.5q111 0 111 -111q0 -51 -16 -125q-48 -238 -150 -711q-32 -146 -105 -261t-172 -178.5t-198 -63.5q-51 0 -81 26t-30 68q0 32 18.5 54t53.5 22q28 0 52.5 -17t62.5 -71
q102 0 167 96t107 289l70 311q94 414 94 504z" />
    <glyph glyph-name="circumflex" unicode="&#x2c6;" 
d="M930 1126l-197 265l-315 -265l-41 43l303 334q31 35 72 35q43 0 63 -43l162 -338z" />
    <glyph glyph-name="caron" unicode="&#x2c7;" 
d="M483 1538l197 -264l315 264l41 -43l-303 -334q-17 -18 -32.5 -26.5t-38.5 -8.5q-42 0 -64 43l-162 338z" />
    <glyph glyph-name="uni02C9" unicode="&#x2c9;" 
d="M385 1305l21 108h643l-21 -108h-643z" />
    <glyph glyph-name="breve" unicode="&#x2d8;" 
d="M1026 1470q-56 -171 -143.5 -259.5t-218.5 -88.5q-254 0 -254 357l49 8q15 -120 69.5 -172.5t151.5 -52.5q96 0 162.5 47.5t132.5 177.5z" />
    <glyph glyph-name="dotaccent" unicode="&#x2d9;" 
d="M707 1284q-76 0 -76 88q0 53 27.5 85t66.5 32q78 0 78 -88q0 -51 -28 -84t-68 -33z" />
    <glyph glyph-name="ring" unicode="&#x2da;" 
d="M680 1120q-100 0 -159.5 48t-59.5 128q0 108 77.5 183t200.5 75q98 0 157.5 -51t59.5 -133q0 -68 -34.5 -126t-98 -91t-143.5 -33zM842 1368q0 56 -28.5 91.5t-82.5 35.5q-71 0 -115.5 -56t-44.5 -139q0 -54 30 -87t83 -33q70 0 114 52.5t44 135.5z" />
    <glyph glyph-name="ogonek" unicode="&#x2db;" 
d="M414 -444q-113 0 -175.5 41.5t-62.5 113.5q0 82 76.5 168t218.5 160h53q-102 -64 -157.5 -141t-55.5 -150q0 -64 49 -92.5t156 -30.5l-12 -69h-90z" />
    <glyph glyph-name="tilde" unicode="&#x2dc;" 
d="M1053 1460q-36 -102 -97 -157.5t-137 -54.5q-50 -1 -86.5 14.5t-67 34t-60 34t-64.5 16.5q-40 -1 -68.5 -27t-71.5 -102l-53 22q41 88 72.5 128.5t70 63t84.5 22.5q47 0 83.5 -15.5t67.5 -34.5t59 -34.5t59 -15.5q52 0 83.5 26.5t69.5 104.5z" />
    <glyph glyph-name="hungarumlaut" unicode="&#x2dd;" 
d="M725 1468q0 -37 -23.5 -71t-76.5 -86l-199 -197l-39 27l103 190q40 74 71 121t49 63.5t47 18.5q29 0 48.5 -20t19.5 -46zM1065 1468q0 -37 -23.5 -71t-76.5 -86l-199 -197l-39 27l103 190q40 74 71 121t49 63.5t47 18.5q29 0 48.5 -20t19.5 -46z" />
    <glyph glyph-name="gravecomb" unicode="&#x300;" 
d="M500 1798q0 29 18.5 49.5t44.5 20.5t47 -13.5t52 -44.5q134 -134 260 -254l-29 -38l-305 168q-55 32 -71.5 55.5t-16.5 56.5z" />
    <glyph glyph-name="acutecomb" unicode="&#x301;" 
d="M553 1518l-29 38l78 75l127 124q88 88 109 100.5t45 12.5q26 0 44.5 -20.5t18.5 -49.5q0 -32 -16 -56t-72 -56z" />
    <glyph glyph-name="uni0302" unicode="&#x302;" 
d="M1024 1538l-49 -31l-236 211l-319 -211l-47 31l291 285q18 18 39.5 31.5t60.5 13.5q43 0 57.5 -13.5t22.5 -27.5z" />
    <glyph glyph-name="uni0306" unicode="&#x306;" 
d="M1065 1853q-56 -159 -145 -241t-220 -82q-256 0 -256 328l56 14q15 -115 68 -163t149 -48q65 0 114 20t88 59t91 132z" />
    <glyph glyph-name="uni0308" unicode="&#x308;" 
d="M606 1745q0 -42 -23 -71t-65 -29t-65 29t-23 71q0 43 23 72.5t65 29.5t65 -29.5t23 -72.5zM1014 1745q0 -42 -23 -71t-65 -29t-65 29t-23 71q0 43 23 72.5t65 29.5t65 -29.5t23 -72.5z" />
    <glyph glyph-name="uni030B" unicode="&#x30b;" 
d="M438 1518l-28 38q139 154 201.5 217t85.5 79t51 16q26 0 44.5 -20.5t18.5 -49.5q0 -32 -16 -56t-72 -56zM774 1518l-29 38l129 137q46 52 93 99t68 61.5t48 14.5q26 0 45 -20.5t19 -49.5q0 -32 -16 -56t-72 -56z" />
    <glyph glyph-name="uni030C" unicode="&#x30c;" 
d="M1067 1837l-289 -285q-24 -22 -38.5 -33.5t-61.5 -11.5q-41 0 -55.5 13.5t-24.5 27.5l-180 289l49 33l233 -213l322 213z" />
    <glyph glyph-name="uni0326" unicode="&#x326;" 
d="M217 -444l10 55q83 8 124.5 37t58.5 96h-31q-51 0 -80 24t-29 64q0 47 31.5 74.5t79.5 27.5q50 0 83.5 -37.5t33.5 -93.5q0 -115 -72.5 -180t-208.5 -67z" />
    <glyph glyph-name="tonos" unicode="&#x384;" 
d="M649 1143h-57l170 416h180v-19z" />
    <glyph glyph-name="dieresistonos" unicode="&#x385;" 
d="M1028 1315q0 -44 -25 -72.5t-67 -28.5t-69 28.5t-27 72.5q0 43 27 71.5t69 28.5t67 -28.5t25 -71.5zM573 1315q0 -44 -27 -72.5t-69 -28.5t-67 28.5t-25 72.5q0 43 25 71.5t67 28.5t69 -28.5t27 -71.5zM659 1143h-43l74 375h160v-19z" />
    <glyph glyph-name="Alphatonos" unicode="&#x386;" horiz-adv-x="1284" 
d="M1249 0h-489l12 61q95 12 126 20.5t47 23t16 38.5q0 34 -9 95l-32 264h-531l-143 -238q-51 -92 -51 -125q0 -31 50.5 -52.5t133.5 -25.5l-12 -61h-519l13 61q87 7 151.5 50.5t112.5 126.5l772 1202h18l177 -1227q12 -78 63 -113t107 -39zM823 1192l-389 -614h473z
M252 1006h-57l170 416h180v-19z" />
    <glyph glyph-name="anoteleia" unicode="&#x387;" horiz-adv-x="588" 
d="M475 883q0 -47 -31.5 -78t-76.5 -31q-44 0 -74.5 31t-30.5 78q0 45 31 73.5t74 28.5t75.5 -29.5t32.5 -72.5z" />
    <glyph glyph-name="Epsilontonos" unicode="&#x388;" horiz-adv-x="1587" 
d="M1643 1419l-80 -332h-61q-7 244 -136 259q-108 6 -210 6h-252l-133 -580h213q86 0 133 20t83.5 75.5t63.5 129.5h64l-123 -534h-62l2 76q0 78 -10 98q-18 35 -59 48t-111 13h-213l-100 -436q-13 -57 -13 -96q0 -52 43 -72t177 -20q155 0 260 15t139 42q83 65 192 275h68
l-121 -406h-1145l13 61q123 7 157 21q50 21 68 96l246 1057q6 30 6 49q0 52 -144 70l-30 4l12 61h1063zM182 1006h-57l170 416h180v-19z" />
    <glyph glyph-name="Etatonos" unicode="&#x389;" horiz-adv-x="1888" 
d="M1625 1284q0 31 -52 49t-108 25l12 61h502l-14 -61q-96 -9 -141.5 -29.5t-63.5 -93.5l-234 -1018q-10 -47 -10 -67q0 -29 14.5 -46t55 -30t79.5 -13l-16 -61h-496l13 61l37 3q93 7 124.5 31t45.5 83l120 522h-739l-110 -483q-11 -38 -11 -67t14 -45.5t55.5 -30
t80.5 -13.5l-17 -61h-495l12 61l37 3q93 7 124.5 31t45.5 83l246 1057q6 30 6 49q0 31 -50.5 49t-109.5 25l12 61h502l-14 -61q-98 -9 -143.5 -31t-61.5 -92l-104 -459h739l106 459q7 35 7 49zM182 1006h-57l170 416h180v-19z" />
    <glyph glyph-name="Iotatonos" unicode="&#x38a;" horiz-adv-x="1008" 
d="M742 1276q0 41 -68 60t-123 22l13 61h565l-14 -61q-107 -8 -164 -28.5t-74 -92.5l-233 -1016q-11 -38 -11 -69q0 -45 51 -65.5t134 -25.5l-13 -61h-565l12 61q131 9 152 17q69 26 86 98l244 1051q8 29 8 49zM182 1006h-57l170 416h180v-19z" />
    <glyph glyph-name="Omicrontonos" unicode="&#x38c;" horiz-adv-x="1665" 
d="M1644 870q0 -230 -108 -435t-300 -336.5t-388 -131.5q-236 0 -378 157t-142 415q0 237 110.5 448.5t297.5 336t388 124.5q237 0 378.5 -158.5t141.5 -419.5zM1485 911q0 218 -98 338.5t-279 120.5q-131 0 -244.5 -65.5t-197 -186t-132.5 -284.5t-49 -316
q0 -228 97.5 -349.5t279.5 -121.5q176 0 316.5 114t223.5 321t83 429zM182 1006h-57l170 416h180v-19z" />
    <glyph glyph-name="Upsilontonos" unicode="&#x38e;" horiz-adv-x="1540" 
d="M927 143q0 -30 40.5 -50t166.5 -32l-12 -61h-606l12 61l40 3q108 6 144 18q57 22 74 94l72 307q14 63 14 82q0 57 -58 249.5t-122 377.5q-31 87 -56.5 114.5t-53.5 37.5t-68 14l16 61h473l-14 -61l-54 -3q-116 -6 -116 -50q0 -55 176 -621q67 82 136 166t130.5 159.5
t111 137.5t77.5 100q16 23 16 45q0 55 -116 62l-60 4l16 61h486l-17 -61q-63 -9 -101 -25.5t-80 -57t-167 -183.5t-237 -283t-135.5 -176t-36 -73t-80.5 -347q-11 -41 -11 -70zM182 1006h-57l170 416h180v-19z" />
    <glyph glyph-name="Omegatonos" unicode="&#x38f;" horiz-adv-x="1733" 
d="M1511 0h-532l12 51q211 228 287.5 330.5t122.5 193.5t68 183t22 198q0 192 -97.5 303t-265.5 111q-158 0 -279.5 -94.5t-191.5 -276.5t-70 -397q0 -135 39.5 -268.5t120.5 -282.5l-12 -51h-481l-45 360h57q57 -223 164 -223h186l10 43q-106 184 -136 255t-45 142t-15 156
q0 190 96.5 357.5t261.5 262.5t359 95q144 0 259 -61.5t179.5 -172t64.5 -245.5q0 -133 -36.5 -237.5t-99 -195.5t-147 -176.5t-180.5 -179.5l-8 -43h201q39 0 75 21t72.5 60t106.5 138l51 -24zM182 1006h-57l170 416h180v-19z" />
    <glyph glyph-name="iotadieresistonos" unicode="&#x390;" horiz-adv-x="512" 
d="M387 989l10 -12l-151 -655q-31 -134 -31 -170q0 -42 26 -56t64 -14q67 0 119 16l-10 -53q-116 -61 -217 -61q-109 0 -109 112q0 45 18 117l179 766zM751 1315q0 -44 -25 -72.5t-67 -28.5t-69 28.5t-27 72.5q0 43 27 71.5t69 28.5t67 -28.5t25 -71.5zM296 1315
q0 -44 -27 -72.5t-69 -28.5t-67 28.5t-25 72.5q0 43 25 71.5t67 28.5t69 -28.5t27 -71.5zM382 1143h-43l74 375h160v-19z" />
    <glyph glyph-name="Alpha" unicode="&#x391;" horiz-adv-x="1284" 
d="M1249 0h-489l12 61q95 12 126 20.5t47 23t16 38.5q0 34 -9 95l-32 264h-531l-143 -238q-51 -92 -51 -125q0 -31 50.5 -52.5t133.5 -25.5l-12 -61h-519l13 61q87 7 151.5 50.5t112.5 126.5l772 1202h18l177 -1227q12 -78 63 -113t107 -39zM823 1192l-389 -614h473z" />
    <glyph glyph-name="Beta" unicode="&#x392;" horiz-adv-x="1272" 
d="M463 1284q0 31 -50.5 49t-109.5 25l12 61h590q79 0 159.5 -33.5t121.5 -88.5t41 -126q0 -151 -104.5 -259.5t-288.5 -147.5l2 -2q161 -27 249.5 -108t88.5 -197q0 -91 -42.5 -173t-118 -144t-176.5 -101t-182 -39h-663l12 61l37 3q93 7 124.5 31t45.5 83l246 1057
q6 30 6 49zM1063 1165q0 89 -64.5 138t-183.5 49l-194 -4l-127 -564h174q119 0 208 49t138 137.5t49 194.5zM1012 492q0 96 -86 160.5t-211 64.5l-240 -4l-104 -457q-13 -57 -13 -88q0 -50 57 -77.5t169 -27.5q119 0 213.5 53.5t154.5 161.5t60 214z" />
    <glyph glyph-name="Gamma" unicode="&#x393;" horiz-adv-x="1118" 
d="M1219 1044h-66v25q0 95 -24 163.5t-64.5 94t-222.5 25.5h-217l-254 -1102q-17 -68 -17 -105q0 -43 47 -59.5t131 -24.5l-14 -61h-543l11 61q123 7 157 21q50 21 68 96l246 1057q6 30 6 49q0 52 -144 70l-30 4l12 61h1002z" />
    <glyph glyph-name="uni0394" unicode="&#x394;" horiz-adv-x="1249" 
d="M1112 0h-1210l8 45l915 1395h17l280 -1395zM760 1194l-684 -1057h885z" />
    <glyph glyph-name="Epsilon" unicode="&#x395;" horiz-adv-x="1309" 
d="M1364 1419l-80 -332h-61q-7 244 -136 259q-108 6 -210 6h-252l-133 -580h213q86 0 133 20t83.5 75.5t63.5 129.5h64l-123 -534h-62l2 76q0 78 -10 98q-18 35 -59 48t-111 13h-213l-100 -436q-13 -57 -13 -96q0 -52 43 -72t177 -20q155 0 260 15t139 42q83 65 192 275h68
l-121 -406h-1145l13 61q123 7 157 21q50 21 68 96l246 1057q6 30 6 49q0 52 -144 70l-30 4l12 61h1063z" />
    <glyph glyph-name="Zeta" unicode="&#x396;" horiz-adv-x="1184" 
d="M1001 0h-1087l6 20l1206 1330h-364q-115 0 -182 -9q-88 -13 -182 -103t-146 -204h-64l129 385h1022l-6 -20l-1204 -1329h322q108 0 226 13.5t148 35.5q52 37 108.5 100.5t100.5 132.5l47 72h66z" />
    <glyph glyph-name="Eta" unicode="&#x397;" horiz-adv-x="1610" 
d="M1346 1284q0 31 -52 49t-108 25l12 61h502l-14 -61q-96 -9 -141.5 -29.5t-63.5 -93.5l-234 -1018q-10 -47 -10 -67q0 -29 14.5 -46t55 -30t79.5 -13l-16 -61h-496l13 61l37 3q93 7 124.5 31t45.5 83l120 522h-739l-110 -483q-11 -38 -11 -67t14 -45.5t55.5 -30
t80.5 -13.5l-17 -61h-495l12 61l37 3q93 7 124.5 31t45.5 83l246 1057q6 30 6 49q0 31 -50.5 49t-109.5 25l12 61h502l-14 -61q-98 -9 -143.5 -31t-61.5 -92l-104 -459h739l106 459q7 35 7 49z" />
    <glyph glyph-name="Theta" unicode="&#x398;" horiz-adv-x="1446" 
d="M1004 494h-68q0 69 -4.5 101.5t-18 42t-50.5 13.5t-113 4q-68 0 -109.5 -4t-59.5 -13t-43.5 -49t-48.5 -95h-65l100 430h68q0 -94 12 -129q4 -19 43.5 -25t130.5 -6q142 0 175.5 21t86.5 139h64zM1425 870q0 -230 -108 -435t-300 -336.5t-388 -131.5q-236 0 -378 157
t-142 415q0 237 110.5 448.5t297.5 336t388 124.5q237 0 378.5 -158.5t141.5 -419.5zM1266 911q0 218 -98 338.5t-279 120.5q-131 0 -244.5 -65.5t-197 -186t-132.5 -284.5t-49 -316q0 -228 97.5 -349.5t279.5 -121.5q176 0 316.5 114t223.5 321t83 429z" />
    <glyph glyph-name="Iota" unicode="&#x399;" horiz-adv-x="729" 
d="M463 1276q0 41 -68 60t-123 22l13 61h565l-14 -61q-107 -8 -164 -28.5t-74 -92.5l-233 -1016q-11 -38 -11 -69q0 -45 51 -65.5t134 -25.5l-13 -61h-565l12 61q131 9 152 17q69 26 86 98l244 1051q8 29 8 49z" />
    <glyph glyph-name="Kappa" unicode="&#x39a;" horiz-adv-x="1335" 
d="M487 717q120 75 268 192.5t268 233t120 166.5q0 22 -40.5 35.5t-92.5 13.5l12 61h491l-16 -57q-52 0 -104 -15.5t-82 -41.5q-159 -147 -306 -270.5t-364 -286.5q163 -226 265 -384l67 -104q66 -103 117.5 -146.5t166.5 -52.5l-20 -61h-274q-80 151 -205 346.5t-234 337.5
h-53l-106 -467q-11 -38 -11 -67t14 -45.5t55.5 -30t80.5 -13.5l-17 -61h-495l12 61l37 3q93 7 124.5 31t45.5 83l246 1057q6 30 6 49q0 31 -50.5 49t-109.5 25l12 61h502l-14 -61q-98 -9 -143.5 -31t-61.5 -92l-119 -518h8z" />
    <glyph glyph-name="Lambda" unicode="&#x39b;" horiz-adv-x="1284" 
d="M195 139q0 -31 50.5 -52.5t133.5 -25.5l-12 -61h-519l13 61q83 7 144.5 46t119.5 131l772 1202h18l177 -1227q12 -78 63 -113t107 -39l-13 -61h-489l12 61q95 12 126 20.5t47 23t16 38.5q0 34 -9 95l-127 954l-579 -928q-51 -78 -51 -125z" />
    <glyph glyph-name="Mu" unicode="&#x39c;" horiz-adv-x="1831" 
d="M1452 150q0 -27 20.5 -46.5t69.5 -31t74 -11.5l-17 -61h-534l14 61q18 0 67.5 6.5t79.5 16.5t54.5 33.5t36.5 70.5l258 1086h-10l-795 -1251h-22l-68 454l-133 797h-8l-205 -875q-27 -108 -27 -186q0 -63 25 -90q32 -43 166 -62l-13 -61h-555l17 61l33 5q82 11 127 34
t72.5 77t64.5 208l176 758q8 37 8 78q0 69 -49.5 100.5t-126.5 36.5l14 61h389l185 -1140l608 960q86 150 94 180h385l-12 -61q-107 -9 -152.5 -30.5t-62.5 -92.5l-227 -967q-21 -94 -21 -118z" />
    <glyph glyph-name="Nu" unicode="&#x39d;" horiz-adv-x="1546" 
d="M1362 1206q0 63 -25 90q-26 39 -186 62l12 61h576l-17 -61l-33 -5q-85 -11 -128.5 -34t-71.5 -78t-64 -207l-243 -1052h-47l-611 1230l-190 -813q-7 -28 -17 -89.5t-10 -96.5q0 -63 25 -90q26 -39 186 -62l-12 -61h-576l17 61l33 5q82 11 127 34t72.5 77t64.5 208
l178 766q8 32 8 63q0 45 -45 90.5t-174 53.5l16 61h348l582 -1165l178 766q7 28 17 89.5t10 96.5z" />
    <glyph glyph-name="Xi" unicode="&#x39e;" horiz-adv-x="1305" 
d="M1286 1044h-65q0 114 -24.5 174.5t-75.5 73.5t-298 13q-220 0 -284 -7q-121 -12 -222 -254h-69l88 375h1034zM1079 0h-1034l37 377h70q14 -127 41.5 -188.5t74.5 -63.5q188 -8 307 -8h75q158 0 224 4q54 2 126.5 70t142.5 186h65zM938 502h-68q0 71 -4.5 102.5t-18 41.5
t-50.5 14t-113 4q-68 0 -105.5 -3.5t-57.5 -11.5t-44.5 -45t-52.5 -102h-66l101 430h67q0 -90 13 -129q4 -19 43.5 -25t130.5 -6q71 0 109.5 4t57 12.5t42 43t53.5 100.5h63z" />
    <glyph glyph-name="Omicron" unicode="&#x39f;" horiz-adv-x="1446" 
d="M1425 870q0 -230 -108 -435t-300 -336.5t-388 -131.5q-236 0 -378 157t-142 415q0 237 110.5 448.5t297.5 336t388 124.5q237 0 378.5 -158.5t141.5 -419.5zM1266 911q0 218 -98 338.5t-279 120.5q-131 0 -244.5 -65.5t-197 -186t-132.5 -284.5t-49 -316
q0 -228 97.5 -349.5t279.5 -121.5q176 0 316.5 114t223.5 321t83 429z" />
    <glyph glyph-name="Pi" unicode="&#x3a0;" horiz-adv-x="1581" 
d="M1208 152q0 -48 47.5 -69.5t102.5 -21.5l-17 -61h-495l12 61l39 3q85 6 119 29.5t49 86.5l270 1161h-714l-259 -1132q-8 -35 -8 -59q0 -39 35 -61.5t115 -27.5l-17 -61h-495l12 61q119 5 155.5 28.5t51.5 88.5q252 1095 252 1100q0 27 -23.5 41.5t-64 24.5t-84.5 14
l12 61h1368l-14 -61q-84 -7 -136.5 -28.5t-68.5 -94.5l-235 -1026q-9 -31 -9 -57z" />
    <glyph glyph-name="Rho" unicode="&#x3a1;" horiz-adv-x="1192" 
d="M1073 1108q0 112 -67 175t-185 63h-200l-142 -633h176q126 0 220.5 49t146 146t51.5 200zM893 1419q160 0 255 -82.5t95 -224.5q0 -128 -74.5 -236.5t-207.5 -174.5t-273 -66h-227l-96 -418q-11 -38 -11 -67q0 -35 21 -52.5t74.5 -27t85.5 -9.5l-17 -61h-526l12 61l37 3
q93 7 124.5 31t45.5 83l246 1057q6 30 6 49q0 26 -52 46t-116 28l12 61h586z" />
    <glyph glyph-name="Sigma" unicode="&#x3a3;" horiz-adv-x="1155" 
d="M1141 1067h-58q0 259 -127 276q-51 9 -184 9h-360l385 -615l-2 -8l-668 -608h625q51 0 91 23t75 65.5t106 171.5h68l-113 -381h-1065l4 29l737 678l-432 696l6 16h996z" />
    <glyph glyph-name="Tau" unicode="&#x3a4;" horiz-adv-x="1241" 
d="M739 1352h-61q-130 0 -188.5 -8.5t-113 -50t-99.5 -106t-74 -143.5h-70l88 375h1204l-84 -375h-65v14q0 104 -24 174t-65 95t-239 25h-67l-260 -1131q-11 -38 -11 -71q0 -47 61 -66t144 -23l-12 -61h-606l12 61l40 3q108 6 142 18q59 22 76 94z" />
    <glyph glyph-name="Upsilon" unicode="&#x3a5;" horiz-adv-x="1180" 
d="M567 143q0 -30 40.5 -50t166.5 -32l-12 -61h-606l12 61l40 3q108 6 144 18q57 22 74 94l72 307q14 63 14 82q0 57 -58 249.5t-122 377.5q-31 87 -56.5 114.5t-53.5 37.5t-68 14l16 61h473l-14 -61l-54 -3q-116 -6 -116 -50q0 -55 176 -621q67 82 136 166t130.5 159.5
t111 137.5t77.5 100q16 23 16 45q0 55 -116 62l-60 4l16 61h486l-17 -61q-63 -9 -101 -25.5t-80 -57t-167 -183.5t-237 -283t-135.5 -176t-36 -73t-80.5 -347q-11 -41 -11 -70z" />
    <glyph glyph-name="Phi" unicode="&#x3a6;" horiz-adv-x="1409" 
d="M795 1200q12 60 12 86q0 28 -17.5 44.5t-55.5 27t-93 14.5l12 62h521l-11 -62q-111 -7 -148 -22.5t-55 -43.5t-34 -106q220 -11 344.5 -117.5t124.5 -285.5q0 -164 -82 -295.5t-232 -205t-348 -73.5h-31q-14 -65 -14 -92q0 -47 39 -63q10 -6 49.5 -11.5t91.5 -5.5
l-12 -61h-532l16 61q84 7 104 11t29 8q66 25 84 96l14 57q-223 13 -346 119.5t-123 284.5q0 164 81.5 295t232 204.5t348.5 73.5h31zM1239 803q0 297 -330 327l-190 -839h31q156 0 265.5 62t166.5 177.5t57 272.5zM748 1133q-232 0 -361 -135.5t-129 -376.5q0 -298 328 -328
l192 840h-30z" />
    <glyph glyph-name="Chi" unicode="&#x3a7;" horiz-adv-x="1401" 
d="M244 1358l16 61h506l-12 -61q-105 0 -138.5 -14.5t-33.5 -49.5q0 -34 30.5 -110t169.5 -367l94 99q60 62 145 152.5t114.5 123.5t47 62t17.5 46q0 27 -40.5 42.5t-115.5 15.5l17 61h504l-13 -61l-26 -2q-78 -4 -128.5 -29.5t-140.5 -118.5l-97 -101q-247 -249 -347 -357
q132 -287 168 -362t78 -158.5t73.5 -117.5t59.5 -42.5t82 -8.5l-14 -61h-521l13 61q174 0 174 60q0 59 -56.5 194.5t-150.5 327.5q-95 -92 -377 -403q-35 -39 -57.5 -73t-22.5 -48q0 -58 70.5 -58h87.5l-12 -61h-514l16 61l24 3q61 5 113 30q79 36 152 115t249 257.5
t238 248.5l-233 491q-26 55 -54 86.5t-81.5 48.5t-73.5 17z" />
    <glyph glyph-name="Psi" unicode="&#x3a8;" horiz-adv-x="1651" 
d="M815 147q0 -35 39.5 -56t144.5 -30l-12 -61h-565l12 61l41 3q89 4 123 19t51 38.5t27 64.5l61 267q-210 9 -322 100t-112 250q0 59 23 155l55 240q10 40 10 72q0 37 -42 59t-113 29l12 61h323l-114 -497q-17 -72 -17 -121q0 -131 80 -196t236 -73l153 664q11 51 11 72
q0 43 -38.5 64.5t-119.5 25.5l16 61h496l-14 -61q-90 -7 -125 -21t-49 -32.5t-27 -69.5l-162 -705q200 9 315 96t158 275l119 518h326l-13 -61l-28 -4q-59 -7 -97.5 -18.5t-57.5 -32.5t-28 -66l-78 -346q-48 -214 -195.5 -320.5t-438.5 -119.5l-56 -236q-8 -30 -8 -68z" />
    <glyph glyph-name="uni03A9" unicode="&#x3a9;" horiz-adv-x="1503" 
d="M1282 0h-532l12 51q211 228 287.5 330.5t122.5 193.5t68 183t22 198q0 192 -97.5 303t-265.5 111q-158 0 -279.5 -94.5t-191.5 -276.5t-70 -397q0 -135 39.5 -268.5t120.5 -282.5l-12 -51h-481l-45 360h57q57 -223 164 -223h186l10 43q-106 184 -136 255t-45 142t-15 156
q0 190 96.5 357.5t261.5 262.5t359 95q144 0 259 -61.5t179.5 -172t64.5 -245.5q0 -133 -36.5 -237.5t-99 -195.5t-147 -176.5t-180.5 -179.5l-8 -43h201q39 0 75 21t72.5 60t106.5 138l51 -24z" />
    <glyph glyph-name="Iotadieresis" unicode="&#x3aa;" horiz-adv-x="729" 
d="M463 1276q0 41 -68 60t-123 22l13 61h565l-14 -61q-107 -8 -164 -28.5t-74 -92.5l-233 -1016q-11 -38 -11 -69q0 -45 51 -65.5t134 -25.5l-13 -61h-565l12 61q131 9 152 17q69 26 86 98l244 1051q8 29 8 49zM500 1745q0 -42 -23 -71t-65 -29t-65 29t-23 71q0 43 23 73
t65 30t65 -30t23 -73zM908 1745q0 -42 -23.5 -71t-65.5 -29t-65 29t-23 71q0 43 23 73t65 30t65.5 -30t23.5 -73z" />
    <glyph glyph-name="Upsilondieresis" unicode="&#x3ab;" horiz-adv-x="1180" 
d="M567 143q0 -30 40.5 -50t166.5 -32l-12 -61h-606l12 61l40 3q108 6 144 18q57 22 74 94l72 307q14 63 14 82q0 57 -58 249.5t-122 377.5q-31 87 -56.5 114.5t-53.5 37.5t-68 14l16 61h473l-14 -61l-54 -3q-116 -6 -116 -50q0 -55 176 -621q67 82 136 166t130.5 159.5
t111 137.5t77.5 100q16 23 16 45q0 55 -116 62l-60 4l16 61h486l-17 -61q-63 -9 -101 -25.5t-80 -57t-167 -183.5t-237 -283t-135.5 -176t-36 -73t-80.5 -347q-11 -41 -11 -70zM731 1745q0 -42 -23 -71t-65 -29t-65 29t-23 71q0 43 23 72.5t65 29.5t65 -29.5t23 -72.5z
M1139 1745q0 -42 -23 -71t-65 -29t-65 29t-23 71q0 43 23 72.5t65 29.5t65 -29.5t23 -72.5z" />
    <glyph glyph-name="alphatonos" unicode="&#x3ac;" horiz-adv-x="1137" 
d="M1087 975q-21 -72 -130 -348l-62 -158q-27 -105 -27 -219q0 -91 23 -129.5t86 -38.5q56 0 100 16l-10 -53q-61 -30 -104.5 -43.5t-92.5 -13.5q-55 0 -71.5 29t-16.5 118v76h-6q-77 -112 -177.5 -175t-201.5 -63q-152 0 -238.5 105t-86.5 291q0 162 78 310t211.5 237.5
t283.5 89.5q103 0 174 -64t90 -174l74 211l92 10zM834 608q0 164 -56 251t-160 87q-109 0 -205 -80t-153 -216.5t-57 -276.5q0 -307 215 -307q147 0 247 110.5t162 345.5q7 39 7 86zM635 1143h-57l170 416h180v-19z" />
    <glyph glyph-name="epsilontonos" unicode="&#x3ad;" horiz-adv-x="872" 
d="M813 246q-77 -129 -195 -201t-249 -72q-158 0 -245 70.5t-87 196.5q0 120 91 194t239 84v10q-105 20 -161 72.5t-56 132.5q0 124 104.5 198.5t284.5 74.5q84 0 150 -25.5t101 -69.5t35 -96q0 -63 -29 -100t-71 -37q-35 0 -55.5 19.5t-20.5 50.5q0 27 14 62t29 79
q-60 49 -170 49q-115 0 -184.5 -57.5t-69.5 -145.5q0 -83 50.5 -128.5t144.5 -45.5h98l-18 -88h-84q-151 0 -227 -60.5t-76 -160.5q0 -86 61.5 -139.5t167.5 -53.5q113 0 205 55t170 171zM534 1143h-57l170 416h180v-19z" />
    <glyph glyph-name="etatonos" unicode="&#x3ae;" horiz-adv-x="1081" 
d="M698 -444h-116l231 1054q25 122 25 172q0 57 -37.5 94t-102.5 37q-71 0 -165 -50.5t-160 -123.5l-170 -739h-113l152 664q24 96 24 157q0 44 -17 60t-61 16q-54 0 -110 -16l10 53q123 59 213 59q51 0 70.5 -28.5t19.5 -83.5l-2 -41h6q204 166 373 166q87 0 137.5 -56
t50.5 -145q0 -61 -20 -152zM626 1143h-57l170 416h180v-19z" />
    <glyph glyph-name="iotatonos" unicode="&#x3af;" horiz-adv-x="512" 
d="M387 989l10 -12l-151 -655q-31 -134 -31 -170q0 -42 26 -56t64 -14q67 0 119 16l-10 -53q-116 -61 -217 -61q-109 0 -109 112q0 45 18 117l179 766zM377 1143h-57l170 416h180v-19z" />
    <glyph glyph-name="upsilondieresistonos" unicode="&#x3b0;" horiz-adv-x="1067" 
d="M821 924q0 32 20 57t60 25q43 0 67.5 -43.5t24.5 -110.5q0 -246 -80 -448.5t-222 -317.5t-312 -115q-112 0 -179 62t-67 168q0 64 25 151l56 202q56 199 56 271t-71 72q-32 0 -74.5 -9.5t-52.5 -13.5l12 54q132 65 219 65q96 0 96 -104q0 -47 -12 -105l-117 -452
q-16 -71 -16 -121q0 -65 44 -102t124 -37q129 0 235.5 78t173 226.5t66.5 297.5q0 52 -12 84.5t-26 57t-26 48.5t-12 60zM954 1315q0 -44 -25 -72.5t-67 -28.5t-69 28.5t-27 72.5q0 43 27 71.5t69 28.5t67 -28.5t25 -71.5zM499 1315q0 -44 -27 -72.5t-69 -28.5t-67 28.5
t-25 72.5q0 43 25 71.5t67 28.5t69 -28.5t27 -71.5zM585 1143h-43l74 375h160v-19z" />
    <glyph glyph-name="alpha" unicode="&#x3b1;" horiz-adv-x="1137" 
d="M1087 975q-21 -72 -130 -348l-62 -158q-27 -105 -27 -219q0 -91 23 -129.5t86 -38.5q56 0 100 16l-10 -53q-61 -30 -104.5 -43.5t-92.5 -13.5q-55 0 -71.5 29t-16.5 118v76h-6q-77 -112 -177.5 -175t-201.5 -63q-152 0 -238.5 105t-86.5 291q0 162 78 310t211.5 237.5
t283.5 89.5q103 0 174 -64t90 -174l74 211l92 10zM834 608q0 164 -56 251t-160 87q-109 0 -205 -80t-153 -216.5t-57 -276.5q0 -307 215 -307q147 0 247 110.5t162 345.5q7 39 7 86z" />
    <glyph glyph-name="beta" unicode="&#x3b2;" horiz-adv-x="1067" 
d="M418 -25q-87 0 -149.5 23.5t-94.5 54.5h-2l-102 -497h-115l311 1452q35 163 75.5 250t107.5 155.5t144.5 102.5t170.5 34q126 0 209.5 -71.5t83.5 -184.5q0 -96 -40.5 -176t-121.5 -138t-170 -73l-2 -6q73 -10 138 -53t96.5 -106.5t31.5 -141.5q0 -170 -78 -315.5
t-208.5 -227.5t-284.5 -82zM858 623q0 229 -235 229h-105l19 84h84q78 0 155 47.5t124.5 127t47.5 167.5q0 95 -55.5 151t-147.5 56q-143 0 -222.5 -98t-127.5 -316l-186 -876q10 -59 78 -105.5t159 -46.5q109 0 204 77.5t151.5 213.5t56.5 289z" />
    <glyph glyph-name="gamma" unicode="&#x3b3;" horiz-adv-x="989" 
d="M920 1008q31 0 50 -19.5t19 -50.5q0 -63 -45 -145.5t-115 -182.5q-25 -39 -145 -198q-159 -208 -260 -379l-9 -93q-17 -177 -34 -244t-44 -103.5t-73 -36.5q-49 0 -49 53q0 34 43 156.5t94 248.5q-4 252 -119 777q-13 56 -35.5 81t-66.5 25q-48 0 -104 -16l10 53
q60 29 112 44t78 15q54 0 77.5 -38t52.5 -171t51 -280t22 -225q0 -69 -2 -109q61 101 188 275l52 71q67 104 95.5 169t37.5 169q3 68 34 111t85 43z" />
    <glyph glyph-name="delta" unicode="&#x3b4;" horiz-adv-x="1006" 
d="M748 1550q129 0 204.5 -51.5t75.5 -136.5q0 -55 -28 -95t-72 -40q-34 0 -51 17t-17 40q0 43 47 150q-22 22 -78 37.5t-108 15.5q-123 0 -202 -62t-79 -161q0 -47 16 -80t53 -64t165 -108q137 -84 197.5 -177.5t60.5 -238.5q0 -165 -69 -310.5t-189.5 -230t-265.5 -84.5
q-157 0 -248.5 102t-91.5 277q0 232 129.5 393t363.5 213v7q-136 73 -191 139.5t-55 161.5q0 82 53.5 148.5t151.5 102t228 35.5zM805 594q0 212 -178 317q-132 -14 -229.5 -89.5t-150 -196.5t-52.5 -269q0 -151 58 -234t169 -83q100 0 186.5 71.5t141.5 204.5t55 279z" />
    <glyph glyph-name="epsilon" unicode="&#x3b5;" horiz-adv-x="872" 
d="M813 246q-77 -129 -195 -201t-249 -72q-158 0 -245 70.5t-87 196.5q0 120 91 194t239 84v10q-105 20 -161 72.5t-56 132.5q0 124 104.5 198.5t284.5 74.5q84 0 150 -25.5t101 -69.5t35 -96q0 -63 -29 -100t-71 -37q-35 0 -55.5 19.5t-20.5 50.5q0 27 14 62t29 79
q-60 49 -170 49q-115 0 -184.5 -57.5t-69.5 -145.5q0 -83 50.5 -128.5t144.5 -45.5h98l-18 -88h-84q-151 0 -227 -60.5t-76 -160.5q0 -86 61.5 -139.5t167.5 -53.5q113 0 205 55t170 171z" />
    <glyph glyph-name="zeta" unicode="&#x3b6;" horiz-adv-x="809" 
d="M180 383q0 -112 49 -172.5t162 -77.5l101 -10q107 -4 155.5 -46t48.5 -128q0 -156 -109.5 -256.5t-279.5 -100.5q-78 0 -124 23.5t-46 67.5q0 37 27 58t72 21t85 -23.5t87 -55.5q49 3 95.5 31.5t73.5 74.5t27 105q0 54 -30.5 80.5t-108.5 31.5l-84 8q-150 11 -231.5 92
t-81.5 222q0 243 178.5 482.5t597.5 541.5v8q-200 -17 -369 -17q-180 0 -180 107q0 38 25 62t65 24q35 0 61.5 -18.5t52.5 -40t57.5 -40t76.5 -18.5q135 0 356 17l-16 -74q-268 -185 -406.5 -307.5t-220 -230t-124 -218.5t-42.5 -223z" />
    <glyph glyph-name="eta" unicode="&#x3b7;" horiz-adv-x="1081" 
d="M698 -444h-116l231 1054q25 122 25 172q0 57 -37.5 94t-102.5 37q-71 0 -165 -50.5t-160 -123.5l-170 -739h-113l152 664q24 96 24 157q0 44 -17 60t-61 16q-54 0 -110 -16l10 53q123 59 213 59q51 0 70.5 -28.5t19.5 -83.5l-2 -41h6q204 166 373 166q87 0 137.5 -56
t50.5 -145q0 -61 -20 -152z" />
    <glyph glyph-name="theta" unicode="&#x3b8;" horiz-adv-x="1038" 
d="M406 -29q-147 0 -224.5 122t-77.5 351q0 87 13 234q36 207 90.5 354.5t142 274t179 185t192.5 58.5q146 0 221.5 -123t75.5 -350q0 -219 -46.5 -412t-141.5 -362t-200.5 -250.5t-223.5 -81.5zM872 825q33 156 33 334q0 155 -49.5 238.5t-146.5 83.5q-144 0 -254 -173
t-174 -483h591zM262 750q-28 -134 -37.5 -214t-9.5 -163q0 -334 201 -334q144 0 252.5 175t187.5 536h-594z" />
    <glyph glyph-name="iota" unicode="&#x3b9;" horiz-adv-x="512" 
d="M387 989l10 -12l-151 -655q-31 -134 -31 -170q0 -42 26 -56t64 -14q67 0 119 16l-10 -53q-116 -61 -217 -61q-109 0 -109 112q0 45 18 117l179 766z" />
    <glyph glyph-name="kappa" unicode="&#x3ba;" horiz-adv-x="1047" 
d="M307 492h2q146 140 467 413q57 48 95 68t75 20q40 0 63 -26.5t23 -61.5q0 -38 -24 -63t-64 -25q-41 0 -104 17q-131 -78 -318 -236q34 -81 66 -149.5t88 -181t99 -151t99 -38.5q30 0 75 7.5t57 10.5l-11 -53q-106 -53 -204 -53q-49 0 -87 29t-78 101.5t-100.5 205.5
t-83.5 194l-159 -131l-86 -389h-113l154 664q26 121 26 161q0 35 -16 53.5t-60 18.5q-36 0 -116 -20l14 53q126 63 207 63q98 0 98 -100q0 -52 -24 -148z" />
    <glyph glyph-name="lambda" unicode="&#x3bb;" horiz-adv-x="969" 
d="M766 -18q-51 0 -79.5 47t-41.5 170l-14 123q-30 277 -62 499q-133 -192 -311 -470t-217 -351h-143l645 977q-54 348 -107 405h-71q-113 0 -113 80q0 35 28 61.5t80 26.5q68 0 114.5 -41t72.5 -139t57 -283q111 -671 148 -845q22 -108 46 -136t89 -28h71l-12 -58
q-32 -12 -89 -25t-91 -13z" />
    <glyph glyph-name="uni03BC" unicode="&#x3bc;" horiz-adv-x="1079" 
d="M141 98h-4q-28 -120 -38 -199.5t-13 -187.5q-4 -155 -88 -155q-32 0 -50 19t-18 48q0 31 15 78t53 138q43 104 100 341l187 799l102 10l12 -14l-141 -600q-27 -126 -27 -166q0 -59 37 -98t115 -39q68 0 158.5 46.5t158.5 114.5l177 746l102 10l12 -14l-157 -658
q-31 -124 -31 -165q0 -42 26 -56t80 -14q15 0 48.5 4t50.5 10l-11 -51q-116 -59 -215 -59q-52 0 -81 30.5t-29 88.5l2 28h-6q-102 -85 -177 -119t-157 -34q-73 0 -125 31t-68 87z" />
    <glyph glyph-name="nu" unicode="&#x3bd;" horiz-adv-x="989" 
d="M131 897q-40 0 -104 -16l10 53q40 21 97 40t95 19q51 0 76 -33t43 -124q54 -262 90 -633q63 97 125 184q92 129 143 214t70 136t25 121q4 67 35.5 108.5t81.5 41.5q34 0 52.5 -19.5t18.5 -50.5q0 -52 -32.5 -116t-143.5 -210q-69 -92 -276 -389q-69 -99 -140 -231h-39
l-23 184q-18 151 -41.5 314t-57.5 315q-11 46 -33.5 69t-71.5 23z" />
    <glyph glyph-name="xi" unicode="&#x3be;" horiz-adv-x="856" 
d="M356 -408q-77 0 -124.5 23.5t-47.5 65.5q0 38 26.5 59.5t74.5 21.5q42 0 83.5 -23.5t86.5 -55.5q50 3 96 31t73 74.5t27 105.5q0 53 -29.5 76.5t-107.5 23.5h-133q-149 0 -239.5 81.5t-90.5 211.5q0 121 60 222t167 167.5t236 85.5v4q-246 52 -246 238q0 242 367 337v9
l-207 -2q-91 0 -134.5 27.5t-43.5 72.5q0 86 90 86q42 0 71.5 -18t57.5 -39.5t59 -39.5t76 -18q153 0 393 15l-28 -93l-74 -4q-233 -13 -372.5 -100.5t-139.5 -218.5q0 -97 71 -155t193 -58h162l-27 -98h-164q-126 0 -230.5 -46.5t-164 -131t-59.5 -191.5q0 -108 63 -167.5
t174 -59.5h142q110 0 155 -39t45 -125q0 -98 -50 -180.5t-138.5 -128.5t-198.5 -46z" />
    <glyph glyph-name="omicron" unicode="&#x3bf;" horiz-adv-x="1038" 
d="M971 627q0 -176 -76.5 -332t-205.5 -240t-286 -84q-148 0 -241.5 103t-93.5 276q0 180 77.5 334t205.5 238t280 84q155 0 247.5 -104.5t92.5 -274.5zM844 623q0 154 -60 234.5t-174 80.5q-118 0 -210.5 -70t-148.5 -210.5t-56 -297.5q0 -160 60 -240.5t175 -80.5
q121 0 215.5 76.5t146.5 210t52 297.5z" />
    <glyph glyph-name="pi" unicode="&#x3c0;" horiz-adv-x="1180" 
d="M170 129q69 63 131 184t108.5 284t55.5 286h-33q-86 0 -139 -43.5t-86 -151.5l-53 2q17 156 90 224.5t198 68.5h779l-25 -100h-217l-131 -561q-31 -134 -31 -170q0 -42 26 -56t64 -14q67 0 119 16l-10 -53q-116 -61 -217 -61q-109 0 -109 112q0 41 19 117l155 670h-311
q-34 -204 -85 -366t-114.5 -279.5t-138 -186.5t-135.5 -69q-90 0 -90 84q0 32 21.5 58t66.5 26q44 0 92 -21z" />
    <glyph glyph-name="rho" unicode="&#x3c1;" horiz-adv-x="1059" 
d="M426 -25q-165 0 -252 78h-2l-102 -497h-115l211 987q46 218 177 340.5t316 122.5q149 0 240.5 -106.5t91.5 -281.5q0 -177 -76 -325.5t-207 -233t-282 -84.5zM860 637q0 143 -53.5 222t-157.5 79q-259 0 -354 -354q-15 -55 -28.5 -116.5t-57.5 -272.5q11 -61 79.5 -106.5
t153.5 -45.5q113 0 209.5 79.5t152.5 217t56 297.5z" />
    <glyph glyph-name="sigma1" unicode="&#x3c2;" horiz-adv-x="831" 
d="M758 702q-34 0 -54 21t-20 49q0 37 41 119q-49 49 -150 49q-104 0 -189 -67t-138 -192.5t-53 -266.5q0 -83 25.5 -137.5t79.5 -86t220 -63.5l60 -12q69 -16 103 -56.5t34 -115.5q0 -97 -49.5 -178t-138.5 -127t-197 -46q-174 0 -174 93q0 37 28.5 57t71.5 20t84 -23.5
t86 -55.5q89 10 143 68.5t54 148.5q0 80 -86 100l-59 12q-123 22 -173 39q-123 40 -181 128t-58 227q0 165 70 302t191.5 217.5t254.5 80.5q117 0 195.5 -53t78.5 -126q0 -58 -28.5 -91.5t-71.5 -33.5z" />
    <glyph glyph-name="sigma" unicode="&#x3c3;" horiz-adv-x="1061" 
d="M1139 983l-23 -100h-282l-3 -4q99 -125 99 -265q0 -166 -75.5 -321t-196.5 -238.5t-269 -83.5q-142 0 -231.5 103.5t-89.5 275.5q0 177 70 322.5t197 228t283 82.5h521zM803 623q0 75 -15 134.5t-55 125.5h-108q-128 0 -224.5 -67t-151 -190t-54.5 -266q0 -162 57 -241.5
t164 -79.5q113 0 202 77t137 212.5t48 294.5z" />
    <glyph glyph-name="tau" unicode="&#x3c4;" horiz-adv-x="891" 
d="M406 176q0 -49 24.5 -70.5t83.5 -21.5q85 0 160 20l-12 -61q-115 -59 -230 -59q-68 0 -110.5 39t-42.5 104q0 53 14 115l149 641h-102q-86 0 -139 -43.5t-86 -151.5l-54 2q17 153 89.5 223t199.5 70h582l-25 -100h-352l-125 -547q-24 -98 -24 -160z" />
    <glyph glyph-name="upsilon" unicode="&#x3c5;" horiz-adv-x="1067" 
d="M821 924q0 32 20 57t60 25q43 0 67.5 -43.5t24.5 -110.5q0 -246 -80 -448.5t-222 -317.5t-312 -115q-112 0 -179 62t-67 168q0 64 25 151l56 202q56 199 56 271t-71 72q-32 0 -74.5 -9.5t-52.5 -13.5l12 54q132 65 219 65q96 0 96 -104q0 -47 -12 -105l-117 -452
q-16 -71 -16 -121q0 -65 44 -102t124 -37q129 0 235.5 78t173 226.5t66.5 297.5q0 52 -12 84.5t-26 57t-26 48.5t-12 60z" />
    <glyph glyph-name="phi" unicode="&#x3c6;" horiz-adv-x="1307" 
d="M506 -444h-115l90 417q-206 19 -309.5 125t-103.5 283q0 232 125 393t354 217v-71q-170 -42 -264.5 -184t-94.5 -345q0 -159 78 -249.5t228 -104.5l155 711q29 126 105 193t190 67q85 0 152 -43.5t105 -128t38 -197.5q0 -186 -84 -336.5t-232.5 -236.5t-328.5 -93z
M1112 664q0 131 -45 201.5t-131 70.5q-65 0 -110 -48t-62 -134l-156 -717q152 10 263.5 86.5t176 219t64.5 321.5z" />
    <glyph glyph-name="chi" unicode="&#x3c7;" horiz-adv-x="975" 
d="M1020 977l-524 -705q62 -229 108.5 -372.5t66.5 -180.5t45 -52t91 -15q31 0 59 4l-12 -59q-117 -41 -178 -41q-47 0 -78.5 33t-55.5 114t-59 258q-30 145 -53 242l-60 -84l-194 -269q-156 -213 -205 -294h-149l579 766q-57 201 -111.5 352.5t-82 187t-76.5 35.5
q-48 0 -104 -16l10 53q50 25 104.5 42t91.5 17q46 0 78 -44t64 -171l88 -385q305 421 416 592l131 6z" />
    <glyph glyph-name="psi" unicode="&#x3c8;" horiz-adv-x="1397" 
d="M881 975l-217 -934q154 5 284 88.5t204.5 226.5t74.5 316q0 54 -12 86.5t-26 57.5t-26 48.5t-12 59.5q0 40 23.5 61t54.5 21q38 0 66 -37t28 -117q0 -397 -177 -629t-501 -254l-90 -413h-119l99 415q-189 15 -282 98.5t-93 229.5q0 64 20 133l64 238q26 93 26 149
q0 78 -69 78q-45 0 -129 -23l12 54q136 65 209 65q45 0 75.5 -28t30.5 -82q0 -55 -20 -131l-78 -297q-22 -88 -22 -142q0 -114 64.5 -183t205.5 -89l215 938l108 10z" />
    <glyph glyph-name="omega" unicode="&#x3c9;" horiz-adv-x="1401" 
d="M711 215q0 -77 41 -122.5t116 -45.5q91 0 162 67t114.5 197.5t43.5 276.5q0 279 -230 340l25 65q154 -33 244 -148.5t90 -271.5q0 -160 -59.5 -301t-164 -221t-233.5 -80q-78 0 -138 45.5t-89 126.5q-119 -172 -289 -172q-130 0 -204 95t-74 268q0 256 143 435.5
t385 223.5v-69q-192 -44 -296.5 -207t-104.5 -414q0 -256 174 -256q183 0 235 250l74 346h117l-72 -346q-10 -47 -10 -82z" />
    <glyph glyph-name="iotadieresis" unicode="&#x3ca;" horiz-adv-x="512" 
d="M387 989l10 -12l-151 -655q-31 -134 -31 -170q0 -42 26 -56t64 -14q67 0 119 16l-10 -53q-116 -61 -217 -61q-109 0 -109 112q0 45 18 117l179 766zM299 1370q0 -42 -23 -71t-65 -29t-65 29t-23 71q0 43 23 73t65 30t65 -30t23 -73zM707 1370q0 -42 -23.5 -71t-65.5 -29
t-65 29t-23 71q0 43 23 73t65 30t65.5 -30t23.5 -73z" />
    <glyph glyph-name="upsilondieresis" unicode="&#x3cb;" horiz-adv-x="1067" 
d="M821 924q0 32 20 57t60 25q43 0 67.5 -43.5t24.5 -110.5q0 -246 -80 -448.5t-222 -317.5t-312 -115q-112 0 -179 62t-67 168q0 64 25 151l56 202q56 199 56 271t-71 72q-32 0 -74.5 -9.5t-52.5 -13.5l12 54q132 65 219 65q96 0 96 -104q0 -47 -12 -105l-117 -452
q-16 -71 -16 -121q0 -65 44 -102t124 -37q129 0 235.5 78t173 226.5t66.5 297.5q0 52 -12 84.5t-26 57t-26 48.5t-12 60zM526 1370q0 -42 -23 -71t-65 -29t-65 29t-23 71q0 43 23 73t65 30t65 -30t23 -73zM934 1370q0 -42 -23.5 -71t-65.5 -29t-65 29t-23 71q0 43 23 73
t65 30t65.5 -30t23.5 -73z" />
    <glyph glyph-name="omicrontonos" unicode="&#x3cc;" horiz-adv-x="1038" 
d="M971 627q0 -176 -76.5 -332t-205.5 -240t-286 -84q-148 0 -241.5 103t-93.5 276q0 180 77.5 334t205.5 238t280 84q155 0 247.5 -104.5t92.5 -274.5zM844 623q0 154 -60 234.5t-174 80.5q-118 0 -210.5 -70t-148.5 -210.5t-56 -297.5q0 -160 60 -240.5t175 -80.5
q121 0 215.5 76.5t146.5 210t52 297.5zM612 1143h-57l170 416h180v-19z" />
    <glyph glyph-name="upsilontonos" unicode="&#x3cd;" horiz-adv-x="1067" 
d="M821 924q0 32 20 57t60 25q43 0 67.5 -43.5t24.5 -110.5q0 -246 -80 -448.5t-222 -317.5t-312 -115q-112 0 -179 62t-67 168q0 64 25 151l56 202q56 199 56 271t-71 72q-32 0 -74.5 -9.5t-52.5 -13.5l12 54q132 65 219 65q96 0 96 -104q0 -47 -12 -105l-117 -452
q-16 -71 -16 -121q0 -65 44 -102t124 -37q129 0 235.5 78t173 226.5t66.5 297.5q0 52 -12 84.5t-26 57t-26 48.5t-12 60zM633 1143h-57l170 416h180v-19z" />
    <glyph glyph-name="omegatonos" unicode="&#x3ce;" horiz-adv-x="1401" 
d="M711 215q0 -77 41 -122.5t116 -45.5q91 0 162 67t114.5 197.5t43.5 276.5q0 279 -230 340l25 65q154 -33 244 -148.5t90 -271.5q0 -160 -59.5 -301t-164 -221t-233.5 -80q-78 0 -138 45.5t-89 126.5q-119 -172 -289 -172q-130 0 -204 95t-74 268q0 256 143 435.5
t385 223.5v-69q-192 -44 -296.5 -207t-104.5 -414q0 -256 174 -256q183 0 235 250l74 346h117l-72 -346q-10 -47 -10 -82zM792 1143h-57l170 416h180v-19z" />
    <glyph glyph-name="uni0401" unicode="&#x401;" horiz-adv-x="1309" 
d="M1364 1419l-80 -332h-61q-7 244 -136 259q-108 6 -210 6h-252l-133 -580h213q86 0 133 20t83.5 75.5t63.5 129.5h64l-123 -534h-62l2 76q0 78 -10 98q-18 35 -59 48t-111 13h-213l-100 -436q-13 -57 -13 -96q0 -52 43 -72t177 -20q155 0 260 15t139 42q83 65 192 275h68
l-121 -406h-1145l13 61q123 7 157 21q50 21 68 96l246 1057q6 30 6 49q0 52 -144 70l-30 4l12 61h1063zM749 1745q0 -42 -23 -71t-65 -29t-65 29t-23 71q0 43 23 72.5t65 29.5t65 -29.5t23 -72.5zM1157 1745q0 -42 -23 -71t-65 -29t-65 29t-23 71q0 43 23 72.5t65 29.5
t65 -29.5t23 -72.5z" />
    <glyph glyph-name="uni0402" unicode="&#x402;" horiz-adv-x="1487" 
d="M532 0h-372l12 61q69 4 131.5 15t89.5 33.5t37 66.5l272 1176h-24q-130 0 -188.5 -8.5t-113 -50t-99.5 -106t-74 -143.5h-70l88 375h1151l-84 -375h-65q0 140 -34 214.5t-97 82.5q-77 11 -197 11h-51l-137 -586q226 121 383 121q151 0 247.5 -96.5t96.5 -249.5
q0 -151 -70 -286t-180 -207.5t-244 -72.5q-90 0 -145.5 33.5t-55.5 87.5q0 48 27 76.5t76 28.5q28 0 49.5 -13.5t38.5 -39t47 -103.5q86 6 157 70t111.5 164t40.5 206q0 139 -73 212t-207 73q-63 0 -123 -13.5t-193 -66.5z" />
    <glyph glyph-name="uni0403" unicode="&#x403;" horiz-adv-x="1118" 
d="M1219 1044h-66v25q0 95 -24 163.5t-64.5 94t-222.5 25.5h-217l-254 -1102q-17 -68 -17 -105q0 -43 47 -59.5t131 -24.5l-14 -61h-543l11 61q123 7 157 21q50 21 68 96l246 1057q6 30 6 49q0 52 -144 70l-30 4l12 61h1002zM752 1518l-29 38l78 75l127 124q88 88 109 100.5
t45 12.5q26 0 44.5 -20.5t18.5 -49.5q0 -32 -16 -56t-72 -56z" />
    <glyph glyph-name="uni0404" unicode="&#x404;" horiz-adv-x="1245" 
d="M1184 328q0 -95 -71.5 -179t-199 -133t-286.5 -49q-154 0 -272 69t-182 198t-64 301q0 233 110 445t295.5 341t374.5 129q109 0 198.5 -29.5t151.5 -79.5l55 78h66l-100 -469h-72q-5 216 -82.5 319t-226.5 103q-136 0 -267 -87.5t-219.5 -236t-118.5 -335.5
q93 51 169 80.5t147 29.5q53 0 91 -12.5t72.5 -27.5t69.5 -27.5t82 -12.5q25 0 65 17t83 47l32 -53q-146 -113 -286 -113q-67 0 -166 39t-160 39q-82 0 -205 -78l-4 -92q0 -240 107 -371t293 -131q194 0 315 121v25q0 103 34 156.5t97 53.5q35 0 54.5 -23t19.5 -52z" />
    <glyph glyph-name="uni0405" unicode="&#x405;" horiz-adv-x="1102" 
d="M504 -23q-129 0 -220.5 25.5t-160.5 79.5l-47 -82h-66l90 471h70q4 -159 41 -246.5t113 -132.5t198 -45q163 0 260 94t97 250q0 79 -39 138.5t-101 86.5q-58 26 -152 60q-156 54 -218.5 101.5t-94.5 111.5t-32 139q0 116 65 211.5t176 151t228 55.5q194 0 329 -98l43 71
h68l-98 -465h-68v21q0 168 -29.5 244t-95 115.5t-180.5 39.5q-130 0 -217.5 -85t-87.5 -216q0 -139 96 -199q60 -34 150 -65q143 -50 206 -85.5t101 -75t61 -92.5t23 -124q0 -123 -70.5 -227.5t-190 -166t-247.5 -61.5z" />
    <glyph glyph-name="uni0406" unicode="&#x406;" horiz-adv-x="729" 
d="M463 1276q0 41 -68 60t-123 22l13 61h565l-14 -61q-107 -8 -164 -28.5t-74 -92.5l-233 -1016q-11 -38 -11 -69q0 -45 51 -65.5t134 -25.5l-13 -61h-565l12 61q131 9 152 17q69 26 86 98l244 1051q8 29 8 49z" />
    <glyph glyph-name="uni0407" unicode="&#x407;" horiz-adv-x="729" 
d="M463 1276q0 41 -68 60t-123 22l13 61h565l-14 -61q-107 -8 -164 -28.5t-74 -92.5l-233 -1016q-11 -38 -11 -69q0 -45 51 -65.5t134 -25.5l-13 -61h-565l12 61q131 9 152 17q69 26 86 98l244 1051q8 29 8 49zM500 1745q0 -42 -23 -71t-65 -29t-65 29t-23 71q0 43 23 73
t65 30t65 -30t23 -73zM908 1745q0 -42 -23.5 -71t-65.5 -29t-65 29t-23 71q0 43 23 73t65 30t65.5 -30t23.5 -73z" />
    <glyph glyph-name="uni0408" unicode="&#x408;" horiz-adv-x="1022" 
d="M788 1276q0 40 -67 59t-123 23l12 61h551l-14 -61q-61 -5 -118 -19.5t-76 -40.5t-27 -63l-193 -827q-47 -202 -175.5 -321.5t-307.5 -119.5q-136 0 -218.5 67.5t-82.5 182.5q0 105 46.5 173.5t119.5 68.5q34 0 56 -23t22 -57q0 -38 -16.5 -71.5t-40 -65t-48.5 -61.5
t-43 -60q24 -42 83 -68t132 -26q93 0 157 46t108 132t89 280l168 750q6 18 6 41z" />
    <glyph glyph-name="uni0409" unicode="&#x409;" horiz-adv-x="1982" 
d="M1217 1346h-379q-69 -344 -167.5 -600.5t-209.5 -426.5t-225.5 -254.5t-215.5 -84.5q-61 0 -99 31t-38 83q0 35 24.5 61.5t65.5 26.5q85 0 129 -100q121 58 241.5 221.5t215 393t133.5 442.5q8 43 8 100q0 54 -44.5 82t-149.5 37l14 61h1041l-15 -61q-112 -9 -155.5 -34
t-59.5 -95l-98 -422q99 8 182 8q223 0 344 -81.5t121 -235.5q0 -150 -78 -263t-218 -174t-310 -61h-547l12 61q115 5 154 27.5t55 97.5zM1716 494q0 120 -81.5 183.5t-239.5 63.5q-119 0 -178 -8l-105 -463q-22 -90 -22 -118q0 -49 44.5 -69t135.5 -20q130 0 229.5 53.5
t158 156t58.5 221.5z" />
    <glyph glyph-name="uni040A" unicode="&#x40a;" horiz-adv-x="2073" 
d="M1286 1284q0 31 -51 49t-109 25l13 61h512l-15 -61q-115 -9 -157 -35.5t-64 -112.5l-92 -401q92 6 182 6q223 0 344 -81.5t121 -235.5q0 -150 -78 -263t-218 -174t-310 -61h-549l12 61l37 3q93 7 124.5 30t45.5 84l125 541h-680l-114 -502q-11 -38 -11 -67t14 -45.5
t55.5 -30t80.5 -13.5l-17 -61h-495l12 61l37 3q93 7 124.5 31t45.5 83l246 1057q6 30 6 49q0 31 -50.5 49t-109.5 25l12 61h502l-14 -61q-98 -9 -143.5 -31t-61.5 -92l-102 -440h682l102 440q6 30 6 49zM1806 494q0 120 -81.5 183.5t-239.5 63.5q-119 0 -178 -8l-105 -463
q-22 -90 -22 -118q0 -49 44.5 -69t135.5 -20q131 0 230 53t157.5 157t58.5 221z" />
    <glyph glyph-name="uni040B" unicode="&#x40b;" horiz-adv-x="1602" 
d="M946 0l12 61q109 4 149.5 26t59.5 99l68 289q25 98 25 150q0 69 -61.5 108t-168.5 39q-90 0 -163.5 -19t-176.5 -71l-102 -444q-13 -49 -13 -84q0 -25 13.5 -42.5t41 -28.5t111.5 -20l-12 -63h-555l10 61l38 3q107 6 141 20t50 37.5t25 64.5l271 1166h-56
q-81 0 -147.5 -7t-120.5 -45t-102 -104t-80 -152h-70l88 375h1151l-82 -364h-65q0 272 -133 288q-74 9 -183 9h-63l-137 -594q92 53 195.5 88t182.5 35q143 0 229.5 -66.5t86.5 -171.5q0 -50 -25 -164l-59 -266q-10 -43 -10 -70q0 -40 45 -61t108 -21l-16 -61h-500z" />
    <glyph glyph-name="uni040C" unicode="&#x40c;" horiz-adv-x="1323" 
d="M487 756h105q48 0 84 10t65 35.5t60 76t103 178.5q114 207 222 289t211 82q65 0 100.5 -28t35.5 -80q0 -33 -24 -57.5t-60 -24.5q-48 0 -80 33t-43 98q-61 -38 -113 -106.5t-116 -190.5q-125 -234 -285 -348v-12q81 -35 125.5 -96.5t72.5 -143.5l84 -272
q30 -89 73 -111.5t128 -26.5l-14 -61h-285q-47 199 -111 414q-42 144 -106.5 206t-188.5 62h-59l-106 -465q-11 -38 -11 -67t14 -45.5t55.5 -30t80.5 -13.5l-17 -61h-495l12 61l37 3q93 7 124.5 31t45.5 83l246 1057q6 30 6 49q0 31 -50.5 49t-109.5 25l12 61h502l-14 -61
q-98 -9 -143.5 -31t-61.5 -92zM840 1518l-29 38l78 75l127 124q88 88 109 100.5t45 12.5q26 0 44.5 -20.5t18.5 -49.5q0 -32 -16 -56t-72 -56z" />
    </font>
</defs>
</svg>
