<?xml version="1.0" standalone="no"?>
<!DOCTYPE svg PUBLIC "-//W3C//DTD SVG 1.1//EN" "http://www.w3.org/Graphics/SVG/1.1/DTD/svg11.dtd" >
<svg xmlns="http://www.w3.org/2000/svg" xmlns:xlink="http://www.w3.org/1999/xlink" version="1.1">
<metadata>
Created by FontForge 20170731 at Sat Nov 12 07:01:06 2011
 By Aleksey,,,
(c) 2011 Microsoft Corporation. All Rights Reserved.
</metadata>
<defs>
<font id="GeorgiaPro-CondItalic" horiz-adv-x="1024" >
  <font-face 
    font-family="Georgia"
    font-weight="400"
    font-style="italic"
    font-stretch="condensed"
    units-per-em="2048"
    panose-1="2 4 5 6 5 4 5 9 3 3"
    ascent="1638"
    descent="-410"
    x-height="979"
    cap-height="1419"
    bbox="-401 -621 2288 1878"
    underline-thickness="96"
    underline-position="-327"
    slope="-13"
    unicode-range="U+0020-FB04"
  />
<missing-glyph horiz-adv-x="2048" 
d="M256 0v1536h1536v-1536h-1536zM385 129h1280v1280h-1280v-1280z" />
    <glyph glyph-name="f_f" unicode="ff" horiz-adv-x="1137" 
d="M1475 1432q0 -49 -28.5 -79t-72.5 -30q-72 0 -127 95l-30 48q-37 -3 -66 -43t-56.5 -126.5t-76.5 -319.5h211l-23 -90h-207l-170 -793q-30 -141 -104 -257.5t-174 -181.5t-201 -65q-83 0 -121.5 34.5t-38.5 84.5q0 47 28 78t73 31q75 0 129 -96l29 -50q55 7 100 99
t86 286l176 830h-356l-176 -828q-30 -142 -103 -257t-174 -180.5t-203 -65.5q-83 0 -121 34t-38 84q0 49 27.5 79t72.5 30q74 0 129 -95l29 -50q55 4 100 97.5t86 287.5l182 864h-153l20 90h154l14 70q29 141 97.5 250t165 169t202.5 60q75 0 117.5 -32t42.5 -87
q0 -44 -28.5 -72t-72.5 -28q-38 0 -68 21.5t-57 69.5l-28 46q-59 -3 -104 -110t-95 -357h358l15 67q30 145 102 261.5t169 179.5t198 63q83 0 121.5 -33.5t38.5 -82.5z" />
    <glyph glyph-name="fi" unicode="fi" horiz-adv-x="1073" 
d="M133 977h154q32 176 104 292.5t191.5 197.5t255.5 81q112 0 173.5 -39t61.5 -116q0 -44 -24 -74.5t-70 -30.5q-43 0 -71 30.5t-43 87.5l-19 64h-29q-235 0 -323 -401l-21 -92h264l252 16l12 -14l-153 -643q-27 -106 -27 -154q0 -49 21 -69.5t78 -20.5q51 0 100 17
l-14 -64q-77 -32 -130.5 -48.5t-99.5 -16.5q-72 0 -112.5 38.5t-40.5 108.5q0 43 18 115l131 542q6 31 6 56q0 17 -14 47h-309l-176 -828q-31 -143 -104.5 -258.5t-173.5 -180t-202 -64.5q-83 0 -121 34t-38 84q0 49 27.5 79t72.5 30q74 0 129 -95l29 -50q55 4 100 97.5
t86 287.5l182 864h-153z" />
    <glyph glyph-name="fl" unicode="fl" horiz-adv-x="1075" 
d="M823 182q0 -51 22.5 -70.5t65.5 -19.5q25 0 61 5.5t56 13.5l-14 -66q-139 -65 -236 -65q-72 0 -113.5 39.5t-41.5 103.5q0 38 18 110l246 1055q16 67 16 90q0 48 -25.5 70t-62.5 22q-118 0 -197.5 -99.5t-123.5 -301.5l-21 -92h211l-20 -90h-209l-176 -828
q-31 -143 -104.5 -258.5t-173.5 -180t-202 -64.5q-83 0 -121 34t-38 84q0 49 27.5 79t72.5 30q74 0 129 -95l29 -50q55 4 100 97.5t86 287.5l182 864h-153l20 90h154l8 39q26 130 76.5 221.5t131 165.5t164.5 109.5t171 35.5q58 0 108.5 -12.5t79.5 -26.5l90 39l10 -14
l-278 -1204q-25 -114 -25 -148z" />
    <glyph glyph-name="f_f_i" unicode="ffi" horiz-adv-x="1618" 
d="M1382 1548q112 0 174 -38.5t62 -116.5q0 -44 -24 -74.5t-70 -30.5q-43 0 -71 30.5t-43 87.5l-19 64h-29q-236 0 -324 -401l-20 -92h264l252 16l12 -14l-153 -643q-27 -106 -27 -154q0 -49 21 -69.5t77 -20.5q52 0 101 17l-15 -64q-77 -32 -130 -48.5t-99 -16.5
q-72 0 -113 38t-41 109q0 39 19 115l131 542q6 31 6 56q0 17 -14 47h-312l-168 -793q-30 -141 -104 -257.5t-174 -181.5t-201 -65q-83 0 -121.5 34.5t-38.5 84.5q0 47 28 78t73 31q75 0 129 -96l29 -50q55 7 100 99t86 286l176 830h-356l-176 -828q-30 -142 -103 -257
t-174 -180.5t-203 -65.5q-83 0 -121 34t-38 84q0 49 27.5 79t72.5 30q74 0 129 -95l29 -50q55 4 100 97.5t86 287.5l182 864h-153l20 90h154l14 70q29 141 97.5 250t165 169t202.5 60q75 0 117.5 -32t42.5 -87q0 -44 -28.5 -72t-72.5 -28q-38 0 -68 21.5t-57 69.5l-28 46
q-59 -3 -104 -110t-95 -357h358q33 158 81.5 251.5t130.5 170t167.5 113t171.5 36.5z" />
    <glyph glyph-name="f_f_l" unicode="ffl" horiz-adv-x="1620" 
d="M1368 182q0 -51 22.5 -70.5t65.5 -19.5q25 0 61 5.5t56 13.5l-14 -66q-139 -65 -236 -65q-73 0 -114.5 39.5t-41.5 103.5q0 34 19 110l246 1055q16 67 16 90q0 48 -25.5 70t-62.5 22q-234 0 -322 -401l-20 -92h211l-21 -90h-209l-170 -793q-30 -141 -104 -257.5
t-174 -181.5t-201 -65q-83 0 -121.5 34.5t-38.5 84.5q0 47 28 78t73 31q75 0 129 -96l29 -50q55 7 100 99t86 286l176 830h-356l-176 -828q-30 -142 -103 -257t-174 -180.5t-203 -65.5q-83 0 -121 34t-38 84q0 49 27.5 79t72.5 30q74 0 129 -95l29 -50q55 4 100 97.5
t86 287.5l182 864h-153l20 90h154l14 70q29 141 97.5 250t165 169t202.5 60q75 0 117.5 -32t42.5 -87q0 -44 -28.5 -72t-72.5 -28q-38 0 -68 21.5t-57 69.5l-28 46q-59 -3 -104 -110t-95 -357h358l9 41q25 125 72.5 214t130.5 166.5t168.5 113.5t170.5 36q58 0 109 -12.5
t80 -26.5l90 39l10 -14l-278 -1204q-25 -102 -25 -148z" />
    <glyph glyph-name="f_j" unicode="fj" horiz-adv-x="1063" 
d="M797 840q0 22 -13 47h-329l-176 -828q-31 -143 -104.5 -258.5t-173.5 -180t-202 -64.5q-83 0 -121 34t-38 84q0 49 27.5 79t72.5 30q74 0 129 -95l29 -50q55 4 100 97.5t86 287.5l182 864h-153l20 90h154q32 176 104 292.5t191.5 197.5t255.5 81q112 0 173.5 -39
t61.5 -116q0 -44 -24 -74.5t-70 -30.5q-43 0 -71 30.5t-43 87.5l-19 64h-29q-235 0 -323 -401l-21 -92h283l252 16l12 -14q-54 -215 -148 -688l-43 -201q-33 -143 -107 -258.5t-173 -179.5t-199 -64q-83 0 -121.5 34.5t-38.5 84.5q0 47 25.5 78t67.5 31q66 0 116 -96l27 -50
q57 5 101 74t86.5 230t177.5 810q6 31 6 56z" />
    <glyph glyph-name=".notdef" horiz-adv-x="2048" 
d="M256 0v1536h1536v-1536h-1536zM385 129h1280v1280h-1280v-1280z" />
    <glyph glyph-name=".null" horiz-adv-x="0" 
 />
    <glyph glyph-name="nonmarkingreturn" horiz-adv-x="451" 
 />
    <glyph glyph-name="space" unicode=" " horiz-adv-x="451" 
 />
    <glyph glyph-name="space" unicode="&#xa0;" horiz-adv-x="451" 
 />
    <glyph glyph-name="exclam" unicode="!" horiz-adv-x="678" 
d="M668 1356q0 -34 -29 -123l-272 -801h-78q35 240 73 557q25 206 37 282.5t33.5 110.5t56 54t76.5 20q50 0 76.5 -27.5t26.5 -72.5zM410 115q0 -56 -40.5 -95.5t-97.5 -39.5t-97 39.5t-40 95.5t40 96.5t97 40.5t97.5 -40.5t40.5 -96.5z" />
    <glyph glyph-name="quotedbl" unicode="&#x22;" horiz-adv-x="803" 
d="M866 1442q0 -32 -53 -162q-89 -219 -123 -313h-61l6 289q1 133 6 161q9 47 43 80t90 33q48 0 70 -25.5t22 -62.5zM532 1442q0 -36 -52 -162q-88 -212 -126 -313h-59l4 289q1 130 9.5 167.5t34 65.5t60.5 36.5t37 4.5q48 0 70 -25.5t22 -62.5z" />
    <glyph glyph-name="numbersign" unicode="#" horiz-adv-x="1276" 
d="M1139 745h-232l-94 -251h260l-26 -123h-279l-139 -371h-113l139 371h-176l-137 -371h-113l140 371h-213l26 123h234l94 251h-262l28 123h279l137 363h111l-137 -363h176l137 363h111l-138 -363h215zM618 745l-96 -253h180l99 253h-183z" />
    <glyph glyph-name="dollar" unicode="$" horiz-adv-x="1165" 
d="M1100 1053q0 -62 -32.5 -105t-82.5 -43q-48 0 -71 23t-23 61q0 28 29 110l10 31q-8 35 -44 62t-85 31l-113 -488q167 -66 241.5 -144t74.5 -183q0 -179 -139.5 -299.5t-350.5 -126.5l-61 -281h-93l68 279q-145 6 -234.5 81t-89.5 189q0 73 38.5 122.5t95.5 49.5
q51 0 77.5 -25t26.5 -63q0 -48 -76 -158q18 -56 60 -85t116 -36l123 529l-60 27q-126 53 -182.5 121t-56.5 167q0 110 61.5 201.5t168 143.5t233.5 52l51 228h92l-55 -228q124 -15 203.5 -84t79.5 -159zM713 1221q-123 0 -192.5 -66t-69.5 -180q0 -44 11 -78t36 -61t108 -72
zM813 332q0 71 -30.5 121t-96.5 84l-39 18l-117 -502q133 0 208 74.5t75 204.5z" />
    <glyph glyph-name="percent" unicode="%" horiz-adv-x="1591" 
d="M823 1171q0 -125 -48 -231t-133 -166.5t-189 -60.5q-119 0 -182.5 74t-63.5 204q0 122 48.5 230.5t133 169.5t189.5 61q114 0 179.5 -75t65.5 -206zM217 0h-143l1374 1423h145zM1456 428q0 -195 -104 -327t-265 -132q-117 0 -182 73.5t-65 205.5q0 122 48 229t133 169.5
t191 62.5q113 0 178.5 -74.5t65.5 -206.5zM659 1196q0 88 -25.5 139t-72.5 51q-82 0 -135 -118.5t-53 -300.5q0 -91 25.5 -139t72.5 -48q79 0 133.5 122t54.5 294zM1292 453q0 90 -25 139t-73 49q-83 0 -135.5 -120t-52.5 -300q0 -84 25.5 -134t74.5 -50q78 0 132 123
t54 293z" />
    <glyph glyph-name="ampersand" unicode="&#x26;" horiz-adv-x="1350" 
d="M864 307q33 -58 81 -118.5t81 -77.5t92 -30t99 -15l-17 -66h-360l-107 180q-127 -123 -218 -169t-177 -46q-142 0 -231 88t-89 232q0 147 91.5 264.5t302.5 238.5q-38 99 -52 162.5t-14 124.5q0 113 46.5 198.5t130 132t186.5 46.5q108 0 171.5 -65t63.5 -170
q0 -122 -74 -216t-262 -194q126 -260 153.5 -313.5t67.5 -126.5q137 166 185.5 258t48.5 133q0 26 -32 43t-103 33l16 65h492l-17 -65q-74 -11 -118.5 -30.5t-79 -49.5t-149.5 -190q-123 -171 -208 -257zM811 1212q0 75 -31 116.5t-90 41.5q-76 0 -123 -67t-47 -164
q0 -123 64 -277q123 69 175 154.5t52 195.5zM696 236q-144 257 -258 495q-97 -63 -147.5 -161.5t-50.5 -217.5q0 -117 53.5 -185.5t146.5 -68.5q135 0 256 138z" />
    <glyph glyph-name="quotesingle" unicode="'" horiz-adv-x="440" 
d="M518 1442q0 -32 -53 -162q-89 -219 -123 -313h-61l6 289q1 130 8 161q8 47 41.5 80t89.5 33q48 0 70 -25.5t22 -62.5z" />
    <glyph glyph-name="parenleft" unicode="(" horiz-adv-x="707" 
d="M295 221q0 -429 203 -477l-17 -72q-177 24 -276 185t-99 432q0 319 95.5 592.5t267.5 448t379 202.5l-12 -82q-152 -29 -275 -203t-194.5 -453t-71.5 -573z" />
    <glyph glyph-name="parenright" unicode=")" horiz-adv-x="707" 
d="M651 915q0 -322 -96 -596t-267.5 -446.5t-377.5 -200.5l14 80q149 30 272 202t195 451t72 578q0 212 -52.5 331.5t-150.5 143.5l14 74q180 -26 278.5 -185t98.5 -432z" />
    <glyph glyph-name="asterisk" unicode="*" horiz-adv-x="967" 
d="M1008 1100q0 -72 -74 -72q-15 0 -42 7q-165 39 -251 48q45 -62 83 -103t65 -70t42 -51.5t15 -47.5q0 -27 -23 -46.5t-53 -19.5q-35 0 -59 39q-10 16 -36 106q-28 94 -65 177q-32 -71 -64 -177l-20 -65l-16 -41q-24 -39 -61 -39q-29 0 -51.5 19.5t-22.5 46.5q0 25 15 47.5
t42 51.5t65 70t83 103q-92 -10 -251 -48q-27 -7 -42 -7q-74 0 -74 72q0 34 21 51.5t53 17.5q15 0 42 -6q172 -38 251 -47q-45 62 -83 103.5t-65 70.5t-42 51.5t-15 47.5t23 45t51 20q38 0 61 -39l16 -40q27 -87 43 -136t41 -104q38 84 65 176q26 88 38 107.5t28 28.5t29 7
q29 0 52.5 -19.5t23.5 -45.5q0 -25 -15 -47.5t-42 -51.5t-65 -70.5t-83 -103.5q64 7 186 33q93 20 107 20q32 0 53 -17.5t21 -51.5z" />
    <glyph glyph-name="plus" unicode="+" horiz-adv-x="1317" 
d="M748 498v-453h-127v453h-451v125h451v450h127v-450h450v-125h-450z" />
    <glyph glyph-name="comma" unicode="," horiz-adv-x="553" 
d="M414 98q0 -128 -99.5 -248t-271.5 -204l-31 67q230 122 283 289h-47q-60 0 -90.5 28.5t-30.5 82.5q0 58 42 98.5t105 40.5q74 0 107 -42.5t33 -111.5z" />
    <glyph glyph-name="hyphen" unicode="-" horiz-adv-x="766" 
d="M676 469h-596l35 152h596z" />
    <glyph glyph-name="hyphen" unicode="&#xad;" horiz-adv-x="766" 
d="M676 469h-596l35 152h596z" />
    <glyph glyph-name="period" unicode="." horiz-adv-x="553" 
d="M399 115q0 -58 -40 -96.5t-97 -38.5t-96 39t-39 96t39.5 97t95.5 40t96.5 -39.5t40.5 -97.5z" />
    <glyph glyph-name="slash" unicode="/" horiz-adv-x="879" 
d="M23 -424h-140l951 1948h139z" />
    <glyph glyph-name="zero" unicode="0" horiz-adv-x="1071" 
d="M438 -33q-170 0 -268 126.5t-98 348.5q0 161 48.5 358t134.5 342.5t200.5 224.5t246.5 79q164 0 257.5 -126.5t93.5 -340.5q0 -153 -46 -361t-127.5 -354.5t-193.5 -221.5t-248 -75zM840 1063q0 162 -35.5 234.5t-108.5 72.5q-104 0 -187.5 -130t-153.5 -417t-70 -456
q0 -178 36.5 -251t114.5 -73q77 0 136.5 61.5t108.5 184t104 367.5t55 407z" />
    <glyph glyph-name="one" unicode="1" horiz-adv-x="1071" 
d="M43 0l14 66q124 5 209 20q31 6 54 31t32 65l258 1086h-282l18 78h100q207 0 336 100h82l-78 -305l-219 -938l-6 -43q0 -33 21 -52t62.5 -27.5t170.5 -17.5l-16 -63h-756z" />
    <glyph glyph-name="two" unicode="2" horiz-adv-x="1071" 
d="M866 0h-889l33 135q60 103 145 193.5t294 253.5q138 107 207 188.5t104 169.5t35 188q0 119 -44 179.5t-124 60.5q-58 0 -106.5 -26.5t-69.5 -63.5l4 -94q0 -172 -148 -172q-52 0 -75 24.5t-23 61.5q0 84 67 166.5t174 132t216 49.5q152 0 248 -94t96 -242
q0 -182 -117 -317q-53 -69 -139 -135t-207 -140q-174 -108 -261.5 -185.5t-135.5 -158.5h753z" />
    <glyph glyph-name="three" unicode="3" horiz-adv-x="1071" 
d="M1012 1161q0 -137 -97 -239t-272 -150l-6 -16q140 -15 218.5 -88.5t78.5 -184.5q0 -140 -75 -258t-205 -186t-279 -68q-106 0 -189 32.5t-128 89t-45 126.5q0 71 39 118.5t98 47.5q48 0 77 -24.5t29 -61.5q0 -49 -42 -129l-17 -35q18 -37 71 -61.5t119 -24.5
q87 0 165.5 58.5t123.5 160.5t45 232q0 92 -53.5 141t-155.5 49h-123l27 111h80q136 0 219.5 103.5t83.5 273.5q0 186 -145 186q-52 0 -96.5 -22.5t-73.5 -59.5l2 -88q0 -186 -160 -186q-88 0 -88 88q0 80 61.5 162.5t164 133t220.5 50.5q110 0 182 -36t109 -98t37 -147z
" />
    <glyph glyph-name="four" unicode="4" horiz-adv-x="1071" 
d="M1004 436h-213l-101 -436h-192l100 436h-559l39 162l803 842h141l-205 -879h215zM164 561h461l153 641z" />
    <glyph glyph-name="five" unicode="5" horiz-adv-x="1071" 
d="M1044 1243h-571l-137 -426q62 44 133 69t137 25q93 0 170.5 -40.5t123.5 -117t46 -180.5q0 -152 -77.5 -288.5t-217.5 -219.5t-291 -83q-145 0 -247.5 69t-102.5 170q0 64 38 112t97 48q50 0 79.5 -23.5t29.5 -62.5q0 -48 -40 -124l-17 -36q53 -76 188 -76q88 0 170 68
t130 182t48 246q0 109 -58 178.5t-151 69.5q-78 0 -151.5 -37.5t-116.5 -93.5l-66 26l240 721h657z" />
    <glyph glyph-name="six" unicode="6" horiz-adv-x="1071" 
d="M994 549q0 -155 -72 -290t-194 -212.5t-261 -77.5q-176 0 -277.5 120.5t-101.5 336.5q0 243 116 461t325 369.5t457 199.5v-94l-56 -10q-204 -63 -355 -216t-220 -366q163 139 340 139q128 0 213.5 -102.5t85.5 -257.5zM781 520q0 128 -52 203.5t-143 75.5
q-135 0 -250 -127q-15 -43 -28 -124t-13 -161q0 -167 50 -254.5t143 -87.5q78 0 145.5 62.5t107.5 175t40 237.5z" />
    <glyph glyph-name="seven" unicode="7" horiz-adv-x="1071" 
d="M223 -18h-131l899 1273h-368q-149 0 -195 -9.5t-72.5 -35.5t-52.5 -71.5t-51 -110.5h-66l90 391h920l-14 -65z" />
    <glyph glyph-name="eight" unicode="8" horiz-adv-x="1071" 
d="M1042 1151q0 -125 -73.5 -229.5t-229.5 -176.5q112 -58 164.5 -136t52.5 -181q0 -123 -71 -231t-195.5 -170t-275.5 -62q-176 0 -278.5 91t-102.5 241q0 157 92 261.5t270 172.5q-86 62 -126 139t-40 158q0 111 66 211.5t178 158.5t238 58q150 0 240.5 -82.5t90.5 -222.5
zM850 1163q0 104 -44 161.5t-124 57.5q-112 0 -184 -84t-72 -215q0 -97 55.5 -164.5t196.5 -138.5q82 52 127 155.5t45 227.5zM756 369q0 97 -60 166.5t-237 160.5q-117 -63 -172.5 -165t-55.5 -228q0 -121 59 -191.5t161 -70.5q136 0 220.5 92t84.5 236z" />
    <glyph glyph-name="nine" unicode="9" horiz-adv-x="1071" 
d="M1038 996q0 -268 -118 -499t-323 -371.5t-456 -166.5v97l80 12q194 30 332 171t217 390q-82 -70 -154.5 -100.5t-167.5 -30.5q-134 0 -218.5 99.5t-84.5 260.5q0 148 69.5 283.5t188.5 215t256 79.5q175 0 277 -120.5t102 -319.5zM831 1035q0 157 -51 242t-139 85
q-77 0 -140 -62.5t-103 -182t-40 -242.5q0 -125 47 -195.5t133 -70.5q141 0 252 118q41 110 41 308z" />
    <glyph glyph-name="colon" unicode=":" horiz-adv-x="786" 
d="M612 854q0 -59 -40.5 -98t-96.5 -39t-96.5 39t-40.5 98q0 57 40.5 96t96.5 39t96.5 -39t40.5 -96zM446 115q0 -59 -41.5 -97t-95.5 -38q-55 0 -96 38t-41 97q0 58 41 97.5t96 39.5t96 -39.5t41 -97.5z" />
    <glyph glyph-name="semicolon" unicode=";" horiz-adv-x="786" 
d="M612 854q0 -59 -40.5 -98t-96.5 -39t-96.5 39t-40.5 98q0 57 40.5 96t96.5 39t96.5 -39t40.5 -96zM463 98q0 -127 -97.5 -246t-273.5 -206l-31 67q230 122 283 289h-47q-61 0 -92 29.5t-31 81.5q0 57 43 98t107 41q139 0 139 -154z" />
    <glyph glyph-name="semicolon" unicode="&#x37e;" horiz-adv-x="786" 
d="M612 854q0 -59 -40.5 -98t-96.5 -39t-96.5 39t-40.5 98q0 57 40.5 96t96.5 39t96.5 -39t40.5 -96zM463 98q0 -127 -97.5 -246t-273.5 -206l-31 67q230 122 283 289h-47q-61 0 -92 29.5t-31 81.5q0 57 43 98t107 41q139 0 139 -154z" />
    <glyph glyph-name="less" unicode="&#x3c;" horiz-adv-x="1317" 
d="M217 504v112l926 482v-137l-768 -402l768 -399v-137z" />
    <glyph glyph-name="equal" unicode="=" horiz-adv-x="1317" 
d="M178 682v127h1010v-127h-1010zM178 311v125h1010v-125h-1010z" />
    <glyph glyph-name="greater" unicode="&#x3e;" horiz-adv-x="1317" 
d="M223 23v137l770 399l-770 402v137l926 -482v-112z" />
    <glyph glyph-name="question" unicode="?" horiz-adv-x="887" 
d="M924 1118q0 -216 -137 -356.5t-367 -171.5l-51 -213h-93l80 379q189 18 286 118.5t97 278.5q0 105 -42 165t-119 60q-31 0 -60 -13.5t-45 -27.5q0 -88 -1 -105.5t-3 -31.5q-9 -45 -48 -73.5t-99 -28.5q-44 0 -63 26.5t-19 61.5q0 65 47 128t127 100.5t176 37.5
q157 0 245.5 -92t88.5 -242zM422 115q0 -56 -40.5 -95.5t-96.5 -39.5q-58 0 -98 39.5t-40 95.5t40 96.5t98 40.5q56 0 96.5 -40t40.5 -97z" />
    <glyph glyph-name="at" unicode="@" horiz-adv-x="1817" 
d="M1473 -119q-104 -93 -236.5 -143.5t-278.5 -50.5q-216 0 -395 103.5t-274.5 279.5t-95.5 407q0 236 110.5 444.5t307 328.5t436.5 120q187 0 329 -78t223.5 -229.5t81.5 -345.5q0 -160 -59 -295.5t-164 -211t-235 -75.5q-84 0 -140.5 45.5t-62.5 118.5h-8
q-45 -75 -101.5 -117.5t-111.5 -42.5q-101 0 -156 72.5t-55 204.5q0 79 38.5 182.5t99.5 185t138.5 127t161.5 45.5q120 0 143 -125h7l41 113h149l-190 -538q-19 -49 -19 -109q0 -98 88 -98q99 0 179 68t123.5 189.5t43.5 270.5q0 164 -67 292.5t-192.5 198.5t-291.5 70
q-183 0 -344.5 -105t-251.5 -286t-90 -403q0 -227 75 -392t214.5 -251.5t327.5 -86.5q152 0 265.5 44t205.5 124zM1145 741q-22 156 -123 156q-65 0 -124.5 -70t-98.5 -191.5t-39 -236.5q0 -176 76 -176q52 0 96 37.5t98 142.5z" />
    <glyph glyph-name="A" unicode="A" horiz-adv-x="1251" 
d="M1180 0h-539l14 66q85 10 114.5 19t47 22t17.5 34l-33 353h-432q-44 -71 -110 -197t-66 -154q0 -32 48 -52.5t117 -24.5l-12 -66h-506l15 66q90 8 149 51.5t105 124.5q124 204 345 583l357 615h80l147 -1229q8 -63 45 -100.5t111 -44.5zM731 1133l-315 -558h379z" />
    <glyph glyph-name="B" unicode="B" horiz-adv-x="1241" 
d="M1200 1167q0 -150 -108 -254.5t-306 -146.5v-8q170 -24 261.5 -105t91.5 -200q0 -131 -69 -233.5t-193.5 -161t-264.5 -58.5h-637l17 66q111 9 148.5 35t52.5 87l235 1031q6 21 6 38q0 44 -41 68t-98 29l12 65h563q152 0 241 -68t89 -184zM958 1157q0 89 -44.5 139
t-131.5 50l-112 -5l-127 -553h104q145 0 228 101.5t83 267.5zM893 483q0 107 -60 168.5t-165 61.5q-94 0 -144 -4l-112 -480q-6 -28 -6 -47q0 -47 42 -72.5t119 -25.5q94 0 166.5 50.5t116 148.5t43.5 200z" />
    <glyph glyph-name="C" unicode="C" horiz-adv-x="1229" 
d="M1237 913h-82v39q0 215 -73.5 316.5t-219.5 101.5q-143 0 -263 -109t-190.5 -296.5t-70.5 -409.5q0 -218 94.5 -348.5t253.5 -130.5q128 0 238.5 83t187.5 236l72 -37q-110 -202 -253 -296.5t-337 -94.5q-140 0 -253 70t-177 198.5t-64 296.5q0 242 103 456t278.5 339
t378.5 125q115 0 204 -28.5t144 -71.5l58 67h82z" />
    <glyph glyph-name="D" unicode="D" horiz-adv-x="1434" 
d="M1415 872q0 -247 -108.5 -443.5t-309.5 -312.5t-440 -116h-586l15 66q26 0 70 6t59 12q55 24 73 100l236 1020q8 35 8 51q0 26 -9 43.5t-46.5 33.5t-83.5 22l14 65h557q156 0 287 -69t197.5 -191t66.5 -287zM1180 870q0 217 -100.5 345t-276.5 128l-135 -4l-254 -1101
q-6 -29 -6 -52q0 -60 47 -84t147 -24q163 0 294.5 101t207.5 288t76 403z" />
    <glyph glyph-name="E" unicode="E" horiz-adv-x="1235" 
d="M1206 1077h-73q-10 118 -49.5 185t-100.5 75q-71 9 -170 9h-145l-131 -572h77q79 0 125 18t85 70t77 146h74l-127 -555h-74l2 59q0 92 -19.5 125.5t-58.5 46t-102 12.5h-78l-100 -432q-12 -62 -12 -96q0 -53 38.5 -71.5t173.5 -18.5q118 0 158.5 10t71.5 32.5t76 73
t92.5 115t73.5 109.5h71l-123 -418h-1075l14 66q119 9 158 34.5t53 87.5l238 1031l4 36q0 26 -13 43.5t-58.5 35t-84.5 20.5l17 65h995z" />
    <glyph glyph-name="F" unicode="F" horiz-adv-x="1124" 
d="M1221 1065h-76q-3 105 -39 184.5t-86 87.5q-62 9 -143 9h-209l-133 -578h135q97 0 150.5 52t92.5 181h76l-129 -557h-76q4 32 4 64q0 77 -14 117q-19 39 -51.5 53t-81.5 14h-125l-113 -497l-4 -33q0 -45 35 -68q9 -6 56 -16t67 -12l-14 -66h-578l17 66l30 3q83 6 103 15
q53 23 71 100l240 1035l4 38q0 41 -33 61t-123 36l15 65h1014z" />
    <glyph glyph-name="G" unicode="G" horiz-adv-x="1401" 
d="M625 -33q-153 0 -273.5 71.5t-186 202t-65.5 300.5q0 248 108 459t292.5 331.5t398.5 120.5q232 0 365 -100l57 67h80l-107 -495h-82q-4 246 -84 346t-245 100q-149 0 -275.5 -110.5t-199 -305t-72.5 -426.5q0 -223 92 -351t252 -128q46 0 83 9t66.5 24t73.5 51
q23 66 52.5 188t29.5 150q0 55 -42.5 73.5t-145.5 26.5l14 70h584l-15 -70l-28 -4q-70 -8 -97 -22q-56 -30 -73 -109q-67 -283 -74 -346q-266 -123 -483 -123z" />
    <glyph glyph-name="H" unicode="H" horiz-adv-x="1546" 
d="M1196 160q0 -36 28.5 -60.5t112.5 -33.5l-14 -66h-551l16 66q106 10 123 18q56 23 74 100l117 512h-584l-115 -501l-4 -33q0 -47 33 -68q9 -7 42 -16t65 -12l-15 -66h-549l15 66q106 10 125 18q53 23 71 100l240 1035l4 32q0 53 -50 75.5t-93 27.5l14 65h549l-14 -65
q-53 -5 -100.5 -18.5t-66 -39t-28.5 -67.5t-102 -449h585l99 439l4 32q0 31 -12.5 49t-55.5 34.5t-74 19.5l15 65h549l-15 -65q-64 -6 -120.5 -24.5t-76 -101.5t-237.5 -1033z" />
    <glyph glyph-name="I" unicode="I" horiz-adv-x="758" 
d="M401 162q0 -45 41 -68q10 -6 58.5 -16.5t66.5 -11.5l-14 -66h-598l14 66l33 3q92 6 121.5 20t44.5 38t22 55l240 1039l4 34q0 48 -51 68.5t-115 30.5l15 65h598l-13 -65q-76 -6 -143 -25q-62 -20 -80 -98l-239 -1038q-5 -18 -5 -31z" />
    <glyph glyph-name="J" unicode="J" horiz-adv-x="979" 
d="M231 -35q-128 0 -206 70.5t-78 193.5q0 103 49 175.5t129 72.5q54 0 82.5 -26t28.5 -70q0 -38 -18 -74.5t-43.5 -70t-53 -64t-45.5 -57.5q12 -29 50.5 -53.5t104.5 -24.5q71 0 120 40t84.5 118t78.5 268l170 756q4 12 4 32q0 30 -14 49t-45 30.5t-111 23.5l14 65h590
l-14 -65q-99 -8 -144.5 -29.5t-62.5 -95.5l-190 -846q-42 -186 -173.5 -302t-306.5 -116z" />
    <glyph glyph-name="K" unicode="K" horiz-adv-x="1298" 
d="M731 776l145 -287q102 -205 132.5 -266t64.5 -95.5t69 -46t89 -15.5l-19 -66h-340q-136 352 -315 674h-43l-106 -463q-9 -36 -9 -57q0 -42 35 -60q12 -8 49.5 -17t59.5 -11l-15 -66h-548l14 66q99 8 121 18q53 23 71 100l240 1035q6 18 6 41q0 27 -15 43t-50.5 29.5
t-77.5 21.5l14 65h551l-14 -65q-63 -5 -127 -25q-53 -20 -72 -100l-117 -506h19q181 146 359.5 339.5t178.5 246.5q0 17 -24.5 28t-87.5 17l12 65h494l-17 -65l-32 -4q-55 -7 -106 -27.5t-85 -52.5l-131 -133q-215 -219 -373 -361z" />
    <glyph glyph-name="L" unicode="L" horiz-adv-x="1139" 
d="M983 0h-1003l14 66q97 8 127 20q54 24 72 102l235 1026q6 30 6 46q0 68 -145 94l14 65h561l-14 -65q-67 -6 -131 -27q-57 -20 -76 -102l-221 -965q-16 -68 -16 -104q0 -49 32 -65.5t152 -16.5q181 0 237 53q39 37 112.5 139t102.5 156h70z" />
    <glyph glyph-name="M" unicode="M" horiz-adv-x="1796" 
d="M1446 154q0 -45 49 -64t100 -24l-14 -66h-586l17 66l33 3q91 6 118 21q63 37 78 105l246 1056h-10l-736 -1228h-47l-137 1255h-8l-203 -872q-27 -133 -27 -185q0 -66 31 -98.5t142 -56.5l-13 -66h-534l16 66q76 7 130.5 29t84.5 76.5t70 221.5l170 737q10 40 10 78
q0 76 -43.5 109t-116.5 37l15 65h456l113 -1048l512 856q41 69 66.5 121t31.5 71h445l-15 -65q-113 -10 -148 -31.5t-46 -73.5l-242 -1038q-8 -32 -8 -57z" />
    <glyph glyph-name="N" unicode="N" horiz-adv-x="1468" 
d="M1096 -14h-88l-502 1198l-178 -774q-27 -110 -27 -191q0 -67 21 -92q13 -20 64 -39.5t75 -21.5l-12 -66h-525l17 66q31 3 92 21t78 30q35 25 61.5 87.5t54.5 194.5l160 688q12 61 12 101q0 53 -26 87t-68 54t-92 25l16 65h387l457 -1110l164 709q27 130 27 188
q0 48 -13.5 74t-66.5 47t-101 27l17 65h516l-17 -65q-24 -2 -62 -15t-62.5 -25t-48 -40.5t-43.5 -80.5t-39.5 -134t-247.5 -1073z" />
    <glyph glyph-name="O" unicode="O" horiz-adv-x="1393" 
d="M1374 872q0 -245 -107 -454t-284.5 -331t-372.5 -122q-229 0 -369.5 159t-140.5 417q0 241 103 449.5t281.5 335t379.5 126.5q150 0 267 -71.5t180 -204.5t63 -304zM1139 932q0 204 -76.5 320t-218.5 116q-139 0 -252.5 -111.5t-184.5 -324.5t-71 -438
q0 -212 76.5 -328.5t218.5 -116.5q141 0 255 113.5t183.5 324t69.5 445.5z" />
    <glyph glyph-name="P" unicode="P" horiz-adv-x="1153" 
d="M1214 1133q0 -146 -73 -261t-201.5 -180t-277.5 -65h-156l-96 -424q-9 -39 -9 -51q0 -51 35 -66q19 -13 123 -20l-14 -66h-565l14 66q97 8 127 20q54 24 72 102l237 1035q6 24 6 45q0 46 -45 63.5t-106 22.5l12 65h569q160 0 254 -77.5t94 -208.5zM969 1112
q0 111 -50.5 170t-146.5 59h-102l-144 -632h95q105 0 182.5 46.5t121.5 142t44 214.5z" />
    <glyph glyph-name="Q" unicode="Q" horiz-adv-x="1393" 
d="M1374 872q0 -197 -73 -376t-204.5 -309t-293.5 -187q-4 -30 -4 -72q0 -98 49 -155.5t129 -57.5q56 0 95.5 4.5t90.5 18.5l-14 -76q-157 -47 -289 -47q-133 0 -202.5 75t-69.5 220l4 57q-223 8 -357.5 165.5t-134.5 408.5q0 241 103 449.5t281.5 335t379.5 126.5
q149 0 265.5 -71t180.5 -204t64 -305zM1139 932q0 205 -77 320.5t-220 115.5q-138 0 -251 -111t-184 -325.5t-71 -437.5q0 -212 76.5 -328.5t220.5 -116.5q143 0 257.5 115t181.5 325.5t67 442.5z" />
    <glyph glyph-name="R" unicode="R" horiz-adv-x="1335" 
d="M1319 0h-381q-99 236 -237 494l-80 151h-109q-111 -488 -111 -491q0 -34 13.5 -51.5t54 -25t88.5 -11.5l-14 -66h-563l16 66q98 8 125 20q56 24 74 102l237 1037q6 18 6 41q0 26 -11 42t-55.5 29.5t-78.5 16.5l12 65h578q163 0 256.5 -70.5t93.5 -199.5
q0 -172 -104.5 -290t-303.5 -169l240 -457q44 -73 82 -106.5t79.5 -45t108.5 -15.5zM987 1126q0 103 -50.5 160t-137.5 57h-127l-140 -616h142q130 0 221.5 115t91.5 284z" />
    <glyph glyph-name="S" unicode="S" horiz-adv-x="1083" 
d="M1016 948h-80q-6 171 -33.5 253t-83.5 124.5t-147 42.5q-101 0 -170.5 -79t-69.5 -195q0 -151 105 -213q41 -25 119 -57q119 -51 188.5 -101t104 -117t34.5 -147q0 -136 -68.5 -248.5t-189.5 -176t-264 -63.5q-196 0 -332 101l-57 -72h-80l96 485h82q21 -432 315 -432
q133 0 212 83t79 224q0 78 -31 140t-96 94l-66 30q-185 76 -241 124.5t-86.5 113.5t-30.5 148q0 118 60.5 219t169 161t231.5 60q87 0 158.5 -23t138.5 -75l53 67h80z" />
    <glyph glyph-name="T" unicode="T" horiz-adv-x="1182" 
d="M1282 1034h-68q-5 127 -39.5 211.5t-87.5 91.5q-58 9 -145 9h-55l-260 -1125l-9 -55q0 -20 7 -35t21 -26t66 -23.5t87 -15.5l-17 -66h-628l16 66l35 3q46 4 90.5 11.5t71 33t41.5 79.5l266 1153h-49q-73 0 -154 -9q-53 -8 -140 -109t-130 -194h-72l84 385h1157z" />
    <glyph glyph-name="U" unicode="U" horiz-adv-x="1466" 
d="M604 -35q-190 0 -300.5 88.5t-110.5 239.5q0 47 8 82l196 844l4 32q0 38 -25 62.5t-91 36.5l-23 4l14 65h551l-16 -65q-67 -6 -125 -25q-55 -19 -74 -100l-182 -791q-14 -61 -14 -119q0 -121 65.5 -183t188.5 -62q155 0 262 93.5t145 262.5q41 162 88.5 374.5t61.5 291.5
t14 125q0 49 -24 77q-44 41 -158 56l16 65h539l-17 -65q-38 -3 -86 -16t-73 -29q-68 -40 -123 -277q-72 -331 -137 -604q-34 -143 -110.5 -246t-198 -160t-265.5 -57z" />
    <glyph glyph-name="V" unicode="V" horiz-adv-x="1243" 
d="M522 -18h-82l-135 1237q-6 39 -25.5 67.5t-57.5 46.5t-70 21l12 65h536l-16 -65l-52 -4q-120 -11 -120 -64l2 -37l98 -940l261 441l194 331q80 145 80 193q0 31 -47.5 52.5t-122.5 27.5l12 65h502l-14 -65q-61 -5 -117 -37q-40 -27 -67 -59t-153.5 -240.5t-328 -547
t-289.5 -488.5z" />
    <glyph glyph-name="W" unicode="W" horiz-adv-x="1917" 
d="M1262 -18h-91l-96 1093l-600 -1093h-90l-41 1237q-8 122 -141 135l12 65h533l-15 -65q-103 -7 -141.5 -25t-38.5 -47q0 -161 27 -944l575 1061h92l99 -1084q186 374 368 758q74 166 74 205q0 64 -156 76l13 65h485l-14 -65q-53 -4 -117 -37.5t-117 -136.5z" />
    <glyph glyph-name="X" unicode="X" horiz-adv-x="1290" 
d="M807 762l92 -251q36 -101 79.5 -213t60.5 -142t36 -50.5t44.5 -27t92.5 -12.5l-14 -66h-598l14 66q172 6 172 63q0 41 -24.5 130.5t-118.5 361.5q-128 -148 -254.5 -307.5t-126.5 -190.5q0 -27 27 -40.5t108 -16.5l-12 -66h-496l17 66q52 4 92 14t87.5 43.5t111.5 105.5
l417 473l-176 486q-32 83 -56.5 110.5t-70.5 40t-84 15.5l15 65h592l-13 -65q-103 -8 -141.5 -23t-38.5 -39q0 -32 10.5 -66t26.5 -87l94 -299q348 398 348 456q0 17 -13 28t-33 17.5t-87 12.5l14 65h490l-14 -65q-81 -7 -125 -27q-58 -29 -105 -76t-440 -489z" />
    <glyph glyph-name="Y" unicode="Y" horiz-adv-x="1137" 
d="M588 168q0 -60 54.5 -78t123.5 -24l-14 -66h-623l14 66q67 5 117.5 13.5t76.5 33.5t40 80l72 311l8 49q0 26 -9 67t-47 199t-94 365q-14 47 -29.5 77.5t-41.5 59.5q-34 27 -93 33l15 65h542l-16 -65l-53 -3q-123 -4 -123 -53q0 -11 5 -38.5t17 -81t119 -490.5
q166 221 292 397t126 203q0 29 -33 44t-119 22l15 65h465l-17 -65q-14 -2 -52 -14.5t-56 -24.5l-31 -20q-43 -26 -139 -143t-342 -456q-48 -65 -67.5 -104t-35.5 -113l-63 -276z" />
    <glyph glyph-name="Z" unicode="Z" horiz-adv-x="1151" 
d="M207 76h293q100 0 178.5 14t112.5 41q64 54 135 142t121 169h69l-149 -442h-1057l8 35l1092 1308h-283q-84 0 -152 -14q-60 -12 -153 -106t-162 -205h-70l136 401h979l-9 -35z" />
    <glyph glyph-name="bracketleft" unicode="[" horiz-adv-x="686" 
d="M825 1434h-272l-383 -1657h274l-20 -86h-451l422 1829h451z" />
    <glyph glyph-name="backslash" unicode="\" horiz-adv-x="879" 
d="M487 -424l-157 1948h131l157 -1948h-131z" />
    <glyph glyph-name="bracketright" unicode="]" horiz-adv-x="686" 
d="M324 -309h-453l20 86h275l381 1657h-273l21 86h450z" />
    <glyph glyph-name="asciicircum" unicode="^" horiz-adv-x="1317" 
d="M1030 797l-321 524l-324 -524h-145l411 659h115l410 -659h-146z" />
    <glyph glyph-name="underscore" unicode="_" horiz-adv-x="1255" 
d="M1063 -279h-1245l22 97h1245z" />
    <glyph glyph-name="grave" unicode="`" 
d="M881 1110l-260 213q-38 29 -54 53t-16 58t24 59t62 25q32 0 57 -18t54 -70q7 -14 14.5 -27.5t157.5 -259.5z" />
    <glyph glyph-name="a" unicode="a" horiz-adv-x="1092" 
d="M772 -16q-69 0 -108.5 42t-42.5 105h-7l-47 -45q-122 -115 -227 -115q-126 0 -198 104.5t-72 284.5q0 171 71.5 322.5t188.5 239.5t256 88q61 0 121.5 -18t97.5 -46l182 47l10 -14l-149 -645q-25 -94 -25 -141q0 -97 95 -97q51 0 98 19l-15 -64q-72 -35 -124.5 -51
t-104.5 -16zM764 764q0 40 -20.5 81.5t-57 67t-82.5 25.5q-88 0 -164 -79t-120 -215.5t-44 -285.5t36 -211.5t110 -62.5q99 0 215 141z" />
    <glyph glyph-name="b" unicode="b" horiz-adv-x="1032" 
d="M963 627q0 -176 -75.5 -329.5t-197.5 -241t-254 -87.5q-258 0 -364 187l258 1130q12 55 12 86q0 42 -19 61t-61 24l-63 7l14 62l350 22l10 -14l-151 -666h4q63 63 98 86.5t76 39.5t90 16q125 0 199 -105t74 -278zM756 623q0 133 -41 204.5t-109 71.5q-45 0 -94.5 -29.5
t-114.5 -101.5l-133 -594q8 -53 55.5 -93t112.5 -40q87 0 162 77t118.5 213.5t43.5 291.5z" />
    <glyph glyph-name="c" unicode="c" horiz-adv-x="842" 
d="M831 797q0 -77 -34.5 -125.5t-94.5 -48.5q-53 0 -80.5 27t-27.5 61q0 60 57 176q-31 51 -106 51q-72 0 -136 -72t-100.5 -197t-36.5 -278q0 -141 54 -224t147 -83q72 0 136 44.5t134 150.5l56 -39q-163 -269 -393 -269q-160 0 -249 104.5t-89 289.5q0 173 66.5 323.5
t182.5 236t252 85.5q122 0 192 -57.5t70 -155.5z" />
    <glyph glyph-name="d" unicode="d" horiz-adv-x="1092" 
d="M823 195q0 -53 24 -76t81 -23q13 0 41.5 6t46.5 13l-15 -64q-75 -37 -125.5 -52t-95.5 -15q-75 0 -116 38t-41 115h-5q-89 -93 -153.5 -129.5t-122.5 -36.5q-127 0 -199.5 104.5t-72.5 284.5q0 167 70.5 320t188.5 241.5t251 88.5q58 0 119.5 -17.5t105.5 -46.5l78 340
q10 43 10 76q0 46 -23 67t-78 27l-75 8l14 62l383 22l10 -14l-276 -1200q-25 -100 -25 -139zM764 774q-6 73 -52 118.5t-114 45.5q-85 0 -159.5 -80t-118.5 -215.5t-44 -284.5q0 -150 36.5 -212t111.5 -62q99 0 215 147z" />
    <glyph glyph-name="e" unicode="e" horiz-adv-x="868" 
d="M838 801q0 -104 -57.5 -181.5t-193 -130.5t-325.5 -81q0 -324 197 -324q73 0 141 46.5t139 150.5l56 -41q-76 -126 -184.5 -197.5t-221.5 -71.5q-157 0 -241.5 99.5t-84.5 281.5q0 173 70.5 329.5t189 242.5t259.5 86q122 0 189 -55t67 -154zM653 819q0 119 -96 119
q-65 0 -126.5 -60t-105 -167t-57.5 -234q69 13 131 28t119 50q135 82 135 264z" />
    <glyph glyph-name="f" unicode="f" horiz-adv-x="592" 
d="M930 1432q0 -49 -28.5 -79t-72.5 -30q-72 0 -127 95l-30 48q-56 -3 -99 -94.5t-77 -288.5l-23 -106h211l-22 -90h-207l-176 -828q-29 -140 -103 -256t-175 -181.5t-202 -65.5q-83 0 -121 34t-38 84q0 49 27.5 79t72.5 30q74 0 129 -95l29 -50q55 4 100 97.5t86 287.5
l182 864h-153l20 90h154l14 67q26 142 97 258.5t170 181t202 64.5q83 0 121.5 -33.5t38.5 -82.5z" />
    <glyph glyph-name="g" unicode="g" horiz-adv-x="1051" 
d="M254 -444q-246 0 -246 145q0 46 28.5 76t74.5 30q82 0 137 -127l24 -57h23q241 0 330 512l-7 2q-157 -157 -286 -157q-125 0 -194.5 101t-69.5 284q0 166 70.5 316.5t191 239.5t254.5 89q59 0 117 -17.5t98 -46.5l184 47l10 -14l-168 -789q-65 -336 -199.5 -485
t-371.5 -149zM760 774q0 37 -21.5 76.5t-57.5 63.5t-79 24q-87 0 -163 -78.5t-120.5 -213.5t-44.5 -284q0 -143 40.5 -207.5t109.5 -64.5q47 0 99 31.5t122 111.5z" />
    <glyph glyph-name="h" unicode="h" horiz-adv-x="1030" 
d="M727 -16q-70 0 -111 38t-41 105q0 47 21 127l94 356q25 100 25 156q0 53 -24.5 89t-69.5 36q-42 0 -104 -36.5t-128 -121.5l-168 -733h-186l297 1286q12 58 12 74q0 47 -23 69.5t-75 27.5l-66 7l13 62l372 22l10 -14l-161 -692h4q114 104 179 136t136 32q82 0 129 -55
t47 -146q0 -63 -24 -156q-54 -208 -84 -322.5t-25 -150.5q0 -46 21.5 -65t64.5 -19q57 0 109 21l-13 -66q-139 -67 -231 -67z" />
    <glyph glyph-name="i" unicode="i" horiz-adv-x="573" 
d="M608 1386q0 -56 -37 -98.5t-92 -42.5q-48 0 -86.5 39t-38.5 94q0 57 38 97.5t87 40.5q55 0 92 -38t37 -92zM274 -20q-74 0 -113.5 39.5t-39.5 103.5q0 46 16 110l107 426q22 99 22 160q0 44 -14.5 60t-52.5 16q-30 0 -69.5 -7t-53.5 -11l14 63q148 70 227 70t114.5 -40
t35.5 -106q0 -50 -14 -110l-109 -424q-9 -41 -17 -78.5t-8 -75.5q0 -46 23 -65t68 -19q66 0 108 17l-14 -64q-148 -65 -230 -65z" />
    <glyph glyph-name="j" unicode="j" horiz-adv-x="535" 
d="M590 1386q0 -56 -37 -98.5t-92 -42.5q-50 0 -87.5 39.5t-37.5 93.5q0 56 37 97t88 41q55 0 92 -38t37 -92zM455 868q0 -43 -44 -264t-118 -545q-31 -142 -104.5 -257t-172.5 -180.5t-200 -65.5q-83 0 -121.5 34t-38.5 84q0 47 25.5 78t66.5 31q67 0 116 -95l27 -50
q131 8 207 385q71 303 138 636q20 103 20 156q0 40 -16 60t-58 20q-25 0 -61.5 -7t-61.5 -16l15 66q158 72 235 72q146 0 146 -142z" />
    <glyph glyph-name="k" unicode="k" horiz-adv-x="975" 
d="M989 895q0 -47 -31.5 -83t-74.5 -36q-47 0 -119 35q-102 -69 -209 -186q109 -317 135.5 -380.5t48 -92.5t50 -45.5t59.5 -16.5q52 0 115 23l-13 -66q-83 -37 -130 -50t-99 -13q-77 0 -127 69t-142 351l-28 81l-117 -100l-86 -385h-186l297 1286q12 58 12 92
q0 38 -17.5 56t-62.5 23l-63 7l12 62l352 22l10 -14l-245 -1042h4l85 94q216 241 286 308.5t105.5 87t76.5 19.5q46 0 74 -28t28 -78z" />
    <glyph glyph-name="l" unicode="l" horiz-adv-x="522" 
d="M270 182q0 -51 22.5 -70.5t65.5 -19.5q26 0 60.5 5.5t56.5 13.5l-14 -66q-139 -65 -236 -65q-72 0 -113.5 39.5t-41.5 103.5q0 38 18 110l246 1055q12 58 12 80q0 42 -21 62.5t-67 26.5l-59 7l14 62l350 22l10 -14l-278 -1204q-25 -114 -25 -148z" />
    <glyph glyph-name="m" unicode="m" horiz-adv-x="1679" 
d="M1376 -16q-70 0 -110.5 37.5t-40.5 105.5q0 51 16 111l98 372q11 40 18 84t7 64q0 68 -26 100.5t-83 32.5q-62 0 -122 -36.5t-127 -113.5l-172 -741h-187l156 668q14 61 14 84q0 65 -29 102t-86 37q-126 0 -258 -158l-168 -733h-186l148 647q24 108 24 158
q0 45 -14.5 62.5t-54.5 17.5q-30 0 -65 -8t-48 -13l14 66q140 67 230 67q75 0 105.5 -42t33.5 -119h6q127 103 168.5 127t84.5 35.5t95 11.5q84 0 135.5 -51.5t57.5 -131.5h4q133 117 204 150t154 33q87 0 137 -54.5t50 -146.5q0 -60 -25 -156l-84 -321q-25 -100 -25 -148
q0 -49 23 -68.5t74 -19.5q46 0 98 21l-14 -68q-152 -65 -230 -65z" />
    <glyph glyph-name="n" unicode="n" horiz-adv-x="1085" 
d="M788 -16q-73 0 -115 37.5t-42 105.5q0 49 22 131l92 352q25 100 25 156q0 53 -24.5 89t-67.5 36q-45 0 -107 -37t-127 -121l-168 -733h-186l148 647q24 112 24 160q0 43 -15 60.5t-52 17.5q-32 0 -67.5 -8t-47.5 -13l14 66q140 67 230 67q75 0 105.5 -42t33.5 -119h6
q84 80 129.5 111.5t91.5 47t98 15.5q81 0 129 -54.5t48 -146.5q0 -60 -25 -156l-84 -321q-25 -100 -25 -152q0 -46 23 -65t68 -19q59 0 104 21l-12 -66q-144 -67 -226 -67z" />
    <glyph glyph-name="o" unicode="o" horiz-adv-x="1018" 
d="M950 616q0 -174 -72 -327t-193.5 -236.5t-274.5 -83.5q-152 0 -247 107.5t-95 288.5q0 174 70 324t193.5 235.5t272.5 85.5q159 0 252.5 -106.5t93.5 -287.5zM748 653q0 141 -43 213t-125 72q-89 0 -158.5 -75t-110.5 -223.5t-41 -307.5q0 -291 170 -291q89 0 159 80.5
t109.5 224.5t39.5 307z" />
    <glyph glyph-name="p" unicode="p" horiz-adv-x="1081" 
d="M1012 627q0 -170 -70 -322.5t-190 -242t-252 -89.5q-77 0 -127 21.5t-88 52.5l-58 -262q-12 -55 -12 -82q0 -35 31.5 -55t122.5 -29l-13 -63h-510l15 63q73 6 100 14q53 19 68 95l209 919q22 107 22 156q0 46 -14.5 64t-55.5 18q-53 0 -114 -23l12 66q138 69 225 69
q132 0 152 -133h6q83 83 144 114.5t116 31.5q132 0 206.5 -103.5t74.5 -279.5zM805 623q0 134 -39 205t-113 71q-44 0 -91 -29.5t-111 -103.5l-129 -567q3 -37 26.5 -74.5t59 -59.5t79.5 -22q87 0 161 78t115.5 211t41.5 291z" />
    <glyph glyph-name="q" unicode="q" horiz-adv-x="1030" 
d="M709 -297q0 -35 30 -55.5t115 -28.5l-14 -63h-510l14 63q70 5 102 14q58 18 76 95l96 411h-6l-46 -47q-118 -121 -230 -121q-126 0 -198 104.5t-72 284.5q0 169 70 320.5t188.5 240.5t261.5 89q121 0 217 -64l178 47l12 -14l-270 -1192q-14 -61 -14 -84zM760 764
q0 68 -45.5 121t-110.5 53q-89 0 -165 -77t-121.5 -213t-45.5 -290q0 -146 36 -210t112 -64q46 0 96.5 32.5t122.5 119.5z" />
    <glyph glyph-name="r" unicode="r" horiz-adv-x="842" 
d="M852 846q0 -75 -36 -123.5t-97 -48.5q-54 0 -80.5 26t-26.5 60q0 49 45 145q-40 0 -103 -55.5t-114 -132.5l-161 -717h-187l146 647q3 15 7 34t8 39.5t6.5 39t2.5 31.5q0 51 -16 72.5t-60 21.5q-26 0 -60.5 -8t-45.5 -13l14 66q140 67 230 67q75 0 105 -43.5t30 -130.5h4
q147 187 254 187q135 0 135 -164z" />
    <glyph glyph-name="s" unicode="s" horiz-adv-x="801" 
d="M760 854q0 -43 -30 -76t-71 -33q-89 0 -128 122l-23 61q-20 10 -49 10q-63 0 -101.5 -48t-38.5 -122q0 -62 31 -104t129 -95q104 -57 139 -90t54.5 -74.5t19.5 -97.5q0 -149 -102.5 -242.5t-263.5 -93.5q-132 0 -221 52.5t-89 138.5q0 47 29 77.5t72 30.5q91 0 131 -128
l18 -58q28 -41 90 -41q76 0 120 49.5t44 136.5q0 43 -14 75.5t-44.5 59.5t-107.5 68q-84 43 -122.5 78t-59 81t-20.5 107q0 83 45.5 156t126 114.5t174.5 41.5q124 0 193 -42t69 -114z" />
    <glyph glyph-name="t" unicode="t" horiz-adv-x="655" 
d="M694 887h-235l-127 -551q-23 -92 -23 -146q0 -48 24.5 -72t86.5 -24q22 0 62 8t61 17l-15 -74q-148 -65 -256 -65q-166 0 -166 149q0 37 11 88l155 670h-155l18 90h162l70 293h180l-68 -293h236z" />
    <glyph glyph-name="u" unicode="u" horiz-adv-x="1077" 
d="M756 -16q-71 0 -112.5 42.5t-41.5 112.5h-6q-94 -94 -160.5 -129t-144.5 -35q-82 0 -127 55t-45 146q0 66 22 156l78 315q23 97 23 156q0 35 -12 58.5t-52 23.5q-50 0 -119 -23l17 66q144 69 219 69q147 0 147 -135q0 -51 -16 -119l-88 -370q-23 -107 -23 -154
q0 -57 24 -91t67 -34q110 0 215 135l174 752l174 12l12 -14l-147 -643q-27 -108 -27 -141q0 -57 22.5 -78t73.5 -21q49 0 96 19l-10 -64q-54 -27 -119.5 -47t-113.5 -20z" />
    <glyph glyph-name="v" unicode="v" horiz-adv-x="997" 
d="M934 823q0 -219 -78 -421t-204 -317.5t-273 -115.5q-119 0 -189.5 72t-70.5 197q0 49 16 102q56 203 84.5 308.5t26.5 154.5q0 46 -17 64t-57 18t-115 -25l15 66q148 71 223 71q149 0 149 -143q0 -51 -16 -111l-96 -372q-21 -86 -21 -129q0 -73 37 -114.5t109 -41.5
q78 0 159 75.5t131 198t50 252.5q0 88 -53 151q-31 36 -42.5 64t-11.5 66q0 50 34 83.5t85 33.5q59 0 92 -48.5t33 -138.5z" />
    <glyph glyph-name="w" unicode="w" horiz-adv-x="1505" 
d="M1442 823q0 -221 -77 -424.5t-201.5 -316.5t-268.5 -113q-92 0 -162.5 54.5t-93.5 142.5q-95 -113 -160 -154t-127 -41q-106 0 -166.5 66t-60.5 178q0 65 18 135l78 297q25 86 25 150q0 42 -13.5 65t-56.5 23q-44 0 -113 -23l17 66q144 69 219 69q147 0 147 -143
q0 -51 -16 -111l-92 -368q-21 -89 -21 -144q0 -143 103 -143q50 0 105 35.5t100 99.5l176 758l174 12l12 -14l-141 -608q-23 -103 -23 -150q0 -135 146 -135q77 0 157 75t128.5 197t48.5 254q0 88 -53 151q-31 36 -42.5 64t-11.5 66q0 50 34 83.5t85 33.5q60 0 93.5 -48.5
t33.5 -138.5z" />
    <glyph glyph-name="x" unicode="x" horiz-adv-x="948" 
d="M989 899q-2 -51 -34.5 -82t-84.5 -31q-33 0 -114 27q-96 -93 -203 -289q49 -194 84 -299q38 -133 143 -133q50 0 113 21l-19 -66q-92 -40 -136 -51.5t-91 -11.5q-65 0 -104 34t-61.5 111.5t-57.5 239.5q-100 -163 -156.5 -242t-105 -112t-101.5 -33q-46 0 -73 27t-27 71
q0 52 31 85.5t90 33.5q28 0 58 -12t55 -21q109 118 202 285q-54 206 -84 305q-18 65 -44.5 96t-78.5 31q-43 0 -104 -25l16 68q144 71 217 71q57 0 89 -32.5t52 -95.5t56 -213l10 -54q98 167 157.5 249t105.5 116t104 34q42 0 69 -27.5t27 -74.5z" />
    <glyph glyph-name="y" unicode="y" horiz-adv-x="1022" 
d="M236 -444q-117 0 -177.5 34t-60.5 107q0 47 28 77.5t72 30.5q84 0 138 -125l24 -57h21q118 0 205.5 137t127.5 385h-6q-98 -95 -167.5 -130t-143.5 -35q-82 0 -130 54.5t-48 145.5q0 66 22 156l78 311q23 84 23 144q0 55 -14.5 74.5t-49.5 19.5q-50 0 -119 -23l17 66
q144 69 219 69q147 0 147 -141q0 -47 -20 -129l-84 -348q-23 -92 -23 -158q0 -54 25.5 -88.5t75.5 -34.5q111 0 217 135l166 748l172 12l12 -14l-172 -782q-67 -329 -207.5 -485t-367.5 -156z" />
    <glyph glyph-name="z" unicode="z" horiz-adv-x="838" 
d="M213 80q130 -2 170 -2l109 6q42 2 74.5 37.5t123.5 226.5h60l-68 -348h-702l16 70l620 829h-49q-75 0 -134 -3.5t-97 -18.5q-28 -11 -64.5 -66t-68.5 -135h-62l60 303h657l-12 -59z" />
    <glyph glyph-name="braceleft" unicode="{" horiz-adv-x="799" 
d="M182 594q155 -32 214 -92t59 -166q0 -48 -13 -109t-28 -122.5t-28 -118.5t-13 -97q0 -50 17.5 -79t50 -45t112.5 -23l-18 -76q-178 0 -258 58.5t-80 185.5q0 51 15 113t33 125t33 121.5t15 101.5q0 83 -49.5 125.5t-173.5 52.5l34 125q128 12 193 48t99.5 106t53.5 228
l17 122q29 184 145.5 271t350.5 87l-19 -76q-102 -7 -145.5 -29.5t-74 -68t-46.5 -125.5l-51 -223q-28 -119 -79 -194.5t-126.5 -119.5t-231.5 -75z" />
    <glyph glyph-name="bar" unicode="|" horiz-adv-x="768" 
d="M348 -424v1948h127v-1948h-127z" />
    <glyph glyph-name="braceright" unicode="}" horiz-adv-x="799" 
d="M-135 -334l18 78q102 7 145.5 29t75.5 67t48 125l51 225q26 118 76.5 193.5t125 120t234.5 76.5l6 30q-111 25 -163 56t-79.5 80.5t-27.5 123.5q0 67 40 231t40 214t-18 79.5t-50.5 45t-107.5 22.5l22 74q176 0 254 -58t78 -184q0 -51 -15 -113t-33 -125t-33 -121
t-15 -101q0 -85 50 -127t169 -52l-27 -125q-133 -14 -197 -49.5t-99.5 -103t-55.5 -228.5q-21 -174 -54.5 -252t-94.5 -130.5t-149 -76.5t-214 -24z" />
    <glyph glyph-name="asciitilde" unicode="~" horiz-adv-x="1317" 
d="M1212 715q-27 -76 -81 -145t-121.5 -109.5t-139.5 -40.5q-73 0 -131.5 21t-110 46.5t-100 46.5t-100.5 21q-39 0 -68.5 -15.5t-55.5 -46t-71 -112.5l-77 31q46 124 140.5 208.5t199.5 84.5q116 0 244 -68q69 -37 114 -52.5t84 -15.5q54 0 96.5 33.5t100.5 142.5z" />
    <glyph glyph-name="exclamdown" unicode="&#xa1;" horiz-adv-x="678" 
d="M645 1321q0 -57 -38 -97t-97 -40q-58 0 -97.5 39.5t-39.5 97.5q0 56 39 94.5t98 38.5t97 -39.5t38 -93.5zM494 1004q-40 -257 -74 -557q-33 -278 -45 -332q-14 -63 -57.5 -99t-102.5 -36q-48 0 -74 27.5t-26 72.5q0 29 28 123l51 150q116 334 222 651h78z" />
    <glyph glyph-name="cent" unicode="&#xa2;" horiz-adv-x="1055" 
d="M981 801q0 -67 -31.5 -113.5t-83.5 -46.5q-56 0 -79 25t-23 59q0 41 59 152q-9 22 -42 41.5t-74 23.5l-197 -850q18 -4 43 -4q99 0 171.5 43.5t154.5 155.5l57 -41q-83 -129 -198 -197t-253 -72l-63 -276h-92l67 285q-143 28 -214.5 128t-71.5 255q0 163 68.5 311
t188 236.5t267.5 97.5l59 262h92l-63 -262q118 -10 188 -68.5t70 -144.5zM618 944q-78 -13 -151 -91.5t-114.5 -199t-41.5 -256.5q0 -103 25 -176t90 -115z" />
    <glyph glyph-name="sterling" unicode="&#xa3;" horiz-adv-x="1192" 
d="M1184 1208q0 -77 -35.5 -125.5t-95.5 -48.5q-50 0 -75.5 25t-25.5 63q0 52 44 135l16 35q-4 36 -43.5 62t-83.5 26q-183 0 -248 -297q-13 -56 -32 -185l-30 -183h318l-21 -92h-311q-23 -136 -105.5 -250t-217.5 -187l-2 -14h784l-39 -172h-967l33 147q250 80 318 476
h-172l20 92h168q4 68 22.5 200t61.5 226t107 164.5t145 110.5t172 40q126 0 210.5 -71t84.5 -177z" />
    <glyph glyph-name="currency" unicode="&#xa4;" horiz-adv-x="1087" 
d="M903 141l-188 185q-67 -43 -146 -43q-76 0 -143 43l-190 -187l-84 90l184 187q-43 67 -43 143q0 79 43 143l-184 191l88 86l186 -186q67 43 143 43q75 0 146 -41l184 184l90 -86l-186 -191q43 -64 43 -143q0 -76 -43 -143l186 -189zM731 559q0 69 -48 117.5t-114 48.5
q-70 0 -115.5 -48.5t-45.5 -117.5t47.5 -117.5t113.5 -48.5q68 0 115 48.5t47 117.5z" />
    <glyph glyph-name="yen" unicode="&#xa5;" horiz-adv-x="1178" 
d="M684 557h358l-20 -90h-358l-62 -264l-4 -39q0 -59 63 -76.5t103 -21.5l-14 -66h-576l16 66q55 5 99.5 13t71 33.5t38.5 80.5l64 274h-346l22 90h346l15 70q-71 297 -150 559q-12 41 -28 72t-48 63q-40 28 -98 33l14 65h529l-17 -65l-50 -3q-111 -6 -111 -51
q0 -26 31.5 -150t109.5 -394l161 209q84 108 159.5 216.5t64.5 108.5q0 28 -28.5 43t-108.5 21l16 65h453l-17 -65q-13 -2 -35 -8t-45 -15.5t-64 -38.5t-136.5 -143.5t-190.5 -236.5t-206 -267z" />
    <glyph glyph-name="brokenbar" unicode="&#xa6;" horiz-adv-x="768" 
d="M348 723v801h127v-801h-127zM348 -424v809h127v-809h-127z" />
    <glyph glyph-name="section" unicode="&#xa7;" horiz-adv-x="942" 
d="M936 1303q0 -51 -32.5 -86t-84.5 -35q-30 0 -50 19.5t-33 53.5t-29 117q-22 10 -62 10q-48 0 -100 -30t-84.5 -77.5t-32.5 -96.5q0 -44 29.5 -79t105.5 -77l99 -57q198 -114 198 -283q0 -112 -81.5 -208.5t-213.5 -145.5q135 -93 135 -242q0 -93 -53 -172.5t-148 -125.5
t-206 -46q-87 0 -146 19t-89.5 53.5t-30.5 79.5q0 48 33.5 84t84.5 36q39 0 66 -40.5t45 -145.5q28 -14 68 -14q86 0 151.5 62.5t65.5 154.5q0 54 -32.5 97t-141.5 114q-248 116 -248 299q0 117 79 210.5t234 153.5q-78 47 -121 98t-43 119q0 88 57.5 165t155.5 122t211 45
q116 0 180 -39.5t64 -111.5zM696 627q0 65 -38 116t-152 121q-227 -88 -227 -272q0 -44 17.5 -78t56.5 -65t151 -91q97 54 144.5 119t47.5 150z" />
    <glyph glyph-name="dieresis" unicode="&#xa8;" 
d="M1024 1364q0 -51 -34 -87t-83 -36q-51 0 -85 36t-34 87t34 87t85 36q49 0 83 -36.5t34 -86.5zM635 1364q0 -51 -34 -87t-83 -36q-51 0 -85 36t-34 87t34 87t85 36q49 0 83 -36.5t34 -86.5z" />
    <glyph glyph-name="copyright" unicode="&#xa9;" horiz-adv-x="1929" 
d="M1876 604q0 -234 -117 -438.5t-321.5 -325.5t-444.5 -121q-239 0 -443.5 119t-324 324t-119.5 442q0 233 118.5 437t324 324t444.5 120q241 0 446 -122t321 -325.5t116 -433.5zM1778 604q0 217 -106 401t-287.5 288t-391.5 104q-209 0 -389.5 -102.5t-288.5 -287
t-108 -403.5q0 -223 108.5 -409t289 -288t388.5 -102q209 0 390 103t288 288.5t107 407.5zM1403 403q-56 -138 -158 -215t-235 -77q-222 0 -357 131.5t-135 349.5q0 140 67.5 255.5t187 180t265.5 64.5q56 0 120 -19t99 -45l46 66h59l4 -363h-53q-41 120 -81 175t-96.5 84.5
t-136.5 29.5q-79 0 -141 -49.5t-97.5 -145t-35.5 -223.5q0 -117 41 -207.5t116 -139t169 -48.5q99 0 171.5 53.5t120.5 167.5z" />
    <glyph glyph-name="ordfeminine" unicode="&#xaa;" horiz-adv-x="942" 
d="M735 623q-57 0 -86 32.5t-33 83.5h-6q-106 -127 -215 -127q-111 0 -178 85.5t-67 230.5q0 129 62.5 250t167 197.5t212.5 76.5q66 0 109 -17t69 -32l145 39l17 -12l-133 -519q-21 -76 -21 -114q0 -48 18 -63t60 -15q29 0 80 18l-14 -59q-60 -26 -102.5 -40.5t-84.5 -14.5
zM725 1253q0 65 -30.5 101.5t-88.5 36.5q-62 0 -128.5 -69.5t-107 -179t-40.5 -220.5q0 -113 31 -162t96 -49q35 0 72 24.5t85 89.5z" />
    <glyph glyph-name="guillemotleft" unicode="&#xab;" horiz-adv-x="1128" 
d="M360 522l160 -368l-53 -33l-266 328q-27 30 -27 61q0 35 18 58t39 40l420 330l39 -49zM731 522l160 -368l-53 -33l-267 328q-26 32 -26 61q0 54 57 98l420 330l39 -49z" />
    <glyph glyph-name="logicalnot" unicode="&#xac;" horiz-adv-x="1317" 
d="M1057 76v450h-887v125h1018v-575h-131z" />
    <glyph glyph-name="registered" unicode="&#xae;" horiz-adv-x="1929" 
d="M1876 604q0 -234 -117 -438.5t-321.5 -325.5t-444.5 -121q-239 0 -443.5 119t-324 324t-119.5 442q0 233 118.5 437t324 324t444.5 120q241 0 446 -122t321 -325.5t116 -433.5zM1778 604q0 217 -106 401t-287.5 288t-391.5 104q-209 0 -389.5 -102.5t-288.5 -287
t-108 -403.5q0 -223 108.5 -409t289 -288t388.5 -102q209 0 390 103t288 288.5t107 407.5zM1272 145q-137 190 -307 404h-107v-262q0 -21 7.5 -37.5t24.5 -25.5t109 -21v-58h-438v58q78 9 98 18t28.5 25.5t8.5 40.5v643q0 52 -41 67t-94 21v57h492q137 0 221 -59t84 -162
q0 -102 -54.5 -164.5t-181.5 -99.5q110 -130 184 -225l52 -66q36 -44 78.5 -65.5t122.5 -30.5v-58h-287zM1171 834q0 170 -196 170h-117v-379h88q105 0 165 56.5t60 152.5z" />
    <glyph glyph-name="macron" unicode="&#xaf;" horiz-adv-x="1221" 
d="M1538 1606h-1325l23 96h1327z" />
    <glyph glyph-name="degree" unicode="&#xb0;" horiz-adv-x="858" 
d="M829 1128q0 -140 -91.5 -232.5t-233.5 -92.5q-143 0 -234.5 92.5t-91.5 232.5q0 141 92 232.5t234 91.5q144 0 234.5 -92.5t90.5 -231.5zM682 1120q0 127 -49 192.5t-129 65.5q-82 0 -129 -67t-47 -181q0 -117 46 -184t134 -67q76 0 125 66.5t49 174.5z" />
    <glyph glyph-name="plusminus" unicode="&#xb1;" horiz-adv-x="1317" 
d="M174 0v125h447v401h-447v125h447v453h127v-453h446v-125h-446v-401h446v-125h-1020z" />
    <glyph glyph-name="twosuperior" unicode="&#xb2;" horiz-adv-x="942" 
d="M915 1225q0 -88 -33.5 -157t-96.5 -125t-191 -120q-75 -38 -153 -83t-152 -111h563l-29 -140h-694l27 111q73 93 249 207q101 65 175 127t111.5 136.5t37.5 164.5q0 71 -34.5 109t-90.5 38q-38 0 -75 -16.5t-62 -48.5q4 -26 4 -64q0 -65 -27.5 -100t-95.5 -35
q-38 0 -55 22.5t-17 53.5q0 57 51.5 119t136 100.5t173.5 38.5q127 0 202.5 -62t75.5 -165z" />
    <glyph glyph-name="threesuperior" unicode="&#xb3;" horiz-adv-x="942" 
d="M899 1253q0 -88 -68.5 -156.5t-189.5 -101.5l-2 -8q103 -13 160 -69t57 -144q0 -137 -120 -228t-300 -91q-130 0 -212.5 51t-82.5 127q0 46 30.5 84.5t76.5 38.5q43 0 65.5 -20.5t22.5 -51.5q0 -36 -41 -102q47 -60 135 -60q102 0 170 75.5t68 186.5q0 76 -44 114
t-124 38h-101l23 88h72q101 0 159 62t58 169q0 58 -30.5 93.5t-82.5 35.5q-33 0 -62 -12.5t-65 -48.5q4 -22 4 -47q0 -131 -119 -131q-38 0 -54.5 20t-16.5 47q0 57 49 114t130.5 91.5t178.5 34.5q120 0 188 -52t68 -147z" />
    <glyph glyph-name="acute" unicode="&#xb4;" 
d="M883 1440q0 -40 -29 -70t-95 -75q-128 -88 -255 -185l-35 33q134 176 205 287q34 49 63.5 68.5t67.5 19.5q34 0 56 -23t22 -55z" />
    <glyph glyph-name="mu" unicode="&#xb5;" horiz-adv-x="1077" 
d="M780 -16q-72 0 -110.5 41.5t-38.5 113.5h-6q-79 -76 -118.5 -103t-80.5 -41.5t-88 -14.5q-53 0 -96.5 27t-59.5 69h-6q-26 -121 -26 -273q0 -123 -29.5 -185t-97.5 -62q-91 0 -91 88q0 35 72 215q46 117 73 235l206 887l174 12l12 -14l-150 -647q-16 -69 -16 -109
q0 -131 123 -131q56 0 107.5 32t109.5 105l174 752l174 12l13 -14l-150 -643q-27 -108 -27 -141q0 -57 23 -78t74 -21t98 19l-10 -64q-144 -67 -232 -67z" />
    <glyph glyph-name="paragraph" unicode="&#xb6;" horiz-adv-x="942" 
d="M1053 1346h-90l-361 -1561h-102l360 1561h-119l-360 -1561h-102l210 915q-136 9 -215 88t-79 207q0 117 60 215t165.5 153.5t236.5 55.5h414z" />
    <glyph glyph-name="periodcentered" unicode="&#xb7;" horiz-adv-x="571" 
d="M432 559q0 -57 -39 -96t-96 -39t-97 38t-40 97q0 56 39 96.5t98 40.5t97 -41.5t38 -95.5z" />
    <glyph glyph-name="cedilla" unicode="&#xb8;" 
d="M649 -233q0 -104 -94 -157.5t-301 -53.5l14 71q103 0 143.5 9.5t64.5 30.5t24 59q0 32 -29.5 49.5t-105.5 17.5l45 223h77l-24 -114q81 0 133.5 -36.5t52.5 -98.5z" />
    <glyph glyph-name="onesuperior" unicode="&#xb9;" horiz-adv-x="942" 
d="M782 1446l-30 -113l-31 -125l-131 -565l-2 -16q0 -41 35 -55t120 -17l-16 -66h-524l16 66q127 6 159.5 25.5t41.5 56.5l145 635h-186l18 74h62q51 0 90.5 10.5t72 27.5t87.5 62h73z" />
    <glyph glyph-name="ordmasculine" unicode="&#xba;" horiz-adv-x="963" 
d="M938 1124q0 -136 -60 -256.5t-166.5 -191t-234.5 -70.5q-132 0 -212.5 88t-80.5 240q0 141 61 260t168.5 188.5t233.5 69.5q133 0 212 -86.5t79 -241.5zM756 1149q0 113 -33.5 174t-95.5 61q-72 0 -130.5 -59t-94 -174t-35.5 -233q0 -242 141 -242q68 0 124.5 63.5
t90 176t33.5 233.5z" />
    <glyph glyph-name="guillemotright" unicode="&#xbb;" horiz-adv-x="1128" 
d="M813 537l-160 368l54 33l266 -328q26 -32 26 -61q0 -54 -57 -98l-420 -330l-39 49zM442 537l-159 368l53 33l266 -328q9 -11 18 -24.5t9 -36.5q0 -53 -58 -98l-419 -330l-39 49z" />
    <glyph glyph-name="onequarter" unicode="&#xbc;" horiz-adv-x="2028" 
d="M706 1446l-30 -113l-31 -125l-131 -565l-2 -16q0 -41 35 -55t120 -17l-16 -66h-524l16 66q127 6 159.5 25.5t41.5 56.5l145 635h-186l18 74h62q51 0 90.5 10.5t72 27.5t87.5 62h73zM1835 322l-25 -104h-162l-53 -236h-164l54 236h-435l29 122l627 623h114l-147 -641h162z
M1610 756l-441 -434h340zM572 0h-133l1005 1419h135z" />
    <glyph glyph-name="onehalf" unicode="&#xbd;" horiz-adv-x="2028" 
d="M706 1446l-30 -113l-31 -125l-131 -565l-2 -16q0 -41 35 -55t120 -17l-16 -66h-524l16 66q127 6 159.5 25.5t41.5 56.5l145 635h-186l18 74h62q51 0 90.5 10.5t72 27.5t87.5 62h73zM1929 738q0 -88 -33.5 -157t-96.5 -125t-191 -120q-75 -38 -153 -83t-152 -111h563
l-29 -140h-694l27 111q73 93 249 207q101 65 175 127t111.5 136.5t37.5 164.5q0 71 -34.5 109t-90.5 38q-38 0 -75 -16.5t-62 -48.5q4 -26 4 -64q0 -65 -27.5 -100t-95.5 -35q-38 0 -55 22.5t-17 53.5q0 57 51.5 119t136 100.5t173.5 38.5q127 0 202.5 -62t75.5 -165zM561 0
h-133l1005 1419h135z" />
    <glyph glyph-name="threequarters" unicode="&#xbe;" horiz-adv-x="2028" 
d="M909 1253q0 -88 -68.5 -156.5t-189.5 -101.5l-2 -8q103 -13 160 -69t57 -144q0 -137 -120 -228t-300 -91q-130 0 -212.5 51t-82.5 127q0 46 30.5 84.5t76.5 38.5q43 0 65.5 -20.5t22.5 -51.5q0 -36 -41 -102q47 -60 135 -60q102 0 170 75.5t68 186.5q0 76 -44 114
t-124 38h-101l23 88h72q101 0 159 62t58 169q0 58 -30.5 93.5t-82.5 35.5q-33 0 -62 -12.5t-65 -48.5q4 -22 4 -47q0 -131 -119 -131q-38 0 -54.5 20t-16.5 47q0 57 49 114t130.5 91.5t178.5 34.5q120 0 188 -52t68 -147zM1915 322l-25 -104h-162l-53 -236h-164l54 236h-435
l29 122l627 623h114l-147 -641h162zM1690 756l-441 -434h340zM713 0h-133l1005 1419h135z" />
    <glyph glyph-name="questiondown" unicode="&#xbf;" horiz-adv-x="887" 
d="M55 313q0 216 137 357t367 172l51 213h92l-79 -379q-383 -43 -383 -397q0 -106 41.5 -166t119.5 -60q31 0 60 13.5t45 27.5q0 88 1 105.5t3 31.5q9 45 48 74t99 29q44 0 63 -26.5t19 -61.5q0 -65 -47 -128t-127 -100.5t-176 -37.5q-157 0 -245.5 92t-88.5 241zM557 1317
q0 59 41.5 97t95.5 38q55 0 96 -38t41 -97q0 -57 -39.5 -97t-97.5 -40q-57 0 -97 39.5t-40 97.5z" />
    <glyph glyph-name="Agrave" unicode="&#xc0;" horiz-adv-x="1251" 
d="M1180 0h-539l14 66q85 10 114.5 19t47 22t17.5 34l-33 353h-432q-44 -71 -110 -197t-66 -154q0 -32 48 -52.5t117 -24.5l-12 -66h-506l15 66q90 8 149 51.5t105 124.5q124 204 345 583l357 615h80l147 -1229q8 -63 45 -100.5t111 -44.5zM731 1133l-315 -558h379z
M1012 1546l-35 -39l-199 103l-130 65q-39 23 -61.5 43.5t-22.5 59.5t27.5 64.5t68.5 25.5q26 0 54 -19.5t127.5 -122.5t170.5 -180z" />
    <glyph glyph-name="Aacute" unicode="&#xc1;" horiz-adv-x="1251" 
d="M1180 0h-539l14 66q85 10 114.5 19t47 22t17.5 34l-33 353h-432q-44 -71 -110 -197t-66 -154q0 -32 48 -52.5t117 -24.5l-12 -66h-506l15 66q90 8 149 51.5t105 124.5q124 204 345 583l357 615h80l147 -1229q8 -63 45 -100.5t111 -44.5zM731 1133l-315 -558h379z
M1176 1796q0 -45 -27.5 -72.5t-72.5 -50.5q-112 -48 -363 -166l-26 39q107 93 282 262q37 39 66.5 49.5t56.5 10.5q37 0 60.5 -20.5t23.5 -51.5z" />
    <glyph glyph-name="Acircumflex" unicode="&#xc2;" horiz-adv-x="1251" 
d="M1180 0h-539l14 66q85 10 114.5 19t47 22t17.5 34l-33 353h-432q-44 -71 -110 -197t-66 -154q0 -32 48 -52.5t117 -24.5l-12 -66h-506l15 66q90 8 149 51.5t105 124.5q124 204 345 583l357 615h80l147 -1229q8 -63 45 -100.5t111 -44.5zM731 1133l-315 -558h379z
M1171 1538l-49 -31l-236 211l-319 -211l-47 31l291 285q18 18 39.5 31.5t60.5 13.5q43 0 57.5 -13.5t22.5 -27.5z" />
    <glyph glyph-name="Atilde" unicode="&#xc3;" horiz-adv-x="1251" 
d="M1180 0h-539l14 66q85 10 114.5 19t47 22t17.5 34l-33 353h-432q-44 -71 -110 -197t-66 -154q0 -32 48 -52.5t117 -24.5l-12 -66h-506l15 66q90 8 149 51.5t105 124.5q124 204 345 583l357 615h80l147 -1229q8 -63 45 -100.5t111 -44.5zM731 1133l-315 -558h379z
M1237 1842q-31 -112 -93 -178t-141 -66q-52 0 -90 16t-70 35t-61.5 35t-64.5 16q-40 0 -65.5 -25t-63.5 -110l-54 25q49 132 106 187.5t124 55.5q46 0 84.5 -16t72 -35t63 -35t58.5 -16q45 0 72 19t45 62l21 52z" />
    <glyph glyph-name="Adieresis" unicode="&#xc4;" horiz-adv-x="1251" 
d="M1180 0h-539l14 66q85 10 114.5 19t47 22t17.5 34l-33 353h-432q-44 -71 -110 -197t-66 -154q0 -32 48 -52.5t117 -24.5l-12 -66h-506l15 66q90 8 149 51.5t105 124.5q124 204 345 583l357 615h80l147 -1229q8 -63 45 -100.5t111 -44.5zM731 1133l-315 -558h379z
M1192 1731q0 -52 -34 -87.5t-83 -35.5t-84 35.5t-35 87.5q0 51 35 86.5t84 35.5t83 -35.5t34 -86.5zM784 1731q0 -52 -35 -87.5t-84 -35.5t-83.5 35.5t-34.5 87.5q0 51 34.5 86.5t83.5 35.5t84 -35.5t35 -86.5z" />
    <glyph glyph-name="Aring" unicode="&#xc5;" horiz-adv-x="1251" 
d="M1180 0h-539l14 66q85 10 114.5 19t47 22t17.5 34l-33 353h-432q-44 -71 -110 -197t-66 -154q0 -32 48 -52.5t117 -24.5l-12 -66h-506l15 66q90 8 149 51.5t105 124.5q124 204 345 583l357 615h80l147 -1229q8 -63 45 -100.5t111 -44.5zM731 1133l-315 -558h379z
M1130 1681q0 -110 -82 -184t-211 -74q-105 0 -164 49.5t-59 132.5q0 111 82 187t209 76q101 0 163 -50t62 -137zM1003 1681q0 54 -25 90.5t-79 36.5q-69 0 -114.5 -57.5t-45.5 -143.5q0 -53 25.5 -88.5t78.5 -35.5q72 0 116 56.5t44 141.5z" />
    <glyph glyph-name="AE" unicode="&#xc6;" horiz-adv-x="1866" 
d="M1837 1077h-74q-6 110 -47 181t-102 79q-71 9 -170 9h-137l-131 -572h69q76 0 121.5 16.5t86 69t79.5 148.5h74l-127 -555h-74l2 59q0 92 -19.5 125.5t-58.5 46t-102 12.5h-70l-100 -432q-13 -67 -13 -96q0 -55 37.5 -72.5t167.5 -17.5q96 0 131 5.5t62.5 16.5t57.5 37
t70 73t85 110t65 98h72l-123 -418h-1067l14 66q119 9 158 34.5t53 87.5l97 416h-435q-29 -36 -55.5 -68.5t-55.5 -70t-64 -85t-81 -112.5q-24 -34 -39.5 -67.5t-15.5 -50.5q0 -74 150 -84l-15 -66h-526l14 66q77 11 143 47.5t140 130.5q214 260 428.5 533t435.5 554
q-30 15 -168 23l17 65h1120zM555 688h387l150 647h-27z" />
    <glyph glyph-name="Ccedilla" unicode="&#xc7;" horiz-adv-x="1229" 
d="M788 -233q0 -104 -94 -157.5t-301 -53.5l15 71q102 0 142.5 9.5t64.5 30t24 59.5q0 32 -29.5 49.5t-105.5 17.5l37 178q-127 12 -227.5 85t-157 196.5t-56.5 279.5q0 242 103 456t278.5 339t378.5 125q115 0 204 -28.5t144 -71.5l58 67h82l-111 -506h-82v39
q0 215 -73.5 316.5t-219.5 101.5q-143 0 -263 -109t-190.5 -296.5t-70.5 -409.5q0 -218 94.5 -348.5t253.5 -130.5q128 0 238.5 83t187.5 236l72 -37q-106 -197 -244.5 -292t-323.5 -99l-14 -65q81 0 133.5 -36.5t52.5 -98.5z" />
    <glyph glyph-name="Egrave" unicode="&#xc8;" horiz-adv-x="1235" 
d="M1206 1077h-73q-10 118 -49.5 185t-100.5 75q-71 9 -170 9h-145l-131 -572h77q79 0 125 18t85 70t77 146h74l-127 -555h-74l2 59q0 92 -19.5 125.5t-58.5 46t-102 12.5h-78l-100 -432q-12 -62 -12 -96q0 -53 38.5 -71.5t173.5 -18.5q118 0 158.5 10t71.5 32.5t76 73
t92.5 115t73.5 109.5h71l-123 -418h-1075l14 66q119 9 158 34.5t53 87.5l238 1031l4 36q0 26 -13 43.5t-58.5 35t-84.5 20.5l17 65h995zM981 1546l-35 -39l-199 103l-130 65q-39 23 -61.5 43.5t-22.5 59.5t27.5 64.5t68.5 25.5q26 0 54 -19.5t127.5 -122.5t170.5 -180z" />
    <glyph glyph-name="Eacute" unicode="&#xc9;" horiz-adv-x="1235" 
d="M1206 1077h-73q-10 118 -49.5 185t-100.5 75q-71 9 -170 9h-145l-131 -572h77q79 0 125 18t85 70t77 146h74l-127 -555h-74l2 59q0 92 -19.5 125.5t-58.5 46t-102 12.5h-78l-100 -432q-12 -62 -12 -96q0 -53 38.5 -71.5t173.5 -18.5q118 0 158.5 10t71.5 32.5t76 73
t92.5 115t73.5 109.5h71l-123 -418h-1075l14 66q119 9 158 34.5t53 87.5l238 1031l4 36q0 26 -13 43.5t-58.5 35t-84.5 20.5l17 65h995zM1135 1796q0 -45 -27.5 -72.5t-72.5 -50.5q-112 -48 -363 -166l-26 39q107 93 282 262q37 39 66.5 49.5t56.5 10.5q37 0 60.5 -20.5
t23.5 -51.5z" />
    <glyph glyph-name="Ecircumflex" unicode="&#xca;" horiz-adv-x="1235" 
d="M1206 1077h-73q-10 118 -49.5 185t-100.5 75q-71 9 -170 9h-145l-131 -572h77q79 0 125 18t85 70t77 146h74l-127 -555h-74l2 59q0 92 -19.5 125.5t-58.5 46t-102 12.5h-78l-100 -432q-12 -62 -12 -96q0 -53 38.5 -71.5t173.5 -18.5q118 0 158.5 10t71.5 32.5t76 73
t92.5 115t73.5 109.5h71l-123 -418h-1075l14 66q119 9 158 34.5t53 87.5l238 1031l4 36q0 26 -13 43.5t-58.5 35t-84.5 20.5l17 65h995zM1149 1538l-49 -31l-236 211l-319 -211l-47 31l291 285q18 18 39.5 31.5t60.5 13.5q43 0 57.5 -13.5t22.5 -27.5z" />
    <glyph glyph-name="Edieresis" unicode="&#xcb;" horiz-adv-x="1235" 
d="M1206 1077h-73q-10 118 -49.5 185t-100.5 75q-71 9 -170 9h-145l-131 -572h77q79 0 125 18t85 70t77 146h74l-127 -555h-74l2 59q0 92 -19.5 125.5t-58.5 46t-102 12.5h-78l-100 -432q-12 -62 -12 -96q0 -53 38.5 -71.5t173.5 -18.5q118 0 158.5 10t71.5 32.5t76 73
t92.5 115t73.5 109.5h71l-123 -418h-1075l14 66q119 9 158 34.5t53 87.5l238 1031l4 36q0 26 -13 43.5t-58.5 35t-84.5 20.5l17 65h995zM1153 1731q0 -52 -34 -87.5t-83 -35.5t-84 35.5t-35 87.5q0 51 35 86.5t84 35.5t83 -35.5t34 -86.5zM745 1731q0 -52 -35 -87.5
t-84 -35.5t-83.5 35.5t-34.5 87.5q0 51 34.5 86.5t83.5 35.5t84 -35.5t35 -86.5z" />
    <glyph glyph-name="Igrave" unicode="&#xcc;" horiz-adv-x="758" 
d="M401 162q0 -45 41 -68q10 -6 58.5 -16.5t66.5 -11.5l-14 -66h-598l14 66l33 3q92 6 121.5 20t44.5 38t22 55l240 1039l4 34q0 48 -51 68.5t-115 30.5l15 65h598l-13 -65q-76 -6 -143 -25q-62 -20 -80 -98l-239 -1038q-5 -18 -5 -31zM823 1546l-35 -39l-199 103l-130 65
q-39 23 -61.5 43.5t-22.5 59.5t27.5 64.5t68.5 25.5q26 0 54 -19.5t127.5 -122.5t170.5 -180z" />
    <glyph glyph-name="Iacute" unicode="&#xcd;" horiz-adv-x="758" 
d="M401 162q0 -45 41 -68q10 -6 58.5 -16.5t66.5 -11.5l-14 -66h-598l14 66l33 3q92 6 121.5 20t44.5 38t22 55l240 1039l4 34q0 48 -51 68.5t-115 30.5l15 65h598l-13 -65q-76 -6 -143 -25q-62 -20 -80 -98l-239 -1038q-5 -18 -5 -31zM897 1796q0 -45 -27.5 -72.5
t-72.5 -50.5q-112 -48 -363 -166l-26 39q107 93 282 262q37 39 66.5 49.5t56.5 10.5q37 0 60.5 -20.5t23.5 -51.5z" />
    <glyph glyph-name="Icircumflex" unicode="&#xce;" horiz-adv-x="758" 
d="M401 162q0 -45 41 -68q10 -6 58.5 -16.5t66.5 -11.5l-14 -66h-598l14 66l33 3q92 6 121.5 20t44.5 38t22 55l240 1039l4 34q0 48 -51 68.5t-115 30.5l15 65h598l-13 -65q-76 -6 -143 -25q-62 -20 -80 -98l-239 -1038q-5 -18 -5 -31zM928 1538l-49 -31l-236 211l-319 -211
l-47 31l291 285q18 18 39.5 31.5t60.5 13.5q43 0 57.5 -13.5t22.5 -27.5z" />
    <glyph glyph-name="Idieresis" unicode="&#xcf;" horiz-adv-x="758" 
d="M401 162q0 -45 41 -68q10 -6 58.5 -16.5t66.5 -11.5l-14 -66h-598l14 66l33 3q92 6 121.5 20t44.5 38t22 55l240 1039l4 34q0 48 -51 68.5t-115 30.5l15 65h598l-13 -65q-76 -6 -143 -25q-62 -20 -80 -98l-239 -1038q-5 -18 -5 -31zM938 1731q0 -51 -34 -87t-83 -36
q-51 0 -85 36t-34 87t34 87t85 36q49 0 83 -36.5t34 -86.5zM549 1731q0 -51 -34 -87t-83 -36q-51 0 -85 36t-34 87t34 87t85 36q49 0 83 -36.5t34 -86.5z" />
    <glyph glyph-name="Eth" unicode="&#xd0;" horiz-adv-x="1434" 
d="M1415 872q0 -247 -108.5 -443.5t-309.5 -312.5t-440 -116h-586l15 66q26 0 70 6t59 12q55 24 73 100l121 518h-168l23 95h166l94 407q8 35 8 51q0 26 -9 43.5t-46.5 33.5t-83.5 22l14 65h557q156 0 287 -69t197.5 -191t66.5 -287zM1180 870q0 217 -100.5 345t-276.5 128
l-135 -4l-125 -542h280l-20 -95h-283l-106 -464q-6 -29 -6 -52q0 -60 47 -84t147 -24q163 0 294.5 101t207.5 288t76 403z" />
    <glyph glyph-name="Ntilde" unicode="&#xd1;" horiz-adv-x="1468" 
d="M1096 -14h-88l-502 1198l-178 -774q-27 -110 -27 -191q0 -67 21 -92q13 -20 64 -39.5t75 -21.5l-12 -66h-525l17 66q31 3 92 21t78 30q35 25 61.5 87.5t54.5 194.5l160 688q12 61 12 101q0 53 -26 87t-68 54t-92 25l16 65h387l457 -1110l164 709q27 130 27 188
q0 48 -13.5 74t-66.5 47t-101 27l17 65h516l-17 -65q-24 -2 -62 -15t-62.5 -25t-48 -40.5t-43.5 -80.5t-39.5 -134t-247.5 -1073zM1317 1842q-31 -112 -93 -178t-141 -66q-52 0 -90 16t-70 35t-61.5 35t-64.5 16q-40 0 -65.5 -25t-63.5 -110l-54 25q49 132 106 187.5
t124 55.5q46 0 84.5 -16t72 -35t63 -35t58.5 -16q45 0 72 19t45 62l21 52z" />
    <glyph glyph-name="Ograve" unicode="&#xd2;" horiz-adv-x="1393" 
d="M1374 872q0 -245 -107 -454t-284.5 -331t-372.5 -122q-229 0 -369.5 159t-140.5 417q0 241 103 449.5t281.5 335t379.5 126.5q150 0 267 -71.5t180 -204.5t63 -304zM1139 932q0 204 -76.5 320t-218.5 116q-139 0 -252.5 -111.5t-184.5 -324.5t-71 -438
q0 -212 76.5 -328.5t218.5 -116.5q141 0 255 113.5t183.5 324t69.5 445.5zM1091 1546l-35 -39l-199 103l-130 65q-39 23 -61.5 43.5t-22.5 59.5t27.5 64.5t68.5 25.5q26 0 54 -19.5t127.5 -122.5t170.5 -180z" />
    <glyph glyph-name="Oacute" unicode="&#xd3;" horiz-adv-x="1393" 
d="M1374 872q0 -245 -107 -454t-284.5 -331t-372.5 -122q-229 0 -369.5 159t-140.5 417q0 241 103 449.5t281.5 335t379.5 126.5q150 0 267 -71.5t180 -204.5t63 -304zM1139 932q0 204 -76.5 320t-218.5 116q-139 0 -252.5 -111.5t-184.5 -324.5t-71 -438
q0 -212 76.5 -328.5t218.5 -116.5q141 0 255 113.5t183.5 324t69.5 445.5zM1145 1796q0 -45 -27.5 -72.5t-72.5 -50.5q-112 -48 -363 -166l-26 39q107 93 282 262q37 39 66.5 49.5t56.5 10.5q37 0 60.5 -20.5t23.5 -51.5z" />
    <glyph glyph-name="Ocircumflex" unicode="&#xd4;" horiz-adv-x="1393" 
d="M1374 872q0 -245 -107 -454t-284.5 -331t-372.5 -122q-229 0 -369.5 159t-140.5 417q0 241 103 449.5t281.5 335t379.5 126.5q150 0 267 -71.5t180 -204.5t63 -304zM1139 932q0 204 -76.5 320t-218.5 116q-139 0 -252.5 -111.5t-184.5 -324.5t-71 -438
q0 -212 76.5 -328.5t218.5 -116.5q141 0 255 113.5t183.5 324t69.5 445.5zM1198 1538l-49 -31l-236 211l-319 -211l-47 31l291 285q18 18 39.5 31.5t60.5 13.5q43 0 57.5 -13.5t22.5 -27.5z" />
    <glyph glyph-name="Otilde" unicode="&#xd5;" horiz-adv-x="1393" 
d="M1374 872q0 -245 -107 -454t-284.5 -331t-372.5 -122q-229 0 -369.5 159t-140.5 417q0 241 103 449.5t281.5 335t379.5 126.5q150 0 267 -71.5t180 -204.5t63 -304zM1139 932q0 204 -76.5 320t-218.5 116q-139 0 -252.5 -111.5t-184.5 -324.5t-71 -438
q0 -212 76.5 -328.5t218.5 -116.5q141 0 255 113.5t183.5 324t69.5 445.5zM1260 1842q-31 -112 -93 -178t-141 -66q-52 0 -90 16t-70 35t-61.5 35t-64.5 16q-40 0 -65.5 -25t-63.5 -110l-54 25q49 132 106 187.5t124 55.5q46 0 84.5 -16t72 -35t63 -35t58.5 -16q45 0 72 19
t45 62l21 52z" />
    <glyph glyph-name="Odieresis" unicode="&#xd6;" horiz-adv-x="1393" 
d="M1374 872q0 -245 -107 -454t-284.5 -331t-372.5 -122q-229 0 -369.5 159t-140.5 417q0 241 103 449.5t281.5 335t379.5 126.5q150 0 267 -71.5t180 -204.5t63 -304zM1139 932q0 204 -76.5 320t-218.5 116q-139 0 -252.5 -111.5t-184.5 -324.5t-71 -438
q0 -212 76.5 -328.5t218.5 -116.5q141 0 255 113.5t183.5 324t69.5 445.5zM1227 1731q0 -52 -34 -87.5t-83 -35.5t-84 35.5t-35 87.5q0 51 35 86.5t84 35.5t83 -35.5t34 -86.5zM819 1731q0 -52 -35 -87.5t-84 -35.5t-83.5 35.5t-34.5 87.5q0 51 34.5 86.5t83.5 35.5
t84 -35.5t35 -86.5z" />
    <glyph glyph-name="multiply" unicode="&#xd7;" horiz-adv-x="1317" 
d="M1044 111l-362 362l-360 -364l-89 90l365 360l-365 363l89 88l360 -363l362 363l89 -88l-365 -363l365 -360z" />
    <glyph glyph-name="Oslash" unicode="&#xd8;" horiz-adv-x="1393" 
d="M1374 872q0 -245 -107 -454t-284.5 -331t-372.5 -122q-225 0 -370 160l-150 -160l-53 53l158 166q-95 148 -95 357q0 241 103 449.5t281.5 335t379.5 126.5q235 0 375 -164l131 139l53 -49l-141 -149q92 -152 92 -357zM336 494q0 -93 10 -150l766 811
q-35 108 -100.5 160.5t-167.5 52.5q-139 0 -252.5 -111.5t-184.5 -324.5t-71 -438zM1139 932q0 74 -9 137l-765 -813q69 -207 266 -207q141 0 255 113.5t183.5 324t69.5 445.5z" />
    <glyph glyph-name="Ugrave" unicode="&#xd9;" horiz-adv-x="1466" 
d="M604 -35q-190 0 -300.5 88.5t-110.5 239.5q0 47 8 82l196 844l4 32q0 38 -25 62.5t-91 36.5l-23 4l14 65h551l-16 -65q-67 -6 -125 -25q-55 -19 -74 -100l-182 -791q-14 -61 -14 -119q0 -121 65.5 -183t188.5 -62q155 0 262 93.5t145 262.5q41 162 88.5 374.5t61.5 291.5
t14 125q0 49 -24 77q-44 41 -158 56l16 65h539l-17 -65q-38 -3 -86 -16t-73 -29q-68 -40 -123 -277q-72 -331 -137 -604q-34 -143 -110.5 -246t-198 -160t-265.5 -57zM1120 1546l-35 -39l-199 103l-130 65q-39 23 -61.5 43.5t-22.5 59.5t27.5 64.5t68.5 25.5q26 0 54 -19.5
t127.5 -122.5t170.5 -180z" />
    <glyph glyph-name="Uacute" unicode="&#xda;" horiz-adv-x="1466" 
d="M604 -35q-190 0 -300.5 88.5t-110.5 239.5q0 47 8 82l196 844l4 32q0 38 -25 62.5t-91 36.5l-23 4l14 65h551l-16 -65q-67 -6 -125 -25q-55 -19 -74 -100l-182 -791q-14 -61 -14 -119q0 -121 65.5 -183t188.5 -62q155 0 262 93.5t145 262.5q41 162 88.5 374.5t61.5 291.5
t14 125q0 49 -24 77q-44 41 -158 56l16 65h539l-17 -65q-38 -3 -86 -16t-73 -29q-68 -40 -123 -277q-72 -331 -137 -604q-34 -143 -110.5 -246t-198 -160t-265.5 -57zM1235 1796q0 -45 -27.5 -72.5t-72.5 -50.5q-112 -48 -363 -166l-26 39q107 93 282 262q37 39 66.5 49.5
t56.5 10.5q37 0 60.5 -20.5t23.5 -51.5z" />
    <glyph glyph-name="Ucircumflex" unicode="&#xdb;" horiz-adv-x="1466" 
d="M604 -35q-190 0 -300.5 88.5t-110.5 239.5q0 47 8 82l196 844l4 32q0 38 -25 62.5t-91 36.5l-23 4l14 65h551l-16 -65q-67 -6 -125 -25q-55 -19 -74 -100l-182 -791q-14 -61 -14 -119q0 -121 65.5 -183t188.5 -62q155 0 262 93.5t145 262.5q41 162 88.5 374.5t61.5 291.5
t14 125q0 49 -24 77q-44 41 -158 56l16 65h539l-17 -65q-38 -3 -86 -16t-73 -29q-68 -40 -123 -277q-72 -331 -137 -604q-34 -143 -110.5 -246t-198 -160t-265.5 -57zM1278 1538l-49 -31l-236 211l-319 -211l-47 31l291 285q18 18 39.5 31.5t60.5 13.5q43 0 57.5 -13.5
t22.5 -27.5z" />
    <glyph glyph-name="Udieresis" unicode="&#xdc;" horiz-adv-x="1466" 
d="M604 -35q-190 0 -300.5 88.5t-110.5 239.5q0 47 8 82l196 844l4 32q0 38 -25 62.5t-91 36.5l-23 4l14 65h551l-16 -65q-67 -6 -125 -25q-55 -19 -74 -100l-182 -791q-14 -61 -14 -119q0 -121 65.5 -183t188.5 -62q155 0 262 93.5t145 262.5q41 162 88.5 374.5t61.5 291.5
t14 125q0 49 -24 77q-44 41 -158 56l16 65h539l-17 -65q-38 -3 -86 -16t-73 -29q-68 -40 -123 -277q-72 -331 -137 -604q-34 -143 -110.5 -246t-198 -160t-265.5 -57zM1295 1731q0 -52 -34 -87.5t-83 -35.5t-84 35.5t-35 87.5q0 51 35 86.5t84 35.5t83 -35.5t34 -86.5z
M887 1731q0 -52 -35 -87.5t-84 -35.5t-83.5 35.5t-34.5 87.5q0 51 34.5 86.5t83.5 35.5t84 -35.5t35 -86.5z" />
    <glyph glyph-name="Yacute" unicode="&#xdd;" horiz-adv-x="1137" 
d="M588 168q0 -60 54.5 -78t123.5 -24l-14 -66h-623l14 66q67 5 117.5 13.5t76.5 33.5t40 80l72 311l8 49q0 26 -9 67t-47 199t-94 365q-14 47 -29.5 77.5t-41.5 59.5q-34 27 -93 33l15 65h542l-16 -65l-53 -3q-123 -4 -123 -53q0 -11 5 -38.5t17 -81t119 -490.5
q166 221 292 397t126 203q0 29 -33 44t-119 22l15 65h465l-17 -65q-14 -2 -52 -14.5t-56 -24.5l-31 -20q-43 -26 -139 -143t-342 -456q-48 -65 -67.5 -104t-35.5 -113l-63 -276zM1131 1796q0 -45 -27.5 -72.5t-72.5 -50.5q-112 -48 -363 -166l-26 39q107 93 282 262
q37 39 66.5 49.5t56.5 10.5q37 0 60.5 -20.5t23.5 -51.5z" />
    <glyph glyph-name="Thorn" unicode="&#xde;" horiz-adv-x="1155" 
d="M1149 831q0 -143 -77.5 -257.5t-222.5 -182t-312 -67.5h-105l-31 -136l-4 -36q0 -49 39 -66q20 -13 121 -20l-14 -66h-568l17 66q109 11 134.5 25t39 38t22.5 59l236 1022q8 43 8 52q0 42 -48 63t-97 29l14 65h557l-16 -65q-54 -5 -104 -18.5t-67.5 -37.5t-27.5 -67
l-22 -98h157q167 0 269 -81.5t102 -220.5zM903 823q0 111 -65.5 171.5t-184.5 60.5h-51l-149 -649h41q126 0 218 53t141.5 149t49.5 215z" />
    <glyph glyph-name="germandbls" unicode="&#xdf;" horiz-adv-x="1008" 
d="M1028 1317q0 -97 -45 -178t-132 -136.5t-171 -64.5l-2 -8q121 -30 191.5 -119t70.5 -215q0 -153 -72 -291.5t-196 -226.5t-246 -88q-67 0 -113 10l17 82q42 -12 82 -12q82 0 156.5 78.5t120.5 216t46 272.5q0 121 -53.5 187.5t-149.5 66.5h-16l16 82h35q73 0 140 43
t107 120.5t40 180.5q0 75 -32 116.5t-91 41.5q-102 0 -169.5 -103t-110.5 -311l-213 -1002q-30 -142 -103.5 -257.5t-173.5 -180.5t-201 -65q-83 0 -122 33t-39 87q0 47 27.5 77t74.5 30q37 0 67.5 -24t58.5 -71l30 -50q55 4 100 97.5t86 287.5l211 983q41 193 108.5 302
t173 175.5t226.5 66.5q117 0 191.5 -63.5t74.5 -169.5z" />
    <glyph glyph-name="agrave" unicode="&#xe0;" horiz-adv-x="1092" 
d="M772 -16q-69 0 -108.5 42t-42.5 105h-7l-47 -45q-122 -115 -227 -115q-126 0 -198 104.5t-72 284.5q0 171 71.5 322.5t188.5 239.5t256 88q61 0 121.5 -18t97.5 -46l182 47l10 -14l-149 -645q-25 -94 -25 -141q0 -97 95 -97q51 0 98 19l-15 -64q-72 -35 -124.5 -51
t-104.5 -16zM764 764q0 40 -20.5 81.5t-57 67t-82.5 25.5q-88 0 -164 -79t-120 -215.5t-44 -285.5t36 -211.5t110 -62.5q99 0 215 141zM795 1110l-260 213q-38 29 -54 53t-16 58t24 59t62 25q32 0 57 -18t54 -70q7 -14 14.5 -27.5t157.5 -259.5z" />
    <glyph glyph-name="aacute" unicode="&#xe1;" horiz-adv-x="1092" 
d="M772 -16q-69 0 -108.5 42t-42.5 105h-7l-47 -45q-122 -115 -227 -115q-126 0 -198 104.5t-72 284.5q0 171 71.5 322.5t188.5 239.5t256 88q61 0 121.5 -18t97.5 -46l182 47l10 -14l-149 -645q-25 -94 -25 -141q0 -97 95 -97q51 0 98 19l-15 -64q-72 -35 -124.5 -51
t-104.5 -16zM764 764q0 40 -20.5 81.5t-57 67t-82.5 25.5q-88 0 -164 -79t-120 -215.5t-44 -285.5t36 -211.5t110 -62.5q99 0 215 141zM844 1440q0 -40 -29 -70t-95 -75q-128 -88 -255 -185l-35 33q134 176 205 287q34 49 63.5 68.5t67.5 19.5q34 0 56 -23t22 -55z" />
    <glyph glyph-name="acircumflex" unicode="&#xe2;" horiz-adv-x="1092" 
d="M772 -16q-69 0 -108.5 42t-42.5 105h-7l-47 -45q-122 -115 -227 -115q-126 0 -198 104.5t-72 284.5q0 171 71.5 322.5t188.5 239.5t256 88q61 0 121.5 -18t97.5 -46l182 47l10 -14l-149 -645q-25 -94 -25 -141q0 -97 95 -97q51 0 98 19l-15 -64q-72 -35 -124.5 -51
t-104.5 -16zM764 764q0 40 -20.5 81.5t-57 67t-82.5 25.5q-88 0 -164 -79t-120 -215.5t-44 -285.5t36 -211.5t110 -62.5q99 0 215 141zM872 1118l-207 273l-309 -273l-47 33l285 346q26 31 45.5 38t50.5 7q37 0 50.5 -10.5t23.5 -30.5l155 -350z" />
    <glyph glyph-name="atilde" unicode="&#xe3;" horiz-adv-x="1092" 
d="M772 -16q-69 0 -108.5 42t-42.5 105h-7l-47 -45q-122 -115 -227 -115q-126 0 -198 104.5t-72 284.5q0 171 71.5 322.5t188.5 239.5t256 88q61 0 121.5 -18t97.5 -46l182 47l10 -14l-149 -645q-25 -94 -25 -141q0 -97 95 -97q51 0 98 19l-15 -64q-72 -35 -124.5 -51
t-104.5 -16zM764 764q0 40 -20.5 81.5t-57 67t-82.5 25.5q-88 0 -164 -79t-120 -215.5t-44 -285.5t36 -211.5t110 -62.5q99 0 215 141zM1004 1473q-31 -112 -93 -178t-141 -66q-52 0 -90 16t-70 35t-61.5 35t-64.5 16q-40 0 -65.5 -25t-63.5 -110l-54 25q49 132 106 187.5
t124 55.5q46 0 84.5 -16t72 -35t63 -35t58.5 -16q45 0 72 19t45 62l21 52z" />
    <glyph glyph-name="adieresis" unicode="&#xe4;" horiz-adv-x="1092" 
d="M772 -16q-69 0 -108.5 42t-42.5 105h-7l-47 -45q-122 -115 -227 -115q-126 0 -198 104.5t-72 284.5q0 171 71.5 322.5t188.5 239.5t256 88q61 0 121.5 -18t97.5 -46l182 47l10 -14l-149 -645q-25 -94 -25 -141q0 -97 95 -97q51 0 98 19l-15 -64q-72 -35 -124.5 -51
t-104.5 -16zM764 764q0 40 -20.5 81.5t-57 67t-82.5 25.5q-88 0 -164 -79t-120 -215.5t-44 -285.5t36 -211.5t110 -62.5q99 0 215 141zM963 1364q0 -51 -34 -87t-83 -36q-51 0 -85 36t-34 87t34 87t85 36q49 0 83 -36.5t34 -86.5zM574 1364q0 -51 -34 -87t-83 -36
q-51 0 -85 36t-34 87t34 87t85 36q49 0 83 -36.5t34 -86.5z" />
    <glyph glyph-name="aring" unicode="&#xe5;" horiz-adv-x="1092" 
d="M772 -16q-69 0 -108.5 42t-42.5 105h-7l-47 -45q-122 -115 -227 -115q-126 0 -198 104.5t-72 284.5q0 171 71.5 322.5t188.5 239.5t256 88q61 0 121.5 -18t97.5 -46l182 47l10 -14l-149 -645q-25 -94 -25 -141q0 -97 95 -97q51 0 98 19l-15 -64q-72 -35 -124.5 -51
t-104.5 -16zM764 764q0 40 -20.5 81.5t-57 67t-82.5 25.5q-88 0 -164 -79t-120 -215.5t-44 -285.5t36 -211.5t110 -62.5q99 0 215 141zM950 1372q0 -110 -82 -184t-211 -74q-105 0 -164 49.5t-59 132.5q0 111 82 187t209 76q101 0 163 -50t62 -137zM823 1372q0 54 -25 90.5
t-79 36.5q-69 0 -114.5 -57.5t-45.5 -143.5q0 -53 25.5 -88.5t78.5 -35.5q72 0 116 56.5t44 141.5z" />
    <glyph glyph-name="ae" unicode="&#xe6;" horiz-adv-x="1386" 
d="M1356 801q0 -103 -57.5 -176.5t-188.5 -124.5t-332 -70q0 -346 199 -346q74 0 141 46t139 151l56 -41q-71 -121 -180.5 -195t-225.5 -74q-222 0 -291 197h-2q-71 -96 -153 -145.5t-185 -49.5q-106 0 -171.5 56t-65.5 153q0 155 112 249t472 161q12 49 24 99t12 93
q0 73 -33.5 113.5t-93.5 40.5q-80 0 -137 -51v-29q0 -54 -4 -102q-9 -38 -42.5 -65t-86.5 -27q-42 0 -60 24.5t-18 59.5q0 66 55.5 126t144.5 98t169 38q195 0 258 -111q131 111 289 111q122 0 189 -55t67 -154zM1171 819q0 119 -96 119q-98 0 -179 -120.5t-112 -317.5
q148 11 226.5 49.5t119.5 103t41 166.5zM348 86q65 0 129.5 38t118.5 122q-8 40 -8 106q0 92 14 158q-173 -19 -265.5 -98t-92.5 -201q0 -60 29 -92.5t75 -32.5z" />
    <glyph glyph-name="ccedilla" unicode="&#xe7;" horiz-adv-x="842" 
d="M588 -233q0 -104 -94 -157.5t-301 -53.5l14 71q102 0 142.5 9.5t64.5 30t24 59.5q0 32 -29.5 49.5t-105.5 17.5l37 184q-127 19 -199.5 120.5t-72.5 267.5q0 173 66.5 323.5t182.5 236t252 85.5q122 0 192 -57.5t70 -155.5q0 -77 -34.5 -125.5t-94.5 -48.5
q-53 0 -80.5 27t-27.5 61q0 60 57 176q-31 51 -106 51q-72 0 -136 -72t-100.5 -197t-36.5 -278q0 -141 54 -224t147 -83q72 0 136 44.5t134 150.5l56 -39q-154 -262 -383 -269l-15 -69q84 0 135.5 -37.5t51.5 -97.5z" />
    <glyph glyph-name="egrave" unicode="&#xe8;" horiz-adv-x="868" 
d="M838 801q0 -104 -57.5 -181.5t-193 -130.5t-325.5 -81q0 -324 197 -324q73 0 141 46.5t139 150.5l56 -41q-76 -126 -184.5 -197.5t-221.5 -71.5q-157 0 -241.5 99.5t-84.5 281.5q0 173 70.5 329.5t189 242.5t259.5 86q122 0 189 -55t67 -154zM653 819q0 119 -96 119
q-65 0 -126.5 -60t-105 -167t-57.5 -234q69 13 131 28t119 50q135 82 135 264zM721 1110l-260 213q-38 29 -54 53t-16 58t24 59t62 25q32 0 57 -18t54 -70q7 -14 14.5 -27.5t157.5 -259.5z" />
    <glyph glyph-name="eacute" unicode="&#xe9;" horiz-adv-x="868" 
d="M838 801q0 -104 -57.5 -181.5t-193 -130.5t-325.5 -81q0 -324 197 -324q73 0 141 46.5t139 150.5l56 -41q-76 -126 -184.5 -197.5t-221.5 -71.5q-157 0 -241.5 99.5t-84.5 281.5q0 173 70.5 329.5t189 242.5t259.5 86q122 0 189 -55t67 -154zM653 819q0 119 -96 119
q-65 0 -126.5 -60t-105 -167t-57.5 -234q69 13 131 28t119 50q135 82 135 264zM834 1440q0 -40 -29 -70t-95 -75q-128 -88 -255 -185l-35 33q134 176 205 287q34 49 63.5 68.5t67.5 19.5q34 0 56 -23t22 -55z" />
    <glyph glyph-name="ecircumflex" unicode="&#xea;" horiz-adv-x="868" 
d="M838 801q0 -104 -57.5 -181.5t-193 -130.5t-325.5 -81q0 -324 197 -324q73 0 141 46.5t139 150.5l56 -41q-76 -126 -184.5 -197.5t-221.5 -71.5q-157 0 -241.5 99.5t-84.5 281.5q0 173 70.5 329.5t189 242.5t259.5 86q122 0 189 -55t67 -154zM653 819q0 119 -96 119
q-65 0 -126.5 -60t-105 -167t-57.5 -234q69 13 131 28t119 50q135 82 135 264zM825 1118l-207 273l-309 -273l-47 33l285 346q26 31 45.5 38t50.5 7q37 0 50.5 -10.5t23.5 -30.5l155 -350z" />
    <glyph glyph-name="edieresis" unicode="&#xeb;" horiz-adv-x="868" 
d="M838 801q0 -104 -57.5 -181.5t-193 -130.5t-325.5 -81q0 -324 197 -324q73 0 141 46.5t139 150.5l56 -41q-76 -126 -184.5 -197.5t-221.5 -71.5q-157 0 -241.5 99.5t-84.5 281.5q0 173 70.5 329.5t189 242.5t259.5 86q122 0 189 -55t67 -154zM653 819q0 119 -96 119
q-65 0 -126.5 -60t-105 -167t-57.5 -234q69 13 131 28t119 50q135 82 135 264zM915 1364q0 -51 -34 -87t-83 -36q-51 0 -85 36t-34 87t34 87t85 36q49 0 83 -36.5t34 -86.5zM526 1364q0 -51 -34 -87t-83 -36q-51 0 -85 36t-34 87t34 87t85 36q49 0 83 -36.5t34 -86.5z" />
    <glyph glyph-name="igrave" unicode="&#xec;" horiz-adv-x="573" 
d="M274 -20q-74 0 -113.5 39.5t-39.5 103.5q0 46 16 110l107 426q22 88 22 160q0 44 -14.5 60t-52.5 16q-30 0 -69.5 -7t-53.5 -11l14 63q148 70 227 70t114.5 -40t35.5 -106q0 -50 -14 -110l-109 -424q-25 -106 -25 -154q0 -46 23 -65t68 -19q66 0 108 17l-14 -64
q-148 -65 -230 -65zM535 1110l-260 213q-38 29 -54 53t-16 58t24 59t62 25q32 0 57 -18t54 -70q7 -14 14.5 -27.5t157.5 -259.5z" />
    <glyph glyph-name="iacute" unicode="&#xed;" horiz-adv-x="573" 
d="M274 -20q-74 0 -113.5 39.5t-39.5 103.5q0 46 16 110l107 426q22 88 22 160q0 44 -14.5 60t-52.5 16q-30 0 -69.5 -7t-53.5 -11l14 63q148 70 227 70t114.5 -40t35.5 -106q0 -50 -14 -110l-109 -424q-25 -106 -25 -154q0 -46 23 -65t68 -19q66 0 108 17l-14 -64
q-148 -65 -230 -65zM631 1440q0 -40 -29 -70t-95 -75q-128 -88 -255 -185l-35 33q134 176 205 287q34 49 63.5 68.5t67.5 19.5q34 0 56 -23t22 -55z" />
    <glyph glyph-name="icircumflex" unicode="&#xee;" horiz-adv-x="573" 
d="M590 1120l-193 271l-293 -271l-45 31l265 342q20 29 43 39t55 10q27 0 45.5 -9t30.5 -36l143 -346zM274 -20q-74 0 -113.5 39.5t-39.5 103.5q0 46 16 110l107 426q22 88 22 160q0 44 -14.5 60t-52.5 16q-30 0 -69.5 -7t-53.5 -11l14 63q148 70 227 70t114.5 -40
t35.5 -106q0 -50 -14 -110l-109 -424q-25 -106 -25 -154q0 -46 23 -65t68 -19q66 0 108 17l-14 -64q-148 -65 -230 -65z" />
    <glyph glyph-name="idieresis" unicode="&#xef;" horiz-adv-x="573" 
d="M690 1364q0 -52 -33 -87.5t-82 -35.5q-48 0 -81 35t-33 88q0 52 33 87.5t81 35.5q49 0 82 -35.5t33 -87.5zM340 1364q0 -52 -33 -87.5t-82 -35.5q-48 0 -81 35t-33 88q0 52 33 87.5t81 35.5q49 0 82 -35.5t33 -87.5zM274 -20q-74 0 -113.5 39.5t-39.5 103.5q0 46 16 110
l107 426q22 88 22 160q0 44 -14.5 60t-52.5 16q-30 0 -69.5 -7t-53.5 -11l14 63q148 70 227 70t114.5 -40t35.5 -106q0 -50 -14 -110l-109 -424q-25 -106 -25 -154q0 -46 23 -65t68 -19q66 0 108 17l-14 -64q-148 -65 -230 -65z" />
    <glyph glyph-name="eth" unicode="&#xf0;" horiz-adv-x="1026" 
d="M821 1343q74 -99 117 -244t43 -294q0 -243 -72 -438.5t-198 -296.5t-289 -101q-162 0 -258 107.5t-96 294.5q0 166 66.5 307t184 222t252.5 81q76 0 140 -41.5t84 -95.5l8 2q2 39 2 53q0 192 -98 383l-265 -139l-41 74l263 137q-50 84 -134 145l60 57q47 -26 99 -70
t81 -77l225 119l43 -76zM762 647q0 118 -47.5 189t-132.5 71q-92 0 -161.5 -70.5t-110 -210.5t-40.5 -304q0 -281 176 -281q84 0 155 81.5t116 227t45 297.5z" />
    <glyph glyph-name="ntilde" unicode="&#xf1;" horiz-adv-x="1085" 
d="M788 -16q-73 0 -115 37.5t-42 105.5q0 49 22 131l92 352q25 100 25 156q0 53 -24.5 89t-67.5 36q-45 0 -107 -37t-127 -121l-168 -733h-186l148 647q24 112 24 160q0 43 -15 60.5t-52 17.5q-32 0 -67.5 -8t-47.5 -13l14 66q140 67 230 67q75 0 105.5 -42t33.5 -119h6
q84 80 129.5 111.5t91.5 47t98 15.5q81 0 129 -54.5t48 -146.5q0 -60 -25 -156l-84 -321q-25 -100 -25 -152q0 -46 23 -65t68 -19q59 0 104 21l-12 -66q-144 -67 -226 -67zM1018 1473q-31 -112 -93 -178t-141 -66q-52 0 -90 16t-70 35t-61.5 35t-64.5 16q-40 0 -65.5 -25
t-63.5 -110l-54 25q49 132 106 187.5t124 55.5q46 0 84.5 -16t72 -35t63 -35t58.5 -16q45 0 72 19t45 62l21 52z" />
    <glyph glyph-name="ograve" unicode="&#xf2;" horiz-adv-x="1018" 
d="M950 616q0 -174 -72 -327t-193.5 -236.5t-274.5 -83.5q-152 0 -247 107.5t-95 288.5q0 174 70 324t193.5 235.5t272.5 85.5q159 0 252.5 -106.5t93.5 -287.5zM748 653q0 141 -43 213t-125 72q-89 0 -158.5 -75t-110.5 -223.5t-41 -307.5q0 -291 170 -291q89 0 159 80.5
t109.5 224.5t39.5 307zM777 1110l-260 213q-38 29 -54 53t-16 58t24 59t62 25q32 0 57 -18t54 -70q7 -14 14.5 -27.5t157.5 -259.5z" />
    <glyph glyph-name="oacute" unicode="&#xf3;" horiz-adv-x="1018" 
d="M950 616q0 -174 -72 -327t-193.5 -236.5t-274.5 -83.5q-152 0 -247 107.5t-95 288.5q0 174 70 324t193.5 235.5t272.5 85.5q159 0 252.5 -106.5t93.5 -287.5zM748 653q0 141 -43 213t-125 72q-89 0 -158.5 -75t-110.5 -223.5t-41 -307.5q0 -291 170 -291q89 0 159 80.5
t109.5 224.5t39.5 307zM846 1440q0 -40 -29 -70t-95 -75q-128 -88 -255 -185l-35 33q134 176 205 287q34 49 63.5 68.5t67.5 19.5q34 0 56 -23t22 -55z" />
    <glyph glyph-name="ocircumflex" unicode="&#xf4;" horiz-adv-x="1018" 
d="M950 616q0 -174 -72 -327t-193.5 -236.5t-274.5 -83.5q-152 0 -247 107.5t-95 288.5q0 174 70 324t193.5 235.5t272.5 85.5q159 0 252.5 -106.5t93.5 -287.5zM748 653q0 141 -43 213t-125 72q-89 0 -158.5 -75t-110.5 -223.5t-41 -307.5q0 -291 170 -291q89 0 159 80.5
t109.5 224.5t39.5 307zM870 1118l-207 273l-309 -273l-47 33l285 346q26 31 45.5 38t50.5 7q37 0 50.5 -10.5t23.5 -30.5l155 -350z" />
    <glyph glyph-name="otilde" unicode="&#xf5;" horiz-adv-x="1018" 
d="M950 616q0 -174 -72 -327t-193.5 -236.5t-274.5 -83.5q-152 0 -247 107.5t-95 288.5q0 174 70 324t193.5 235.5t272.5 85.5q159 0 252.5 -106.5t93.5 -287.5zM748 653q0 141 -43 213t-125 72q-89 0 -158.5 -75t-110.5 -223.5t-41 -307.5q0 -291 170 -291q89 0 159 80.5
t109.5 224.5t39.5 307zM993 1473q-31 -112 -93 -178t-141 -66q-52 0 -90 16t-70 35t-61.5 35t-64.5 16q-40 0 -65.5 -25t-63.5 -110l-54 25q49 132 106 187.5t124 55.5q46 0 84.5 -16t72 -35t63 -35t58.5 -16q45 0 72 19t45 62l21 52z" />
    <glyph glyph-name="odieresis" unicode="&#xf6;" horiz-adv-x="1018" 
d="M950 616q0 -174 -72 -327t-193.5 -236.5t-274.5 -83.5q-152 0 -247 107.5t-95 288.5q0 174 70 324t193.5 235.5t272.5 85.5q159 0 252.5 -106.5t93.5 -287.5zM748 653q0 141 -43 213t-125 72q-89 0 -158.5 -75t-110.5 -223.5t-41 -307.5q0 -291 170 -291q89 0 159 80.5
t109.5 224.5t39.5 307zM969 1364q0 -51 -34 -87t-83 -36q-51 0 -85 36t-34 87t34 87t85 36q49 0 83 -36.5t34 -86.5zM580 1364q0 -51 -34 -87t-83 -36q-51 0 -85 36t-34 87t34 87t85 36q49 0 83 -36.5t34 -86.5z" />
    <glyph glyph-name="divide" unicode="&#xf7;" horiz-adv-x="1317" 
d="M813 967q0 -54 -37.5 -91.5t-91.5 -37.5t-91.5 37.5t-37.5 91.5q0 52 37.5 89.5t91.5 37.5t91.5 -37.5t37.5 -89.5zM170 498v125h1028v-125h-1028zM813 154q0 -53 -37 -90t-92 -37t-92 37t-37 90t38 91t91 38q52 0 90.5 -38t38.5 -91z" />
    <glyph glyph-name="oslash" unicode="&#xf8;" horiz-adv-x="1018" 
d="M950 616q0 -174 -72 -327t-193.5 -236.5t-274.5 -83.5q-165 0 -258 125l-129 -129l-48 45l142 137q-49 92 -49 218q0 174 70 324t193.5 235.5t272.5 85.5q167 0 260 -121l123 121l45 -45l-131 -131q49 -92 49 -218zM748 682l-472 -465q16 -83 53 -129.5t111 -46.5
q89 0 159 80.5t109.5 224.5t39.5 307v29zM270 301l469 463q-27 174 -159 174q-89 0 -158.5 -75t-110.5 -223.5t-41 -307.5v-31z" />
    <glyph glyph-name="ugrave" unicode="&#xf9;" horiz-adv-x="1077" 
d="M756 -16q-71 0 -112.5 42.5t-41.5 112.5h-6q-94 -94 -160.5 -129t-144.5 -35q-82 0 -127 55t-45 146q0 66 22 156l78 315q23 97 23 156q0 35 -12 58.5t-52 23.5q-50 0 -119 -23l17 66q144 69 219 69q147 0 147 -135q0 -51 -16 -119l-88 -370q-23 -107 -23 -154
q0 -57 24 -91t67 -34q110 0 215 135l174 752l174 12l12 -14l-147 -643q-27 -108 -27 -141q0 -57 22.5 -78t73.5 -21q49 0 96 19l-10 -64q-54 -27 -119.5 -47t-113.5 -20zM752 1110l-260 213q-38 29 -54 53t-16 58t24 59t62 25q32 0 57 -18t54 -70q7 -14 14.5 -27.5
t157.5 -259.5z" />
    <glyph glyph-name="uacute" unicode="&#xfa;" horiz-adv-x="1077" 
d="M756 -16q-71 0 -112.5 42.5t-41.5 112.5h-6q-94 -94 -160.5 -129t-144.5 -35q-82 0 -127 55t-45 146q0 66 22 156l78 315q23 97 23 156q0 35 -12 58.5t-52 23.5q-50 0 -119 -23l17 66q144 69 219 69q147 0 147 -135q0 -51 -16 -119l-88 -370q-23 -107 -23 -154
q0 -57 24 -91t67 -34q110 0 215 135l174 752l174 12l12 -14l-147 -643q-27 -108 -27 -141q0 -57 22.5 -78t73.5 -21q49 0 96 19l-10 -64q-54 -27 -119.5 -47t-113.5 -20zM883 1440q0 -40 -29 -70t-95 -75q-128 -88 -255 -185l-35 33q134 176 205 287q34 49 63.5 68.5
t67.5 19.5q34 0 56 -23t22 -55z" />
    <glyph glyph-name="ucircumflex" unicode="&#xfb;" horiz-adv-x="1077" 
d="M756 -16q-71 0 -112.5 42.5t-41.5 112.5h-6q-94 -94 -160.5 -129t-144.5 -35q-82 0 -127 55t-45 146q0 66 22 156l78 315q23 97 23 156q0 35 -12 58.5t-52 23.5q-50 0 -119 -23l17 66q144 69 219 69q147 0 147 -135q0 -51 -16 -119l-88 -370q-23 -107 -23 -154
q0 -57 24 -91t67 -34q110 0 215 135l174 752l174 12l12 -14l-147 -643q-27 -108 -27 -141q0 -57 22.5 -78t73.5 -21q49 0 96 19l-10 -64q-54 -27 -119.5 -47t-113.5 -20zM868 1118l-207 273l-309 -273l-47 33l285 346q26 31 45.5 38t50.5 7q37 0 50.5 -10.5t23.5 -30.5
l155 -350z" />
    <glyph glyph-name="udieresis" unicode="&#xfc;" horiz-adv-x="1077" 
d="M756 -16q-71 0 -112.5 42.5t-41.5 112.5h-6q-94 -94 -160.5 -129t-144.5 -35q-82 0 -127 55t-45 146q0 66 22 156l78 315q23 97 23 156q0 35 -12 58.5t-52 23.5q-50 0 -119 -23l17 66q144 69 219 69q147 0 147 -135q0 -51 -16 -119l-88 -370q-23 -107 -23 -154
q0 -57 24 -91t67 -34q110 0 215 135l174 752l174 12l12 -14l-147 -643q-27 -108 -27 -141q0 -57 22.5 -78t73.5 -21q49 0 96 19l-10 -64q-54 -27 -119.5 -47t-113.5 -20zM948 1364q0 -51 -34 -87t-83 -36q-51 0 -85 36t-34 87t34 87t85 36q49 0 83 -36.5t34 -86.5zM559 1364
q0 -51 -34 -87t-83 -36q-51 0 -85 36t-34 87t34 87t85 36q49 0 83 -36.5t34 -86.5z" />
    <glyph glyph-name="yacute" unicode="&#xfd;" horiz-adv-x="1022" 
d="M236 -444q-117 0 -177.5 34t-60.5 107q0 47 28 77.5t72 30.5q84 0 138 -125l24 -57h21q118 0 205.5 137t127.5 385h-6q-98 -95 -167.5 -130t-143.5 -35q-82 0 -130 54.5t-48 145.5q0 66 22 156l78 311q23 84 23 144q0 55 -14.5 74.5t-49.5 19.5q-50 0 -119 -23l17 66
q144 69 219 69q147 0 147 -141q0 -47 -20 -129l-84 -348q-23 -92 -23 -158q0 -54 25.5 -88.5t75.5 -34.5q111 0 217 135l166 748l172 12l12 -14l-172 -782q-67 -329 -207.5 -485t-367.5 -156zM867 1440q0 -40 -29 -70t-95 -75q-128 -88 -255 -185l-35 33q134 176 205 287
q34 49 63.5 68.5t67.5 19.5q34 0 56 -23t22 -55z" />
    <glyph glyph-name="thorn" unicode="&#xfe;" horiz-adv-x="1081" 
d="M1012 627q0 -170 -70 -322.5t-190 -242t-252 -89.5q-77 0 -127 21.5t-88 52.5l-58 -262q-12 -55 -12 -82q0 -35 31.5 -55t122.5 -29l-13 -63h-510l15 63q71 6 98 13.5t44.5 31.5t27.5 70l346 1550q10 46 10 88t-19 61t-61 24l-63 7l14 62l350 22l10 -14l-153 -670h6
q83 83 144 114.5t116 31.5q132 0 206.5 -103.5t74.5 -279.5zM805 623q0 134 -39 205t-113 71q-44 0 -92.5 -31t-111.5 -104l-127 -565q3 -37 26.5 -74.5t59 -59.5t79.5 -22q87 0 161 78t115.5 211t41.5 291z" />
    <glyph glyph-name="ydieresis" unicode="&#xff;" horiz-adv-x="1022" 
d="M236 -444q-117 0 -177.5 34t-60.5 107q0 47 28 77.5t72 30.5q84 0 138 -125l24 -57h21q118 0 205.5 137t127.5 385h-6q-98 -95 -167.5 -130t-143.5 -35q-82 0 -130 54.5t-48 145.5q0 66 22 156l78 311q23 84 23 144q0 55 -14.5 74.5t-49.5 19.5q-50 0 -119 -23l17 66
q144 69 219 69q147 0 147 -141q0 -47 -20 -129l-84 -348q-23 -92 -23 -158q0 -54 25.5 -88.5t75.5 -34.5q111 0 217 135l166 748l172 12l12 -14l-172 -782q-67 -329 -207.5 -485t-367.5 -156zM954 1364q0 -51 -34 -87t-83 -36q-51 0 -85 36t-34 87t34 87t85 36
q49 0 83 -36.5t34 -86.5zM565 1364q0 -51 -34 -87t-83 -36q-51 0 -85 36t-34 87t34 87t85 36q49 0 83 -36.5t34 -86.5z" />
    <glyph glyph-name="Amacron" unicode="&#x100;" horiz-adv-x="1251" 
d="M1180 0h-539l14 66q85 10 114.5 19t47 22t17.5 34l-33 353h-432q-44 -71 -110 -197t-66 -154q0 -32 48 -52.5t117 -24.5l-12 -66h-506l15 66q90 8 149 51.5t105 124.5q124 204 345 583l357 615h80l147 -1229q8 -63 45 -100.5t111 -44.5zM731 1133l-315 -558h379z
M1167 1661h-604l29 123h604z" />
    <glyph glyph-name="amacron" unicode="&#x101;" horiz-adv-x="1092" 
d="M772 -16q-69 0 -108.5 42t-42.5 105h-7l-47 -45q-122 -115 -227 -115q-126 0 -198 104.5t-72 284.5q0 171 71.5 322.5t188.5 239.5t256 88q61 0 121.5 -18t97.5 -46l182 47l10 -14l-149 -645q-25 -94 -25 -141q0 -97 95 -97q51 0 98 19l-15 -64q-72 -35 -124.5 -51
t-104.5 -16zM764 764q0 40 -20.5 81.5t-57 67t-82.5 25.5q-88 0 -164 -79t-120 -215.5t-44 -285.5t36 -211.5t110 -62.5q99 0 215 141zM940 1296h-604l29 123h604z" />
    <glyph glyph-name="Abreve" unicode="&#x102;" horiz-adv-x="1251" 
d="M1180 0h-539l14 66q85 10 114.5 19t47 22t17.5 34l-33 353h-432q-44 -71 -110 -197t-66 -154q0 -32 48 -52.5t117 -24.5l-12 -66h-506l15 66q90 8 149 51.5t105 124.5q124 204 345 583l357 615h80l147 -1229q8 -63 45 -100.5t111 -44.5zM731 1133l-315 -558h379z
M1229 1851q-59 -161 -151.5 -241t-227.5 -80q-258 0 -258 297v24l55 17q17 -103 68 -148t162 -45q121 0 185.5 52.5t111.5 140.5z" />
    <glyph glyph-name="abreve" unicode="&#x103;" horiz-adv-x="1092" 
d="M772 -16q-69 0 -108.5 42t-42.5 105h-7l-47 -45q-122 -115 -227 -115q-126 0 -198 104.5t-72 284.5q0 171 71.5 322.5t188.5 239.5t256 88q61 0 121.5 -18t97.5 -46l182 47l10 -14l-149 -645q-25 -94 -25 -141q0 -97 95 -97q51 0 98 19l-15 -64q-72 -35 -124.5 -51
t-104.5 -16zM764 764q0 40 -20.5 81.5t-57 67t-82.5 25.5q-88 0 -164 -79t-120 -215.5t-44 -285.5t36 -211.5t110 -62.5q99 0 215 141zM946 1495q-52 -181 -135 -275t-205 -94q-225 0 -225 336v33l53 12q16 -127 62 -178t131 -51q88 0 149.5 53.5t112.5 175.5z" />
    <glyph glyph-name="Aogonek" unicode="&#x104;" horiz-adv-x="1251" 
d="M1059 -444h-74q-116 0 -176.5 41.5t-60.5 115.5q0 71 52 145t154 142h-313l14 66q85 10 114.5 19t47 22t17.5 34l-33 353h-432q-44 -71 -110 -197t-66 -154q0 -32 48 -52.5t117 -24.5l-12 -66h-506l15 66q39 3 86 18t87 53t81 105q124 204 345 583l357 615h80l147 -1229
q8 -63 45 -100.5t111 -44.5l-14 -66h-146q-127 -118 -127 -256q0 -62 39.5 -89.5t124.5 -27.5zM731 1133l-315 -558h379z" />
    <glyph glyph-name="aogonek" unicode="&#x105;" horiz-adv-x="1092" 
d="M799 -444h-74q-116 0 -177 41.5t-61 115.5q0 149 209 289q-34 17 -53.5 51.5t-21.5 77.5h-7l-47 -45q-122 -115 -227 -115q-126 0 -198 104.5t-72 284.5q0 171 71.5 322.5t188.5 239.5t256 88q61 0 121.5 -18t97.5 -46l182 47l10 -14l-149 -645q-25 -94 -25 -141
q0 -97 95 -97q51 0 98 19l-15 -64q-72 -35 -124.5 -51t-104.5 -16h-16q-109 -112 -109 -240q0 -62 39.5 -89.5t124.5 -27.5zM764 764q0 40 -20.5 81.5t-57 67t-82.5 25.5q-88 0 -164 -79t-120 -215.5t-44 -285.5t36 -211.5t110 -62.5q99 0 215 141z" />
    <glyph glyph-name="Cacute" unicode="&#x106;" horiz-adv-x="1229" 
d="M1237 913h-82v39q0 215 -73.5 316.5t-219.5 101.5q-143 0 -263 -109t-190.5 -296.5t-70.5 -409.5q0 -218 94.5 -348.5t253.5 -130.5q128 0 238.5 83t187.5 236l72 -37q-110 -202 -253 -296.5t-337 -94.5q-140 0 -253 70t-177 198.5t-64 296.5q0 242 103 456t278.5 339
t378.5 125q115 0 204 -28.5t144 -71.5l58 67h82zM1161 1796q0 -45 -27.5 -72.5t-72.5 -50.5q-112 -48 -363 -166l-26 39q107 93 282 262q37 39 66.5 49.5t56.5 10.5q37 0 60.5 -20.5t23.5 -51.5z" />
    <glyph glyph-name="cacute" unicode="&#x107;" horiz-adv-x="842" 
d="M831 797q0 -77 -34.5 -125.5t-94.5 -48.5q-53 0 -80.5 27t-27.5 61q0 60 57 176q-31 51 -106 51q-72 0 -136 -72t-100.5 -197t-36.5 -278q0 -141 54 -224t147 -83q72 0 136 44.5t134 150.5l56 -39q-163 -269 -393 -269q-160 0 -249 104.5t-89 289.5q0 173 66.5 323.5
t182.5 236t252 85.5q122 0 192 -57.5t70 -155.5zM817 1440q0 -40 -29 -70t-95 -75q-128 -88 -255 -185l-35 33q134 176 205 287q34 49 63.5 68.5t67.5 19.5q34 0 56 -23t22 -55z" />
    <glyph glyph-name="Ccircumflex" unicode="&#x108;" horiz-adv-x="1229" 
d="M1237 913h-82v39q0 215 -73.5 316.5t-219.5 101.5q-143 0 -263 -109t-190.5 -296.5t-70.5 -409.5q0 -218 94.5 -348.5t253.5 -130.5q128 0 238.5 83t187.5 236l72 -37q-110 -202 -253 -296.5t-337 -94.5q-140 0 -253 70t-177 198.5t-64 296.5q0 242 103 456t278.5 339
t378.5 125q115 0 204 -28.5t144 -71.5l58 67h82zM1194 1538l-49 -31l-236 211l-319 -211l-47 31l291 285q18 18 39.5 31.5t60.5 13.5q43 0 57.5 -13.5t22.5 -27.5z" />
    <glyph glyph-name="ccircumflex" unicode="&#x109;" horiz-adv-x="842" 
d="M831 797q0 -77 -34.5 -125.5t-94.5 -48.5q-53 0 -80.5 27t-27.5 61q0 60 57 176q-31 51 -106 51q-72 0 -136 -72t-100.5 -197t-36.5 -278q0 -141 54 -224t147 -83q72 0 136 44.5t134 150.5l56 -39q-163 -269 -393 -269q-160 0 -249 104.5t-89 289.5q0 173 66.5 323.5
t182.5 236t252 85.5q122 0 192 -57.5t70 -155.5zM807 1118l-207 273l-309 -273l-47 33l285 346q26 31 45.5 38t50.5 7q37 0 50.5 -10.5t23.5 -30.5l155 -350z" />
    <glyph glyph-name="Cdotaccent" unicode="&#x10a;" horiz-adv-x="1229" 
d="M1237 913h-82v39q0 215 -73.5 316.5t-219.5 101.5q-143 0 -263 -109t-190.5 -296.5t-70.5 -409.5q0 -218 94.5 -348.5t253.5 -130.5q128 0 238.5 83t187.5 236l72 -37q-110 -202 -253 -296.5t-337 -94.5q-140 0 -253 70t-177 198.5t-64 296.5q0 242 103 456t278.5 339
t378.5 125q115 0 204 -28.5t144 -71.5l58 67h82zM1004 1736q0 -56 -37 -98.5t-92 -42.5q-50 0 -87.5 39.5t-37.5 93.5q0 56 37 97t88 41q53 0 91 -37.5t38 -92.5z" />
    <glyph glyph-name="cdotaccent" unicode="&#x10b;" horiz-adv-x="842" 
d="M831 797q0 -77 -34.5 -125.5t-94.5 -48.5q-53 0 -80.5 27t-27.5 61q0 60 57 176q-31 51 -106 51q-72 0 -136 -72t-100.5 -197t-36.5 -278q0 -141 54 -224t147 -83q72 0 136 44.5t134 150.5l56 -39q-163 -269 -393 -269q-160 0 -249 104.5t-89 289.5q0 173 66.5 323.5
t182.5 236t252 85.5q122 0 192 -57.5t70 -155.5zM729 1386q0 -56 -37 -98.5t-92 -42.5q-50 0 -87.5 39.5t-37.5 93.5q0 56 37 97t88 41q53 0 91 -37.5t38 -92.5z" />
    <glyph glyph-name="Ccaron" unicode="&#x10c;" horiz-adv-x="1229" 
d="M1237 913h-82v39q0 215 -73.5 316.5t-219.5 101.5q-143 0 -263 -109t-190.5 -296.5t-70.5 -409.5q0 -218 94.5 -348.5t253.5 -130.5q128 0 238.5 83t187.5 236l72 -37q-110 -202 -253 -296.5t-337 -94.5q-140 0 -253 70t-177 198.5t-64 296.5q0 242 103 456t278.5 339
t378.5 125q115 0 204 -28.5t144 -71.5l58 67h82zM1266 1837l-289 -285q-24 -22 -38.5 -33.5t-61.5 -11.5q-41 0 -55.5 13.5t-24.5 27.5l-180 289l49 33l233 -213l322 213z" />
    <glyph glyph-name="ccaron" unicode="&#x10d;" horiz-adv-x="842" 
d="M831 797q0 -77 -34.5 -125.5t-94.5 -48.5q-53 0 -80.5 27t-27.5 61q0 60 57 176q-31 51 -106 51q-72 0 -136 -72t-100.5 -197t-36.5 -278q0 -141 54 -224t147 -83q72 0 136 44.5t134 150.5l56 -39q-163 -269 -393 -269q-160 0 -249 104.5t-89 289.5q0 173 66.5 323.5
t182.5 236t252 85.5q122 0 192 -57.5t70 -155.5zM563 1118q-29 0 -43 6.5t-29 34.5l-157 352l49 31l202 -272l312 272l45 -35l-287 -344q-27 -32 -45.5 -38.5t-46.5 -6.5z" />
    <glyph glyph-name="Dcaron" unicode="&#x10e;" horiz-adv-x="1434" 
d="M1415 872q0 -247 -108.5 -443.5t-309.5 -312.5t-440 -116h-586l15 66q26 0 70 6t59 12q55 24 73 100l236 1020q8 35 8 51q0 26 -9 43.5t-46.5 33.5t-83.5 22l14 65h557q156 0 287 -69t197.5 -191t66.5 -287zM1180 870q0 217 -100.5 345t-276.5 128l-135 -4l-254 -1101
q-6 -29 -6 -52q0 -60 47 -84t147 -24q163 0 294.5 101t207.5 288t76 403zM1208 1837l-289 -285q-24 -22 -38.5 -33.5t-61.5 -11.5q-41 0 -55.5 13.5t-24.5 27.5l-180 289l49 33l233 -213l322 213z" />
    <glyph glyph-name="dcaron" unicode="&#x10f;" horiz-adv-x="1325" 
d="M823 195q0 -53 24 -76t81 -23q13 0 41.5 6t46.5 13l-15 -64q-75 -37 -125.5 -52t-95.5 -15q-75 0 -116 38t-41 115h-5q-89 -93 -153.5 -129.5t-122.5 -36.5q-127 0 -199.5 104.5t-72.5 284.5q0 167 70.5 320t188.5 241.5t251 88.5q58 0 119.5 -17.5t105.5 -46.5l78 340
q10 43 10 76q0 46 -23 67t-78 27l-75 8l14 62l383 22l10 -14l-276 -1200q-25 -100 -25 -139zM764 774q-6 73 -52 118.5t-114 45.5q-85 0 -159.5 -80t-118.5 -215.5t-44 -284.5q0 -150 36.5 -212t111.5 -62q99 0 215 147zM1501 1403q0 -116 -79.5 -217.5t-249.5 -186.5
l-31 64q107 57 146 87.5t64.5 67.5t41.5 88h-43q-56 0 -87.5 26.5t-31.5 74.5q0 53 38.5 94t98.5 41q69 0 101 -38t32 -101z" />
    <glyph glyph-name="Dcroat" unicode="&#x110;" horiz-adv-x="1434" 
d="M1415 872q0 -247 -108.5 -443.5t-309.5 -312.5t-440 -116h-586l15 66q26 0 70 6t59 12q55 24 73 100l121 518h-168l23 95h166l94 407q8 35 8 51q0 26 -9 43.5t-46.5 33.5t-83.5 22l14 65h557q156 0 287 -69t197.5 -191t66.5 -287zM1180 870q0 217 -100.5 345t-276.5 128
l-135 -4l-125 -542h280l-20 -95h-283l-106 -464q-6 -29 -6 -52q0 -60 47 -84t147 -24q163 0 294.5 101t207.5 288t76 403z" />
    <glyph glyph-name="dcroat" unicode="&#x111;" horiz-adv-x="1092" 
d="M1059 1253h203l-19 -82h-203l-192 -837q-25 -100 -25 -139q0 -53 24 -76t81 -23q13 0 41.5 6t46.5 13l-15 -64q-75 -37 -125.5 -52t-95.5 -15q-75 0 -116 38t-41 115h-5q-89 -93 -153.5 -129.5t-122.5 -36.5q-127 0 -199.5 104.5t-72.5 284.5q0 167 70.5 320t188.5 241.5
t251 88.5q58 0 119.5 -17.5t105.5 -46.5l51 225h-254l19 82h256q16 68 16 109q0 46 -23 67t-78 27l-75 8l14 62l383 22l10 -14zM764 774q-6 73 -52 118.5t-114 45.5q-85 0 -159.5 -80t-118.5 -215.5t-44 -284.5q0 -150 36.5 -212t111.5 -62q99 0 215 147z" />
    <glyph glyph-name="Emacron" unicode="&#x112;" horiz-adv-x="1235" 
d="M1206 1077h-73q-10 118 -49.5 185t-100.5 75q-71 9 -170 9h-145l-131 -572h77q79 0 125 18t85 70t77 146h74l-127 -555h-74l2 59q0 92 -19.5 125.5t-58.5 46t-102 12.5h-78l-100 -432q-12 -62 -12 -96q0 -53 38.5 -71.5t173.5 -18.5q118 0 158.5 10t71.5 32.5t76 73
t92.5 115t73.5 109.5h71l-123 -418h-1075l14 66q119 9 158 34.5t53 87.5l238 1031l4 36q0 26 -13 43.5t-58.5 35t-84.5 20.5l17 65h995zM1136 1661h-604l29 123h604z" />
    <glyph glyph-name="emacron" unicode="&#x113;" horiz-adv-x="868" 
d="M838 801q0 -104 -57.5 -181.5t-193 -130.5t-325.5 -81q0 -324 197 -324q73 0 141 46.5t139 150.5l56 -41q-76 -126 -184.5 -197.5t-221.5 -71.5q-157 0 -241.5 99.5t-84.5 281.5q0 173 70.5 329.5t189 242.5t259.5 86q122 0 189 -55t67 -154zM653 819q0 119 -96 119
q-65 0 -126.5 -60t-105 -167t-57.5 -234q69 13 131 28t119 50q135 82 135 264zM897 1296h-604l29 123h604z" />
    <glyph glyph-name="Ebreve" unicode="&#x114;" horiz-adv-x="1235" 
d="M1206 1077h-73q-10 118 -49.5 185t-100.5 75q-71 9 -170 9h-145l-131 -572h77q79 0 125 18t85 70t77 146h74l-127 -555h-74l2 59q0 92 -19.5 125.5t-58.5 46t-102 12.5h-78l-100 -432q-12 -62 -12 -96q0 -53 38.5 -71.5t173.5 -18.5q118 0 158.5 10t71.5 32.5t76 73
t92.5 115t73.5 109.5h71l-123 -418h-1075l14 66q119 9 158 34.5t53 87.5l238 1031l4 36q0 26 -13 43.5t-58.5 35t-84.5 20.5l17 65h995zM1196 1851q-59 -161 -151.5 -241t-227.5 -80q-258 0 -258 297v24l55 17q17 -103 68 -148t162 -45q121 0 185.5 52.5t111.5 140.5z" />
    <glyph glyph-name="ebreve" unicode="&#x115;" horiz-adv-x="868" 
d="M838 801q0 -104 -57.5 -181.5t-193 -130.5t-325.5 -81q0 -324 197 -324q73 0 141 46.5t139 150.5l56 -41q-76 -126 -184.5 -197.5t-221.5 -71.5q-157 0 -241.5 99.5t-84.5 281.5q0 173 70.5 329.5t189 242.5t259.5 86q122 0 189 -55t67 -154zM653 819q0 119 -96 119
q-65 0 -126.5 -60t-105 -167t-57.5 -234q69 13 131 28t119 50q135 82 135 264zM915 1495q-52 -181 -135 -275t-205 -94q-225 0 -225 336v33l53 12q16 -127 62 -178t131 -51q88 0 149.5 53.5t112.5 175.5z" />
    <glyph glyph-name="Edotaccent" unicode="&#x116;" horiz-adv-x="1235" 
d="M1206 1077h-73q-10 118 -49.5 185t-100.5 75q-71 9 -170 9h-145l-131 -572h77q79 0 125 18t85 70t77 146h74l-127 -555h-74l2 59q0 92 -19.5 125.5t-58.5 46t-102 12.5h-78l-100 -432q-12 -62 -12 -96q0 -53 38.5 -71.5t173.5 -18.5q118 0 158.5 10t71.5 32.5t76 73
t92.5 115t73.5 109.5h71l-123 -418h-1075l14 66q119 9 158 34.5t53 87.5l238 1031l4 36q0 26 -13 43.5t-58.5 35t-84.5 20.5l17 65h995zM981 1736q0 -56 -37 -98.5t-92 -42.5q-50 0 -87.5 39.5t-37.5 93.5q0 56 37 97t88 41q53 0 91 -37.5t38 -92.5z" />
    <glyph glyph-name="edotaccent" unicode="&#x117;" horiz-adv-x="868" 
d="M838 801q0 -104 -57.5 -181.5t-193 -130.5t-325.5 -81q0 -324 197 -324q73 0 141 46.5t139 150.5l56 -41q-76 -126 -184.5 -197.5t-221.5 -71.5q-157 0 -241.5 99.5t-84.5 281.5q0 173 70.5 329.5t189 242.5t259.5 86q122 0 189 -55t67 -154zM653 819q0 119 -96 119
q-65 0 -126.5 -60t-105 -167t-57.5 -234q69 13 131 28t119 50q135 82 135 264zM736 1386q0 -56 -37 -98.5t-92 -42.5q-50 0 -87.5 39.5t-37.5 93.5q0 56 37 97t88 41q53 0 91 -37.5t38 -92.5z" />
    <glyph glyph-name="Eogonek" unicode="&#x118;" horiz-adv-x="1235" 
d="M887 -444h-74q-116 0 -177 41.5t-61 115.5q0 149 207 287h-819l14 66q119 9 158 34.5t53 87.5l238 1031l4 36q0 26 -13 43.5t-58.5 35t-84.5 20.5l17 65h995l-80 -342h-73q-10 118 -49.5 185t-100.5 75q-71 9 -170 9h-145l-131 -572h77q79 0 125 18t85 70t77 146h74
l-127 -555h-74l2 59q0 92 -19.5 125.5t-58.5 46t-102 12.5h-78l-100 -432q-12 -62 -12 -96q0 -53 38.5 -71.5t173.5 -18.5q97 0 131.5 5t61 16t57 37.5t71 74t84.5 107.5t67 100h71l-123 -418h-176q-127 -118 -127 -256q0 -62 39.5 -89.5t124.5 -27.5z" />
    <glyph glyph-name="eogonek" unicode="&#x119;" horiz-adv-x="868" 
d="M539 -444h-74q-116 0 -177 41.5t-61 115.5q0 128 166 258q-159 0 -244.5 99.5t-85.5 281.5q0 173 70.5 329.5t189 242.5t259.5 86q122 0 189 -55t67 -154q0 -104 -57.5 -181.5t-193 -130.5t-325.5 -81q0 -324 197 -324q73 0 141 46.5t139 150.5l56 -41
q-54 -93 -129.5 -157t-163.5 -93q-115 -118 -115 -246q0 -62 39.5 -89.5t124.5 -27.5zM653 819q0 119 -96 119q-65 0 -126.5 -60t-105 -167t-57.5 -234q69 13 131 28t119 50q135 82 135 264z" />
    <glyph glyph-name="Ecaron" unicode="&#x11a;" horiz-adv-x="1235" 
d="M1206 1077h-73q-10 118 -49.5 185t-100.5 75q-71 9 -170 9h-145l-131 -572h77q79 0 125 18t85 70t77 146h74l-127 -555h-74l2 59q0 92 -19.5 125.5t-58.5 46t-102 12.5h-78l-100 -432q-12 -62 -12 -96q0 -53 38.5 -71.5t173.5 -18.5q118 0 158.5 10t71.5 32.5t76 73
t92.5 115t73.5 109.5h71l-123 -418h-1075l14 66q119 9 158 34.5t53 87.5l238 1031l4 36q0 26 -13 43.5t-58.5 35t-84.5 20.5l17 65h995zM1188 1837l-289 -285q-24 -22 -38.5 -33.5t-61.5 -11.5q-41 0 -55.5 13.5t-24.5 27.5l-180 289l49 33l233 -213l322 213z" />
    <glyph glyph-name="ecaron" unicode="&#x11b;" horiz-adv-x="868" 
d="M838 801q0 -104 -57.5 -181.5t-193 -130.5t-325.5 -81q0 -324 197 -324q73 0 141 46.5t139 150.5l56 -41q-76 -126 -184.5 -197.5t-221.5 -71.5q-157 0 -241.5 99.5t-84.5 281.5q0 173 70.5 329.5t189 242.5t259.5 86q122 0 189 -55t67 -154zM653 819q0 119 -96 119
q-65 0 -126.5 -60t-105 -167t-57.5 -234q69 13 131 28t119 50q135 82 135 264zM561 1118q-29 0 -43 6.5t-29 34.5l-157 352l49 31l202 -272l312 272l45 -35l-287 -344q-27 -32 -45.5 -38.5t-46.5 -6.5z" />
    <glyph glyph-name="Gcircumflex" unicode="&#x11c;" horiz-adv-x="1401" 
d="M625 -33q-153 0 -273.5 71.5t-186 202t-65.5 300.5q0 248 108 459t292.5 331.5t398.5 120.5q232 0 365 -100l57 67h80l-107 -495h-82q-4 246 -84 346t-245 100q-149 0 -275.5 -110.5t-199 -305t-72.5 -426.5q0 -223 92 -351t252 -128q46 0 83 9t66.5 24t73.5 51
q23 66 52.5 188t29.5 150q0 55 -42.5 73.5t-145.5 26.5l14 70h584l-15 -70l-28 -4q-70 -8 -97 -22q-56 -30 -73 -109q-67 -283 -74 -346q-266 -123 -483 -123zM1219 1538l-49 -31l-236 211l-319 -211l-47 31l291 285q18 18 39.5 31.5t60.5 13.5q43 0 57.5 -13.5t22.5 -27.5z
" />
    <glyph glyph-name="gcircumflex" unicode="&#x11d;" horiz-adv-x="1051" 
d="M254 -444q-246 0 -246 145q0 46 28.5 76t74.5 30q82 0 137 -127l24 -57h23q241 0 330 512l-7 2q-157 -157 -286 -157q-125 0 -194.5 101t-69.5 284q0 166 70.5 316.5t191 239.5t254.5 89q59 0 117 -17.5t98 -46.5l184 47l10 -14l-168 -789q-65 -336 -199.5 -485
t-371.5 -149zM760 774q0 37 -21.5 76.5t-57.5 63.5t-79 24q-87 0 -163 -78.5t-120.5 -213.5t-44.5 -284q0 -143 40.5 -207.5t109.5 -64.5q47 0 99 31.5t122 111.5zM899 1118l-207 273l-309 -273l-47 33l285 346q26 31 45.5 38t50.5 7q37 0 50.5 -10.5t23.5 -30.5l155 -350z
" />
    <glyph glyph-name="Gbreve" unicode="&#x11e;" horiz-adv-x="1401" 
d="M625 -33q-153 0 -273.5 71.5t-186 202t-65.5 300.5q0 248 108 459t292.5 331.5t398.5 120.5q232 0 365 -100l57 67h80l-107 -495h-82q-4 246 -84 346t-245 100q-149 0 -275.5 -110.5t-199 -305t-72.5 -426.5q0 -223 92 -351t252 -128q46 0 83 9t66.5 24t73.5 51
q23 66 52.5 188t29.5 150q0 55 -42.5 73.5t-145.5 26.5l14 70h584l-15 -70l-28 -4q-70 -8 -97 -22q-56 -30 -73 -109q-67 -283 -74 -346q-266 -123 -483 -123zM1286 1851q-59 -161 -151.5 -241t-227.5 -80q-258 0 -258 297v24l55 17q17 -103 68 -148t162 -45
q121 0 185.5 52.5t111.5 140.5z" />
    <glyph glyph-name="gbreve" unicode="&#x11f;" horiz-adv-x="1051" 
d="M254 -444q-246 0 -246 145q0 46 28.5 76t74.5 30q82 0 137 -127l24 -57h23q241 0 330 512l-7 2q-157 -157 -286 -157q-125 0 -194.5 101t-69.5 284q0 166 70.5 316.5t191 239.5t254.5 89q59 0 117 -17.5t98 -46.5l184 47l10 -14l-168 -789q-65 -336 -199.5 -485
t-371.5 -149zM760 774q0 37 -21.5 76.5t-57.5 63.5t-79 24q-87 0 -163 -78.5t-120.5 -213.5t-44.5 -284q0 -143 40.5 -207.5t109.5 -64.5q47 0 99 31.5t122 111.5zM956 1495q-52 -181 -135 -275t-205 -94q-225 0 -225 336v33l53 12q16 -127 62 -178t131 -51q88 0 149.5 53.5
t112.5 175.5z" />
    <glyph glyph-name="Gdotaccent" unicode="&#x120;" horiz-adv-x="1401" 
d="M625 -33q-153 0 -273.5 71.5t-186 202t-65.5 300.5q0 248 108 459t292.5 331.5t398.5 120.5q232 0 365 -100l57 67h80l-107 -495h-82q-4 246 -84 346t-245 100q-149 0 -275.5 -110.5t-199 -305t-72.5 -426.5q0 -223 92 -351t252 -128q46 0 83 9t66.5 24t73.5 51
q23 66 52.5 188t29.5 150q0 55 -42.5 73.5t-145.5 26.5l14 70h584l-15 -70l-28 -4q-70 -8 -97 -22q-56 -30 -73 -109q-67 -283 -74 -346q-266 -123 -483 -123zM1035 1736q0 -56 -37 -98.5t-92 -42.5q-50 0 -87.5 39.5t-37.5 93.5q0 56 37 97t88 41q53 0 91 -37.5t38 -92.5z
" />
    <glyph glyph-name="gdotaccent" unicode="&#x121;" horiz-adv-x="1051" 
d="M254 -444q-246 0 -246 145q0 46 28.5 76t74.5 30q82 0 137 -127l24 -57h23q241 0 330 512l-7 2q-157 -157 -286 -157q-125 0 -194.5 101t-69.5 284q0 166 70.5 316.5t191 239.5t254.5 89q59 0 117 -17.5t98 -46.5l184 47l10 -14l-168 -789q-65 -336 -199.5 -485
t-371.5 -149zM760 774q0 37 -21.5 76.5t-57.5 63.5t-79 24q-87 0 -163 -78.5t-120.5 -213.5t-44.5 -284q0 -143 40.5 -207.5t109.5 -64.5q47 0 99 31.5t122 111.5zM791 1386q0 -56 -37 -98.5t-92 -42.5q-50 0 -87.5 39.5t-37.5 93.5q0 56 37 97t88 41q53 0 91 -37.5
t38 -92.5z" />
    <glyph glyph-name="uni0122" unicode="&#x122;" horiz-adv-x="1401" 
d="M625 -33q-153 0 -273.5 71.5t-186 202t-65.5 300.5q0 248 108 459t292.5 331.5t398.5 120.5q232 0 365 -100l57 67h80l-107 -495h-82q-4 246 -84 346t-245 100q-149 0 -275.5 -110.5t-199 -305t-72.5 -426.5q0 -223 92 -351t252 -128q46 0 83 9t66.5 24t73.5 51
q23 66 52.5 188t29.5 150q0 55 -42.5 73.5t-145.5 26.5l14 70h584l-15 -70l-28 -4q-70 -8 -97 -22q-56 -30 -73 -109q-67 -283 -74 -346q-266 -123 -483 -123zM463 -444l8 57q98 6 141 41t56 88h-53q-111 0 -111 76q0 43 36 79.5t95 36.5q57 0 93 -35.5t36 -95.5
q0 -118 -85 -182.5t-216 -64.5z" />
    <glyph glyph-name="uni0123" unicode="&#x123;" horiz-adv-x="1051" 
d="M254 -444q-246 0 -246 145q0 46 28.5 76t74.5 30q82 0 137 -127l24 -57h23q241 0 330 512l-7 2q-157 -157 -286 -157q-125 0 -194.5 101t-69.5 284q0 166 70.5 316.5t191 239.5t254.5 89q59 0 117 -17.5t98 -46.5l184 47l10 -14l-168 -789q-65 -336 -199.5 -485
t-371.5 -149zM760 774q0 37 -21.5 76.5t-57.5 63.5t-79 24q-87 0 -163 -78.5t-120.5 -213.5t-44.5 -284q0 -143 40.5 -207.5t109.5 -64.5q47 0 99 31.5t122 111.5zM811 1505l-8 -57q-175 -11 -199 -129h47q119 0 119 -90q0 -47 -34.5 -75t-90.5 -28q-57 0 -96 33t-39 98
q0 110 83.5 179t217.5 69z" />
    <glyph glyph-name="Hcircumflex" unicode="&#x124;" horiz-adv-x="1546" 
d="M1196 160q0 -36 28.5 -60.5t112.5 -33.5l-14 -66h-551l16 66q106 10 123 18q56 23 74 100l117 512h-584l-115 -501l-4 -33q0 -47 33 -68q9 -7 42 -16t65 -12l-15 -66h-549l15 66q106 10 125 18q53 23 71 100l240 1035l4 32q0 53 -50 75.5t-93 27.5l14 65h549l-14 -65
q-53 -5 -100.5 -18.5t-66 -39t-28.5 -67.5t-102 -449h585l99 439l4 32q0 31 -12.5 49t-55.5 34.5t-74 19.5l15 65h549l-15 -65q-64 -6 -120.5 -24.5t-76 -101.5t-237.5 -1033zM1309 1538l-49 -31l-236 211l-319 -211l-47 31l291 285q18 18 39.5 31.5t60.5 13.5
q43 0 57.5 -13.5t22.5 -27.5z" />
    <glyph glyph-name="hcircumflex" unicode="&#x125;" horiz-adv-x="1030" 
d="M727 -16q-70 0 -111 38t-41 105q0 47 21 127l94 356q25 100 25 156q0 53 -24.5 89t-69.5 36q-42 0 -104 -36.5t-128 -121.5l-168 -733h-186l266 1157q12 58 12 74q0 46 -22.5 69t-74.5 28l-66 7l12 62l373 22l10 -14l-131 -563h4q114 104 179 136t136 32q82 0 129 -55
t47 -146q0 -63 -24 -156q-54 -208 -84 -322.5t-25 -150.5q0 -46 21.5 -65t64.5 -19q57 0 109 21l-13 -66q-139 -67 -231 -67zM1034 1538l-49 -31l-235 211l-320 -211l-47 31l291 285q18 18 40 31.5t60 13.5q28 0 47 -8.5t33 -32.5z" />
    <glyph glyph-name="Hbar" unicode="&#x126;" horiz-adv-x="1546" 
d="M1407 1098h166l-19 -84h-165l-189 -819l-4 -35q0 -36 28.5 -60.5t112.5 -33.5l-14 -66h-551l16 66q106 10 123 18q56 23 74 100l117 512h-584l-115 -501l-4 -33q0 -47 33 -68q9 -7 42 -16t65 -12l-15 -66h-549l15 66q106 10 125 18q53 23 71 100l193 830h-166l20 84h164
l29 121l4 32q0 53 -50 75.5t-93 27.5l14 65h549l-14 -65q-66 -6 -123 -25q-53 -20 -72 -100l-31 -131h586l27 121l4 32q0 31 -12.5 49t-55.5 34.5t-74 19.5l15 65h549l-15 -65q-53 -5 -100.5 -18.5t-66.5 -39t-29 -67t-31 -131.5zM1124 780l54 234h-586l-53 -234h585z" />
    <glyph glyph-name="hbar" unicode="&#x127;" horiz-adv-x="1030" 
d="M727 -16q-70 0 -111 38t-41 105q0 47 21 127l94 356q25 100 25 156q0 53 -24.5 89t-69.5 36q-42 0 -104 -36.5t-128 -121.5l-168 -733h-186l270 1171h-209l21 82h209q18 84 18 107q0 47 -23 69.5t-75 27.5l-66 7l13 62l372 22l10 -14l-65 -281h252l-21 -82h-252l-75 -329
h4q114 104 179 136t136 32q82 0 129 -55t47 -146q0 -63 -24 -156q-54 -208 -84 -322.5t-25 -150.5q0 -46 21.5 -65t64.5 -19q57 0 109 21l-13 -66q-139 -67 -231 -67z" />
    <glyph glyph-name="Itilde" unicode="&#x128;" horiz-adv-x="758" 
d="M401 162q0 -45 41 -68q10 -6 58.5 -16.5t66.5 -11.5l-14 -66h-598l14 66l33 3q92 6 121.5 20t44.5 38t22 55l240 1039l4 34q0 48 -51 68.5t-115 30.5l15 65h598l-13 -65q-76 -6 -143 -25q-62 -20 -80 -98l-239 -1038q-5 -18 -5 -31zM1001 1842q-31 -112 -93 -178
t-141 -66q-52 0 -90 16t-70 35t-61.5 35t-64.5 16q-40 0 -65.5 -25t-63.5 -110l-54 25q49 132 106 187.5t124 55.5q46 0 84.5 -16t72 -35t63 -35t58.5 -16q45 0 72 19t45 62l21 52z" />
    <glyph glyph-name="itilde" unicode="&#x129;" horiz-adv-x="573" 
d="M739 1464q-31 -94 -106 -165.5t-152 -71.5q-46 0 -76.5 15.5t-55 34.5t-48.5 34.5t-57 15.5q-26 0 -44 -9.5t-35 -28t-63 -95.5l-51 25q48 109 117 173t137 64q44 0 74.5 -15.5t55.5 -34.5t47.5 -34.5t49.5 -15.5q47 0 75.5 17.5t50.5 58.5l28 55zM274 -20
q-74 0 -113.5 39.5t-39.5 103.5q0 46 16 110l107 426q22 88 22 160q0 44 -14.5 60t-52.5 16q-30 0 -69.5 -7t-53.5 -11l14 63q148 70 227 70t114.5 -40t35.5 -106q0 -50 -14 -110l-109 -424q-25 -106 -25 -154q0 -46 23 -65t68 -19q66 0 108 17l-14 -64q-148 -65 -230 -65z
" />
    <glyph glyph-name="Imacron" unicode="&#x12a;" horiz-adv-x="758" 
d="M401 162q0 -45 41 -68q10 -6 58.5 -16.5t66.5 -11.5l-14 -66h-598l14 66l33 3q92 6 121.5 20t44.5 38t22 55l240 1039l4 34q0 48 -51 68.5t-115 30.5l15 65h598l-13 -65q-76 -6 -143 -25q-62 -20 -80 -98l-239 -1038q-5 -18 -5 -31zM927 1661h-604l29 123h604z" />
    <glyph glyph-name="imacron" unicode="&#x12b;" horiz-adv-x="573" 
d="M670 1296h-564l29 123h563zM274 -20q-74 0 -113.5 39.5t-39.5 103.5q0 46 16 110l107 426q22 88 22 160q0 44 -14.5 60t-52.5 16q-30 0 -69.5 -7t-53.5 -11l14 63q148 70 227 70t114.5 -40t35.5 -106q0 -50 -14 -110l-109 -424q-25 -106 -25 -154q0 -46 23 -65t68 -19
q66 0 108 17l-14 -64q-148 -65 -230 -65z" />
    <glyph glyph-name="Ibreve" unicode="&#x12c;" horiz-adv-x="758" 
d="M401 162q0 -45 41 -68q10 -6 58.5 -16.5t66.5 -11.5l-14 -66h-598l14 66l33 3q92 6 121.5 20t44.5 38t22 55l240 1039l4 34q0 48 -51 68.5t-115 30.5l15 65h598l-13 -65q-76 -6 -143 -25q-62 -20 -80 -98l-239 -1038q-5 -18 -5 -31zM960 1851q-59 -161 -151.5 -241
t-227.5 -80q-258 0 -258 297v24l55 17q17 -103 68 -148t162 -45q121 0 185.5 52.5t111.5 140.5z" />
    <glyph glyph-name="ibreve" unicode="&#x12d;" horiz-adv-x="573" 
d="M692 1495q-56 -182 -137.5 -274.5t-204.5 -92.5q-209 0 -209 273q0 41 6 94l50 12q9 -108 27.5 -148.5t53 -61.5t97.5 -21q61 0 104 20.5t76 60.5t86 150zM274 -20q-74 0 -113.5 39.5t-39.5 103.5q0 46 16 110l107 426q22 88 22 160q0 44 -14.5 60t-52.5 16
q-30 0 -69.5 -7t-53.5 -11l14 63q148 70 227 70t114.5 -40t35.5 -106q0 -50 -14 -110l-109 -424q-25 -106 -25 -154q0 -46 23 -65t68 -19q66 0 108 17l-14 -64q-148 -65 -230 -65z" />
    <glyph glyph-name="Iogonek" unicode="&#x12e;" horiz-adv-x="758" 
d="M414 -444h-74q-116 0 -177 41.5t-61 115.5q0 71 52 144.5t155 142.5h-354l14 66l33 3q92 6 121.5 20t44.5 38t22 55l240 1039l4 34q0 48 -51 68.5t-115 30.5l15 65h598l-13 -65q-76 -6 -143 -25q-62 -20 -80 -98l-239 -1038q-5 -18 -5 -31q0 -45 41 -68q10 -6 58.5 -16.5
t66.5 -11.5l-14 -66h-164q-127 -118 -127 -256q0 -62 39.5 -89.5t124.5 -27.5z" />
    <glyph glyph-name="iogonek" unicode="&#x12f;" horiz-adv-x="573" 
d="M424 -444h-74q-115 0 -176 41.5t-61 115.5q0 66 45 135t133 132h-17q-74 0 -113.5 39.5t-39.5 103.5q0 46 16 110l107 426q22 88 22 160q0 44 -14.5 60t-52.5 16q-30 0 -69.5 -7t-53.5 -11l14 63q148 70 227 70t114.5 -40t35.5 -106q0 -50 -14 -110l-109 -424
q-25 -106 -25 -154q0 -46 23 -65t68 -19q66 0 108 17l-14 -64l-101 -39q-131 -122 -131 -262q0 -62 39.5 -89.5t124.5 -27.5zM608 1386q0 -56 -37 -98.5t-92 -42.5q-48 0 -86.5 39t-38.5 94q0 57 38 97.5t87 40.5q55 0 92 -38t37 -92z" />
    <glyph glyph-name="Idotaccent" unicode="&#x130;" horiz-adv-x="758" 
d="M401 162q0 -45 41 -68q10 -6 58.5 -16.5t66.5 -11.5l-14 -66h-598l14 66l33 3q92 6 121.5 20t44.5 38t22 55l240 1039l4 34q0 48 -51 68.5t-115 30.5l15 65h598l-13 -65q-76 -6 -143 -25q-62 -20 -80 -98l-239 -1038q-5 -18 -5 -31zM746 1736q0 -56 -37 -98.5t-92 -42.5
q-50 0 -87.5 39.5t-37.5 93.5q0 56 37 97t88 41q53 0 91 -37.5t38 -92.5z" />
    <glyph glyph-name="dotlessi" unicode="&#x131;" horiz-adv-x="573" 
d="M274 -20q-74 0 -113.5 39.5t-39.5 103.5q0 46 16 110l107 426q22 88 22 160q0 44 -14.5 60t-52.5 16q-30 0 -69.5 -7t-53.5 -11l14 63q148 70 227 70t114.5 -40t35.5 -106q0 -50 -14 -110l-109 -424q-25 -106 -25 -154q0 -46 23 -65t68 -19q66 0 108 17l-14 -64
q-148 -65 -230 -65z" />
    <glyph glyph-name="IJ" unicode="&#x132;" horiz-adv-x="1737" 
d="M401 162q0 -45 41 -68q10 -6 58.5 -16.5t66.5 -11.5l-14 -66h-598l14 66l33 3q92 6 121.5 20t44.5 38t22 55l240 1039l4 34q0 48 -51 68.5t-115 30.5l15 65h598l-13 -65q-76 -6 -143 -25q-62 -20 -80 -98l-239 -1038q-5 -18 -5 -31zM989 -35q-128 0 -206 70.5t-78 193.5
q0 103 49 175.5t129 72.5q54 0 82.5 -26t28.5 -70q0 -38 -18 -74.5t-43.5 -70t-53 -64t-45.5 -57.5q12 -29 50.5 -53.5t104.5 -24.5q71 0 120 40t84.5 118t78.5 268l170 756q4 12 4 32q0 30 -14 49t-45 30.5t-111 23.5l14 65h590l-14 -65q-99 -8 -144.5 -29.5t-62.5 -95.5
l-190 -846q-42 -186 -173.5 -302t-306.5 -116z" />
    <glyph glyph-name="ij" unicode="&#x133;" horiz-adv-x="1108" 
d="M608 1386q0 -56 -37 -98.5t-92 -42.5q-48 0 -86.5 39t-38.5 94q0 57 38 97.5t87 40.5q55 0 92 -38t37 -92zM274 -20q-74 0 -113.5 39.5t-39.5 103.5q0 46 16 110l107 426q22 99 22 160q0 44 -14.5 60t-52.5 16q-30 0 -69.5 -7t-53.5 -11l14 63q148 70 227 70t114.5 -40
t35.5 -106q0 -50 -14 -110l-109 -424q-9 -41 -17 -78.5t-8 -75.5q0 -46 23 -65t68 -19q66 0 108 17l-14 -64q-148 -65 -230 -65zM1163 1386q0 -56 -37 -98.5t-92 -42.5q-50 0 -87.5 39.5t-37.5 93.5q0 56 37 97t88 41q55 0 92 -38t37 -92zM1028 868q0 -43 -44 -264
t-118 -545q-31 -142 -104.5 -257t-172.5 -180.5t-200 -65.5q-83 0 -121.5 34t-38.5 84q0 47 25.5 78t66.5 31q67 0 116 -95l27 -50q131 8 207 385q71 303 138 636q20 103 20 156q0 40 -16 60t-58 20q-25 0 -61.5 -7t-61.5 -16l15 66q158 72 235 72q146 0 146 -142z" />
    <glyph glyph-name="Jcircumflex" unicode="&#x134;" horiz-adv-x="979" 
d="M231 -35q-128 0 -206 70.5t-78 193.5q0 103 49 175.5t129 72.5q54 0 82.5 -26t28.5 -70q0 -38 -18 -74.5t-43.5 -70t-53 -64t-45.5 -57.5q12 -29 50.5 -53.5t104.5 -24.5q71 0 120 40t84.5 118t78.5 268l170 756q4 12 4 32q0 30 -14 49t-45 30.5t-111 23.5l14 65h590
l-14 -65q-99 -8 -144.5 -29.5t-62.5 -95.5l-190 -846q-42 -186 -173.5 -302t-306.5 -116zM1157 1538l-49 -31l-236 211l-319 -211l-47 31l291 285q18 18 39.5 31.5t60.5 13.5q43 0 57.5 -13.5t22.5 -27.5z" />
    <glyph glyph-name="jcircumflex" unicode="&#x135;" horiz-adv-x="535" 
d="M455 868q0 -43 -44 -264t-118 -545q-31 -142 -104.5 -257t-172.5 -180.5t-200 -65.5q-83 0 -121.5 34t-38.5 84q0 47 25.5 78t66.5 31q67 0 116 -95l27 -50q131 8 207 385q71 303 138 636q20 103 20 156q0 40 -16 60t-58 20q-25 0 -61.5 -7t-61.5 -16l15 66
q158 72 235 72q146 0 146 -142zM592 1118l-207 273l-309 -273l-47 33l285 346q26 31 45.5 38t50.5 7q37 0 50.5 -10.5t23.5 -30.5l155 -350z" />
    <glyph glyph-name="uni0136" unicode="&#x136;" horiz-adv-x="1298" 
d="M731 776l145 -287q102 -205 132.5 -266t64.5 -95.5t69 -46t89 -15.5l-19 -66h-340q-136 352 -315 674h-43l-106 -463q-9 -36 -9 -57q0 -42 35 -60q12 -8 49.5 -17t59.5 -11l-15 -66h-548l14 66q99 8 121 18q53 23 71 100l240 1035q6 18 6 41q0 27 -15 43t-50.5 29.5
t-77.5 21.5l14 65h551l-14 -65q-63 -5 -127 -25q-53 -20 -72 -100l-117 -506h19q181 146 359.5 339.5t178.5 246.5q0 17 -24.5 28t-87.5 17l12 65h494l-17 -65l-32 -4q-55 -7 -106 -27.5t-85 -52.5l-131 -133q-215 -219 -373 -361zM463 -444l8 57q98 6 141 41t56 88h-53
q-111 0 -111 76q0 43 36 79.5t95 36.5q57 0 93 -35.5t36 -95.5q0 -118 -85 -182.5t-216 -64.5z" />
    <glyph glyph-name="uni0137" unicode="&#x137;" horiz-adv-x="975" 
d="M989 895q0 -47 -31.5 -83t-74.5 -36q-47 0 -119 35q-102 -69 -209 -186q109 -317 135.5 -380.5t48 -92.5t50 -45.5t59.5 -16.5q52 0 115 23l-13 -66q-83 -37 -130 -50t-99 -13q-77 0 -127 69t-142 351l-28 81l-117 -100l-86 -385h-186l297 1286q12 58 12 92
q0 38 -17.5 56t-62.5 23l-63 7l12 62l352 22l10 -14l-245 -1042h4l85 94q216 241 286 308.5t105.5 87t76.5 19.5q46 0 74 -28t28 -78zM266 -444l8 57q98 6 141 41t56 88h-53q-111 0 -111 76q0 43 36 79.5t95 36.5q57 0 93 -35.5t36 -95.5q0 -118 -85 -182.5t-216 -64.5z" />
    <glyph glyph-name="kgreenlandic" unicode="&#x138;" horiz-adv-x="1030" 
d="M1044 895q0 -49 -31 -84t-73 -35q-48 0 -121 35q-102 -69 -209 -186q108 -315 142.5 -395t73 -110t79.5 -30q50 0 113 23l-12 -66q-83 -37 -130 -50t-98 -13q-59 0 -102 39.5t-76 123.5q-43 103 -93 257l-28 81l-117 -100l-86 -385h-186l150 651q22 108 22 156
q0 35 -11.5 56.5t-51.5 21.5q-23 0 -60 -7.5t-59 -15.5l16 66q144 69 219 69q146 0 146 -139q0 -47 -19 -127l-57 -239h4l85 94q137 154 232 252.5t142 130.5t96 32q47 0 73.5 -28t26.5 -78z" />
    <glyph glyph-name="Lacute" unicode="&#x139;" horiz-adv-x="1139" 
d="M983 0h-1003l14 66q97 8 127 20q54 24 72 102l235 1026q6 30 6 46q0 68 -145 94l14 65h561l-14 -65q-67 -6 -131 -27q-57 -20 -76 -102l-221 -965q-16 -68 -16 -104q0 -49 32 -65.5t152 -16.5q181 0 237 53q39 37 112.5 139t102.5 156h70zM1026 1796q0 -45 -27.5 -72.5
t-72.5 -50.5q-112 -48 -363 -166l-26 39q107 93 282 262q37 39 66.5 49.5t56.5 10.5q37 0 60.5 -20.5t23.5 -51.5z" />
    <glyph glyph-name="lacute" unicode="&#x13a;" horiz-adv-x="522" 
d="M270 182q0 -51 22.5 -70.5t65.5 -19.5q26 0 60.5 5.5t56.5 13.5l-14 -66q-139 -65 -236 -65q-72 0 -113.5 39.5t-41.5 103.5q0 38 18 110l215 926q12 58 12 80q0 42 -21 62.5t-67 26.5l-59 7l14 62l350 22l11 -14l-248 -1075q-25 -114 -25 -148zM758 1796
q0 -44 -26.5 -71t-72.5 -50l-364 -168l-27 39l92 81l70 65l121 118q60 58 123 58q37 0 60.5 -20.5t23.5 -51.5z" />
    <glyph glyph-name="uni013B" unicode="&#x13b;" horiz-adv-x="1139" 
d="M983 0h-1003l14 66q97 8 127 20q54 24 72 102l235 1026q6 30 6 46q0 68 -145 94l14 65h561l-14 -65q-67 -6 -131 -27q-57 -20 -76 -102l-221 -965q-16 -68 -16 -104q0 -49 32 -65.5t152 -16.5q181 0 237 53q39 37 112.5 139t102.5 156h70zM338 -444l8 57q98 6 141 41
t56 88h-53q-111 0 -111 76q0 43 36 79.5t95 36.5q57 0 93 -35.5t36 -95.5q0 -118 -85 -182.5t-216 -64.5z" />
    <glyph glyph-name="uni013C" unicode="&#x13c;" horiz-adv-x="522" 
d="M270 182q0 -51 22.5 -70.5t65.5 -19.5q26 0 60.5 5.5t56.5 13.5l-14 -66q-139 -65 -236 -65q-72 0 -113.5 39.5t-41.5 103.5q0 38 18 110l246 1055q12 58 12 80q0 42 -21 62.5t-67 26.5l-59 7l14 62l350 22l10 -14l-278 -1204q-25 -114 -25 -148zM59 -444l8 57
q98 6 141 41t56 88h-53q-111 0 -111 76q0 43 36 79.5t95 36.5q57 0 93 -35.5t36 -95.5q0 -118 -85 -182.5t-216 -64.5z" />
    <glyph glyph-name="Lcaron" unicode="&#x13d;" horiz-adv-x="1139" 
d="M983 0h-1003l14 66q97 8 127 20q54 24 72 102l235 1026q6 30 6 46q0 68 -145 94l14 65h561l-14 -65q-67 -6 -131 -27q-57 -20 -76 -102l-221 -965q-16 -68 -16 -104q0 -49 32 -65.5t152 -16.5q181 0 237 53q39 37 112.5 139t102.5 156h70zM1274 1297q0 -116 -79.5 -217.5
t-249.5 -186.5l-31 64q107 57 146 87.5t64.5 67.5t41.5 88h-43q-56 0 -87.5 26.5t-31.5 74.5q0 53 38.5 94t98.5 41q69 0 101 -38t32 -101z" />
    <glyph glyph-name="lcaron" unicode="&#x13e;" horiz-adv-x="772" 
d="M270 182q0 -51 22.5 -70.5t65.5 -19.5q26 0 60.5 5.5t56.5 13.5l-14 -66q-139 -65 -236 -65q-72 0 -113.5 39.5t-41.5 103.5q0 38 18 110l246 1055q12 58 12 80q0 42 -21 62.5t-67 26.5l-59 7l14 62l350 22l10 -14l-278 -1204q-25 -114 -25 -148zM948 1403
q0 -116 -79.5 -217.5t-249.5 -186.5l-31 64q107 57 146 87.5t64.5 67.5t41.5 88h-43q-56 0 -87.5 26.5t-31.5 74.5q0 53 38.5 94t98.5 41q69 0 101 -38t32 -101z" />
    <glyph glyph-name="Ldot" unicode="&#x13f;" horiz-adv-x="1139" 
d="M983 0h-1003l14 66q97 8 127 20q54 24 72 102l235 1026q6 30 6 46q0 68 -145 94l14 65h561l-14 -65q-67 -6 -131 -27q-57 -20 -76 -102l-221 -965q-16 -68 -16 -104q0 -49 32 -65.5t152 -16.5q181 0 237 53q39 37 112.5 139t102.5 156h70zM1009 723q0 -58 -40 -96.5
t-97 -38.5t-96 39t-39 96t39.5 97t95.5 40t96.5 -39.5t40.5 -97.5z" />
    <glyph glyph-name="ldot" unicode="&#x140;" horiz-adv-x="803" 
d="M270 182q0 -51 22.5 -70.5t65.5 -19.5q26 0 60.5 5.5t56.5 13.5l-14 -66q-139 -65 -236 -65q-72 0 -113.5 39.5t-41.5 103.5q0 38 18 110l246 1055q12 58 12 80q0 42 -21 62.5t-67 26.5l-59 7l14 62l350 22l10 -14l-278 -1204q-25 -114 -25 -148zM811 681
q0 -56 -37 -98.5t-92 -42.5q-50 0 -87.5 39.5t-37.5 93.5q0 56 37 97t88 41q53 0 91 -37.5t38 -92.5z" />
    <glyph glyph-name="Lslash" unicode="&#x141;" horiz-adv-x="1139" 
d="M983 0h-1003l14 66q97 8 127 20q54 24 72 102l98 428l-154 -63l-14 90l192 76l113 495q6 30 6 46q0 68 -145 94l14 65h561l-14 -65q-67 -6 -131 -27q-57 -20 -76 -102l-94 -412l262 109l14 -91l-301 -118l-102 -453q-16 -68 -16 -104q0 -49 32 -65.5t152 -16.5
q181 0 237 53q39 37 112.5 139t102.5 156h70z" />
    <glyph glyph-name="lslash" unicode="&#x142;" horiz-adv-x="522" 
d="M401 791l154 63l16 -84l-192 -76l-84 -364q-25 -114 -25 -148q0 -51 22.5 -70.5t65.5 -19.5q26 0 60.5 5.5t56.5 13.5l-14 -66q-139 -65 -236 -65q-72 0 -113.5 39.5t-41.5 103.5q0 38 18 110l88 379l-131 -55l-16 84l170 68l135 579q12 58 12 80q0 42 -21 62.5t-67 26.5
l-59 7l14 62l350 22l10 -14z" />
    <glyph glyph-name="Nacute" unicode="&#x143;" horiz-adv-x="1468" 
d="M1096 -14h-88l-502 1198l-178 -774q-27 -110 -27 -191q0 -67 21 -92q13 -20 64 -39.5t75 -21.5l-12 -66h-525l17 66q31 3 92 21t78 30q35 25 61.5 87.5t54.5 194.5l160 688q12 61 12 101q0 53 -26 87t-68 54t-92 25l16 65h387l457 -1110l164 709q27 130 27 188
q0 48 -13.5 74t-66.5 47t-101 27l17 65h516l-17 -65q-24 -2 -62 -15t-62.5 -25t-48 -40.5t-43.5 -80.5t-39.5 -134t-247.5 -1073zM1268 1796q0 -45 -27.5 -72.5t-72.5 -50.5q-112 -48 -363 -166l-26 39q107 93 282 262q37 39 66.5 49.5t56.5 10.5q37 0 60.5 -20.5
t23.5 -51.5z" />
    <glyph glyph-name="nacute" unicode="&#x144;" horiz-adv-x="1085" 
d="M788 -16q-73 0 -115 37.5t-42 105.5q0 49 22 131l92 352q25 100 25 156q0 53 -24.5 89t-67.5 36q-45 0 -107 -37t-127 -121l-168 -733h-186l148 647q24 112 24 160q0 43 -15 60.5t-52 17.5q-32 0 -67.5 -8t-47.5 -13l14 66q140 67 230 67q75 0 105.5 -42t33.5 -119h6
q84 80 129.5 111.5t91.5 47t98 15.5q81 0 129 -54.5t48 -146.5q0 -60 -25 -156l-84 -321q-25 -100 -25 -152q0 -46 23 -65t68 -19q59 0 104 21l-12 -66q-144 -67 -226 -67zM926 1440q0 -40 -29 -70t-95 -75q-128 -88 -255 -185l-35 33q134 176 205 287q34 49 63.5 68.5
t67.5 19.5q34 0 56 -23t22 -55z" />
    <glyph glyph-name="uni0145" unicode="&#x145;" horiz-adv-x="1468" 
d="M1096 -14h-88l-502 1198l-178 -774q-27 -110 -27 -191q0 -67 21 -92q13 -20 64 -39.5t75 -21.5l-12 -66h-525l17 66q31 3 92 21t78 30q35 25 61.5 87.5t54.5 194.5l160 688q12 61 12 101q0 53 -26 87t-68 54t-92 25l16 65h387l457 -1110l164 709q27 130 27 188
q0 48 -13.5 74t-66.5 47t-101 27l17 65h516l-17 -65q-24 -2 -62 -15t-62.5 -25t-48 -40.5t-43.5 -80.5t-39.5 -134t-247.5 -1073zM428 -444l8 57q98 6 141 41t56 88h-53q-111 0 -111 76q0 43 36 79.5t95 36.5q57 0 93 -35.5t36 -95.5q0 -118 -85 -182.5t-216 -64.5z" />
    <glyph glyph-name="uni0146" unicode="&#x146;" horiz-adv-x="1085" 
d="M788 -16q-73 0 -115 37.5t-42 105.5q0 49 22 131l92 352q25 100 25 156q0 53 -24.5 89t-67.5 36q-45 0 -107 -37t-127 -121l-168 -733h-186l148 647q24 112 24 160q0 43 -15 60.5t-52 17.5q-32 0 -67.5 -8t-47.5 -13l14 66q140 67 230 67q75 0 105.5 -42t33.5 -119h6
q84 80 129.5 111.5t91.5 47t98 15.5q81 0 129 -54.5t48 -146.5q0 -60 -25 -156l-84 -321q-25 -100 -25 -152q0 -46 23 -65t68 -19q59 0 104 21l-12 -66q-144 -67 -226 -67zM332 -444l8 57q98 6 141 41t56 88h-53q-111 0 -111 76q0 43 36 79.5t95 36.5q57 0 93 -35.5
t36 -95.5q0 -118 -85 -182.5t-216 -64.5z" />
    <glyph glyph-name="Ncaron" unicode="&#x147;" horiz-adv-x="1468" 
d="M1096 -14h-88l-502 1198l-178 -774q-27 -110 -27 -191q0 -67 21 -92q13 -20 64 -39.5t75 -21.5l-12 -66h-525l17 66q31 3 92 21t78 30q35 25 61.5 87.5t54.5 194.5l160 688q12 61 12 101q0 53 -26 87t-68 54t-92 25l16 65h387l457 -1110l164 709q27 130 27 188
q0 48 -13.5 74t-66.5 47t-101 27l17 65h516l-17 -65q-24 -2 -62 -15t-62.5 -25t-48 -40.5t-43.5 -80.5t-39.5 -134t-247.5 -1073zM1280 1837l-289 -285q-24 -22 -38.5 -33.5t-61.5 -11.5q-41 0 -55.5 13.5t-24.5 27.5l-180 289l49 33l233 -213l322 213z" />
    <glyph glyph-name="ncaron" unicode="&#x148;" horiz-adv-x="1085" 
d="M788 -16q-73 0 -115 37.5t-42 105.5q0 49 22 131l92 352q25 100 25 156q0 53 -24.5 89t-67.5 36q-45 0 -107 -37t-127 -121l-168 -733h-186l148 647q24 112 24 160q0 43 -15 60.5t-52 17.5q-32 0 -67.5 -8t-47.5 -13l14 66q140 67 230 67q75 0 105.5 -42t33.5 -119h6
q84 80 129.5 111.5t91.5 47t98 15.5q81 0 129 -54.5t48 -146.5q0 -60 -25 -156l-84 -321q-25 -100 -25 -152q0 -46 23 -65t68 -19q59 0 104 21l-12 -66q-144 -67 -226 -67zM608 1118q-29 0 -43 6.5t-29 34.5l-157 352l49 31l202 -272l312 272l45 -35l-287 -344
q-27 -32 -45.5 -38.5t-46.5 -6.5z" />
    <glyph glyph-name="napostrophe" unicode="&#x149;" horiz-adv-x="1163" 
d="M866 -16q-73 0 -115 37.5t-42 105.5q0 49 22 131l92 352q25 100 25 156q0 53 -24.5 89t-67.5 36q-45 0 -107 -37t-127 -121l-168 -733h-186l148 647q24 112 24 160q0 43 -15 60.5t-52 17.5q-32 0 -67.5 -8t-47.5 -13l14 66q140 67 230 67q75 0 105.5 -42t33.5 -119h6
q84 80 129.5 111.5t91.5 47t98 15.5q81 0 129 -54.5t48 -146.5q0 -60 -25 -156l-84 -321q-25 -100 -25 -152q0 -46 23 -65t68 -19q59 0 104 21l-12 -66q-144 -67 -226 -67zM411 1391q0 -116 -79.5 -217.5t-249.5 -186.5l-31 64q107 57 146 87.5t64.5 67.5t41.5 88h-43
q-56 0 -87.5 26.5t-31.5 74.5q0 53 38.5 94t98.5 41q69 0 101 -38t32 -101z" />
    <glyph glyph-name="Eng" unicode="&#x14a;" horiz-adv-x="1468" 
d="M651 -444q-76 0 -126 38.5t-50 94.5q0 50 31 84t80 34q36 0 63 -22t57 -73l35 -54q184 29 258 342l-493 1184l-178 -774q-27 -110 -27 -191q0 -67 21 -92q13 -20 64 -39.5t75 -21.5l-12 -66h-525l17 66q31 3 92 21t78 30q32 23 58.5 83.5t57.5 198.5l160 688
q12 61 12 101q0 53 -26 87t-68 54t-92 25l16 65h387l457 -1112l164 711q27 130 27 188q0 48 -13.5 74t-66.5 47t-101 27l17 65h516l-17 -65q-28 -3 -73 -19t-64 -28q-43 -31 -70 -92.5t-55 -184.5l-225 -975q-57 -242 -176.5 -370.5t-284.5 -128.5z" />
    <glyph glyph-name="eng" unicode="&#x14b;" horiz-adv-x="1063" 
d="M90 0l148 647q24 112 24 154q0 49 -16 66.5t-56 17.5q-50 0 -110 -21l14 66q142 67 228 67q67 0 101.5 -36t39.5 -125h4q96 98 166.5 136t152.5 38q81 0 129 -54.5t48 -146.5q0 -74 -31.5 -253.5t-112.5 -496.5q-38 -145 -112 -260t-172 -179t-197 -64q-83 0 -122.5 34
t-39.5 84q0 46 24.5 77.5t65.5 31.5q68 0 119 -95l27 -50q44 3 81.5 48.5t70.5 134t92.5 330.5t105.5 504q8 42 8 93q0 68 -25.5 105.5t-76.5 37.5q-52 0 -110 -41.5t-114 -116.5l-168 -733h-186z" />
    <glyph glyph-name="Omacron" unicode="&#x14c;" horiz-adv-x="1393" 
d="M1374 872q0 -245 -107 -454t-284.5 -331t-372.5 -122q-229 0 -369.5 159t-140.5 417q0 241 103 449.5t281.5 335t379.5 126.5q150 0 267 -71.5t180 -204.5t63 -304zM1139 932q0 204 -76.5 320t-218.5 116q-139 0 -252.5 -111.5t-184.5 -324.5t-71 -438
q0 -212 76.5 -328.5t218.5 -116.5q141 0 255 113.5t183.5 324t69.5 445.5zM1200 1661h-604l29 123h604z" />
    <glyph glyph-name="omacron" unicode="&#x14d;" horiz-adv-x="1018" 
d="M950 616q0 -174 -72 -327t-193.5 -236.5t-274.5 -83.5q-152 0 -247 107.5t-95 288.5q0 174 70 324t193.5 235.5t272.5 85.5q159 0 252.5 -106.5t93.5 -287.5zM748 653q0 141 -43 213t-125 72q-89 0 -158.5 -75t-110.5 -223.5t-41 -307.5q0 -291 170 -291q89 0 159 80.5
t109.5 224.5t39.5 307zM950 1296h-604l29 123h604z" />
    <glyph glyph-name="Obreve" unicode="&#x14e;" horiz-adv-x="1393" 
d="M1374 872q0 -245 -107 -454t-284.5 -331t-372.5 -122q-229 0 -369.5 159t-140.5 417q0 241 103 449.5t281.5 335t379.5 126.5q150 0 267 -71.5t180 -204.5t63 -304zM1139 932q0 204 -76.5 320t-218.5 116q-139 0 -252.5 -111.5t-184.5 -324.5t-71 -438
q0 -212 76.5 -328.5t218.5 -116.5q141 0 255 113.5t183.5 324t69.5 445.5zM1249 1851q-59 -161 -151.5 -241t-227.5 -80q-258 0 -258 297v24l55 17q17 -103 68 -148t162 -45q121 0 185.5 52.5t111.5 140.5z" />
    <glyph glyph-name="obreve" unicode="&#x14f;" horiz-adv-x="1018" 
d="M950 616q0 -174 -72 -327t-193.5 -236.5t-274.5 -83.5q-152 0 -247 107.5t-95 288.5q0 174 70 324t193.5 235.5t272.5 85.5q159 0 252.5 -106.5t93.5 -287.5zM748 653q0 141 -43 213t-125 72q-89 0 -158.5 -75t-110.5 -223.5t-41 -307.5q0 -291 170 -291q89 0 159 80.5
t109.5 224.5t39.5 307zM954 1495q-52 -181 -135 -275t-205 -94q-225 0 -225 336v33l53 12q16 -127 62 -178t131 -51q88 0 149.5 53.5t112.5 175.5z" />
    <glyph glyph-name="Ohungarumlaut" unicode="&#x150;" horiz-adv-x="1393" 
d="M1374 872q0 -245 -107 -454t-284.5 -331t-372.5 -122q-229 0 -369.5 159t-140.5 417q0 241 103 449.5t281.5 335t379.5 126.5q150 0 267 -71.5t180 -204.5t63 -304zM1139 932q0 204 -76.5 320t-218.5 116q-139 0 -252.5 -111.5t-184.5 -324.5t-71 -438
q0 -212 76.5 -328.5t218.5 -116.5q141 0 255 113.5t183.5 324t69.5 445.5zM612 1507l-24 35l245 250q72 76 119 76q37 0 57.5 -22.5t20.5 -53.5q0 -41 -26.5 -67.5t-67.5 -47.5q-72 -32 -117 -55t-207 -115zM997 1507l-24 35l250 250q70 76 118 76q37 0 56.5 -22.5
t19.5 -53.5q0 -41 -25.5 -67.5t-66.5 -47.5q-72 -32 -120 -55t-208 -115z" />
    <glyph glyph-name="ohungarumlaut" unicode="&#x151;" horiz-adv-x="1018" 
d="M950 616q0 -174 -72 -327t-193.5 -236.5t-274.5 -83.5q-152 0 -247 107.5t-95 288.5q0 174 70 324t193.5 235.5t272.5 85.5q159 0 252.5 -106.5t93.5 -287.5zM748 653q0 141 -43 213t-125 72q-89 0 -158.5 -75t-110.5 -223.5t-41 -307.5q0 -291 170 -291q89 0 159 80.5
t109.5 224.5t39.5 307zM1067 1466q0 -42 -29 -76t-237 -195l-109 -85l-33 29q130 176 211 307q33 52 58.5 72t60.5 20q34 0 56 -22t22 -50zM733 1466q0 -51 -34.5 -88t-317.5 -268l-37 29q72 103 110.5 161.5t88.5 145.5q29 51 54 71.5t62 20.5q32 0 53 -22t21 -50z" />
    <glyph glyph-name="OE" unicode="&#x152;" horiz-adv-x="1880" 
d="M1851 1077h-73q-6 110 -47 181t-103 79q-71 9 -170 9h-137l-131 -572h70q61 0 102.5 11t74.5 42.5t59.5 77t49.5 103.5h74l-127 -555h-74l2 59q0 92 -19.5 125.5t-58.5 46t-102 12.5h-70l-100 -432q-12 -62 -12 -96q0 -55 37.5 -72.5t169.5 -17.5q92 0 124.5 4.5
t60.5 14.5t59 37t72 74t85.5 108.5t67.5 101.5h71l-123 -418h-1003q-166 0 -303 67t-207 184.5t-70 276.5q0 246 116.5 447.5t331.5 322.5t466 121h917zM1106 1335l-94 6q-184 0 -341.5 -108t-246 -296t-88.5 -415q0 -204 102.5 -324t282.5 -120q60 0 96 4z" />
    <glyph glyph-name="oe" unicode="&#x153;" horiz-adv-x="1509" 
d="M1479 801q0 -104 -57.5 -181.5t-193 -130.5t-325.5 -81q0 -324 197 -324q74 0 141 46t139 151l56 -41q-76 -126 -184.5 -197.5t-221.5 -71.5q-191 0 -274 168q-139 -170 -350 -170q-150 0 -244 108.5t-94 287.5q0 171 69.5 321.5t190 237t262.5 86.5q194 0 276 -181
q66 82 156.5 131.5t200.5 49.5q122 0 189 -55t67 -154zM725 653q0 285 -160 285q-83 0 -149.5 -78t-106 -225.5t-39.5 -302.5q0 -142 41.5 -216.5t120.5 -74.5q130 0 211.5 179.5t81.5 432.5zM1294 819q0 119 -96 119q-65 0 -126.5 -60t-105 -167t-57.5 -234q69 13 131 28
t119 50q135 82 135 264z" />
    <glyph glyph-name="Racute" unicode="&#x154;" horiz-adv-x="1335" 
d="M1319 0h-381q-99 236 -237 494l-80 151h-109q-111 -488 -111 -491q0 -34 13.5 -51.5t54 -25t88.5 -11.5l-14 -66h-563l16 66q98 8 125 20q56 24 74 102l237 1037q6 18 6 41q0 26 -11 42t-55.5 29.5t-78.5 16.5l12 65h578q163 0 256.5 -70.5t93.5 -199.5
q0 -172 -104.5 -290t-303.5 -169l240 -457q44 -73 82 -106.5t79.5 -45t108.5 -15.5zM987 1126q0 103 -50.5 160t-137.5 57h-127l-140 -616h142q130 0 221.5 115t91.5 284zM1141 1796q0 -45 -27.5 -72.5t-72.5 -50.5q-112 -48 -363 -166l-26 39q107 93 282 262
q37 39 66.5 49.5t56.5 10.5q37 0 60.5 -20.5t23.5 -51.5z" />
    <glyph glyph-name="racute" unicode="&#x155;" horiz-adv-x="842" 
d="M852 846q0 -75 -36 -123.5t-97 -48.5q-54 0 -80.5 26t-26.5 60q0 49 45 145q-40 0 -103 -55.5t-114 -132.5l-161 -717h-187l146 647q3 15 7 34t8 39.5t6.5 39t2.5 31.5q0 51 -16 72.5t-60 21.5q-26 0 -60.5 -8t-45.5 -13l14 66q140 67 230 67q75 0 105 -43.5t30 -130.5h4
q147 187 254 187q135 0 135 -164zM797 1440q0 -40 -29 -70t-95 -75q-128 -88 -255 -185l-35 33q134 176 205 287q34 49 63.5 68.5t67.5 19.5q34 0 56 -23t22 -55z" />
    <glyph glyph-name="uni0156" unicode="&#x156;" horiz-adv-x="1335" 
d="M1319 0h-381q-99 236 -237 494l-80 151h-109q-111 -488 -111 -491q0 -34 13.5 -51.5t54 -25t88.5 -11.5l-14 -66h-563l16 66q98 8 125 20q56 24 74 102l237 1037q6 18 6 41q0 26 -11 42t-55.5 29.5t-78.5 16.5l12 65h578q163 0 256.5 -70.5t93.5 -199.5
q0 -172 -104.5 -290t-303.5 -169l240 -457q44 -73 82 -106.5t79.5 -45t108.5 -15.5zM987 1126q0 103 -50.5 160t-137.5 57h-127l-140 -616h142q130 0 221.5 115t91.5 284zM494 -444l8 57q98 6 141 41t56 88h-53q-111 0 -111 76q0 43 36 79.5t95 36.5q57 0 93 -35.5t36 -95.5
q0 -118 -85 -182.5t-216 -64.5z" />
    <glyph glyph-name="uni0157" unicode="&#x157;" horiz-adv-x="842" 
d="M852 846q0 -75 -36 -123.5t-97 -48.5q-54 0 -80.5 26t-26.5 60q0 49 45 145q-40 0 -103 -55.5t-114 -132.5l-161 -717h-187l146 647q3 15 7 34t8 39.5t6.5 39t2.5 31.5q0 51 -16 72.5t-60 21.5q-26 0 -60.5 -8t-45.5 -13l14 66q140 67 230 67q75 0 105 -43.5t30 -130.5h4
q147 187 254 187q135 0 135 -164zM31 -444l8 57q98 6 141 41t56 88h-53q-111 0 -111 76q0 43 36 79.5t95 36.5q57 0 93 -35.5t36 -95.5q0 -118 -85 -182.5t-216 -64.5z" />
    <glyph glyph-name="Rcaron" unicode="&#x158;" horiz-adv-x="1335" 
d="M1319 0h-381q-99 236 -237 494l-80 151h-109q-111 -488 -111 -491q0 -34 13.5 -51.5t54 -25t88.5 -11.5l-14 -66h-563l16 66q98 8 125 20q56 24 74 102l237 1037q6 18 6 41q0 26 -11 42t-55.5 29.5t-78.5 16.5l12 65h578q163 0 256.5 -70.5t93.5 -199.5
q0 -172 -104.5 -290t-303.5 -169l240 -457q44 -73 82 -106.5t79.5 -45t108.5 -15.5zM987 1126q0 103 -50.5 160t-137.5 57h-127l-140 -616h142q130 0 221.5 115t91.5 284zM1161 1837l-289 -285q-24 -22 -38.5 -33.5t-61.5 -11.5q-41 0 -55.5 13.5t-24.5 27.5l-180 289l49 33
l233 -213l322 213z" />
    <glyph glyph-name="rcaron" unicode="&#x159;" horiz-adv-x="842" 
d="M852 846q0 -75 -36 -123.5t-97 -48.5q-54 0 -80.5 26t-26.5 60q0 49 45 145q-40 0 -103 -55.5t-114 -132.5l-161 -717h-187l146 647q3 15 7 34t8 39.5t6.5 39t2.5 31.5q0 51 -16 72.5t-60 21.5q-26 0 -60.5 -8t-45.5 -13l14 66q140 67 230 67q75 0 105 -43.5t30 -130.5h4
q147 187 254 187q135 0 135 -164zM498 1118q-29 0 -43 6.5t-29 34.5l-157 352l49 31l202 -272l312 272l45 -35l-287 -344q-27 -32 -45.5 -38.5t-46.5 -6.5z" />
    <glyph glyph-name="Sacute" unicode="&#x15a;" horiz-adv-x="1083" 
d="M1016 948h-80q-6 171 -33.5 253t-83.5 124.5t-147 42.5q-101 0 -170.5 -79t-69.5 -195q0 -151 105 -213q41 -25 119 -57q119 -51 188.5 -101t104 -117t34.5 -147q0 -136 -68.5 -248.5t-189.5 -176t-264 -63.5q-196 0 -332 101l-57 -72h-80l96 485h82q21 -432 315 -432
q133 0 212 83t79 224q0 78 -31 140t-96 94l-66 30q-185 76 -241 124.5t-86.5 113.5t-30.5 148q0 118 60.5 219t169 161t231.5 60q87 0 158.5 -23t138.5 -75l53 67h80zM1030 1796q0 -45 -27.5 -72.5t-72.5 -50.5q-112 -48 -363 -166l-26 39q107 93 282 262q37 39 66.5 49.5
t56.5 10.5q37 0 60.5 -20.5t23.5 -51.5z" />
    <glyph glyph-name="sacute" unicode="&#x15b;" horiz-adv-x="801" 
d="M760 854q0 -43 -30 -76t-71 -33q-89 0 -128 122l-23 61q-20 10 -49 10q-63 0 -101.5 -48t-38.5 -122q0 -62 31 -104t129 -95q104 -57 139 -90t54.5 -74.5t19.5 -97.5q0 -149 -102.5 -242.5t-263.5 -93.5q-132 0 -221 52.5t-89 138.5q0 47 29 77.5t72 30.5q91 0 131 -128
l18 -58q28 -41 90 -41q76 0 120 49.5t44 136.5q0 43 -14 75.5t-44.5 59.5t-107.5 68q-84 43 -122.5 78t-59 81t-20.5 107q0 83 45.5 156t126 114.5t174.5 41.5q124 0 193 -42t69 -114zM768 1440q0 -40 -29 -70t-95 -75q-128 -88 -255 -185l-35 33q134 176 205 287
q34 49 63.5 68.5t67.5 19.5q34 0 56 -23t22 -55z" />
    <glyph glyph-name="Scircumflex" unicode="&#x15c;" horiz-adv-x="1083" 
d="M1016 948h-80q-6 171 -33.5 253t-83.5 124.5t-147 42.5q-101 0 -170.5 -79t-69.5 -195q0 -151 105 -213q41 -25 119 -57q119 -51 188.5 -101t104 -117t34.5 -147q0 -136 -68.5 -248.5t-189.5 -176t-264 -63.5q-196 0 -332 101l-57 -72h-80l96 485h82q21 -432 315 -432
q133 0 212 83t79 224q0 78 -31 140t-96 94l-66 30q-185 76 -241 124.5t-86.5 113.5t-30.5 148q0 118 60.5 219t169 161t231.5 60q87 0 158.5 -23t138.5 -75l53 67h80zM1038 1538l-49 -31l-236 211l-319 -211l-47 31l291 285q18 18 39.5 31.5t60.5 13.5q43 0 57.5 -13.5
t22.5 -27.5z" />
    <glyph glyph-name="scircumflex" unicode="&#x15d;" horiz-adv-x="801" 
d="M760 854q0 -43 -30 -76t-71 -33q-89 0 -128 122l-23 61q-20 10 -49 10q-63 0 -101.5 -48t-38.5 -122q0 -62 31 -104t129 -95q104 -57 139 -90t54.5 -74.5t19.5 -97.5q0 -149 -102.5 -242.5t-263.5 -93.5q-132 0 -221 52.5t-89 138.5q0 47 29 77.5t72 30.5q91 0 131 -128
l18 -58q28 -41 90 -41q76 0 120 49.5t44 136.5q0 43 -14 75.5t-44.5 59.5t-107.5 68q-84 43 -122.5 78t-59 81t-20.5 107q0 83 45.5 156t126 114.5t174.5 41.5q124 0 193 -42t69 -114zM766 1118l-207 273l-309 -273l-47 33l285 346q26 31 45.5 38t50.5 7q37 0 50.5 -10.5
t23.5 -30.5l155 -350z" />
    <glyph glyph-name="Scedilla" unicode="&#x15e;" horiz-adv-x="1083" 
d="M1016 948h-80q-6 171 -33.5 253t-83.5 124.5t-147 42.5q-101 0 -170.5 -79t-69.5 -195q0 -151 105 -213q41 -25 119 -57q119 -51 188.5 -101t104 -117t34.5 -147q0 -136 -68.5 -248.5t-189.5 -176t-264 -63.5q-196 0 -332 101l-57 -72h-80l96 485h82q21 -432 315 -432
q133 0 212 83t79 224q0 78 -31 140t-96 94l-66 30q-185 76 -241 124.5t-86.5 113.5t-30.5 148q0 118 60.5 219t169 161t231.5 60q87 0 158.5 -23t138.5 -75l53 67h80zM633 -233q0 -104 -94 -157.5t-301 -53.5l14 71q103 0 143.5 9.5t64.5 30.5t24 59q0 32 -29.5 49.5
t-105.5 17.5l45 223h77l-24 -114q81 0 133.5 -36.5t52.5 -98.5z" />
    <glyph glyph-name="scedilla" unicode="&#x15f;" horiz-adv-x="801" 
d="M526 -233q0 -104 -94 -157.5t-301 -53.5l14 71q103 0 143.5 9.5t64.5 30.5t24 59q0 32 -29.5 49.5t-105.5 17.5l37 180q-120 12 -191.5 62t-71.5 127q0 47 29 77.5t72 30.5q91 0 131 -128l18 -58q28 -41 90 -41q76 0 120 49.5t44 136.5q0 43 -14 75.5t-44.5 59.5
t-107.5 68q-84 43 -122.5 78t-59 81t-20.5 107q0 83 45.5 156t126 114.5t174.5 41.5q124 0 193 -42t69 -114q0 -43 -30 -76t-71 -33q-89 0 -128 122l-23 61q-20 10 -49 10q-63 0 -101.5 -48t-38.5 -122q0 -62 31 -104t129 -95q104 -57 139 -90t54.5 -74.5t19.5 -97.5
q0 -143 -93.5 -233.5t-244.5 -100.5l-14 -71q81 0 133.5 -36.5t52.5 -98.5z" />
    <glyph glyph-name="Scaron" unicode="&#x160;" horiz-adv-x="1083" 
d="M1016 948h-80q-6 171 -33.5 253t-83.5 124.5t-147 42.5q-101 0 -170.5 -79t-69.5 -195q0 -151 105 -213q41 -25 119 -57q119 -51 188.5 -101t104 -117t34.5 -147q0 -136 -68.5 -248.5t-189.5 -176t-264 -63.5q-196 0 -332 101l-57 -72h-80l96 485h82q21 -432 315 -432
q133 0 212 83t79 224q0 78 -31 140t-96 94l-66 30q-185 76 -241 124.5t-86.5 113.5t-30.5 148q0 118 60.5 219t169 161t231.5 60q87 0 158.5 -23t138.5 -75l53 67h80zM1098 1837l-289 -285q-24 -22 -38.5 -33.5t-61.5 -11.5q-41 0 -55.5 13.5t-24.5 27.5l-180 289l49 33
l233 -213l322 213z" />
    <glyph glyph-name="scaron" unicode="&#x161;" horiz-adv-x="801" 
d="M760 854q0 -43 -30 -76t-71 -33q-89 0 -128 122l-23 61q-20 10 -49 10q-63 0 -101.5 -48t-38.5 -122q0 -62 31 -104t129 -95q104 -57 139 -90t54.5 -74.5t19.5 -97.5q0 -149 -102.5 -242.5t-263.5 -93.5q-132 0 -221 52.5t-89 138.5q0 47 29 77.5t72 30.5q91 0 131 -128
l18 -58q28 -41 90 -41q76 0 120 49.5t44 136.5q0 43 -14 75.5t-44.5 59.5t-107.5 68q-84 43 -122.5 78t-59 81t-20.5 107q0 83 45.5 156t126 114.5t174.5 41.5q124 0 193 -42t69 -114zM504 1118q-29 0 -43 6.5t-29 34.5l-157 352l49 31l202 -272l312 272l45 -35l-287 -344
q-27 -32 -45.5 -38.5t-46.5 -6.5z" />
    <glyph glyph-name="uni0162" unicode="&#x162;" horiz-adv-x="1182" 
d="M1282 1034h-68q-5 127 -39.5 211.5t-87.5 91.5q-58 9 -145 9h-55l-260 -1125l-9 -55q0 -20 7 -35t21 -26t66 -23.5t87 -15.5l-17 -66h-628l16 66l35 3q46 4 90.5 11.5t71 33t41.5 79.5l266 1153h-49q-73 0 -154 -9q-53 -8 -140 -109t-130 -194h-72l84 385h1157zM659 -233
q0 -104 -94 -157.5t-301 -53.5l14 71q103 0 143.5 9.5t64.5 30.5t24 59q0 32 -29.5 49.5t-105.5 17.5l45 223h77l-24 -114q81 0 133.5 -36.5t52.5 -98.5z" />
    <glyph glyph-name="uni0163" unicode="&#x163;" horiz-adv-x="655" 
d="M694 887h-235l-127 -551q-23 -92 -23 -146q0 -48 24.5 -72t86.5 -24q22 0 62 8t61 17l-15 -74q-148 -65 -256 -65q-166 0 -166 149q0 37 11 88l155 670h-155l18 90h162l70 293h180l-68 -293h236zM438 -233q0 -104 -94 -157.5t-301 -53.5l14 71q103 0 143.5 9.5t64.5 30.5
t24 59q0 32 -29.5 49.5t-105.5 17.5l45 223h77l-24 -114q81 0 133.5 -36.5t52.5 -98.5z" />
    <glyph glyph-name="Tcaron" unicode="&#x164;" horiz-adv-x="1182" 
d="M1282 1034h-68q-5 127 -39.5 211.5t-87.5 91.5q-58 9 -145 9h-55l-260 -1125l-9 -55q0 -20 7 -35t21 -26t66 -23.5t87 -15.5l-17 -66h-628l16 66l35 3q46 4 90.5 11.5t71 33t41.5 79.5l266 1153h-49q-73 0 -154 -9q-53 -8 -140 -109t-130 -194h-72l84 385h1157z
M1190 1837l-289 -285q-24 -22 -38.5 -33.5t-61.5 -11.5q-41 0 -55.5 13.5t-24.5 27.5l-180 289l49 33l233 -213l322 213z" />
    <glyph glyph-name="tcaron" unicode="&#x165;" horiz-adv-x="686" 
d="M623 1133q100 49 132.5 73t55.5 55t39 76h-37q-58 0 -88.5 24.5t-30.5 65.5q0 50 40.5 91t99.5 41q66 0 99.5 -36t33.5 -91q0 -81 -36.5 -143t-97.5 -110.5t-186 -105.5zM694 887h-235l-127 -551q-23 -92 -23 -146q0 -48 24.5 -72t86.5 -24q22 0 62 8t61 17l-15 -74
q-148 -65 -256 -65q-166 0 -166 149q0 37 11 88l155 670h-155l18 90h162l70 293h180l-68 -293h236z" />
    <glyph glyph-name="Tbar" unicode="&#x166;" horiz-adv-x="1182" 
d="M1282 1034h-68q-5 127 -39.5 211.5t-87.5 91.5q-58 9 -145 9h-55l-131 -564h252l-21 -88h-252l-108 -473l-9 -55q0 -20 7 -35t21 -26t66 -23.5t87 -15.5l-17 -66h-628l16 66q121 9 156 22q65 28 82 105l116 501h-250l21 88h250l129 564h-49q-73 0 -154 -9
q-53 -8 -140 -109t-130 -194h-72l84 385h1157z" />
    <glyph glyph-name="tbar" unicode="&#x167;" horiz-adv-x="655" 
d="M694 887h-235l-74 -322h213l-20 -80h-211q-51 -216 -54.5 -242.5t-3.5 -52.5q0 -48 24.5 -72t86.5 -24q22 0 62 8t61 17l-15 -74q-148 -65 -256 -65q-166 0 -166 149q0 46 11 88l63 268h-151l20 80h150l73 322h-155l18 90h162l70 293h180l-68 -293h236z" />
    <glyph glyph-name="Utilde" unicode="&#x168;" horiz-adv-x="1466" 
d="M604 -35q-190 0 -300.5 88.5t-110.5 239.5q0 47 8 82l196 844l4 32q0 38 -25 62.5t-91 36.5l-23 4l14 65h551l-16 -65q-67 -6 -125 -25q-55 -19 -74 -100l-182 -791q-14 -61 -14 -119q0 -121 65.5 -183t188.5 -62q155 0 262 93.5t145 262.5q41 162 88.5 374.5t61.5 291.5
t14 125q0 49 -24 77q-44 41 -158 56l16 65h539l-17 -65q-38 -3 -86 -16t-73 -29q-68 -40 -123 -277q-72 -331 -137 -604q-34 -143 -110.5 -246t-198 -160t-265.5 -57zM1321 1842q-31 -112 -93 -178t-141 -66q-52 0 -90 16t-70 35t-61.5 35t-64.5 16q-40 0 -65.5 -25
t-63.5 -110l-54 25q49 132 106 187.5t124 55.5q46 0 84.5 -16t72 -35t63 -35t58.5 -16q45 0 72 19t45 62l21 52z" />
    <glyph glyph-name="utilde" unicode="&#x169;" horiz-adv-x="1077" 
d="M756 -16q-71 0 -112.5 42.5t-41.5 112.5h-6q-94 -94 -160.5 -129t-144.5 -35q-82 0 -127 55t-45 146q0 66 22 156l78 315q23 97 23 156q0 35 -12 58.5t-52 23.5q-50 0 -119 -23l17 66q144 69 219 69q147 0 147 -135q0 -51 -16 -119l-88 -370q-23 -107 -23 -154
q0 -57 24 -91t67 -34q110 0 215 135l174 752l174 12l12 -14l-147 -643q-27 -108 -27 -141q0 -57 22.5 -78t73.5 -21q49 0 96 19l-10 -64q-54 -27 -119.5 -47t-113.5 -20zM995 1473q-31 -112 -93 -178t-141 -66q-52 0 -90 16t-70 35t-61.5 35t-64.5 16q-40 0 -65.5 -25
t-63.5 -110l-54 25q49 132 106 187.5t124 55.5q46 0 84.5 -16t72 -35t63 -35t58.5 -16q45 0 72 19t45 62l21 52z" />
    <glyph glyph-name="Umacron" unicode="&#x16a;" horiz-adv-x="1466" 
d="M604 -35q-190 0 -300.5 88.5t-110.5 239.5q0 47 8 82l196 844l4 32q0 38 -25 62.5t-91 36.5l-23 4l14 65h551l-16 -65q-67 -6 -125 -25q-55 -19 -74 -100l-182 -791q-14 -61 -14 -119q0 -121 65.5 -183t188.5 -62q155 0 262 93.5t145 262.5q41 162 88.5 374.5t61.5 291.5
t14 125q0 49 -24 77q-44 41 -158 56l16 65h539l-17 -65q-38 -3 -86 -16t-73 -29q-68 -40 -123 -277q-72 -331 -137 -604q-34 -143 -110.5 -246t-198 -160t-265.5 -57zM1263 1661h-604l29 123h604z" />
    <glyph glyph-name="umacron" unicode="&#x16b;" horiz-adv-x="1077" 
d="M756 -16q-71 0 -112.5 42.5t-41.5 112.5h-6q-94 -94 -160.5 -129t-144.5 -35q-82 0 -127 55t-45 146q0 66 22 156l78 315q23 97 23 156q0 35 -12 58.5t-52 23.5q-50 0 -119 -23l17 66q144 69 219 69q147 0 147 -135q0 -51 -16 -119l-88 -370q-23 -107 -23 -154
q0 -57 24 -91t67 -34q110 0 215 135l174 752l174 12l12 -14l-147 -643q-27 -108 -27 -141q0 -57 22.5 -78t73.5 -21q49 0 96 19l-10 -64q-54 -27 -119.5 -47t-113.5 -20zM935 1296h-604l29 123h604z" />
    <glyph glyph-name="Ubreve" unicode="&#x16c;" horiz-adv-x="1466" 
d="M604 -35q-190 0 -300.5 88.5t-110.5 239.5q0 47 8 82l196 844l4 32q0 38 -25 62.5t-91 36.5l-23 4l14 65h551l-16 -65q-67 -6 -125 -25q-55 -19 -74 -100l-182 -791q-14 -61 -14 -119q0 -121 65.5 -183t188.5 -62q155 0 262 93.5t145 262.5q41 162 88.5 374.5t61.5 291.5
t14 125q0 49 -24 77q-44 41 -158 56l16 65h539l-17 -65q-38 -3 -86 -16t-73 -29q-68 -40 -123 -277q-72 -331 -137 -604q-34 -143 -110.5 -246t-198 -160t-265.5 -57zM1315 1851q-59 -161 -151.5 -241t-227.5 -80q-258 0 -258 297v24l55 17q17 -103 68 -148t162 -45
q121 0 185.5 52.5t111.5 140.5z" />
    <glyph glyph-name="ubreve" unicode="&#x16d;" horiz-adv-x="1077" 
d="M756 -16q-71 0 -112.5 42.5t-41.5 112.5h-6q-94 -94 -160.5 -129t-144.5 -35q-82 0 -127 55t-45 146q0 66 22 156l78 315q23 97 23 156q0 35 -12 58.5t-52 23.5q-50 0 -119 -23l17 66q144 69 219 69q147 0 147 -135q0 -51 -16 -119l-88 -370q-23 -107 -23 -154
q0 -57 24 -91t67 -34q110 0 215 135l174 752l174 12l12 -14l-147 -643q-27 -108 -27 -141q0 -57 22.5 -78t73.5 -21q49 0 96 19l-10 -64q-54 -27 -119.5 -47t-113.5 -20zM938 1495q-52 -181 -135 -275t-205 -94q-225 0 -225 336v33l53 12q16 -127 62 -178t131 -51
q88 0 149.5 53.5t112.5 175.5z" />
    <glyph glyph-name="Uring" unicode="&#x16e;" horiz-adv-x="1466" 
d="M604 -35q-190 0 -300.5 88.5t-110.5 239.5q0 47 8 82l196 844l4 32q0 38 -25 62.5t-91 36.5l-23 4l14 65h551l-16 -65q-67 -6 -125 -25q-55 -19 -74 -100l-182 -791q-14 -61 -14 -119q0 -121 65.5 -183t188.5 -62q155 0 262 93.5t145 262.5q41 162 88.5 374.5t61.5 291.5
t14 125q0 49 -24 77q-44 41 -158 56l16 65h539l-17 -65q-38 -3 -86 -16t-73 -29q-68 -40 -123 -277q-72 -331 -137 -604q-34 -143 -110.5 -246t-198 -160t-265.5 -57zM1245 1677q0 -110 -82 -184t-211 -74q-105 0 -164 49.5t-59 132.5q0 111 82 187t209 76q101 0 163 -50
t62 -137zM1118 1677q0 54 -25 90.5t-79 36.5q-69 0 -114.5 -57.5t-45.5 -143.5q0 -53 25.5 -88.5t78.5 -35.5q72 0 116 56.5t44 141.5z" />
    <glyph glyph-name="uring" unicode="&#x16f;" horiz-adv-x="1077" 
d="M756 -16q-71 0 -112.5 42.5t-41.5 112.5h-6q-94 -94 -160.5 -129t-144.5 -35q-82 0 -127 55t-45 146q0 66 22 156l78 315q23 97 23 156q0 35 -12 58.5t-52 23.5q-50 0 -119 -23l17 66q144 69 219 69q147 0 147 -135q0 -51 -16 -119l-88 -370q-23 -107 -23 -154
q0 -57 24 -91t67 -34q110 0 215 135l174 752l174 12l12 -14l-147 -643q-27 -108 -27 -141q0 -57 22.5 -78t73.5 -21q49 0 96 19l-10 -64q-54 -27 -119.5 -47t-113.5 -20zM901 1372q0 -110 -82 -184t-211 -74q-105 0 -164 49.5t-59 132.5q0 111 82 187t209 76q101 0 163 -50
t62 -137zM774 1372q0 54 -25 90.5t-79 36.5q-69 0 -114.5 -57.5t-45.5 -143.5q0 -53 25.5 -88.5t78.5 -35.5q72 0 116 56.5t44 141.5z" />
    <glyph glyph-name="Uhungarumlaut" unicode="&#x170;" horiz-adv-x="1466" 
d="M604 -35q-190 0 -300.5 88.5t-110.5 239.5q0 47 8 82l196 844l4 32q0 38 -25 62.5t-91 36.5l-23 4l14 65h551l-16 -65q-67 -6 -125 -25q-55 -19 -74 -100l-182 -791q-14 -61 -14 -119q0 -121 65.5 -183t188.5 -62q155 0 262 93.5t145 262.5q41 162 88.5 374.5t61.5 291.5
t14 125q0 49 -24 77q-44 41 -158 56l16 65h539l-17 -65q-38 -3 -86 -16t-73 -29q-68 -40 -123 -277q-72 -331 -137 -604q-34 -143 -110.5 -246t-198 -160t-265.5 -57zM641 1507l-24 35l245 250q72 76 119 76q37 0 57.5 -22.5t20.5 -53.5q0 -41 -26.5 -67.5t-67.5 -47.5
q-72 -32 -117 -55t-207 -115zM1026 1507l-24 35l250 250q70 76 118 76q37 0 56.5 -22.5t19.5 -53.5q0 -41 -25.5 -67.5t-66.5 -47.5q-72 -32 -120 -55t-208 -115z" />
    <glyph glyph-name="uhungarumlaut" unicode="&#x171;" horiz-adv-x="1077" 
d="M756 -16q-71 0 -112.5 42.5t-41.5 112.5h-6q-94 -94 -160.5 -129t-144.5 -35q-82 0 -127 55t-45 146q0 66 22 156l78 315q23 97 23 156q0 35 -12 58.5t-52 23.5q-50 0 -119 -23l17 66q144 69 219 69q147 0 147 -135q0 -51 -16 -119l-88 -370q-23 -107 -23 -154
q0 -57 24 -91t67 -34q110 0 215 135l174 752l174 12l12 -14l-147 -643q-27 -108 -27 -141q0 -57 22.5 -78t73.5 -21q49 0 96 19l-10 -64q-54 -27 -119.5 -47t-113.5 -20zM1071 1466q0 -42 -29 -76t-237 -195l-109 -85l-33 29q130 176 211 307q33 52 58.5 72t60.5 20
q34 0 56 -22t22 -50zM737 1466q0 -51 -34.5 -88t-317.5 -268l-37 29q72 103 110.5 161.5t88.5 145.5q29 51 54 71.5t62 20.5q32 0 53 -22t21 -50z" />
    <glyph glyph-name="Uogonek" unicode="&#x172;" horiz-adv-x="1466" 
d="M707 -256q0 -63 39.5 -90t123.5 -27l-12 -71h-74q-115 0 -176 41.5t-61 115.5q0 134 182 264q-68 -12 -125 -12q-190 0 -300.5 88.5t-110.5 239.5q0 47 8 82l196 844l4 32q0 38 -25 62.5t-91 36.5l-23 4l14 65h551l-16 -65q-67 -6 -125 -25q-55 -19 -74 -100l-182 -791
q-14 -61 -14 -119q0 -121 65.5 -183t188.5 -62q100 0 182 40t140 122t85 192q51 203 99 424.5t56.5 278.5t8.5 90q0 49 -24 77q-44 41 -158 56l16 65h539l-17 -65q-38 -3 -86 -16t-73 -29q-68 -40 -123 -277q-72 -331 -137 -604q-34 -144 -114 -249.5t-202 -160.5
q-155 -129 -155 -274z" />
    <glyph glyph-name="uogonek" unicode="&#x173;" horiz-adv-x="1077" 
d="M784 -444h-73q-116 0 -177 41.5t-61 115.5q0 71 52.5 145t154.5 142q-38 19 -58 56t-20 83h-6q-94 -94 -160.5 -129t-144.5 -35q-82 0 -127 55t-45 146q0 66 22 156l78 315q23 97 23 156q0 35 -12 58.5t-52 23.5q-50 0 -119 -23l17 66q144 69 219 69q147 0 147 -135
q0 -51 -16 -119l-88 -370q-23 -107 -23 -154q0 -57 24 -91t67 -34q110 0 215 135l174 752l174 12l12 -14l-147 -643q-27 -108 -27 -141q0 -57 22.5 -78t73.5 -21q49 0 96 19l-10 -64q-54 -27 -119.5 -47t-113.5 -20h-15q-108 -111 -108 -240q0 -62 39.5 -89.5t124.5 -27.5z
" />
    <glyph glyph-name="Wcircumflex" unicode="&#x174;" horiz-adv-x="1917" 
d="M1262 -18h-91l-96 1093l-600 -1093h-90l-41 1237q-8 122 -141 135l12 65h533l-15 -65q-103 -7 -141.5 -25t-38.5 -47q0 -161 27 -944l575 1061h92l99 -1084q186 374 368 758q74 166 74 205q0 64 -156 76l13 65h485l-14 -65q-53 -4 -117 -37.5t-117 -136.5zM1530 1538
l-49 -31l-236 211l-319 -211l-47 31l291 285q18 18 39.5 31.5t60.5 13.5q43 0 57.5 -13.5t22.5 -27.5z" />
    <glyph glyph-name="wcircumflex" unicode="&#x175;" horiz-adv-x="1505" 
d="M1442 823q0 -221 -77 -424.5t-201.5 -316.5t-268.5 -113q-92 0 -162.5 54.5t-93.5 142.5q-95 -113 -160 -154t-127 -41q-106 0 -166.5 66t-60.5 178q0 65 18 135l78 297q25 86 25 150q0 42 -13.5 65t-56.5 23q-44 0 -113 -23l17 66q144 69 219 69q147 0 147 -143
q0 -51 -16 -111l-92 -368q-21 -89 -21 -144q0 -143 103 -143q50 0 105 35.5t100 99.5l176 758l174 12l12 -14l-141 -608q-23 -103 -23 -150q0 -135 146 -135q77 0 157 75t128.5 197t48.5 254q0 88 -53 151q-31 36 -42.5 64t-11.5 66q0 50 34 83.5t85 33.5q60 0 93.5 -48.5
t33.5 -138.5zM1151 1118l-207 273l-309 -273l-47 33l285 346q26 31 45.5 38t50.5 7q37 0 50.5 -10.5t23.5 -30.5l155 -350z" />
    <glyph glyph-name="Ycircumflex" unicode="&#x176;" horiz-adv-x="1137" 
d="M588 168q0 -60 54.5 -78t123.5 -24l-14 -66h-623l14 66q67 5 117.5 13.5t76.5 33.5t40 80l72 311l8 49q0 26 -9 67t-47 199t-94 365q-14 47 -29.5 77.5t-41.5 59.5q-34 27 -93 33l15 65h542l-16 -65l-53 -3q-123 -4 -123 -53q0 -11 5 -38.5t17 -81t119 -490.5
q166 221 292 397t126 203q0 29 -33 44t-119 22l15 65h465l-17 -65q-14 -2 -52 -14.5t-56 -24.5l-31 -20q-43 -26 -139 -143t-342 -456q-48 -65 -67.5 -104t-35.5 -113l-63 -276zM1143 1538l-49 -31l-236 211l-319 -211l-47 31l291 285q18 18 39.5 31.5t60.5 13.5
q43 0 57.5 -13.5t22.5 -27.5z" />
    <glyph glyph-name="ycircumflex" unicode="&#x177;" horiz-adv-x="1022" 
d="M236 -444q-117 0 -177.5 34t-60.5 107q0 47 28 77.5t72 30.5q84 0 138 -125l24 -57h21q118 0 205.5 137t127.5 385h-6q-98 -95 -167.5 -130t-143.5 -35q-82 0 -130 54.5t-48 145.5q0 66 22 156l78 311q23 84 23 144q0 55 -14.5 74.5t-49.5 19.5q-50 0 -119 -23l17 66
q144 69 219 69q147 0 147 -141q0 -47 -20 -129l-84 -348q-23 -92 -23 -158q0 -54 25.5 -88.5t75.5 -34.5q111 0 217 135l166 748l172 12l12 -14l-172 -782q-67 -329 -207.5 -485t-367.5 -156zM878 1118l-207 273l-309 -273l-47 33l285 346q26 31 45.5 38t50.5 7
q37 0 50.5 -10.5t23.5 -30.5l155 -350z" />
    <glyph glyph-name="Ydieresis" unicode="&#x178;" horiz-adv-x="1137" 
d="M588 168q0 -60 54.5 -78t123.5 -24l-14 -66h-623l14 66q67 5 117.5 13.5t76.5 33.5t40 80l72 311l8 49q0 26 -9 67t-47 199t-94 365q-14 47 -29.5 77.5t-41.5 59.5q-34 27 -93 33l15 65h542l-16 -65l-53 -3q-123 -4 -123 -53q0 -11 5 -38.5t17 -81t119 -490.5
q166 221 292 397t126 203q0 29 -33 44t-119 22l15 65h465l-17 -65q-14 -2 -52 -14.5t-56 -24.5l-31 -20q-43 -26 -139 -143t-342 -456q-48 -65 -67.5 -104t-35.5 -113l-63 -276zM1170 1731q0 -52 -34 -87.5t-83 -35.5t-84 35.5t-35 87.5q0 51 35 86.5t84 35.5t83 -35.5
t34 -86.5zM762 1731q0 -52 -35 -87.5t-84 -35.5t-83.5 35.5t-34.5 87.5q0 51 34.5 86.5t83.5 35.5t84 -35.5t35 -86.5z" />
    <glyph glyph-name="Zacute" unicode="&#x179;" horiz-adv-x="1151" 
d="M207 76h293q100 0 178.5 14t112.5 41q64 54 135 142t121 169h69l-149 -442h-1057l8 35l1092 1308h-283q-84 0 -152 -14q-60 -12 -153 -106t-162 -205h-70l136 401h979l-9 -35zM1118 1796q0 -45 -27.5 -72.5t-72.5 -50.5q-112 -48 -363 -166l-26 39q107 93 282 262
q37 39 66.5 49.5t56.5 10.5q37 0 60.5 -20.5t23.5 -51.5z" />
    <glyph glyph-name="zacute" unicode="&#x17a;" horiz-adv-x="838" 
d="M213 80q130 -2 170 -2l109 6q42 2 74.5 37.5t123.5 226.5h60l-68 -348h-702l16 70l620 829h-49q-75 0 -134 -3.5t-97 -18.5q-28 -11 -64.5 -66t-68.5 -135h-62l60 303h657l-12 -59zM815 1440q0 -40 -29 -70t-95 -75q-128 -88 -255 -185l-35 33q134 176 205 287
q34 49 63.5 68.5t67.5 19.5q34 0 56 -23t22 -55z" />
    <glyph glyph-name="Zdotaccent" unicode="&#x17b;" horiz-adv-x="1151" 
d="M207 76h293q100 0 178.5 14t112.5 41q64 54 135 142t121 169h69l-149 -442h-1057l8 35l1092 1308h-283q-84 0 -152 -14q-60 -12 -153 -106t-162 -205h-70l136 401h979l-9 -35zM930 1736q0 -56 -37 -98.5t-92 -42.5q-50 0 -87.5 39.5t-37.5 93.5q0 56 37 97t88 41
q53 0 91 -37.5t38 -92.5z" />
    <glyph glyph-name="zdotaccent" unicode="&#x17c;" horiz-adv-x="838" 
d="M213 80q130 -2 170 -2l109 6q42 2 74.5 37.5t123.5 226.5h60l-68 -348h-702l16 70l620 829h-49q-75 0 -134 -3.5t-97 -18.5q-28 -11 -64.5 -66t-68.5 -135h-62l60 303h657l-12 -59zM684 1386q0 -56 -37 -98.5t-92 -42.5q-50 0 -87.5 39.5t-37.5 93.5q0 56 37 97t88 41
q53 0 91 -37.5t38 -92.5z" />
    <glyph glyph-name="Zcaron" unicode="&#x17d;" horiz-adv-x="1151" 
d="M207 76h293q100 0 178.5 14t112.5 41q64 54 135 142t121 169h69l-149 -442h-1057l8 35l1092 1308h-283q-84 0 -152 -14q-60 -12 -153 -106t-162 -205h-70l136 401h979l-9 -35zM1149 1837l-289 -285q-24 -22 -38.5 -33.5t-61.5 -11.5q-41 0 -55.5 13.5t-24.5 27.5
l-180 289l49 33l233 -213l322 213z" />
    <glyph glyph-name="zcaron" unicode="&#x17e;" horiz-adv-x="838" 
d="M213 80q130 -2 170 -2l109 6q42 2 74.5 37.5t123.5 226.5h60l-68 -348h-702l16 70l620 829h-49q-75 0 -134 -3.5t-97 -18.5q-28 -11 -64.5 -66t-68.5 -135h-62l60 303h657l-12 -59zM512 1118q-29 0 -43 6.5t-29 34.5l-157 352l49 31l202 -272l312 272l45 -35l-287 -344
q-27 -32 -45.5 -38.5t-46.5 -6.5z" />
    <glyph glyph-name="longs" unicode="&#x17f;" horiz-adv-x="522" 
d="M891 1432q0 -49 -27.5 -79t-72.5 -30q-73 0 -128 95l-30 48q-52 -3 -89.5 -77t-86.5 -302l-217 -1028q-30 -142 -103 -257t-174 -180.5t-203 -65.5q-83 0 -121 34t-38 84q0 49 27.5 79t72.5 30q74 0 129 -95l29 -50q55 4 100 97.5t86 287.5l219 1034q31 142 102 254
t167.5 174.5t197.5 62.5q83 0 121.5 -33.5t38.5 -82.5z" />
    <glyph glyph-name="florin" unicode="&#x192;" horiz-adv-x="973" 
d="M1036 1169q0 -46 -27 -76t-75 -30t-86 45.5t-60 130.5q-75 -14 -128.5 -111t-90.5 -290l-22 -121h223l-20 -92h-215l-19 -108q-64 -369 -137 -543t-183 -258.5t-241 -84.5q-82 0 -131 36.5t-49 99.5q0 45 28.5 74.5t73.5 29.5q47 0 80.5 -37t62.5 -135q57 5 104.5 78.5
t92.5 238.5t83 372l44 237h-174l16 92h170q38 204 110.5 331t171 193t220.5 66q82 0 130 -37t48 -101z" />
    <glyph glyph-name="Aringacute" unicode="&#x1fa;" horiz-adv-x="1251" 
d="M1194 66l-14 -66h-539l14 66q108 12 143.5 29.5t35.5 43.5l-35 355h-412q-24 -39 -57 -95t-70.5 -121.5t-55 -100t-11.5 -36.5q0 -30 50 -51t115 -24l-12 -66h-506l15 66q165 14 254 159q147 226 466 741l160 257q-68 12 -110.5 55.5t-42.5 112.5q0 57 29 107.5t83 82.5
l293 229q71 58 119 58q38 0 60 -19.5t22 -50.5q0 -83 -119 -123q-82 -28 -133 -51q75 -12 118.5 -60t43.5 -114q0 -76 -53 -137t-138 -82l133 -1034q18 -119 154 -131zM436 575h357l-60 488zM971 1452q0 56 -27.5 88.5t-75.5 32.5q-70 0 -115.5 -52t-45.5 -128q0 -57 28 -87
t78 -30q70 0 114 49.5t44 126.5z" />
    <glyph glyph-name="aringacute" unicode="&#x1fb;" horiz-adv-x="1092" 
d="M918 1247q0 -92 -60 -162t-164 -90q59 -16 111 -49l182 47l10 -14l-149 -645q-25 -94 -25 -141q0 -97 95 -97q51 0 98 19l-15 -64q-72 -35 -124.5 -51t-104.5 -16q-69 0 -108.5 42t-42.5 105h-7l-47 -45q-122 -115 -227 -115q-126 0 -198 104.5t-72 284.5q0 153 60 295.5
t165.5 237t230.5 113.5q-125 40 -125 165q0 111 82 187t209 76q104 0 165 -51.5t61 -135.5zM764 764q0 40 -20.5 81.5t-57 67t-82.5 25.5q-88 0 -164 -79t-120 -215.5t-44 -285.5t36 -211.5t110 -62.5q99 0 215 141zM791 1247q0 54 -25.5 90.5t-79.5 36.5
q-69 0 -114.5 -57.5t-45.5 -142.5q0 -54 25.5 -89.5t79.5 -35.5q72 0 116 56.5t44 141.5zM530 1483l-26 39q229 190 303 258q40 35 68 49t57 14q34 0 56 -18.5t22 -46.5q0 -40 -19.5 -66.5t-76 -54t-384.5 -174.5z" />
    <glyph glyph-name="AEacute" unicode="&#x1fc;" horiz-adv-x="1866" 
d="M1837 1077h-74q-6 110 -47 181t-102 79q-71 9 -170 9h-137l-131 -572h69q76 0 121.5 16.5t86 69t79.5 148.5h74l-127 -555h-74l2 59q0 92 -19.5 125.5t-58.5 46t-102 12.5h-70l-100 -432q-13 -67 -13 -96q0 -55 37.5 -72.5t167.5 -17.5q96 0 131 5.5t62.5 16.5t57.5 37
t70 73t85 110t65 98h72l-123 -418h-1067l14 66q119 9 158 34.5t53 87.5l97 416h-435q-29 -36 -55.5 -68.5t-55.5 -70t-64 -85t-81 -112.5q-24 -34 -39.5 -67.5t-15.5 -50.5q0 -74 150 -84l-15 -66h-526l14 66q77 11 143 47.5t140 130.5q214 260 428.5 533t435.5 554
q-30 15 -168 23l17 65h1120zM555 688h387l150 647h-27zM1686 1796q0 -45 -27.5 -72.5t-72.5 -50.5q-112 -48 -363 -166l-26 39q107 93 282 262q37 39 66.5 49.5t56.5 10.5q37 0 60.5 -20.5t23.5 -51.5z" />
    <glyph glyph-name="aeacute" unicode="&#x1fd;" horiz-adv-x="1386" 
d="M1356 801q0 -103 -57.5 -176.5t-188.5 -124.5t-332 -70q0 -346 199 -346q74 0 141 46t139 151l56 -41q-71 -121 -180.5 -195t-225.5 -74q-222 0 -291 197h-2q-71 -96 -153 -145.5t-185 -49.5q-106 0 -171.5 56t-65.5 153q0 155 112 249t472 161q12 49 24 99t12 93
q0 73 -33.5 113.5t-93.5 40.5q-80 0 -137 -51v-29q0 -54 -4 -102q-9 -38 -42.5 -65t-86.5 -27q-42 0 -60 24.5t-18 59.5q0 66 55.5 126t144.5 98t169 38q195 0 258 -111q131 111 289 111q122 0 189 -55t67 -154zM1171 819q0 119 -96 119q-98 0 -179 -120.5t-112 -317.5
q148 11 226.5 49.5t119.5 103t41 166.5zM348 86q65 0 129.5 38t118.5 122q-8 40 -8 106q0 92 14 158q-173 -19 -265.5 -98t-92.5 -201q0 -60 29 -92.5t75 -32.5zM1137 1440q0 -40 -29 -70t-95 -75q-128 -88 -255 -185l-35 33q134 176 205 287q34 49 63.5 68.5t67.5 19.5
q34 0 56 -23t22 -55z" />
    <glyph glyph-name="Oslashacute" unicode="&#x1fe;" horiz-adv-x="1393" 
d="M1374 872q0 -245 -107 -454t-284.5 -331t-372.5 -122q-225 0 -370 160l-150 -160l-53 53l158 166q-95 148 -95 357q0 241 103 449.5t281.5 335t379.5 126.5q235 0 375 -164l131 139l53 -49l-141 -149q92 -152 92 -357zM336 494q0 -93 10 -150l766 811
q-35 108 -100.5 160.5t-167.5 52.5q-139 0 -252.5 -111.5t-184.5 -324.5t-71 -438zM1139 932q0 74 -9 137l-765 -813q69 -207 266 -207q141 0 255 113.5t183.5 324t69.5 445.5zM1145 1796q0 -45 -27.5 -72.5t-72.5 -50.5q-112 -48 -363 -166l-26 39q107 93 282 262
q37 39 66.5 49.5t56.5 10.5q37 0 60.5 -20.5t23.5 -51.5z" />
    <glyph glyph-name="oslashacute" unicode="&#x1ff;" horiz-adv-x="1018" 
d="M950 616q0 -174 -72 -327t-193.5 -236.5t-274.5 -83.5q-165 0 -258 125l-129 -129l-48 45l142 137q-49 92 -49 218q0 174 70 324t193.5 235.5t272.5 85.5q167 0 260 -121l123 121l45 -45l-131 -131q49 -92 49 -218zM748 682l-472 -465q16 -83 53 -129.5t111 -46.5
q89 0 159 80.5t109.5 224.5t39.5 307v29zM270 301l469 463q-27 174 -159 174q-89 0 -158.5 -75t-110.5 -223.5t-41 -307.5v-31zM846 1440q0 -40 -29 -70t-95 -75q-128 -88 -255 -185l-35 33q134 176 205 287q34 49 63.5 68.5t67.5 19.5q34 0 56 -23t22 -55z" />
    <glyph glyph-name="uni0218" unicode="&#x218;" horiz-adv-x="1083" 
d="M1016 948h-80q-6 171 -33.5 253t-83.5 124.5t-147 42.5q-101 0 -170.5 -79t-69.5 -195q0 -151 105 -213q41 -25 119 -57q119 -51 188.5 -101t104 -117t34.5 -147q0 -136 -68.5 -248.5t-189.5 -176t-264 -63.5q-196 0 -332 101l-57 -72h-80l96 485h82q21 -432 315 -432
q133 0 212 83t79 224q0 78 -31 140t-96 94l-66 30q-185 76 -241 124.5t-86.5 113.5t-30.5 148q0 118 60.5 219t169 161t231.5 60q87 0 158.5 -23t138.5 -75l53 67h80zM301 -444l8 57q98 6 141 41t56 88h-53q-111 0 -111 76q0 43 36 79.5t95 36.5q57 0 93 -35.5t36 -95.5
q0 -118 -85 -182.5t-216 -64.5z" />
    <glyph glyph-name="uni0219" unicode="&#x219;" horiz-adv-x="801" 
d="M760 854q0 -43 -30 -76t-71 -33q-89 0 -128 122l-23 61q-20 10 -49 10q-63 0 -101.5 -48t-38.5 -122q0 -62 31 -104t129 -95q104 -57 139 -90t54.5 -74.5t19.5 -97.5q0 -149 -102.5 -242.5t-263.5 -93.5q-132 0 -221 52.5t-89 138.5q0 47 29 77.5t72 30.5q91 0 131 -128
l18 -58q28 -41 90 -41q76 0 120 49.5t44 136.5q0 43 -14 75.5t-44.5 59.5t-107.5 68q-84 43 -122.5 78t-59 81t-20.5 107q0 83 45.5 156t126 114.5t174.5 41.5q124 0 193 -42t69 -114zM164 -444l8 57q98 6 141 41t56 88h-53q-111 0 -111 76q0 43 36 79.5t95 36.5
q57 0 93 -35.5t36 -95.5q0 -118 -85 -182.5t-216 -64.5z" />
    <glyph glyph-name="uni021A" unicode="&#x21a;" horiz-adv-x="1182" 
d="M1282 1034h-68q-5 127 -39.5 211.5t-87.5 91.5q-58 9 -145 9h-55l-260 -1125l-9 -55q0 -20 7 -35t21 -26t66 -23.5t87 -15.5l-17 -66h-628l16 66l35 3q46 4 90.5 11.5t71 33t41.5 79.5l266 1153h-49q-73 0 -154 -9q-53 -8 -140 -109t-130 -194h-72l84 385h1157zM301 -444
l8 57q98 6 141 41t56 88h-53q-111 0 -111 76q0 43 36 79.5t95 36.5q57 0 93 -35.5t36 -95.5q0 -118 -85 -182.5t-216 -64.5z" />
    <glyph glyph-name="uni021B" unicode="&#x21b;" horiz-adv-x="655" 
d="M694 887h-235l-127 -551q-23 -92 -23 -146q0 -48 24.5 -72t86.5 -24q22 0 62 8t61 17l-15 -74q-148 -65 -256 -65q-166 0 -166 149q0 37 11 88l155 670h-155l18 90h162l70 293h180l-68 -293h236zM121 -444l8 57q98 6 141 41t56 88h-53q-111 0 -111 76q0 43 36 79.5
t95 36.5q57 0 93 -35.5t36 -95.5q0 -118 -85 -182.5t-216 -64.5z" />
    <glyph glyph-name="uni0237" unicode="&#x237;" horiz-adv-x="535" 
d="M455 868q0 -43 -44 -264t-118 -545q-31 -142 -104.5 -257t-172.5 -180.5t-200 -65.5q-83 0 -121.5 34t-38.5 84q0 47 25.5 78t66.5 31q67 0 116 -95l27 -50q131 8 207 385q71 303 138 636q20 103 20 156q0 40 -16 60t-58 20q-25 0 -61.5 -7t-61.5 -16l15 66
q158 72 235 72q146 0 146 -142z" />
    <glyph glyph-name="circumflex" unicode="&#x2c6;" 
d="M942 1118l-207 273l-309 -273l-47 33l285 346q26 31 45.5 38t50.5 7q37 0 50.5 -10.5t23.5 -30.5l155 -350z" />
    <glyph glyph-name="caron" unicode="&#x2c7;" 
d="M637 1118q-29 0 -43 6.5t-29 34.5l-157 352l49 31l202 -272l312 272l45 -35l-287 -344q-27 -32 -45.5 -38.5t-46.5 -6.5z" />
    <glyph glyph-name="uni02C9" unicode="&#x2c9;" 
d="M999 1296h-604l29 123h604z" />
    <glyph glyph-name="breve" unicode="&#x2d8;" 
d="M995 1495q-52 -181 -135 -275t-205 -94q-225 0 -225 336v33l53 12q16 -127 62 -178t131 -51q88 0 149.5 53.5t112.5 175.5z" />
    <glyph glyph-name="dotaccent" unicode="&#x2d9;" 
d="M838 1386q0 -56 -37 -98.5t-92 -42.5q-50 0 -87.5 39.5t-37.5 93.5q0 56 37 97t88 41q53 0 91 -37.5t38 -92.5z" />
    <glyph glyph-name="ring" unicode="&#x2da;" 
d="M770 1372q0 -110 -82 -184t-211 -74q-105 0 -164 49.5t-59 132.5q0 111 82 187t209 76q101 0 163 -50t62 -137zM643 1372q0 54 -25 90.5t-79 36.5q-69 0 -114.5 -57.5t-45.5 -143.5q0 -53 25.5 -88.5t78.5 -35.5q72 0 116 56.5t44 141.5z" />
    <glyph glyph-name="ogonek" unicode="&#x2db;" 
d="M631 -444h-74q-116 0 -177 41.5t-61 115.5q0 82 68.5 166.5t202.5 159.5h61q-172 -132 -172 -295q0 -62 39.5 -89.5t124.5 -27.5z" />
    <glyph glyph-name="tilde" unicode="&#x2dc;" 
d="M1065 1473q-31 -112 -93 -178t-141 -66q-52 0 -90 16t-70 35t-61.5 35t-64.5 16q-40 0 -65.5 -25t-63.5 -110l-54 25q49 132 106 187.5t124 55.5q46 0 84.5 -16t72 -35t63 -35t58.5 -16q45 0 72 19t45 62l21 52z" />
    <glyph glyph-name="hungarumlaut" unicode="&#x2dd;" 
d="M1067 1466q0 -42 -29 -76t-237 -195l-109 -85l-33 29q130 176 211 307q33 52 58.5 72t60.5 20q34 0 56 -22t22 -50zM733 1466q0 -51 -34.5 -88t-317.5 -268l-37 29q72 103 110.5 161.5t88.5 145.5q29 51 54 71.5t62 20.5q32 0 53 -22t21 -50z" />
    <glyph glyph-name="gravecomb" unicode="&#x300;" 
d="M944 1546l-35 -39l-199 103l-130 65q-39 23 -61.5 43.5t-22.5 59.5t27.5 64.5t68.5 25.5q26 0 54 -19.5t127.5 -122.5t170.5 -180z" />
    <glyph glyph-name="acutecomb" unicode="&#x301;" 
d="M938 1796q0 -45 -27.5 -72.5t-72.5 -50.5q-112 -48 -363 -166l-26 39q107 93 282 262q37 39 66.5 49.5t56.5 10.5q37 0 60.5 -20.5t23.5 -51.5z" />
    <glyph glyph-name="uni0302" unicode="&#x302;" 
d="M1024 1538l-49 -31l-236 211l-319 -211l-47 31l291 285q18 18 39.5 31.5t60.5 13.5q43 0 57.5 -13.5t22.5 -27.5z" />
    <glyph glyph-name="uni0306" unicode="&#x306;" 
d="M1067 1851q-59 -161 -151.5 -241t-227.5 -80q-258 0 -258 297v24l55 17q17 -103 68 -148t162 -45q121 0 185.5 52.5t111.5 140.5z" />
    <glyph glyph-name="uni0308" unicode="&#x308;" 
d="M1051 1731q0 -52 -34 -87.5t-83 -35.5t-84 35.5t-35 87.5q0 51 35 86.5t84 35.5t83 -35.5t34 -86.5zM643 1731q0 -52 -35 -87.5t-84 -35.5t-83.5 35.5t-34.5 87.5q0 51 34.5 86.5t83.5 35.5t84 -35.5t35 -86.5z" />
    <glyph glyph-name="uni030B" unicode="&#x30b;" 
d="M436 1507l-24 35l245 250q72 76 119 76q37 0 57.5 -22.5t20.5 -53.5q0 -41 -26.5 -67.5t-67.5 -47.5q-72 -32 -117 -55t-207 -115zM821 1507l-24 35l250 250q70 76 118 76q37 0 56.5 -22.5t19.5 -53.5q0 -41 -25.5 -67.5t-66.5 -47.5q-72 -32 -120 -55t-208 -115z" />
    <glyph glyph-name="uni030C" unicode="&#x30c;" 
d="M1067 1837l-289 -285q-24 -22 -38.5 -33.5t-61.5 -11.5q-41 0 -55.5 13.5t-24.5 27.5l-180 289l49 33l233 -213l322 213z" />
    <glyph glyph-name="uni0326" unicode="&#x326;" 
d="M340 -444l8 57q98 6 141 41t56 88h-53q-111 0 -111 76q0 43 36 79.5t95 36.5q57 0 93 -35.5t36 -95.5q0 -118 -85 -182.5t-216 -64.5z" />
    <glyph glyph-name="tonos" unicode="&#x384;" 
d="M657 1139h-73l159 420h213v-25z" />
    <glyph glyph-name="dieresistonos" unicode="&#x385;" 
d="M659 1143h-69l98 469h205v-25zM543 1337q0 -52 -35 -87.5t-82 -35.5q-48 0 -83.5 35t-35.5 88q0 51 34 87t85 36q49 0 83 -36.5t34 -86.5zM1102 1337q0 -52 -35 -87.5t-82 -35.5q-48 0 -83.5 35t-35.5 88q0 51 34 87t85 36q49 0 83 -36.5t34 -86.5z" />
    <glyph glyph-name="Alphatonos" unicode="&#x386;" horiz-adv-x="1251" 
d="M1180 0h-539l14 66q85 10 114.5 19t47 22t17.5 34l-33 353h-432q-44 -71 -110 -197t-66 -154q0 -32 48 -52.5t117 -24.5l-12 -66h-506l15 66q90 8 149 51.5t105 124.5q124 204 345 583l357 615h80l147 -1229q8 -63 45 -100.5t111 -44.5zM731 1133l-315 -558h379z
M260 1002h-73l159 420h213v-25z" />
    <glyph glyph-name="anoteleia" unicode="&#x387;" horiz-adv-x="745" 
d="M592 854q0 -56 -39.5 -96.5t-97.5 -40.5q-59 0 -98.5 40.5t-39.5 96.5q0 54 39.5 94.5t98.5 40.5q58 0 97.5 -40.5t39.5 -94.5z" />
    <glyph glyph-name="Epsilontonos" unicode="&#x388;" horiz-adv-x="1526" 
d="M1497 1077h-73q-10 118 -49.5 185t-100.5 75q-71 9 -170 9h-145l-131 -572h77q79 0 125 18t85 70t77 146h74l-127 -555h-74l2 59q0 92 -19.5 125.5t-58.5 46t-102 12.5h-78l-100 -432q-12 -62 -12 -96q0 -53 38.5 -71.5t173.5 -18.5q118 0 158.5 10t71.5 32.5t76 73
t92.5 115t73.5 109.5h71l-123 -418h-1075l14 66q119 9 158 34.5t53 87.5l238 1031l4 36q0 26 -13 43.5t-58.5 35t-84.5 20.5l17 65h995zM202 1006h-73l159 420h213v-25z" />
    <glyph glyph-name="Etatonos" unicode="&#x389;" horiz-adv-x="1843" 
d="M1493 160q0 -36 28.5 -60.5t112.5 -33.5l-14 -66h-551l16 66q106 10 123 18q56 23 74 100l117 512h-584l-115 -501l-4 -33q0 -47 33 -68q9 -7 42 -16t65 -12l-15 -66h-549l15 66q106 10 125 18q53 23 71 100l240 1035l4 32q0 53 -50 75.5t-93 27.5l14 65h549l-14 -65
q-53 -5 -100.5 -18.5t-66 -39t-28.5 -67.5t-102 -449h585l99 439l4 32q0 31 -12.5 49t-55.5 34.5t-74 19.5l15 65h549l-15 -65q-64 -6 -120.5 -24.5t-76 -101.5t-237.5 -1033zM202 1006h-73l159 420h213v-25z" />
    <glyph glyph-name="Iotatonos" unicode="&#x38a;" horiz-adv-x="1044" 
d="M688 162q0 -45 41 -68q10 -6 58.5 -16.5t66.5 -11.5l-14 -66h-598l14 66l33 3q92 6 121.5 20t44.5 38t22 55l240 1039l4 34q0 48 -51 68.5t-115 30.5l15 65h598l-13 -65q-76 -6 -143 -25q-62 -20 -80 -98l-239 -1038q-5 -18 -5 -31zM202 1006h-73l159 420h213v-25z" />
    <glyph glyph-name="Omicrontonos" unicode="&#x38c;" horiz-adv-x="1632" 
d="M1614 872q0 -245 -107 -454t-284.5 -331t-372.5 -122q-229 0 -369.5 159t-140.5 417q0 241 103 449.5t281.5 335t379.5 126.5q150 0 267 -71.5t180 -204.5t63 -304zM1379 932q0 204 -76.5 320t-218.5 116q-139 0 -252.5 -111.5t-184.5 -324.5t-71 -438
q0 -212 76.5 -328.5t218.5 -116.5q141 0 255 113.5t183.5 324t69.5 445.5zM202 1002h-73l159 420h213v-25z" />
    <glyph glyph-name="Upsilontonos" unicode="&#x38e;" horiz-adv-x="1534" 
d="M985 168q0 -60 54.5 -78t123.5 -24l-14 -66h-623l14 66q67 5 117.5 13.5t76.5 33.5t40 80l72 311l8 49q0 26 -9 67t-47 199t-94 365q-14 47 -29.5 77.5t-41.5 59.5q-34 27 -93 33l15 65h542l-16 -65l-53 -3q-123 -4 -123 -53q0 -11 5 -38.5t17 -81t119 -490.5
q166 221 292 397t126 203q0 29 -33 44t-119 22l15 65h465l-17 -65q-14 -2 -52 -14.5t-56 -24.5l-31 -20q-43 -26 -139 -143t-342 -456q-48 -65 -67.5 -104t-35.5 -113l-63 -276zM202 1006h-73l159 420h213v-25z" />
    <glyph glyph-name="Omegatonos" unicode="&#x38f;" horiz-adv-x="1708" 
d="M1495 0h-582l17 68q203 214 278 314.5t116 189.5t62 190t21 217q0 188 -77.5 288.5t-219.5 100.5q-137 0 -242.5 -93.5t-169 -281t-63.5 -401.5q0 -127 35.5 -250t115.5 -274l-18 -68h-532l-50 389h66q23 -105 66 -160t98 -55h215l8 39q-50 70 -92.5 131t-73 123
t-48 129.5t-17.5 151.5q0 187 95.5 351t260.5 258.5t365 94.5q152 0 270.5 -61t183 -169.5t64.5 -240.5q0 -135 -42.5 -245.5t-130 -218.5t-313.5 -304l-10 -39h215q56 0 125 57t135 156l58 -20zM202 1002h-73l159 420h213v-25z" />
    <glyph glyph-name="iotadieresistonos" unicode="&#x390;" horiz-adv-x="535" 
d="M463 993l10 -16l-156 -678q-18 -72 -18 -115q0 -88 78 -88q53 0 98 21l-14 -66q-134 -67 -223 -67q-65 0 -99.5 40.5t-34.5 102.5q0 41 17 115l164 739zM417 1143h-69l98 469h205v-25zM301 1337q0 -52 -35 -87.5t-82 -35.5q-48 0 -83.5 35t-35.5 88q0 51 34 87t85 36
q49 0 83 -36.5t34 -86.5zM860 1337q0 -52 -35 -87.5t-82 -35.5q-48 0 -83.5 35t-35.5 88q0 51 34 87t85 36q49 0 83 -36.5t34 -86.5z" />
    <glyph glyph-name="Alpha" unicode="&#x391;" horiz-adv-x="1251" 
d="M1180 0h-539l14 66q85 10 114.5 19t47 22t17.5 34l-33 353h-432q-44 -71 -110 -197t-66 -154q0 -32 48 -52.5t117 -24.5l-12 -66h-506l15 66q90 8 149 51.5t105 124.5q124 204 345 583l357 615h80l147 -1229q8 -63 45 -100.5t111 -44.5zM731 1133l-315 -558h379z" />
    <glyph glyph-name="Beta" unicode="&#x392;" horiz-adv-x="1241" 
d="M1200 1167q0 -150 -108 -254.5t-306 -146.5v-8q170 -24 261.5 -105t91.5 -200q0 -131 -69 -233.5t-193.5 -161t-264.5 -58.5h-637l17 66q111 9 148.5 35t52.5 87l235 1031q6 21 6 38q0 44 -41 68t-98 29l12 65h563q152 0 241 -68t89 -184zM958 1157q0 89 -44.5 139
t-131.5 50l-112 -5l-127 -553h104q145 0 228 101.5t83 267.5zM893 483q0 107 -60 168.5t-165 61.5q-94 0 -144 -4l-112 -480q-6 -28 -6 -47q0 -47 42 -72.5t119 -25.5q94 0 166.5 50.5t116 148.5t43.5 200z" />
    <glyph glyph-name="Gamma" unicode="&#x393;" horiz-adv-x="1092" 
d="M1190 1026h-76q-6 128 -45.5 214t-103.5 95q-71 11 -177 11h-122l-260 -1141q-7 -24 -7 -41q0 -48 33 -67.5t139 -30.5l-14 -66h-592l17 66l30 3q86 6 113 21t41 39.5t22 58.5l234 1014q8 37 8 51q0 49 -44 69.5t-112 31.5l17 65h989z" />
    <glyph glyph-name="uni0394" unicode="&#x394;" horiz-adv-x="1270" 
d="M1137 0h-1239l8 49l913 1391h80l248 -1391zM750 1165l-646 -999h811z" />
    <glyph glyph-name="Epsilon" unicode="&#x395;" horiz-adv-x="1235" 
d="M1206 1077h-73q-10 118 -49.5 185t-100.5 75q-71 9 -170 9h-145l-131 -572h77q79 0 125 18t85 70t77 146h74l-127 -555h-74l2 59q0 92 -19.5 125.5t-58.5 46t-102 12.5h-78l-100 -432q-12 -62 -12 -96q0 -53 38.5 -71.5t173.5 -18.5q118 0 158.5 10t71.5 32.5t76 73
t92.5 115t73.5 109.5h71l-123 -418h-1075l14 66q119 9 158 34.5t53 87.5l238 1031l4 36q0 26 -13 43.5t-58.5 35t-84.5 20.5l17 65h995z" />
    <glyph glyph-name="Zeta" unicode="&#x396;" horiz-adv-x="1151" 
d="M207 76h293q100 0 178.5 14t112.5 41q64 54 135 142t121 169h69l-149 -442h-1057l8 35l1092 1308h-283q-84 0 -152 -14q-60 -12 -153 -106t-162 -205h-70l136 401h979l-9 -35z" />
    <glyph glyph-name="Eta" unicode="&#x397;" horiz-adv-x="1546" 
d="M1196 160q0 -36 28.5 -60.5t112.5 -33.5l-14 -66h-551l16 66q106 10 123 18q56 23 74 100l117 512h-584l-115 -501l-4 -33q0 -47 33 -68q9 -7 42 -16t65 -12l-15 -66h-549l15 66q106 10 125 18q53 23 71 100l240 1035l4 32q0 53 -50 75.5t-93 27.5l14 65h549l-14 -65
q-53 -5 -100.5 -18.5t-66 -39t-28.5 -67.5t-102 -449h585l99 439l4 32q0 31 -12.5 49t-55.5 34.5t-74 19.5l15 65h549l-15 -65q-64 -6 -120.5 -24.5t-76 -101.5t-237.5 -1033z" />
    <glyph glyph-name="Theta" unicode="&#x398;" horiz-adv-x="1393" 
d="M850 483q0 81 -6 106.5t-18 32.5t-37 10t-76 3t-78.5 -3.5t-42 -11.5t-32 -39.5t-38.5 -97.5h-63l104 451h62q0 -91 10 -119q4 -18 31 -24.5t96 -6.5q103 0 127.5 20.5t62.5 129.5h64l-105 -451h-61zM1374 872q0 -245 -107 -454t-284.5 -331t-372.5 -122
q-229 0 -369.5 159t-140.5 417q0 241 103 449.5t281.5 335t379.5 126.5q150 0 267 -71.5t180 -204.5t63 -304zM1139 932q0 204 -76.5 320t-218.5 116q-139 0 -252.5 -111.5t-184.5 -324.5t-71 -438q0 -212 76.5 -328.5t218.5 -116.5q141 0 255 113.5t183.5 324t69.5 445.5z
" />
    <glyph glyph-name="Iota" unicode="&#x399;" horiz-adv-x="758" 
d="M401 162q0 -45 41 -68q10 -6 58.5 -16.5t66.5 -11.5l-14 -66h-598l14 66l33 3q92 6 121.5 20t44.5 38t22 55l240 1039l4 34q0 48 -51 68.5t-115 30.5l15 65h598l-13 -65q-76 -6 -143 -25q-62 -20 -80 -98l-239 -1038q-5 -18 -5 -31z" />
    <glyph glyph-name="Kappa" unicode="&#x39a;" horiz-adv-x="1298" 
d="M731 776l145 -287q102 -205 132.5 -266t64.5 -95.5t69 -46t89 -15.5l-19 -66h-340q-136 352 -315 674h-43l-106 -463q-9 -36 -9 -57q0 -42 35 -60q12 -8 49.5 -17t59.5 -11l-15 -66h-548l14 66q99 8 121 18q53 23 71 100l240 1035q6 18 6 41q0 27 -15 43t-50.5 29.5
t-77.5 21.5l14 65h551l-14 -65q-63 -5 -127 -25q-53 -20 -72 -100l-117 -506h19q181 146 359.5 339.5t178.5 246.5q0 17 -24.5 28t-87.5 17l12 65h494l-17 -65l-32 -4q-55 -7 -106 -27.5t-85 -52.5l-131 -133q-215 -219 -373 -361z" />
    <glyph glyph-name="Lambda" unicode="&#x39b;" horiz-adv-x="1257" 
d="M193 143q0 -32 48 -52.5t117 -24.5l-12 -66h-506l15 66q40 3 87 18.5t87 52.5t80 105q171 282 345 584l357 614h80l153 -1229q8 -63 45 -100.5t111 -44.5l-14 -66h-539l15 66q86 10 115 19t46 22t17 34q0 7 -1 20.5t-108 971.5l-362 -639q-115 -203 -145.5 -267
t-30.5 -84z" />
    <glyph glyph-name="Mu" unicode="&#x39c;" horiz-adv-x="1796" 
d="M1446 154q0 -45 49 -64t100 -24l-14 -66h-586l17 66l33 3q91 6 118 21q63 37 78 105l246 1056h-10l-736 -1228h-47l-137 1255h-8l-203 -872q-27 -133 -27 -185q0 -66 31 -98.5t142 -56.5l-13 -66h-534l16 66q76 7 130.5 29t84.5 76.5t70 221.5l170 737q10 40 10 78
q0 76 -43.5 109t-116.5 37l15 65h456l113 -1048l512 856q41 69 66.5 121t31.5 71h445l-15 -65q-113 -10 -148 -31.5t-46 -73.5l-242 -1038q-8 -32 -8 -57z" />
    <glyph glyph-name="Nu" unicode="&#x39d;" horiz-adv-x="1468" 
d="M1096 -14h-88l-502 1198l-178 -774q-27 -110 -27 -191q0 -67 21 -92q13 -20 64 -39.5t75 -21.5l-12 -66h-525l17 66q31 3 92 21t78 30q35 25 61.5 87.5t54.5 194.5l160 688q12 61 12 101q0 53 -26 87t-68 54t-92 25l16 65h387l457 -1110l164 709q27 130 27 188
q0 48 -13.5 74t-66.5 47t-101 27l17 65h516l-17 -65q-24 -2 -62 -15t-62.5 -25t-48 -40.5t-43.5 -80.5t-39.5 -134t-247.5 -1073z" />
    <glyph glyph-name="Xi" unicode="&#x39e;" horiz-adv-x="1337" 
d="M1225 995l-9 81q-5 77 -31.5 118.5t-74.5 50t-285 8.5q-126 0 -256 -6q-114 -5 -206 -170l-46 -82h-69l123 424h993l-70 -424h-69zM864 471q0 82 -8.5 109.5t-22.5 36.5t-45.5 12.5t-95.5 3.5q-63 0 -96.5 -4t-52.5 -13t-44 -44.5t-50 -100.5h-70l108 475h66
q0 -39 2.5 -67t10.5 -52.5t40.5 -32.5t118.5 -8q65 0 97.5 4t50 12.5t38.5 35.5t60 108h69l-110 -475h-66zM1057 0h-1012l49 432h72q11 -98 24.5 -140.5t34.5 -69.5t45.5 -37.5t117.5 -13.5t196 -3q178 0 274 6q120 7 224 178l48 80h70z" />
    <glyph glyph-name="Omicron" unicode="&#x39f;" horiz-adv-x="1393" 
d="M1374 872q0 -245 -107 -454t-284.5 -331t-372.5 -122q-229 0 -369.5 159t-140.5 417q0 241 103 449.5t281.5 335t379.5 126.5q150 0 267 -71.5t180 -204.5t63 -304zM1139 932q0 204 -76.5 320t-218.5 116q-139 0 -252.5 -111.5t-184.5 -324.5t-71 -438
q0 -212 76.5 -328.5t218.5 -116.5q141 0 255 113.5t183.5 324t69.5 445.5z" />
    <glyph glyph-name="Pi" unicode="&#x3a0;" horiz-adv-x="1532" 
d="M1182 160q0 -32 17.5 -51.5t52 -29t71.5 -13.5l-14 -66h-549l14 66q102 8 123 18q56 23 74 100l264 1149h-571l-261 -1138l-4 -33q0 -20 6 -35.5t20 -27.5t46.5 -20.5t67.5 -12.5l-15 -66h-549l15 66q106 10 125 18q53 23 71 100l240 1035q4 12 4 32q0 31 -17.5 52
t-56 34t-77.5 17l14 65h1341l-14 -65q-64 -5 -123 -25q-53 -20 -72 -100l-239 -1034z" />
    <glyph glyph-name="Rho" unicode="&#x3a1;" horiz-adv-x="1153" 
d="M1214 1133q0 -146 -73 -261t-201.5 -180t-277.5 -65h-156l-96 -424q-9 -39 -9 -51q0 -51 35 -66q19 -13 123 -20l-14 -66h-565l14 66q97 8 127 20q54 24 72 102l237 1035q6 24 6 45q0 46 -45 63.5t-106 22.5l12 65h569q160 0 254 -77.5t94 -208.5zM969 1112
q0 111 -50.5 170t-146.5 59h-102l-144 -632h95q105 0 182.5 46.5t121.5 142t44 214.5z" />
    <glyph glyph-name="Sigma" unicode="&#x3a3;" horiz-adv-x="1135" 
d="M922 0h-1020l8 41l682 627l-377 721l8 30h981l-86 -372h-71q0 107 -42 192t-106 96q-75 11 -174 11h-256l319 -609l-4 -16l-602 -551h543q48 0 90 30t80 76.5t104 161.5h70z" />
    <glyph glyph-name="Tau" unicode="&#x3a4;" horiz-adv-x="1182" 
d="M1282 1034h-68q-5 127 -39.5 211.5t-87.5 91.5q-58 9 -145 9h-55l-260 -1125l-9 -55q0 -20 7 -35t21 -26t66 -23.5t87 -15.5l-17 -66h-628l16 66l35 3q46 4 90.5 11.5t71 33t41.5 79.5l266 1153h-49q-73 0 -154 -9q-53 -8 -140 -109t-130 -194h-72l84 385h1157z" />
    <glyph glyph-name="Upsilon" unicode="&#x3a5;" horiz-adv-x="1137" 
d="M588 168q0 -60 54.5 -78t123.5 -24l-14 -66h-623l14 66q67 5 117.5 13.5t76.5 33.5t40 80l72 311l8 49q0 26 -9 67t-47 199t-94 365q-14 47 -29.5 77.5t-41.5 59.5q-34 27 -93 33l15 65h542l-16 -65l-53 -3q-123 -4 -123 -53q0 -11 5 -38.5t17 -81t119 -490.5
q166 221 292 397t126 203q0 29 -33 44t-119 22l15 65h465l-17 -65q-14 -2 -52 -14.5t-56 -24.5l-31 -20q-43 -26 -139 -143t-342 -456q-48 -65 -67.5 -104t-35.5 -113l-63 -276z" />
    <glyph glyph-name="Phi" unicode="&#x3a6;" horiz-adv-x="1489" 
d="M1473 801q0 -167 -83 -300.5t-237 -207.5t-362 -74h-17q-16 -68 -16 -84q0 -43 39 -61q18 -12 123 -19l-15 -65h-561l16 65l29 3q74 6 103 20t44 38t22 57.5t9 45.5q-469 35 -469 412q0 166 83 299t237 206.5t362 73.5h17q12 52 12 68q0 29 -16.5 45t-55.5 28.5t-75 16.5
l14 66h551l-15 -66l-28 -2q-92 -9 -125 -31.5t-47 -81.5l-8 -43q469 -35 469 -409zM1243 827q0 284 -258 310l-192 -842h24q122 0 216.5 66t152 194.5t57.5 271.5zM754 1137q-119 0 -214.5 -64.5t-153.5 -193.5t-58 -275q0 -143 66 -220.5t190 -88.5l194 842h-24z" />
    <glyph glyph-name="Chi" unicode="&#x3a7;" horiz-adv-x="1290" 
d="M807 762l92 -251q36 -101 79.5 -213t60.5 -142t36 -50.5t44.5 -27t92.5 -12.5l-14 -66h-598l14 66q172 6 172 63q0 41 -24.5 130.5t-118.5 361.5q-128 -148 -254.5 -307.5t-126.5 -190.5q0 -27 27 -40.5t108 -16.5l-12 -66h-496l17 66q52 4 92 14t87.5 43.5t111.5 105.5
l417 473l-176 486q-32 83 -56.5 110.5t-70.5 40t-84 15.5l15 65h592l-13 -65q-103 -8 -141.5 -23t-38.5 -39q0 -32 10.5 -66t26.5 -87l94 -299q348 398 348 456q0 17 -13 28t-33 17.5t-87 12.5l14 65h490l-14 -65q-81 -7 -125 -27q-58 -29 -105 -76t-440 -489z" />
    <glyph glyph-name="Psi" unicode="&#x3a8;" horiz-adv-x="1649" 
d="M879 1251q0 51 -47.5 75t-90.5 28l15 65h538l-16 -65q-58 -5 -117 -25q-53 -20 -71 -100l-160 -697q114 9 191 51t124.5 115t77.5 205l119 516h377l-15 -65l-24 -4q-55 -7 -86.5 -17t-49.5 -29.5t-32 -70.5l-72 -311q-52 -231 -204.5 -347.5t-426.5 -125.5l-55 -246
q-4 -15 -4 -37q0 -20 7.5 -35.5t22 -26.5t64.5 -23.5t78 -14.5l-14 -66h-617l17 66q121 9 149 22q63 24 82 105l57 256q-219 15 -321.5 103.5t-102.5 256.5q0 55 17 129l65 281l4 32q0 47 -42 72t-95 31l15 65h376l-114 -497q-17 -66 -17 -123q0 -134 57 -194t179 -73
l157 687z" />
    <glyph glyph-name="uni03A9" unicode="&#x3a9;" horiz-adv-x="1497" 
d="M1284 0h-582l17 68q203 214 278 314.5t116 189.5t62 190t21 217q0 188 -77.5 288.5t-219.5 100.5q-137 0 -242.5 -93.5t-169 -281t-63.5 -401.5q0 -127 35.5 -250t115.5 -274l-18 -68h-532l-50 389h66q23 -105 66 -160t98 -55h215l8 39q-50 70 -92.5 131t-73 123
t-48 129.5t-17.5 151.5q0 187 95.5 351t260.5 258.5t365 94.5q152 0 270.5 -61t183 -169.5t64.5 -240.5q0 -135 -42.5 -245.5t-130 -218.5t-313.5 -304l-10 -39h215q56 0 125 57t135 156l58 -20z" />
    <glyph glyph-name="Iotadieresis" unicode="&#x3aa;" horiz-adv-x="758" 
d="M401 162q0 -45 41 -68q10 -6 58.5 -16.5t66.5 -11.5l-14 -66h-598l14 66l33 3q92 6 121.5 20t44.5 38t22 55l240 1039l4 34q0 48 -51 68.5t-115 30.5l15 65h598l-13 -65q-76 -6 -143 -25q-62 -20 -80 -98l-239 -1038q-5 -18 -5 -31zM938 1731q0 -51 -34 -87t-83 -36
q-51 0 -85 36t-34 87t34 87t85 36q49 0 83 -36.5t34 -86.5zM549 1731q0 -51 -34 -87t-83 -36q-51 0 -85 36t-34 87t34 87t85 36q49 0 83 -36.5t34 -86.5z" />
    <glyph glyph-name="Upsilondieresis" unicode="&#x3ab;" horiz-adv-x="1137" 
d="M588 168q0 -60 54.5 -78t123.5 -24l-14 -66h-623l14 66q67 5 117.5 13.5t76.5 33.5t40 80l72 311l8 49q0 26 -9 67t-47 199t-94 365q-14 47 -29.5 77.5t-41.5 59.5q-34 27 -93 33l15 65h542l-16 -65l-53 -3q-123 -4 -123 -53q0 -11 5 -38.5t17 -81t119 -490.5
q166 221 292 397t126 203q0 29 -33 44t-119 22l15 65h465l-17 -65q-14 -2 -52 -14.5t-56 -24.5l-31 -20q-43 -26 -139 -143t-342 -456q-48 -65 -67.5 -104t-35.5 -113l-63 -276zM1170 1731q0 -52 -34 -87.5t-83 -35.5t-84 35.5t-35 87.5q0 51 35 86.5t84 35.5t83 -35.5
t34 -86.5zM762 1731q0 -52 -35 -87.5t-84 -35.5t-83.5 35.5t-34.5 87.5q0 51 34.5 86.5t83.5 35.5t84 -35.5t35 -86.5z" />
    <glyph glyph-name="alphatonos" unicode="&#x3ac;" horiz-adv-x="1122" 
d="M1102 979q-26 -81 -137 -353l-64 -157q-22 -110 -22 -211q0 -89 22.5 -125.5t75.5 -36.5q49 0 96 19l-14 -64q-91 -44 -130 -55.5t-85 -11.5q-67 0 -93 37t-26 120v60q-62 -107 -154 -168.5t-192 -61.5q-141 0 -224 104.5t-83 293.5q0 166 70.5 314t193.5 237.5t258 89.5
q106 0 170.5 -59t87.5 -165l70 195l168 12zM766 631q0 148 -45 227.5t-125 79.5q-78 0 -152.5 -80t-121 -213.5t-46.5 -279.5q0 -128 47.5 -205.5t131.5 -77.5q102 0 181 114.5t124 325.5q6 62 6 109zM630 1139h-73l159 420h213v-25z" />
    <glyph glyph-name="epsilontonos" unicode="&#x3ad;" horiz-adv-x="862" 
d="M831 815q0 -69 -33.5 -112.5t-88.5 -43.5q-86 0 -86 89q0 36 39 147q-14 15 -43.5 29t-71.5 14q-88 0 -142.5 -63.5t-54.5 -165.5q0 -72 44.5 -111t133.5 -39h52l-19 -90h-76q-115 0 -180 -58t-65 -159q0 -82 51.5 -131t134.5 -49q92 0 169.5 53.5t152.5 169.5l59 -43
q-78 -140 -189.5 -210.5t-244.5 -70.5q-155 0 -245.5 71.5t-90.5 193.5q0 82 43.5 143.5t120.5 97.5t161 39v10q-103 19 -157.5 68.5t-54.5 128.5q0 124 107 205.5t282 81.5q128 0 210 -53.5t82 -141.5zM546 1139h-73l159 420h213v-25z" />
    <glyph glyph-name="etatonos" unicode="&#x3ae;" horiz-adv-x="1079" 
d="M969 803q0 -76 -19 -162l-235 -1085h-187l232 1058q18 82 18 146q0 131 -104 131q-48 0 -109.5 -42.5t-120.5 -115.5l-168 -733h-186l148 647q24 120 24 156q0 46 -14.5 64t-52.5 18q-31 0 -66.5 -8t-48.5 -13l14 66q140 67 230 67q75 0 105.5 -42t33.5 -119h6
q106 103 175.5 138.5t148.5 35.5q80 0 128 -55.5t48 -151.5zM649 1139h-73l159 420h213v-25z" />
    <glyph glyph-name="iotatonos" unicode="&#x3af;" horiz-adv-x="535" 
d="M463 993l10 -16l-156 -678q-18 -72 -18 -115q0 -88 78 -88q53 0 98 21l-14 -66q-134 -67 -223 -67q-65 0 -99.5 40.5t-34.5 102.5q0 41 17 115l164 739zM409 1139h-73l159 420h213v-25z" />
    <glyph glyph-name="upsilondieresistonos" unicode="&#x3b0;" horiz-adv-x="999" 
d="M936 823q0 -228 -73.5 -429t-199.5 -313t-274 -112q-120 0 -194 74t-74 195q0 10 4.5 47.5t7.5 42.5q58 208 88 318t27 153q0 48 -16.5 67t-61.5 19q-36 0 -111 -25l15 66q155 71 231 71q141 0 141 -143q0 -51 -16 -111l-96 -372q-21 -96 -21 -119q0 -78 42.5 -122
t119.5 -44q83 0 160.5 73t123.5 194.5t46 258.5q0 85 -51 150q-29 36 -40.5 65t-11.5 66q0 52 32.5 84.5t78.5 32.5q58 0 90.5 -51t32.5 -136zM579 1143h-69l98 469h205v-25zM463 1337q0 -52 -35 -87.5t-82 -35.5q-48 0 -83.5 35t-35.5 88q0 51 34 87t85 36q49 0 83 -36.5
t34 -86.5zM1022 1337q0 -52 -35 -87.5t-82 -35.5q-48 0 -83.5 35t-35.5 88q0 51 34 87t85 36q49 0 83 -36.5t34 -86.5z" />
    <glyph glyph-name="alpha" unicode="&#x3b1;" horiz-adv-x="1122" 
d="M1102 979q-26 -81 -137 -353l-64 -157q-22 -110 -22 -211q0 -89 22.5 -125.5t75.5 -36.5q49 0 96 19l-14 -64q-91 -44 -130 -55.5t-85 -11.5q-67 0 -93 37t-26 120v60q-62 -107 -154 -168.5t-192 -61.5q-141 0 -224 104.5t-83 293.5q0 166 70.5 314t193.5 237.5t258 89.5
q106 0 170.5 -59t87.5 -165l70 195l168 12zM766 631q0 148 -45 227.5t-125 79.5q-78 0 -152.5 -80t-121 -213.5t-46.5 -279.5q0 -128 47.5 -205.5t131.5 -77.5q102 0 181 114.5t124 325.5q6 62 6 109z" />
    <glyph glyph-name="beta" unicode="&#x3b2;" horiz-adv-x="1077" 
d="M1077 1278q0 -93 -43.5 -171t-130.5 -134t-182 -70v-8q77 -8 142 -48.5t104 -109t39 -159.5q0 -155 -77 -295.5t-205.5 -224t-266.5 -83.5q-126 0 -205 74l-109 -493h-186l317 1450q37 168 79.5 256t107.5 153t142 99t171 36q135 0 219 -74t84 -198zM895 1286
q0 91 -33 142t-98 51q-104 0 -173 -103.5t-118 -326.5l-184 -840q8 -78 50.5 -121t106.5 -43q93 0 176 80.5t132 216t49 283.5q0 108 -51.5 163.5t-145.5 55.5h-63l18 90h51q71 0 137.5 48t106 129.5t39.5 174.5z" />
    <glyph glyph-name="gamma" unicode="&#x3b3;" horiz-adv-x="940" 
d="M969 926q0 -53 -41 -133.5t-207 -311.5q-208 -289 -285 -428l-16 -170l-14 -119q-37 -208 -156 -208q-34 0 -59 18.5t-25 63.5q0 86 127 376q-9 187 -36.5 417.5t-51.5 344.5q-21 107 -99 107q-33 0 -102 -23l14 66q132 71 213 71q87 0 120.5 -59.5t57 -286t25.5 -463.5
q43 75 110 177l91 141q88 145 90 265q1 106 17.5 149t49.5 66.5t80 23.5q45 0 71 -23t26 -61z" />
    <glyph glyph-name="delta" unicode="&#x3b4;" horiz-adv-x="1022" 
d="M1040 1360q0 -64 -35 -111t-92 -47q-40 0 -62 23t-22 55q0 18 7 43.5t45 116.5q-14 12 -51.5 26.5t-94.5 14.5q-103 0 -163 -56.5t-60 -150.5q0 -47 15.5 -82t50.5 -69.5t155 -118.5q116 -83 168.5 -177.5t52.5 -220.5q0 -167 -71 -316.5t-192 -235t-265 -85.5
q-164 0 -261 106.5t-97 286.5q0 216 127.5 379.5t339.5 221.5v6q-121 67 -171.5 134t-50.5 154q0 81 51.5 148t145.5 106t227 39q141 0 222 -52.5t81 -137.5zM750 598q0 210 -136 307q-102 -18 -179.5 -99t-120 -205.5t-42.5 -268.5q0 -135 45.5 -213t126.5 -78t149.5 70
t112.5 206.5t44 280.5z" />
    <glyph glyph-name="epsilon" unicode="&#x3b5;" horiz-adv-x="862" 
d="M831 815q0 -69 -33.5 -112.5t-88.5 -43.5q-86 0 -86 89q0 36 39 147q-14 15 -43.5 29t-71.5 14q-88 0 -142.5 -63.5t-54.5 -165.5q0 -72 44.5 -111t133.5 -39h52l-19 -90h-76q-115 0 -180 -58t-65 -159q0 -82 51.5 -131t134.5 -49q92 0 169.5 53.5t152.5 169.5l59 -43
q-78 -140 -189.5 -210.5t-244.5 -70.5q-155 0 -245.5 71.5t-90.5 193.5q0 82 43.5 143.5t120.5 97.5t161 39v10q-103 19 -157.5 68.5t-54.5 128.5q0 124 107 205.5t282 81.5q128 0 210 -53.5t82 -141.5z" />
    <glyph glyph-name="zeta" unicode="&#x3b6;" horiz-adv-x="739" 
d="M686 -39q0 -99 -51.5 -184.5t-141 -135t-192.5 -49.5q-91 0 -134.5 30t-43.5 73q0 39 28.5 63.5t67.5 24.5q64 0 130 -69l32 -31q41 3 82.5 32t65.5 73t24 101q0 62 -25.5 87t-76.5 30l-66 4q-149 10 -236.5 96.5t-87.5 225.5q0 145 70.5 289.5t212 302.5t434.5 405v10
l-317 -4q-72 0 -113 24t-41 66q0 50 30.5 82.5t82.5 32.5q68 0 125 -58q57 -59 110 -59q160 0 320 21l-23 -88q-342 -254 -517 -497.5t-175 -467.5q0 -101 42.5 -156t137.5 -69l36 -3q108 -4 159 -51.5t51 -150.5z" />
    <glyph glyph-name="eta" unicode="&#x3b7;" horiz-adv-x="1079" 
d="M969 803q0 -76 -19 -162l-235 -1085h-187l232 1058q18 82 18 146q0 131 -104 131q-48 0 -109.5 -42.5t-120.5 -115.5l-168 -733h-186l148 647q24 120 24 156q0 46 -14.5 64t-52.5 18q-31 0 -66.5 -8t-48.5 -13l14 66q140 67 230 67q75 0 105.5 -42t33.5 -119h6
q106 103 175.5 138.5t148.5 35.5q80 0 128 -55.5t48 -151.5z" />
    <glyph glyph-name="theta" unicode="&#x3b8;" horiz-adv-x="1044" 
d="M430 -31q-157 0 -241.5 131t-84.5 371q0 182 48 390t132.5 365.5t196 240.5t230.5 83q155 0 238 -131t83 -368q0 -120 -26 -289q-57 -353 -213 -573t-363 -220zM815 829q33 200 33 355q0 143 -38.5 219t-113.5 76q-70 0 -136.5 -76t-122 -222.5t-91.5 -351.5h469z
M799 745h-469q-41 -221 -41 -383q0 -321 157 -321q113 0 199 171t154 533z" />
    <glyph glyph-name="iota" unicode="&#x3b9;" horiz-adv-x="535" 
d="M463 993l10 -16l-156 -678q-18 -72 -18 -115q0 -88 78 -88q53 0 98 21l-14 -66q-134 -67 -223 -67q-65 0 -99.5 40.5t-34.5 102.5q0 41 17 115l164 739z" />
    <glyph glyph-name="kappa" unicode="&#x3ba;" horiz-adv-x="1032" 
d="M1047 895q0 -48 -32.5 -83.5t-74.5 -35.5q-46 0 -119 35q-102 -69 -209 -186q108 -315 142.5 -395.5t72 -110t78.5 -29.5q52 0 115 23l-12 -66q-83 -37 -129.5 -50t-100.5 -13q-76 0 -126 67.5t-143 352.5l-28 81l-119 -102l-88 -383h-184l150 651q22 108 22 156
q0 35 -11.5 56.5t-51.5 21.5q-23 0 -60 -7.5t-59 -15.5l16 66q144 69 219 69q146 0 146 -139q0 -51 -19 -131l-55 -235h4l85 94q187 210 269.5 291t120 102.5t78.5 21.5q47 0 75 -28t28 -78z" />
    <glyph glyph-name="lambda" unicode="&#x3bb;" horiz-adv-x="897" 
d="M723 -20q-36 0 -57.5 18t-35 52t-30.5 149q-14 89 -24 230t-31 325l-240 -411q-171 -295 -194 -343h-213l612 1001q-21 225 -64 328h-61q-56 0 -87.5 25.5t-31.5 70.5q0 51 34 88t87 37q72 0 111 -51t57 -172l74 -536q33 -212 65.5 -376t51 -228.5t42 -84.5t70.5 -20h57
l-14 -64q-114 -38 -178 -38z" />
    <glyph glyph-name="uni03BC" unicode="&#x3bc;" horiz-adv-x="1077" 
d="M780 -16q-72 0 -110.5 41.5t-38.5 113.5h-6q-79 -76 -118.5 -103t-80.5 -41.5t-88 -14.5q-53 0 -96.5 27t-59.5 69h-6q-26 -121 -26 -273q0 -123 -29.5 -185t-97.5 -62q-91 0 -91 88q0 35 72 215q46 117 73 235l206 887l174 12l12 -14l-150 -647q-16 -69 -16 -109
q0 -131 123 -131q56 0 107.5 32t109.5 105l174 752l174 12l13 -14l-150 -643q-27 -108 -27 -141q0 -57 23 -78t74 -21t98 19l-10 -64q-144 -67 -232 -67z" />
    <glyph glyph-name="nu" unicode="&#x3bd;" horiz-adv-x="924" 
d="M958 926q0 -60 -43 -140.5t-252 -370.5q-200 -278 -280 -423h-86q-19 235 -39 433t-49 361q-11 56 -34 76.5t-62 20.5q-40 0 -103 -23l15 66q136 71 217 71q66 0 98.5 -34.5t50.5 -135.5q32 -184 51 -606l52 82q125 190 159 256t49 125t15 150q0 78 39 127t104 49
q45 0 71.5 -23t26.5 -61z" />
    <glyph glyph-name="xi" unicode="&#x3be;" horiz-adv-x="815" 
d="M389 6q-149 0 -244.5 83.5t-95.5 215.5q0 116 62.5 215t169.5 162.5t229 79.5v6q-119 25 -186.5 87t-67.5 153q0 117 92.5 205.5t261.5 132.5l2 16l-213 -6q-90 0 -128 20.5t-38 61.5q0 47 31.5 79.5t79.5 32.5q47 0 75.5 -18t52 -39t50 -39t68.5 -18q159 0 383 16
l-29 -109h-57q-198 0 -316 -90.5t-118 -240.5q0 -96 64.5 -150.5t191.5 -54.5h77l-26 -102h-125q-185 0 -283 -91t-98 -252q0 -97 57.5 -148.5t165.5 -51.5h45q106 0 160.5 -52t54.5 -149q0 -96 -54 -181.5t-148.5 -136.5t-200.5 -51q-72 0 -116 28.5t-44 72.5q0 45 28 67.5
t70 22.5q60 0 127 -65l35 -31q44 8 83.5 35.5t63 70t23.5 96.5q0 62 -38 89.5t-113 27.5h-64z" />
    <glyph glyph-name="omicron" unicode="&#x3bf;" horiz-adv-x="1018" 
d="M950 616q0 -174 -72 -327t-193.5 -236.5t-274.5 -83.5q-152 0 -247 107.5t-95 288.5q0 174 70 324t193.5 235.5t272.5 85.5q159 0 252.5 -106.5t93.5 -287.5zM748 653q0 141 -43 213t-125 72q-89 0 -158.5 -75t-110.5 -223.5t-41 -307.5q0 -291 170 -291q89 0 159 80.5
t109.5 224.5t39.5 307z" />
    <glyph glyph-name="pi" unicode="&#x3c0;" horiz-adv-x="1155" 
d="M1143 862h-205l-121 -526q-26 -97 -26 -141q0 -57 23 -78t73 -21q42 0 100 21l-16 -66q-71 -31 -124.5 -49t-103.5 -18q-71 0 -112 38t-41 105q0 41 18 115l144 620h-226q-40 -204 -93.5 -365.5t-117.5 -274t-137 -176.5t-135 -64q-50 0 -78 26t-28 80q0 46 31.5 80.5
t78.5 34.5q52 0 119 -39q93 114 166 324t84 374h-27q-77 0 -133 -46t-92 -154h-64l23 116q11 50 52 98.5t99 76.5t123 28h774z" />
    <glyph glyph-name="rho" unicode="&#x3c1;" horiz-adv-x="1061" 
d="M989 637q0 -175 -69.5 -328.5t-187.5 -244.5t-249 -91q-152 0 -233 74l-107 -491h-186l215 983q36 167 95.5 261.5t155.5 152t232 57.5q158 0 246 -99t88 -274zM782 639q0 299 -155 299q-37 0 -71 -15.5t-69 -54t-60.5 -98t-68 -233.5t-71.5 -328q16 -75 66.5 -120.5
t121.5 -45.5q84 0 154.5 80t111.5 219t41 297z" />
    <glyph glyph-name="sigma1" unicode="&#x3c2;" horiz-adv-x="821" 
d="M575 1010q121 0 198 -51t77 -134q0 -70 -35 -113.5t-92 -43.5q-43 0 -68.5 22.5t-25.5 63.5q0 31 14.5 68.5t30.5 74.5q-49 41 -109 41q-76 0 -145.5 -65.5t-113.5 -184.5t-44 -242q0 -85 20 -134.5t62.5 -78.5t138.5 -56l90 -27q136 -46 136 -189q0 -95 -54.5 -181
t-149.5 -137t-200 -51q-83 0 -121.5 27.5t-38.5 71.5q0 38 29.5 65t69.5 27q56 0 126 -64l36 -32q77 15 123 71.5t46 130.5q0 45 -18 65.5t-47 33.5q-23 10 -151 47l-68 22q-225 82 -225 355q0 158 70 294.5t190.5 220t248.5 83.5z" />
    <glyph glyph-name="sigma" unicode="&#x3c3;" horiz-adv-x="1083" 
d="M436 41q88 0 158 75.5t113 226.5t43 310q0 131 -19 209h-65q-123 0 -215.5 -69t-143.5 -193t-51 -270q0 -135 47.5 -212t132.5 -77zM1139 862h-277l-2 -4q80 -117 80 -287q0 -158 -72.5 -302t-190 -222t-255.5 -78q-161 0 -261 107.5t-100 288.5q0 183 77 324.5
t216 218.5t316 77h497z" />
    <glyph glyph-name="tau" unicode="&#x3c4;" horiz-adv-x="838" 
d="M899 862h-276l-123 -526q-21 -84 -21 -135q0 -56 21 -81.5t80 -25.5q23 0 62.5 8t59.5 17l-16 -74q-156 -65 -244 -65q-81 0 -124.5 38.5t-43.5 110.5q0 37 11 88l149 645h-67q-58 0 -100 -22.5t-71.5 -62.5t-56.5 -122h-61l8 58q14 120 95 194t194 74h553z" />
    <glyph glyph-name="upsilon" unicode="&#x3c5;" horiz-adv-x="999" 
d="M936 823q0 -228 -73.5 -429t-199.5 -313t-274 -112q-120 0 -194 74t-74 195q0 10 4.5 47.5t7.5 42.5q58 208 88 318t27 153q0 48 -16.5 67t-61.5 19q-36 0 -111 -25l15 66q155 71 231 71q141 0 141 -143q0 -51 -16 -111l-96 -372q-21 -96 -21 -119q0 -78 42.5 -122
t119.5 -44q83 0 160.5 73t123.5 194.5t46 258.5q0 85 -51 150q-29 36 -40.5 65t-11.5 66q0 52 32.5 84.5t78.5 32.5q58 0 90.5 -51t32.5 -136z" />
    <glyph glyph-name="phi" unicode="&#x3c6;" horiz-adv-x="1368" 
d="M1298 631q0 -182 -82 -329t-232 -236t-329 -95l-88 -415h-186l90 415q-192 16 -297.5 126t-105.5 290q0 228 127 383t374 227v-75q-145 -60 -223 -201t-78 -352q0 -147 57 -232t160 -94l156 711q27 121 113.5 188.5t214.5 67.5q90 0 166 -47t119.5 -134t43.5 -198z
M1098 670q0 131 -35.5 198.5t-99.5 67.5q-99 0 -125 -129l-166 -764q126 6 222.5 90.5t150 227t53.5 309.5z" />
    <glyph glyph-name="chi" unicode="&#x3c7;" horiz-adv-x="944" 
d="M494 236q49 -175 83.5 -283.5t65.5 -178t60.5 -95t76.5 -25.5q42 0 76 6l-14 -63q-105 -41 -183 -41q-38 0 -62.5 14.5t-41.5 43.5t-32 85t-97 438q-190 -259 -389 -581h-213l557 774q-65 248 -107.5 366t-74 159.5t-86.5 41.5q-33 0 -70 -8l16 63q121 47 185 47
q38 0 63 -19.5t41 -56.5t35 -143q39 -243 61 -354l256 387l109 172l199 8l10 -14z" />
    <glyph glyph-name="psi" unicode="&#x3c8;" horiz-adv-x="1393" 
d="M1331 834q0 -258 -81.5 -453.5t-226.5 -299t-339 -110.5l-96 -415h-187l97 415q-109 6 -190.5 45t-128 109t-46.5 172q0 50 12 92l72 258q25 91 25 144q0 57 -17 75.5t-59 18.5q-36 0 -111 -25l15 66q67 34 127.5 52.5t95.5 18.5q145 0 145 -143q0 -51 -16 -111l-80 -313
q-20 -69 -20 -121q0 -244 194 -260l215 932l174 12l10 -14l-215 -930q139 6 251.5 82.5t177.5 204.5t65 274q0 79 -48 147q-27 38 -37.5 67t-10.5 67q0 58 32 88.5t76 30.5q58 0 91.5 -47.5t33.5 -128.5z" />
    <glyph glyph-name="omega" unicode="&#x3c9;" horiz-adv-x="1382" 
d="M1311 590q0 -153 -64 -301t-167.5 -234t-221.5 -86q-81 0 -141.5 45.5t-89.5 122.5q-118 -168 -258 -168q-141 0 -220 99t-79 278q0 171 68 310t201 230t294 109v-75q-103 -15 -187.5 -103.5t-131 -225.5t-46.5 -288q0 -256 127 -256q62 0 100 53t66 185l80 366h186
l-79 -364q-11 -51 -11 -97q0 -143 117 -143q66 0 123.5 71t95 204.5t37.5 271.5q0 150 -46.5 227t-150.5 101l27 73q171 -22 271 -129.5t100 -275.5z" />
    <glyph glyph-name="iotadieresis" unicode="&#x3ca;" horiz-adv-x="535" 
d="M705 1364q0 -50 -33 -86.5t-82 -36.5t-82 35.5t-33 87.5t33 87.5t82 35.5t82 -37t33 -86zM354 1364q0 -52 -33 -87.5t-81 -35.5q-49 0 -82 35.5t-33 87.5t33 87.5t82 35.5q48 0 81 -35t33 -88zM463 993l10 -16l-156 -678q-18 -72 -18 -115q0 -88 78 -88q53 0 98 21
l-14 -66q-134 -67 -223 -67q-65 0 -99.5 40.5t-34.5 102.5q0 41 17 115l164 739z" />
    <glyph glyph-name="upsilondieresis" unicode="&#x3cb;" horiz-adv-x="999" 
d="M936 823q0 -228 -73.5 -429t-199.5 -313t-274 -112q-120 0 -194 74t-74 195q0 10 4.5 47.5t7.5 42.5q58 208 88 318t27 153q0 48 -16.5 67t-61.5 19q-36 0 -111 -25l15 66q155 71 231 71q141 0 141 -143q0 -51 -16 -111l-96 -372q-21 -96 -21 -119q0 -78 42.5 -122
t119.5 -44q83 0 160.5 73t123.5 194.5t46 258.5q0 85 -51 150q-29 36 -40.5 65t-11.5 66q0 52 32.5 84.5t78.5 32.5q58 0 90.5 -51t32.5 -136zM950 1364q0 -51 -34 -87t-83 -36q-51 0 -85 36t-34 87t34 87t85 36q49 0 83 -36.5t34 -86.5zM561 1364q0 -51 -34 -87t-83 -36
q-51 0 -85 36t-34 87t34 87t85 36q49 0 83 -36.5t34 -86.5z" />
    <glyph glyph-name="omicrontonos" unicode="&#x3cc;" horiz-adv-x="1018" 
d="M950 616q0 -174 -72 -327t-193.5 -236.5t-274.5 -83.5q-152 0 -247 107.5t-95 288.5q0 174 70 324t193.5 235.5t272.5 85.5q159 0 252.5 -106.5t93.5 -287.5zM748 653q0 141 -43 213t-125 72q-89 0 -158.5 -75t-110.5 -223.5t-41 -307.5q0 -291 170 -291q89 0 159 80.5
t109.5 224.5t39.5 307zM614 1139h-73l159 420h213v-25z" />
    <glyph glyph-name="upsilontonos" unicode="&#x3cd;" horiz-adv-x="999" 
d="M936 823q0 -228 -73.5 -429t-199.5 -313t-274 -112q-120 0 -194 74t-74 195q0 10 4.5 47.5t7.5 42.5q58 208 88 318t27 153q0 48 -16.5 67t-61.5 19q-36 0 -111 -25l15 66q155 71 231 71q141 0 141 -143q0 -51 -16 -111l-96 -372q-21 -96 -21 -119q0 -78 42.5 -122
t119.5 -44q83 0 160.5 73t123.5 194.5t46 258.5q0 85 -51 150q-29 36 -40.5 65t-11.5 66q0 52 32.5 84.5t78.5 32.5q58 0 90.5 -51t32.5 -136zM626 1139h-73l159 420h213v-25z" />
    <glyph glyph-name="omegatonos" unicode="&#x3ce;" horiz-adv-x="1382" 
d="M1311 590q0 -153 -64 -301t-167.5 -234t-221.5 -86q-81 0 -141.5 45.5t-89.5 122.5q-118 -168 -258 -168q-141 0 -220 99t-79 278q0 171 68 310t201 230t294 109v-75q-103 -15 -187.5 -103.5t-131 -225.5t-46.5 -288q0 -256 127 -256q62 0 100 53t66 185l80 366h186
l-79 -364q-11 -51 -11 -97q0 -143 117 -143q66 0 123.5 71t95 204.5t37.5 271.5q0 150 -46.5 227t-150.5 101l27 73q171 -22 271 -129.5t100 -275.5zM788 1139h-73l159 420h213v-25z" />
    <glyph glyph-name="uni0401" unicode="&#x401;" horiz-adv-x="1235" 
d="M1206 1077h-73q-10 118 -49.5 185t-100.5 75q-71 9 -170 9h-145l-131 -572h77q79 0 125 18t85 70t77 146h74l-127 -555h-74l2 59q0 92 -19.5 125.5t-58.5 46t-102 12.5h-78l-100 -432q-12 -62 -12 -96q0 -53 38.5 -71.5t173.5 -18.5q118 0 158.5 10t71.5 32.5t76 73
t92.5 115t73.5 109.5h71l-123 -418h-1075l14 66q119 9 158 34.5t53 87.5l238 1031l4 36q0 26 -13 43.5t-58.5 35t-84.5 20.5l17 65h995zM1153 1731q0 -52 -34 -87.5t-83 -35.5t-84 35.5t-35 87.5q0 51 35 86.5t84 35.5t83 -35.5t34 -86.5zM745 1731q0 -52 -35 -87.5
t-84 -35.5t-83.5 35.5t-34.5 87.5q0 51 34.5 86.5t83.5 35.5t84 -35.5t35 -86.5z" />
    <glyph glyph-name="uni0402" unicode="&#x402;" horiz-adv-x="1497" 
d="M864 1346l-133 -578q108 65 191 92t163 27q161 0 255 -101.5t94 -269.5q0 -138 -65.5 -266t-176 -202.5t-244.5 -74.5q-95 0 -153 38t-58 98q0 51 30 81.5t79 30.5q88 0 124 -118l17 -60q99 25 160 144.5t61 285.5q0 139 -63 214t-176 75q-119 0 -256 -72l-160 -690h-420
l17 66q120 9 155 22q64 24 82 105l266 1153h-28q-73 0 -154 -9q-53 -8 -140 -109t-130 -194h-72l84 385h1137l-86 -375h-70q-11 134 -42 208.5t-79 84.5q-54 9 -150 9h-59z" />
    <glyph glyph-name="uni0403" unicode="&#x403;" horiz-adv-x="1092" 
d="M1190 1026h-76q-6 128 -45.5 214t-103.5 95q-71 11 -177 11h-122l-260 -1141q-7 -24 -7 -41q0 -48 33 -67.5t139 -30.5l-14 -66h-592l17 66l30 3q86 6 113 21t41 39.5t22 58.5l234 1014q8 37 8 51q0 49 -44 69.5t-112 31.5l17 65h989zM1143 1796q0 -45 -27.5 -72.5
t-72.5 -50.5q-112 -48 -363 -166l-26 39q107 93 282 262q37 39 66.5 49.5t56.5 10.5q37 0 60.5 -20.5t23.5 -51.5z" />
    <glyph glyph-name="uni0404" unicode="&#x404;" horiz-adv-x="1264" 
d="M326 518q0 -207 93.5 -338t248.5 -131t270 96v66q0 103 39 160t115 57q46 0 70 -26t24 -72q0 -91 -77 -176.5t-208 -136t-285 -50.5q-235 0 -376.5 149t-141.5 398q0 242 103.5 459t283 348t381.5 131q104 0 192 -28.5t144 -71.5l53 67h80l-102 -481h-82q0 132 -36 233.5
t-100 150t-151 48.5q-180 0 -319 -175t-201 -480q111 76 167.5 100.5t102.5 24.5q43 0 74.5 -13t60.5 -28t61 -28t77 -13q59 0 141 61l33 -53q-176 -145 -303 -145q-39 0 -70.5 12.5t-62 27t-62 27t-69.5 12.5q-50 0 -87.5 -19t-72.5 -44q-8 -51 -8 -119z" />
    <glyph glyph-name="uni0405" unicode="&#x405;" horiz-adv-x="1083" 
d="M1016 948h-80q-6 171 -33.5 253t-83.5 124.5t-147 42.5q-101 0 -170.5 -79t-69.5 -195q0 -151 105 -213q41 -25 119 -57q119 -51 188.5 -101t104 -117t34.5 -147q0 -136 -68.5 -248.5t-189.5 -176t-264 -63.5q-196 0 -332 101l-57 -72h-80l96 485h82q21 -432 315 -432
q133 0 212 83t79 224q0 78 -31 140t-96 94l-66 30q-185 76 -241 124.5t-86.5 113.5t-30.5 148q0 118 60.5 219t169 161t231.5 60q87 0 158.5 -23t138.5 -75l53 67h80z" />
    <glyph glyph-name="uni0406" unicode="&#x406;" horiz-adv-x="758" 
d="M401 162q0 -45 41 -68q10 -6 58.5 -16.5t66.5 -11.5l-14 -66h-598l14 66l33 3q92 6 121.5 20t44.5 38t22 55l240 1039l4 34q0 48 -51 68.5t-115 30.5l15 65h598l-13 -65q-76 -6 -143 -25q-62 -20 -80 -98l-239 -1038q-5 -18 -5 -31z" />
    <glyph glyph-name="uni0407" unicode="&#x407;" horiz-adv-x="758" 
d="M401 162q0 -45 41 -68q10 -6 58.5 -16.5t66.5 -11.5l-14 -66h-598l14 66l33 3q92 6 121.5 20t44.5 38t22 55l240 1039l4 34q0 48 -51 68.5t-115 30.5l15 65h598l-13 -65q-76 -6 -143 -25q-62 -20 -80 -98l-239 -1038q-5 -18 -5 -31zM938 1731q0 -51 -34 -87t-83 -36
q-51 0 -85 36t-34 87t34 87t85 36q49 0 83 -36.5t34 -86.5zM549 1731q0 -51 -34 -87t-83 -36q-51 0 -85 36t-34 87t34 87t85 36q49 0 83 -36.5t34 -86.5z" />
    <glyph glyph-name="uni0408" unicode="&#x408;" horiz-adv-x="979" 
d="M231 -35q-128 0 -206 70.5t-78 193.5q0 103 49 175.5t129 72.5q54 0 82.5 -26t28.5 -70q0 -38 -18 -74.5t-43.5 -70t-53 -64t-45.5 -57.5q12 -29 50.5 -53.5t104.5 -24.5q71 0 120 40t84.5 118t78.5 268l170 756q4 12 4 32q0 30 -14 49t-45 30.5t-111 23.5l14 65h590
l-14 -65q-99 -8 -144.5 -29.5t-62.5 -95.5l-190 -846q-42 -186 -173.5 -302t-306.5 -116z" />
    <glyph glyph-name="uni0409" unicode="&#x409;" horiz-adv-x="1874" 
d="M1511 465q0 129 -65.5 200.5t-183.5 71.5q-80 0 -140 -6l-121 -528q-6 -20 -6 -37q0 -42 47.5 -68t122.5 -26q98 0 177.5 52t124 143.5t44.5 197.5zM567 1241q0 39 -22.5 63t-122.5 45l-27 5l15 65h1048l-16 -65q-62 -5 -133 -27q-55 -21 -74 -102l-92 -410l168 4
q212 0 329 -93.5t117 -258.5q0 -141 -68 -246.5t-203.5 -163t-314.5 -57.5h-604l17 66q105 9 145.5 34t54.5 88l267 1151h-326q-89 -415 -220 -724.5t-280 -472t-293 -162.5q-73 0 -119 37t-46 100q0 53 31.5 90t80.5 37q92 0 146 -87l22 -34q109 66 226 258t205.5 451
t88.5 409z" />
    <glyph glyph-name="uni040A" unicode="&#x40a;" horiz-adv-x="2021" 
d="M1950 475q0 -145 -77.5 -252t-218 -165t-315.5 -58h-579l14 66q21 2 65 9t62 13q56 23 74 100l121 525h-574l-119 -518q-4 -13 -4 -33t6 -35.5t20 -27.5t46.5 -20.5t67.5 -12.5l-15 -66h-549l15 66q106 10 125 18q53 23 71 100l240 1035l4 32q0 53 -50 75.5t-93 27.5
l14 65h549l-14 -65q-53 -5 -100 -18t-66 -38t-29 -67.5t-100 -433.5h575l98 422l5 32q0 50 -54.5 74.5t-89.5 28.5l15 65h561l-17 -65q-64 -6 -133 -27q-55 -21 -74 -102l-94 -410l146 4q226 0 348.5 -88t122.5 -256zM1704 473q0 130 -66 197t-196 67q-52 0 -127 -6
l-123 -528l-4 -37q0 -47 36.5 -70.5t121.5 -23.5q108 0 188.5 53.5t125 146t44.5 201.5z" />
    <glyph glyph-name="uni040B" unicode="&#x40b;" horiz-adv-x="1589" 
d="M1182 602q0 75 -51.5 117.5t-141.5 42.5q-138 0 -278 -82l-113 -485l-4 -33q0 -61 63 -76.5t105 -19.5l-14 -66h-615l17 66q117 9 153 22q66 23 84 105l266 1153h-51q-69 0 -129 -9q-56 -7 -141 -106.5t-131 -196.5h-72l84 385h1137l-86 -375h-70q-25 277 -125 293
q-81 9 -188 9h-17l-135 -586q93 59 192.5 93t176.5 34q140 0 219.5 -67.5t79.5 -186.5q0 -59 -15 -125l-71 -311l-4 -37q0 -30 18.5 -48.5t60 -31t64.5 -14.5l-14 -66h-549l14 66q101 9 140 32t55 92l65 279q6 29 13.5 64t7.5 69z" />
    </font>
</defs>
</svg>
