<?xml version="1.0" standalone="no"?>
<!DOCTYPE svg PUBLIC "-//W3C//DTD SVG 1.1//EN" "http://www.w3.org/Graphics/SVG/1.1/DTD/svg11.dtd" >
<svg xmlns="http://www.w3.org/2000/svg" xmlns:xlink="http://www.w3.org/1999/xlink" version="1.1">
<metadata>
Created by FontForge 20170731 at Sat Nov 12 06:11:22 2011
 By Aleksey,,,
(c) 2011 Microsoft Corporation. All Rights Reserved.
</metadata>
<defs>
<font id="GeorgiaPro-CondSemiBold" horiz-adv-x="1141" >
  <font-face 
    font-family="Georgia"
    font-weight="600"
    font-stretch="condensed"
    units-per-em="2048"
    panose-1="2 4 7 6 5 4 5 2 3 3"
    ascent="1638"
    descent="-410"
    x-height="987"
    cap-height="1419"
    bbox="-367 -621 2380 1899"
    underline-thickness="100"
    underline-position="-331"
    unicode-range="U+0020-FB04"
  />
<missing-glyph horiz-adv-x="2048" 
d="M256 0v1536h1536v-1536h-1536zM385 129h1280v1280h-1280v-1280z" />
    <glyph glyph-name="f_f" unicode="ff" horiz-adv-x="1192" 
d="M1358 1403q0 -59 -31.5 -95t-85.5 -36q-37 0 -63 16t-49 48t-64 126q-70 -28 -70 -372v-107h197v-100h-195v-699q0 -51 31 -77.5t115 -36.5v-70h-506v70l20 2q47 3 67.5 26t20.5 78v707h-305v-699q0 -52 23.5 -79.5t62.5 -30.5l33 -4v-70h-496v70q56 5 80 12q45 20 45 94
v707h-176v100h176v14q0 150 51.5 269.5t145.5 186.5t209 67q80 0 132 -41t52 -105q0 -56 -29.5 -86.5t-78.5 -30.5q-60 0 -96.5 46t-65.5 131q-70 -22 -70 -373v-78h307v29q0 243 114.5 389.5t303.5 146.5q92 0 143.5 -39.5t51.5 -105.5z" />
    <glyph glyph-name="fi" unicode="fi" horiz-adv-x="1167" 
d="M637 0v70q46 2 66 12t31 32t11 62v612q0 67 -28 95h-277v-699q0 -53 27.5 -82t91.5 -32v-70h-496v70q76 2 100.5 26t24.5 80v707h-176v100h176v45q0 145 62 264.5t173.5 187.5t250.5 68q128 0 207.5 -49t79.5 -129q0 -47 -37.5 -82t-92.5 -35q-77 0 -118 46.5t-58 164.5
q-110 0 -163.5 -103.5t-53.5 -297.5v-80h312l233 16l14 -14v-799q0 -50 27 -77.5t100 -38.5v-70h-487z" />
    <glyph glyph-name="fl" unicode="fl" horiz-adv-x="1167" 
d="M637 0v70q63 0 85.5 24.5t22.5 79.5v1118q-30 13 -48.5 47.5t-34.5 122.5h-11q-103 0 -158 -100.5t-55 -282.5v-96h176v-100h-174v-699q0 -56 29 -84t90 -30v-70h-496v70q75 3 100 27t25 79v707h-176v100h176v31q0 155 60.5 277.5t171.5 189.5t252 67q98 0 211 -41
l100 41l14 -16v-1350q0 -50 28.5 -77t98.5 -35v-70h-487z" />
    <glyph glyph-name="f_f_i" unicode="ffi" horiz-adv-x="1724" 
d="M1194 0v70q66 3 87.5 28t21.5 78v612q0 66 -29 95h-277v-699q0 -53 27.5 -82t91.5 -32v-70h-495v70q76 2 100 25.5t24 80.5v707h-305v-699q0 -52 23.5 -79.5t62.5 -30.5l33 -4v-70h-496v70q56 5 80 12q45 20 45 94v707h-176v100h176v14q0 150 51.5 269.5t145.5 186.5
t209 67q80 0 132 -41t52 -105q0 -56 -29.5 -86.5t-78.5 -30.5q-60 0 -96.5 46t-65.5 131q-70 -22 -70 -373v-78h307v45q0 145 62 264.5t173.5 187.5t250.5 68q128 0 207.5 -49t79.5 -129q0 -47 -37.5 -82t-91.5 -35q-78 0 -119 46.5t-58 164.5q-110 0 -163.5 -103.5
t-53.5 -297.5v-80h312l233 16l14 -14v-799q0 -50 27 -77.5t100 -38.5v-70h-487z" />
    <glyph glyph-name="f_f_l" unicode="ffl" horiz-adv-x="1724" 
d="M1194 0v70q63 0 86 24.5t23 79.5v1118q-30 14 -48.5 47.5t-35.5 122.5h-11q-103 0 -158 -100.5t-55 -282.5v-96h176v-100h-174v-699q0 -56 29 -84t90 -30v-70h-495v70q74 3 99 26.5t25 79.5v707h-305v-699q0 -52 23.5 -79.5t62.5 -30.5l33 -4v-70h-496v70q56 5 80 12
q45 20 45 94v707h-176v100h176v14q0 150 51.5 269.5t145.5 186.5t209 67q80 0 132 -41t52 -105q0 -56 -29.5 -86.5t-78.5 -30.5q-60 0 -96.5 46t-65.5 131q-70 -22 -70 -373v-78h307v31q0 155 60.5 277.5t171.5 189.5t252 67q98 0 211 -41l100 41l14 -16v-1350
q0 -50 28.5 -77t98.5 -35v-70h-487z" />
    <glyph glyph-name="f_j" unicode="fj" horiz-adv-x="1157" 
d="M997 90q0 -236 -119 -385t-311 -149q-92 0 -147 38.5t-55 108.5q0 58 30.5 94.5t85.5 36.5q86 0 145 -118l36 -74q44 10 63.5 108.5t19.5 298.5v739q0 67 -28 95h-277v-699q0 -53 27.5 -82t91.5 -32v-70h-496v70q76 2 100.5 26t24.5 80v707h-176v100h176v45
q0 145 62 264.5t173.5 187.5t250.5 68q128 0 207.5 -49t79.5 -129q0 -47 -37.5 -82t-92.5 -35q-77 0 -118 46.5t-58 164.5q-110 0 -163.5 -103.5t-53.5 -297.5v-80h312l233 16l14 -14v-895z" />
    <glyph glyph-name=".notdef" horiz-adv-x="2048" 
d="M256 0v1536h1536v-1536h-1536zM385 129h1280v1280h-1280v-1280z" />
    <glyph glyph-name=".null" horiz-adv-x="0" 
 />
    <glyph glyph-name="nonmarkingreturn" horiz-adv-x="508" 
 />
    <glyph glyph-name="space" unicode=" " horiz-adv-x="469" 
 />
    <glyph glyph-name="space" unicode="&#xa0;" horiz-adv-x="469" 
 />
    <glyph glyph-name="exclam" unicode="!" horiz-adv-x="713" 
d="M516 1290q0 -53 -39 -297q-55 -337 -82 -547h-76q-23 194 -78 545q-40 254 -40 299q0 68 45 115t112 47q68 0 113 -46.5t45 -115.5zM520 135q0 -64 -47 -112t-115 -48q-69 0 -115 48.5t-46 111.5q0 65 46 113.5t115 48.5q68 0 115 -48t47 -114z" />
    <glyph glyph-name="quotedbl" unicode="&#x22;" horiz-adv-x="899" 
d="M782 1393q0 -36 -37 -185q-46 -187 -69 -315h-64q-20 120 -66 315q-36 147 -36 185q0 61 37 99t98 38q62 0 99.5 -39t37.5 -98zM389 1393q0 -38 -35 -185q-49 -202 -69 -315h-64q-20 120 -66 315q-36 147 -36 185q0 61 37 99t98 38q60 0 97.5 -38t37.5 -99z" />
    <glyph glyph-name="numbersign" unicode="#" horiz-adv-x="1327" 
d="M924 748l-74 -256h266v-142h-305l-102 -350h-129l102 350h-190l-103 -350h-129l102 350h-210v142h254l71 256h-266v141h307l103 350h127l-103 -350h193l102 350h129l-104 -350h211v-141h-252zM604 750l-74 -261h193l76 261h-195z" />
    <glyph glyph-name="dollar" unicode="$" horiz-adv-x="1169" 
d="M1044 387q0 -170 -112 -280.5t-291 -122.5v-283h-90v281q-191 4 -305.5 89t-114.5 224q0 66 34 104.5t97 38.5q57 0 94 -30.5t37 -81.5q0 -35 -13 -87.5t-26 -86.5q22 -35 71 -62t126 -27v478q-211 52 -298 141.5t-87 243.5q0 99 48 184t136 135t201 55v224h90v-224
q110 -4 195 -41.5t130.5 -100t45.5 -136.5q0 -56 -32 -92.5t-89 -36.5q-63 0 -97 30t-34 78q0 58 26 148q-34 34 -54 45t-42.5 17t-48.5 6v-439l88 -29l49 -16q135 -45 200.5 -129.5t65.5 -216.5zM551 1217q-83 -6 -132.5 -59t-49.5 -136q0 -86 37.5 -135t144.5 -88v418z
M836 289q0 179 -150 219l-45 12v-457q93 9 144 66.5t51 159.5z" />
    <glyph glyph-name="percent" unicode="%" horiz-adv-x="1583" 
d="M754 1085q0 -110 -41 -195t-116.5 -131t-170.5 -46q-149 0 -238.5 103t-89.5 269q0 164 91 267.5t235 103.5q148 0 239 -103t91 -268zM309 0h-143l1104 1425h147zM541 1083q0 301 -117 301q-113 0 -113 -297q0 -303 117 -303q55 0 84 75.5t29 223.5zM1485 340
q0 -168 -90.5 -270.5t-237.5 -102.5t-237.5 103.5t-90.5 269.5q0 164 91 267.5t235 103.5q148 0 239 -103t91 -268zM1272 338q0 301 -117 301q-113 0 -113 -297q0 -303 117 -303q55 0 84 75.5t29 223.5z" />
    <glyph glyph-name="ampersand" unicode="&#x26;" horiz-adv-x="1409" 
d="M1397 825q-53 -6 -86.5 -16t-60.5 -26t-49.5 -43.5t-85.5 -159.5q-75 -156 -132 -236q57 -73 106.5 -125t86 -78.5t101.5 -44.5t130 -20v-76h-475l-117 158q-84 -98 -172.5 -144.5t-193.5 -46.5q-167 0 -272 102t-105 269q0 138 75 240t244 196q-74 106 -111.5 191
t-37.5 176q0 141 100 227t248 86q141 0 225 -76t84 -202q0 -104 -60 -189.5t-190 -167.5q169 -255 281 -407q50 83 83.5 177t33.5 150q0 32 -38 51.5t-106 34.5v74h494v-74zM772 1161q0 94 -39.5 147.5t-111.5 53.5q-61 0 -100.5 -48.5t-39.5 -119.5q0 -64 30.5 -138
t96.5 -173q84 55 124 127.5t40 150.5zM764 223l-170 250l-162 240q-110 -104 -110 -281q0 -135 67.5 -221t177.5 -86q57 0 108.5 28t88.5 70z" />
    <glyph glyph-name="quotesingle" unicode="'" horiz-adv-x="487" 
d="M379 1393q0 -34 -36 -185q-49 -202 -69 -315h-63q-20 120 -66 315q-36 147 -36 185q0 61 37 99t98 38q60 0 97.5 -38t37.5 -99z" />
    <glyph glyph-name="parenleft" unicode="(" horiz-adv-x="784" 
d="M733 -328q-191 24 -331 141t-214.5 317.5t-74.5 467.5q0 269 74 471t214 320t332 143v-86q-183 -36 -270.5 -239t-87.5 -609q0 -407 88.5 -607.5t269.5 -232.5v-86z" />
    <glyph glyph-name="parenright" unicode=")" horiz-adv-x="784" 
d="M672 598q0 -264 -75.5 -465t-215.5 -319t-330 -142v86q182 32 270.5 232t88.5 608q0 409 -88 611t-271 237v86q193 -26 333 -144t214 -320.5t74 -469.5z" />
    <glyph glyph-name="asterisk" unicode="*" horiz-adv-x="977" 
d="M895 1092q0 -42 -24.5 -61t-59.5 -19q-14 0 -40 7q-159 38 -241 48q45 -59 82 -98t64 -68t42 -51.5t15 -46.5q0 -29 -26 -51.5t-58 -22.5q-58 0 -82 82q-36 120 -50.5 160.5t-29.5 72.5q-31 -73 -58 -170q-25 -90 -32 -102q-30 -43 -69 -43q-29 0 -55.5 22t-26.5 52
q0 24 15 46.5t41.5 51.5t63 68t80.5 98q-80 -9 -239 -48q-27 -7 -41 -7q-35 0 -58.5 19t-23.5 61q0 37 23.5 57t58.5 20q14 0 41 -6q173 -39 239 -47q-44 58 -80.5 97.5t-63 68.5t-41.5 51.5t-15 46.5q0 29 26 51.5t56 22.5q39 0 69 -43q7 -12 15 -38q45 -162 75 -232
q34 75 62 170l18 62q25 81 82 81q31 0 57.5 -22.5t26.5 -51.5q0 -25 -15 -47.5t-41.5 -51t-63.5 -68t-81 -97.5q61 7 177 33q90 20 102 20q35 0 59.5 -20t24.5 -57z" />
    <glyph glyph-name="plus" unicode="+" horiz-adv-x="1380" 
d="M762 496v-463h-146v463h-462v143h462v461h146v-461h463v-143h-463z" />
    <glyph glyph-name="comma" unicode="," horiz-adv-x="602" 
d="M475 43q0 -113 -89 -230t-222 -186l-45 70q112 62 168.5 135.5t68.5 167.5h-55q-81 0 -125.5 40t-44.5 112q0 58 42.5 101.5t105.5 43.5q95 0 145.5 -64.5t50.5 -189.5z" />
    <glyph glyph-name="hyphen" unicode="-" horiz-adv-x="702" 
d="M84 449v190h534v-190h-534z" />
    <glyph glyph-name="hyphen" unicode="&#xad;" horiz-adv-x="702" 
d="M84 449v190h534v-190h-534z" />
    <glyph glyph-name="period" unicode="." horiz-adv-x="602" 
d="M467 141q0 -69 -48 -117.5t-116 -48.5q-69 0 -117.5 48t-48.5 118q0 69 49 118.5t117 49.5q67 0 115.5 -50t48.5 -118z" />
    <glyph glyph-name="slash" unicode="/" horiz-adv-x="891" 
d="M188 -424h-151l622 1948h154z" />
    <glyph glyph-name="zero" unicode="0" 
d="M1071 711q0 -355 -132.5 -550.5t-368.5 -195.5q-238 0 -367 192t-129 554q0 345 132 542t368 197q237 0 367 -195.5t130 -543.5zM776 711q0 659 -202 659q-207 0 -207 -659q0 -666 205 -666q204 0 204 666z" />
    <glyph glyph-name="one" unicode="1" 
d="M203 0v74q140 9 193 38t53 93v1012h-242v90h45q108 0 201 38t143 105h129l-7 -195l-3 -114v-932q0 -68 49 -97t189 -38v-74h-750z" />
    <glyph glyph-name="two" unicode="2" 
d="M1032 0h-932v156q32 62 92 133t240 241q130 126 173.5 193.5t65 147t21.5 182.5q0 145 -49.5 227t-137.5 82q-42 0 -79.5 -18t-59.5 -44q9 -34 21 -77.5t12 -89.5q0 -59 -40 -100.5t-101 -41.5q-60 0 -99 41t-39 107q0 80 55 153t151.5 115.5t211.5 42.5q211 0 329 -107
t118 -305q0 -147 -69.5 -253t-252.5 -226q-146 -97 -242 -174t-157 -156v-4h768v-225z" />
    <glyph glyph-name="three" unicode="3" 
d="M1022 401q0 -126 -65 -224.5t-182 -153t-263 -54.5q-124 0 -221.5 38t-150 105t-52.5 150q0 66 38.5 107t96.5 41q65 0 102 -37t37 -97q0 -66 -30 -161q53 -60 164 -60q103 0 167 94t64 261q0 147 -49.5 211.5t-147.5 64.5h-96v119h62q95 0 136.5 74t41.5 235
q0 123 -40 185.5t-114 62.5q-39 0 -74.5 -17t-60.5 -45q29 -113 29 -172q0 -58 -35.5 -94.5t-102.5 -36.5q-58 0 -96.5 41.5t-38.5 106.5q0 75 56 146.5t153 115t211 43.5q122 0 214 -42.5t141 -118t49 -169.5q0 -133 -83.5 -221t-236.5 -127v-16q178 -15 277.5 -108
t99.5 -247z" />
    <glyph glyph-name="four" unicode="4" 
d="M868 397v-397h-260v397h-547v170l607 883h200v-881h205v-172h-205zM608 1192l-430 -623h430v623z" />
    <glyph glyph-name="five" unicode="5" 
d="M995 465q0 -144 -64.5 -258.5t-178.5 -176t-256 -61.5q-171 0 -286.5 82t-115.5 205q0 64 36.5 105.5t96.5 41.5q63 0 102.5 -37t39.5 -92q0 -57 -24 -134l-11 -38q56 -47 143 -47q103 0 166.5 108.5t63.5 301.5q0 146 -62 234.5t-164 88.5q-64 0 -118 -31.5t-105 -101.5
l-70 25l88 737h676v-227h-600l-45 -383q132 96 273 96q118 0 216 -54.5t148.5 -151.5t50.5 -232z" />
    <glyph glyph-name="six" unicode="6" 
d="M1049 463q0 -139 -62 -254t-170 -179.5t-240 -64.5q-223 0 -350 159t-127 435q0 239 91 432t260 313t395 152l20 -94l-82 -19q-167 -61 -264 -200t-127 -367q71 72 144 102.5t159 30.5q100 0 181.5 -57t126.5 -159t45 -230zM760 432q0 170 -47.5 262t-135.5 92
q-111 0 -190 -114l-2 -49v-70q0 -251 52.5 -377.5t139.5 -126.5q82 0 132.5 96t50.5 287z" />
    <glyph glyph-name="seven" unicode="7" 
d="M430 -25h-133l602 1223h-397q-64 0 -119 -3t-86.5 -15t-57 -64.5t-40.5 -142.5h-68v444h951v-94z" />
    <glyph glyph-name="eight" unicode="8" 
d="M1062 387q0 -120 -63.5 -218t-179 -152t-264.5 -54q-218 0 -347 107t-129 282q0 128 81 209.5t243 130.5q-128 64 -198 164t-70 213q0 108 60 198.5t164.5 140.5t231.5 50q189 0 304.5 -98.5t115.5 -253.5q0 -216 -278 -320q171 -73 250 -167.5t79 -231.5zM753 1112
q0 119 -48 190.5t-130 71.5q-76 0 -127 -64.5t-51 -170.5q0 -69 21.5 -116t70.5 -88t176 -106q88 86 88 283zM800 313q0 68 -27 118t-82.5 93t-226.5 129q-125 -91 -125 -282q0 -148 64.5 -236t171.5 -88q103 0 164 73t61 193z" />
    <glyph glyph-name="nine" unicode="9" 
d="M1036 856q0 -237 -90 -425.5t-260.5 -307t-396.5 -152.5l-19 94l80 17q169 61 266 197t127 364q-72 -72 -143.5 -102.5t-157.5 -30.5q-152 0 -253 123.5t-101 318.5q0 138 61 254t169.5 181t240.5 65q143 0 251 -72t167 -209t59 -315zM754 870q0 236 -52 367t-141 131
q-85 0 -134.5 -101.5t-49.5 -279.5q0 -169 51 -261.5t139 -92.5q56 0 100 27.5t84 82.5z" />
    <glyph glyph-name="colon" unicode=":" horiz-adv-x="686" 
d="M506 834q0 -71 -48.5 -118.5t-115.5 -47.5t-115.5 49t-48.5 117t49 117.5t115 49.5q67 0 115.5 -49t48.5 -118zM506 141q0 -71 -48.5 -118.5t-115.5 -47.5t-115.5 49t-48.5 117q0 69 49 118.5t115 49.5q67 0 115.5 -49t48.5 -119z" />
    <glyph glyph-name="semicolon" unicode=";" horiz-adv-x="686" 
d="M518 43q0 -111 -88 -227.5t-223 -188.5l-45 70q215 119 235 303h-53q-81 0 -126.5 39t-45.5 113q0 59 44 102t106 43q95 0 145.5 -66t50.5 -188zM506 834q0 -71 -48.5 -118.5t-115.5 -47.5t-115.5 49t-48.5 117t49 117.5t115 49.5q67 0 115.5 -49t48.5 -118z" />
    <glyph glyph-name="semicolon" unicode="&#x37e;" horiz-adv-x="686" 
d="M518 43q0 -111 -88 -227.5t-223 -188.5l-45 70q215 119 235 303h-53q-81 0 -126.5 39t-45.5 113q0 59 44 102t106 43q95 0 145.5 -66t50.5 -188zM506 834q0 -71 -48.5 -118.5t-115.5 -47.5t-115.5 49t-48.5 117t49 117.5t115 49.5q67 0 115.5 -49t48.5 -118z" />
    <glyph glyph-name="less" unicode="&#x3c;" horiz-adv-x="1380" 
d="M201 504v127l962 489v-162l-778 -391l778 -391v-162z" />
    <glyph glyph-name="equal" unicode="=" horiz-adv-x="1380" 
d="M168 690v146h1040v-146h-1040zM168 299v143h1040v-143h-1040z" />
    <glyph glyph-name="greater" unicode="&#x3e;" horiz-adv-x="1380" 
d="M215 14v162l778 391l-778 391v162l963 -489v-127z" />
    <glyph glyph-name="question" unicode="?" horiz-adv-x="954" 
d="M852 1038q0 -193 -115.5 -314t-312.5 -142l-2 -176h-88v382q136 14 208 94t72 214q0 132 -45.5 203t-126.5 71q-58 0 -108 -35q9 -34 20 -71.5t11 -77.5q0 -62 -38.5 -96.5t-103.5 -34.5q-61 0 -96 39.5t-35 103.5q0 66 46 125.5t127.5 94t176.5 34.5q183 0 296.5 -113.5
t113.5 -300.5zM543 135q0 -64 -47 -112t-115 -48t-115 48t-47 112q0 66 47.5 114t114.5 48q68 0 115 -48t47 -114z" />
    <glyph glyph-name="at" unicode="@" horiz-adv-x="1829" 
d="M1110 750q-17 141 -102 141q-61 0 -118.5 -75t-93.5 -195.5t-36 -235.5q0 -156 69 -156q42 0 79.5 32.5t76.5 111.5zM158 477q0 239 115 449.5t313.5 328t439.5 117.5q195 0 341 -81t226 -233t80 -341q0 -164 -60 -301t-167.5 -214t-239.5 -77q-93 0 -149.5 40.5
t-69.5 108.5h-6q-48 -68 -103.5 -106.5t-111.5 -38.5q-104 0 -162.5 74.5t-58.5 204.5q0 123 68.5 261t172 217t218.5 79q61 0 94 -32.5t43 -80.5h6l35 100h198l-188 -549q-21 -56 -21 -110q0 -92 78 -92q88 0 164 68.5t119 188.5t43 265q0 165 -67.5 292.5t-193.5 197
t-294 69.5q-185 0 -347.5 -106t-251.5 -286.5t-89 -397.5q0 -225 77.5 -389t219.5 -250t334 -86q156 0 274 44t215 126l35 -58q-112 -96 -250 -146t-285 -50q-221 0 -408 103t-286.5 282t-99.5 409z" />
    <glyph glyph-name="A" unicode="A" horiz-adv-x="1317" 
d="M733 0v74q76 5 125 19.5t49 37.5q0 13 -6 38.5t-102 313.5h-428q-38 -96 -66.5 -193t-28.5 -128q0 -35 45.5 -58t133.5 -30v-74h-502v74q154 11 221 176q74 183 159.5 419.5t264.5 770.5h135l441 -1227q13 -36 31.5 -62t56.5 -48t96 -29v-74h-625zM584 1114l-181 -539
h365z" />
    <glyph glyph-name="B" unicode="B" horiz-adv-x="1303" 
d="M1221 385q0 -183 -128.5 -284t-357.5 -101h-655v74q96 4 137 32.5t41 92.5v1007q0 53 -40 88t-134 49v76h631q209 0 318.5 -81t109.5 -232q0 -252 -348 -338v-12q198 -25 312 -122.5t114 -248.5zM836 1083q0 120 -50 185t-147 65l-102 -4v-534h36q138 0 200.5 66.5
t62.5 221.5zM905 410q0 150 -75 222.5t-240 72.5q-30 0 -53 -5v-485q0 -129 143 -129q106 0 165.5 83t59.5 241z" />
    <glyph glyph-name="C" unicode="C" horiz-adv-x="1276" 
d="M1249 356q-167 -393 -547 -393q-176 0 -321 92.5t-226 260.5t-81 380q0 217 83.5 391t234.5 269.5t335 95.5q189 0 330 -94l47 61h78l10 -512h-82q-55 235 -143.5 345t-214.5 110q-173 0 -269 -167.5t-96 -475.5q0 -288 108 -457.5t296 -169.5q116 0 205.5 70.5
t174.5 238.5z" />
    <glyph glyph-name="D" unicode="D" horiz-adv-x="1483" 
d="M1409 700q0 -206 -89 -364t-261.5 -247t-388.5 -89h-590v74q101 7 128.5 21.5t38.5 40t11 57.5v1015q0 41 -16 68.5t-62.5 45t-95.5 21.5v76h621q202 0 370.5 -94t251 -254.5t82.5 -370.5zM1094 700q0 287 -115 460t-309 173l-131 -4v-1083q0 -84 40 -122t128 -38
q190 0 288.5 155t98.5 459z" />
    <glyph glyph-name="E" unicode="E" horiz-adv-x="1272" 
d="M1198 0h-1122v74q48 4 94 13.5t67 34.5t21 75v1011q0 44 -17 69.5t-72.5 44t-92.5 21.5v76h1046v-352h-73q-28 88 -96 168t-128 90q-58 10 -170 10h-116v-557h57q81 0 128.5 23.5t75.5 87.5t38 127h73v-574h-73q-7 50 -27.5 108t-38.5 79q-30 30 -51 40t-51 16.5t-74 6.5
h-57v-418q0 -82 10 -119t34.5 -53t94.5 -16q146 0 213.5 12.5t91.5 36.5q38 41 91.5 135.5t78.5 159.5h72z" />
    <glyph glyph-name="F" unicode="F" horiz-adv-x="1167" 
d="M1065 1053q-11 37 -37 86t-58.5 90t-67 67t-82.5 31.5t-148 5.5h-135v-563h57q62 0 105 13.5t77 50.5q19 17 39 68.5t27 107.5h76v-578h-76q-4 48 -24.5 106t-41.5 80q-16 30 -67.5 47t-114.5 17h-57v-477q0 -63 42.5 -92t139.5 -39v-74h-643v74q117 14 149.5 38t32.5 83
v1011q0 114 -182 137v76h1063v-366h-74z" />
    <glyph glyph-name="G" unicode="G" horiz-adv-x="1419" 
d="M1409 571q-75 -11 -110 -43t-35 -88v-201q0 -92 4 -130q-115 -66 -258 -105t-281 -39q-186 0 -336.5 91t-234.5 258t-84 382q0 219 85 391t241 268.5t352 96.5q190 0 342 -94l53 61h80l8 -508h-82q-64 243 -155.5 347t-227.5 104q-176 0 -277.5 -171.5t-101.5 -471.5
q0 -305 101.5 -483.5t277.5 -178.5q67 0 125 21.5t96 60.5q6 50 6 100v187q0 60 -43 96.5t-143 48.5v76h598v-76z" />
    <glyph glyph-name="H" unicode="H" horiz-adv-x="1608" 
d="M905 0v74q82 7 113 20.5t42 38.5t11 60v497h-532v-485q0 -66 41 -94t122 -37v-74h-620v74q99 8 126.5 22.5t38.5 39.5t11 59v1013q0 41 -16.5 67t-72 46t-87.5 22v76h620v-76q-39 -3 -88.5 -18.5t-62 -41.5t-12.5 -64v-433h532v422q0 40 -17.5 66t-67 46.5t-81.5 22.5v76
h619v-76q-46 -4 -95.5 -18t-64 -39.5t-14.5 -66.5v-1014q0 -68 59 -103q11 -6 52 -16.5t63 -11.5v-74h-619z" />
    <glyph glyph-name="I" unicode="I" horiz-adv-x="801" 
d="M68 0v74q74 6 103.5 11.5t50 19t29.5 37t9 51.5v1017q0 40 -16.5 64.5t-74 44.5t-101.5 24v76h661v-76q-52 -4 -106.5 -18t-69 -39t-14.5 -65v-1018q0 -47 23.5 -74t78.5 -40t88 -15v-74h-661z" />
    <glyph glyph-name="J" unicode="J" horiz-adv-x="1044" 
d="M991 1343q-84 -11 -113 -24.5t-44 -38t-15 -63.5v-725q0 -84 -4 -125q-15 -181 -134.5 -291.5t-303.5 -110.5q-156 0 -260.5 94t-104.5 246q0 82 47.5 136.5t118.5 54.5q64 0 105 -38.5t41 -97.5q0 -109 -111 -239q15 -31 52.5 -51.5t82.5 -20.5q101 0 146 90.5t45 327.5
v739q0 57 -43 91t-150 46v76h645v-76z" />
    <glyph glyph-name="K" unicode="K" horiz-adv-x="1409" 
d="M995 0q-208 355 -426 674h-30v-469q0 -74 55 -103q8 -6 48 -16t67 -12v-74h-625v74q68 6 104 14t53 34t17 71v1015q0 73 -55 100.5t-119 34.5v76h637v-76q-64 -5 -111.5 -19t-59 -40t-11.5 -65v-484h18q180 177 298 335.5t118 223.5q0 43 -144 49v76h535v-76
q-89 -9 -143.5 -33.5t-87.5 -62.5q-128 -144 -353 -409q107 -170 220.5 -338.5t166.5 -241t100 -111t82.5 -53t102.5 -20.5v-74h-457z" />
    <glyph glyph-name="L" unicode="L" horiz-adv-x="1186" 
d="M1157 0h-1075v74q12 1 64.5 8.5t56.5 11.5q55 24 55 103v1009q0 79 -60.5 105.5t-115.5 31.5v76h643v-76q-59 -5 -107.5 -18.5t-63.5 -38.5t-15 -69v-943q0 -98 11.5 -131t40.5 -46t128 -13q65 0 114 6.5t78 23.5t67 71.5t78 129t58 123.5h72z" />
    <glyph glyph-name="M" unicode="M" horiz-adv-x="1831" 
d="M1102 0v74q118 13 157 42t39 89v1038l-22 -37q-309 -869 -418 -1183h-86l-395 1204l-21 37v-848q0 -75 6 -128t18.5 -88t33.5 -57.5t76.5 -44t89.5 -24.5v-74h-541v74q58 5 106.5 25.5t68.5 51.5t29 91.5t9 163.5v712q0 99 -48.5 157.5t-154.5 67.5v76h537l317 -968
l281 788q40 127 47 180h520v-76q-87 -11 -116.5 -25t-45.5 -37.5t-16 -63.5v-1012q0 -121 180 -131v-74h-651z" />
    <glyph glyph-name="N" unicode="N" horiz-adv-x="1485" 
d="M1466 1343q-51 -5 -97.5 -20.5t-64.5 -34.5t-29 -51.5t-16.5 -87t-5.5 -135.5v-1026h-123l-772 1130v-698q0 -78 6 -134t17.5 -89.5t32.5 -56t74 -41.5t96 -25v-74h-545v74q27 2 81.5 18.5t76 36t33 51t17 87.5t5.5 141v686q0 64 -24.5 118.5t-82.5 88t-120 42.5v76h430
l694 -1016v601q0 123 -16 188t-48 94q-22 16 -72 34t-91 23v76h544v-76z" />
    <glyph glyph-name="O" unicode="O" horiz-adv-x="1483" 
d="M1409 713q0 -215 -85.5 -388t-239 -267.5t-345.5 -94.5q-186 0 -340 95t-239.5 264t-85.5 378q0 218 86 390.5t240 268t341 95.5q188 0 341 -93.5t240 -264t87 -383.5zM1094 711q0 303 -92 477t-261 174q-168 0 -260 -171.5t-92 -483.5q0 -307 92.5 -478.5t259.5 -171.5
q171 0 262 173.5t91 480.5z" />
    <glyph glyph-name="P" unicode="P" horiz-adv-x="1208" 
d="M1157 1067q0 -216 -137.5 -333.5t-382.5 -117.5h-100v-413q0 -69 44.5 -97t141.5 -32v-74h-641v74q107 7 141.5 35t34.5 88v1013q0 41 -19 67t-51.5 41t-109.5 25v76h620q218 0 338.5 -93t120.5 -259zM844 1016q0 173 -61.5 244t-204.5 71h-41v-624h30q98 0 158.5 34
t89.5 96.5t29 178.5z" />
    <glyph glyph-name="Q" unicode="Q" horiz-adv-x="1483" 
d="M1409 713q0 -254 -117.5 -443t-316.5 -266q2 -114 67 -198.5t154 -84.5q83 0 172 19v-82q-61 -26 -153 -42.5t-173 -16.5q-155 0 -251 99t-111 271q-172 12 -311.5 108.5t-217 260t-77.5 362.5q0 218 86 390.5t240 268t341 95.5q188 0 341 -93.5t240 -264t87 -383.5z
M1094 711q0 303 -92 477t-261 174q-168 0 -260 -171.5t-92 -483.5q0 -307 92.5 -478.5t259.5 -171.5q171 0 262 173.5t91 480.5z" />
    <glyph glyph-name="R" unicode="R" horiz-adv-x="1380" 
d="M995 0q-242 429 -385 641h-73v-440q0 -60 40.5 -89t124.5 -38v-74h-620v74q103 7 139.5 35t36.5 88v1013q0 41 -18.5 67t-52 41.5t-105.5 24.5v76h641q217 0 331.5 -87t114.5 -255q0 -147 -67.5 -236t-227.5 -143q51 -73 151 -227q129 -200 182 -265.5t106 -96.5t123 -35
v-74h-441zM858 1053q0 142 -61 210t-209 68h-51v-602h86q109 0 172 82.5t63 241.5z" />
    <glyph glyph-name="S" unicode="S" horiz-adv-x="1128" 
d="M1051 408q0 -126 -60.5 -227.5t-170 -157.5t-245.5 -56q-91 0 -182 26.5t-166 76.5l-55 -70h-80l-14 500h82q64 -221 164.5 -331t230.5 -110q113 0 174.5 65t61.5 179q0 91 -44.5 150t-128.5 96l-77 33q-166 67 -233.5 109t-109 94t-62.5 116t-21 146q0 112 55 205.5
t152 146.5t215 53q161 0 305 -96l49 63h82l8 -477h-82q-47 167 -91.5 249.5t-103.5 125.5t-139 43q-85 0 -141.5 -60.5t-56.5 -150.5q0 -67 24 -115.5t79 -87t200 -94.5q137 -53 217.5 -109t122 -140t41.5 -195z" />
    <glyph glyph-name="T" unicode="T" horiz-adv-x="1219" 
d="M1135 1024q-14 55 -56 133t-83 121.5t-74 48.5q-54 8 -156 8h-16v-1124q0 -48 22 -75.5t79.5 -43t96.5 -18.5v-74h-678v74q25 2 74.5 9.5t63.5 12.5q63 27 63 105v1134h-16q-84 0 -156 -8q-36 -6 -77 -52.5t-80 -119.5t-56 -131h-74v395h1194v-395h-71z" />
    <glyph glyph-name="U" unicode="U" horiz-adv-x="1470" 
d="M1462 1343q-67 -6 -122.5 -28.5t-74 -91t-18.5 -205.5v-572q0 -146 -64 -255.5t-177 -168.5t-248 -59q-245 0 -386 123.5t-141 341.5v780q0 46 -18 73t-53 40t-94 25v73h616v-73q-105 -17 -128.5 -30t-32.5 -39t-9 -58v-750q0 -383 307 -383q151 0 236.5 101.5
t85.5 287.5v533q0 224 -60 278q-23 18 -70.5 34.5t-97.5 22.5v76h549v-76z" />
    <glyph glyph-name="V" unicode="V" horiz-adv-x="1311" 
d="M1352 1343q-43 -3 -93.5 -30t-76.5 -74t-74 -171.5t-236 -646.5l-157 -437h-140q-328 976 -415 1208q-33 79 -88.5 112t-110.5 39v76h625v-73q-95 -8 -125.5 -20.5t-30.5 -33.5q0 -67 311 -952q98 269 183 520t97.5 310.5t12.5 86.5q0 76 -176 86v76h494v-76z" />
    <glyph glyph-name="W" unicode="W" horiz-adv-x="2019" 
d="M2052 1343q-39 -5 -79.5 -26.5t-68.5 -52.5t-49 -90l-94 -311q-166 -556 -272 -879h-148l-340 1079l-333 -1079h-146q-285 991 -350 1194q-48 148 -197 165v76h629v-73q-155 -15 -155 -56q0 -38 43.5 -193.5t100 -352.5t105.5 -359l318 1024h151l340 -1055
q93 308 162.5 574t69.5 329q0 76 -189 86v76h502v-76z" />
    <glyph glyph-name="X" unicode="X" horiz-adv-x="1393" 
d="M692 0v74q91 5 126.5 19t35.5 38q0 11 -10.5 34.5t-56.5 116.5t-164 306q-125 -177 -196 -296.5t-71 -150.5q0 -30 25.5 -44.5t118.5 -22.5v-74h-492v74q59 5 91.5 19.5t60 35t54.5 50t80.5 102t274.5 395.5q-230 400 -274.5 473t-77.5 109t-81 58t-118 27v76h703v-76
q-74 -3 -116 -14t-42 -37q0 -31 74.5 -178t128.5 -242q105 158 165 268.5t60 137.5q0 37 -35.5 48.5t-103.5 16.5v76h491v-76q-63 -5 -113.5 -30.5t-102 -85t-111.5 -142.5t-128 -190l-71 -107q151 -266 236.5 -410.5t136.5 -202t93 -77t112 -24.5v-74h-703z" />
    <glyph glyph-name="Y" unicode="Y" horiz-adv-x="1225" 
d="M1290 1343q-59 -14 -92.5 -33t-64.5 -52t-90 -135t-130.5 -232.5t-101 -184.5t-43.5 -97.5t-16 -92.5t-2 -67v-236q0 -47 23 -76t85.5 -45t91.5 -18v-74h-676v74q53 4 103.5 13.5t72 37t21.5 78.5v291q0 39 -23 97.5t-110 244.5t-140 287.5t-90 140.5t-79.5 58t-81.5 21
v76h653v-76l-53 -3q-111 -4 -111 -44q0 -24 96.5 -239.5t169.5 -358.5q105 182 196 364.5t91 213.5q0 30 -33.5 45.5t-126.5 21.5v76h461v-76z" />
    <glyph glyph-name="Z" unicode="Z" horiz-adv-x="1206" 
d="M1143 0h-1123v49l799 1284h-223q-130 0 -188 -20q-53 -14 -117 -92t-133 -220h-74l43 418h1038v-49l-800 -1284h251q129 0 203 11.5t103 45.5q53 55 108.5 146.5t89.5 171.5h70z" />
    <glyph glyph-name="bracketleft" unicode="[" horiz-adv-x="754" 
d="M174 -309v1829h506v-97h-264v-1638h264v-94h-506z" />
    <glyph glyph-name="backslash" unicode="\" horiz-adv-x="879" 
d="M678 -424l-600 1948h153l598 -1948h-151z" />
    <glyph glyph-name="bracketright" unicode="]" horiz-adv-x="752" 
d="M72 -309v94h264v1638h-264v97h508v-1829h-508z" />
    <glyph glyph-name="asciicircum" unicode="^" horiz-adv-x="1380" 
d="M1010 778l-320 518l-319 -518h-172l428 678h127l426 -678h-170z" />
    <glyph glyph-name="underscore" unicode="_" horiz-adv-x="1300" 
d="M-4 -293v113h1309v-113h-1309z" />
    <glyph glyph-name="grave" unicode="`" horiz-adv-x="1008" 
d="M662 1104l-106 72q-122 80 -183 126t-83 74t-22 68q0 38 28 65t79 27q52 0 90.5 -35t128.5 -188l106 -172z" />
    <glyph glyph-name="a" unicode="a" horiz-adv-x="999" 
d="M977 20q-101 -45 -180 -45q-169 0 -203 142h-6q-63 -79 -131.5 -112.5t-147.5 -33.5q-104 0 -167.5 67t-63.5 181q0 96 43 164t143 115q51 24 176 69q117 42 150 60v102q0 102 -32.5 156.5t-92.5 54.5q-59 0 -96 -37l5 -27q17 -66 17 -112q0 -51 -38 -81t-101 -30
q-61 0 -94 35t-33 96q0 97 106 165.5t254 68.5q192 0 274.5 -82t82.5 -250l-6 -481q0 -37 7.5 -60t25.5 -39.5t52 -17t56 -0.5v-68zM590 547q-107 -41 -156 -78.5t-74.5 -87.5t-25.5 -121q0 -81 30 -117.5t78 -36.5q39 0 74 21.5t70 71.5z" />
    <glyph glyph-name="b" unicode="b" horiz-adv-x="1102" 
d="M1032 496q0 -149 -56 -270.5t-155.5 -190t-220.5 -68.5q-88 0 -166.5 27t-130.5 76l-108 -121l-58 16q8 173 8 385v957q0 61 -33.5 101.5t-125.5 47.5v68l397 24l16 -16v-649l7 -2q51 63 116 99t133 36q169 0 273 -142.5t104 -377.5zM754 483q0 184 -53 292t-148 108
t-154 -88v-580q18 -79 62 -123.5t100 -44.5q88 0 140.5 118t52.5 318z" />
    <glyph glyph-name="c" unicode="c" horiz-adv-x="897" 
d="M897 242q-64 -131 -162.5 -202t-218.5 -71q-208 0 -327 142.5t-119 386.5q0 140 59 260.5t164 190t235 69.5q149 0 234.5 -71t85.5 -187q0 -69 -34.5 -106.5t-98.5 -37.5q-60 0 -100 30t-40 87q0 47 10.5 88.5t16.5 73.5q-25 45 -88 45q-49 0 -86 -49.5t-57.5 -147
t-20.5 -229.5q0 -188 66.5 -302t173.5 -114q71 0 127 43.5t110 145.5z" />
    <glyph glyph-name="d" unicode="d" horiz-adv-x="1135" 
d="M729 -6l-16 14v92l-8 2q-48 -61 -115 -97t-137 -36q-105 0 -193.5 66.5t-139 188.5t-50.5 276q0 142 56 261t152.5 187t208.5 68q60 0 120.5 -17t103.5 -47v338q0 47 -16.5 85.5t-55.5 56.5t-113 24v68l424 24l15 -16v-1321q0 -35 11 -60.5t38 -42t106 -20.5v-68z
M711 766q-16 72 -59 118t-103 46q-91 0 -146 -120.5t-55 -324.5q0 -176 55 -282.5t152 -106.5q55 0 91 29t65 70v571z" />
    <glyph glyph-name="e" unicode="e" horiz-adv-x="967" 
d="M930 236q-67 -127 -167.5 -197t-227.5 -70q-217 0 -341 142.5t-124 388.5q0 141 56.5 261.5t157.5 188.5t228 68q187 0 290 -112t103 -314v-66h-567q0 -209 70.5 -318.5t207.5 -109.5q71 0 128 40.5t118 144.5zM649 612q0 328 -141 328q-75 0 -121.5 -91.5t-48.5 -238.5z
" />
    <glyph glyph-name="f" unicode="f" horiz-adv-x="635" 
d="M801 1403q0 -59 -31.5 -95t-85.5 -36q-37 0 -63 16t-49 48t-64 126q-70 -28 -70 -372v-107h197v-100h-195v-699q0 -52 32.5 -79t133.5 -35v-70h-543v70q56 5 80 12q45 20 45 94v707h-176v100h176v29q0 243 114.5 389.5t303.5 146.5q92 0 143.5 -39.5t51.5 -105.5z" />
    <glyph glyph-name="g" unicode="g" horiz-adv-x="993" 
d="M973 -86q0 -164 -129.5 -261t-362.5 -97q-218 0 -332 65t-114 193q0 89 76 143.5t213 60.5v13q-183 55 -183 186q0 117 176 176v15q-227 93 -227 286q0 93 47 166t133.5 114.5t186.5 41.5q88 0 168 -33h344v-100h-207q76 -92 76 -199q0 -87 -47.5 -159t-127 -112
t-167.5 -40h-115q-53 -31 -53 -76q0 -31 18.5 -50t52.5 -28.5t121 -11.5l123 -3q330 -8 330 -290zM588 686q0 116 -34 186t-93 70q-58 0 -88.5 -66t-30.5 -184q0 -108 34 -178t87 -70q56 0 90.5 66.5t34.5 175.5zM745 -147q0 41 -12 69.5t-39 45.5t-67.5 23.5t-223.5 6.5
q-135 -42 -135 -176q0 -84 65 -135.5t171 -51.5q241 0 241 218z" />
    <glyph glyph-name="h" unicode="h" 
d="M614 0v70q56 6 72 12q37 20 37 94v488q0 105 -34 157.5t-87 52.5q-55 0 -104.5 -38.5t-73.5 -98.5v-551q0 -57 24 -82t89 -34v-70h-492v70q55 4 80 12q47 21 47 94v1131q0 30 -10.5 58t-25.5 47t-50 30t-80 14v68l404 24l14 -16v-688h4q64 77 103 107.5t85 47.5t109 17
q121 0 186.5 -86.5t65.5 -245.5v-500q0 -34 9.5 -56t30.5 -36t81 -22v-70h-484z" />
    <glyph glyph-name="i" unicode="i" horiz-adv-x="612" 
d="M457 1374q0 -68 -48 -115t-114 -47q-65 0 -111.5 46.5t-46.5 111.5q0 67 46 114.5t112 47.5q67 0 114.5 -46t47.5 -112zM63 0v70l43 4q39 3 61.5 24.5t22.5 77.5v594q0 60 -42.5 96t-110.5 41v72l391 20l14 -14v-797q0 -55 30 -82.5t97 -35.5v-70h-506z" />
    <glyph glyph-name="j" unicode="j" horiz-adv-x="602" 
d="M453 1376q0 -67 -46 -115.5t-114 -48.5q-65 0 -111.5 46.5t-46.5 111.5q0 67 46 114.5t112 47.5q67 0 113.5 -46.5t46.5 -109.5zM442 90q0 -236 -119 -385t-311 -149q-92 0 -147 38.5t-55 108.5q0 58 30.5 94.5t85.5 36.5q36 0 64 -18t51.5 -51t64.5 -123
q45 10 64.5 108.5t19.5 298.5v715q0 43 -21 74.5t-66 49.5t-83 21v68l410 22l12 -14v-895z" />
    <glyph glyph-name="k" unicode="k" horiz-adv-x="1071" 
d="M731 0q-48 106 -124 253t-118 220l-65 -55v-234q0 -57 26 -81t93 -33v-70h-496v70l31 3q51 3 72.5 27.5t21.5 75.5v1129q0 44 -18.5 80.5t-51.5 51.5t-96 19v68l404 24l14 -16v-1020q58 64 117.5 131.5t111.5 134.5t52 92q0 16 -21.5 28t-97.5 24v65h436v-63
q-63 -19 -106 -39t-106 -70.5t-157 -165.5l75 -131q54 -96 121.5 -212.5t94 -155t60 -57t100.5 -23.5v-70h-373z" />
    <glyph glyph-name="l" unicode="l" horiz-adv-x="594" 
d="M47 0v70q59 5 82 16.5t33 34.5t10 55v1124q0 69 -41.5 107t-130.5 49v68l410 24l14 -16v-1344q0 -57 27.5 -82.5t99.5 -35.5v-70h-504z" />
    <glyph glyph-name="m" unicode="m" horiz-adv-x="1686" 
d="M1163 0v70q60 0 82.5 22.5t22.5 81.5v488q0 212 -121 212q-102 0 -166 -137v-553q0 -50 22 -77t82 -37v-70h-460v70q52 0 77 22t25 82v488q0 212 -115 212q-52 0 -98 -37t-74 -102v-549q0 -49 24 -78.5t83 -37.5v-70h-481v70q66 0 95 22t29 82v596q0 61 -38.5 99
t-102.5 38v72l377 20l14 -14v-141h4l51 57q104 115 238 115q90 0 146 -45.5t84 -139.5q81 106 150.5 145.5t150.5 39.5q124 0 191 -86t67 -252v-494q0 -54 25.5 -79.5t99.5 -34.5v-70h-484z" />
    <glyph glyph-name="n" unicode="n" horiz-adv-x="1157" 
d="M631 0v70l39 4q39 4 54 28.5t15 73.5v486q0 106 -33.5 159t-87.5 53q-53 0 -100.5 -36.5t-77.5 -100.5v-551q0 -50 23.5 -78t89.5 -38v-70h-490v70q72 6 90.5 17t27.5 34t9 55v594q0 37 -20 72.5t-46.5 48t-74.5 16.5v72l377 20l14 -14v-141h4q73 84 109.5 112t82 44
t103.5 16q123 0 188.5 -86.5t65.5 -245.5v-500q0 -53 26 -79t97 -35v-70h-485z" />
    <glyph glyph-name="o" unicode="o" horiz-adv-x="1090" 
d="M1020 502q0 -155 -59.5 -277.5t-170 -190t-253.5 -67.5q-131 0 -238.5 66.5t-168 186.5t-60.5 272q0 234 130 380t347 146q213 0 343 -141.5t130 -374.5zM739 504q0 211 -49 323.5t-143 112.5q-95 0 -146 -110.5t-51 -321.5q0 -225 50 -343t147 -118q92 0 142 119.5
t50 337.5z" />
    <glyph glyph-name="p" unicode="p" horiz-adv-x="1126" 
d="M1057 492q0 -144 -55 -263t-151.5 -187.5t-207.5 -68.5q-135 0 -213 68h-6v-287q0 -76 53 -98q62 -22 125 -29v-71h-579v69q101 11 125 36.5t24 78.5v1036q-6 58 -40 91.5t-107 39.5v72l383 20l14 -12v-110l8 -3q57 71 123 106.5t131 35.5q106 0 191.5 -66t133.5 -186
t48 -272zM778 485q0 185 -53.5 291.5t-149.5 106.5q-93 0 -151 -95v-581q15 -63 59.5 -107.5t102.5 -44.5q88 0 140 115t52 315z" />
    <glyph glyph-name="q" unicode="q" horiz-adv-x="1108" 
d="M561 -444v69q100 8 125 32t25 83v356l-6 2q-50 -60 -114.5 -92.5t-133.5 -32.5q-111 0 -199 65t-138 187.5t-50 280.5q0 142 58.5 259.5t162 184t223.5 66.5q142 0 256 -68l49 -30l107 126l55 -10q-16 -118 -16 -350v-928q0 -41 15 -69t56 -42.5t84 -19.5v-69h-559z
M711 772q-17 75 -61 118.5t-105 43.5q-88 0 -142.5 -123t-54.5 -324q0 -181 55.5 -284t155.5 -103q54 0 88.5 26t63.5 64v582z" />
    <glyph glyph-name="r" unicode="r" horiz-adv-x="866" 
d="M856 834q0 -72 -37 -117t-98 -45q-62 0 -100.5 33.5t-38.5 87.5q0 21 12 81q-80 -6 -154 -126v-562q0 -39 17 -64.5t49.5 -35.5t95.5 -16v-70h-539v70q72 6 90.5 17t27.5 34t9 55v594q0 35 -17.5 69.5t-44 49t-79.5 18.5v72l377 20l14 -14v-141h4q124 168 254 168
q73 0 115.5 -49.5t42.5 -128.5z" />
    <glyph glyph-name="s" unicode="s" horiz-adv-x="854" 
d="M788 297q0 -147 -99.5 -237.5t-258.5 -90.5q-65 0 -134.5 24.5t-117.5 63.5l-24 -63h-76l-10 356h67q20 -79 62.5 -149.5t97.5 -111t117 -40.5q153 0 153 152q0 67 -41.5 109t-171.5 91q-98 37 -149.5 78.5t-80 99.5t-28.5 136q0 132 88 216.5t230 84.5q66 0 123 -17
t92 -38l22 57h72l16 -330h-69q-22 108 -82 178t-137 70q-62 0 -98 -37t-36 -94q0 -47 16.5 -78.5t52.5 -55.5t142 -63q146 -53 204 -126t58 -185z" />
    <glyph glyph-name="t" unicode="t" horiz-adv-x="682" 
d="M664 45q-152 -70 -265 -70q-241 0 -241 267v641h-154v100h158v307h248v-307h235v-100h-233v-539q0 -106 12 -150t39.5 -64.5t77.5 -20.5q31 0 69 4.5t54 11.5v-80z" />
    <glyph glyph-name="u" unicode="u" horiz-adv-x="1128" 
d="M723 -6l-16 14v127h-5q-67 -92 -134 -128t-154 -36q-122 0 -186 89t-64 249v465q0 42 -17.5 72.5t-42.5 42t-77 18.5v70l376 22l15 -14v-674q0 -110 31 -158.5t90 -48.5q36 0 65 16t51.5 39t51.5 74v551q0 65 -41 101q-25 17 -95 22v70l369 22l16 -14v-776
q0 -36 15 -63.5t36.5 -40t84.5 -17.5v-68z" />
    <glyph glyph-name="v" unicode="v" horiz-adv-x="942" 
d="M975 922q-103 -18 -141 -127q-61 -162 -171.5 -474t-111.5 -329h-137l-303 821q-36 91 -134 107v67h488v-69q-45 -2 -72.5 -13t-27.5 -28q0 -12 11 -50t80.5 -236.5t108.5 -303.5q17 48 70.5 206t79.5 241t26 116q0 25 -30 45t-82 27v65h346v-65z" />
    <glyph glyph-name="w" unicode="w" horiz-adv-x="1505" 
d="M1522 920q-96 -16 -133 -129l-91 -268q-152 -462 -172 -531h-141l-235 704l-230 -704h-137q-36 115 -112 352t-158 467q-33 93 -129 109v67h497v-69q-106 -12 -106 -48q0 -16 48.5 -177t119.5 -376l211 662h149l230 -690q35 108 63.5 202.5t58 198.5t29.5 158
q0 27 -35 47.5t-88 24.5v67h361v-67z" />
    <glyph glyph-name="x" unicode="x" horiz-adv-x="965" 
d="M469 0v70q41 3 65.5 12t24.5 22q0 18 -27 76l-118 223q-158 -235 -158 -282q0 -20 20 -33.5t70 -19.5v-68h-340v68q42 12 77 34.5t59.5 50.5t59.5 75t171 247l-215 363q-43 69 -135 82v67h464v-67q-79 -6 -79 -25q0 -10 9 -28t50 -96t80 -146q47 68 69.5 105t46 82.5
t23.5 59.5q0 34 -60 44l-28 4v67h334v-65q-44 -13 -79.5 -35t-70.5 -64.5t-87.5 -117t-104.5 -154.5l225 -385q28 -49 59.5 -69.5t83.5 -26.5v-70h-489z" />
    <glyph glyph-name="y" unicode="y" horiz-adv-x="942" 
d="M975 922q-35 -7 -71.5 -34t-57.5 -83l-49 -129q-213 -565 -304.5 -766t-165 -277.5t-173.5 -76.5q-72 0 -118 43.5t-46 103.5q0 59 33.5 97t82.5 38q31 0 56 -12t46.5 -32.5t59.5 -74.5q35 23 84 109.5t80 167.5l-88 234q-131 349 -233 583q-44 94 -134 107v67h480v-69
q-92 -6 -92 -41q0 -20 12 -54l36 -107q92 -276 152 -421q83 227 129.5 369t46.5 186q0 25 -30 44.5t-80 25.5v67h344v-65z" />
    <glyph glyph-name="z" unicode="z" horiz-adv-x="883" 
d="M49 0v61l473 842h-47q-167 0 -227 -24q-25 -13 -51.5 -68.5t-44.5 -136.5h-66v313h731v-51l-479 -850l70 -2h67q142 0 181 22t69 110t43 144h66v-360h-785z" />
    <glyph glyph-name="braceleft" unicode="{" horiz-adv-x="825" 
d="M772 -334q-198 0 -290.5 35t-135.5 114.5t-43 221.5q0 63 8 126t8 122q0 91 -23 140.5t-75 74t-168 32.5v140q114 8 166.5 32t76 72.5t23.5 141.5q0 58 -8 122t-8 127q0 140 43 219t136.5 114.5t289.5 35.5v-84q-99 -6 -137 -28t-57 -67.5t-19 -127.5v-211
q0 -118 -34.5 -193t-101 -120t-212.5 -76v-56q142 -28 210 -73t103 -121t35 -195v-211q0 -81 19 -126.5t57 -68t137 -28.5v-84z" />
    <glyph glyph-name="bar" unicode="|" horiz-adv-x="770" 
d="M311 -424v1948h148v-1948h-148z" />
    <glyph glyph-name="braceright" unicode="}" horiz-adv-x="825" 
d="M770 532q-114 -8 -165 -32.5t-74 -74t-23 -140.5q0 -59 7 -122t7 -126q0 -142 -43 -221t-136 -114.5t-292 -35.5v84q101 6 139 28.5t57 69t19 125.5v211q0 118 35 194.5t102.5 121.5t210.5 73v56q-147 31 -213 76t-100.5 121t-34.5 192v211q0 80 -19 126t-56.5 68
t-139.5 29v84q195 0 290 -35.5t138 -114.5t43 -219q0 -63 -7 -127t-7 -122q0 -91 23 -140.5t75.5 -73.5t163.5 -32v-140z" />
    <glyph glyph-name="asciitilde" unicode="~" horiz-adv-x="1380" 
d="M1241 725q-28 -82 -83 -156t-124 -117.5t-145 -43.5q-119 0 -251 78q-67 39 -116 58t-90 19q-58 0 -103.5 -38.5t-99.5 -147.5l-92 37q28 80 84 154t125.5 117.5t145.5 43.5q117 0 252 -78q73 -43 118.5 -60.5t85.5 -17.5q41 0 73 17.5t58.5 50t71.5 119.5z" />
    <glyph glyph-name="exclamdown" unicode="&#xa1;" horiz-adv-x="713" 
d="M201 129q0 49 41 301q54 338 77 543h78q26 -207 81 -545q40 -250 40 -299q0 -67 -45 -113.5t-113 -46.5q-66 0 -112.5 46t-46.5 114zM199 1286q0 65 47 113.5t114 48.5q66 0 114 -48t48 -114t-47.5 -114t-114.5 -48q-69 0 -115 48.5t-46 113.5z" />
    <glyph glyph-name="cent" unicode="&#xa2;" horiz-adv-x="1065" 
d="M989 242q-55 -115 -143.5 -186t-194.5 -85v-270h-90v270q-196 11 -313 156t-117 371q0 130 55.5 245.5t153.5 187.5t221 83v262h90v-260q128 -4 212.5 -74t84.5 -168q0 -59 -34 -97t-97 -38q-51 0 -85 31.5t-34 85.5q0 31 12 95l5 38q-23 41 -64 49v-842h17
q76 0 135.5 42.5t116.5 148.5zM561 938q-77 -25 -121.5 -136t-44.5 -288q0 -155 44.5 -254.5t121.5 -136.5v815z" />
    <glyph glyph-name="sterling" unicode="&#xa3;" horiz-adv-x="1233" 
d="M1122 223v-223h-1007v168q68 26 107 78.5t57 131t18 245.5h-164v106h162q-3 32 -9.5 118.5t-6.5 129.5q0 139 54 249t153 171t233 61q96 0 174.5 -38t123 -106t44.5 -147q0 -67 -35 -106t-92 -39q-66 0 -106 33.5t-40 87.5q0 63 35 174q-12 20 -41 37.5t-67 17.5
q-77 0 -120.5 -72.5t-43.5 -201.5l12 -369h301v-106h-301q-7 -148 -54 -239.5t-144 -150.5v-10h757z" />
    <glyph glyph-name="currency" unicode="&#xa4;" horiz-adv-x="1174" 
d="M274 565q0 91 48 164l-209 213l102 98l207 -211q76 50 164 50q85 0 164 -48l208 209l103 -98l-211 -213q49 -75 49 -164q0 -87 -47 -164l209 -208l-98 -101l-211 209q-81 -49 -166 -49q-89 0 -164 49l-211 -209l-98 101l206 208q-45 77 -45 164zM414 565
q0 -77 50.5 -128.5t121.5 -51.5q72 0 123 51t51 129q0 77 -51 128.5t-123 51.5q-73 0 -122.5 -51t-49.5 -129z" />
    <glyph glyph-name="yen" unicode="&#xa5;" horiz-adv-x="1268" 
d="M1268 1343q-70 -11 -117 -49t-88 -110q-143 -251 -177.5 -316.5t-121.5 -240.5v-64h362v-104h-362v-248q0 -60 41.5 -93.5t142.5 -43.5v-74h-639v74q83 6 117 19.5t50 39t16 68.5v258h-363v104h363v51l-48 99l-102 219q-52 113 -117 239q-40 78 -93 122t-128 50v76h629
v-76l-49 -3q-103 -6 -103 -48q0 -16 34.5 -97t205.5 -450q112 214 179 358.5t67 170.5q0 29 -30 46t-114 23v76h445v-76z" />
    <glyph glyph-name="brokenbar" unicode="&#xa6;" horiz-adv-x="770" 
d="M311 723v801h148v-801h-148zM311 -424v809h148v-809h-148z" />
    <glyph glyph-name="section" unicode="&#xa7;" horiz-adv-x="991" 
d="M870 643q0 -101 -60.5 -182t-168.5 -125q96 -48 139 -113.5t43 -154.5q0 -142 -104.5 -230t-272.5 -88q-132 0 -213 51.5t-81 135.5q0 47 27 78.5t73 31.5q81 0 129 -139l25 -72q16 -4 34 -4q81 0 131 47.5t50 120.5q0 66 -45 118.5t-166 108.5q-159 72 -225 153.5
t-66 201.5q0 204 231 301q-101 50 -146.5 116.5t-45.5 155.5q0 130 102 214.5t272 84.5q96 0 161.5 -25t100.5 -67.5t35 -95.5q0 -49 -28 -81t-72 -32q-80 0 -127 143l-24 70q-21 8 -52 8q-70 0 -117 -45t-47 -121q0 -64 45 -111.5t185 -113.5q150 -72 214 -151t64 -189z
M670 578q0 83 -56 145t-188 119q-107 -65 -107 -199q0 -61 23 -106t71.5 -82.5t151.5 -85.5q58 44 81.5 95t23.5 114z" />
    <glyph glyph-name="dieresis" unicode="&#xa8;" horiz-adv-x="999" 
d="M414 1362q0 -60 -39.5 -102.5t-98.5 -42.5q-56 0 -95.5 42.5t-39.5 102.5q0 62 40.5 103.5t94.5 41.5q58 0 98 -41.5t40 -103.5zM829 1362q0 -62 -39.5 -103.5t-95.5 -41.5t-96.5 41t-40.5 104q0 65 41 105t96 40t95 -40.5t40 -104.5z" />
    <glyph glyph-name="copyright" unicode="&#xa9;" horiz-adv-x="1929" 
d="M1849 604q0 -234 -117 -438.5t-321.5 -325.5t-443.5 -121q-242 0 -448 121.5t-322.5 325.5t-116.5 438q0 230 115.5 433t323 325.5t448.5 122.5q239 0 444.5 -122t321.5 -325t116 -434zM1751 604q0 216 -105.5 400t-285.5 288.5t-393 104.5q-212 0 -393.5 -103.5
t-288.5 -287t-107 -402.5q0 -222 108 -407.5t289.5 -288.5t391.5 -103q211 0 391 104t286.5 289t106.5 406zM1382 391q-54 -134 -160 -206t-243 -72q-144 0 -257.5 59t-176 169.5t-62.5 250.5q0 142 67.5 258t187.5 180t268 64q58 0 121.5 -18t109.5 -46l41 60h61l4 -367
h-61q-52 162 -120.5 228.5t-172.5 66.5q-119 0 -188.5 -110t-69.5 -300q0 -183 78.5 -288t216.5 -105q96 0 168 49.5t127 157.5z" />
    <glyph glyph-name="ordfeminine" unicode="&#xaa;" horiz-adv-x="991" 
d="M897 647q-87 -35 -156 -35q-139 0 -168 117h-4q-106 -121 -237 -121q-83 0 -137 58t-54 153q0 77 33 129t121 88l73 30q160 60 201 85v70q0 75 -26.5 118t-69.5 43q-55 0 -82 -34q19 -65 19 -103q0 -36 -35.5 -61t-89.5 -25q-50 0 -77.5 27.5t-27.5 79.5q0 79 92 133.5
t226 54.5q146 0 216 -65.5t70 -200.5l-6 -383q0 -54 28.5 -74t90.5 -20v-64zM571 1071q-101 -41 -137 -68.5t-55 -63t-19 -85.5q0 -123 86 -123q71 0 121 72z" />
    <glyph glyph-name="guillemotleft" unicode="&#xab;" horiz-adv-x="1157" 
d="M938 109q-15 10 -93.5 86t-236.5 233q-55 52 -55 109q0 62 55 112l93 91q214 210 237 227l49 -41l-211 -389l211 -387zM541 109q-15 10 -93.5 86t-236.5 233q-55 50 -55 109q0 62 55 112l93 91q214 210 237 227l49 -41l-211 -389l211 -387z" />
    <glyph glyph-name="logicalnot" unicode="&#xac;" horiz-adv-x="1380" 
d="M1063 61v463h-909v144h1060v-607h-151z" />
    <glyph glyph-name="registered" unicode="&#xae;" horiz-adv-x="1929" 
d="M1849 604q0 -234 -117 -438.5t-321.5 -325.5t-443.5 -121q-242 0 -448 121.5t-322.5 325.5t-116.5 438q0 230 115.5 433t323 325.5t448.5 122.5q239 0 444.5 -122t321.5 -325t116 -434zM1751 604q0 216 -105.5 400t-285.5 288.5t-393 104.5q-212 0 -393.5 -103.5
t-288.5 -287t-107 -402.5q0 -222 108 -407.5t289.5 -288.5t391.5 -103q211 0 391 104t286.5 289t106.5 406zM1233 145q-92 132 -140 198t-167 212h-68v-266q0 -39 25 -57.5t104 -28.5v-58h-459v58q88 10 109.5 26.5t21.5 57.5v639q0 52 -38.5 66.5t-92.5 25.5v57h502
q160 0 246 -57.5t86 -163.5q0 -101 -56 -162.5t-176 -95.5q75 -89 173 -214q68 -89 97 -115.5t59 -41t100 -22.5v-58h-326zM1139 834q0 86 -48 128t-151 42h-82v-377h68q100 0 156.5 51.5t56.5 155.5z" />
    <glyph glyph-name="macron" unicode="&#xaf;" horiz-adv-x="1225" 
d="M66 1423v138h1038v-138h-1038z" />
    <glyph glyph-name="degree" unicode="&#xb0;" horiz-adv-x="860" 
d="M764 1128q0 -144 -95 -235.5t-241 -91.5q-147 0 -240.5 93t-93.5 234q0 144 95.5 236t238.5 92q146 0 241 -91.5t95 -236.5zM600 1120q0 124 -47 189t-125 65t-123 -66.5t-45 -174.5q0 -118 43.5 -184t128.5 -66q74 0 121 66t47 171z" />
    <glyph glyph-name="plusminus" unicode="&#xb1;" horiz-adv-x="1380" 
d="M156 0v143h460v398h-460v145h460v463h146v-463h459v-145h-459v-398h459v-143h-1065z" />
    <glyph glyph-name="twosuperior" unicode="&#xb2;" horiz-adv-x="979" 
d="M143 489v125q32 50 76 90t91.5 78t94 76.5t83.5 85t60 104.5t23 134q0 87 -34.5 141.5t-87.5 54.5q-36 0 -63 -15.5t-36 -29.5q6 -23 16.5 -59t10.5 -70q0 -42 -33.5 -68t-89.5 -26q-51 0 -76.5 32.5t-25.5 82.5q0 57 43 110.5t115.5 85t158.5 31.5q154 0 245 -73
t91 -203q0 -83 -28 -142.5t-74 -104.5t-168 -110q-110 -57 -161 -90.5t-81 -64.5h557v-175h-707z" />
    <glyph glyph-name="threesuperior" unicode="&#xb3;" horiz-adv-x="979" 
d="M838 754q0 -135 -112 -218t-282 -83q-140 0 -229.5 61.5t-89.5 149.5q0 53 29 86.5t79 33.5q51 0 80 -29t29 -69q0 -54 -20 -117q39 -39 112 -39q80 0 125 57.5t45 164.5q0 94 -41.5 137t-126.5 43h-84v92h62q83 0 118 50t35 153q0 68 -28.5 109.5t-85.5 41.5
q-31 0 -55 -13t-33 -26q24 -72 24 -122q0 -38 -31 -64.5t-84 -26.5q-49 0 -76.5 30.5t-27.5 76.5q0 57 42.5 109t115.5 82t161 30q99 0 166.5 -30.5t103.5 -81t36 -111.5q0 -90 -59.5 -148.5t-168.5 -83.5v-12q125 -8 198 -70.5t73 -162.5z" />
    <glyph glyph-name="acute" unicode="&#xb4;" horiz-adv-x="1008" 
d="M281 1141l106 172q91 155 129 189t90 34q51 0 79 -27t28 -65q0 -36 -18.5 -62.5t-57 -56.5t-58 -44t-260.5 -177z" />
    <glyph glyph-name="mu" unicode="&#xb5;" horiz-adv-x="1118" 
d="M1102 20q-90 -45 -176 -45q-179 0 -209 160h-6q-58 -89 -114 -124.5t-132 -35.5q-50 0 -92.5 22t-67.5 54h-8v-43q0 -56 31 -166q30 -111 30 -159q0 -57 -37 -92t-94 -35q-56 0 -89.5 36.5t-33.5 94.5q0 57 31 210q20 98 24.5 147.5t4.5 94.5v848h252v-665
q0 -107 28 -159t88 -52q108 0 168 125v751h254v-778q0 -80 41 -105q34 -16 107 -16v-68z" />
    <glyph glyph-name="paragraph" unicode="&#xb6;" horiz-adv-x="993" 
d="M956 1341h-110v-1556h-113v1556h-135v-1556h-115v881q-185 9 -288 108.5t-103 265.5q0 108 50 195t143.5 135.5t210.5 48.5h460v-78z" />
    <glyph glyph-name="periodcentered" unicode="&#xb7;" horiz-adv-x="616" 
d="M473 553q0 -69 -48 -117.5t-116 -48.5q-69 0 -117.5 48t-48.5 118q0 69 49 118.5t117 49.5q67 0 115.5 -50t48.5 -118z" />
    <glyph glyph-name="cedilla" unicode="&#xb8;" horiz-adv-x="1024" 
d="M696 -250q0 -103 -86 -148.5t-295 -45.5v73q120 0 166.5 19.5t46.5 66.5q0 35 -27 52.5t-106 17.5v231h82v-112q109 0 164 -40t55 -114z" />
    <glyph glyph-name="onesuperior" unicode="&#xb9;" horiz-adv-x="979" 
d="M231 489v72q41 0 84 8.5t59.5 28t16.5 49.5v606h-162v82h23q79 0 145.5 29.5t108.5 83.5h100q-6 -156 -6 -231v-562q0 -43 31.5 -64.5t118.5 -29.5v-72h-519z" />
    <glyph glyph-name="ordmasculine" unicode="&#xba;" horiz-adv-x="983" 
d="M881 1036q0 -125 -48.5 -223.5t-139 -152.5t-210.5 -54q-167 0 -274 116.5t-107 305.5q0 194 105.5 310t286.5 116q176 0 281.5 -113t105.5 -305zM637 1038q0 179 -36 260.5t-107 81.5q-150 0 -150 -338q0 -360 150 -360q143 0 143 356z" />
    <glyph glyph-name="guillemotright" unicode="&#xbb;" horiz-adv-x="1157" 
d="M170 150l211 387l-211 389l49 41q20 -15 166 -158l164 -160q55 -50 55 -112q0 -59 -55 -109q-115 -115 -214.5 -212t-115.5 -107zM565 150l213 387l-213 389l49 41q26 -19 154.5 -145t166.5 -162.5t52 -64t14 -58.5q0 -59 -55 -109q-296 -296 -332 -319z" />
    <glyph glyph-name="onequarter" unicode="&#xbc;" horiz-adv-x="2007" 
d="M1422 1423l-766 -1423h-144l764 1423h146zM139 489v72q41 0 84 8.5t59.5 28t16.5 49.5v606h-162v82h23q79 0 145.5 29.5t108.5 83.5h100q-6 -156 -6 -231v-562q0 -43 31.5 -64.5t118.5 -29.5v-72h-519zM1868 222h-160v-240h-196v240h-410v131l447 612h159v-616h160v-127z
M1512 349v421l-303 -421h303z" />
    <glyph glyph-name="onehalf" unicode="&#xbd;" horiz-adv-x="2007" 
d="M1395 1423l-766 -1423h-144l764 1423h146zM139 489v72q41 0 84 8.5t59.5 28t16.5 49.5v606h-162v82h23q79 0 145.5 29.5t108.5 83.5h100q-6 -156 -6 -231v-562q0 -43 31.5 -64.5t118.5 -29.5v-72h-519zM1208 2v125q32 50 76 90t91.5 78t94 76.5t83.5 85t60 104.5t23 134
q0 87 -34.5 141.5t-87.5 54.5q-36 0 -63 -15.5t-36 -29.5q6 -23 16.5 -59t10.5 -70q0 -42 -33.5 -68t-89.5 -26q-51 0 -76.5 32.5t-25.5 82.5q0 57 43 110.5t115.5 85t158.5 31.5q154 0 245 -73t91 -203q0 -83 -28 -142.5t-74 -104.5t-168 -110q-110 -57 -161 -90.5
t-81 -64.5h557v-175h-707z" />
    <glyph glyph-name="threequarters" unicode="&#xbe;" horiz-adv-x="2007" 
d="M1542 1423l-766 -1423h-144l764 1423h146zM1931 222h-160v-240h-196v240h-410v131l447 612h159v-616h160v-127zM1575 349v421l-303 -421h303zM826 754q0 -135 -112 -218t-282 -83q-140 0 -229.5 61.5t-89.5 149.5q0 53 29 86.5t79 33.5q51 0 80 -29t29 -69
q0 -54 -20 -117q39 -39 112 -39q80 0 125 57.5t45 164.5q0 94 -41.5 137t-126.5 43h-84v92h62q83 0 118 50t35 153q0 68 -28.5 109.5t-85.5 41.5q-31 0 -55 -13t-33 -26q24 -72 24 -122q0 -38 -31 -64.5t-84 -26.5q-49 0 -76.5 30.5t-27.5 76.5q0 57 42.5 109t115.5 82
t161 30q99 0 166.5 -30.5t103.5 -81t36 -111.5q0 -90 -59.5 -148.5t-168.5 -83.5v-12q125 -8 198 -70.5t73 -162.5z" />
    <glyph glyph-name="questiondown" unicode="&#xbf;" horiz-adv-x="954" 
d="M104 385q0 190 114 312t314 145l3 178h88v-385q-136 -12 -208.5 -90.5t-72.5 -216.5q0 -131 45.5 -203t126.5 -72q59 0 109 37q-10 32 -20.5 70t-10.5 80q0 60 38 95.5t103 35.5q60 0 95.5 -41t35.5 -105q0 -65 -45.5 -124t-126 -94.5t-178.5 -35.5q-184 0 -297 114.5
t-113 299.5zM414 1288q0 65 46.5 112.5t114.5 47.5q66 0 114 -46.5t48 -113.5q0 -66 -48 -114t-114 -48q-67 0 -114 48t-47 114z" />
    <glyph glyph-name="Agrave" unicode="&#xc0;" horiz-adv-x="1317" 
d="M733 0v74q76 5 125 19.5t49 37.5q0 13 -6 38.5t-102 313.5h-428q-38 -96 -66.5 -193t-28.5 -128q0 -35 45.5 -58t133.5 -30v-74h-502v74q154 11 221 176q74 183 159.5 419.5t264.5 770.5h135l441 -1227q13 -36 31.5 -62t56.5 -48t96 -29v-74h-625zM584 1114l-181 -539
h365zM368 1774q0 42 31 68t76 26q41 0 84 -29.5t89 -76t96 -104t106 -112.5l-31 -39l-218 88q-162 63 -197.5 95.5t-35.5 83.5z" />
    <glyph glyph-name="Aacute" unicode="&#xc1;" horiz-adv-x="1317" 
d="M733 0v74q76 5 125 19.5t49 37.5q0 13 -6 38.5t-102 313.5h-428q-38 -96 -66.5 -193t-28.5 -128q0 -35 45.5 -58t133.5 -30v-74h-502v74q154 11 221 176q74 183 159.5 419.5t264.5 770.5h135l441 -1227q13 -36 31.5 -62t56.5 -48t96 -29v-74h-625zM584 1114l-181 -539
h365zM530 1507l-30 39l120 123l57 64q117 135 199 135q45 0 75 -26t30 -68q0 -81 -96 -121q-47 -23 -137 -58t-218 -88z" />
    <glyph glyph-name="Acircumflex" unicode="&#xc2;" horiz-adv-x="1317" 
d="M733 0v74q76 5 125 19.5t49 37.5q0 13 -6 38.5t-102 313.5h-428q-38 -96 -66.5 -193t-28.5 -128q0 -35 45.5 -58t133.5 -30v-74h-502v74q154 11 221 176q74 183 159.5 419.5t264.5 770.5h135l441 -1227q13 -36 31.5 -62t56.5 -48t96 -29v-74h-625zM584 1114l-181 -539
h365zM969 1522l-47 -33l-264 209l-264 -209l-45 33q126 194 166 251t58 71t38.5 19t48.5 5q36 0 58 -8.5t50 -40.5q28 -41 52.5 -76t148.5 -221z" />
    <glyph glyph-name="Atilde" unicode="&#xc3;" horiz-adv-x="1317" 
d="M733 0v74q76 5 125 19.5t49 37.5q0 13 -6 38.5t-102 313.5h-428q-38 -96 -66.5 -193t-28.5 -128q0 -35 45.5 -58t133.5 -30v-74h-502v74q154 11 221 176q74 183 159.5 419.5t264.5 770.5h135l441 -1227q13 -36 31.5 -62t56.5 -48t96 -29v-74h-625zM584 1114l-181 -539
h365zM1057 1833q-29 -114 -100 -193.5t-152 -79.5q-56 0 -97.5 16.5t-76 37t-66 37t-65.5 16.5q-38 0 -65 -28t-69 -114l-63 29q38 118 108.5 193t145.5 75q51 0 93 -16.5t77 -36t66 -35.5t61 -16q32 0 54 10t39 32t48 95z" />
    <glyph glyph-name="Adieresis" unicode="&#xc4;" horiz-adv-x="1317" 
d="M733 0v74q76 5 125 19.5t49 37.5q0 13 -6 38.5t-102 313.5h-428q-38 -96 -66.5 -193t-28.5 -128q0 -35 45.5 -58t133.5 -30v-74h-502v74q154 11 221 176q74 183 159.5 419.5t264.5 770.5h135l441 -1227q13 -36 31.5 -62t56.5 -48t96 -29v-74h-625zM584 1114l-181 -539
h365zM1024 1706q0 -63 -40.5 -104t-96.5 -41t-96.5 41t-40.5 104t41 104.5t96 41.5t96 -41t41 -105zM578 1706q0 -61 -40.5 -103t-96.5 -42q-59 0 -98.5 42.5t-39.5 102.5t40 103t98 43q55 0 96 -42.5t41 -103.5z" />
    <glyph glyph-name="Aring" unicode="&#xc5;" horiz-adv-x="1317" 
d="M733 0v74q76 5 125 19.5t49 37.5q0 13 -6 38.5t-102 313.5h-428q-38 -96 -66.5 -193t-28.5 -128q0 -35 45.5 -58t133.5 -30v-74h-502v74q154 11 221 176q74 183 159.5 419.5t264.5 770.5h135l441 -1227q13 -36 31.5 -62t56.5 -48t96 -29v-74h-625zM584 1114l-181 -539
h365zM927 1638q0 -102 -73.5 -164.5t-194.5 -62.5q-124 0 -196 62t-72 165q0 100 74 164t194 64q122 0 195 -62.5t73 -165.5zM790 1638q0 69 -33 114.5t-98 45.5q-63 0 -97 -42.5t-34 -117.5q0 -71 33 -115t98 -44t98 43.5t33 115.5z" />
    <glyph glyph-name="AE" unicode="&#xc6;" horiz-adv-x="1913" 
d="M1841 0h-1118v74q94 8 126.5 23.5t44 40t11.5 59.5v401h-432q-69 -120 -122 -221t-70 -141.5t-17 -71.5q0 -79 160 -90v-74h-504v74q74 8 128.5 45.5t107.5 128.5q216 370 598 1073q-56 16 -170 22v76h1179v-352h-75q-20 77 -82 161.5t-121 96.5q-52 10 -154 10h-147
v-557h86q66 0 107.5 22.5t65.5 86t34 129.5h75v-574h-75q-8 56 -26 112.5t-30 74.5q-30 37 -66 50t-85 13h-86v-418q0 -85 12.5 -121.5t43 -51.5t122.5 -15q130 0 189.5 12t82.5 37q39 44 88.5 138t71.5 157h72zM905 1329h-37l-346 -641h383v641z" />
    <glyph glyph-name="Ccedilla" unicode="&#xc7;" horiz-adv-x="1276" 
d="M1249 356q-167 -393 -547 -393q-176 0 -321 92.5t-226 260.5t-81 380q0 217 83.5 391t234.5 269.5t335 95.5q189 0 330 -94l47 61h78l10 -512h-82q-55 235 -143.5 345t-214.5 110q-173 0 -269 -167.5t-96 -475.5q0 -288 108 -457.5t296 -169.5q116 0 205.5 70.5
t174.5 238.5zM919 -250q0 -103 -86 -148.5t-295 -45.5v73q120 0 166.5 19.5t46.5 66.5q0 35 -27 52.5t-106 17.5v231h82v-112q109 0 164 -40t55 -114z" />
    <glyph glyph-name="Egrave" unicode="&#xc8;" horiz-adv-x="1272" 
d="M1198 0h-1122v74q48 4 94 13.5t67 34.5t21 75v1011q0 44 -17 69.5t-72.5 44t-92.5 21.5v76h1046v-352h-73q-28 88 -96 168t-128 90q-58 10 -170 10h-116v-557h57q81 0 128.5 23.5t75.5 87.5t38 127h73v-574h-73q-7 50 -27.5 108t-38.5 79q-30 30 -51 40t-51 16.5t-74 6.5
h-57v-418q0 -82 10 -119t34.5 -53t94.5 -16q146 0 213.5 12.5t91.5 36.5q38 41 91.5 135.5t78.5 159.5h72zM338 1774q0 42 31 68t76 26q41 0 84 -29.5t89 -76t96 -104t106 -112.5l-31 -39l-218 88q-162 63 -197.5 95.5t-35.5 83.5z" />
    <glyph glyph-name="Eacute" unicode="&#xc9;" horiz-adv-x="1272" 
d="M1198 0h-1122v74q48 4 94 13.5t67 34.5t21 75v1011q0 44 -17 69.5t-72.5 44t-92.5 21.5v76h1046v-352h-73q-28 88 -96 168t-128 90q-58 10 -170 10h-116v-557h57q81 0 128.5 23.5t75.5 87.5t38 127h73v-574h-73q-7 50 -27.5 108t-38.5 79q-30 30 -51 40t-51 16.5t-74 6.5
h-57v-418q0 -82 10 -119t34.5 -53t94.5 -16q146 0 213.5 12.5t91.5 36.5q38 41 91.5 135.5t78.5 159.5h72zM508 1507l-30 39l120 123l57 64q117 135 199 135q45 0 75 -26t30 -68q0 -81 -96 -121q-47 -23 -137 -58t-218 -88z" />
    <glyph glyph-name="Ecircumflex" unicode="&#xca;" horiz-adv-x="1272" 
d="M1198 0h-1122v74q48 4 94 13.5t67 34.5t21 75v1011q0 44 -17 69.5t-72.5 44t-92.5 21.5v76h1046v-352h-73q-28 88 -96 168t-128 90q-58 10 -170 10h-116v-557h57q81 0 128.5 23.5t75.5 87.5t38 127h73v-574h-73q-7 50 -27.5 108t-38.5 79q-30 30 -51 40t-51 16.5t-74 6.5
h-57v-418q0 -82 10 -119t34.5 -53t94.5 -16q146 0 213.5 12.5t91.5 36.5q38 41 91.5 135.5t78.5 159.5h72zM973 1522l-47 -33l-264 209l-264 -209l-45 33q126 194 166 251t58 71t38.5 19t48.5 5q36 0 58 -8.5t50 -40.5q28 -41 52.5 -76t148.5 -221z" />
    <glyph glyph-name="Edieresis" unicode="&#xcb;" horiz-adv-x="1272" 
d="M1198 0h-1122v74q48 4 94 13.5t67 34.5t21 75v1011q0 44 -17 69.5t-72.5 44t-92.5 21.5v76h1046v-352h-73q-28 88 -96 168t-128 90q-58 10 -170 10h-116v-557h57q81 0 128.5 23.5t75.5 87.5t38 127h73v-574h-73q-7 50 -27.5 108t-38.5 79q-30 30 -51 40t-51 16.5t-74 6.5
h-57v-418q0 -82 10 -119t34.5 -53t94.5 -16q146 0 213.5 12.5t91.5 36.5q38 41 91.5 135.5t78.5 159.5h72zM1026 1714q0 -63 -40.5 -104t-96.5 -41t-96.5 41t-40.5 104t41 104.5t96 41.5t96 -41t41 -105zM580 1714q0 -61 -40.5 -103t-96.5 -42q-59 0 -98.5 42.5t-39.5 102.5
t40 103t98 43q55 0 96 -42.5t41 -103.5z" />
    <glyph glyph-name="Igrave" unicode="&#xcc;" horiz-adv-x="801" 
d="M68 0v74q74 6 103.5 11.5t50 19t29.5 37t9 51.5v1017q0 40 -16.5 64.5t-74 44.5t-101.5 24v76h661v-76q-52 -4 -106.5 -18t-69 -39t-14.5 -65v-1018q0 -47 23.5 -74t78.5 -40t88 -15v-74h-661zM88 1774q0 42 31 68t76 26q41 0 84 -29.5t89 -76t96 -104t106 -112.5
l-31 -39l-218 88q-162 63 -197.5 95.5t-35.5 83.5z" />
    <glyph glyph-name="Iacute" unicode="&#xcd;" horiz-adv-x="801" 
d="M68 0v74q74 6 103.5 11.5t50 19t29.5 37t9 51.5v1017q0 40 -16.5 64.5t-74 44.5t-101.5 24v76h661v-76q-52 -4 -106.5 -18t-69 -39t-14.5 -65v-1018q0 -47 23.5 -74t78.5 -40t88 -15v-74h-661zM258 1507l-30 39l120 123l57 64q117 135 199 135q45 0 75 -26t30 -68
q0 -81 -96 -121q-47 -23 -137 -58t-218 -88z" />
    <glyph glyph-name="Icircumflex" unicode="&#xce;" horiz-adv-x="801" 
d="M68 0v74q74 6 103.5 11.5t50 19t29.5 37t9 51.5v1017q0 40 -16.5 64.5t-74 44.5t-101.5 24v76h661v-76q-52 -4 -106.5 -18t-69 -39t-14.5 -65v-1018q0 -47 23.5 -74t78.5 -40t88 -15v-74h-661zM713 1506l-47 -33l-264 209l-264 -209l-45 33q126 194 166 251t58 71
t38.5 19t48.5 5q36 0 58 -8.5t50 -40.5q28 -41 52.5 -76t148.5 -221z" />
    <glyph glyph-name="Idieresis" unicode="&#xcf;" horiz-adv-x="801" 
d="M68 0v74q74 6 103.5 11.5t50 19t29.5 37t9 51.5v1017q0 40 -16.5 64.5t-74 44.5t-101.5 24v76h661v-76q-52 -4 -106.5 -18t-69 -39t-14.5 -65v-1018q0 -47 23.5 -74t78.5 -40t88 -15v-74h-661zM330 1714q0 -60 -39.5 -102.5t-98.5 -42.5q-56 0 -95.5 42.5t-39.5 102.5
q0 62 40.5 103.5t94.5 41.5q58 0 98 -41.5t40 -103.5zM745 1714q0 -62 -39.5 -103.5t-95.5 -41.5t-96.5 41t-40.5 104q0 65 41 105t96 40t95 -40.5t40 -104.5z" />
    <glyph glyph-name="Eth" unicode="&#xd0;" horiz-adv-x="1483" 
d="M1409 700q0 -206 -89 -364t-261.5 -247t-388.5 -89h-590v74q101 7 128.5 21.5t38.5 40t11 57.5v499h-170v103h170v413q0 41 -16 68.5t-62.5 45t-95.5 21.5v76h621q202 0 370.5 -94t251 -254.5t82.5 -370.5zM1094 700q0 287 -115 460t-309 173l-131 -4v-534h245v-103h-245
v-446q0 -84 40 -122t128 -38q190 0 288.5 155t98.5 459z" />
    <glyph glyph-name="Ntilde" unicode="&#xd1;" horiz-adv-x="1485" 
d="M1466 1343q-51 -5 -97.5 -20.5t-64.5 -34.5t-29 -51.5t-16.5 -87t-5.5 -135.5v-1026h-123l-772 1130v-698q0 -78 6 -134t17.5 -89.5t32.5 -56t74 -41.5t96 -25v-74h-545v74q27 2 81.5 18.5t76 36t33 51t17 87.5t5.5 141v686q0 64 -24.5 118.5t-82.5 88t-120 42.5v76h430
l694 -1016v601q0 123 -16 188t-48 94q-22 16 -72 34t-91 23v76h544v-76zM1141 1840q-29 -114 -100 -193.5t-152 -79.5q-56 0 -97.5 16.5t-76 37t-66 37t-65.5 16.5q-38 0 -65 -28t-69 -114l-63 29q38 118 108.5 193t145.5 75q51 0 93 -16.5t77 -36t66 -35.5t61 -16
q32 0 54 10t39 32t48 95z" />
    <glyph glyph-name="Ograve" unicode="&#xd2;" horiz-adv-x="1483" 
d="M1409 713q0 -215 -85.5 -388t-239 -267.5t-345.5 -94.5q-186 0 -340 95t-239.5 264t-85.5 378q0 218 86 390.5t240 268t341 95.5q188 0 341 -93.5t240 -264t87 -383.5zM1094 711q0 303 -92 477t-261 174q-168 0 -260 -171.5t-92 -483.5q0 -307 92.5 -478.5t259.5 -171.5
q171 0 262 173.5t91 480.5zM403 1774q0 42 31 68t76 26q41 0 84 -29.5t89 -76t96 -104t106 -112.5l-31 -39l-218 88q-162 63 -197.5 95.5t-35.5 83.5z" />
    <glyph glyph-name="Oacute" unicode="&#xd3;" horiz-adv-x="1483" 
d="M1409 713q0 -215 -85.5 -388t-239 -267.5t-345.5 -94.5q-186 0 -340 95t-239.5 264t-85.5 378q0 218 86 390.5t240 268t341 95.5q188 0 341 -93.5t240 -264t87 -383.5zM1094 711q0 303 -92 477t-261 174q-168 0 -260 -171.5t-92 -483.5q0 -307 92.5 -478.5t259.5 -171.5
q171 0 262 173.5t91 480.5zM608 1507l-30 39l120 123l57 64q117 135 199 135q45 0 75 -26t30 -68q0 -81 -96 -121q-47 -23 -137 -58t-218 -88z" />
    <glyph glyph-name="Ocircumflex" unicode="&#xd4;" horiz-adv-x="1483" 
d="M1409 713q0 -215 -85.5 -388t-239 -267.5t-345.5 -94.5q-186 0 -340 95t-239.5 264t-85.5 378q0 218 86 390.5t240 268t341 95.5q188 0 341 -93.5t240 -264t87 -383.5zM1094 711q0 303 -92 477t-261 174q-168 0 -260 -171.5t-92 -483.5q0 -307 92.5 -478.5t259.5 -171.5
q171 0 262 173.5t91 480.5zM1053 1522l-47 -33l-264 209l-264 -209l-45 33q126 194 166 251t58 71t38.5 19t48.5 5q36 0 58 -8.5t50 -40.5q28 -41 52.5 -76t148.5 -221z" />
    <glyph glyph-name="Otilde" unicode="&#xd5;" horiz-adv-x="1483" 
d="M1409 713q0 -215 -85.5 -388t-239 -267.5t-345.5 -94.5q-186 0 -340 95t-239.5 264t-85.5 378q0 218 86 390.5t240 268t341 95.5q188 0 341 -93.5t240 -264t87 -383.5zM1094 711q0 303 -92 477t-261 174q-168 0 -260 -171.5t-92 -483.5q0 -307 92.5 -478.5t259.5 -171.5
q171 0 262 173.5t91 480.5zM1123 1840q-29 -114 -100 -193.5t-152 -79.5q-56 0 -97.5 16.5t-76 37t-66 37t-65.5 16.5q-38 0 -65 -28t-69 -114l-63 29q38 118 108.5 193t145.5 75q51 0 93 -16.5t77 -36t66 -35.5t61 -16q32 0 54 10t39 32t48 95z" />
    <glyph glyph-name="Odieresis" unicode="&#xd6;" horiz-adv-x="1483" 
d="M1409 713q0 -215 -85.5 -388t-239 -267.5t-345.5 -94.5q-186 0 -340 95t-239.5 264t-85.5 378q0 218 86 390.5t240 268t341 95.5q188 0 341 -93.5t240 -264t87 -383.5zM1094 711q0 303 -92 477t-261 174q-168 0 -260 -171.5t-92 -483.5q0 -307 92.5 -478.5t259.5 -171.5
q171 0 262 173.5t91 480.5zM1102 1714q0 -63 -40.5 -104t-96.5 -41t-96.5 41t-40.5 104t41 104.5t96 41.5t96 -41t41 -105zM656 1714q0 -61 -40.5 -103t-96.5 -42q-59 0 -98.5 42.5t-39.5 102.5t40 103t98 43q55 0 96 -42.5t41 -103.5z" />
    <glyph glyph-name="multiply" unicode="&#xd7;" horiz-adv-x="1380" 
d="M1061 94l-373 373l-373 -375l-100 103l373 372l-373 371l100 102l373 -372l373 372l100 -102l-375 -371l375 -372z" />
    <glyph glyph-name="Oslash" unicode="&#xd8;" horiz-adv-x="1483" 
d="M1409 713q0 -215 -85.5 -388t-239 -267.5t-345.5 -94.5q-241 0 -420 154l-165 -205l-70 57l172 209q-182 207 -182 522q0 218 86 390.5t240 268t341 95.5q122 0 232 -41t196 -119l164 199l70 -59l-170 -205q176 -209 176 -516zM389 707q0 -199 35 -324l608 739
q-45 119 -119 179.5t-172 60.5q-168 0 -260 -171.5t-92 -483.5zM1094 711q0 195 -31 309l-608 -737q42 -107 114 -166.5t172 -59.5q171 0 262 173.5t91 480.5z" />
    <glyph glyph-name="Ugrave" unicode="&#xd9;" horiz-adv-x="1470" 
d="M1462 1343q-67 -6 -122.5 -28.5t-74 -91t-18.5 -205.5v-572q0 -146 -64 -255.5t-177 -168.5t-248 -59q-245 0 -386 123.5t-141 341.5v780q0 46 -18 73t-53 40t-94 25v73h616v-73q-105 -17 -128.5 -30t-32.5 -39t-9 -58v-750q0 -383 307 -383q151 0 236.5 101.5
t85.5 287.5v533q0 224 -60 278q-23 18 -70.5 34.5t-97.5 22.5v76h549v-76zM469 1774q0 42 31 68t76 26q41 0 84 -29.5t89 -76t96 -104t106 -112.5l-31 -39l-218 88q-162 63 -197.5 95.5t-35.5 83.5z" />
    <glyph glyph-name="Uacute" unicode="&#xda;" horiz-adv-x="1470" 
d="M1462 1343q-67 -6 -122.5 -28.5t-74 -91t-18.5 -205.5v-572q0 -146 -64 -255.5t-177 -168.5t-248 -59q-245 0 -386 123.5t-141 341.5v780q0 46 -18 73t-53 40t-94 25v73h616v-73q-105 -17 -128.5 -30t-32.5 -39t-9 -58v-750q0 -383 307 -383q151 0 236.5 101.5
t85.5 287.5v533q0 224 -60 278q-23 18 -70.5 34.5t-97.5 22.5v76h549v-76zM663 1507l-30 39l120 123l57 64q117 135 199 135q45 0 75 -26t30 -68q0 -81 -96 -121q-47 -23 -137 -58t-218 -88z" />
    <glyph glyph-name="Ucircumflex" unicode="&#xdb;" horiz-adv-x="1470" 
d="M1462 1343q-67 -6 -122.5 -28.5t-74 -91t-18.5 -205.5v-572q0 -146 -64 -255.5t-177 -168.5t-248 -59q-245 0 -386 123.5t-141 341.5v780q0 46 -18 73t-53 40t-94 25v73h616v-73q-105 -17 -128.5 -30t-32.5 -39t-9 -58v-750q0 -383 307 -383q151 0 236.5 101.5
t85.5 287.5v533q0 224 -60 278q-23 18 -70.5 34.5t-97.5 22.5v76h549v-76zM1112 1522l-47 -33l-264 209l-264 -209l-45 33q126 194 166 251t58 71t38.5 19t48.5 5q36 0 58 -8.5t50 -40.5q28 -41 52.5 -76t148.5 -221z" />
    <glyph glyph-name="Udieresis" unicode="&#xdc;" horiz-adv-x="1470" 
d="M1462 1343q-67 -6 -122.5 -28.5t-74 -91t-18.5 -205.5v-572q0 -146 -64 -255.5t-177 -168.5t-248 -59q-245 0 -386 123.5t-141 341.5v780q0 46 -18 73t-53 40t-94 25v73h616v-73q-105 -17 -128.5 -30t-32.5 -39t-9 -58v-750q0 -383 307 -383q151 0 236.5 101.5
t85.5 287.5v533q0 224 -60 278q-23 18 -70.5 34.5t-97.5 22.5v76h549v-76zM1145 1714q0 -63 -40.5 -104t-96.5 -41t-96.5 41t-40.5 104t41 104.5t96 41.5t96 -41t41 -105zM699 1714q0 -61 -40.5 -103t-96.5 -42q-59 0 -98.5 42.5t-39.5 102.5t40 103t98 43q55 0 96 -42.5
t41 -103.5z" />
    <glyph glyph-name="Yacute" unicode="&#xdd;" horiz-adv-x="1225" 
d="M1290 1343q-59 -14 -92.5 -33t-64.5 -52t-90 -135t-130.5 -232.5t-101 -184.5t-43.5 -97.5t-16 -92.5t-2 -67v-236q0 -47 23 -76t85.5 -45t91.5 -18v-74h-676v74q53 4 103.5 13.5t72 37t21.5 78.5v291q0 39 -23 97.5t-110 244.5t-140 287.5t-90 140.5t-79.5 58t-81.5 21
v76h653v-76l-53 -3q-111 -4 -111 -44q0 -24 96.5 -239.5t169.5 -358.5q105 182 196 364.5t91 213.5q0 30 -33.5 45.5t-126.5 21.5v76h461v-76zM551 1507l-30 39l120 123l57 64q117 135 199 135q45 0 75 -26t30 -68q0 -81 -96 -121q-47 -23 -137 -58t-218 -88z" />
    <glyph glyph-name="Thorn" unicode="&#xde;" horiz-adv-x="1208" 
d="M1157 756q0 -131 -67.5 -228t-189 -149.5t-273.5 -52.5h-90v-125q0 -47 18.5 -73t65.5 -38.5t94 -15.5v-74h-633v74q77 6 119 20q57 25 57 103v1013q0 41 -15 65t-66 44t-95 24v76h625v-76q-44 -4 -89 -16t-63 -37t-18 -73v-78h147q227 0 350 -99t123 -284zM844 729
q0 163 -64.5 242.5t-197.5 79.5h-45v-635h20q139 0 213 77.5t74 235.5z" />
    <glyph glyph-name="germandbls" unicode="&#xdf;" horiz-adv-x="1104" 
d="M1034 498q0 -147 -52 -263.5t-145 -180.5t-208 -64q-87 0 -142 12v84q23 -6 66 -6q98 0 150.5 108t52.5 316q0 186 -56 284.5t-159 98.5h-19v88h29q74 0 121 70t47 194q0 115 -35.5 173t-95.5 58q-85 0 -124.5 -96t-39.5 -295v-1079h-375v70l39 4q46 5 64 29.5t18 72.5
v836q0 190 45.5 294t145.5 174t239 70q159 0 258.5 -84t99.5 -225q0 -80 -36.5 -143.5t-100.5 -106t-137 -53.5v-8q100 -21 178.5 -79t125 -147.5t46.5 -205.5z" />
    <glyph glyph-name="agrave" unicode="&#xe0;" horiz-adv-x="999" 
d="M977 20q-101 -45 -180 -45q-169 0 -203 142h-6q-63 -79 -131.5 -112.5t-147.5 -33.5q-104 0 -167.5 67t-63.5 181q0 96 43 164t143 115q51 24 176 69q117 42 150 60v102q0 102 -32.5 156.5t-92.5 54.5q-59 0 -96 -37l5 -27q17 -66 17 -112q0 -51 -38 -81t-101 -30
q-61 0 -94 35t-33 96q0 97 106 165.5t254 68.5q192 0 274.5 -82t82.5 -250l-6 -481q0 -37 7.5 -60t25.5 -39.5t52 -17t56 -0.5v-68zM590 547q-107 -41 -156 -78.5t-74.5 -87.5t-25.5 -121q0 -81 30 -117.5t78 -36.5q39 0 74 21.5t70 71.5zM619 1104l-106 72
q-122 80 -183 126t-83 74t-22 68q0 38 28 65t79 27q52 0 90.5 -35t128.5 -188l106 -172z" />
    <glyph glyph-name="aacute" unicode="&#xe1;" horiz-adv-x="999" 
d="M977 20q-101 -45 -180 -45q-169 0 -203 142h-6q-63 -79 -131.5 -112.5t-147.5 -33.5q-104 0 -167.5 67t-63.5 181q0 96 43 164t143 115q51 24 176 69q117 42 150 60v102q0 102 -32.5 156.5t-92.5 54.5q-59 0 -96 -37l5 -27q17 -66 17 -112q0 -51 -38 -81t-101 -30
q-61 0 -94 35t-33 96q0 97 106 165.5t254 68.5q192 0 274.5 -82t82.5 -250l-6 -481q0 -37 7.5 -60t25.5 -39.5t52 -17t56 -0.5v-68zM590 547q-107 -41 -156 -78.5t-74.5 -87.5t-25.5 -121q0 -81 30 -117.5t78 -36.5q39 0 74 21.5t70 71.5zM334 1141l106 172q91 155 129 189
t90 34q51 0 79 -27t28 -65q0 -36 -18.5 -62.5t-57 -56.5t-58 -44t-260.5 -177z" />
    <glyph glyph-name="acircumflex" unicode="&#xe2;" horiz-adv-x="999" 
d="M977 20q-101 -45 -180 -45q-169 0 -203 142h-6q-63 -79 -131.5 -112.5t-147.5 -33.5q-104 0 -167.5 67t-63.5 181q0 96 43 164t143 115q51 24 176 69q117 42 150 60v102q0 102 -32.5 156.5t-92.5 54.5q-59 0 -96 -37l5 -27q17 -66 17 -112q0 -51 -38 -81t-101 -30
q-61 0 -94 35t-33 96q0 97 106 165.5t254 68.5q192 0 274.5 -82t82.5 -250l-6 -481q0 -37 7.5 -60t25.5 -39.5t52 -17t56 -0.5v-68zM590 547q-107 -41 -156 -78.5t-74.5 -87.5t-25.5 -121q0 -81 30 -117.5t78 -36.5q39 0 74 21.5t70 71.5zM768 1112l-264 250l-260 -250
l-49 33l200 350q16 27 39.5 39t71.5 12q43 0 64.5 -8.5t41.5 -38.5l58 -97l147 -257z" />
    <glyph glyph-name="atilde" unicode="&#xe3;" horiz-adv-x="999" 
d="M977 20q-101 -45 -180 -45q-169 0 -203 142h-6q-63 -79 -131.5 -112.5t-147.5 -33.5q-104 0 -167.5 67t-63.5 181q0 96 43 164t143 115q51 24 176 69q117 42 150 60v102q0 102 -32.5 156.5t-92.5 54.5q-59 0 -96 -37l5 -27q17 -66 17 -112q0 -51 -38 -81t-101 -30
q-61 0 -94 35t-33 96q0 97 106 165.5t254 68.5q192 0 274.5 -82t82.5 -250l-6 -481q0 -37 7.5 -60t25.5 -39.5t52 -17t56 -0.5v-68zM590 547q-107 -41 -156 -78.5t-74.5 -87.5t-25.5 -121q0 -81 30 -117.5t78 -36.5q39 0 74 21.5t70 71.5zM879 1473q-29 -114 -100 -193.5
t-152 -79.5q-56 0 -97.5 16.5t-76 37t-66 37t-65.5 16.5q-38 0 -65 -28t-69 -114l-63 29q38 118 108.5 193t145.5 75q51 0 93 -16.5t77 -36t66 -35.5t61 -16q32 0 54 10t39 32t48 95z" />
    <glyph glyph-name="adieresis" unicode="&#xe4;" horiz-adv-x="999" 
d="M977 20q-101 -45 -180 -45q-169 0 -203 142h-6q-63 -79 -131.5 -112.5t-147.5 -33.5q-104 0 -167.5 67t-63.5 181q0 96 43 164t143 115q51 24 176 69q117 42 150 60v102q0 102 -32.5 156.5t-92.5 54.5q-59 0 -96 -37l5 -27q17 -66 17 -112q0 -51 -38 -81t-101 -30
q-61 0 -94 35t-33 96q0 97 106 165.5t254 68.5q192 0 274.5 -82t82.5 -250l-6 -481q0 -37 7.5 -60t25.5 -39.5t52 -17t56 -0.5v-68zM590 547q-107 -41 -156 -78.5t-74.5 -87.5t-25.5 -121q0 -81 30 -117.5t78 -36.5q39 0 74 21.5t70 71.5zM416 1362q0 -60 -39.5 -102.5
t-98.5 -42.5q-56 0 -95.5 42.5t-39.5 102.5q0 62 40.5 103.5t94.5 41.5q58 0 98 -41.5t40 -103.5zM831 1362q0 -62 -39.5 -103.5t-95.5 -41.5t-96.5 41t-40.5 104q0 65 41 105t96 40t95 -40.5t40 -104.5z" />
    <glyph glyph-name="aring" unicode="&#xe5;" horiz-adv-x="999" 
d="M977 20q-101 -45 -180 -45q-169 0 -203 142h-6q-63 -79 -131.5 -112.5t-147.5 -33.5q-104 0 -167.5 67t-63.5 181q0 96 43 164t143 115q51 24 176 69q117 42 150 60v102q0 102 -32.5 156.5t-92.5 54.5q-59 0 -96 -37l5 -27q17 -66 17 -112q0 -51 -38 -81t-101 -30
q-61 0 -94 35t-33 96q0 97 106 165.5t254 68.5q192 0 274.5 -82t82.5 -250l-6 -481q0 -37 7.5 -60t25.5 -39.5t52 -17t56 -0.5v-68zM590 547q-107 -41 -156 -78.5t-74.5 -87.5t-25.5 -121q0 -81 30 -117.5t78 -36.5q39 0 74 21.5t70 71.5zM766 1333q0 -102 -73.5 -164.5
t-194.5 -62.5q-124 0 -196 62t-72 165q0 100 74 164t194 64q122 0 195 -62.5t73 -165.5zM629 1333q0 69 -33 114.5t-98 45.5q-63 0 -97 -42.5t-34 -117.5q0 -71 33 -115t98 -44t98 43.5t33 115.5z" />
    <glyph glyph-name="ae" unicode="&#xe6;" horiz-adv-x="1460" 
d="M1423 236q-60 -124 -163.5 -195.5t-227.5 -71.5q-132 0 -218 46.5t-150 146.5h-5q-71 -100 -153 -145.5t-182 -45.5q-112 0 -179 65t-67 183q0 85 34 148.5t105 106t236 99.5q96 33 137 54v114q0 89 -34 144t-89 55q-31 0 -57.5 -10.5t-40.5 -26.5q3 -23 12.5 -60
t9.5 -77q0 -51 -37 -82t-104 -31q-59 0 -92 33.5t-33 97.5q0 62 48.5 116.5t133.5 86t180 31.5q88 0 158 -21t121 -79q107 100 244 100q183 0 286 -111.5t103 -306.5v-74h-568q0 -208 72 -318t209 -110q69 0 126 40t118 145zM590 547q-102 -37 -153 -75t-77 -90t-26 -122
q0 -154 108 -154q87 0 148 89v352zM1143 612q0 328 -142 328q-73 0 -121.5 -92.5t-48.5 -237.5z" />
    <glyph glyph-name="ccedilla" unicode="&#xe7;" horiz-adv-x="897" 
d="M897 242q-64 -131 -162.5 -202t-218.5 -71q-208 0 -327 142.5t-119 386.5q0 140 59 260.5t164 190t235 69.5q149 0 234.5 -71t85.5 -187q0 -69 -34.5 -106.5t-98.5 -37.5q-60 0 -100 30t-40 87q0 47 10.5 88.5t16.5 73.5q-25 45 -88 45q-49 0 -86 -49.5t-57.5 -147
t-20.5 -229.5q0 -188 66.5 -302t173.5 -114q71 0 127 43.5t110 145.5zM700 -250q0 -103 -86 -148.5t-295 -45.5v73q120 0 166.5 19.5t46.5 66.5q0 35 -27 52.5t-106 17.5v231h82v-112q109 0 164 -40t55 -114z" />
    <glyph glyph-name="egrave" unicode="&#xe8;" horiz-adv-x="967" 
d="M930 236q-67 -127 -167.5 -197t-227.5 -70q-217 0 -341 142.5t-124 388.5q0 141 56.5 261.5t157.5 188.5t228 68q187 0 290 -112t103 -314v-66h-567q0 -209 70.5 -318.5t207.5 -109.5q71 0 128 40.5t118 144.5zM649 612q0 328 -141 328q-75 0 -121.5 -91.5t-48.5 -238.5z
M639 1104l-106 72q-122 80 -183 126t-83 74t-22 68q0 38 28 65t79 27q52 0 90.5 -35t128.5 -188l106 -172z" />
    <glyph glyph-name="eacute" unicode="&#xe9;" horiz-adv-x="967" 
d="M930 236q-67 -127 -167.5 -197t-227.5 -70q-217 0 -341 142.5t-124 388.5q0 141 56.5 261.5t157.5 188.5t228 68q187 0 290 -112t103 -314v-66h-567q0 -209 70.5 -318.5t207.5 -109.5q71 0 128 40.5t118 144.5zM649 612q0 328 -141 328q-75 0 -121.5 -91.5t-48.5 -238.5z
M375 1141l106 172q91 155 129 189t90 34q51 0 79 -27t28 -65q0 -36 -18.5 -62.5t-57 -56.5t-58 -44t-260.5 -177z" />
    <glyph glyph-name="ecircumflex" unicode="&#xea;" horiz-adv-x="967" 
d="M930 236q-67 -127 -167.5 -197t-227.5 -70q-217 0 -341 142.5t-124 388.5q0 141 56.5 261.5t157.5 188.5t228 68q187 0 290 -112t103 -314v-66h-567q0 -209 70.5 -318.5t207.5 -109.5q71 0 128 40.5t118 144.5zM649 612q0 328 -141 328q-75 0 -121.5 -91.5t-48.5 -238.5z
M768 1110l-264 250l-260 -250l-49 33l200 350q16 27 39.5 39t71.5 12q43 0 64.5 -8.5t41.5 -38.5l58 -97l147 -257z" />
    <glyph glyph-name="edieresis" unicode="&#xeb;" horiz-adv-x="967" 
d="M930 236q-67 -127 -167.5 -197t-227.5 -70q-217 0 -341 142.5t-124 388.5q0 141 56.5 261.5t157.5 188.5t228 68q187 0 290 -112t103 -314v-66h-567q0 -209 70.5 -318.5t207.5 -109.5q71 0 128 40.5t118 144.5zM649 612q0 328 -141 328q-75 0 -121.5 -91.5t-48.5 -238.5z
M443 1362q0 -60 -39.5 -102.5t-98.5 -42.5q-56 0 -95.5 42.5t-39.5 102.5q0 62 40.5 103.5t94.5 41.5q58 0 98 -41.5t40 -103.5zM858 1362q0 -62 -39.5 -103.5t-95.5 -41.5t-96.5 41t-40.5 104q0 65 41 105t96 40t95 -40.5t40 -104.5z" />
    <glyph glyph-name="igrave" unicode="&#xec;" horiz-adv-x="612" 
d="M63 0v70l43 4q39 3 61.5 24.5t22.5 77.5v594q0 60 -42.5 96t-110.5 41v72l391 20l14 -14v-797q0 -55 30 -82.5t97 -35.5v-70h-506zM426 1104l-106 72q-122 80 -183 126t-83 74t-22 68q0 38 28 65t79 27q52 0 90.5 -35t128.5 -188l106 -172z" />
    <glyph glyph-name="iacute" unicode="&#xed;" horiz-adv-x="612" 
d="M63 0v70l43 4q39 3 61.5 24.5t22.5 77.5v594q0 60 -42.5 96t-110.5 41v72l391 20l14 -14v-797q0 -55 30 -82.5t97 -35.5v-70h-506zM166 1141l106 172q91 155 129 189t90 34q51 0 79 -27t28 -65q0 -36 -18.5 -62.5t-57 -56.5t-58 -44t-260.5 -177z" />
    <glyph glyph-name="icircumflex" unicode="&#xee;" horiz-adv-x="612" 
d="M63 0v70l43 4q39 3 61.5 24.5t22.5 77.5v594q0 60 -42.5 96t-110.5 41v72l391 20l14 -14v-797q0 -55 30 -82.5t97 -35.5v-70h-506zM573 1110l-264 250l-260 -250l-49 33l200 350q16 27 39.5 39t71.5 12q43 0 64.5 -8.5t41.5 -38.5l58 -97l147 -257z" />
    <glyph glyph-name="idieresis" unicode="&#xef;" horiz-adv-x="612" 
d="M63 0v70l43 4q39 3 61.5 24.5t22.5 77.5v594q0 60 -42.5 96t-110.5 41v72l391 20l14 -14v-797q0 -55 30 -82.5t97 -35.5v-70h-506zM209 1362q0 -60 -39.5 -102.5t-98.5 -42.5q-56 0 -95.5 42.5t-39.5 102.5q0 62 40.5 103.5t94.5 41.5q58 0 98 -41.5t40 -103.5zM624 1362
q0 -62 -39.5 -103.5t-95.5 -41.5t-96.5 41t-40.5 104q0 65 41 105t96 40t95 -40.5t40 -104.5z" />
    <glyph glyph-name="eth" unicode="&#xf0;" horiz-adv-x="1096" 
d="M1024 621q0 -303 -128.5 -478.5t-356.5 -175.5q-133 0 -240.5 65.5t-168 186.5t-60.5 275q0 147 55.5 264.5t155.5 181.5t227 64q85 0 147.5 -38t96.5 -92l8 3q-11 101 -48 203.5t-94 191.5l-206 -135l-50 82l203 129q-49 64 -153 139l47 67q34 -16 96.5 -55.5
t114.5 -81.5l188 123l53 -82l-170 -106q147 -155 215 -333t68 -398zM741 508q0 191 -50.5 298t-143.5 107q-197 0 -197 -411q0 -231 48.5 -343t148.5 -112q95 0 144.5 116.5t49.5 344.5z" />
    <glyph glyph-name="ntilde" unicode="&#xf1;" horiz-adv-x="1157" 
d="M631 0v70l39 4q39 4 54 28.5t15 73.5v486q0 106 -33.5 159t-87.5 53q-53 0 -100.5 -36.5t-77.5 -100.5v-551q0 -50 23.5 -78t89.5 -38v-70h-490v70q72 6 90.5 17t27.5 34t9 55v594q0 37 -20 72.5t-46.5 48t-74.5 16.5v72l377 20l14 -14v-141h4q73 84 109.5 112t82 44
t103.5 16q123 0 188.5 -86.5t65.5 -245.5v-500q0 -53 26 -79t97 -35v-70h-485zM969 1473q-29 -114 -100 -193.5t-152 -79.5q-56 0 -97.5 16.5t-76 37t-66 37t-65.5 16.5q-38 0 -65 -28t-69 -114l-63 29q38 118 108.5 193t145.5 75q51 0 93 -16.5t77 -36t66 -35.5t61 -16
q32 0 54 10t39 32t48 95z" />
    <glyph glyph-name="ograve" unicode="&#xf2;" horiz-adv-x="1090" 
d="M1020 502q0 -155 -59.5 -277.5t-170 -190t-253.5 -67.5q-131 0 -238.5 66.5t-168 186.5t-60.5 272q0 234 130 380t347 146q213 0 343 -141.5t130 -374.5zM739 504q0 211 -49 323.5t-143 112.5q-95 0 -146 -110.5t-51 -321.5q0 -225 50 -343t147 -118q92 0 142 119.5
t50 337.5zM682 1104l-106 72q-122 80 -183 126t-83 74t-22 68q0 38 28 65t79 27q52 0 90.5 -35t128.5 -188l106 -172z" />
    <glyph glyph-name="oacute" unicode="&#xf3;" horiz-adv-x="1090" 
d="M1020 502q0 -155 -59.5 -277.5t-170 -190t-253.5 -67.5q-131 0 -238.5 66.5t-168 186.5t-60.5 272q0 234 130 380t347 146q213 0 343 -141.5t130 -374.5zM739 504q0 211 -49 323.5t-143 112.5q-95 0 -146 -110.5t-51 -321.5q0 -225 50 -343t147 -118q92 0 142 119.5
t50 337.5zM406 1141l106 172q91 155 129 189t90 34q51 0 79 -27t28 -65q0 -36 -18.5 -62.5t-57 -56.5t-58 -44t-260.5 -177z" />
    <glyph glyph-name="ocircumflex" unicode="&#xf4;" horiz-adv-x="1090" 
d="M1020 502q0 -155 -59.5 -277.5t-170 -190t-253.5 -67.5q-131 0 -238.5 66.5t-168 186.5t-60.5 272q0 234 130 380t347 146q213 0 343 -141.5t130 -374.5zM739 504q0 211 -49 323.5t-143 112.5q-95 0 -146 -110.5t-51 -321.5q0 -225 50 -343t147 -118q92 0 142 119.5
t50 337.5zM807 1110l-264 250l-260 -250l-49 33l200 350q16 27 39.5 39t71.5 12q43 0 64.5 -8.5t41.5 -38.5l58 -97l147 -257z" />
    <glyph glyph-name="otilde" unicode="&#xf5;" horiz-adv-x="1090" 
d="M1020 502q0 -155 -59.5 -277.5t-170 -190t-253.5 -67.5q-131 0 -238.5 66.5t-168 186.5t-60.5 272q0 234 130 380t347 146q213 0 343 -141.5t130 -374.5zM739 504q0 211 -49 323.5t-143 112.5q-95 0 -146 -110.5t-51 -321.5q0 -225 50 -343t147 -118q92 0 142 119.5
t50 337.5zM926 1473q-29 -114 -100 -193.5t-152 -79.5q-56 0 -97.5 16.5t-76 37t-66 37t-65.5 16.5q-38 0 -65 -28t-69 -114l-63 29q38 118 108.5 193t145.5 75q51 0 93 -16.5t77 -36t66 -35.5t61 -16q32 0 54 10t39 32t48 95z" />
    <glyph glyph-name="odieresis" unicode="&#xf6;" horiz-adv-x="1090" 
d="M1020 502q0 -155 -59.5 -277.5t-170 -190t-253.5 -67.5q-131 0 -238.5 66.5t-168 186.5t-60.5 272q0 234 130 380t347 146q213 0 343 -141.5t130 -374.5zM739 504q0 211 -49 323.5t-143 112.5q-95 0 -146 -110.5t-51 -321.5q0 -225 50 -343t147 -118q92 0 142 119.5
t50 337.5zM473 1358q0 -60 -39.5 -102.5t-98.5 -42.5q-56 0 -95.5 42.5t-39.5 102.5q0 62 40.5 103.5t94.5 41.5q58 0 98 -41.5t40 -103.5zM888 1358q0 -62 -39.5 -103.5t-95.5 -41.5t-96.5 41t-40.5 104q0 65 41 105t96 40t95 -40.5t40 -104.5z" />
    <glyph glyph-name="divide" unicode="&#xf7;" horiz-adv-x="1380" 
d="M836 973q0 -60 -44 -104t-102 -44q-59 0 -103 43t-44 105q0 61 43 104t104 43q60 0 103 -44t43 -103zM154 496v143h1071v-143h-1071zM836 160q0 -60 -43 -104t-103 -44q-61 0 -104 43t-43 105q0 59 42.5 103t104.5 44q60 0 103 -44.5t43 -102.5z" />
    <glyph glyph-name="oslash" unicode="&#xf8;" horiz-adv-x="1090" 
d="M1020 502q0 -155 -59.5 -277.5t-170 -190t-253.5 -67.5q-167 0 -291 105l-137 -164l-58 53l139 166q-120 143 -120 365q0 234 130 380t347 146q179 0 303 -105l135 160l57 -55l-135 -162q113 -137 113 -354zM350 508q0 -116 8 -180l359 426q-30 102 -70.5 144t-99.5 42
q-95 0 -146 -110.5t-51 -321.5zM739 504q0 77 -6 145l-356 -422q51 -180 170 -180q92 0 142 119.5t50 337.5z" />
    <glyph glyph-name="ugrave" unicode="&#xf9;" horiz-adv-x="1128" 
d="M723 -6l-16 14v127h-5q-67 -92 -134 -128t-154 -36q-122 0 -186 89t-64 249v465q0 42 -17.5 72.5t-42.5 42t-77 18.5v70l376 22l15 -14v-674q0 -110 31 -158.5t90 -48.5q36 0 65 16t51.5 39t51.5 74v551q0 65 -41 101q-25 17 -95 22v70l369 22l16 -14v-776
q0 -36 15 -63.5t36.5 -40t84.5 -17.5v-68zM641 1104l-106 72q-122 80 -183 126t-83 74t-22 68q0 38 28 65t79 27q52 0 90.5 -35t128.5 -188l106 -172z" />
    <glyph glyph-name="uacute" unicode="&#xfa;" horiz-adv-x="1128" 
d="M723 -6l-16 14v127h-5q-67 -92 -134 -128t-154 -36q-122 0 -186 89t-64 249v465q0 42 -17.5 72.5t-42.5 42t-77 18.5v70l376 22l15 -14v-674q0 -110 31 -158.5t90 -48.5q36 0 65 16t51.5 39t51.5 74v551q0 65 -41 101q-25 17 -95 22v70l369 22l16 -14v-776
q0 -36 15 -63.5t36.5 -40t84.5 -17.5v-68zM398 1141l106 172q91 155 129 189t90 34q51 0 79 -27t28 -65q0 -36 -18.5 -62.5t-57 -56.5t-58 -44t-260.5 -177z" />
    <glyph glyph-name="ucircumflex" unicode="&#xfb;" horiz-adv-x="1128" 
d="M723 -6l-16 14v127h-5q-67 -92 -134 -128t-154 -36q-122 0 -186 89t-64 249v465q0 42 -17.5 72.5t-42.5 42t-77 18.5v70l376 22l15 -14v-674q0 -110 31 -158.5t90 -48.5q36 0 65 16t51.5 39t51.5 74v551q0 65 -41 101q-25 17 -95 22v70l369 22l16 -14v-776
q0 -36 15 -63.5t36.5 -40t84.5 -17.5v-68zM809 1110l-264 250l-260 -250l-49 33l200 350q16 27 39.5 39t71.5 12q43 0 64.5 -8.5t41.5 -38.5l58 -97l147 -257z" />
    <glyph glyph-name="udieresis" unicode="&#xfc;" horiz-adv-x="1128" 
d="M723 -6l-16 14v127h-5q-67 -92 -134 -128t-154 -36q-122 0 -186 89t-64 249v465q0 42 -17.5 72.5t-42.5 42t-77 18.5v70l376 22l15 -14v-674q0 -110 31 -158.5t90 -48.5q36 0 65 16t51.5 39t51.5 74v551q0 65 -41 101q-25 17 -95 22v70l369 22l16 -14v-776
q0 -36 15 -63.5t36.5 -40t84.5 -17.5v-68zM459 1362q0 -60 -39.5 -102.5t-98.5 -42.5q-56 0 -95.5 42.5t-39.5 102.5q0 62 40.5 103.5t94.5 41.5q58 0 98 -41.5t40 -103.5zM874 1362q0 -62 -39.5 -103.5t-95.5 -41.5t-96.5 41t-40.5 104q0 65 41 105t96 40t95 -40.5
t40 -104.5z" />
    <glyph glyph-name="yacute" unicode="&#xfd;" horiz-adv-x="942" 
d="M975 922q-35 -7 -71.5 -34t-57.5 -83l-49 -129q-213 -565 -304.5 -766t-165 -277.5t-173.5 -76.5q-72 0 -118 43.5t-46 103.5q0 59 33.5 97t82.5 38q31 0 56 -12t46.5 -32.5t59.5 -74.5q35 23 84 109.5t80 167.5l-88 234q-131 349 -233 583q-44 94 -134 107v67h480v-69
q-92 -6 -92 -41q0 -20 12 -54l36 -107q92 -276 152 -421q83 227 129.5 369t46.5 186q0 25 -30 44.5t-80 25.5v67h344v-65zM363 1141l106 172q91 155 129 189t90 34q51 0 79 -27t28 -65q0 -36 -18.5 -62.5t-57 -56.5t-58 -44t-260.5 -177z" />
    <glyph glyph-name="thorn" unicode="&#xfe;" horiz-adv-x="1100" 
d="M1030 483q0 -140 -55.5 -257.5t-151.5 -185t-207 -67.5q-132 0 -210 68h-9v-287q0 -46 19 -72t79.5 -40t82.5 -15v-71h-580v69q83 10 108.5 22.5t34.5 51.5t4 41v1567q0 29 -10 57t-25.5 46t-37.5 26t-92 20v68l405 24l14 -14v-657l7 -3q52 69 118.5 105.5t130.5 36.5
q109 0 194.5 -66t133 -189.5t47.5 -277.5zM752 485q0 185 -54 291.5t-149 106.5q-92 0 -152 -95v-581q19 -69 61.5 -110.5t102.5 -41.5q87 0 139 112t52 318z" />
    <glyph glyph-name="ydieresis" unicode="&#xff;" horiz-adv-x="942" 
d="M975 922q-35 -7 -71.5 -34t-57.5 -83l-49 -129q-213 -565 -304.5 -766t-165 -277.5t-173.5 -76.5q-72 0 -118 43.5t-46 103.5q0 59 33.5 97t82.5 38q31 0 56 -12t46.5 -32.5t59.5 -74.5q35 23 84 109.5t80 167.5l-88 234q-131 349 -233 583q-44 94 -134 107v67h480v-69
q-92 -6 -92 -41q0 -20 12 -54l36 -107q92 -276 152 -421q83 227 129.5 369t46.5 186q0 25 -30 44.5t-80 25.5v67h344v-65zM430 1360q0 -60 -39.5 -102.5t-98.5 -42.5q-56 0 -95.5 42.5t-39.5 102.5q0 62 40.5 103.5t94.5 41.5q58 0 98 -41.5t40 -103.5zM845 1360
q0 -62 -39.5 -103.5t-95.5 -41.5t-96.5 41t-40.5 104q0 65 41 105t96 40t95 -40.5t40 -104.5z" />
    <glyph glyph-name="Amacron" unicode="&#x100;" horiz-adv-x="1317" 
d="M733 0v74q76 5 125 19.5t49 37.5q0 13 -6 38.5t-102 313.5h-428q-38 -96 -66.5 -193t-28.5 -128q0 -35 45.5 -58t133.5 -30v-74h-502v74q154 11 221 176q74 183 159.5 419.5t264.5 770.5h135l441 -1227q13 -36 31.5 -62t56.5 -48t96 -29v-74h-625zM584 1114l-181 -539
h365zM348 1637v155h635v-155h-635z" />
    <glyph glyph-name="amacron" unicode="&#x101;" horiz-adv-x="999" 
d="M977 20q-101 -45 -180 -45q-169 0 -203 142h-6q-63 -79 -131.5 -112.5t-147.5 -33.5q-104 0 -167.5 67t-63.5 181q0 96 43 164t143 115q51 24 176 69q117 42 150 60v102q0 102 -32.5 156.5t-92.5 54.5q-59 0 -96 -37l5 -27q17 -66 17 -112q0 -51 -38 -81t-101 -30
q-61 0 -94 35t-33 96q0 97 106 165.5t254 68.5q192 0 274.5 -82t82.5 -250l-6 -481q0 -37 7.5 -60t25.5 -39.5t52 -17t56 -0.5v-68zM590 547q-107 -41 -156 -78.5t-74.5 -87.5t-25.5 -121q0 -81 30 -117.5t78 -36.5q39 0 74 21.5t70 71.5zM192 1264v155h635v-155h-635z" />
    <glyph glyph-name="Abreve" unicode="&#x102;" horiz-adv-x="1317" 
d="M733 0v74q76 5 125 19.5t49 37.5q0 13 -6 38.5t-102 313.5h-428q-38 -96 -66.5 -193t-28.5 -128q0 -35 45.5 -58t133.5 -30v-74h-502v74q154 11 221 176q74 183 159.5 419.5t264.5 770.5h135l441 -1227q13 -36 31.5 -62t56.5 -48t96 -29v-74h-625zM584 1114l-181 -539
h365zM951 1859q-23 -165 -93.5 -245t-197.5 -80q-247 0 -291 325l64 19q24 -88 76.5 -135t150.5 -47q94 0 147.5 46t79.5 136z" />
    <glyph glyph-name="abreve" unicode="&#x103;" horiz-adv-x="999" 
d="M977 20q-101 -45 -180 -45q-169 0 -203 142h-6q-63 -79 -131.5 -112.5t-147.5 -33.5q-104 0 -167.5 67t-63.5 181q0 96 43 164t143 115q51 24 176 69q117 42 150 60v102q0 102 -32.5 156.5t-92.5 54.5q-59 0 -96 -37l5 -27q17 -66 17 -112q0 -51 -38 -81t-101 -30
q-61 0 -94 35t-33 96q0 97 106 165.5t254 68.5q192 0 274.5 -82t82.5 -250l-6 -481q0 -37 7.5 -60t25.5 -39.5t52 -17t56 -0.5v-68zM590 547q-107 -41 -156 -78.5t-74.5 -87.5t-25.5 -121q0 -81 30 -117.5t78 -36.5q39 0 74 21.5t70 71.5zM785 1513q-52 -383 -287 -383
q-120 0 -192 100.5t-95 282.5l64 15q27 -101 54.5 -144.5t67.5 -66.5t101 -23q60 0 101 22t68.5 66.5t55.5 145.5z" />
    <glyph glyph-name="Aogonek" unicode="&#x104;" horiz-adv-x="1317" 
d="M733 0v74q76 5 125 19.5t49 37.5q0 13 -6 38.5t-102 313.5h-428q-38 -96 -66.5 -193t-28.5 -128q0 -35 45.5 -58t133.5 -30v-74h-502v74q154 11 221 176q74 183 159.5 419.5t264.5 770.5h135l441 -1227q13 -36 31.5 -62t56.5 -48t96 -29v-74h-625zM584 1114l-181 -539
h365zM1251 -444q-186 0 -271 48.5t-85 145.5q0 163 229 289h74q-119 -124 -119 -260q0 -66 40 -104.5t135 -43.5v-75h-3z" />
    <glyph glyph-name="aogonek" unicode="&#x105;" horiz-adv-x="999" 
d="M977 20q-101 -45 -180 -45q-169 0 -203 142h-6q-63 -79 -131.5 -112.5t-147.5 -33.5q-104 0 -167.5 67t-63.5 181q0 96 43 164t143 115q51 24 176 69q117 42 150 60v102q0 102 -32.5 156.5t-92.5 54.5q-59 0 -96 -37l5 -27q17 -66 17 -112q0 -51 -38 -81t-101 -30
q-61 0 -94 35t-33 96q0 97 106 165.5t254 68.5q192 0 274.5 -82t82.5 -250l-6 -481q0 -37 7.5 -60t25.5 -39.5t52 -17t56 -0.5v-68zM590 547q-107 -41 -156 -78.5t-74.5 -87.5t-25.5 -121q0 -81 30 -117.5t78 -36.5q39 0 74 21.5t70 71.5zM899 -444q-186 0 -271 48.5
t-85 145.5q0 163 229 289h74q-119 -124 -119 -260q0 -66 40 -104.5t135 -43.5v-75h-3z" />
    <glyph glyph-name="Cacute" unicode="&#x106;" horiz-adv-x="1276" 
d="M1249 356q-167 -393 -547 -393q-176 0 -321 92.5t-226 260.5t-81 380q0 217 83.5 391t234.5 269.5t335 95.5q189 0 330 -94l47 61h78l10 -512h-82q-55 235 -143.5 345t-214.5 110q-173 0 -269 -167.5t-96 -475.5q0 -288 108 -457.5t296 -169.5q116 0 205.5 70.5
t174.5 238.5zM528 1507l-30 39l120 123l57 64q117 135 199 135q45 0 75 -26t30 -68q0 -81 -96 -121q-47 -23 -137 -58t-218 -88z" />
    <glyph glyph-name="cacute" unicode="&#x107;" horiz-adv-x="897" 
d="M897 242q-64 -131 -162.5 -202t-218.5 -71q-208 0 -327 142.5t-119 386.5q0 140 59 260.5t164 190t235 69.5q149 0 234.5 -71t85.5 -187q0 -69 -34.5 -106.5t-98.5 -37.5q-60 0 -100 30t-40 87q0 47 10.5 88.5t16.5 73.5q-25 45 -88 45q-49 0 -86 -49.5t-57.5 -147
t-20.5 -229.5q0 -188 66.5 -302t173.5 -114q71 0 127 43.5t110 145.5zM322 1141l106 172q91 155 129 189t90 34q51 0 79 -27t28 -65q0 -36 -18.5 -62.5t-57 -56.5t-58 -44t-260.5 -177z" />
    <glyph glyph-name="Ccircumflex" unicode="&#x108;" horiz-adv-x="1276" 
d="M1249 356q-167 -393 -547 -393q-176 0 -321 92.5t-226 260.5t-81 380q0 217 83.5 391t234.5 269.5t335 95.5q189 0 330 -94l47 61h78l10 -512h-82q-55 235 -143.5 345t-214.5 110q-173 0 -269 -167.5t-96 -475.5q0 -288 108 -457.5t296 -169.5q116 0 205.5 70.5
t174.5 238.5zM1018 1522l-47 -33l-264 209l-264 -209l-45 33q126 194 166 251t58 71t38.5 19t48.5 5q36 0 58 -8.5t50 -40.5q28 -41 52.5 -76t148.5 -221z" />
    <glyph glyph-name="ccircumflex" unicode="&#x109;" horiz-adv-x="897" 
d="M897 242q-64 -131 -162.5 -202t-218.5 -71q-208 0 -327 142.5t-119 386.5q0 140 59 260.5t164 190t235 69.5q149 0 234.5 -71t85.5 -187q0 -69 -34.5 -106.5t-98.5 -37.5q-60 0 -100 30t-40 87q0 47 10.5 88.5t16.5 73.5q-25 45 -88 45q-49 0 -86 -49.5t-57.5 -147
t-20.5 -229.5q0 -188 66.5 -302t173.5 -114q71 0 127 43.5t110 145.5zM760 1110l-264 250l-260 -250l-49 33l200 350q16 27 39.5 39t71.5 12q43 0 64.5 -8.5t41.5 -38.5l58 -97l147 -257z" />
    <glyph glyph-name="Cdotaccent" unicode="&#x10a;" horiz-adv-x="1276" 
d="M1249 356q-167 -393 -547 -393q-176 0 -321 92.5t-226 260.5t-81 380q0 217 83.5 391t234.5 269.5t335 95.5q189 0 330 -94l47 61h78l10 -512h-82q-55 235 -143.5 345t-214.5 110q-173 0 -269 -167.5t-96 -475.5q0 -288 108 -457.5t296 -169.5q116 0 205.5 70.5
t174.5 238.5zM870 1724q0 -64 -41.5 -109t-103.5 -45q-61 0 -102.5 44t-41.5 106q0 65 42.5 108.5t101.5 43.5q61 0 103 -43t42 -105z" />
    <glyph glyph-name="cdotaccent" unicode="&#x10b;" horiz-adv-x="897" 
d="M897 242q-64 -131 -162.5 -202t-218.5 -71q-208 0 -327 142.5t-119 386.5q0 140 59 260.5t164 190t235 69.5q149 0 234.5 -71t85.5 -187q0 -69 -34.5 -106.5t-98.5 -37.5q-60 0 -100 30t-40 87q0 47 10.5 88.5t16.5 73.5q-25 45 -88 45q-49 0 -86 -49.5t-57.5 -147
t-20.5 -229.5q0 -188 66.5 -302t173.5 -114q71 0 127 43.5t110 145.5zM645 1368q0 -64 -41.5 -109t-103.5 -45q-61 0 -102.5 44t-41.5 106q0 65 42.5 108.5t101.5 43.5q61 0 103 -43t42 -105z" />
    <glyph glyph-name="Ccaron" unicode="&#x10c;" horiz-adv-x="1276" 
d="M1249 356q-167 -393 -547 -393q-176 0 -321 92.5t-226 260.5t-81 380q0 217 83.5 391t234.5 269.5t335 95.5q189 0 330 -94l47 61h78l10 -512h-82q-55 235 -143.5 345t-214.5 110q-173 0 -269 -167.5t-96 -475.5q0 -288 108 -457.5t296 -169.5q116 0 205.5 70.5
t174.5 238.5zM1026 1841q-82 -124 -146 -214.5t-78.5 -104t-34.5 -18.5t-54 -5q-30 0 -49.5 4.5t-36 18.5t-82 109.5t-141.5 209.5l47 35l264 -209l262 209z" />
    <glyph glyph-name="ccaron" unicode="&#x10d;" horiz-adv-x="897" 
d="M897 242q-64 -131 -162.5 -202t-218.5 -71q-208 0 -327 142.5t-119 386.5q0 140 59 260.5t164 190t235 69.5q149 0 234.5 -71t85.5 -187q0 -69 -34.5 -106.5t-98.5 -37.5q-60 0 -100 30t-40 87q0 47 10.5 88.5t16.5 73.5q-25 45 -88 45q-49 0 -86 -49.5t-57.5 -147
t-20.5 -229.5q0 -188 66.5 -302t173.5 -114q71 0 127 43.5t110 145.5zM815 1511l-105 -182q-23 -41 -46 -80.5t-47 -78.5t-46.5 -49.5t-66.5 -10.5q-32 0 -53.5 6t-34.5 18t-44 61.5t-179 315.5l47 33l262 -262l131 131l133 131z" />
    <glyph glyph-name="Dcaron" unicode="&#x10e;" horiz-adv-x="1483" 
d="M1409 700q0 -206 -89 -364t-261.5 -247t-388.5 -89h-590v74q101 7 128.5 21.5t38.5 40t11 57.5v1015q0 41 -16 68.5t-62.5 45t-95.5 21.5v76h621q202 0 370.5 -94t251 -254.5t82.5 -370.5zM1094 700q0 287 -115 460t-309 173l-131 -4v-1083q0 -84 40 -122t128 -38
q190 0 288.5 155t98.5 459zM991 1833q-82 -124 -146 -214.5t-78.5 -104t-34.5 -18.5t-54 -5q-30 0 -49.5 4.5t-36 18.5t-82 109.5t-141.5 209.5l47 35l264 -209l262 209z" />
    <glyph glyph-name="dcaron" unicode="&#x10f;" horiz-adv-x="1376" 
d="M1397 1303q0 -111 -72.5 -205t-212.5 -164l-37 67q85 47 122.5 81t58 75t26.5 98h-37q-80 0 -124 37t-44 103q0 58 38 98.5t99 40.5q95 0 139 -62t44 -169zM729 -6l-16 14v92l-8 2q-48 -61 -115 -97t-137 -36q-105 0 -193.5 66.5t-139 188.5t-50.5 276q0 142 56 261
t152.5 187t208.5 68q60 0 120.5 -17t103.5 -47v338q0 47 -16.5 85.5t-55.5 56.5t-113 24v68l424 24l15 -16v-1321q0 -35 11 -60.5t38 -42t106 -20.5v-68zM711 766q-16 72 -59 118t-103 46q-91 0 -146 -120.5t-55 -324.5q0 -176 55 -282.5t152 -106.5q55 0 91 29t65 70v571z
" />
    <glyph glyph-name="Dcroat" unicode="&#x110;" horiz-adv-x="1483" 
d="M1409 700q0 -206 -89 -364t-261.5 -247t-388.5 -89h-590v74q101 7 128.5 21.5t38.5 40t11 57.5v499h-170v103h170v413q0 41 -16 68.5t-62.5 45t-95.5 21.5v76h621q202 0 370.5 -94t251 -254.5t82.5 -370.5zM1094 700q0 287 -115 460t-309 173l-131 -4v-534h245v-103h-245
v-446q0 -84 40 -122t128 -38q190 0 288.5 155t98.5 459z" />
    <glyph glyph-name="dcroat" unicode="&#x111;" horiz-adv-x="1135" 
d="M729 -6l-16 14v92l-8 2q-48 -61 -115 -97t-137 -36q-105 0 -193.5 66.5t-139 188.5t-50.5 276q0 142 56 261t152.5 187t208.5 68q60 0 120.5 -17t103.5 -47v209h-283v92h283v37q0 47 -16.5 85.5t-55.5 56.5t-113 24v68l424 24l15 -16v-279h196v-92h-196v-950
q0 -35 11 -60.5t38 -42t106 -20.5v-68zM711 766q-16 72 -59 118t-103 46q-91 0 -146 -120.5t-55 -324.5q0 -176 55 -282.5t152 -106.5q55 0 91 29t65 70v571z" />
    <glyph glyph-name="Emacron" unicode="&#x112;" horiz-adv-x="1272" 
d="M1198 0h-1122v74q48 4 94 13.5t67 34.5t21 75v1011q0 44 -17 69.5t-72.5 44t-92.5 21.5v76h1046v-352h-73q-28 88 -96 168t-128 90q-58 10 -170 10h-116v-557h57q81 0 128.5 23.5t75.5 87.5t38 127h73v-574h-73q-7 50 -27.5 108t-38.5 79q-30 30 -51 40t-51 16.5t-74 6.5
h-57v-418q0 -82 10 -119t34.5 -53t94.5 -16q146 0 213.5 12.5t91.5 36.5q38 41 91.5 135.5t78.5 159.5h72zM327 1639v155h635v-155h-635z" />
    <glyph glyph-name="emacron" unicode="&#x113;" horiz-adv-x="967" 
d="M930 236q-67 -127 -167.5 -197t-227.5 -70q-217 0 -341 142.5t-124 388.5q0 141 56.5 261.5t157.5 188.5t228 68q187 0 290 -112t103 -314v-66h-567q0 -209 70.5 -318.5t207.5 -109.5q71 0 128 40.5t118 144.5zM649 612q0 328 -141 328q-75 0 -121.5 -91.5t-48.5 -238.5z
M188 1264v155h635v-155h-635z" />
    <glyph glyph-name="Ebreve" unicode="&#x114;" horiz-adv-x="1272" 
d="M1198 0h-1122v74q48 4 94 13.5t67 34.5t21 75v1011q0 44 -17 69.5t-72.5 44t-92.5 21.5v76h1046v-352h-73q-28 88 -96 168t-128 90q-58 10 -170 10h-116v-557h57q81 0 128.5 23.5t75.5 87.5t38 127h73v-574h-73q-7 50 -27.5 108t-38.5 79q-30 30 -51 40t-51 16.5t-74 6.5
h-57v-418q0 -82 10 -119t34.5 -53t94.5 -16q146 0 213.5 12.5t91.5 36.5q38 41 91.5 135.5t78.5 159.5h72zM951 1855q-23 -165 -93.5 -245t-197.5 -80q-247 0 -291 325l64 19q24 -88 76.5 -135t150.5 -47q94 0 147.5 46t79.5 136z" />
    <glyph glyph-name="ebreve" unicode="&#x115;" horiz-adv-x="967" 
d="M930 236q-67 -127 -167.5 -197t-227.5 -70q-217 0 -341 142.5t-124 388.5q0 141 56.5 261.5t157.5 188.5t228 68q187 0 290 -112t103 -314v-66h-567q0 -209 70.5 -318.5t207.5 -109.5q71 0 128 40.5t118 144.5zM649 612q0 328 -141 328q-75 0 -121.5 -91.5t-48.5 -238.5z
M793 1513q-52 -383 -287 -383q-120 0 -192 100.5t-95 282.5l64 15q27 -101 54.5 -144.5t67.5 -66.5t101 -23q60 0 101 22t68.5 66.5t55.5 145.5z" />
    <glyph glyph-name="Edotaccent" unicode="&#x116;" horiz-adv-x="1272" 
d="M1198 0h-1122v74q48 4 94 13.5t67 34.5t21 75v1011q0 44 -17 69.5t-72.5 44t-92.5 21.5v76h1046v-352h-73q-28 88 -96 168t-128 90q-58 10 -170 10h-116v-557h57q81 0 128.5 23.5t75.5 87.5t38 127h73v-574h-73q-7 50 -27.5 108t-38.5 79q-30 30 -51 40t-51 16.5t-74 6.5
h-57v-418q0 -82 10 -119t34.5 -53t94.5 -16q146 0 213.5 12.5t91.5 36.5q38 41 91.5 135.5t78.5 159.5h72zM778 1708q0 -64 -41.5 -109t-103.5 -45q-61 0 -102.5 44t-41.5 106q0 65 42.5 108.5t101.5 43.5q61 0 103 -43t42 -105z" />
    <glyph glyph-name="edotaccent" unicode="&#x117;" horiz-adv-x="967" 
d="M930 236q-67 -127 -167.5 -197t-227.5 -70q-217 0 -341 142.5t-124 388.5q0 141 56.5 261.5t157.5 188.5t228 68q187 0 290 -112t103 -314v-66h-567q0 -209 70.5 -318.5t207.5 -109.5q71 0 128 40.5t118 144.5zM649 612q0 328 -141 328q-75 0 -121.5 -91.5t-48.5 -238.5z
M651 1368q0 -64 -41.5 -109t-103.5 -45q-61 0 -102.5 44t-41.5 106q0 65 42.5 108.5t101.5 43.5q61 0 103 -43t42 -105z" />
    <glyph glyph-name="Eogonek" unicode="&#x118;" horiz-adv-x="1272" 
d="M1198 0h-1122v74q48 4 94 13.5t67 34.5t21 75v1011q0 44 -17 69.5t-72.5 44t-92.5 21.5v76h1046v-352h-73q-28 88 -96 168t-128 90q-58 10 -170 10h-116v-557h57q81 0 128.5 23.5t75.5 87.5t38 127h73v-574h-73q-7 50 -27.5 108t-38.5 79q-30 30 -51 40t-51 16.5t-74 6.5
h-57v-418q0 -82 10 -119t34.5 -53t94.5 -16q146 0 213.5 12.5t91.5 36.5q38 41 91.5 135.5t78.5 159.5h72zM1138 -444q-186 0 -271 48.5t-85 145.5q0 163 229 289h74q-119 -124 -119 -260q0 -66 40 -104.5t135 -43.5v-75h-3z" />
    <glyph glyph-name="eogonek" unicode="&#x119;" horiz-adv-x="967" 
d="M793 -444q-188 0 -272.5 48.5t-84.5 145.5q0 121 125 221l-14 -2h-12q-217 0 -341 142.5t-124 388.5q0 141 56.5 261.5t157.5 188.5t228 68q187 0 290 -112t103 -314v-66h-567q0 -209 70.5 -318.5t207.5 -109.5q71 0 128 40.5t118 144.5l68 -47q-75 -155 -215 -224
q-94 -113 -94 -233q0 -66 39.5 -104.5t134.5 -43.5v-75h-2zM649 612q0 328 -141 328q-75 0 -121.5 -91.5t-48.5 -238.5z" />
    <glyph glyph-name="Ecaron" unicode="&#x11a;" horiz-adv-x="1272" 
d="M1198 0h-1122v74q48 4 94 13.5t67 34.5t21 75v1011q0 44 -17 69.5t-72.5 44t-92.5 21.5v76h1046v-352h-73q-28 88 -96 168t-128 90q-58 10 -170 10h-116v-557h57q81 0 128.5 23.5t75.5 87.5t38 127h73v-574h-73q-7 50 -27.5 108t-38.5 79q-30 30 -51 40t-51 16.5t-74 6.5
h-57v-418q0 -82 10 -119t34.5 -53t94.5 -16q146 0 213.5 12.5t91.5 36.5q38 41 91.5 135.5t78.5 159.5h72zM954 1841q-82 -124 -146 -214.5t-78.5 -104t-34.5 -18.5t-54 -5q-30 0 -49.5 4.5t-36 18.5t-82 109.5t-141.5 209.5l47 35l264 -209l262 209z" />
    <glyph glyph-name="ecaron" unicode="&#x11b;" horiz-adv-x="967" 
d="M930 236q-67 -127 -167.5 -197t-227.5 -70q-217 0 -341 142.5t-124 388.5q0 141 56.5 261.5t157.5 188.5t228 68q187 0 290 -112t103 -314v-66h-567q0 -209 70.5 -318.5t207.5 -109.5q71 0 128 40.5t118 144.5zM649 612q0 328 -141 328q-75 0 -121.5 -91.5t-48.5 -238.5z
M819 1511l-105 -182q-23 -41 -46 -80.5t-47 -78.5t-46.5 -49.5t-66.5 -10.5q-32 0 -53.5 6t-34.5 18t-44 61.5t-179 315.5l47 33l262 -262l131 131l133 131z" />
    <glyph glyph-name="Gcircumflex" unicode="&#x11c;" horiz-adv-x="1419" 
d="M1409 571q-75 -11 -110 -43t-35 -88v-201q0 -92 4 -130q-115 -66 -258 -105t-281 -39q-186 0 -336.5 91t-234.5 258t-84 382q0 219 85 391t241 268.5t352 96.5q190 0 342 -94l53 61h80l8 -508h-82q-64 243 -155.5 347t-227.5 104q-176 0 -277.5 -171.5t-101.5 -471.5
q0 -305 101.5 -483.5t277.5 -178.5q67 0 125 21.5t96 60.5q6 50 6 100v187q0 60 -43 96.5t-143 48.5v76h598v-76zM1053 1522l-47 -33l-264 209l-264 -209l-45 33q126 194 166 251t58 71t38.5 19t48.5 5q36 0 58 -8.5t50 -40.5q28 -41 52.5 -76t148.5 -221z" />
    <glyph glyph-name="gcircumflex" unicode="&#x11d;" horiz-adv-x="993" 
d="M973 -86q0 -164 -129.5 -261t-362.5 -97q-218 0 -332 65t-114 193q0 89 76 143.5t213 60.5v13q-183 55 -183 186q0 117 176 176v15q-227 93 -227 286q0 93 47 166t133.5 114.5t186.5 41.5q88 0 168 -33h344v-100h-207q76 -92 76 -199q0 -87 -47.5 -159t-127 -112
t-167.5 -40h-115q-53 -31 -53 -76q0 -31 18.5 -50t52.5 -28.5t121 -11.5l123 -3q330 -8 330 -290zM588 686q0 116 -34 186t-93 70q-58 0 -88.5 -66t-30.5 -184q0 -108 34 -178t87 -70q56 0 90.5 66.5t34.5 175.5zM745 -147q0 41 -12 69.5t-39 45.5t-67.5 23.5t-223.5 6.5
q-135 -42 -135 -176q0 -84 65 -135.5t171 -51.5q241 0 241 218zM748 1110l-264 250l-260 -250l-49 33l200 350q16 27 39.5 39t71.5 12q43 0 64.5 -8.5t41.5 -38.5l58 -97l147 -257z" />
    <glyph glyph-name="Gbreve" unicode="&#x11e;" horiz-adv-x="1419" 
d="M1409 571q-75 -11 -110 -43t-35 -88v-201q0 -92 4 -130q-115 -66 -258 -105t-281 -39q-186 0 -336.5 91t-234.5 258t-84 382q0 219 85 391t241 268.5t352 96.5q190 0 342 -94l53 61h80l8 -508h-82q-64 243 -155.5 347t-227.5 104q-176 0 -277.5 -171.5t-101.5 -471.5
q0 -305 101.5 -483.5t277.5 -178.5q67 0 125 21.5t96 60.5q6 50 6 100v187q0 60 -43 96.5t-143 48.5v76h598v-76zM1012 1855q-23 -165 -93.5 -245t-197.5 -80q-247 0 -291 325l64 19q24 -88 76.5 -135t150.5 -47q94 0 147.5 46t79.5 136z" />
    <glyph glyph-name="gbreve" unicode="&#x11f;" horiz-adv-x="993" 
d="M973 -86q0 -164 -129.5 -261t-362.5 -97q-218 0 -332 65t-114 193q0 89 76 143.5t213 60.5v13q-183 55 -183 186q0 117 176 176v15q-227 93 -227 286q0 93 47 166t133.5 114.5t186.5 41.5q88 0 168 -33h344v-100h-207q76 -92 76 -199q0 -87 -47.5 -159t-127 -112
t-167.5 -40h-115q-53 -31 -53 -76q0 -31 18.5 -50t52.5 -28.5t121 -11.5l123 -3q330 -8 330 -290zM588 686q0 116 -34 186t-93 70q-58 0 -88.5 -66t-30.5 -184q0 -108 34 -178t87 -70q56 0 90.5 66.5t34.5 175.5zM745 -147q0 41 -12 69.5t-39 45.5t-67.5 23.5t-223.5 6.5
q-135 -42 -135 -176q0 -84 65 -135.5t171 -51.5q241 0 241 218zM773 1513q-52 -383 -287 -383q-120 0 -192 100.5t-95 282.5l64 15q27 -101 54.5 -144.5t67.5 -66.5t101 -23q60 0 101 22t68.5 66.5t55.5 145.5z" />
    <glyph glyph-name="Gdotaccent" unicode="&#x120;" horiz-adv-x="1419" 
d="M1409 571q-75 -11 -110 -43t-35 -88v-201q0 -92 4 -130q-115 -66 -258 -105t-281 -39q-186 0 -336.5 91t-234.5 258t-84 382q0 219 85 391t241 268.5t352 96.5q190 0 342 -94l53 61h80l8 -508h-82q-64 243 -155.5 347t-227.5 104q-176 0 -277.5 -171.5t-101.5 -471.5
q0 -305 101.5 -483.5t277.5 -178.5q67 0 125 21.5t96 60.5q6 50 6 100v187q0 60 -43 96.5t-143 48.5v76h598v-76zM876 1724q0 -64 -41.5 -109t-103.5 -45q-61 0 -102.5 44t-41.5 106q0 65 42.5 108.5t101.5 43.5q61 0 103 -43t42 -105z" />
    <glyph glyph-name="gdotaccent" unicode="&#x121;" horiz-adv-x="993" 
d="M973 -86q0 -164 -129.5 -261t-362.5 -97q-218 0 -332 65t-114 193q0 89 76 143.5t213 60.5v13q-183 55 -183 186q0 117 176 176v15q-227 93 -227 286q0 93 47 166t133.5 114.5t186.5 41.5q88 0 168 -33h344v-100h-207q76 -92 76 -199q0 -87 -47.5 -159t-127 -112
t-167.5 -40h-115q-53 -31 -53 -76q0 -31 18.5 -50t52.5 -28.5t121 -11.5l123 -3q330 -8 330 -290zM588 686q0 116 -34 186t-93 70q-58 0 -88.5 -66t-30.5 -184q0 -108 34 -178t87 -70q56 0 90.5 66.5t34.5 175.5zM745 -147q0 41 -12 69.5t-39 45.5t-67.5 23.5t-223.5 6.5
q-135 -42 -135 -176q0 -84 65 -135.5t171 -51.5q241 0 241 218zM620 1368q0 -64 -41.5 -109t-103.5 -45q-61 0 -102.5 44t-41.5 106q0 65 42.5 108.5t101.5 43.5q61 0 103 -43t42 -105z" />
    <glyph glyph-name="uni0122" unicode="&#x122;" horiz-adv-x="1419" 
d="M1409 571q-75 -11 -110 -43t-35 -88v-201q0 -92 4 -130q-115 -66 -258 -105t-281 -39q-186 0 -336.5 91t-234.5 258t-84 382q0 219 85 391t241 268.5t352 96.5q190 0 342 -94l53 61h80l8 -508h-82q-64 243 -155.5 347t-227.5 104q-176 0 -277.5 -171.5t-101.5 -471.5
q0 -305 101.5 -483.5t277.5 -178.5q67 0 125 21.5t96 60.5q6 50 6 100v187q0 60 -43 96.5t-143 48.5v76h598v-76zM906 -231q0 -102 -71.5 -157.5t-203.5 -55.5v59q91 6 131.5 34t44.5 89h-45q-74 0 -102.5 24.5t-28.5 73.5q0 40 32 69t91 29q71 0 111.5 -45.5t40.5 -119.5z
" />
    <glyph glyph-name="uni0123" unicode="&#x123;" horiz-adv-x="993" 
d="M973 -90q0 -163 -131.5 -258.5t-364.5 -95.5q-218 0 -330 65t-112 193q0 89 76 143.5t213 60.5v13q-183 57 -183 186q0 117 176 176v15q-227 93 -227 286q0 145 101.5 233.5t254.5 88.5q85 0 179 -33h344v-100h-207q76 -98 76 -201q0 -86 -45.5 -157t-125.5 -111.5
t-167 -40.5h-121q-51 -30 -51 -76q0 -49 47 -69.5t157 -20.5q188 0 271.5 -28t126.5 -94.5t43 -174.5zM588 686q0 116 -34 186t-93 70q-58 0 -88.5 -66t-30.5 -184q0 -108 34 -178t87 -70q56 0 90.5 66.5t34.5 175.5zM745 -147q0 63 -14 86.5t-48 36t-97.5 17.5t-182.5 5
q-72 -22 -103.5 -65t-31.5 -111q0 -84 65 -135.5t171 -51.5q241 0 241 218zM313 1296q0 109 76 178.5t207 90.5l12 -66q-176 -29 -188 -158h45q78 0 112.5 -31t34.5 -79q0 -50 -37 -82.5t-96 -32.5q-74 0 -120 46t-46 134z" />
    <glyph glyph-name="Hcircumflex" unicode="&#x124;" horiz-adv-x="1608" 
d="M905 0v74q82 7 113 20.5t42 38.5t11 60v497h-532v-485q0 -66 41 -94t122 -37v-74h-620v74q99 8 126.5 22.5t38.5 39.5t11 59v1013q0 41 -16.5 67t-72 46t-87.5 22v76h620v-76q-39 -3 -88.5 -18.5t-62 -41.5t-12.5 -64v-433h532v422q0 40 -17.5 66t-67 46.5t-81.5 22.5v76
h619v-76q-46 -4 -95.5 -18t-64 -39.5t-14.5 -66.5v-1014q0 -68 59 -103q11 -6 52 -16.5t63 -11.5v-74h-619zM1114 1506l-47 -33l-264 209l-264 -209l-45 33q126 194 166 251t58 71t38.5 19t48.5 5q36 0 58 -8.5t50 -40.5q28 -41 52.5 -76t148.5 -221z" />
    <glyph glyph-name="hcircumflex" unicode="&#x125;" 
d="M614 0v70q56 6 72 12q37 20 37 94v488q0 105 -34 157.5t-87 52.5q-55 0 -104.5 -38.5t-73.5 -98.5v-551q0 -57 24 -82t89 -34v-70h-492v70q55 4 80 12q47 21 47 94v1002q0 30 -10.5 58t-25.5 47t-50 30t-80 14v68l404 24l14 -16v-559h4q64 77 103 107.5t85 47.5t109 17
q121 0 186.5 -86.5t65.5 -245.5v-500q0 -34 9.5 -56t30.5 -36t81 -22v-70h-484zM881 1528l-47 -33l-265 205l-264 -205l-45 33q123 185 166.5 245.5t60.5 73t38 17t46 4.5q37 0 58.5 -8.5t50.5 -40.5q130 -185 201 -291z" />
    <glyph glyph-name="Hbar" unicode="&#x126;" horiz-adv-x="1608" 
d="M905 0v74q82 7 113 20.5t42 38.5t11 60v497h-532v-485q0 -66 41 -94t122 -37v-74h-620v74q99 8 126.5 22.5t38.5 39.5t11 59v815h-172v94h172v104q0 41 -16.5 67t-72 46t-87.5 22v76h620v-76q-39 -3 -88.5 -18.5t-62 -41.5t-12.5 -64v-115h532v104q0 40 -17.5 66
t-67 46.5t-81.5 22.5v76h619v-76q-46 -4 -95.5 -18t-64 -39.5t-14.5 -66.5v-115h170v-94h-170v-805q0 -68 59 -103q11 -6 52 -16.5t63 -11.5v-74h-619zM1071 786v224h-532v-224h532z" />
    <glyph glyph-name="hbar" unicode="&#x127;" 
d="M614 0v70q56 6 72 12q37 20 37 94v488q0 105 -34 157.5t-87 52.5q-55 0 -104.5 -38.5t-73.5 -98.5v-551q0 -57 24 -82t89 -34v-70h-492v70q55 4 80 12q47 21 47 94v985h-199v92h199v54q0 30 -10.5 58t-25.5 47t-50 30t-80 14v68l404 24l14 -16v-279h274v-92h-274v-317h4
q64 77 103 107.5t85 47.5t109 17q121 0 186.5 -86.5t65.5 -245.5v-500q0 -34 9.5 -56t30.5 -36t81 -22v-70h-484z" />
    <glyph glyph-name="Itilde" unicode="&#x128;" horiz-adv-x="801" 
d="M68 0v74q74 6 103.5 11.5t50 19t29.5 37t9 51.5v1017q0 40 -16.5 64.5t-74 44.5t-101.5 24v76h661v-76q-52 -4 -106.5 -18t-69 -39t-14.5 -65v-1018q0 -47 23.5 -74t78.5 -40t88 -15v-74h-661zM791 1844q-29 -114 -100 -193.5t-152 -79.5q-56 0 -97.5 16.5t-76 37t-66 37
t-65.5 16.5q-38 0 -65 -28t-69 -114l-63 29q38 118 108.5 193t145.5 75q51 0 93 -16.5t77 -36t66 -35.5t61 -16q32 0 54 10t39 32t48 95z" />
    <glyph glyph-name="itilde" unicode="&#x129;" horiz-adv-x="612" 
d="M63 0v70l43 4q39 3 61.5 24.5t22.5 77.5v594q0 60 -42.5 96t-110.5 41v72l391 20l14 -14v-797q0 -55 30 -82.5t97 -35.5v-70h-506zM674 1473q-29 -114 -100 -193.5t-152 -79.5q-56 0 -97.5 16.5t-76 37t-66 37t-65.5 16.5q-38 0 -65 -28t-69 -114l-63 29
q38 118 108.5 193t145.5 75q51 0 93 -16.5t77 -36t66 -35.5t61 -16q32 0 54 10t39 32t48 95z" />
    <glyph glyph-name="Imacron" unicode="&#x12a;" horiz-adv-x="801" 
d="M68 0v74q74 6 103.5 11.5t50 19t29.5 37t9 51.5v1017q0 40 -16.5 64.5t-74 44.5t-101.5 24v76h661v-76q-52 -4 -106.5 -18t-69 -39t-14.5 -65v-1018q0 -47 23.5 -74t78.5 -40t88 -15v-74h-661zM84 1649v155h635v-155h-635z" />
    <glyph glyph-name="imacron" unicode="&#x12b;" horiz-adv-x="612" 
d="M63 0v70l43 4q39 3 61.5 24.5t22.5 77.5v594q0 60 -42.5 96t-110.5 41v72l391 20l14 -14v-797q0 -55 30 -82.5t97 -35.5v-70h-506zM-35 1264v155h635v-155h-635z" />
    <glyph glyph-name="Ibreve" unicode="&#x12c;" horiz-adv-x="801" 
d="M68 0v74q74 6 103.5 11.5t50 19t29.5 37t9 51.5v1017q0 40 -16.5 64.5t-74 44.5t-101.5 24v76h661v-76q-52 -4 -106.5 -18t-69 -39t-14.5 -65v-1018q0 -47 23.5 -74t78.5 -40t88 -15v-74h-661zM693 1855q-23 -165 -93.5 -245t-197.5 -80q-247 0 -291 325l64 19
q24 -88 76.5 -135t150.5 -47q94 0 147.5 46t79.5 136z" />
    <glyph glyph-name="ibreve" unicode="&#x12d;" horiz-adv-x="612" 
d="M63 0v70l43 4q39 3 61.5 24.5t22.5 77.5v594q0 60 -42.5 96t-110.5 41v72l391 20l14 -14v-797q0 -55 30 -82.5t97 -35.5v-70h-506zM576 1513q-52 -383 -287 -383q-120 0 -192 100.5t-95 282.5l64 15q27 -101 54.5 -144.5t67.5 -66.5t101 -23q60 0 101 22t68.5 66.5
t55.5 145.5z" />
    <glyph glyph-name="Iogonek" unicode="&#x12e;" horiz-adv-x="801" 
d="M68 0v74q74 6 103.5 11.5t50 19t29.5 37t9 51.5v1017q0 40 -16.5 64.5t-74 44.5t-101.5 24v76h661v-76q-52 -4 -106.5 -18t-69 -39t-14.5 -65v-1018q0 -47 23.5 -74t78.5 -40t88 -15v-74h-661zM598 -444q-186 0 -271 48.5t-85 145.5q0 163 229 289h74
q-119 -124 -119 -260q0 -66 40 -104.5t135 -43.5v-75h-3z" />
    <glyph glyph-name="iogonek" unicode="&#x12f;" horiz-adv-x="612" 
d="M457 1374q0 -68 -48 -115t-114 -47q-65 0 -111.5 46.5t-46.5 111.5q0 67 46 114.5t112 47.5q67 0 114.5 -46t47.5 -112zM63 0v70l43 4q39 3 61.5 24.5t22.5 77.5v594q0 60 -42.5 96t-110.5 41v72l391 20l14 -14v-797q0 -55 30 -82.5t97 -35.5v-70h-506zM507 -444
q-186 0 -271 48.5t-85 145.5q0 163 229 289h74q-119 -124 -119 -260q0 -66 40 -104.5t135 -43.5v-75h-3z" />
    <glyph glyph-name="Idotaccent" unicode="&#x130;" horiz-adv-x="801" 
d="M68 0v74q74 6 103.5 11.5t50 19t29.5 37t9 51.5v1017q0 40 -16.5 64.5t-74 44.5t-101.5 24v76h661v-76q-52 -4 -106.5 -18t-69 -39t-14.5 -65v-1018q0 -47 23.5 -74t78.5 -40t88 -15v-74h-661zM547 1683q0 -64 -41.5 -109t-103.5 -45q-61 0 -102.5 44t-41.5 106
q0 65 42.5 108.5t101.5 43.5q61 0 103 -43t42 -105z" />
    <glyph glyph-name="dotlessi" unicode="&#x131;" horiz-adv-x="612" 
d="M63 0v70l43 4q39 3 61.5 24.5t22.5 77.5v594q0 60 -42.5 96t-110.5 41v72l391 20l14 -14v-797q0 -55 30 -82.5t97 -35.5v-70h-506z" />
    <glyph glyph-name="IJ" unicode="&#x132;" horiz-adv-x="1845" 
d="M68 0v74q74 6 103.5 11.5t50 19t29.5 37t9 51.5v1017q0 40 -16.5 64.5t-74 44.5t-101.5 24v76h661v-76q-52 -4 -106.5 -18t-69 -39t-14.5 -65v-1018q0 -47 23.5 -74t78.5 -40t88 -15v-74h-661zM1792 1343q-84 -11 -113 -24.5t-44 -38t-15 -63.5v-725q0 -84 -4 -125
q-15 -181 -134.5 -291.5t-303.5 -110.5q-156 0 -260.5 94t-104.5 246q0 82 47.5 136.5t118.5 54.5q64 0 105 -38.5t41 -97.5q0 -109 -111 -239q15 -31 52.5 -51.5t82.5 -20.5q101 0 146 90.5t45 327.5v739q0 57 -43 91t-150 46v76h645v-76z" />
    <glyph glyph-name="ij" unicode="&#x133;" horiz-adv-x="1214" 
d="M457 1374q0 -68 -48 -115t-114 -47q-65 0 -111.5 46.5t-46.5 111.5q0 67 46 114.5t112 47.5q67 0 114.5 -46t47.5 -112zM63 0v70l43 4q39 3 61.5 24.5t22.5 77.5v594q0 60 -42.5 96t-110.5 41v72l391 20l14 -14v-797q0 -55 30 -82.5t97 -35.5v-70h-506zM1065 1376
q0 -67 -46 -115.5t-114 -48.5q-65 0 -111.5 46.5t-46.5 111.5q0 67 46 114.5t112 47.5q67 0 113.5 -46.5t46.5 -109.5zM1054 90q0 -236 -119 -385t-311 -149q-92 0 -147 38.5t-55 108.5q0 58 30.5 94.5t85.5 36.5q36 0 64 -18t51.5 -51t64.5 -123q45 10 64.5 108.5
t19.5 298.5v715q0 43 -21 74.5t-66 49.5t-83 21v68l410 22l12 -14v-895z" />
    <glyph glyph-name="Jcircumflex" unicode="&#x134;" horiz-adv-x="1044" 
d="M991 1343q-84 -11 -113 -24.5t-44 -38t-15 -63.5v-725q0 -84 -4 -125q-15 -181 -134.5 -291.5t-303.5 -110.5q-156 0 -260.5 94t-104.5 246q0 82 47.5 136.5t118.5 54.5q64 0 105 -38.5t41 -97.5q0 -109 -111 -239q15 -31 52.5 -51.5t82.5 -20.5q101 0 146 90.5t45 327.5
v739q0 57 -43 91t-150 46v76h645v-76zM975 1522l-47 -33l-264 209l-264 -209l-45 33q126 194 166 251t58 71t38.5 19t48.5 5q36 0 58 -8.5t50 -40.5q28 -41 52.5 -76t148.5 -221z" />
    <glyph glyph-name="jcircumflex" unicode="&#x135;" horiz-adv-x="602" 
d="M442 90q0 -236 -119 -385t-311 -149q-92 0 -147 38.5t-55 108.5q0 58 30.5 94.5t85.5 36.5q36 0 64 -18t51.5 -51t64.5 -123q45 10 64.5 108.5t19.5 298.5v715q0 43 -21 74.5t-66 49.5t-83 21v68l410 22l12 -14v-895zM526 1110l-264 250l-260 -250l-49 33l200 350
q16 27 39.5 39t71.5 12q43 0 64.5 -8.5t41.5 -38.5l58 -97l147 -257z" />
    <glyph glyph-name="uni0136" unicode="&#x136;" horiz-adv-x="1409" 
d="M995 0q-208 355 -426 674h-30v-469q0 -74 55 -103q8 -6 48 -16t67 -12v-74h-625v74q68 6 104 14t53 34t17 71v1015q0 73 -55 100.5t-119 34.5v76h637v-76q-64 -5 -111.5 -19t-59 -40t-11.5 -65v-484h18q180 177 298 335.5t118 223.5q0 43 -144 49v76h535v-76
q-89 -9 -143.5 -33.5t-87.5 -62.5q-128 -144 -353 -409q107 -170 220.5 -338.5t166.5 -241t100 -111t82.5 -53t102.5 -20.5v-74h-457zM957 -231q0 -102 -71.5 -157.5t-203.5 -55.5v59q91 6 131.5 34t44.5 89h-45q-74 0 -102.5 24.5t-28.5 73.5q0 40 32 69t91 29
q71 0 111.5 -45.5t40.5 -119.5z" />
    <glyph glyph-name="uni0137" unicode="&#x137;" horiz-adv-x="1071" 
d="M731 0q-48 106 -124 253t-118 220l-65 -55v-234q0 -57 26 -81t93 -33v-70h-496v70l31 3q51 3 72.5 27.5t21.5 75.5v1129q0 44 -18.5 80.5t-51.5 51.5t-96 19v68l404 24l14 -16v-1020q58 64 117.5 131.5t111.5 134.5t52 92q0 16 -21.5 28t-97.5 24v65h436v-63
q-63 -19 -106 -39t-106 -70.5t-157 -165.5l75 -131q54 -96 121.5 -212.5t94 -155t60 -57t100.5 -23.5v-70h-373zM750 -231q0 -102 -71.5 -157.5t-203.5 -55.5v59q91 6 131.5 34t44.5 89h-45q-74 0 -102.5 24.5t-28.5 73.5q0 40 32 69t91 29q71 0 111.5 -45.5t40.5 -119.5z
" />
    <glyph glyph-name="kgreenlandic" unicode="&#x138;" horiz-adv-x="1092" 
d="M752 0q-147 308 -242 473l-70 -55v-234q0 -93 89 -108l30 -6v-70h-496v70l39 3q47 4 67.5 28t20.5 75v588q0 39 -16.5 73t-43 49.5t-81.5 20.5v72l379 20l12 -14v-477q59 65 119 133t113 136.5t53 92.5q0 18 -24 30t-95 22v65h436v-63q-65 -20 -107 -39.5t-105 -70
t-156 -165.5q167 -298 228.5 -400.5t85 -126.5t52 -36t84.5 -16v-70h-372z" />
    <glyph glyph-name="Lacute" unicode="&#x139;" horiz-adv-x="1186" 
d="M1157 0h-1075v74q12 1 64.5 8.5t56.5 11.5q55 24 55 103v1009q0 79 -60.5 105.5t-115.5 31.5v76h643v-76q-59 -5 -107.5 -18.5t-63.5 -38.5t-15 -69v-943q0 -98 11.5 -131t40.5 -46t128 -13q65 0 114 6.5t78 23.5t67 71.5t78 129t58 123.5h72zM424 1507l-30 39l120 123
l57 64q117 135 199 135q45 0 75 -26t30 -68q0 -81 -96 -121q-47 -23 -137 -58t-218 -88z" />
    <glyph glyph-name="lacute" unicode="&#x13a;" horiz-adv-x="594" 
d="M47 0v70q59 5 82 16.5t33 34.5t10 55v998q0 67 -41 105t-131 50v68l410 22l14 -16v-1215q0 -57 27.5 -82.5t99.5 -35.5v-70h-504zM111 1499l-31 39l121 123l58 63q63 70 110.5 103t87.5 33q45 0 74.5 -26.5t29.5 -68.5q0 -43 -24 -69.5t-67 -48t-141 -59.5z" />
    <glyph glyph-name="uni013B" unicode="&#x13b;" horiz-adv-x="1186" 
d="M1157 0h-1075v74q12 1 64.5 8.5t56.5 11.5q55 24 55 103v1009q0 79 -60.5 105.5t-115.5 31.5v76h643v-76q-59 -5 -107.5 -18.5t-63.5 -38.5t-15 -69v-943q0 -98 11.5 -131t40.5 -46t128 -13q65 0 114 6.5t78 23.5t67 71.5t78 129t58 123.5h72zM822 -231
q0 -102 -71.5 -157.5t-203.5 -55.5v59q91 6 131.5 34t44.5 89h-45q-74 0 -102.5 24.5t-28.5 73.5q0 40 32 69t91 29q71 0 111.5 -45.5t40.5 -119.5z" />
    <glyph glyph-name="uni013C" unicode="&#x13c;" horiz-adv-x="594" 
d="M47 0v70q59 5 82 16.5t33 34.5t10 55v1124q0 69 -41.5 107t-130.5 49v68l410 24l14 -16v-1344q0 -57 27.5 -82.5t99.5 -35.5v-70h-504zM451 -231q0 -102 -71.5 -157.5t-203.5 -55.5v59q91 6 131.5 34t44.5 89h-45q-74 0 -102.5 24.5t-28.5 73.5q0 40 32 69t91 29
q71 0 111.5 -45.5t40.5 -119.5z" />
    <glyph glyph-name="Lcaron" unicode="&#x13d;" horiz-adv-x="1186" 
d="M1174 1194q0 -108 -84 -212t-220 -171l-39 66q121 64 169.5 128.5t54.5 147.5h-51q-81 0 -125.5 37t-44.5 106q0 55 43 96.5t104 41.5q93 0 143 -62t50 -178zM1157 0h-1075v74q12 1 64.5 8.5t56.5 11.5q55 24 55 103v1009q0 79 -60.5 105.5t-115.5 31.5v76h643v-76
q-59 -5 -107.5 -18.5t-63.5 -38.5t-15 -69v-943q0 -98 11.5 -131t40.5 -46t128 -13q65 0 114 6.5t78 23.5t67 71.5t78 129t58 123.5h72z" />
    <glyph glyph-name="lcaron" unicode="&#x13e;" horiz-adv-x="836" 
d="M856 1303q0 -111 -72.5 -205t-212.5 -164l-36 67q88 50 124 84t56 74.5t26 95.5h-36q-80 0 -124 37t-44 103q0 58 38 98.5t99 40.5q182 0 182 -231zM47 0v70q59 5 82 16.5t33 34.5t10 55v1124q0 69 -41.5 107t-130.5 49v68l410 24l14 -16v-1344q0 -57 27.5 -82.5
t99.5 -35.5v-70h-504z" />
    <glyph glyph-name="Ldot" unicode="&#x13f;" horiz-adv-x="1186" 
d="M1110 721q0 -65 -48.5 -114.5t-119.5 -49.5t-119.5 49.5t-48.5 114.5q0 69 49.5 118.5t118.5 49.5t118.5 -49.5t49.5 -118.5zM1157 0h-1075v74q12 1 64.5 8.5t56.5 11.5q55 24 55 103v1009q0 79 -60.5 105.5t-115.5 31.5v76h643v-76q-59 -5 -107.5 -18.5t-63.5 -38.5
t-15 -69v-943q0 -98 11.5 -131t40.5 -46t128 -13q65 0 114 6.5t78 23.5t67 71.5t78 129t58 123.5h72z" />
    <glyph glyph-name="ldot" unicode="&#x140;" horiz-adv-x="920" 
d="M47 0v70q59 5 82 16.5t33 34.5t10 55v1124q0 69 -41.5 107t-130.5 49v68l410 24l14 -16v-1344q0 -57 27.5 -82.5t99.5 -35.5v-70h-504zM922 553q0 -69 -48 -117.5t-116 -48.5q-69 0 -117.5 48t-48.5 118q0 67 49 116.5t117 49.5q67 0 115.5 -50t48.5 -116z" />
    <glyph glyph-name="Lslash" unicode="&#x141;" horiz-adv-x="1186" 
d="M72 639l186 80v487q0 79 -60.5 105.5t-115.5 31.5v76h643v-76q-59 -5 -108 -18.5t-64.5 -39.5t-15.5 -68v-377l229 98l35 -92l-264 -113v-459q0 -95 11.5 -129.5t41.5 -47.5t129 -13q65 0 114 6.5t78 23.5t67 71.5t78 129t58 123.5h72l-29 -438h-1075v74q12 1 64.5 8.5
t56.5 11.5q55 24 55 103v417l-152 -65z" />
    <glyph glyph-name="lslash" unicode="&#x142;" horiz-adv-x="594" 
d="M47 0v70q59 5 82 16.5t33 34.5t10 55v434l-119 -51l-35 88l154 64v589q0 69 -41.5 107t-130.5 49v68l410 24l14 -16v-715l121 51l35 -88l-156 -65v-527q0 -57 27.5 -82.5t99.5 -35.5v-70h-504z" />
    <glyph glyph-name="Nacute" unicode="&#x143;" horiz-adv-x="1485" 
d="M1466 1343q-51 -5 -97.5 -20.5t-64.5 -34.5t-29 -51.5t-16.5 -87t-5.5 -135.5v-1026h-123l-772 1130v-698q0 -78 6 -134t17.5 -89.5t32.5 -56t74 -41.5t96 -25v-74h-545v74q27 2 81.5 18.5t76 36t33 51t17 87.5t5.5 141v686q0 64 -24.5 118.5t-82.5 88t-120 42.5v76h430
l694 -1016v601q0 123 -16 188t-48 94q-22 16 -72 34t-91 23v76h544v-76zM606 1507l-30 39l120 123l57 64q117 135 199 135q45 0 75 -26t30 -68q0 -81 -96 -121q-47 -23 -137 -58t-218 -88z" />
    <glyph glyph-name="nacute" unicode="&#x144;" horiz-adv-x="1157" 
d="M631 0v70l39 4q39 4 54 28.5t15 73.5v486q0 106 -33.5 159t-87.5 53q-53 0 -100.5 -36.5t-77.5 -100.5v-551q0 -50 23.5 -78t89.5 -38v-70h-490v70q72 6 90.5 17t27.5 34t9 55v594q0 37 -20 72.5t-46.5 48t-74.5 16.5v72l377 20l14 -14v-141h4q73 84 109.5 112t82 44
t103.5 16q123 0 188.5 -86.5t65.5 -245.5v-500q0 -53 26 -79t97 -35v-70h-485zM379 1141l106 172q91 155 129 189t90 34q51 0 79 -27t28 -65q0 -36 -18.5 -62.5t-57 -56.5t-58 -44t-260.5 -177z" />
    <glyph glyph-name="uni0145" unicode="&#x145;" horiz-adv-x="1485" 
d="M1466 1343q-51 -5 -97.5 -20.5t-64.5 -34.5t-29 -51.5t-16.5 -87t-5.5 -135.5v-1026h-123l-772 1130v-698q0 -78 6 -134t17.5 -89.5t32.5 -56t74 -41.5t96 -25v-74h-545v74q27 2 81.5 18.5t76 36t33 51t17 87.5t5.5 141v686q0 64 -24.5 118.5t-82.5 88t-120 42.5v76h430
l694 -1016v601q0 123 -16 188t-48 94q-22 16 -72 34t-91 23v76h544v-76zM875 -231q0 -102 -71.5 -157.5t-203.5 -55.5v59q91 6 131.5 34t44.5 89h-45q-74 0 -102.5 24.5t-28.5 73.5q0 40 32 69t91 29q71 0 111.5 -45.5t40.5 -119.5z" />
    <glyph glyph-name="uni0146" unicode="&#x146;" horiz-adv-x="1157" 
d="M631 0v70l39 4q39 4 54 28.5t15 73.5v486q0 106 -33.5 159t-87.5 53q-53 0 -100.5 -36.5t-77.5 -100.5v-551q0 -50 23.5 -78t89.5 -38v-70h-490v70q72 6 90.5 17t27.5 34t9 55v594q0 37 -20 72.5t-46.5 48t-74.5 16.5v72l377 20l14 -14v-141h4q73 84 109.5 112t82 44
t103.5 16q123 0 188.5 -86.5t65.5 -245.5v-500q0 -53 26 -79t97 -35v-70h-485zM750 -231q0 -102 -71.5 -157.5t-203.5 -55.5v59q91 6 131.5 34t44.5 89h-45q-74 0 -102.5 24.5t-28.5 73.5q0 40 32 69t91 29q71 0 111.5 -45.5t40.5 -119.5z" />
    <glyph glyph-name="Ncaron" unicode="&#x147;" horiz-adv-x="1485" 
d="M1466 1343q-51 -5 -97.5 -20.5t-64.5 -34.5t-29 -51.5t-16.5 -87t-5.5 -135.5v-1026h-123l-772 1130v-698q0 -78 6 -134t17.5 -89.5t32.5 -56t74 -41.5t96 -25v-74h-545v74q27 2 81.5 18.5t76 36t33 51t17 87.5t5.5 141v686q0 64 -24.5 118.5t-82.5 88t-120 42.5v76h430
l694 -1016v601q0 123 -16 188t-48 94q-22 16 -72 34t-91 23v76h544v-76zM1050 1841q-82 -124 -146 -214.5t-78.5 -104t-34.5 -18.5t-54 -5q-30 0 -49.5 4.5t-36 18.5t-82 109.5t-141.5 209.5l47 35l264 -209l262 209z" />
    <glyph glyph-name="ncaron" unicode="&#x148;" horiz-adv-x="1157" 
d="M631 0v70l39 4q39 4 54 28.5t15 73.5v486q0 106 -33.5 159t-87.5 53q-53 0 -100.5 -36.5t-77.5 -100.5v-551q0 -50 23.5 -78t89.5 -38v-70h-490v70q72 6 90.5 17t27.5 34t9 55v594q0 37 -20 72.5t-46.5 48t-74.5 16.5v72l377 20l14 -14v-141h4q73 84 109.5 112t82 44
t103.5 16q123 0 188.5 -86.5t65.5 -245.5v-500q0 -53 26 -79t97 -35v-70h-485zM889 1511l-105 -182q-23 -41 -46 -80.5t-47 -78.5t-46.5 -49.5t-66.5 -10.5q-32 0 -53.5 6t-34.5 18t-44 61.5t-179 315.5l47 33l262 -262l131 131l133 131z" />
    <glyph glyph-name="napostrophe" unicode="&#x149;" horiz-adv-x="1350" 
d="M824 0v70l39 4q39 4 54 28.5t15 73.5v486q0 106 -33.5 159t-87.5 53q-53 0 -100.5 -36.5t-77.5 -100.5v-551q0 -50 23.5 -78t89.5 -38v-70h-490v70q72 6 90.5 17t27.5 34t9 55v594q0 37 -20 72.5t-46.5 48t-74.5 16.5v72l377 20l14 -14v-141h4q73 84 109.5 112t82 44
t103.5 16q123 0 188.5 -86.5t65.5 -245.5v-500q0 -53 26 -79t97 -35v-70h-485zM315 1290q0 -111 -88 -217t-217 -166l-39 66q122 65 169.5 127.5t55.5 146.5h-51q-83 0 -127.5 38t-44.5 108q0 55 44 96t104 41q92 0 143 -60.5t51 -179.5z" />
    <glyph glyph-name="Eng" unicode="&#x14a;" horiz-adv-x="1485" 
d="M1466 1343q-51 -5 -97.5 -20.5t-64.5 -34.5t-29 -51.5t-16.5 -87t-5.5 -135.5v-932q0 -243 -107 -383.5t-290 -140.5q-94 0 -152.5 43.5t-58.5 115.5q0 59 33 97.5t92 38.5q43 0 75.5 -27t61.5 -86l33 -70q89 17 142 101.5t55 220.5l-779 1126v-698q0 -78 6 -134
t17.5 -89.5t32.5 -56t74 -41.5t96 -25v-74h-545v74q27 2 81.5 18.5t76 36t33 51t17 87.5t5.5 141v686q0 64 -24.5 118.5t-82.5 88t-120 42.5v76h428l696 -1011v596q0 123 -16 188t-48 94q-22 16 -72 34t-91 23v76h544v-76z" />
    <glyph glyph-name="eng" unicode="&#x14b;" horiz-adv-x="1149" 
d="M745 367q0 196 -3 283t-16.5 133t-40 68.5t-64.5 22.5q-55 0 -104.5 -38t-76.5 -99v-551q0 -51 24.5 -78.5t88.5 -37.5v-70h-490v70q72 6 90.5 17t27.5 34t9 55v594q0 37 -20 72.5t-46.5 48t-74.5 16.5v72l377 20l14 -14v-141h4q75 86 111 113t81 43t103 16
q117 0 180.5 -78t75.5 -248q6 -89 6 -301q0 -155 -6 -303q-11 -240 -126 -385t-300 -145q-93 0 -146.5 40.5t-53.5 106.5q0 57 30.5 91t83.5 34q36 0 63 -18t50 -50.5t61 -117.5q37 11 55 76t25.5 229t7.5 420z" />
    <glyph glyph-name="Omacron" unicode="&#x14c;" horiz-adv-x="1483" 
d="M1409 713q0 -215 -85.5 -388t-239 -267.5t-345.5 -94.5q-186 0 -340 95t-239.5 264t-85.5 378q0 218 86 390.5t240 268t341 95.5q188 0 341 -93.5t240 -264t87 -383.5zM1094 711q0 303 -92 477t-261 174q-168 0 -260 -171.5t-92 -483.5q0 -307 92.5 -478.5t259.5 -171.5
q171 0 262 173.5t91 480.5zM424 1649v155h635v-155h-635z" />
    <glyph glyph-name="omacron" unicode="&#x14d;" horiz-adv-x="1090" 
d="M1020 502q0 -155 -59.5 -277.5t-170 -190t-253.5 -67.5q-131 0 -238.5 66.5t-168 186.5t-60.5 272q0 234 130 380t347 146q213 0 343 -141.5t130 -374.5zM739 504q0 211 -49 323.5t-143 112.5q-95 0 -146 -110.5t-51 -321.5q0 -225 50 -343t147 -118q92 0 142 119.5
t50 337.5zM227 1264v155h635v-155h-635z" />
    <glyph glyph-name="Obreve" unicode="&#x14e;" horiz-adv-x="1483" 
d="M1409 713q0 -215 -85.5 -388t-239 -267.5t-345.5 -94.5q-186 0 -340 95t-239.5 264t-85.5 378q0 218 86 390.5t240 268t341 95.5q188 0 341 -93.5t240 -264t87 -383.5zM1094 711q0 303 -92 477t-261 174q-168 0 -260 -171.5t-92 -483.5q0 -307 92.5 -478.5t259.5 -171.5
q171 0 262 173.5t91 480.5zM1033 1855q-23 -165 -93.5 -245t-197.5 -80q-247 0 -291 325l64 19q24 -88 76.5 -135t150.5 -47q94 0 147.5 46t79.5 136z" />
    <glyph glyph-name="obreve" unicode="&#x14f;" horiz-adv-x="1090" 
d="M1020 502q0 -155 -59.5 -277.5t-170 -190t-253.5 -67.5q-131 0 -238.5 66.5t-168 186.5t-60.5 272q0 234 130 380t347 146q213 0 343 -141.5t130 -374.5zM739 504q0 211 -49 323.5t-143 112.5q-95 0 -146 -110.5t-51 -321.5q0 -225 50 -343t147 -118q92 0 142 119.5
t50 337.5zM832 1513q-52 -383 -287 -383q-120 0 -192 100.5t-95 282.5l64 15q27 -101 54.5 -144.5t67.5 -66.5t101 -23q60 0 101 22t68.5 66.5t55.5 145.5z" />
    <glyph glyph-name="Ohungarumlaut" unicode="&#x150;" horiz-adv-x="1483" 
d="M1409 713q0 -215 -85.5 -388t-239 -267.5t-345.5 -94.5q-186 0 -340 95t-239.5 264t-85.5 378q0 218 86 390.5t240 268t341 95.5q188 0 341 -93.5t240 -264t87 -383.5zM1094 711q0 303 -92 477t-261 174q-168 0 -260 -171.5t-92 -483.5q0 -307 92.5 -478.5t259.5 -171.5
q171 0 262 173.5t91 480.5zM483 1483l-31 35l63 73l132 158q32 50 72 79.5t77 29.5q45 0 72 -26t27 -64q0 -41 -23 -65t-61 -46l-165 -85zM864 1483l-31 35l183 213q41 59 86.5 93t78.5 34q45 0 72 -26t27 -64q0 -70 -82 -111q-174 -86 -334 -174z" />
    <glyph glyph-name="ohungarumlaut" unicode="&#x151;" horiz-adv-x="1090" 
d="M1020 502q0 -155 -59.5 -277.5t-170 -190t-253.5 -67.5q-131 0 -238.5 66.5t-168 186.5t-60.5 272q0 234 130 380t347 146q213 0 343 -141.5t130 -374.5zM739 504q0 211 -49 323.5t-143 112.5q-95 0 -146 -110.5t-51 -321.5q0 -225 50 -343t147 -118q92 0 142 119.5
t50 337.5zM248 1141l103 172q81 142 104.5 170.5t48 40.5t55.5 12q47 0 73 -27t26 -65q0 -42 -26 -75t-96.5 -85.5t-248.5 -179.5zM623 1141l172 291q34 57 65.5 80.5t73.5 23.5q47 0 72.5 -27t25.5 -65q0 -43 -25.5 -75.5t-97.5 -86t-247 -178.5z" />
    <glyph glyph-name="OE" unicode="&#x152;" horiz-adv-x="1962" 
d="M1886 0h-1077q-150 0 -292.5 53t-239.5 144.5t-150 223t-53 294.5q0 204 89.5 360.5t269 250t392.5 93.5h985v-352h-73q-23 79 -92 163t-132 95q-58 10 -170 10h-110v-557h51q62 0 104.5 13.5t69.5 50.5q22 22 41.5 74.5t26.5 99.5h73v-574h-73q-5 55 -36.5 129.5
t-78 97.5t-127.5 23h-51v-418q0 -93 11.5 -127t41 -47.5t115.5 -13.5q131 0 188 12t82 37q44 48 97 142t73 153h74zM952 1327l-110 4q-210 0 -327.5 -163.5t-117.5 -454.5q0 -186 55.5 -329.5t158.5 -220.5t237 -77q56 0 104 4v1237z" />
    <glyph glyph-name="oe" unicode="&#x153;" horiz-adv-x="1587" 
d="M1550 236q-66 -128 -165.5 -197.5t-215.5 -69.5q-103 0 -186 43t-137 123q-57 -75 -139 -121.5t-185 -46.5q-128 0 -232 66t-162 186.5t-58 272.5q0 236 128.5 381t338.5 145q89 0 171 -43t144 -121q122 164 293 164q180 0 280.5 -111.5t100.5 -308.5v-72h-549
q3 -218 69 -323t195 -105q67 0 124 41t118 144zM715 494q0 235 -44.5 340.5t-133.5 105.5q-91 0 -139 -108.5t-48 -323.5q0 -461 187 -461q178 0 178 447zM1270 612q0 328 -137 328q-71 0 -113.5 -92.5t-42.5 -237.5z" />
    <glyph glyph-name="Racute" unicode="&#x154;" horiz-adv-x="1380" 
d="M995 0q-242 429 -385 641h-73v-440q0 -60 40.5 -89t124.5 -38v-74h-620v74q103 7 139.5 35t36.5 88v1013q0 41 -18.5 67t-52 41.5t-105.5 24.5v76h641q217 0 331.5 -87t114.5 -255q0 -147 -67.5 -236t-227.5 -143q51 -73 151 -227q129 -200 182 -265.5t106 -96.5t123 -35
v-74h-441zM858 1053q0 142 -61 210t-209 68h-51v-602h86q109 0 172 82.5t63 241.5zM495 1507l-30 39l120 123l57 64q117 135 199 135q45 0 75 -26t30 -68q0 -81 -96 -121q-47 -23 -137 -58t-218 -88z" />
    <glyph glyph-name="racute" unicode="&#x155;" horiz-adv-x="866" 
d="M856 834q0 -72 -37 -117t-98 -45q-62 0 -100.5 33.5t-38.5 87.5q0 21 12 81q-80 -6 -154 -126v-562q0 -39 17 -64.5t49.5 -35.5t95.5 -16v-70h-539v70q72 6 90.5 17t27.5 34t9 55v594q0 35 -17.5 69.5t-44 49t-79.5 18.5v72l377 20l14 -14v-141h4q124 168 254 168
q73 0 115.5 -49.5t42.5 -128.5zM285 1141l106 172q91 155 129 189t90 34q51 0 79 -27t28 -65q0 -36 -18.5 -62.5t-57 -56.5t-58 -44t-260.5 -177z" />
    <glyph glyph-name="uni0156" unicode="&#x156;" horiz-adv-x="1380" 
d="M995 0q-242 429 -385 641h-73v-440q0 -60 40.5 -89t124.5 -38v-74h-620v74q103 7 139.5 35t36.5 88v1013q0 41 -18.5 67t-52 41.5t-105.5 24.5v76h641q217 0 331.5 -87t114.5 -255q0 -147 -67.5 -236t-227.5 -143q51 -73 151 -227q129 -200 182 -265.5t106 -96.5t123 -35
v-74h-441zM858 1053q0 142 -61 210t-209 68h-51v-602h86q109 0 172 82.5t63 241.5zM910 -231q0 -102 -71.5 -157.5t-203.5 -55.5v59q91 6 131.5 34t44.5 89h-45q-74 0 -102.5 24.5t-28.5 73.5q0 40 32 69t91 29q71 0 111.5 -45.5t40.5 -119.5z" />
    <glyph glyph-name="uni0157" unicode="&#x157;" horiz-adv-x="866" 
d="M856 834q0 -72 -37 -117t-98 -45q-62 0 -100.5 33.5t-38.5 87.5q0 21 12 81q-80 -6 -154 -126v-562q0 -39 17 -64.5t49.5 -35.5t95.5 -16v-70h-539v70q72 6 90.5 17t27.5 34t9 55v594q0 35 -17.5 69.5t-44 49t-79.5 18.5v72l377 20l14 -14v-141h4q124 168 254 168
q73 0 115.5 -49.5t42.5 -128.5zM523 -231q0 -102 -71.5 -157.5t-203.5 -55.5v59q91 6 131.5 34t44.5 89h-45q-74 0 -102.5 24.5t-28.5 73.5q0 40 32 69t91 29q71 0 111.5 -45.5t40.5 -119.5z" />
    <glyph glyph-name="Rcaron" unicode="&#x158;" horiz-adv-x="1380" 
d="M995 0q-242 429 -385 641h-73v-440q0 -60 40.5 -89t124.5 -38v-74h-620v74q103 7 139.5 35t36.5 88v1013q0 41 -18.5 67t-52 41.5t-105.5 24.5v76h641q217 0 331.5 -87t114.5 -255q0 -147 -67.5 -236t-227.5 -143q51 -73 151 -227q129 -200 182 -265.5t106 -96.5t123 -35
v-74h-441zM858 1053q0 142 -61 210t-209 68h-51v-602h86q109 0 172 82.5t63 241.5zM946 1841q-82 -124 -146 -214.5t-78.5 -104t-34.5 -18.5t-54 -5q-30 0 -49.5 4.5t-36 18.5t-82 109.5t-141.5 209.5l47 35l264 -209l262 209z" />
    <glyph glyph-name="rcaron" unicode="&#x159;" horiz-adv-x="866" 
d="M856 834q0 -72 -37 -117t-98 -45q-62 0 -100.5 33.5t-38.5 87.5q0 21 12 81q-80 -6 -154 -126v-562q0 -39 17 -64.5t49.5 -35.5t95.5 -16v-70h-539v70q72 6 90.5 17t27.5 34t9 55v594q0 35 -17.5 69.5t-44 49t-79.5 18.5v72l377 20l14 -14v-141h4q124 168 254 168
q73 0 115.5 -49.5t42.5 -128.5zM749 1511l-105 -182q-23 -41 -46 -80.5t-47 -78.5t-46.5 -49.5t-66.5 -10.5q-32 0 -53.5 6t-34.5 18t-44 61.5t-179 315.5l47 33l262 -262l131 131l133 131z" />
    <glyph glyph-name="Sacute" unicode="&#x15a;" horiz-adv-x="1128" 
d="M1051 408q0 -126 -60.5 -227.5t-170 -157.5t-245.5 -56q-91 0 -182 26.5t-166 76.5l-55 -70h-80l-14 500h82q64 -221 164.5 -331t230.5 -110q113 0 174.5 65t61.5 179q0 91 -44.5 150t-128.5 96l-77 33q-166 67 -233.5 109t-109 94t-62.5 116t-21 146q0 112 55 205.5
t152 146.5t215 53q161 0 305 -96l49 63h82l8 -477h-82q-47 167 -91.5 249.5t-103.5 125.5t-139 43q-85 0 -141.5 -60.5t-56.5 -150.5q0 -67 24 -115.5t79 -87t200 -94.5q137 -53 217.5 -109t122 -140t41.5 -195zM377 1507l-30 39l120 123l57 64q117 135 199 135q45 0 75 -26
t30 -68q0 -81 -96 -121q-47 -23 -137 -58t-218 -88z" />
    <glyph glyph-name="sacute" unicode="&#x15b;" horiz-adv-x="854" 
d="M788 297q0 -147 -99.5 -237.5t-258.5 -90.5q-65 0 -134.5 24.5t-117.5 63.5l-24 -63h-76l-10 356h67q20 -79 62.5 -149.5t97.5 -111t117 -40.5q153 0 153 152q0 67 -41.5 109t-171.5 91q-98 37 -149.5 78.5t-80 99.5t-28.5 136q0 132 88 216.5t230 84.5q66 0 123 -17
t92 -38l22 57h72l16 -330h-69q-22 108 -82 178t-137 70q-62 0 -98 -37t-36 -94q0 -47 16.5 -78.5t52.5 -55.5t142 -63q146 -53 204 -126t58 -185zM252 1141l106 172q91 155 129 189t90 34q51 0 79 -27t28 -65q0 -36 -18.5 -62.5t-57 -56.5t-58 -44t-260.5 -177z" />
    <glyph glyph-name="Scircumflex" unicode="&#x15c;" horiz-adv-x="1128" 
d="M1051 408q0 -126 -60.5 -227.5t-170 -157.5t-245.5 -56q-91 0 -182 26.5t-166 76.5l-55 -70h-80l-14 500h82q64 -221 164.5 -331t230.5 -110q113 0 174.5 65t61.5 179q0 91 -44.5 150t-128.5 96l-77 33q-166 67 -233.5 109t-109 94t-62.5 116t-21 146q0 112 55 205.5
t152 146.5t215 53q161 0 305 -96l49 63h82l8 -477h-82q-47 167 -91.5 249.5t-103.5 125.5t-139 43q-85 0 -141.5 -60.5t-56.5 -150.5q0 -67 24 -115.5t79 -87t200 -94.5q137 -53 217.5 -109t122 -140t41.5 -195zM864 1522l-47 -33l-264 209l-264 -209l-45 33
q126 194 166 251t58 71t38.5 19t48.5 5q36 0 58 -8.5t50 -40.5q28 -41 52.5 -76t148.5 -221z" />
    <glyph glyph-name="scircumflex" unicode="&#x15d;" horiz-adv-x="854" 
d="M788 297q0 -147 -99.5 -237.5t-258.5 -90.5q-65 0 -134.5 24.5t-117.5 63.5l-24 -63h-76l-10 356h67q20 -79 62.5 -149.5t97.5 -111t117 -40.5q153 0 153 152q0 67 -41.5 109t-171.5 91q-98 37 -149.5 78.5t-80 99.5t-28.5 136q0 132 88 216.5t230 84.5q66 0 123 -17
t92 -38l22 57h72l16 -330h-69q-22 108 -82 178t-137 70q-62 0 -98 -37t-36 -94q0 -47 16.5 -78.5t52.5 -55.5t142 -63q146 -53 204 -126t58 -185zM700 1110l-264 250l-260 -250l-49 33l200 350q16 27 39.5 39t71.5 12q43 0 64.5 -8.5t41.5 -38.5l58 -97l147 -257z" />
    <glyph glyph-name="Scedilla" unicode="&#x15e;" horiz-adv-x="1128" 
d="M1051 408q0 -126 -60.5 -227.5t-170 -157.5t-245.5 -56q-91 0 -182 26.5t-166 76.5l-55 -70h-80l-14 500h82q64 -221 164.5 -331t230.5 -110q113 0 174.5 65t61.5 179q0 91 -44.5 150t-128.5 96l-77 33q-166 67 -233.5 109t-109 94t-62.5 116t-21 146q0 112 55 205.5
t152 146.5t215 53q161 0 305 -96l49 63h82l8 -477h-82q-47 167 -91.5 249.5t-103.5 125.5t-139 43q-85 0 -141.5 -60.5t-56.5 -150.5q0 -67 24 -115.5t79 -87t200 -94.5q137 -53 217.5 -109t122 -140t41.5 -195zM759 -250q0 -103 -86 -148.5t-295 -45.5v73q120 0 166.5 19.5
t46.5 66.5q0 35 -27 52.5t-106 17.5v231h82v-112q109 0 164 -40t55 -114z" />
    <glyph glyph-name="scedilla" unicode="&#x15f;" horiz-adv-x="854" 
d="M788 297q0 -147 -99.5 -237.5t-258.5 -90.5q-65 0 -134.5 24.5t-117.5 63.5l-24 -63h-76l-10 356h67q20 -79 62.5 -149.5t97.5 -111t117 -40.5q153 0 153 152q0 67 -41.5 109t-171.5 91q-98 37 -149.5 78.5t-80 99.5t-28.5 136q0 132 88 216.5t230 84.5q66 0 123 -17
t92 -38l22 57h72l16 -330h-69q-22 108 -82 178t-137 70q-62 0 -98 -37t-36 -94q0 -47 16.5 -78.5t52.5 -55.5t142 -63q146 -53 204 -126t58 -185zM637 -250q0 -103 -86 -148.5t-295 -45.5v73q120 0 166.5 19.5t46.5 66.5q0 35 -27 52.5t-106 17.5v231h82v-112q109 0 164 -40
t55 -114z" />
    <glyph glyph-name="Scaron" unicode="&#x160;" horiz-adv-x="1128" 
d="M1051 408q0 -126 -60.5 -227.5t-170 -157.5t-245.5 -56q-91 0 -182 26.5t-166 76.5l-55 -70h-80l-14 500h82q64 -221 164.5 -331t230.5 -110q113 0 174.5 65t61.5 179q0 91 -44.5 150t-128.5 96l-77 33q-166 67 -233.5 109t-109 94t-62.5 116t-21 146q0 112 55 205.5
t152 146.5t215 53q161 0 305 -96l49 63h82l8 -477h-82q-47 167 -91.5 249.5t-103.5 125.5t-139 43q-85 0 -141.5 -60.5t-56.5 -150.5q0 -67 24 -115.5t79 -87t200 -94.5q137 -53 217.5 -109t122 -140t41.5 -195zM876 1841q-82 -124 -146 -214.5t-78.5 -104t-34.5 -18.5
t-54 -5q-30 0 -49.5 4.5t-36 18.5t-82 109.5t-141.5 209.5l47 35l264 -209l262 209z" />
    <glyph glyph-name="scaron" unicode="&#x161;" horiz-adv-x="854" 
d="M788 297q0 -147 -99.5 -237.5t-258.5 -90.5q-65 0 -134.5 24.5t-117.5 63.5l-24 -63h-76l-10 356h67q20 -79 62.5 -149.5t97.5 -111t117 -40.5q153 0 153 152q0 67 -41.5 109t-171.5 91q-98 37 -149.5 78.5t-80 99.5t-28.5 136q0 132 88 216.5t230 84.5q66 0 123 -17
t92 -38l22 57h72l16 -330h-69q-22 108 -82 178t-137 70q-62 0 -98 -37t-36 -94q0 -47 16.5 -78.5t52.5 -55.5t142 -63q146 -53 204 -126t58 -185zM733 1511l-105 -182q-23 -41 -46 -80.5t-47 -78.5t-46.5 -49.5t-66.5 -10.5q-32 0 -53.5 6t-34.5 18t-44 61.5t-179 315.5
l47 33l262 -262l131 131l133 131z" />
    <glyph glyph-name="uni0162" unicode="&#x162;" horiz-adv-x="1219" 
d="M1135 1024q-14 55 -56 133t-83 121.5t-74 48.5q-54 8 -156 8h-16v-1124q0 -48 22 -75.5t79.5 -43t96.5 -18.5v-74h-678v74q25 2 74.5 9.5t63.5 12.5q63 27 63 105v1134h-16q-84 0 -156 -8q-36 -6 -77 -52.5t-80 -119.5t-56 -131h-74v395h1194v-395h-71zM807 -250
q0 -103 -86 -148.5t-295 -45.5v73q120 0 166.5 19.5t46.5 66.5q0 35 -27 52.5t-106 17.5v231h82v-112q109 0 164 -40t55 -114z" />
    <glyph glyph-name="uni0163" unicode="&#x163;" horiz-adv-x="682" 
d="M664 45q-152 -70 -265 -70q-241 0 -241 267v641h-154v100h158v307h248v-307h235v-100h-233v-539q0 -106 12 -150t39.5 -64.5t77.5 -20.5q31 0 69 4.5t54 11.5v-80zM589 -250q0 -103 -86 -148.5t-295 -45.5v73q120 0 166.5 19.5t46.5 66.5q0 35 -27 52.5t-106 17.5v231h82
v-112q109 0 164 -40t55 -114z" />
    <glyph glyph-name="Tcaron" unicode="&#x164;" horiz-adv-x="1219" 
d="M1135 1024q-14 55 -56 133t-83 121.5t-74 48.5q-54 8 -156 8h-16v-1124q0 -48 22 -75.5t79.5 -43t96.5 -18.5v-74h-678v74q25 2 74.5 9.5t63.5 12.5q63 27 63 105v1134h-16q-84 0 -156 -8q-36 -6 -77 -52.5t-80 -119.5t-56 -131h-74v395h1194v-395h-71zM921 1841
q-82 -124 -146 -214.5t-78.5 -104t-34.5 -18.5t-54 -5q-30 0 -49.5 4.5t-36 18.5t-82 109.5t-141.5 209.5l47 35l264 -209l262 209z" />
    <glyph glyph-name="tcaron" unicode="&#x165;" horiz-adv-x="719" 
d="M825 1368q0 -90 -73.5 -169.5t-198.5 -129.5l-37 64q94 47 124.5 71.5t50 54.5t26.5 72h-47q-68 0 -104 31t-36 86q0 45 37 78t88 33q82 0 126 -48t44 -143zM664 45q-152 -70 -265 -70q-241 0 -241 267v641h-154v100h158v307h248v-307h235v-100h-233v-539q0 -106 12 -150
t39.5 -64.5t77.5 -20.5q31 0 69 4.5t54 11.5v-80z" />
    <glyph glyph-name="Tbar" unicode="&#x166;" horiz-adv-x="1219" 
d="M1135 1024q-14 55 -56 133t-83 121.5t-74 48.5q-54 8 -156 8h-16v-553h278v-98h-278v-473q0 -48 22 -75.5t79.5 -43t96.5 -18.5v-74h-678v74q25 2 74.5 9.5t63.5 12.5q63 27 63 105v483h-278v98h278v553h-16q-84 0 -156 -8q-36 -6 -77 -52.5t-80 -119.5t-56 -131h-74v395
h1194v-395h-71z" />
    <glyph glyph-name="tbar" unicode="&#x167;" horiz-adv-x="682" 
d="M664 45q-152 -70 -265 -70q-241 0 -241 267v237h-148v90h148v314h-154v100h158v307h248v-307h235v-100h-233v-314h211v-90h-211v-135q0 -106 12 -150t39.5 -64.5t77.5 -20.5q31 0 69 4.5t54 11.5v-80z" />
    <glyph glyph-name="Utilde" unicode="&#x168;" horiz-adv-x="1470" 
d="M1462 1343q-67 -6 -122.5 -28.5t-74 -91t-18.5 -205.5v-572q0 -146 -64 -255.5t-177 -168.5t-248 -59q-245 0 -386 123.5t-141 341.5v780q0 46 -18 73t-53 40t-94 25v73h616v-73q-105 -17 -128.5 -30t-32.5 -39t-9 -58v-750q0 -383 307 -383q151 0 236.5 101.5
t85.5 287.5v533q0 224 -60 278q-23 18 -70.5 34.5t-97.5 22.5v76h549v-76zM1166 1840q-29 -114 -100 -193.5t-152 -79.5q-56 0 -97.5 16.5t-76 37t-66 37t-65.5 16.5q-38 0 -65 -28t-69 -114l-63 29q38 118 108.5 193t145.5 75q51 0 93 -16.5t77 -36t66 -35.5t61 -16
q32 0 54 10t39 32t48 95z" />
    <glyph glyph-name="utilde" unicode="&#x169;" horiz-adv-x="1128" 
d="M723 -6l-16 14v127h-5q-67 -92 -134 -128t-154 -36q-122 0 -186 89t-64 249v465q0 42 -17.5 72.5t-42.5 42t-77 18.5v70l376 22l15 -14v-674q0 -110 31 -158.5t90 -48.5q36 0 65 16t51.5 39t51.5 74v551q0 65 -41 101q-25 17 -95 22v70l369 22l16 -14v-776
q0 -36 15 -63.5t36.5 -40t84.5 -17.5v-68zM928 1473q-29 -114 -100 -193.5t-152 -79.5q-56 0 -97.5 16.5t-76 37t-66 37t-65.5 16.5q-38 0 -65 -28t-69 -114l-63 29q38 118 108.5 193t145.5 75q51 0 93 -16.5t77 -36t66 -35.5t61 -16q32 0 54 10t39 32t48 95z" />
    <glyph glyph-name="Umacron" unicode="&#x16a;" horiz-adv-x="1470" 
d="M1462 1343q-67 -6 -122.5 -28.5t-74 -91t-18.5 -205.5v-572q0 -146 -64 -255.5t-177 -168.5t-248 -59q-245 0 -386 123.5t-141 341.5v780q0 46 -18 73t-53 40t-94 25v73h616v-73q-105 -17 -128.5 -30t-32.5 -39t-9 -58v-750q0 -383 307 -383q151 0 236.5 101.5
t85.5 287.5v533q0 224 -60 278q-23 18 -70.5 34.5t-97.5 22.5v76h549v-76zM452 1647v155h635v-155h-635z" />
    <glyph glyph-name="umacron" unicode="&#x16b;" horiz-adv-x="1128" 
d="M723 -6l-16 14v127h-5q-67 -92 -134 -128t-154 -36q-122 0 -186 89t-64 249v465q0 42 -17.5 72.5t-42.5 42t-77 18.5v70l376 22l15 -14v-674q0 -110 31 -158.5t90 -48.5q36 0 65 16t51.5 39t51.5 74v551q0 65 -41 101q-25 17 -95 22v70l369 22l16 -14v-776
q0 -36 15 -63.5t36.5 -40t84.5 -17.5v-68zM225 1264v155h635v-155h-635z" />
    <glyph glyph-name="Ubreve" unicode="&#x16c;" horiz-adv-x="1470" 
d="M1462 1343q-67 -6 -122.5 -28.5t-74 -91t-18.5 -205.5v-572q0 -146 -64 -255.5t-177 -168.5t-248 -59q-245 0 -386 123.5t-141 341.5v780q0 46 -18 73t-53 40t-94 25v73h616v-73q-105 -17 -128.5 -30t-32.5 -39t-9 -58v-750q0 -383 307 -383q151 0 236.5 101.5
t85.5 287.5v533q0 224 -60 278q-23 18 -70.5 34.5t-97.5 22.5v76h549v-76zM1063 1855q-23 -165 -93.5 -245t-197.5 -80q-247 0 -291 325l64 19q24 -88 76.5 -135t150.5 -47q94 0 147.5 46t79.5 136z" />
    <glyph glyph-name="ubreve" unicode="&#x16d;" horiz-adv-x="1128" 
d="M723 -6l-16 14v127h-5q-67 -92 -134 -128t-154 -36q-122 0 -186 89t-64 249v465q0 42 -17.5 72.5t-42.5 42t-77 18.5v70l376 22l15 -14v-674q0 -110 31 -158.5t90 -48.5q36 0 65 16t51.5 39t51.5 74v551q0 65 -41 101q-25 17 -95 22v70l369 22l16 -14v-776
q0 -36 15 -63.5t36.5 -40t84.5 -17.5v-68zM814 1513q-52 -383 -287 -383q-120 0 -192 100.5t-95 282.5l64 15q27 -101 54.5 -144.5t67.5 -66.5t101 -23q60 0 101 22t68.5 66.5t55.5 145.5z" />
    <glyph glyph-name="Uring" unicode="&#x16e;" horiz-adv-x="1470" 
d="M1462 1343q-67 -6 -122.5 -28.5t-74 -91t-18.5 -205.5v-572q0 -146 -64 -255.5t-177 -168.5t-248 -59q-245 0 -386 123.5t-141 341.5v780q0 46 -18 73t-53 40t-94 25v73h616v-73q-105 -17 -128.5 -30t-32.5 -39t-9 -58v-750q0 -383 307 -383q151 0 236.5 101.5
t85.5 287.5v533q0 224 -60 278q-23 18 -70.5 34.5t-97.5 22.5v76h549v-76zM1048 1671q0 -102 -73.5 -164.5t-194.5 -62.5q-124 0 -196 62t-72 165q0 100 74 164t194 64q122 0 195 -62.5t73 -165.5zM911 1671q0 69 -33 114.5t-98 45.5q-63 0 -97 -42.5t-34 -117.5
q0 -71 33 -115t98 -44t98 43.5t33 115.5z" />
    <glyph glyph-name="uring" unicode="&#x16f;" horiz-adv-x="1128" 
d="M723 -6l-16 14v127h-5q-67 -92 -134 -128t-154 -36q-122 0 -186 89t-64 249v465q0 42 -17.5 72.5t-42.5 42t-77 18.5v70l376 22l15 -14v-674q0 -110 31 -158.5t90 -48.5q36 0 65 16t51.5 39t51.5 74v551q0 65 -41 101q-25 17 -95 22v70l369 22l16 -14v-776
q0 -36 15 -63.5t36.5 -40t84.5 -17.5v-68zM809 1335q0 -102 -73.5 -164.5t-194.5 -62.5q-124 0 -196 62t-72 165q0 100 74 164t194 64q122 0 195 -62.5t73 -165.5zM672 1335q0 69 -33 114.5t-98 45.5q-63 0 -97 -42.5t-34 -117.5q0 -71 33 -115t98 -44t98 43.5t33 115.5z
" />
    <glyph glyph-name="Uhungarumlaut" unicode="&#x170;" horiz-adv-x="1470" 
d="M1462 1343q-67 -6 -122.5 -28.5t-74 -91t-18.5 -205.5v-572q0 -146 -64 -255.5t-177 -168.5t-248 -59q-245 0 -386 123.5t-141 341.5v780q0 46 -18 73t-53 40t-94 25v73h616v-73q-105 -17 -128.5 -30t-32.5 -39t-9 -58v-750q0 -383 307 -383q151 0 236.5 101.5
t85.5 287.5v533q0 224 -60 278q-23 18 -70.5 34.5t-97.5 22.5v76h549v-76zM473 1493l-31 35l63 73l132 158q32 50 72 79.5t77 29.5q45 0 72 -26t27 -64q0 -41 -23 -65t-61 -46l-165 -85zM854 1493l-31 35l183 213q41 59 86.5 93t78.5 34q45 0 72 -26t27 -64q0 -70 -82 -111
q-174 -86 -334 -174z" />
    <glyph glyph-name="uhungarumlaut" unicode="&#x171;" horiz-adv-x="1128" 
d="M723 -6l-16 14v127h-5q-67 -92 -134 -128t-154 -36q-122 0 -186 89t-64 249v465q0 42 -17.5 72.5t-42.5 42t-77 18.5v70l376 22l15 -14v-674q0 -110 31 -158.5t90 -48.5q36 0 65 16t51.5 39t51.5 74v551q0 65 -41 101q-25 17 -95 22v70l369 22l16 -14v-776
q0 -36 15 -63.5t36.5 -40t84.5 -17.5v-68zM242 1141l103 172q81 142 104.5 170.5t48 40.5t55.5 12q47 0 73 -27t26 -65q0 -42 -26 -75t-96.5 -85.5t-248.5 -179.5zM617 1141l172 291q34 57 65.5 80.5t73.5 23.5q47 0 72.5 -27t25.5 -65q0 -43 -25.5 -75.5t-97.5 -86
t-247 -178.5z" />
    <glyph glyph-name="Uogonek" unicode="&#x172;" horiz-adv-x="1470" 
d="M1042 -444q-186 0 -271 48.5t-85 145.5q0 115 125 215l-26 -2h-27q-245 0 -386 123.5t-141 341.5v780q0 46 -18 73t-53 40t-94 25v73h616v-73q-105 -17 -128.5 -30t-32.5 -39t-9 -58v-750q0 -383 307 -383q151 0 236.5 101.5t85.5 287.5v533q0 224 -60 278
q-23 18 -70.5 34.5t-97.5 22.5v76h549v-76q-67 -6 -122.5 -28.5t-74 -91t-18.5 -205.5v-572q0 -163 -76 -278t-217 -168q-84 -105 -84 -221q0 -72 43 -107t131 -41v-75h-2z" />
    <glyph glyph-name="uogonek" unicode="&#x173;" horiz-adv-x="1128" 
d="M723 -6l-16 14v127h-5q-67 -92 -134 -128t-154 -36q-122 0 -186 89t-64 249v465q0 42 -17.5 72.5t-42.5 42t-77 18.5v70l376 22l15 -14v-674q0 -110 31 -158.5t90 -48.5q36 0 65 16t51.5 39t51.5 74v551q0 65 -41 101q-25 17 -95 22v70l369 22l16 -14v-776
q0 -36 15 -63.5t36.5 -40t84.5 -17.5v-68zM1019 -444q-186 0 -271 48.5t-85 145.5q0 163 229 289h74q-119 -124 -119 -260q0 -66 40 -104.5t135 -43.5v-75h-3z" />
    <glyph glyph-name="Wcircumflex" unicode="&#x174;" horiz-adv-x="2019" 
d="M2052 1343q-39 -5 -79.5 -26.5t-68.5 -52.5t-49 -90l-94 -311q-166 -556 -272 -879h-148l-340 1079l-333 -1079h-146q-285 991 -350 1194q-48 148 -197 165v76h629v-73q-155 -15 -155 -56q0 -38 43.5 -193.5t100 -352.5t105.5 -359l318 1024h151l340 -1055
q93 308 162.5 574t69.5 329q0 76 -189 86v76h502v-76zM1393 1522l-47 -33l-264 209l-264 -209l-45 33q126 194 166 251t58 71t38.5 19t48.5 5q36 0 58 -8.5t50 -40.5q28 -41 52.5 -76t148.5 -221z" />
    <glyph glyph-name="wcircumflex" unicode="&#x175;" horiz-adv-x="1505" 
d="M1522 920q-96 -16 -133 -129l-91 -268q-152 -462 -172 -531h-141l-235 704l-230 -704h-137q-36 115 -112 352t-158 467q-33 93 -129 109v67h497v-69q-106 -12 -106 -48q0 -16 48.5 -177t119.5 -376l211 662h149l230 -690q35 108 63.5 202.5t58 198.5t29.5 158
q0 27 -35 47.5t-88 24.5v67h361v-67zM1083 1110l-264 250l-260 -250l-49 33l200 350q16 27 39.5 39t71.5 12q43 0 64.5 -8.5t41.5 -38.5l58 -97l147 -257z" />
    <glyph glyph-name="Ycircumflex" unicode="&#x176;" horiz-adv-x="1225" 
d="M1290 1343q-59 -14 -92.5 -33t-64.5 -52t-90 -135t-130.5 -232.5t-101 -184.5t-43.5 -97.5t-16 -92.5t-2 -67v-236q0 -47 23 -76t85.5 -45t91.5 -18v-74h-676v74q53 4 103.5 13.5t72 37t21.5 78.5v291q0 39 -23 97.5t-110 244.5t-140 287.5t-90 140.5t-79.5 58t-81.5 21
v76h653v-76l-53 -3q-111 -4 -111 -44q0 -24 96.5 -239.5t169.5 -358.5q105 182 196 364.5t91 213.5q0 30 -33.5 45.5t-126.5 21.5v76h461v-76zM973 1506l-47 -33l-264 209l-264 -209l-45 33q126 194 166 251t58 71t38.5 19t48.5 5q36 0 58 -8.5t50 -40.5q28 -41 52.5 -76
t148.5 -221z" />
    <glyph glyph-name="ycircumflex" unicode="&#x177;" horiz-adv-x="942" 
d="M975 922q-35 -7 -71.5 -34t-57.5 -83l-49 -129q-213 -565 -304.5 -766t-165 -277.5t-173.5 -76.5q-72 0 -118 43.5t-46 103.5q0 59 33.5 97t82.5 38q31 0 56 -12t46.5 -32.5t59.5 -74.5q35 23 84 109.5t80 167.5l-88 234q-131 349 -233 583q-44 94 -134 107v67h480v-69
q-92 -6 -92 -41q0 -20 12 -54l36 -107q92 -276 152 -421q83 227 129.5 369t46.5 186q0 25 -30 44.5t-80 25.5v67h344v-65zM770 1110l-264 250l-260 -250l-49 33l200 350q16 27 39.5 39t71.5 12q43 0 64.5 -8.5t41.5 -38.5l58 -97l147 -257z" />
    <glyph glyph-name="Ydieresis" unicode="&#x178;" horiz-adv-x="1225" 
d="M1290 1343q-59 -14 -92.5 -33t-64.5 -52t-90 -135t-130.5 -232.5t-101 -184.5t-43.5 -97.5t-16 -92.5t-2 -67v-236q0 -47 23 -76t85.5 -45t91.5 -18v-74h-676v74q53 4 103.5 13.5t72 37t21.5 78.5v291q0 39 -23 97.5t-110 244.5t-140 287.5t-90 140.5t-79.5 58t-81.5 21
v76h653v-76l-53 -3q-111 -4 -111 -44q0 -24 96.5 -239.5t169.5 -358.5q105 182 196 364.5t91 213.5q0 30 -33.5 45.5t-126.5 21.5v76h461v-76zM1018 1704q0 -63 -40.5 -104t-96.5 -41t-96.5 41t-40.5 104t41 104.5t96 41.5t96 -41t41 -105zM572 1704q0 -61 -40.5 -103
t-96.5 -42q-59 0 -98.5 42.5t-39.5 102.5t40 103t98 43q55 0 96 -42.5t41 -103.5z" />
    <glyph glyph-name="Zacute" unicode="&#x179;" horiz-adv-x="1206" 
d="M1143 0h-1123v49l799 1284h-223q-130 0 -188 -20q-53 -14 -117 -92t-133 -220h-74l43 418h1038v-49l-800 -1284h251q129 0 203 11.5t103 45.5q53 55 108.5 146.5t89.5 171.5h70zM489 1507l-30 39l120 123l57 64q117 135 199 135q45 0 75 -26t30 -68q0 -81 -96 -121
q-47 -23 -137 -58t-218 -88z" />
    <glyph glyph-name="zacute" unicode="&#x17a;" horiz-adv-x="883" 
d="M49 0v61l473 842h-47q-167 0 -227 -24q-25 -13 -51.5 -68.5t-44.5 -136.5h-66v313h731v-51l-479 -850l70 -2h67q142 0 181 22t69 110t43 144h66v-360h-785zM304 1141l106 172q91 155 129 189t90 34q51 0 79 -27t28 -65q0 -36 -18.5 -62.5t-57 -56.5t-58 -44t-260.5 -177z
" />
    <glyph glyph-name="Zdotaccent" unicode="&#x17b;" horiz-adv-x="1206" 
d="M1143 0h-1123v49l799 1284h-223q-130 0 -188 -20q-53 -14 -117 -92t-133 -220h-74l43 418h1038v-49l-800 -1284h251q129 0 203 11.5t103 45.5q53 55 108.5 146.5t89.5 171.5h70zM784 1708q0 -64 -41.5 -109t-103.5 -45q-61 0 -102.5 44t-41.5 106q0 65 42.5 108.5
t101.5 43.5q61 0 103 -43t42 -105z" />
    <glyph glyph-name="zdotaccent" unicode="&#x17c;" horiz-adv-x="883" 
d="M49 0v61l473 842h-47q-167 0 -227 -24q-25 -13 -51.5 -68.5t-44.5 -136.5h-66v313h731v-51l-479 -850l70 -2h67q142 0 181 22t69 110t43 144h66v-360h-785zM608 1368q0 -64 -41.5 -109t-103.5 -45q-61 0 -102.5 44t-41.5 106q0 65 42.5 108.5t101.5 43.5q61 0 103 -43
t42 -105z" />
    <glyph glyph-name="Zcaron" unicode="&#x17d;" horiz-adv-x="1206" 
d="M1143 0h-1123v49l799 1284h-223q-130 0 -188 -20q-53 -14 -117 -92t-133 -220h-74l43 418h1038v-49l-800 -1284h251q129 0 203 11.5t103 45.5q53 55 108.5 146.5t89.5 171.5h70zM958 1841q-82 -124 -146 -214.5t-78.5 -104t-34.5 -18.5t-54 -5q-30 0 -49.5 4.5t-36 18.5
t-82 109.5t-141.5 209.5l47 35l264 -209l262 209z" />
    <glyph glyph-name="zcaron" unicode="&#x17e;" horiz-adv-x="883" 
d="M49 0v61l473 842h-47q-167 0 -227 -24q-25 -13 -51.5 -68.5t-44.5 -136.5h-66v313h731v-51l-479 -850l70 -2h67q142 0 181 22t69 110t43 144h66v-360h-785zM764 1511l-105 -182q-23 -41 -46 -80.5t-47 -78.5t-46.5 -49.5t-66.5 -10.5q-32 0 -53.5 6t-34.5 18t-44 61.5
t-179 315.5l47 33l262 -262l131 131l133 131z" />
    <glyph glyph-name="longs" unicode="&#x17f;" horiz-adv-x="580" 
d="M774 1403q0 -59 -30.5 -95t-86.5 -36q-37 0 -63 16t-49 48t-64 126q-69 -28 -69 -358l2 -465v-455q0 -39 15 -61t41 -34t101 -19v-70h-534v70q71 0 98 24t27 80v830q0 160 50 284t145 192t223 68q92 0 143 -39.5t51 -105.5z" />
    <glyph glyph-name="florin" unicode="&#x192;" horiz-adv-x="1004" 
d="M1018 1149q0 -59 -31.5 -94t-85.5 -35q-50 0 -94.5 44.5t-95.5 160.5q-100 -47 -133 -391l-9 -97h226v-106h-236q-12 -147 -38.5 -333t-61 -296t-99.5 -192q-55 -82 -143.5 -130.5t-198.5 -48.5q-99 0 -156 44t-57 116q0 58 33 91.5t86 33.5t98.5 -45.5t90.5 -157.5
q37 16 64.5 83.5t49 201.5t74.5 633h-166v106h178q20 188 84.5 308t170.5 192t239 72q96 0 153.5 -45t57.5 -115z" />
    <glyph glyph-name="Aringacute" unicode="&#x1fa;" horiz-adv-x="1341" 
d="M420 1432q0 53 31 99t93 91l64 47l74 63q79 72 132 105t95 33q51 0 80 -24.5t29 -61.5q0 -44 -28 -70t-79 -43l-118 -39q75 -23 119 -75.5t44 -124.5q0 -71 -40 -124t-109 -73q293 -773 397 -1034q24 -58 64.5 -88.5t113.5 -38.5v-74h-624v70q77 5 128.5 19.5t51.5 33.5
q0 35 -85 256l-38 102h-426q-48 -116 -77 -207t-29 -122q0 -33 49.5 -54.5t134.5 -27.5v-70h-514v70q69 3 128.5 44t94.5 122q155 364 395 995q-74 26 -112.5 78.5t-38.5 122.5zM606 1059l-182 -484h358zM821 1432q0 63 -33.5 105t-99.5 42q-62 0 -96.5 -41t-34.5 -106
q0 -67 34 -109.5t97 -42.5q66 0 99.5 42.5t33.5 109.5z" />
    <glyph glyph-name="aringacute" unicode="&#x1fb;" horiz-adv-x="999" 
d="M977 20q-101 -45 -180 -45q-169 0 -203 142h-6q-63 -79 -131.5 -112.5t-147.5 -33.5q-104 0 -167.5 67t-63.5 181q0 96 43 164t143 115q51 24 176 69q117 42 150 60v102q0 102 -32.5 156.5t-92.5 54.5q-59 0 -96 -37l5 -27q17 -66 17 -112q0 -51 -38 -81t-101 -30
q-61 0 -94 35t-33 96q0 97 106 165.5t254 68.5q192 0 274.5 -82t82.5 -250l-6 -481q0 -37 7.5 -60t25.5 -39.5t52 -17t56 -0.5v-68zM590 547q-107 -41 -156 -78.5t-74.5 -87.5t-25.5 -121q0 -81 30 -117.5t78 -36.5q39 0 74 21.5t70 71.5zM755 1222q0 -102 -73.5 -164.5
t-194.5 -62.5q-124 0 -196 62t-72 165q0 100 74 164t194 64q122 0 195 -62.5t73 -165.5zM618 1222q0 69 -33 114.5t-98 45.5q-63 0 -97 -42.5t-34 -117.5q0 -71 33 -115t98 -44t98 43.5t33 115.5zM323 1482l-30 39l120 123l57 64q117 135 199 135q45 0 75 -26t30 -68
q0 -81 -96 -121q-47 -23 -137 -58t-218 -88z" />
    <glyph glyph-name="AEacute" unicode="&#x1fc;" horiz-adv-x="1913" 
d="M1841 0h-1118v74q94 8 126.5 23.5t44 40t11.5 59.5v401h-432q-69 -120 -122 -221t-70 -141.5t-17 -71.5q0 -79 160 -90v-74h-504v74q74 8 128.5 45.5t107.5 128.5q216 370 598 1073q-56 16 -170 22v76h1179v-352h-75q-20 77 -82 161.5t-121 96.5q-52 10 -154 10h-147
v-557h86q66 0 107.5 22.5t65.5 86t34 129.5h75v-574h-75q-8 56 -26 112.5t-30 74.5q-30 37 -66 50t-85 13h-86v-418q0 -85 12.5 -121.5t43 -51.5t122.5 -15q130 0 189.5 12t82.5 37q39 44 88.5 138t71.5 157h72zM905 1329h-37l-346 -641h383v641zM1069 1507l-30 39l120 123
l57 64q117 135 199 135q45 0 75 -26t30 -68q0 -81 -96 -121q-47 -23 -137 -58t-218 -88z" />
    <glyph glyph-name="aeacute" unicode="&#x1fd;" horiz-adv-x="1460" 
d="M1423 236q-60 -124 -163.5 -195.5t-227.5 -71.5q-132 0 -218 46.5t-150 146.5h-5q-71 -100 -153 -145.5t-182 -45.5q-112 0 -179 65t-67 183q0 85 34 148.5t105 106t236 99.5q96 33 137 54v114q0 89 -34 144t-89 55q-31 0 -57.5 -10.5t-40.5 -26.5q3 -23 12.5 -60
t9.5 -77q0 -51 -37 -82t-104 -31q-59 0 -92 33.5t-33 97.5q0 62 48.5 116.5t133.5 86t180 31.5q88 0 158 -21t121 -79q107 100 244 100q183 0 286 -111.5t103 -306.5v-74h-568q0 -208 72 -318t209 -110q69 0 126 40t118 145zM590 547q-102 -37 -153 -75t-77 -90t-26 -122
q0 -154 108 -154q87 0 148 89v352zM1143 612q0 328 -142 328q-73 0 -121.5 -92.5t-48.5 -237.5zM627 1141l106 172q91 155 129 189t90 34q51 0 79 -27t28 -65q0 -36 -18.5 -62.5t-57 -56.5t-58 -44t-260.5 -177z" />
    <glyph glyph-name="Oslashacute" unicode="&#x1fe;" horiz-adv-x="1483" 
d="M1409 713q0 -215 -85.5 -388t-239 -267.5t-345.5 -94.5q-241 0 -420 154l-165 -205l-70 57l172 209q-182 207 -182 522q0 218 86 390.5t240 268t341 95.5q122 0 232 -41t196 -119l164 199l70 -59l-170 -205q176 -209 176 -516zM389 707q0 -199 35 -324l608 739
q-45 119 -119 179.5t-172 60.5q-168 0 -260 -171.5t-92 -483.5zM1094 711q0 195 -31 309l-608 -737q42 -107 114 -166.5t172 -59.5q171 0 262 173.5t91 480.5zM608 1507l-30 39l120 123l57 64q117 135 199 135q45 0 75 -26t30 -68q0 -81 -96 -121q-47 -23 -137 -58t-218 -88
z" />
    <glyph glyph-name="oslashacute" unicode="&#x1ff;" horiz-adv-x="1090" 
d="M1020 502q0 -155 -59.5 -277.5t-170 -190t-253.5 -67.5q-167 0 -291 105l-137 -164l-58 53l139 166q-120 143 -120 365q0 234 130 380t347 146q179 0 303 -105l135 160l57 -55l-135 -162q113 -137 113 -354zM350 508q0 -116 8 -180l359 426q-30 102 -70.5 144t-99.5 42
q-95 0 -146 -110.5t-51 -321.5zM739 504q0 77 -6 145l-356 -422q51 -180 170 -180q92 0 142 119.5t50 337.5zM406 1141l106 172q91 155 129 189t90 34q51 0 79 -27t28 -65q0 -36 -18.5 -62.5t-57 -56.5t-58 -44t-260.5 -177z" />
    <glyph glyph-name="uni0218" unicode="&#x218;" horiz-adv-x="1128" 
d="M1051 408q0 -126 -60.5 -227.5t-170 -157.5t-245.5 -56q-91 0 -182 26.5t-166 76.5l-55 -70h-80l-14 500h82q64 -221 164.5 -331t230.5 -110q113 0 174.5 65t61.5 179q0 91 -44.5 150t-128.5 96l-77 33q-166 67 -233.5 109t-109 94t-62.5 116t-21 146q0 112 55 205.5
t152 146.5t215 53q161 0 305 -96l49 63h82l8 -477h-82q-47 167 -91.5 249.5t-103.5 125.5t-139 43q-85 0 -141.5 -60.5t-56.5 -150.5q0 -67 24 -115.5t79 -87t200 -94.5q137 -53 217.5 -109t122 -140t41.5 -195zM709 -231q0 -102 -71.5 -157.5t-203.5 -55.5v59
q91 6 131.5 34t44.5 89h-45q-74 0 -102.5 24.5t-28.5 73.5q0 40 32 69t91 29q71 0 111.5 -45.5t40.5 -119.5z" />
    <glyph glyph-name="uni0219" unicode="&#x219;" horiz-adv-x="854" 
d="M788 297q0 -147 -99.5 -237.5t-258.5 -90.5q-65 0 -134.5 24.5t-117.5 63.5l-24 -63h-76l-10 356h67q20 -79 62.5 -149.5t97.5 -111t117 -40.5q153 0 153 152q0 67 -41.5 109t-171.5 91q-98 37 -149.5 78.5t-80 99.5t-28.5 136q0 132 88 216.5t230 84.5q66 0 123 -17
t92 -38l22 57h72l16 -330h-69q-22 108 -82 178t-137 70q-62 0 -98 -37t-36 -94q0 -47 16.5 -78.5t52.5 -55.5t142 -63q146 -53 204 -126t58 -185zM572 -231q0 -102 -71.5 -157.5t-203.5 -55.5v59q91 6 131.5 34t44.5 89h-45q-74 0 -102.5 24.5t-28.5 73.5q0 40 32 69t91 29
q71 0 111.5 -45.5t40.5 -119.5z" />
    <glyph glyph-name="uni021A" unicode="&#x21a;" horiz-adv-x="1219" 
d="M1135 1024q-14 55 -56 133t-83 121.5t-74 48.5q-54 8 -156 8h-16v-1124q0 -48 22 -75.5t79.5 -43t96.5 -18.5v-74h-678v74q25 2 74.5 9.5t63.5 12.5q63 27 63 105v1134h-16q-84 0 -156 -8q-36 -6 -77 -52.5t-80 -119.5t-56 -131h-74v395h1194v-395h-71zM772 -231
q0 -102 -71.5 -157.5t-203.5 -55.5v59q91 6 131.5 34t44.5 89h-45q-74 0 -102.5 24.5t-28.5 73.5q0 40 32 69t91 29q71 0 111.5 -45.5t40.5 -119.5z" />
    <glyph glyph-name="uni021B" unicode="&#x21b;" horiz-adv-x="682" 
d="M664 45q-152 -70 -265 -70q-241 0 -241 267v641h-154v100h158v307h248v-307h235v-100h-233v-539q0 -106 12 -150t39.5 -64.5t77.5 -20.5q31 0 69 4.5t54 11.5v-80zM545 -231q0 -102 -71.5 -157.5t-203.5 -55.5v59q91 6 131.5 34t44.5 89h-45q-74 0 -102.5 24.5
t-28.5 73.5q0 40 32 69t91 29q71 0 111.5 -45.5t40.5 -119.5z" />
    <glyph glyph-name="uni0237" unicode="&#x237;" horiz-adv-x="602" 
d="M442 90q0 -236 -119 -385t-311 -149q-92 0 -147 38.5t-55 108.5q0 58 30.5 94.5t85.5 36.5q36 0 64 -18t51.5 -51t64.5 -123q45 10 64.5 108.5t19.5 298.5v715q0 43 -21 74.5t-66 49.5t-83 21v68l410 22l12 -14v-895z" />
    <glyph glyph-name="circumflex" unicode="&#x2c6;" horiz-adv-x="1008" 
d="M766 1110l-264 250l-260 -250l-49 33l200 350q16 27 39.5 39t71.5 12q43 0 64.5 -8.5t41.5 -38.5l58 -97l147 -257z" />
    <glyph glyph-name="caron" unicode="&#x2c7;" horiz-adv-x="1008" 
d="M815 1511l-105 -182q-23 -41 -46 -80.5t-47 -78.5t-46.5 -49.5t-66.5 -10.5q-32 0 -53.5 6t-34.5 18t-44 61.5t-179 315.5l47 33l262 -262l131 131l133 131z" />
    <glyph glyph-name="uni02C9" unicode="&#x2c9;" horiz-adv-x="1008" 
d="M186 1264v155h635v-155h-635z" />
    <glyph glyph-name="breve" unicode="&#x2d8;" horiz-adv-x="1008" 
d="M791 1513q-52 -383 -287 -383q-120 0 -192 100.5t-95 282.5l64 15q27 -101 54.5 -144.5t67.5 -66.5t101 -23q60 0 101 22t68.5 66.5t55.5 145.5z" />
    <glyph glyph-name="dotaccent" unicode="&#x2d9;" horiz-adv-x="1008" 
d="M649 1368q0 -64 -41.5 -109t-103.5 -45q-61 0 -102.5 44t-41.5 106q0 65 42.5 108.5t101.5 43.5q61 0 103 -43t42 -105z" />
    <glyph glyph-name="ring" unicode="&#x2da;" horiz-adv-x="1024" 
d="M780 1335q0 -102 -73.5 -164.5t-194.5 -62.5q-124 0 -196 62t-72 165q0 100 74 164t194 64q122 0 195 -62.5t73 -165.5zM643 1335q0 69 -33 114.5t-98 45.5q-63 0 -97 -42.5t-34 -117.5q0 -71 33 -115t98 -44t98 43.5t33 115.5z" />
    <glyph glyph-name="ogonek" unicode="&#x2db;" horiz-adv-x="1024" 
d="M659 -444q-186 0 -271 48.5t-85 145.5q0 163 229 289h74q-119 -124 -119 -260q0 -66 40 -104.5t135 -43.5v-75h-3z" />
    <glyph glyph-name="tilde" unicode="&#x2dc;" horiz-adv-x="1008" 
d="M879 1473q-29 -114 -100 -193.5t-152 -79.5q-56 0 -97.5 16.5t-76 37t-66 37t-65.5 16.5q-38 0 -65 -28t-69 -114l-63 29q38 118 108.5 193t145.5 75q51 0 93 -16.5t77 -36t66 -35.5t61 -16q32 0 54 10t39 32t48 95z" />
    <glyph glyph-name="hungarumlaut" unicode="&#x2dd;" horiz-adv-x="1008" 
d="M170 1141l103 172q81 142 104.5 170.5t48 40.5t55.5 12q47 0 73 -27t26 -65q0 -42 -26 -75t-96.5 -85.5t-248.5 -179.5zM545 1141l172 291q34 57 65.5 80.5t73.5 23.5q47 0 72.5 -27t25.5 -65q0 -43 -25.5 -75.5t-97.5 -86t-247 -178.5z" />
    <glyph glyph-name="gravecomb" unicode="&#x300;" horiz-adv-x="1014" 
d="M266 1774q0 42 31 68t76 26q41 0 84 -29.5t89 -76t96 -104t106 -112.5l-31 -39l-218 88q-162 63 -197.5 95.5t-35.5 83.5z" />
    <glyph glyph-name="acutecomb" unicode="&#x301;" horiz-adv-x="1014" 
d="M268 1507l-30 39l120 123l57 64q117 135 199 135q45 0 75 -26t30 -68q0 -81 -96 -121q-47 -23 -137 -58t-218 -88z" />
    <glyph glyph-name="uni0302" unicode="&#x302;" horiz-adv-x="1012" 
d="M815 1522l-47 -33l-264 209l-264 -209l-45 33q126 194 166 251t58 71t38.5 19t48.5 5q36 0 58 -8.5t50 -40.5q28 -41 52.5 -76t148.5 -221z" />
    <glyph glyph-name="uni0306" unicode="&#x306;" horiz-adv-x="1012" 
d="M797 1855q-23 -165 -93.5 -245t-197.5 -80q-247 0 -291 325l64 19q24 -88 76.5 -135t150.5 -47q94 0 147.5 46t79.5 136z" />
    <glyph glyph-name="uni0308" unicode="&#x308;" horiz-adv-x="1012" 
d="M866 1714q0 -63 -40.5 -104t-96.5 -41t-96.5 41t-40.5 104t41 104.5t96 41.5t96 -41t41 -105zM420 1714q0 -61 -40.5 -103t-96.5 -42q-59 0 -98.5 42.5t-39.5 102.5t40 103t98 43q55 0 96 -42.5t41 -103.5z" />
    <glyph glyph-name="uni030B" unicode="&#x30b;" horiz-adv-x="1012" 
d="M174 1493l-31 35l63 73l132 158q32 50 72 79.5t77 29.5q45 0 72 -26t27 -64q0 -41 -23 -65t-61 -46l-165 -85zM555 1493l-31 35l183 213q41 59 86.5 93t78.5 34q45 0 72 -26t27 -64q0 -70 -82 -111q-174 -86 -334 -174z" />
    <glyph glyph-name="uni030C" unicode="&#x30c;" horiz-adv-x="1012" 
d="M817 1841q-82 -124 -146 -214.5t-78.5 -104t-34.5 -18.5t-54 -5q-30 0 -49.5 4.5t-36 18.5t-82 109.5t-141.5 209.5l47 35l264 -209l262 209z" />
    <glyph glyph-name="uni0326" unicode="&#x326;" horiz-adv-x="1024" 
d="M666 -231q0 -102 -71.5 -157.5t-203.5 -55.5v59q91 6 131.5 34t44.5 89h-45q-74 0 -102.5 24.5t-28.5 73.5q0 40 32 69t91 29q71 0 111.5 -45.5t40.5 -119.5z" />
    <glyph glyph-name="tonos" unicode="&#x384;" horiz-adv-x="1008" 
d="M739 1530l-245 -397h-72l63 426h254v-29z" />
    <glyph glyph-name="dieresistonos" unicode="&#x385;" horiz-adv-x="999" 
d="M940 1343q0 -59 -39.5 -102t-97.5 -43q-56 0 -96.5 42.5t-40.5 102.5q0 61 41.5 103.5t95.5 42.5q56 0 96.5 -42.5t40.5 -103.5zM358 1343q0 -59 -41 -102t-98 -43q-56 0 -96.5 42.5t-40.5 102.5q0 61 41.5 103.5t95.5 42.5q55 0 97 -43t42 -103zM682 1559l-215 -416h-66
l64 442h217v-26z" />
    <glyph glyph-name="Alphatonos" unicode="&#x386;" horiz-adv-x="1317" 
d="M733 0v74q76 5 125 19.5t49 37.5q0 13 -6 38.5t-102 313.5h-428q-38 -96 -66.5 -193t-28.5 -128q0 -35 45.5 -58t133.5 -30v-74h-502v74q154 11 221 176q74 183 159.5 419.5t264.5 770.5h135l441 -1227q13 -36 31.5 -62t56.5 -48t96 -29v-74h-625zM584 1114l-181 -539
h365zM405 1393l-245 -397h-72l63 426h254v-29z" />
    <glyph glyph-name="anoteleia" unicode="&#x387;" horiz-adv-x="664" 
d="M496 823q0 -69 -48 -117.5t-116 -48.5q-69 0 -117.5 48t-48.5 118q0 69 49 118.5t117 49.5q67 0 115.5 -50t48.5 -118z" />
    <glyph glyph-name="Epsilontonos" unicode="&#x388;" horiz-adv-x="1604" 
d="M1530 0h-1122v74q48 4 94 13.5t67 34.5t21 75v1011q0 44 -17 69.5t-72.5 44t-92.5 21.5v76h1046v-352h-73q-28 88 -96 168t-128 90q-58 10 -170 10h-116v-557h57q81 0 128.5 23.5t75.5 87.5t38 127h73v-574h-73q-7 50 -27.5 108t-38.5 79q-30 30 -51 40t-51 16.5t-74 6.5
h-57v-418q0 -82 10 -119t34.5 -53t94.5 -16q146 0 213.5 12.5t91.5 36.5q38 41 91.5 135.5t78.5 159.5h72zM335 1393l-245 -397h-72l63 426h254v-29z" />
    <glyph glyph-name="Etatonos" unicode="&#x389;" horiz-adv-x="1944" 
d="M1241 0v74q82 7 113 20.5t42 38.5t11 60v497h-532v-485q0 -66 41 -94t122 -37v-74h-620v74q99 8 126.5 22.5t38.5 39.5t11 59v1013q0 41 -16.5 67t-72 46t-87.5 22v76h620v-76q-39 -3 -88.5 -18.5t-62 -41.5t-12.5 -64v-433h532v422q0 40 -17.5 66t-67 46.5t-81.5 22.5
v76h619v-76q-46 -4 -95.5 -18t-64 -39.5t-14.5 -66.5v-1014q0 -68 59 -103q11 -6 52 -16.5t63 -11.5v-74h-619zM335 1393l-245 -397h-72l63 426h254v-29z" />
    <glyph glyph-name="Iotatonos" unicode="&#x38a;" horiz-adv-x="1133" 
d="M400 0v74q74 6 103.5 11.5t50 19t29.5 37t9 51.5v1017q0 40 -16.5 64.5t-74 44.5t-101.5 24v76h661v-76q-52 -4 -106.5 -18t-69 -39t-14.5 -65v-1018q0 -47 23.5 -74t78.5 -40t88 -15v-74h-661zM335 1393l-245 -397h-72l63 426h254v-29z" />
    <glyph glyph-name="Omicrontonos" unicode="&#x38c;" horiz-adv-x="1688" 
d="M1614 713q0 -215 -85.5 -388t-239 -267.5t-345.5 -94.5q-186 0 -340 95t-239.5 264t-85.5 378q0 218 86 390.5t240 268t341 95.5q188 0 341 -93.5t240 -264t87 -383.5zM1299 711q0 303 -92 477t-261 174q-168 0 -260 -171.5t-92 -483.5q0 -307 92.5 -478.5t259.5 -171.5
q171 0 262 173.5t91 480.5zM335 1393l-245 -397h-72l63 426h254v-29z" />
    <glyph glyph-name="Upsilontonos" unicode="&#x38e;" horiz-adv-x="1655" 
d="M1720 1343q-59 -14 -92.5 -33t-64.5 -52t-90 -135t-130.5 -232.5t-101 -184.5t-43.5 -97.5t-16 -92.5t-2 -67v-236q0 -47 23 -76t85.5 -45t91.5 -18v-74h-676v74q53 4 103.5 13.5t72 37t21.5 78.5v291q0 39 -23 97.5t-110 244.5t-140 287.5t-90 140.5t-79.5 58t-81.5 21
v76h653v-76l-53 -3q-111 -4 -111 -44q0 -24 96.5 -239.5t169.5 -358.5q105 182 196 364.5t91 213.5q0 30 -33.5 45.5t-126.5 21.5v76h461v-76zM335 1393l-245 -397h-72l63 426h254v-29z" />
    <glyph glyph-name="Omegatonos" unicode="&#x38f;" horiz-adv-x="1737" 
d="M1450 209q58 0 116 53.5t105 155.5l66 -21l-123 -397h-588v82q57 95 103.5 175t79 160t50 169.5t17.5 204.5q0 272 -83 421.5t-237 149.5q-153 0 -234 -150.5t-81 -420.5q0 -115 17.5 -205t49.5 -170.5t78 -160t103 -173.5v-82h-588l-123 397l68 21q48 -104 104 -156.5
t115 -52.5h221v29q-81 83 -147 154.5t-113 146.5t-72.5 160t-25.5 194q0 152 81.5 282.5t225.5 204.5t321 74q181 0 326.5 -74t226 -204t80.5 -283q0 -114 -29.5 -206.5t-88 -179t-234.5 -269.5v-29h213zM335 1393l-245 -397h-72l63 426h254v-29z" />
    <glyph glyph-name="iotadieresistonos" unicode="&#x390;" horiz-adv-x="598" 
d="M616 31q-131 -56 -231 -56q-219 0 -219 256l2 539q0 37 -16 66t-46 47t-88 24v70l388 22l14 -14v-709q0 -90 29.5 -134t93.5 -44q43 0 73 6v-73zM745 1343q0 -59 -39.5 -102t-97.5 -43q-56 0 -96.5 42.5t-40.5 102.5q0 61 41.5 103.5t95.5 42.5q56 0 96.5 -42.5
t40.5 -103.5zM163 1343q0 -59 -41 -102t-98 -43q-56 0 -96.5 42.5t-40.5 102.5q0 61 41.5 103.5t95.5 42.5q55 0 97 -43t42 -103zM487 1559l-215 -416h-66l64 442h217v-26z" />
    <glyph glyph-name="Alpha" unicode="&#x391;" horiz-adv-x="1317" 
d="M733 0v74q76 5 125 19.5t49 37.5q0 13 -6 38.5t-102 313.5h-428q-38 -96 -66.5 -193t-28.5 -128q0 -35 45.5 -58t133.5 -30v-74h-502v74q154 11 221 176q74 183 159.5 419.5t264.5 770.5h135l441 -1227q13 -36 31.5 -62t56.5 -48t96 -29v-74h-625zM584 1114l-181 -539
h365z" />
    <glyph glyph-name="Beta" unicode="&#x392;" horiz-adv-x="1303" 
d="M1221 385q0 -183 -128.5 -284t-357.5 -101h-655v74q96 4 137 32.5t41 92.5v1007q0 53 -40 88t-134 49v76h631q209 0 318.5 -81t109.5 -232q0 -252 -348 -338v-12q198 -25 312 -122.5t114 -248.5zM836 1083q0 120 -50 185t-147 65l-102 -4v-534h36q138 0 200.5 66.5
t62.5 221.5zM905 410q0 150 -75 222.5t-240 72.5q-30 0 -53 -5v-485q0 -129 143 -129q106 0 165.5 83t59.5 241z" />
    <glyph glyph-name="Gamma" unicode="&#x393;" horiz-adv-x="1135" 
d="M1049 1008q-19 64 -62 143t-87 123.5t-83 50.5q-76 10 -172 10h-106v-1130q0 -28 7 -50.5t23.5 -36.5t39.5 -22t122 -22v-74h-655v74q112 7 147 32.5t35 90.5v1007q0 46 -17 72t-72 45t-93 22v76h1046v-411h-73z" />
    <glyph glyph-name="uni0394" unicode="&#x394;" horiz-adv-x="1319" 
d="M18 0v53l594 1387h133l555 -1387v-53h-1282zM586 1130l-398 -944h764z" />
    <glyph glyph-name="Epsilon" unicode="&#x395;" horiz-adv-x="1272" 
d="M1198 0h-1122v74q48 4 94 13.5t67 34.5t21 75v1011q0 44 -17 69.5t-72.5 44t-92.5 21.5v76h1046v-352h-73q-28 88 -96 168t-128 90q-58 10 -170 10h-116v-557h57q81 0 128.5 23.5t75.5 87.5t38 127h73v-574h-73q-7 50 -27.5 108t-38.5 79q-30 30 -51 40t-51 16.5t-74 6.5
h-57v-418q0 -82 10 -119t34.5 -53t94.5 -16q146 0 213.5 12.5t91.5 36.5q38 41 91.5 135.5t78.5 159.5h72z" />
    <glyph glyph-name="Zeta" unicode="&#x396;" horiz-adv-x="1217" 
d="M1145 0h-1123v49l799 1284h-223q-130 0 -188 -20q-53 -14 -117 -92t-133 -220h-74l43 418h1038v-49l-800 -1284h251q129 0 203 11.5t103 45.5q53 55 108.5 146.5t89.5 171.5h70z" />
    <glyph glyph-name="Eta" unicode="&#x397;" horiz-adv-x="1608" 
d="M905 0v74q82 7 113 20.5t42 38.5t11 60v497h-532v-485q0 -66 41 -94t122 -37v-74h-620v74q99 8 126.5 22.5t38.5 39.5t11 59v1013q0 41 -16.5 67t-72 46t-87.5 22v76h620v-76q-39 -3 -88.5 -18.5t-62 -41.5t-12.5 -64v-433h532v422q0 40 -17.5 66t-67 46.5t-81.5 22.5v76
h619v-76q-46 -4 -95.5 -18t-64 -39.5t-14.5 -66.5v-1014q0 -68 59 -103q11 -6 52 -16.5t63 -11.5v-74h-619z" />
    <glyph glyph-name="Theta" unicode="&#x398;" horiz-adv-x="1495" 
d="M1421 713q0 -215 -86.5 -387.5t-242 -267.5t-349.5 -95q-187 0 -340.5 93.5t-241 263.5t-87.5 380q0 217 87 389.5t242.5 268.5t344.5 96t344.5 -93t242 -262.5t86.5 -385.5zM1108 711q0 308 -95 479.5t-265 171.5q-172 0 -266.5 -172t-94.5 -483q0 -310 95 -480
t266 -170q173 0 266.5 173t93.5 481zM907 471q-18 107 -42.5 125t-116.5 18q-43 0 -69.5 -3.5t-40 -11t-26 -33.5t-22.5 -95h-66v475h66q12 -77 24.5 -101t37 -32t96.5 -8q70 0 95.5 8t39 36t24.5 97h66v-475h-66z" />
    <glyph glyph-name="Iota" unicode="&#x399;" horiz-adv-x="801" 
d="M68 0v74q74 6 103.5 11.5t50 19t29.5 37t9 51.5v1017q0 40 -16.5 64.5t-74 44.5t-101.5 24v76h661v-76q-52 -4 -106.5 -18t-69 -39t-14.5 -65v-1018q0 -47 23.5 -74t78.5 -40t88 -15v-74h-661z" />
    <glyph glyph-name="Kappa" unicode="&#x39a;" horiz-adv-x="1409" 
d="M995 0q-208 355 -426 674h-30v-469q0 -74 55 -103q8 -6 48 -16t67 -12v-74h-625v74q68 6 104 14t53 34t17 71v1015q0 73 -55 100.5t-119 34.5v76h637v-76q-64 -5 -111.5 -19t-59 -40t-11.5 -65v-484h18q180 177 298 335.5t118 223.5q0 43 -144 49v76h535v-76
q-89 -9 -143.5 -33.5t-87.5 -62.5q-128 -144 -353 -409q107 -170 220.5 -338.5t166.5 -241t100 -111t82.5 -53t102.5 -20.5v-74h-457z" />
    <glyph glyph-name="Lambda" unicode="&#x39b;" horiz-adv-x="1321" 
d="M279 162q0 -35 45.5 -58t132.5 -30v-74h-504v74q64 5 110 37q38 21 63.5 53t47.5 86q90 223 183.5 484t242.5 706h141q18 -58 223.5 -634t229.5 -623.5t55.5 -69t58 -29t54.5 -10.5v-74h-629v74q76 5 126 19.5t50 37.5q0 32 -16 76l-303 905l-217 -623
q-63 -173 -78.5 -232t-15.5 -95z" />
    <glyph glyph-name="Mu" unicode="&#x39c;" horiz-adv-x="1831" 
d="M1102 0v74q118 13 157 42t39 89v1038l-22 -37q-309 -869 -418 -1183h-86l-395 1204l-21 37v-848q0 -75 6 -128t18.5 -88t33.5 -57.5t76.5 -44t89.5 -24.5v-74h-541v74q58 5 106.5 25.5t68.5 51.5t29 91.5t9 163.5v712q0 99 -48.5 157.5t-154.5 67.5v76h537l317 -968
l281 788q40 127 47 180h520v-76q-87 -11 -116.5 -25t-45.5 -37.5t-16 -63.5v-1012q0 -121 180 -131v-74h-651z" />
    <glyph glyph-name="Nu" unicode="&#x39d;" horiz-adv-x="1485" 
d="M1466 1343q-51 -5 -97.5 -20.5t-64.5 -34.5t-29 -51.5t-16.5 -87t-5.5 -135.5v-1026h-123l-772 1130v-698q0 -78 6 -134t17.5 -89.5t32.5 -56t74 -41.5t96 -25v-74h-545v74q27 2 81.5 18.5t76 36t33 51t17 87.5t5.5 141v686q0 64 -24.5 118.5t-82.5 88t-120 42.5v76h430
l694 -1016v601q0 123 -16 188t-48 94q-22 16 -72 34t-91 23v76h544v-76z" />
    <glyph glyph-name="Xi" unicode="&#x39e;" horiz-adv-x="1346" 
d="M156 0l-62 475h72q51 -132 99.5 -188.5t105.5 -65.5t138.5 -9.5t162.5 -0.5h81q142 0 222 10q54 3 103.5 62t101.5 192h71l-61 -475h-1034zM676 1212q-160 0 -295 -10q-48 -6 -90.5 -59.5t-91.5 -188.5h-72q2 48 31 465h1036l33 -465h-72q-46 129 -82.5 178.5t-79.5 64.5
t-317 15zM676 616q-81 0 -129 -7.5t-62 -30.5q-23 -41 -36 -121h-70v510h70q6 -34 13 -63.5t21 -54.5t60 -32.5t133 -7.5q80 0 128 7t62 30q23 42 37 121h72v-510h-72l-12 69q-8 48 -55.5 69t-159.5 21z" />
    <glyph glyph-name="Omicron" unicode="&#x39f;" horiz-adv-x="1483" 
d="M1409 713q0 -215 -85.5 -388t-239 -267.5t-345.5 -94.5q-186 0 -340 95t-239.5 264t-85.5 378q0 218 86 390.5t240 268t341 95.5q188 0 341 -93.5t240 -264t87 -383.5zM1094 711q0 303 -92 477t-261 174q-168 0 -260 -171.5t-92 -483.5q0 -307 92.5 -478.5t259.5 -171.5
q171 0 262 173.5t91 480.5z" />
    <glyph glyph-name="Pi" unicode="&#x3a0;" horiz-adv-x="1595" 
d="M539 205q0 -48 20.5 -75t66.5 -40t74 -16v-74h-618v74q99 8 126.5 22.5t38.5 39.5t11 59v1013q0 71 -58.5 100.5t-117.5 34.5v76h1429v-76q-82 -6 -128 -28.5t-46 -95.5v-1014q0 -46 22 -74t68.5 -41t83.5 -16v-74h-618v74q83 6 115.5 22t43.5 49.5t7 47.5v1128h-520
v-1116z" />
    <glyph glyph-name="Rho" unicode="&#x3a1;" horiz-adv-x="1208" 
d="M1157 1067q0 -216 -137.5 -333.5t-382.5 -117.5h-100v-413q0 -69 44.5 -97t141.5 -32v-74h-641v74q107 7 141.5 35t34.5 88v1013q0 41 -19 67t-51.5 41t-109.5 25v76h620q218 0 338.5 -93t120.5 -259zM844 1016q0 173 -61.5 244t-204.5 71h-41v-624h30q98 0 158.5 34
t89.5 96.5t29 178.5z" />
    <glyph glyph-name="Sigma" unicode="&#x3a3;" horiz-adv-x="1176" 
d="M1085 0h-1062v49l509 604l-499 719v47h1014v-395h-74q-32 108 -96 197t-125 102q-57 10 -172 10h-197l375 -534v-29l-471 -549h477l67 2q71 0 131 64t115 211h74z" />
    <glyph glyph-name="Tau" unicode="&#x3a4;" horiz-adv-x="1219" 
d="M1135 1024q-14 55 -56 133t-83 121.5t-74 48.5q-54 8 -156 8h-16v-1124q0 -48 22 -75.5t79.5 -43t96.5 -18.5v-74h-678v74q25 2 74.5 9.5t63.5 12.5q63 27 63 105v1134h-16q-84 0 -156 -8q-36 -6 -77 -52.5t-80 -119.5t-56 -131h-74v395h1194v-395h-71z" />
    <glyph glyph-name="Upsilon" unicode="&#x3a5;" horiz-adv-x="1225" 
d="M1290 1343q-59 -14 -92.5 -33t-64.5 -52t-90 -135t-130.5 -232.5t-101 -184.5t-43.5 -97.5t-16 -92.5t-2 -67v-236q0 -47 23 -76t85.5 -45t91.5 -18v-74h-676v74q53 4 103.5 13.5t72 37t21.5 78.5v291q0 39 -23 97.5t-110 244.5t-140 287.5t-90 140.5t-79.5 58t-81.5 21
v76h653v-76l-53 -3q-111 -4 -111 -44q0 -24 96.5 -239.5t169.5 -358.5q105 182 196 364.5t91 213.5q0 30 -33.5 45.5t-126.5 21.5v76h461v-76z" />
    <glyph glyph-name="Phi" unicode="&#x3a6;" horiz-adv-x="1591" 
d="M662 1135h-17q-135 0 -212 -111.5t-77 -308.5q0 -122 38 -222t106.5 -149t161.5 -49v840zM1235 715q0 126 -36.5 223.5t-105 147t-163.5 49.5v-840q91 0 159 49t107 150.5t39 220.5zM930 172q0 -63 38 -87t142 -28v-71h-616v71q102 8 136 33.5t34 81.5v37
q-278 0 -441.5 140t-163.5 384q0 145 70 254.5t204 169.5t316 60h15v20q0 54 -43 87.5t-129 39.5v74h606v-74q-72 -5 -103 -17t-48 -37t-17 -65v-26q190 0 325 -58.5t206 -167.5t71 -254q0 -159 -75.5 -280t-212.5 -185.5t-314 -64.5v-37z" />
    <glyph glyph-name="Chi" unicode="&#x3a7;" horiz-adv-x="1393" 
d="M692 0v74q91 5 126.5 19t35.5 38q0 11 -10.5 34.5t-56.5 116.5t-164 306q-125 -177 -196 -296.5t-71 -150.5q0 -30 25.5 -44.5t118.5 -22.5v-74h-492v74q59 5 91.5 19.5t60 35t54.5 50t80.5 102t274.5 395.5q-230 400 -274.5 473t-77.5 109t-81 58t-118 27v76h703v-76
q-74 -3 -116 -14t-42 -37q0 -31 74.5 -178t128.5 -242q105 158 165 268.5t60 137.5q0 37 -35.5 48.5t-103.5 16.5v76h491v-76q-63 -5 -113.5 -30.5t-102 -85t-111.5 -142.5t-128 -190l-71 -107q151 -266 236.5 -410.5t136.5 -202t93 -77t112 -24.5v-74h-703z" />
    <glyph glyph-name="Psi" unicode="&#x3a8;" horiz-adv-x="1761" 
d="M1016 213q0 -51 23.5 -80t74.5 -42t98 -17v-74h-663v74q123 9 158.5 34.5t35.5 94.5v237q-559 13 -559 494v276q0 61 -44 94t-120 39v76h435v-508q0 -354 288 -381v684q0 68 -38.5 94.5t-114.5 34.5v76h581v-76q-83 -7 -119 -33t-36 -91v-689q143 15 216 108t73 273v508
h436v-76q-85 -7 -123.5 -34.5t-38.5 -94.5v-280q0 -240 -140 -363t-423 -131v-227z" />
    <glyph glyph-name="uni03A9" unicode="&#x3a9;" horiz-adv-x="1559" 
d="M1272 209q58 0 116 53.5t105 155.5l66 -21l-123 -397h-588v82q57 95 103.5 175t79 160t50 169.5t17.5 204.5q0 272 -83 421.5t-237 149.5q-153 0 -234 -150.5t-81 -420.5q0 -115 17.5 -205t49.5 -170.5t78 -160t103 -173.5v-82h-588l-123 397l68 21q48 -104 104 -156.5
t115 -52.5h221v29q-81 83 -147 154.5t-113 146.5t-72.5 160t-25.5 194q0 152 81.5 282.5t225.5 204.5t321 74q181 0 326.5 -74t226 -204t80.5 -283q0 -114 -29.5 -206.5t-88 -179t-234.5 -269.5v-29h213z" />
    <glyph glyph-name="Iotadieresis" unicode="&#x3aa;" horiz-adv-x="801" 
d="M68 0v74q74 6 103.5 11.5t50 19t29.5 37t9 51.5v1017q0 40 -16.5 64.5t-74 44.5t-101.5 24v76h661v-76q-52 -4 -106.5 -18t-69 -39t-14.5 -65v-1018q0 -47 23.5 -74t78.5 -40t88 -15v-74h-661zM330 1714q0 -60 -39.5 -102.5t-98.5 -42.5q-56 0 -95.5 42.5t-39.5 102.5
q0 62 40.5 103.5t94.5 41.5q58 0 98 -41.5t40 -103.5zM745 1714q0 -62 -39.5 -103.5t-95.5 -41.5t-96.5 41t-40.5 104q0 65 41 105t96 40t95 -40.5t40 -104.5z" />
    <glyph glyph-name="Upsilondieresis" unicode="&#x3ab;" horiz-adv-x="1225" 
d="M1290 1343q-59 -14 -92.5 -33t-64.5 -52t-90 -135t-130.5 -232.5t-101 -184.5t-43.5 -97.5t-16 -92.5t-2 -67v-236q0 -47 23 -76t85.5 -45t91.5 -18v-74h-676v74q53 4 103.5 13.5t72 37t21.5 78.5v291q0 39 -23 97.5t-110 244.5t-140 287.5t-90 140.5t-79.5 58t-81.5 21
v76h653v-76l-53 -3q-111 -4 -111 -44q0 -24 96.5 -239.5t169.5 -358.5q105 182 196 364.5t91 213.5q0 30 -33.5 45.5t-126.5 21.5v76h461v-76zM1018 1704q0 -63 -40.5 -104t-96.5 -41t-96.5 41t-40.5 104t41 104.5t96 41.5t96 -41t41 -105zM572 1704q0 -61 -40.5 -103
t-96.5 -42q-59 0 -98.5 42.5t-39.5 102.5t40 103t98 43q55 0 96 -42.5t41 -103.5z" />
    <glyph glyph-name="alphatonos" unicode="&#x3ac;" horiz-adv-x="1163" 
d="M1180 18q-123 -43 -205 -43q-98 0 -146.5 51t-64.5 162q-62 -114 -138 -165.5t-177 -51.5q-104 0 -192 66.5t-137.5 184.5t-49.5 265q0 146 55.5 268t153 191.5t210.5 69.5q205 0 283 -203l27 174h243q-24 -184 -88 -520q3 -98 13.5 -164.5t26.5 -109t37.5 -64.5
t48.5 -31.5t100 -9.5v-70zM539 932q-85 0 -138 -125.5t-53 -325.5q0 -189 52.5 -294t144.5 -105q172 0 186 440q-15 215 -63.5 312.5t-128.5 97.5zM837 1530l-245 -397h-72l63 426h254v-29z" />
    <glyph glyph-name="epsilontonos" unicode="&#x3ad;" horiz-adv-x="936" 
d="M920 258q-65 -140 -174.5 -214.5t-262.5 -74.5q-186 0 -295.5 80t-109.5 215q0 105 72.5 172t201.5 80v8q-243 47 -243 230q0 74 48 135t137.5 95t203.5 34q168 0 269 -66.5t101 -175.5q0 -59 -33 -96t-96 -37q-60 0 -95.5 30.5t-35.5 80.5q0 36 25 145q-44 39 -105 39
q-66 0 -105.5 -51t-39.5 -131q0 -195 158 -195h57v-96h-63q-87 0 -133 -49.5t-46 -136.5q0 -90 54 -141.5t151 -51.5q89 0 159.5 51t127.5 166zM739 1530l-245 -397h-72l63 426h254v-29z" />
    <glyph glyph-name="etatonos" unicode="&#x3ae;" horiz-adv-x="1120" 
d="M967 -444h-254v1106q0 106 -33.5 159t-87.5 53q-55 0 -104.5 -39t-73.5 -98v-737h-250v770q0 37 -21.5 73.5t-49 48.5t-70.5 15v72l376 20l15 -14v-141h4l53 61q99 111 242 111q123 0 188.5 -86.5t65.5 -245.5v-1128zM782 1530l-245 -397h-72l63 426h254v-29z" />
    <glyph glyph-name="iotatonos" unicode="&#x3af;" horiz-adv-x="598" 
d="M616 31q-131 -56 -231 -56q-219 0 -219 256l2 539q0 37 -16 66t-46 47t-88 24v70l388 22l14 -14v-709q0 -90 29.5 -134t93.5 -44q43 0 73 6v-73zM522 1530l-245 -397h-72l63 426h254v-29z" />
    <glyph glyph-name="upsilondieresistonos" unicode="&#x3b0;" horiz-adv-x="1028" 
d="M496 -31q-160 0 -246 89.5t-86 249.5l2 423q0 82 -21.5 115t-76.5 33q-26 0 -78 -13v74q132 66 227 66q117 0 162 -64t45 -183l-2 -412q0 -132 37.5 -194.5t128.5 -62.5q104 0 169.5 113.5t65.5 288.5q0 68 -25 116.5t-77 89.5q-57 45 -80 86.5t-23 98.5t36.5 93t93.5 36
q92 0 143 -94t51 -275q0 -310 -119.5 -492t-326.5 -182zM963 1343q0 -59 -39.5 -102t-97.5 -43q-56 0 -96.5 42.5t-40.5 102.5q0 61 41.5 103.5t95.5 42.5q56 0 96.5 -42.5t40.5 -103.5zM381 1343q0 -59 -41 -102t-98 -43q-56 0 -96.5 42.5t-40.5 102.5q0 61 41.5 103.5
t95.5 42.5q55 0 97 -43t42 -103zM705 1559l-215 -416h-66l64 442h217v-26z" />
    <glyph glyph-name="alpha" unicode="&#x3b1;" horiz-adv-x="1163" 
d="M1180 18q-123 -43 -205 -43q-98 0 -146.5 51t-64.5 162q-62 -114 -138 -165.5t-177 -51.5q-104 0 -192 66.5t-137.5 184.5t-49.5 265q0 146 55.5 268t153 191.5t210.5 69.5q205 0 283 -203l27 174h243q-24 -184 -88 -520q3 -98 13.5 -164.5t26.5 -109t37.5 -64.5
t48.5 -31.5t100 -9.5v-70zM539 932q-85 0 -138 -125.5t-53 -325.5q0 -189 52.5 -294t144.5 -105q172 0 186 440q-15 215 -63.5 312.5t-128.5 97.5z" />
    <glyph glyph-name="beta" unicode="&#x3b2;" horiz-adv-x="1133" 
d="M1063 479q0 -142 -57 -258t-158 -182t-217 -66q-131 0 -209 68h-8v-485h-252v1448q0 154 25 241t85 158.5t144 109t190 37.5q180 0 289 -88t109 -241q0 -128 -85 -215t-227 -107l-2 -8q106 -11 191 -63.5t133.5 -139.5t48.5 -209zM782 475q0 186 -56 272.5t-169 86.5h-29
v100h15q93 0 149 76.5t56 203.5q0 125 -42 190.5t-110 65.5q-182 0 -182 -411v-842q18 -74 63.5 -117t102.5 -43q95 0 148.5 111.5t53.5 306.5z" />
    <glyph glyph-name="gamma" unicode="&#x3b3;" horiz-adv-x="975" 
d="M633 -223q0 -114 -30.5 -167.5t-106.5 -53.5q-136 0 -136 161q0 143 48 297q-58 190 -120.5 367t-162.5 418q-40 97 -148 108v70l338 22l17 -14q20 -72 123 -366q91 -263 118 -408q24 70 50 133t47 116.5t35 97.5t14 77q0 48 -23 125q-24 77 -24 119q0 25 18.5 58.5
t49.5 56t71 22.5q63 0 95 -40.5t32 -105.5q0 -88 -56 -197q-170 -331 -210 -418t-72 -173q33 -202 33 -305z" />
    <glyph glyph-name="delta" unicode="&#x3b4;" horiz-adv-x="1090" 
d="M739 473q0 351 -182 428q-97 -10 -152 -123t-55 -305q0 -193 51.5 -309.5t143.5 -116.5q93 0 143.5 114.5t50.5 311.5zM164 1276q0 78 50 140.5t143 98t223 35.5q169 0 271.5 -62t102.5 -171q0 -67 -34 -106.5t-93 -39.5q-68 0 -102.5 33t-34.5 82q0 40 10 78t19 72
q-54 34 -125 34q-74 0 -118 -49t-44 -125q0 -78 57.5 -141.5t219.5 -155.5q165 -95 238 -213.5t73 -300.5q0 -145 -61 -264.5t-169.5 -186.5t-242.5 -67q-135 0 -245 66t-171 183.5t-61 260.5q0 194 110.5 322.5t298.5 158.5v7q-175 67 -245 137t-70 174z" />
    <glyph glyph-name="epsilon" unicode="&#x3b5;" horiz-adv-x="936" 
d="M920 258q-65 -140 -174.5 -214.5t-262.5 -74.5q-186 0 -295.5 80t-109.5 215q0 105 72.5 172t201.5 80v8q-243 47 -243 230q0 74 48 135t137.5 95t203.5 34q168 0 269 -66.5t101 -175.5q0 -59 -33 -96t-96 -37q-60 0 -95.5 30.5t-35.5 80.5q0 36 25 145q-44 39 -105 39
q-66 0 -105.5 -51t-39.5 -131q0 -195 158 -195h57v-96h-63q-87 0 -133 -49.5t-46 -136.5q0 -90 54 -141.5t151 -51.5q89 0 159.5 51t127.5 166z" />
    <glyph glyph-name="zeta" unicode="&#x3b6;" horiz-adv-x="776" 
d="M844 1354q-244 -211 -371 -439t-127 -446q0 -84 22.5 -138.5t66 -85t126.5 -44.5l49 -6q219 -29 219 -263q0 -87 -48 -169.5t-130 -131.5t-172 -49q-88 0 -139 32t-51 89q0 45 24 73.5t72 28.5q29 0 50.5 -14t39 -34.5t32.5 -44t32 -42.5q61 11 100 58t39 118
q0 69 -39.5 106t-142.5 50q-208 22 -314 127t-106 287q0 206 138 419.5t464 491.5v10q-88 -3 -179 -9.5t-188 -6.5q-87 0 -131.5 33t-44.5 90q0 45 27 72.5t74 27.5q43 0 71.5 -17.5t53 -38.5t49.5 -38.5t63 -17.5q166 0 371 22v-100z" />
    <glyph glyph-name="eta" unicode="&#x3b7;" horiz-adv-x="1120" 
d="M967 -444h-254v1106q0 106 -33.5 159t-87.5 53q-55 0 -104.5 -39t-73.5 -98v-737h-250v770q0 37 -21.5 73.5t-49 48.5t-70.5 15v72l376 20l15 -14v-141h4l53 61q99 111 242 111q123 0 188.5 -86.5t65.5 -245.5v-1128z" />
    <glyph glyph-name="theta" unicode="&#x3b8;" horiz-adv-x="1110" 
d="M1028 762q0 -356 -129 -575.5t-346 -219.5q-136 0 -239.5 90.5t-167.5 262.5t-64 440q0 276 65 447t167 257t239 86q142 0 246 -92t166.5 -266t62.5 -430zM752 834q-3 636 -199 636q-194 0 -197 -636h396zM752 739h-396v-30q0 -332 48.5 -497t148.5 -165q199 0 199 662
v30z" />
    <glyph glyph-name="iota" unicode="&#x3b9;" horiz-adv-x="598" 
d="M616 31q-131 -56 -231 -56q-219 0 -219 256l2 539q0 37 -16 66t-46 47t-88 24v70l388 22l14 -14v-709q0 -90 29.5 -134t93.5 -44q43 0 73 6v-73z" />
    <glyph glyph-name="kappa" unicode="&#x3ba;" horiz-adv-x="1077" 
d="M1092 33q-120 -56 -232 -56q-74 0 -113 24t-73.5 80t-179.5 378l-78 -88v-371h-252v770q0 32 -13 63t-39 50.5t-85 23.5v72l374 20l15 -14v-510q72 96 140 194q124 181 170 237.5t85.5 80t83.5 23.5q62 0 95.5 -35.5t33.5 -102.5q0 -62 -36.5 -104.5t-88.5 -42.5
q-40 0 -72.5 18.5t-70.5 47.5q-48 -44 -113 -134q123 -251 184.5 -363t105.5 -154t91 -42q45 0 68 8v-73z" />
    <glyph glyph-name="lambda" unicode="&#x3bb;" horiz-adv-x="913" 
d="M304 1275h-70q-77 0 -117.5 37.5t-40.5 96.5q0 61 40 101t101 40q73 0 123.5 -45.5t95 -153.5t149.5 -441q53 -168 125.5 -388t107 -301t67.5 -109t88 -28h22v-66q-37 -14 -79.5 -27.5t-84.5 -13.5q-64 0 -99.5 44.5t-65.5 177.5l-22 96q-66 306 -93 405
q-27 -61 -61.5 -143t-119.5 -287.5t-102 -269.5h-288l469 1016q-59 190 -117 258z" />
    <glyph glyph-name="uni03BC" unicode="&#x3bc;" horiz-adv-x="1118" 
d="M1102 20q-90 -45 -176 -45q-179 0 -209 160h-6q-58 -89 -114 -124.5t-132 -35.5q-50 0 -92.5 22t-67.5 54h-8v-43q0 -56 31 -166q30 -111 30 -159q0 -57 -37 -92t-94 -35q-56 0 -89.5 36.5t-33.5 94.5q0 57 31 210q20 98 24.5 147.5t4.5 94.5v848h252v-665
q0 -107 28 -159t88 -52q108 0 168 125v751h254v-778q0 -80 41 -105q34 -16 107 -16v-68z" />
    <glyph glyph-name="nu" unicode="&#x3bd;" horiz-adv-x="963" 
d="M559 258l94 229q39 90 39 154q0 50 -19 122q-20 71 -20 116q0 61 41 99t103 38q55 0 92 -33t37 -90q0 -37 -8.5 -72t-25 -73.5t-75.5 -149.5q-203 -366 -280 -606h-129q-89 273 -144 428.5t-141 378.5q-43 101 -146 108v72l347 20l14 -14q14 -67 43 -166z" />
    <glyph glyph-name="xi" unicode="&#x3be;" horiz-adv-x="850" 
d="M819 1337h-41q-176 0 -270 -74t-94 -210q0 -118 76 -180t217 -62h51v-113h-92q-157 0 -239.5 -61.5t-82.5 -204.5q0 -237 250 -237h41q118 0 183 -70t65 -195q0 -90 -48.5 -171t-129 -129t-170.5 -48t-140.5 30t-50.5 89q0 45 24 73.5t72 28.5q70 0 123 -87l31 -46
q63 13 101 58t38 120q0 73 -44.5 114.5t-137.5 41.5h-68q-180 0 -293.5 103t-113.5 264q0 101 50 184.5t137 137.5t190 69v6q-152 26 -232 99t-80 180q0 104 77.5 180.5t219.5 113.5v17l-109 -7l-108 -5q-87 0 -133.5 27t-46.5 79q0 41 24 70.5t74 29.5q49 0 82.5 -17.5
t62 -38.5t57 -38.5t67.5 -17.5q208 0 411 18v-121z" />
    <glyph glyph-name="omicron" unicode="&#x3bf;" horiz-adv-x="1090" 
d="M1020 502q0 -155 -59.5 -277.5t-170 -190t-253.5 -67.5q-131 0 -238.5 66.5t-168 186.5t-60.5 272q0 234 130 380t347 146q213 0 343 -141.5t130 -374.5zM739 504q0 211 -49 323.5t-143 112.5q-95 0 -146 -110.5t-51 -321.5q0 -225 50 -343t147 -118q92 0 142 119.5
t50 337.5z" />
    <glyph glyph-name="pi" unicode="&#x3c0;" horiz-adv-x="1171" 
d="M274 199q97 196 97 522q0 69 -4 121h-29q-81 0 -128 -47t-60 -158h-68l-6 84q0 124 64.5 195t176.5 71h820v-145h-209v-451q0 -80 1 -136t11.5 -91.5t35 -51.5t71.5 -16q30 0 75 8v-75q-118 -52 -233 -52q-84 0 -130 32.5t-65.5 106.5t-19.5 232v494h-203l2 -66v-69
q-7 -318 -94 -526t-221 -208q-64 0 -101 39.5t-37 108.5q0 59 36.5 98t90.5 39q65 0 127 -59z" />
    <glyph glyph-name="rho" unicode="&#x3c1;" horiz-adv-x="1114" 
d="M1044 502q0 -149 -54.5 -270.5t-151 -190t-211.5 -68.5q-136 0 -211 68h-8v-485h-254v993q0 227 122 348t332 121q197 0 316.5 -139t119.5 -377zM768 506q0 432 -182 432q-62 0 -103.5 -48.5t-59 -135t-17.5 -264.5v-188l2 -85q15 -70 61.5 -116t105.5 -46
q90 0 141.5 121t51.5 330z" />
    <glyph glyph-name="sigma1" unicode="&#x3c2;" horiz-adv-x="883" 
d="M532 940q-50 0 -97.5 -49t-75 -135t-27.5 -199q0 -98 27 -163t80.5 -101t163.5 -70l81 -26q93 -32 135.5 -95t42.5 -163q0 -93 -49 -176.5t-132 -132t-181 -48.5q-191 0 -191 121q0 48 27.5 74t69.5 26q69 0 125 -88l32 -45q66 8 107 55t41 121q0 48 -26.5 81.5
t-96.5 60.5l-167 49q-180 52 -265.5 166t-85.5 291q0 150 62 270t170 187t230 67q146 0 236 -67.5t90 -174.5q0 -60 -32 -99.5t-95 -39.5q-60 0 -96.5 29.5t-36.5 85.5q0 40 9 80t14 71q-16 16 -35 26.5t-54 10.5z" />
    <glyph glyph-name="sigma" unicode="&#x3c3;" horiz-adv-x="1159" 
d="M1143 842h-279v-4q73 -71 114.5 -156t41.5 -203q0 -144 -60.5 -262.5t-171 -184t-251.5 -65.5q-129 0 -237 63t-169 176.5t-61 256.5q0 242 144 383t394 141h535v-145zM739 485q0 216 -63 357h-62q-130 0 -197 -97t-67 -290q0 -194 52 -301t145 -107t142.5 116.5
t49.5 321.5z" />
    <glyph glyph-name="tau" unicode="&#x3c4;" horiz-adv-x="852" 
d="M840 842h-291v-500q0 -110 11.5 -153t38.5 -63t75 -20q55 0 117 17v-78q-53 -25 -115.5 -47.5t-136.5 -22.5q-126 0 -185 65t-59 202v600h-33q-153 0 -170 -205h-67l-5 123q0 60 28 112t80 83.5t124 31.5h586z" />
    <glyph glyph-name="upsilon" unicode="&#x3c5;" horiz-adv-x="1028" 
d="M496 -31q-160 0 -246 89.5t-86 249.5l2 423q0 82 -21.5 115t-76.5 33q-26 0 -78 -13v74q132 66 227 66q117 0 162 -64t45 -183l-2 -412q0 -132 37.5 -194.5t128.5 -62.5q104 0 169.5 113.5t65.5 288.5q0 68 -25 116.5t-77 89.5q-57 45 -80 86.5t-23 98.5t36.5 93t93.5 36
q92 0 143 -94t51 -275q0 -310 -119.5 -492t-326.5 -182z" />
    <glyph glyph-name="phi" unicode="&#x3c6;" horiz-adv-x="1448" 
d="M1378 524q0 -158 -68.5 -280.5t-190.5 -194t-273 -80.5v-413h-246v413q-247 14 -388.5 155t-141.5 368q0 195 114.5 329t329.5 189l25 -78q-105 -56 -151 -166t-46 -270q0 -193 67 -307t191 -136v690q0 131 86 203t242 72q131 0 234 -60t159.5 -171.5t56.5 -262.5z
M1108 535q0 186 -45.5 293.5t-122.5 107.5q-42 0 -68 -35t-26 -92v-756q130 22 196 146t66 336z" />
    <glyph glyph-name="chi" unicode="&#x3c7;" horiz-adv-x="965" 
d="M578 219q139 -312 187.5 -395.5t91.5 -121.5t95 -38h54v-70q-32 -13 -85 -25.5t-87 -12.5q-55 0 -91 25.5t-66.5 85t-97.5 260.5l-63 184q-178 -353 -212 -428t-52 -127h-268l419 786q-104 245 -219 430q-40 67 -85 93t-109 26v67q103 46 166 46q55 0 90.5 -34.5
t66.5 -104t64 -173t84 -241.5l83 175q84 173 114 239.5t49 121.5h268z" />
    <glyph glyph-name="psi" unicode="&#x3c8;" horiz-adv-x="1468" 
d="M1247 512q0 64 -22 111.5t-68 86.5q-48 40 -69 76.5t-21 85.5q0 65 37 102.5t94 37.5q88 0 136 -85t48 -243q0 -307 -126 -495t-355 -220v-413h-246v413q-242 15 -367.5 122t-125.5 291l4 349q0 82 -20.5 115t-69.5 33q-12 0 -86 -13v74q139 66 225 66q109 0 156 -58.5
t47 -192.5l-4 -395q0 -82 28.5 -146t84.5 -103t128 -50v926h246v-928q157 18 251.5 143.5t94.5 309.5z" />
    <glyph glyph-name="omega" unicode="&#x3c9;" horiz-adv-x="1473" 
d="M907 1001q221 -22 357.5 -164t136.5 -364q0 -220 -110.5 -363t-280.5 -143q-175 0 -275 166q-98 -166 -270 -166q-113 0 -203 64t-140 180t-50 260q0 146 63 259t176.5 183.5t253.5 87.5l13 -81q-125 -26 -181.5 -146t-56.5 -332q0 -184 39.5 -287.5t112.5 -103.5
q63 0 92.5 52t29.5 173v386h246v-386q0 -120 29 -172.5t92 -52.5q74 0 113 104.5t39 286.5q0 432 -240 478z" />
    <glyph glyph-name="iotadieresis" unicode="&#x3ca;" horiz-adv-x="598" 
d="M616 31q-131 -56 -231 -56q-219 0 -219 256l2 539q0 37 -16 66t-46 47t-88 24v70l388 22l14 -14v-709q0 -90 29.5 -134t93.5 -44q43 0 73 6v-73zM207 1362q0 -60 -39.5 -102.5t-98.5 -42.5q-56 0 -95.5 42.5t-39.5 102.5q0 62 40.5 103.5t94.5 41.5q58 0 98 -41.5
t40 -103.5zM622 1362q0 -62 -39.5 -103.5t-95.5 -41.5t-96.5 41t-40.5 104q0 65 41 105t96 40t95 -40.5t40 -104.5z" />
    <glyph glyph-name="upsilondieresis" unicode="&#x3cb;" horiz-adv-x="1028" 
d="M496 -31q-160 0 -246 89.5t-86 249.5l2 423q0 82 -21.5 115t-76.5 33q-26 0 -78 -13v74q132 66 227 66q117 0 162 -64t45 -183l-2 -412q0 -132 37.5 -194.5t128.5 -62.5q104 0 169.5 113.5t65.5 288.5q0 68 -25 116.5t-77 89.5q-57 45 -80 86.5t-23 98.5t36.5 93t93.5 36
q92 0 143 -94t51 -275q0 -310 -119.5 -492t-326.5 -182zM443 1362q0 -60 -39.5 -102.5t-98.5 -42.5q-56 0 -95.5 42.5t-39.5 102.5q0 62 40.5 103.5t94.5 41.5q58 0 98 -41.5t40 -103.5zM858 1362q0 -62 -39.5 -103.5t-95.5 -41.5t-96.5 41t-40.5 104q0 65 41 105t96 40
t95 -40.5t40 -104.5z" />
    <glyph glyph-name="omicrontonos" unicode="&#x3cc;" horiz-adv-x="1090" 
d="M1020 502q0 -155 -59.5 -277.5t-170 -190t-253.5 -67.5q-131 0 -238.5 66.5t-168 186.5t-60.5 272q0 234 130 380t347 146q213 0 343 -141.5t130 -374.5zM739 504q0 211 -49 323.5t-143 112.5q-95 0 -146 -110.5t-51 -321.5q0 -225 50 -343t147 -118q92 0 142 119.5
t50 337.5zM794 1530l-245 -397h-72l63 426h254v-29z" />
    <glyph glyph-name="upsilontonos" unicode="&#x3cd;" horiz-adv-x="1028" 
d="M496 -31q-160 0 -246 89.5t-86 249.5l2 423q0 82 -21.5 115t-76.5 33q-26 0 -78 -13v74q132 66 227 66q117 0 162 -64t45 -183l-2 -412q0 -132 37.5 -194.5t128.5 -62.5q104 0 169.5 113.5t65.5 288.5q0 68 -25 116.5t-77 89.5q-57 45 -80 86.5t-23 98.5t36.5 93t93.5 36
q92 0 143 -94t51 -275q0 -310 -119.5 -492t-326.5 -182zM757 1530l-245 -397h-72l63 426h254v-29z" />
    <glyph glyph-name="omegatonos" unicode="&#x3ce;" horiz-adv-x="1473" 
d="M907 1001q221 -22 357.5 -164t136.5 -364q0 -220 -110.5 -363t-280.5 -143q-175 0 -275 166q-98 -166 -270 -166q-113 0 -203 64t-140 180t-50 260q0 146 63 259t176.5 183.5t253.5 87.5l13 -81q-125 -26 -181.5 -146t-56.5 -332q0 -184 39.5 -287.5t112.5 -103.5
q63 0 92.5 52t29.5 173v386h246v-386q0 -120 29 -172.5t92 -52.5q74 0 113 104.5t39 286.5q0 432 -240 478zM977 1530l-245 -397h-72l63 426h254v-29z" />
    <glyph glyph-name="uni0401" unicode="&#x401;" horiz-adv-x="1272" 
d="M1198 0h-1122v74q48 4 94 13.5t67 34.5t21 75v1011q0 44 -17 69.5t-72.5 44t-92.5 21.5v76h1046v-352h-73q-28 88 -96 168t-128 90q-58 10 -170 10h-116v-557h57q81 0 128.5 23.5t75.5 87.5t38 127h73v-574h-73q-7 50 -27.5 108t-38.5 79q-30 30 -51 40t-51 16.5t-74 6.5
h-57v-418q0 -82 10 -119t34.5 -53t94.5 -16q146 0 213.5 12.5t91.5 36.5q38 41 91.5 135.5t78.5 159.5h72zM1026 1714q0 -63 -40.5 -104t-96.5 -41t-96.5 41t-40.5 104t41 104.5t96 41.5t96 -41t41 -105zM580 1714q0 -61 -40.5 -103t-96.5 -42q-59 0 -98.5 42.5t-39.5 102.5
t40 103t98 43q55 0 96 -42.5t41 -103.5z" />
    <glyph glyph-name="uni0402" unicode="&#x402;" horiz-adv-x="1573" 
d="M1229 406q0 167 -66 254.5t-186 87.5q-50 0 -96 -11t-140 -55v-682h-479v74q111 6 156 34.5t45 92.5v1134h-45l-101 -8q-43 -3 -87 -47t-84.5 -117t-59.5 -141h-74v397h1200v-387h-73q-12 46 -48.5 115t-72.5 113t-68.5 59.5t-177.5 15.5h-31v-569q202 121 363 121
q197 0 308.5 -118t111.5 -316q0 -128 -55 -240.5t-151.5 -177t-219.5 -64.5q-116 0 -181 40.5t-65 113.5q0 52 28.5 83.5t73.5 31.5q51 0 87 -41t65 -156q57 26 90 120.5t33 242.5z" />
    <glyph glyph-name="uni0403" unicode="&#x403;" horiz-adv-x="1135" 
d="M1049 1008q-19 64 -62 143t-87 123.5t-83 50.5q-76 10 -172 10h-106v-1130q0 -28 7 -50.5t23.5 -36.5t39.5 -22t122 -22v-74h-655v74q112 7 147 32.5t35 90.5v1007q0 46 -17 72t-72 45t-93 22v76h1046v-411h-73zM473 1497l-30 39l120 123l57 64q117 135 199 135
q45 0 75 -26t30 -68q0 -81 -96 -121q-47 -23 -137 -58t-218 -88z" />
    <glyph glyph-name="uni0404" unicode="&#x404;" horiz-adv-x="1300" 
d="M373 631q15 -272 124 -425t285 -153q65 0 119.5 18t102.5 62q-10 43 -19.5 83.5t-9.5 86.5q0 67 38.5 110.5t100.5 43.5q68 0 107 -43t39 -115q0 -89 -68 -167t-189.5 -123.5t-269.5 -45.5q-198 0 -348 89.5t-230.5 257t-80.5 388.5q0 216 84 388.5t235 269t336 96.5
q178 0 326 -94l49 61h80l10 -506h-84q-47 214 -138.5 331.5t-219.5 117.5q-116 0 -201 -76.5t-131 -222.5t-47 -354q69 66 100.5 89t63.5 36.5t63 13.5q44 0 77 -12t63.5 -27t63 -27t75.5 -12q61 0 120 49l41 -49q-137 -172 -258 -172q-42 0 -75 12.5t-63.5 27.5t-62 27.5
t-69.5 12.5q-46 0 -78 -14.5t-61 -32.5z" />
    <glyph glyph-name="uni0405" unicode="&#x405;" horiz-adv-x="1128" 
d="M1051 408q0 -126 -60.5 -227.5t-170 -157.5t-245.5 -56q-91 0 -182 26.5t-166 76.5l-55 -70h-80l-14 500h82q64 -221 164.5 -331t230.5 -110q113 0 174.5 65t61.5 179q0 91 -44.5 150t-128.5 96l-77 33q-166 67 -233.5 109t-109 94t-62.5 116t-21 146q0 112 55 205.5
t152 146.5t215 53q161 0 305 -96l49 63h82l8 -477h-82q-47 167 -91.5 249.5t-103.5 125.5t-139 43q-85 0 -141.5 -60.5t-56.5 -150.5q0 -67 24 -115.5t79 -87t200 -94.5q137 -53 217.5 -109t122 -140t41.5 -195z" />
    <glyph glyph-name="uni0406" unicode="&#x406;" horiz-adv-x="801" 
d="M68 0v74q74 6 103.5 11.5t50 19t29.5 37t9 51.5v1017q0 40 -16.5 64.5t-74 44.5t-101.5 24v76h661v-76q-52 -4 -106.5 -18t-69 -39t-14.5 -65v-1018q0 -47 23.5 -74t78.5 -40t88 -15v-74h-661z" />
    <glyph glyph-name="uni0407" unicode="&#x407;" horiz-adv-x="801" 
d="M68 0v74q74 6 103.5 11.5t50 19t29.5 37t9 51.5v1017q0 40 -16.5 64.5t-74 44.5t-101.5 24v76h661v-76q-52 -4 -106.5 -18t-69 -39t-14.5 -65v-1018q0 -47 23.5 -74t78.5 -40t88 -15v-74h-661zM330 1714q0 -60 -39.5 -102.5t-98.5 -42.5q-56 0 -95.5 42.5t-39.5 102.5
q0 62 40.5 103.5t94.5 41.5q58 0 98 -41.5t40 -103.5zM745 1714q0 -62 -39.5 -103.5t-95.5 -41.5t-96.5 41t-40.5 104q0 65 41 105t96 40t95 -40.5t40 -104.5z" />
    <glyph glyph-name="uni0408" unicode="&#x408;" horiz-adv-x="1044" 
d="M991 1343q-84 -11 -113 -24.5t-44 -38t-15 -63.5v-725q0 -84 -4 -125q-15 -181 -134.5 -291.5t-303.5 -110.5q-156 0 -260.5 94t-104.5 246q0 82 47.5 136.5t118.5 54.5q64 0 105 -38.5t41 -97.5q0 -109 -111 -239q15 -31 52.5 -51.5t82.5 -20.5q101 0 146 90.5t45 327.5
v739q0 57 -43 91t-150 46v76h645v-76z" />
    <glyph glyph-name="uni0409" unicode="&#x409;" horiz-adv-x="2009" 
d="M1255 817q76 6 162 6q265 0 404 -101.5t139 -299.5q0 -127 -65.5 -222.5t-180 -147.5t-252.5 -52h-659v74q104 10 128.5 24.5t35 40t10.5 56.5v1134h-309q-5 -307 -43.5 -556.5t-107 -426t-163 -274t-198.5 -97.5q-91 0 -142 46.5t-51 121.5q0 70 40 116t101 46
q87 0 150 -87l29 -40q67 75 128 234.5t92.5 341.5t31.5 364q0 130 -38 170t-163 55v76h1106v-76l-29 -3q-86 -8 -121 -33.5t-35 -89.5v-400zM1647 426q0 142 -72.5 222.5t-202.5 80.5q-73 0 -117 -4v-535q5 -57 40 -80.5t104 -23.5q120 0 184 87t64 253z" />
    <glyph glyph-name="uni040A" unicode="&#x40a;" horiz-adv-x="2091" 
d="M1337 817q80 6 164 6q263 0 402 -102.5t139 -298.5q0 -195 -143.5 -308.5t-356.5 -113.5h-653v74q102 9 135 34t33 89v508h-518v-500q0 -64 39 -92.5t120 -38.5v-74h-616v74q99 8 126.5 22.5t38.5 39.5t11 59v1013q0 74 -60.5 102t-115.5 33v76h616v-76q-52 -3 -104 -24
q-35 -12 -45 -39t-10 -61v-418h518v409q0 39 -12 61.5t-59 44.5t-91 27v76h627v-76q-108 -9 -146.5 -34t-38.5 -92v-400zM1729 426q0 142 -72.5 222.5t-200.5 80.5q-75 0 -119 -4v-535q2 -56 39 -80t109 -24q116 0 180 88t64 252z" />
    <glyph glyph-name="uni040B" unicode="&#x40b;" horiz-adv-x="1665" 
d="M743 758q205 137 369 137q375 0 375 -383v-303q0 -41 17 -68.5t60.5 -44t88.5 -22.5v-74h-602v74q87 11 121 35t34 92v258q0 153 -50 216.5t-167 63.5q-74 0 -130.5 -16.5t-115.5 -48.5v-465q0 -63 35.5 -93.5t128.5 -41.5v-74h-643v74q25 2 77 9.5t70 17t29 22t17 34.5
t6 44v1134h-10q-82 0 -154 -8q-36 -6 -77 -52.5t-80 -119.5t-56 -131h-74v395h1200v-385h-71q-12 47 -47 113.5t-74 113t-71 60.5t-177 14h-29v-577z" />
    <glyph glyph-name="uni040C" unicode="&#x40c;" horiz-adv-x="1391" 
d="M539 205q0 -63 37 -91t126 -40v-74h-618v74q84 5 113.5 17t45 37t15.5 69v1009q0 40 -18.5 67t-51.5 43t-108 27v76h629v-76q-82 -11 -111 -24t-44 -36.5t-15 -65.5v-480h36q62 0 104 30t71.5 79t51 111.5t42.5 128t47 128t64 111.5t92.5 79t134.5 30q82 0 132 -43.5
t50 -112.5q0 -63 -36.5 -106.5t-94.5 -43.5q-53 0 -93.5 28.5t-82.5 107.5q-30 -25 -51.5 -69.5t-57.5 -162.5q-59 -194 -168 -287v-10q131 -26 210 -107.5t145 -246.5q53 -133 88 -197t67 -83t125 -27v-74h-440q-58 187 -113 329.5t-96.5 203t-90.5 88.5t-116 28h-20v-444z
M622 1507l-30 39l120 123l57 64q117 135 199 135q45 0 75 -26t30 -68q0 -81 -96 -121q-47 -23 -137 -58t-218 -88z" />
    <glyph glyph-name="uni040E" unicode="&#x40e;" horiz-adv-x="1270" 
d="M-20 1343v76h630v-76l-50 -4q-109 -10 -109 -47q0 -23 16 -55l287 -631q250 580 250 658q0 31 -38 52t-108 27v76h465v-76q-55 -5 -98 -28.5t-68.5 -59.5t-83.5 -162.5t-209 -466.5q-143 -322 -219 -435t-153 -166.5t-179 -53.5q-84 0 -135 47.5t-51 120.5q0 62 34 102
t97 40q46 0 87.5 -31.5t92.5 -122.5q51 19 91.5 74t78.5 125q-321 669 -434 882q-42 73 -90 101t-104 34zM876 1647q-11 23 -25 54t-14 62q0 46 30.5 75.5t82.5 29.5q51 0 81.5 -32t30.5 -85q0 -61 -46 -115.5t-129.5 -87t-198.5 -32.5q-114 0 -198 33t-129.5 86.5
t-45.5 115.5q0 53 30.5 85t79.5 32q52 0 82.5 -29.5t30.5 -75.5q0 -31 -13.5 -62t-23.5 -54q66 -60 187 -60q117 0 188 60z" />
    <glyph glyph-name="uni040F" unicode="&#x40f;" horiz-adv-x="1591" 
d="M758 -360q-70 354 -193 360h-483v74q74 7 107.5 15t51 35t17.5 71v1013q0 42 -16 67.5t-66.5 44.5t-93.5 23v76h618v-76q-83 -8 -122 -30t-39 -94v-1018q0 -57 19 -81t66.5 -28.5t180.5 -5.5q112 0 163.5 3t69 28.5t17.5 72.5v1018q0 39 -18 66t-65 46.5t-83 22.5v76h618
v-76q-101 -9 -137.5 -33.5t-36.5 -90.5v-1014q0 -49 21.5 -77t71.5 -40t81 -14v-74h-483q-123 -6 -193 -360h-73z" />
    <glyph glyph-name="uni0410" unicode="&#x410;" horiz-adv-x="1317" 
d="M733 0v74q76 5 125 19.5t49 37.5q0 13 -6 38.5t-102 313.5h-428q-38 -96 -66.5 -193t-28.5 -128q0 -35 45.5 -58t133.5 -30v-74h-502v74q154 11 221 176q74 183 159.5 419.5t264.5 770.5h135l441 -1227q13 -36 31.5 -62t56.5 -48t96 -29v-74h-625zM584 1114l-181 -539
h365z" />
    <glyph glyph-name="uni0411" unicode="&#x411;" horiz-adv-x="1305" 
d="M1233 422q0 -124 -58.5 -218t-172.5 -149t-252 -55h-668v74q26 2 68.5 9.5t54.5 12.5q53 27 53 101v1011q0 73 -48 100.5t-124 34.5v76h1044v-377h-73q-28 90 -95.5 181.5t-123.5 99.5q-62 12 -138 12h-161v-518q67 6 159 6q264 0 399.5 -103.5t135.5 -297.5zM920 422
q0 145 -70.5 226t-194.5 81q-80 0 -116 -4v-530q3 -54 35 -81.5t110 -27.5q112 0 174 86t62 250z" />
    <glyph glyph-name="uni0412" unicode="&#x412;" horiz-adv-x="1303" 
d="M1221 385q0 -183 -128.5 -284t-357.5 -101h-655v74q96 4 137 32.5t41 92.5v1007q0 53 -40 88t-134 49v76h631q209 0 318.5 -81t109.5 -232q0 -252 -348 -338v-12q198 -25 312 -122.5t114 -248.5zM836 1083q0 120 -50 185t-147 65l-102 -4v-534h36q138 0 200.5 66.5
t62.5 221.5zM905 410q0 150 -75 222.5t-240 72.5q-30 0 -53 -5v-485q0 -129 143 -129q106 0 165.5 83t59.5 241z" />
    <glyph glyph-name="uni0413" unicode="&#x413;" horiz-adv-x="1135" 
d="M1049 1008q-19 64 -62 143t-87 123.5t-83 50.5q-76 10 -172 10h-106v-1130q0 -28 7 -50.5t23.5 -36.5t39.5 -22t122 -22v-74h-655v74q112 7 147 32.5t35 90.5v1007q0 46 -17 72t-72 45t-93 22v76h1046v-411h-73z" />
    <glyph glyph-name="uni0414" unicode="&#x414;" horiz-adv-x="1405" 
d="M868 1329h-293q-4 -334 -86.5 -666t-224.5 -571h516q88 0 88 92v1145zM326 0q-48 -5 -98.5 -54.5t-94 -129t-65.5 -158.5h-72v434h131q130 205 222.5 513t92.5 546q0 65 -17.5 103t-51 57.5t-131.5 31.5v76h1077v-76q-105 -13 -138.5 -41.5t-33.5 -84.5v-1027
q0 -54 31 -77t90 -23h78v-432h-72q-43 133 -115.5 233.5t-142.5 108.5h-690z" />
    <glyph glyph-name="uni0415" unicode="&#x415;" horiz-adv-x="1272" 
d="M1198 0h-1122v74q48 4 94 13.5t67 34.5t21 75v1011q0 44 -17 69.5t-72.5 44t-92.5 21.5v76h1046v-352h-73q-28 88 -96 168t-128 90q-58 10 -170 10h-116v-557h57q81 0 128.5 23.5t75.5 87.5t38 127h73v-574h-73q-7 50 -27.5 108t-38.5 79q-30 30 -51 40t-51 16.5t-74 6.5
h-57v-418q0 -82 10 -119t34.5 -53t94.5 -16q146 0 213.5 12.5t91.5 36.5q38 41 91.5 135.5t78.5 159.5h72z" />
    <glyph glyph-name="uni0416" unicode="&#x416;" horiz-adv-x="1978" 
d="M1174 737q59 0 99.5 30t69 79t49.5 111.5t42.5 128t47 128t63 111.5t91.5 79t131 30q85 0 136 -43.5t51 -112.5q0 -61 -39 -104.5t-94 -43.5q-58 0 -98.5 29.5t-75.5 104.5q-32 -24 -54.5 -71t-54.5 -159q-57 -195 -164 -293v-10q113 -30 192.5 -107t147.5 -229l86 -194
q32 -68 68 -93.5t135 -33.5v-74h-438q-52 167 -142 397q-39 96 -74 145.5t-79 72.5t-146 34v-444q0 -62 37.5 -91t124.5 -40v-74h-594v74q100 7 131 33.5t31 87.5v454q-109 -13 -154 -37.5t-80.5 -76.5t-91 -196t-116.5 -339h-437v74q58 5 99 16q62 15 104 111l88 194
q72 159 149 234t189 102v10q-108 96 -162 292q-28 99 -52.5 152t-57.5 79q-27 -62 -64.5 -95.5t-79.5 -33.5q-67 0 -111 37t-44 98q0 70 48 117t128 47q78 0 132 -30t91.5 -79t63.5 -111.5t47.5 -128t42.5 -128t50 -111.5t70 -79t101 -30h47v469q0 54 -36.5 88t-131.5 49v76
h606v-76l-62 -10q-56 -9 -81 -37.5t-25 -78.5v-480h50z" />
    <glyph glyph-name="uni0417" unicode="&#x417;" horiz-adv-x="1196" 
d="M1114 416q0 -205 -161 -329t-427 -124q-139 0 -249.5 44.5t-173 125.5t-62.5 176q0 69 38.5 113.5t104.5 44.5q68 0 106 -37.5t38 -99.5q0 -58 -27 -143l-12 -40q33 -43 92.5 -68.5t124.5 -25.5q133 0 214 96t81 259q0 139 -70.5 210.5t-202.5 71.5h-106v115h86
q129 0 184.5 76.5t55.5 228.5q0 125 -49 188.5t-142 63.5q-115 0 -197.5 -104t-140.5 -345h-84l8 506h84l47 -61q148 94 338 94q139 0 238.5 -43t153 -118t53.5 -169q0 -129 -90.5 -218.5t-266.5 -133.5v-10q197 -11 305.5 -102t108.5 -242z" />
    <glyph glyph-name="uni0418" unicode="&#x418;" horiz-adv-x="1620" 
d="M530 438l562 715v37q0 50 -18.5 79.5t-48.5 46t-110 27.5v76h621v-76q-86 -11 -115.5 -24.5t-44 -38t-14.5 -63.5v-1012q0 -61 37 -89.5t137 -41.5v-74h-623v74q102 4 139.5 30t37.5 89v804l-564 -714v-68q0 -73 35.5 -102t147.5 -39v-74h-627v74q106 8 141 31.5t35 89.5
v1011q0 55 -41.5 89t-134.5 48v76h620v-76l-59 -8q-113 -17 -113 -118v-779z" />
    <glyph glyph-name="uni0419" unicode="&#x419;" horiz-adv-x="1622" 
d="M530 438l562 715v37q0 50 -18.5 79.5t-48.5 46t-110 27.5v76h621v-76q-86 -11 -115.5 -24.5t-44 -38t-14.5 -63.5v-1012q0 -61 37 -89.5t137 -41.5v-74h-623v74q102 4 139.5 30t37.5 89v804l-564 -714v-68q0 -73 35.5 -102t147.5 -39v-74h-627v74q106 8 141 31.5t35 89.5
v1011q0 55 -41.5 89t-134.5 48v76h620v-76l-59 -8q-113 -17 -113 -118v-779zM1010 1647q-35 73 -35 114q0 50 32 79.5t85 29.5q54 0 84 -34t30 -87q0 -62 -48.5 -115.5t-139.5 -85.5t-209 -32q-120 0 -209 30.5t-137.5 84.5t-48.5 118q0 53 30 87t84 34t85.5 -29.5
t31.5 -79.5q0 -32 -13 -62t-24 -54q41 -36 94.5 -46t106.5 -10q135 0 201 58z" />
    <glyph glyph-name="uni041A" unicode="&#x41a;" horiz-adv-x="1391" 
d="M539 205q0 -63 37 -91t126 -40v-74h-618v74q84 5 113.5 17t45 37t15.5 69v1009q0 40 -18.5 67t-51.5 43t-108 27v76h629v-76q-82 -11 -111 -24t-44 -36.5t-15 -65.5v-480h36q62 0 104 30t71.5 79t51 111.5t42.5 128t47 128t64 111.5t92.5 79t134.5 30q82 0 132 -43.5
t50 -112.5q0 -63 -36.5 -106.5t-94.5 -43.5q-53 0 -93.5 28.5t-82.5 107.5q-30 -25 -51.5 -69.5t-57.5 -162.5q-59 -194 -168 -287v-10q131 -26 210 -107.5t145 -246.5q53 -133 88 -197t67 -83t125 -27v-74h-440q-58 187 -113 329.5t-96.5 203t-90.5 88.5t-116 28h-20v-444z
" />
    <glyph glyph-name="uni041B" unicode="&#x41b;" horiz-adv-x="1493" 
d="M334 1343v76h1073v-76q-86 -9 -129 -29.5t-43 -94.5v-1014q0 -34 11.5 -60t45.5 -43q31 -20 115 -28v-74h-629v74q93 7 123.5 21t41.5 39.5t11 58.5v1136h-286q-5 -307 -43.5 -556.5t-107 -426t-163 -274t-198.5 -97.5q-91 0 -142 46.5t-51 121.5q0 70 40 116t101 46
q87 0 150 -87l29 -40q67 75 128 234.5t92.5 341.5t31.5 364q0 120 -29.5 160.5t-141.5 59.5z" />
    <glyph glyph-name="uni041C" unicode="&#x41c;" horiz-adv-x="1831" 
d="M1102 0v74q118 13 157 42t39 89v1038l-22 -37q-309 -869 -418 -1183h-86l-395 1204l-21 37v-848q0 -75 6 -128t18.5 -88t33.5 -57.5t76.5 -44t89.5 -24.5v-74h-541v74q58 5 106.5 25.5t68.5 51.5t29 91.5t9 163.5v712q0 99 -48.5 157.5t-154.5 67.5v76h537l317 -968
l281 788q40 127 47 180h520v-76q-87 -11 -116.5 -25t-45.5 -37.5t-16 -63.5v-1012q0 -121 180 -131v-74h-651z" />
    <glyph glyph-name="uni041D" unicode="&#x41d;" horiz-adv-x="1608" 
d="M905 0v74q82 7 113 20.5t42 38.5t11 60v497h-532v-485q0 -66 41 -94t122 -37v-74h-620v74q99 8 126.5 22.5t38.5 39.5t11 59v1013q0 41 -16.5 67t-72 46t-87.5 22v76h620v-76q-39 -3 -88.5 -18.5t-62 -41.5t-12.5 -64v-433h532v422q0 40 -17.5 66t-67 46.5t-81.5 22.5v76
h619v-76q-46 -4 -95.5 -18t-64 -39.5t-14.5 -66.5v-1014q0 -68 59 -103q11 -6 52 -16.5t63 -11.5v-74h-619z" />
    <glyph glyph-name="uni041E" unicode="&#x41e;" horiz-adv-x="1483" 
d="M1409 713q0 -215 -85.5 -388t-239 -267.5t-345.5 -94.5q-186 0 -340 95t-239.5 264t-85.5 378q0 218 86 390.5t240 268t341 95.5q188 0 341 -93.5t240 -264t87 -383.5zM1094 711q0 303 -92 477t-261 174q-168 0 -260 -171.5t-92 -483.5q0 -307 92.5 -478.5t259.5 -171.5
q171 0 262 173.5t91 480.5z" />
    <glyph glyph-name="uni041F" unicode="&#x41f;" horiz-adv-x="1595" 
d="M539 205q0 -48 20.5 -75t66.5 -40t74 -16v-74h-618v74q99 8 126.5 22.5t38.5 39.5t11 59v1013q0 71 -58.5 100.5t-117.5 34.5v76h1429v-76q-82 -6 -128 -28.5t-46 -95.5v-1014q0 -46 22 -74t68.5 -41t83.5 -16v-74h-618v74q83 6 115.5 22t43.5 49.5t7 47.5v1128h-520
v-1116z" />
    <glyph glyph-name="uni0420" unicode="&#x420;" horiz-adv-x="1208" 
d="M1157 1067q0 -216 -137.5 -333.5t-382.5 -117.5h-100v-413q0 -69 44.5 -97t141.5 -32v-74h-641v74q107 7 141.5 35t34.5 88v1013q0 41 -19 67t-51.5 41t-109.5 25v76h620q218 0 338.5 -93t120.5 -259zM844 1016q0 173 -61.5 244t-204.5 71h-41v-624h30q98 0 158.5 34
t89.5 96.5t29 178.5z" />
    <glyph glyph-name="uni0421" unicode="&#x421;" horiz-adv-x="1276" 
d="M1249 356q-167 -393 -547 -393q-176 0 -321 92.5t-226 260.5t-81 380q0 217 83.5 391t234.5 269.5t335 95.5q189 0 330 -94l47 61h78l10 -512h-82q-55 235 -143.5 345t-214.5 110q-173 0 -269 -167.5t-96 -475.5q0 -288 108 -457.5t296 -169.5q116 0 205.5 70.5
t174.5 238.5z" />
    <glyph glyph-name="uni0422" unicode="&#x422;" horiz-adv-x="1219" 
d="M1135 1024q-14 55 -56 133t-83 121.5t-74 48.5q-54 8 -156 8h-16v-1124q0 -48 22 -75.5t79.5 -43t96.5 -18.5v-74h-678v74q25 2 74.5 9.5t63.5 12.5q63 27 63 105v1134h-16q-84 0 -156 -8q-36 -6 -77 -52.5t-80 -119.5t-56 -131h-74v395h1194v-395h-71z" />
    <glyph glyph-name="uni0423" unicode="&#x423;" horiz-adv-x="1270" 
d="M-20 1343v76h630v-76l-50 -4q-109 -10 -109 -47q0 -23 16 -55l287 -631q250 580 250 658q0 31 -38 52t-108 27v76h465v-76q-55 -5 -98 -28.5t-68.5 -59.5t-83.5 -162.5t-209 -466.5q-143 -322 -219 -435t-153 -166.5t-179 -53.5q-84 0 -135 47.5t-51 120.5q0 62 34 102
t97 40q46 0 87.5 -31.5t92.5 -122.5q51 19 91.5 74t78.5 125q-321 669 -434 882q-42 73 -90 101t-104 34z" />
    <glyph glyph-name="uni0424" unicode="&#x424;" horiz-adv-x="1591" 
d="M662 1135h-17q-135 0 -212 -111.5t-77 -308.5q0 -122 38 -222t106.5 -149t161.5 -49v840zM1235 715q0 126 -36.5 223.5t-105 147t-163.5 49.5v-840q91 0 159 49t107 150.5t39 220.5zM930 172q0 -63 38 -87t142 -28v-71h-616v71q102 8 136 33.5t34 81.5v37
q-278 0 -441.5 140t-163.5 384q0 145 70 254.5t204 169.5t316 60h15v20q0 54 -43 87.5t-129 39.5v74h606v-74q-72 -5 -103 -17t-48 -37t-17 -65v-26q190 0 325 -58.5t206 -167.5t71 -254q0 -159 -75.5 -280t-212.5 -185.5t-314 -64.5v-37z" />
    <glyph glyph-name="uni0425" unicode="&#x425;" horiz-adv-x="1393" 
d="M692 0v74q91 5 126.5 19t35.5 38q0 11 -10.5 34.5t-56.5 116.5t-164 306q-125 -177 -196 -296.5t-71 -150.5q0 -30 25.5 -44.5t118.5 -22.5v-74h-492v74q59 5 91.5 19.5t60 35t54.5 50t80.5 102t274.5 395.5q-230 400 -274.5 473t-77.5 109t-81 58t-118 27v76h703v-76
q-74 -3 -116 -14t-42 -37q0 -31 74.5 -178t128.5 -242q105 158 165 268.5t60 137.5q0 37 -35.5 48.5t-103.5 16.5v76h491v-76q-63 -5 -113.5 -30.5t-102 -85t-111.5 -142.5t-128 -190l-71 -107q151 -266 236.5 -410.5t136.5 -202t93 -77t112 -24.5v-74h-703z" />
    <glyph glyph-name="uni0426" unicode="&#x426;" horiz-adv-x="1589" 
d="M1456 -344q-39 131 -113 233.5t-143 110.5h-1118v74q107 7 141.5 33t34.5 88v1011q0 55 -41.5 89t-134.5 48v76h614v-76q-82 -12 -107.5 -25.5t-38.5 -37.5t-13 -63v-1014q0 -47 17.5 -71t51.5 -33.5t83.5 -10t113.5 -0.5q113 0 165.5 3t68.5 23t16 66v1026
q0 54 -35.5 88t-126.5 49v76h614v-76q-93 -13 -119 -25.5t-40.5 -36t-14.5 -64.5v-1027q0 -55 30 -78.5t87 -23.5h82v-432h-74z" />
    <glyph glyph-name="uni0427" unicode="&#x427;" horiz-adv-x="1460" 
d="M924 1208q0 46 -14 70t-58.5 42.5t-83.5 22.5v76h608v-76q-92 -8 -133 -30t-41 -94v-1014q0 -50 22.5 -77t70.5 -39t81 -15v-74h-631v74q99 8 125 18q54 27 54 103v458q-202 -135 -369 -135q-186 0 -276.5 88.5t-90.5 296.5v305q0 72 -55 100.5t-119 34.5v76h607v-76
q-63 -6 -108.5 -25.5t-45.5 -98.5v-252q0 -119 20.5 -176t65.5 -87t121 -30q134 0 250 69v465z" />
    <glyph glyph-name="uni0428" unicode="&#x428;" horiz-adv-x="2275" 
d="M1743 1208q0 74 -53 101q-72 30 -119 34v76h622v-76q-91 -8 -133.5 -30t-42.5 -94v-1014q0 -48 23 -76t70.5 -40t84.5 -15v-74h-2113v74q80 7 112 15t48 35t16 71v1013q0 42 -16 67.5t-66.5 44.5t-93.5 23v76h623v-76q-54 -4 -101.5 -18t-59.5 -40.5t-12 -65.5v-1020
q0 -106 101 -109l73 -2h155q74 0 97.5 8.5t33 27t9.5 54.5v1030q0 40 -14.5 66t-59.5 45.5t-85 23.5v76h592v-76q-49 -4 -92 -17.5t-54.5 -37t-11.5 -69.5v-1020q0 -49 20.5 -74t63.5 -31t162 -6q93 0 139 3.5t64 22t18 64.5v1030z" />
    </font>
</defs>
</svg>
