<?xml version="1.0" standalone="no"?>
<!DOCTYPE svg PUBLIC "-//W3C//DTD SVG 1.1//EN" "http://www.w3.org/Graphics/SVG/1.1/DTD/svg11.dtd" >
<svg xmlns="http://www.w3.org/2000/svg" xmlns:xlink="http://www.w3.org/1999/xlink" version="1.1">
<metadata>
Created by FontForge 20170731 at Sat Nov 12 06:11:23 2011
 By Aleksey,,,
(c) 2011 Microsoft Corporation. All Rights Reserved.
</metadata>
<defs>
<font id="GeorgiaPro-Italic" horiz-adv-x="1024" >
  <font-face 
    font-family="Georgia"
    font-weight="400"
    font-style="italic"
    font-stretch="normal"
    units-per-em="2048"
    panose-1="2 4 5 2 5 4 5 9 3 3"
    ascent="1638"
    descent="-410"
    x-height="979"
    cap-height="1419"
    bbox="-401 -621 2451 1870"
    underline-thickness="96"
    underline-position="-327"
    slope="-13"
    unicode-range="U+0020-FB04"
  />
<missing-glyph horiz-adv-x="2048" 
d="M256 0v1536h1536v-1536h-1536zM385 129h1280v1280h-1280v-1280z" />
    <glyph glyph-name="f_f" unicode="ff" horiz-adv-x="1270" 
d="M1350 1466q-138 -6 -217 -383l-23 -106h252l-23 -90h-247l-170 -793q-47 -218 -196 -361t-314 -143q-170 0 -170 119q0 47 27 78t73 31q75 0 129 -96q14 -26 29 -50q149 15 227 385l176 830h-407l-177 -828q-46 -215 -195 -359t-314 -144q-170 0 -170 118q0 47 27 78
t73 31q74 0 129 -95q14 -26 29 -50q147 11 227 385l182 864h-194l20 90h195l16 82q36 187 180 327t312 140q81 0 125.5 -32.5t44.5 -84.5q0 -41 -25 -71.5t-74 -30.5q-96 0 -151 137q-145 0 -224 -375l-18 -92h410l14 67q48 228 192.5 366t307.5 138q87 0 128.5 -33.5
t41.5 -82.5q0 -47 -27.5 -78t-73.5 -31q-72 0 -127 95q-15 25 -30 48z" />
    <glyph glyph-name="fi" unicode="fi" horiz-adv-x="1194" 
d="M922 1470h-31q-270 0 -356 -401l-21 -92h326l252 16l12 -14l-154 -645q-24 -101 -24 -139q0 -57 25 -78t81 -21t111 17l-17 -64q-154 -65 -239 -65q-162 0 -162 143q0 39 18 111l131 557q7 30 7 45t-15 47h-370l-177 -828q-44 -206 -194 -354.5t-315 -148.5
q-170 0 -170 118q0 47 27 78t73 31q74 0 129 -95q14 -26 29 -50q147 11 227 385l182 864h-194l20 90h195l6 33q42 231 212.5 384.5t375.5 153.5q254 0 254 -151q0 -42 -27 -75.5t-68 -33.5q-107 0 -140 118q-9 32 -19 64z" />
    <glyph glyph-name="fl" unicode="fl" horiz-adv-x="1235" 
d="M971 330q-25 -108 -25 -140q0 -56 26 -77t83 -21q67 0 119 17l-17 -64q-156 -65 -248 -65q-77 0 -119 39.5t-42 103.5q0 46 16 110l254 1100q8 35 8 47q0 41 -33.5 69t-93.5 28q-280 0 -371 -430l-16 -70h254l-23 -90h-247l-177 -828q-47 -219 -196 -361t-313 -142
q-170 0 -170 118q0 47 27 78t73 31q74 0 129 -95q14 -26 29 -50q147 11 227 385l182 864h-194l20 90h193l6 29q54 259 226.5 400.5t367.5 141.5q142 0 223 -39l90 39l10 -14z" />
    <glyph glyph-name="f_f_i" unicode="ffi" horiz-adv-x="1810" 
d="M938 977l6 31q48 248 225.5 394t362.5 146q254 0 254 -151q0 -42 -27 -75.5t-67 -33.5q-55 0 -90.5 29t-69.5 153h-31q-270 0 -356 -401l-21 -92h332l252 16l12 -14l-153 -645q-25 -105 -25 -139q0 -57 25.5 -78t81.5 -21q58 0 110 17l-16 -64q-158 -65 -240 -65
q-76 0 -119 38.5t-43 104.5q0 35 19 111l131 557q6 26 6 45q0 17 -14 47h-377l-170 -793q-47 -219 -194 -361.5t-326 -142.5q-85 0 -127.5 34t-42.5 85q0 47 27 78t73 31q75 0 129 -96q14 -26 29 -50q158 16 237 385l177 830h-422l-177 -828q-46 -215 -195 -359t-314 -144
q-170 0 -170 118q0 47 27 78t73 31q74 0 129 -95q14 -26 29 -50q147 11 227 385l182 864h-194l20 90h195l16 82q36 187 180 327t312 140q81 0 125.5 -32.5t44.5 -84.5q0 -41 -25 -71.5t-74 -30.5q-96 0 -151 137q-145 0 -224 -375l-18 -92h424z" />
    <glyph glyph-name="f_f_l" unicode="ffl" horiz-adv-x="1810" 
d="M938 977l6 31q51 263 223 401.5t353 138.5q142 0 223 -39l90 39l10 -14l-276 -1204q-23 -100 -23 -140q0 -56 26 -77t83 -21q67 0 119 17l-17 -64q-156 -65 -248 -65q-77 0 -119 39.5t-42 103.5q0 46 16 110l250 1092q8 35 8 55q0 93 -123 93q-271 0 -358 -426l-15 -70
h238l-23 -90h-233l-170 -793q-47 -219 -194 -361.5t-326 -142.5q-85 0 -127.5 34t-42.5 85q0 47 27 78t73 31q75 0 129 -96q14 -26 29 -50q158 16 237 385l177 830h-422l-177 -828q-46 -215 -195 -359t-314 -144q-170 0 -170 118q0 47 27 78t73 31q74 0 129 -95
q14 -26 29 -50q147 11 227 385l182 864h-194l20 90h195l16 82q36 187 180 327t312 140q81 0 125.5 -32.5t44.5 -84.5q0 -41 -25 -71.5t-74 -30.5q-96 0 -151 137q-145 0 -224 -375l-18 -92h424z" />
    <glyph glyph-name="f_j" unicode="fj" horiz-adv-x="1165" 
d="M872 887h-376l-177 -828q-45 -210 -195.5 -356.5t-313.5 -146.5q-170 0 -170 118q0 47 27 78t73 31q74 0 129 -95q14 -26 29 -50q147 11 227 385l182 864h-194l20 90h195l6 33q41 225 210.5 381.5t377.5 156.5q254 0 254 -151q0 -42 -27 -75.5t-68 -33.5q-107 0 -140 118
q-9 32 -19 64h-31q-270 0 -356 -401l-21 -92h332l252 16l12 -14q-48 -171 -146 -683q-41 -214 -73 -305.5t-106 -190t-175 -154.5t-198 -56q-170 0 -170 119q0 47 27 78t73 31q73 0 128 -96q15 -26 30 -50q58 0 123.5 90.5t164.5 565t99 512.5q0 23 -15 47z" />
    <glyph glyph-name=".notdef" horiz-adv-x="2048" 
d="M256 0v1536h1536v-1536h-1536zM385 129h1280v1280h-1280v-1280z" />
    <glyph glyph-name=".null" horiz-adv-x="0" 
 />
    <glyph glyph-name="nonmarkingreturn" horiz-adv-x="1178" 
 />
    <glyph glyph-name="space" unicode=" " horiz-adv-x="494" 
 />
    <glyph glyph-name="space" unicode="&#xa0;" horiz-adv-x="494" 
 />
    <glyph glyph-name="exclam" unicode="!" horiz-adv-x="678" 
d="M367 432h-78q34 235 73 557l29 224q15 114 32 152.5t55.5 64.5t86.5 26q103 0 103 -100q0 -46 -38 -152t-263 -772zM272 -20q-56 0 -96.5 39.5t-40.5 95.5t40.5 96.5t96.5 40.5t97 -40.5t41 -96.5q0 -57 -40.5 -96t-97.5 -39z" />
    <glyph glyph-name="quotedbl" unicode="&#x22;" horiz-adv-x="844" 
d="M731 967h-61q4 103 6 289l1 116q2 73 38.5 115.5t99.5 42.5q92 0 92 -88q0 -32 -109 -299q-32 -79 -67 -176zM354 967h-59l5 390q0 78 36.5 125.5t103.5 47.5q92 0 92 -88q0 -36 -52 -162q-96 -230 -126 -313z" />
    <glyph glyph-name="numbersign" unicode="#" horiz-adv-x="1317" 
d="M1180 745h-232l-94 -251h260l-27 -123h-278l-139 -371h-113l139 371h-217l-137 -371h-113l140 371h-213l26 123h234l94 251h-262l28 123h279l137 363h111l-137 -363h217l137 363h110l-137 -363h215zM618 748l-96 -256h221l99 256h-224z" />
    <glyph glyph-name="dollar" unicode="$" horiz-adv-x="1249" 
d="M1012 1130q-36 84 -170 93l-111 -484q201 -71 277.5 -148.5t76.5 -182.5q0 -173 -147.5 -295.5t-382.5 -130.5l-61 -281h-93l68 279q-165 8 -265 82.5t-100 187.5q0 72 38.5 122t95.5 50q104 0 104 -88q0 -51 -76 -158q42 -109 217 -121l121 523l-68 27q-156 58 -213 128
t-57 166q0 168 147 282.5t357 114.5l51 228h92l-55 -228q154 -15 239 -84.5t85 -158.5q0 -60 -32 -104t-83 -44q-109 0 -109 84q0 29 39 110zM754 1221q-142 0 -222.5 -66.5t-80.5 -179.5q0 -68 34.5 -114t161.5 -97zM688 555l-117 -502q154 0 239 76.5t85 202.5
q0 93 -60 145t-121 69q-15 4 -26 9z" />
    <glyph glyph-name="percent" unicode="%" horiz-adv-x="1673" 
d="M465 713q-134 0 -206.5 74t-72.5 204q0 185 118 323t302 138q131 0 205 -75t74 -206q0 -194 -120 -326t-300 -132zM594 1386q-107 0 -174.5 -120.5t-67.5 -298.5q0 -187 127 -187q103 0 172.5 124.5t69.5 291.5q0 190 -127 190zM217 0h-143l1456 1423h145zM1141 -31
q-133 0 -207 74t-74 205q0 186 120 323.5t302 137.5q132 0 204.5 -75.5t72.5 -205.5q0 -193 -118.5 -326t-299.5 -133zM1268 641q-107 0 -174.5 -122.5t-67.5 -297.5q0 -184 129 -184q101 0 170.5 124.5t69.5 291.5q0 188 -127 188z" />
    <glyph glyph-name="ampersand" unicode="&#x26;" horiz-adv-x="1454" 
d="M1524 834q-101 -14 -155 -36.5t-84.5 -55t-134.5 -179.5q-125 -176 -206 -258q81 -125 141 -174t232 -65l-17 -66h-385l-112 180q-236 -215 -434 -215q-157 0 -254 88t-97 232q0 150 103 269t328 234q-99 178 -99 291q0 164 119 268.5t289 104.5q126 0 197 -66.5
t71 -168.5q0 -127 -86.5 -220.5t-290.5 -189.5q149 -279 256 -447q89 97 164.5 220.5t75.5 177.5q0 41 -156 76l17 65h534zM618 862q275 129 275 350q0 158 -150 158q-97 0 -154 -68.5t-57 -162.5q0 -106 86 -277zM764 236q-192 317 -285 495q-239 -130 -239 -379
q0 -116 61 -185t168 -69q156 0 295 138z" />
    <glyph glyph-name="quotesingle" unicode="'" horiz-adv-x="440" 
d="M342 967h-61q4 103 6 289q1 122 9 165.5t41 76t89 32.5q92 0 92 -88q0 -32 -109 -299q-32 -79 -67 -176z" />
    <glyph glyph-name="parenleft" unicode="(" horiz-adv-x="768" 
d="M895 1450q-268 -53 -434 -421t-166 -808q0 -425 264 -475l-16 -74q-209 25 -323 186.5t-114 430.5q0 483 225 837.5t578 405.5z" />
    <glyph glyph-name="parenright" unicode=")" horiz-adv-x="768" 
d="M-90 -328l14 80q267 53 433.5 421t166.5 810q0 424 -264 475l16 74q211 -27 324 -188.5t113 -428.5q0 -483 -225.5 -837.5t-577.5 -405.5z" />
    <glyph glyph-name="asterisk" unicode="*" horiz-adv-x="967" 
d="M641 1083q37 -54 148 -173q57 -61 57 -99q0 -27 -23.5 -46.5t-52.5 -19.5q-32 0 -50 25.5t-45 119.5q-28 96 -65 177q-30 -66 -64 -177q-31 -100 -47.5 -122.5t-49.5 -22.5q-28 0 -51 19.5t-23 46.5q0 38 57 99q111 119 148 173q-83 -8 -251 -48q-27 -7 -42 -7
q-74 0 -74 72q0 69 74 69q15 0 42 -6q185 -41 251 -47q-42 61 -148 174q-57 61 -57 99q0 25 22.5 45t51.5 20q34 0 50 -22.5t47 -120.5q34 -110 64 -176q38 84 65 176q26 88 43 115.5t52 27.5q29 0 52.5 -19.5t23.5 -45.5q0 -38 -57 -99q-106 -113 -148 -174q57 5 251 47
q27 6 42 6q74 0 74 -69q0 -72 -74 -72q-15 0 -42 7q-175 41 -251 48z" />
    <glyph glyph-name="plus" unicode="+" horiz-adv-x="1317" 
d="M748 498v-453h-127v453h-451v125h451v450h127v-450h450v-125h-450z" />
    <glyph glyph-name="comma" unicode="," horiz-adv-x="553" 
d="M43 -354l-31 67q232 124 283 289h-47q-121 0 -121 111q0 56 41.5 97.5t105.5 41.5q140 0 140 -154q0 -128 -99 -247.5t-272 -204.5z" />
    <glyph glyph-name="hyphen" unicode="-" horiz-adv-x="766" 
d="M676 469h-596l35 152h596z" />
    <glyph glyph-name="hyphen" unicode="&#xad;" horiz-adv-x="766" 
d="M676 469h-596l35 152h596z" />
    <glyph glyph-name="period" unicode="." horiz-adv-x="553" 
d="M262 -20q-57 0 -96 39t-39 96q0 56 39.5 96.5t95.5 40.5t96.5 -40t40.5 -97q0 -58 -40 -96.5t-97 -38.5z" />
    <glyph glyph-name="slash" unicode="/" horiz-adv-x="961" 
d="M23 -424h-140l1032 1948h140z" />
    <glyph glyph-name="zero" unicode="0" horiz-adv-x="1153" 
d="M471 -33q-192 0 -295.5 122.5t-103.5 346.5q0 377 187 693.5t495 316.5q177 0 279 -125t102 -342q0 -361 -169.5 -686.5t-494.5 -325.5zM922 1063q0 307 -174 307q-210 0 -336.5 -372t-126.5 -631q0 -181 46.5 -252.5t145.5 -71.5q206 0 325.5 387.5t119.5 632.5z" />
    <glyph glyph-name="one" unicode="1" horiz-adv-x="1153" 
d="M74 0l14 66q195 8 238 31t57 85l258 1086h-283l19 78h100q205 0 336 100h82q-34 -125 -59 -231l-238 -1012q-6 -26 -6 -41q0 -46 41 -68t213 -31l-17 -63h-755z" />
    <glyph glyph-name="two" unicode="2" horiz-adv-x="1153" 
d="M942 0h-944l33 135q3 14 102 137.5t361 309.5q238 166 310.5 292t72.5 267q0 105 -56.5 166t-146.5 61q-154 0 -223 -90q4 -44 4 -94q0 -172 -148 -172q-98 0 -98 86q0 134 151.5 241t331.5 107q187 0 293.5 -90.5t106.5 -247.5q0 -159 -96 -290t-406 -302
q-314 -174 -420 -342h813z" />
    <glyph glyph-name="three" unicode="3" horiz-adv-x="1153" 
d="M725 772l-6 -16q140 -16 218.5 -88t78.5 -185q0 -219 -185.5 -365.5t-447.5 -146.5q-162 0 -266 72.5t-104 175.5q0 69 38.5 117.5t98.5 48.5q106 0 106 -86q0 -49 -42 -129q-10 -19 -17 -35q63 -86 221 -86q152 0 268.5 125t116.5 326q0 190 -237 190h-136l27 111h88
q150 0 243 104t93 273q0 186 -184 186q-127 0 -213 -86q0 -127 -6.5 -164.5t-44 -71.5t-107.5 -34q-88 0 -88 88q0 123 147 234.5t361 111.5q170 0 259 -78t89 -203q0 -134 -96 -238t-273 -151z" />
    <glyph glyph-name="four" unicode="4" horiz-adv-x="1153" 
d="M1073 436h-209l-102 -436h-193l103 436h-643l41 160l880 844h146l-203 -877h211zM166 563h534l154 660z" />
    <glyph glyph-name="five" unicode="5" horiz-adv-x="1153" 
d="M1118 1243h-635l-137 -426q152 94 295 94q159 0 268 -90t109 -248q0 -245 -190 -418.5t-439 -173.5q-158 0 -263.5 69t-105.5 171q0 63 38.5 111.5t97.5 48.5q108 0 108 -86q0 -48 -40 -124q-10 -19 -17 -36q56 -76 205 -76q153 0 273 145t120 351q0 109 -64.5 178.5
t-171.5 69.5q-177 0 -303 -131l-65 26l237 721h723z" />
    <glyph glyph-name="six" unicode="6" horiz-adv-x="1153" 
d="M1054 1456v-94l-90 -10q-42 -5 -171.5 -66.5t-251 -194.5t-187.5 -321q182 139 383 139q144 0 241 -102.5t97 -257.5q0 -237 -169 -408.5t-405 -171.5q-192 0 -303 121t-111 336q0 376 270.5 672t696.5 358zM337 672q-43 -132 -43 -285q0 -342 226 -342q140 0 241 140
t101 335q0 130 -62 204.5t-168 74.5q-158 0 -295 -127z" />
    <glyph glyph-name="seven" unicode="7" horiz-adv-x="1153" 
d="M1294 1354l-1040 -1372h-131l981 1273h-471q-153 0 -200 -10.5t-87.5 -57t-83.5 -159.5h-65l90 391h1022z" />
    <glyph glyph-name="eight" unicode="8" horiz-adv-x="1153" 
d="M812 745q248 -119 248 -317q0 -187 -173.5 -325t-426.5 -138q-196 0 -311 93t-115 239q0 293 391 434q-194 124 -194 297q0 169 161 298.5t379 129.5q169 0 272 -85t103 -220q0 -261 -334 -406zM749 780q97 58 151 163.5t54 219.5q0 101 -56.5 160t-154.5 59
q-135 0 -224.5 -86t-89.5 -213q0 -101 76.5 -168.5t243.5 -134.5zM489 696q-256 -127 -256 -393q0 -119 72.5 -190.5t191.5 -71.5q160 0 261.5 94t101.5 234q0 97 -78 166.5t-293 160.5z" />
    <glyph glyph-name="nine" unicode="9" horiz-adv-x="1153" 
d="M141 -41v97l94 10q54 6 200.5 77t250.5 195t164 291q-176 -131 -383 -131q-144 0 -239 102t-95 258q0 228 169.5 403t403.5 175q190 0 302 -120t112 -320q0 -389 -272 -685.5t-707 -351.5zM870 727q43 125 43 308q0 150 -61.5 238.5t-161.5 88.5q-154 0 -249 -155.5
t-95 -331.5q0 -120 62 -193t165 -73q170 0 297 118z" />
    <glyph glyph-name="colon" unicode=":" horiz-adv-x="786" 
d="M475 717q-56 0 -96.5 39.5t-40.5 97.5q0 56 40.5 95.5t96.5 39.5t96.5 -39t40.5 -96q0 -59 -40.5 -98t-96.5 -39zM309 -20q-55 0 -96 38.5t-41 96.5q0 57 41 97t96 40q54 0 95.5 -39.5t41.5 -97.5q0 -59 -41 -97t-96 -38z" />
    <glyph glyph-name="semicolon" unicode=";" horiz-adv-x="786" 
d="M475 717q-56 0 -96.5 39.5t-40.5 97.5q0 56 40.5 95.5t96.5 39.5t96.5 -39t40.5 -96q0 -59 -40.5 -98t-96.5 -39zM92 -354l-31 67q232 124 283 289h-47q-123 0 -123 111q0 56 42.5 97.5t107.5 41.5q139 0 139 -154q0 -262 -371 -452z" />
    <glyph glyph-name="semicolon" unicode="&#x37e;" horiz-adv-x="786" 
d="M475 717q-56 0 -96.5 39.5t-40.5 97.5q0 56 40.5 95.5t96.5 39.5t96.5 -39t40.5 -96q0 -59 -40.5 -98t-96.5 -39zM92 -354l-31 67q232 124 283 289h-47q-123 0 -123 111q0 56 42.5 97.5t107.5 41.5q139 0 139 -154q0 -262 -371 -452z" />
    <glyph glyph-name="less" unicode="&#x3c;" horiz-adv-x="1317" 
d="M217 504v112l926 482v-137l-768 -402l768 -399v-137z" />
    <glyph glyph-name="equal" unicode="=" horiz-adv-x="1317" 
d="M178 682v127h1010v-127h-1010zM178 311v125h1010v-125h-1010z" />
    <glyph glyph-name="greater" unicode="&#x3e;" horiz-adv-x="1317" 
d="M223 23v137l770 399l-770 402v137l926 -482v-112z" />
    <glyph glyph-name="question" unicode="?" horiz-adv-x="981" 
d="M461 590l-51 -213h-93l80 379q424 41 424 397q0 108 -56 166.5t-155 58.5q-73 0 -137 -41v-70q0 -85 -35.5 -127t-115.5 -42q-82 0 -82 88q0 98 112 182t281 84q176 0 274.5 -93t98.5 -241q0 -214 -146 -354.5t-399 -173.5zM326 -20q-57 0 -97.5 39.5t-40.5 95.5
q0 55 40.5 96t97.5 41q56 0 96.5 -40.5t40.5 -96.5t-40.5 -95.5t-96.5 -39.5z" />
    <glyph glyph-name="at" unicode="@" horiz-adv-x="1903" 
d="M1083 299h-8q-104 -160 -233 -160q-108 0 -170 71t-62 206q0 169 138.5 354.5t328.5 185.5q132 0 154 -125h6l43 113h150l-191 -538q-18 -51 -18 -109q0 -98 92 -98q156 0 259 147t103 381q0 250 -158.5 405.5t-429.5 155.5q-294 0 -512.5 -222.5t-218.5 -571.5
q0 -345 180 -537.5t484 -192.5q302 0 506 168l30 -51q-225 -194 -542 -194q-343 0 -581 215t-238 575q0 363 256.5 628t644.5 265q313 0 491 -184.5t178 -468.5q0 -247 -134.5 -414.5t-338.5 -167.5q-84 0 -143.5 44.5t-65.5 119.5zM1208 741q-23 156 -135 156
q-115 0 -203 -164t-88 -334q0 -176 88 -176q65 0 113.5 39t110.5 141z" />
    <glyph glyph-name="A" unicode="A" horiz-adv-x="1374" 
d="M1303 0h-580l14 66q199 19 199 75l-45 353h-500q-178 -294 -178 -351q0 -64 186 -77l-14 -66h-545l15 66q79 6 137 35.5t100.5 86.5t309.5 490l470 762h80l189 -1229q21 -133 176 -145zM786 1130l-340 -555h428z" />
    <glyph glyph-name="B" unicode="B" horiz-adv-x="1339" 
d="M885 766v-8q168 -25 260 -104.5t92 -200.5q0 -203 -170 -328t-403 -125h-693l17 66q124 10 164.5 36t56.5 86l235 1031q7 31 7 38q0 78 -160 97l14 65h627q164 0 265 -66.5t101 -185.5q0 -308 -413 -401zM686 1341l-127 -553h125q176 0 274.5 103t98.5 266
q0 189 -228 189q-48 0 -143 -5zM541 709l-113 -490q-6 -26 -6 -49q0 -98 188 -98q177 0 279 125t102 286q0 106 -72 168t-202 62q-111 0 -176 -4z" />
    <glyph glyph-name="C" unicode="C" horiz-adv-x="1315" 
d="M1319 913h-82v39q0 418 -322 418q-239 0 -408 -239t-169 -576q0 -219 106 -349t279 -130q291 0 471 319l72 -37q-224 -391 -635 -391q-230 0 -380.5 156t-150.5 409q0 371 241 645.5t574 274.5q230 0 375 -100l58 67h79z" />
    <glyph glyph-name="D" unicode="D" horiz-adv-x="1534" 
d="M-29 0l15 66q87 0 145 20t76 98l235 1020q9 39 9 51q0 48 -42.5 69t-117.5 30l14 65h602q254 0 431.5 -141.5t177.5 -405.5q0 -384 -270.5 -628t-655.5 -244h-619zM686 1339l-254 -1101q-6 -26 -6 -52q0 -62 53.5 -85t161.5 -23q283 0 461 232.5t178 559.5
q0 218 -117.5 345.5t-320.5 127.5q-87 0 -156 -4z" />
    <glyph glyph-name="E" unicode="E" horiz-adv-x="1337" 
d="M1309 1077h-74q-7 105 -40.5 169t-76 82t-203.5 18h-227l-131 -572h160q113 0 172.5 48t114.5 186h73l-127 -555h-73q0 108 -5.5 149.5t-41 67.5t-132.5 26h-159l-101 -432q-12 -51 -12 -96q0 -54 38.5 -72t174.5 -18q153 0 215.5 10.5t100.5 35.5t116.5 123.5
t120.5 170.5h72l-123 -418h-1178l14 66q135 10 175.5 32.5t56.5 89.5l237 1031q5 22 5 36q0 84 -177 99l17 65h1098z" />
    <glyph glyph-name="F" unicode="F" horiz-adv-x="1227" 
d="M1323 1065h-76q-5 104 -43.5 180t-87 88.5t-184.5 12.5h-244l-133 -578h164q134 0 197 63t100 170h76l-129 -557h-76q4 32 4 64q0 105 -41.5 144.5t-149.5 39.5h-163l-113 -497q-4 -18 -4 -33q0 -60 60 -74.5t118 -21.5l-14 -66h-619l17 66q149 7 181 37.5t44 80.5
l239 1035q5 22 5 38q0 43 -41 63t-136 34l17 65h1114z" />
    <glyph glyph-name="G" unicode="G" horiz-adv-x="1485" 
d="M1481 571q-13 -2 -31 -4q-92 -10 -130.5 -36t-55.5 -95l-27 -114q-41 -175 -47 -232q-291 -123 -522 -123q-250 0 -409 156t-159 418q0 379 251.5 645t602.5 266q239 0 392 -100l57 67h80l-107 -495h-82q-1 236 -87.5 341t-272.5 105q-249 0 -423.5 -241t-174.5 -601
q0 -222 104.5 -350.5t288.5 -128.5q143 0 256 84q23 63 55 199l19 86q8 36 8 53q0 53 -44 72t-165 28l14 70h623z" />
    <glyph glyph-name="H" unicode="H" horiz-adv-x="1669" 
d="M1755 1354q-63 -5 -128 -23.5t-87 -101.5l-237 -1034q-5 -22 -5 -35q0 -81 160 -94l-14 -66h-590l16 66q139 7 172.5 39t44.5 79l117 512h-665l-115 -501q-4 -17 -4 -33q0 -50 38 -69t122 -27l-17 -66h-588l15 66q139 6 172 37.5t45 80.5l239 1035q5 22 5 32
q0 80 -164 103l14 65h590l-14 -65q-119 -10 -159.5 -35.5t-55.5 -89.5l-103 -449h668l98 439q4 18 4 32q0 49 -50.5 73.5t-111.5 29.5l15 65h590z" />
    <glyph glyph-name="I" unicode="I" horiz-adv-x="799" 
d="M907 1354q-137 -10 -181.5 -35.5t-59.5 -87.5l-240 -1038q-4 -17 -4 -31q0 -83 188 -96l-14 -66h-639l14 66q156 6 192.5 37t47.5 79l240 1039q4 17 4 34q0 47 -51 66.5t-136 32.5l15 65h639z" />
    <glyph glyph-name="J" unicode="J" horiz-adv-x="1061" 
d="M1194 1354q-126 -10 -168 -34t-59 -91l-191 -846q-38 -168 -181.5 -293t-336.5 -125q-140 0 -223.5 72t-83.5 192q0 100 49 174t129 74q111 0 111 -96q0 -82 -114 -208q-28 -31 -46 -58q41 -78 178 -78q116 0 191.5 89.5t130.5 336.5l170 756q4 18 4 32q0 49 -43 70
t-148 33l17 65h628z" />
    <glyph glyph-name="K" unicode="K" horiz-adv-x="1421" 
d="M1581 1354l-36 -4q-139 -15 -214 -80q-375 -341 -565 -494q137 -211 332 -543q60 -100 113 -129.5t143 -37.5l-19 -66h-360q-162 345 -385 674h-55l-111 -479q-4 -17 -4 -33q0 -61 52 -75.5t112 -20.5l-17 -66h-587l14 66q134 6 168 39t45 79l239 1035q5 22 5 34
q0 45 -40.5 67t-119.5 34l14 65h590l-14 -65q-124 -10 -164 -35.5t-55 -89.5l-117 -506h20q201 140 411 335.5t210 250.5q0 35 -135 45l14 65h532z" />
    <glyph glyph-name="L" unicode="L" horiz-adv-x="1237" 
d="M1083 0h-1108l15 66q138 8 172 38t47 84l235 1026q7 31 7 37q0 78 -164 103l14 65h600l-14 -65q-105 -8 -155.5 -31t-72.5 -98l-221 -965q-16 -70 -16 -104q0 -50 36.5 -66t170.5 -16q107 0 172.5 14t94.5 36t112 122t133 176h69z" />
    <glyph glyph-name="M" unicode="M" horiz-adv-x="1898" 
d="M1993 1354q-127 -11 -166.5 -36t-54.5 -89l-240 -1034q-4 -17 -4 -33q0 -44 33.5 -65t136.5 -31l-17 -66h-624l16 66q157 6 200 46t50 83l246 1056h-10l-777 -1228h-47l-178 1255h-8l-203 -872q-27 -116 -27 -185q0 -77 39 -105t154 -50l-14 -66h-574l17 66
q169 16 217.5 82.5t87.5 244.5l170 737q10 43 10 78q0 136 -180 146l14 65h477l156 -1067l553 893q64 103 86 174h475z" />
    <glyph glyph-name="N" unicode="N" horiz-adv-x="1571" 
d="M1743 1354q-150 -21 -202 -64t-101 -260l-242 -1044h-88l-584 1198l-178 -774q-26 -113 -26 -191q0 -49 14 -79t89 -51.5t97 -22.5l-14 -66h-584l17 66q126 20 188.5 56t118.5 277l160 688q12 52 12 101q0 139 -207 166l16 65h408l539 -1110l163 709q27 117 27 188
q0 52 -14.5 77t-76.5 45.5t-110 25.5l17 65h577z" />
    <glyph glyph-name="O" unicode="O" horiz-adv-x="1495" 
d="M651 -35q-248 0 -399.5 159.5t-151.5 416.5q0 372 249 641.5t577 269.5q246 0 398.5 -158.5t152.5 -421.5q0 -372 -251.5 -639.5t-574.5 -267.5zM907 1368q-254 0 -412.5 -270t-158.5 -604q0 -213 86.5 -329t247.5 -116q249 0 410 266.5t161 616.5q0 207 -87 321.5
t-247 114.5z" />
    <glyph glyph-name="P" unicode="P" horiz-adv-x="1249" 
d="M522 627l-100 -439q-4 -18 -4 -36q0 -46 31 -62.5t149 -23.5l-14 -66h-609l15 66q138 8 172 38t47 84l237 1035q7 31 7 41q0 45 -41 64t-131 26l14 65h631q176 0 281.5 -78t105.5 -208q0 -224 -182 -365t-435 -141h-174zM686 1341l-143 -632h112q201 0 306.5 115.5
t105.5 287.5q0 229 -250 229h-131z" />
    <glyph glyph-name="Q" unicode="Q" horiz-adv-x="1495" 
d="M860 0q-6 -45 -6 -72q0 -97 53.5 -155t139.5 -58q114 0 202 23l-16 -76q-170 -47 -311 -47q-295 0 -295 295q0 33 4 57q-243 10 -387 168t-144 406q0 372 249 641.5t577 269.5q246 0 398.5 -158.5t152.5 -421.5q0 -294 -171 -537t-446 -335zM907 1368q-254 0 -412.5 -270
t-158.5 -604q0 -213 86.5 -329t247.5 -116q252 0 411.5 265t159.5 618q0 207 -87 321.5t-247 114.5z" />
    <glyph glyph-name="R" unicode="R" horiz-adv-x="1438" 
d="M1354 0h-359q-77 197 -319 645h-150l-104 -457q-6 -26 -6 -34q0 -39 23 -59.5t151 -28.5l-17 -66h-600l17 66q137 8 172 39t47 83l237 1037q7 31 7 41q0 44 -42 62.5t-124 25.5l14 65h639q181 0 285 -70.5t104 -199.5q0 -351 -448 -459q72 -141 158 -299q37 -68 83 -158
q38 -71 85.5 -115.5t162.5 -51.5zM686 1343l-139 -616h141q163 0 279 114.5t116 284.5q0 105 -64 161t-173 56h-160z" />
    <glyph glyph-name="S" unicode="S" horiz-adv-x="1149" 
d="M1098 948h-80q-9 242 -83.5 331t-223.5 89q-118 0 -198.5 -80t-80.5 -194q0 -107 52 -158.5t205 -107.5q243 -91 309.5 -180.5t66.5 -188.5q0 -209 -165 -348.5t-406 -139.5q-214 0 -365 101l-57 -72h-80l96 485h82q24 -432 358 -432q151 0 240.5 83.5t89.5 223.5
q0 100 -51 158t-175 104q-160 57 -235 97.5t-123.5 116t-48.5 174.5q0 183 152 311.5t358 128.5q191 0 330 -98l53 67h80z" />
    <glyph glyph-name="T" unicode="T" horiz-adv-x="1268" 
d="M1366 1034h-70q-6 121 -40.5 201.5t-80.5 95.5t-186 15h-61l-264 -1145q-5 -22 -5 -35q0 -50 45 -68.5t156 -31.5l-16 -66h-670l16 66q150 11 194.5 33.5t64.5 93.5l266 1153h-53q-143 0 -191.5 -16t-132.5 -106.5t-137 -189.5h-72l90 385h1235z" />
    <glyph glyph-name="U" unicode="U" horiz-adv-x="1548" 
d="M1720 1354q-115 -10 -182 -49t-121 -273l-97 -430q-51 -227 -88 -310.5t-117 -159.5t-198 -121.5t-258 -45.5q-209 0 -327.5 89.5t-118.5 238.5q0 47 8 82l197 844q4 17 4 32q0 78 -133 99q-16 2 -27 4l17 65h589l-16 -65q-110 -9 -156.5 -32.5t-62.5 -92.5l-182 -791
q-15 -65 -15 -119q0 -245 285 -245q103 0 187.5 33t146.5 95t89 125t71 247.5t86 379t42 267.5q0 59 -42.5 88.5t-159.5 44.5l16 65h580z" />
    <glyph glyph-name="V" unicode="V" horiz-adv-x="1366" 
d="M1599 1354q-60 -5 -117.5 -29.5t-103.5 -86.5t-361 -562l-433 -694h-82l-175 1229q-7 58 -47.5 96t-127.5 47l14 65h575l-16 -65q-193 -11 -193 -68q0 -47 140 -995q443 698 510 822.5t67 160.5q0 64 -190 80l14 65h541z" />
    <glyph glyph-name="W" unicode="W" horiz-adv-x="1999" 
d="M2218 1354q-75 -5 -134 -41.5t-87.5 -80.5t-259.5 -475l-414 -775h-90l-117 1093l-620 -1093h-88l-65 1243q-8 113 -161 129l15 65h571l-14 -65q-201 -12 -201 -72q0 -35 47 -944l596 1061h92l119 -1084q463 887 463 963q0 64 -176 76l14 65h524z" />
    <glyph glyph-name="X" unicode="X" horiz-adv-x="1454" 
d="M1599 1354q-151 -11 -227 -81.5t-504 -510.5l179 -398q82 -182 115.5 -228t53.5 -54t119 -16l-14 -66h-639l14 66q201 7 201 63q0 73 -182 489q-432 -442 -432 -495q0 -52 155 -57l-14 -66h-535l17 66q157 8 252 103.5t518 532.5l-164 368q-84 188 -102 213.5t-56 44.5
t-127 26l17 65h630l-14 -65q-198 -11 -198 -62q0 -77 172 -452q389 403 389 456q0 49 -154 58l16 65h529z" />
    <glyph glyph-name="Y" unicode="Y" horiz-adv-x="1260" 
d="M1501 1354q-49 -6 -105.5 -32.5t-123 -90t-264.5 -308.5t-234.5 -300t-56.5 -144l-64 -276q-4 -17 -4 -35q0 -65 74 -81.5t125 -20.5l-14 -66h-664l14 66q145 10 190.5 32t63.5 95l72 311q8 35 8 49q0 47 -49 208l-104 344q-55 182 -109 213.5t-113 35.5l17 65h581
l-16 -65q-129 -5 -163 -18.5t-34 -37.5q0 -42 183 -610q458 554 458 600q0 54 -172 66l17 65h504z" />
    <glyph glyph-name="Z" unicode="Z" horiz-adv-x="1233" 
d="M1378 1384l-1171 -1308h321q89 0 167 9.5t122 27.5t138 116t173 213h70l-149 -442h-1139l8 35l1174 1308h-314q-159 0 -222.5 -33t-147.5 -116t-148 -176h-70l136 401h1060z" />
    <glyph glyph-name="bracketleft" unicode="[" horiz-adv-x="768" 
d="M907 1434h-354l-383 -1657h356l-20 -86h-533l422 1829h533z" />
    <glyph glyph-name="backslash" unicode="\" horiz-adv-x="961" 
d="M569 -424l-239 1948h131l239 -1948h-131z" />
    <glyph glyph-name="bracketright" unicode="]" horiz-adv-x="768" 
d="M406 -309h-535l20 86h357l381 1657h-355l21 86h532z" />
    <glyph glyph-name="asciicircum" unicode="^" horiz-adv-x="1317" 
d="M1030 797l-321 524l-324 -524h-145l411 659h115l410 -659h-146z" />
    <glyph glyph-name="underscore" unicode="_" horiz-adv-x="1317" 
d="M1145 -279h-1327l22 97h1327z" />
    <glyph glyph-name="grave" unicode="`" 
d="M881 1110l-181 149q-111 88 -139.5 120t-28.5 71q0 34 24 61t65 27q59 0 94 -59l205 -336z" />
    <glyph glyph-name="a" unicode="a" horiz-adv-x="1174" 
d="M1098 51q-159 -67 -242 -67q-71 0 -114.5 42t-45.5 105h-8q-177 -160 -307 -160q-145 0 -228 103.5t-83 285.5q0 252 173.5 451t399.5 199q137 0 238 -64l184 47l10 -14l-151 -645q-25 -107 -25 -141q0 -57 24.5 -77t80.5 -20q54 0 108 19zM840 764q9 40 -28 107t-153 67
q-146 0 -264.5 -177.5t-118.5 -402.5q0 -148 44 -211t137 -63q113 0 256 141z" />
    <glyph glyph-name="b" unicode="b" horiz-adv-x="1135" 
d="M92 156l258 1130q12 53 12 74q0 46 -23 70.5t-140 33.5l14 62l371 22l10 -14l-152 -666h4q158 142 291 142q153 0 240.5 -104t87.5 -279q0 -265 -174.5 -461.5t-401.5 -196.5q-285 0 -397 187zM418 768l-133 -594q13 -57 67.5 -95t128.5 -38q155 0 266 170t111 412
q0 276 -203 276q-97 0 -237 -131z" />
    <glyph glyph-name="c" unicode="c" horiz-adv-x="930" 
d="M733 887q-20 51 -129 51q-132 0 -232 -155.5t-100 -391.5q0 -142 63.5 -224.5t172.5 -82.5q170 0 315 199l58 -43q-80 -124 -199.5 -196.5t-237.5 -72.5q-178 0 -277 105t-99 289q0 262 155.5 453.5t399.5 191.5q136 0 213 -58t77 -155q0 -75 -34 -124.5t-95 -49.5
q-53 0 -80.5 27t-27.5 61q0 33 57 176z" />
    <glyph glyph-name="d" unicode="d" horiz-adv-x="1178" 
d="M930 334q-25 -109 -25 -139q0 -57 24.5 -78t80.5 -21q54 0 108 19l-14 -64q-141 -67 -242 -67q-157 0 -157 153h-7q-176 -166 -317 -166q-145 0 -228 103.5t-83 285.5q0 257 168.5 453.5t398.5 196.5q140 0 250 -64l78 340q10 44 10 76q0 84 -117 94q-36 3 -80 8l15 62
l403 22l10 -14zM846 774q7 31 -41.5 97.5t-153.5 66.5q-150 0 -262.5 -173.5t-112.5 -406.5q0 -148 44 -211t137 -63q117 0 264 147z" />
    <glyph glyph-name="e" unicode="e" horiz-adv-x="967" 
d="M268 408q0 -324 230 -324q178 0 327 199l58 -43q-82 -125 -203.5 -197t-247.5 -72q-175 0 -268.5 99t-93.5 282q0 264 164 461t409 197q135 0 209 -55t74 -154q0 -172 -170 -263t-488 -130zM274 477q276 34 371.5 122t95.5 226q0 113 -116 113q-119 0 -221 -129
t-130 -332z" />
    <glyph glyph-name="f" unicode="f" horiz-adv-x="674" 
d="M754 1466q-138 -6 -217 -383l-23 -106h252l-23 -90h-247l-177 -828q-46 -215 -195 -359t-314 -144q-170 0 -170 118q0 47 27 78t73 31q74 0 129 -95q14 -26 29 -50q147 11 227 385l182 864h-194l20 90h195l14 67q48 228 192.5 366t307.5 138q87 0 128.5 -33.5t41.5 -82.5
q0 -47 -27.5 -78t-73.5 -31q-72 0 -127 95q-15 25 -30 48z" />
    <glyph glyph-name="g" unicode="g" horiz-adv-x="1174" 
d="M909 190q-70 -330 -217 -482t-411 -152q-271 0 -271 145q0 45 28 75.5t75 30.5q88 0 161 -184h29q150 0 255.5 131t150.5 381l-7 2q-184 -157 -329 -157q-143 0 -223 101t-80 284q0 255 172.5 450t400.5 195q139 0 240 -64l184 47l10 -14zM844 774q9 43 -33 103.5
t-152 60.5q-150 0 -266.5 -173t-116.5 -403q0 -272 183 -272q123 0 270 143z" />
    <glyph glyph-name="h" unicode="h" horiz-adv-x="1153" 
d="M1079 51q-166 -67 -241 -67q-160 0 -160 143q0 51 16 111l99 372q24 90 24 135q0 146 -127 146q-135 0 -280 -158l-168 -733h-187l297 1286q13 56 13 74q0 47 -23.5 71t-140.5 33l12 62l373 22l10 -14l-162 -692h4q133 104 209 136t160 32q96 0 150.5 -55t54.5 -146
q0 -72 -25 -156l-84 -321q-24 -92 -24 -137q0 -57 24.5 -78t81.5 -21q48 0 109 21z" />
    <glyph glyph-name="i" unicode="i" horiz-adv-x="608" 
d="M494 1245q-50 0 -87.5 39.5t-37.5 93.5q0 55 37 96.5t88 41.5q54 0 91.5 -38t37.5 -92q0 -56 -37.5 -98.5t-91.5 -42.5zM537 45q-160 -65 -242 -65q-76 0 -118 38.5t-42 104.5q0 42 17 110l106 426q23 92 23 144q0 59 -20.5 75.5t-74.5 16.5q-32 0 -112 -18l14 63
q155 70 238 70q155 0 155 -146q0 -50 -14 -110l-109 -424q-24 -93 -24 -140q0 -98 108 -98q57 0 109 17z" />
    <glyph glyph-name="j" unicode="j" horiz-adv-x="596" 
d="M502 1245q-50 0 -87.5 39.5t-37.5 93.5q0 55 37 96.5t88 41.5q55 0 92 -38.5t37 -91.5q0 -56 -37.5 -98.5t-91.5 -42.5zM-86 -362q66 4 119 87t85 210t105.5 465.5t73.5 402.5q0 52 -17.5 72t-76.5 20q-53 0 -123 -23l14 66q173 72 248 72q156 0 156 -146
q0 -26 -50.5 -276.5t-94.5 -444t-98.5 -290.5t-129 -165.5t-151 -100t-148.5 -31.5q-170 0 -170 118q0 44 27 76.5t73 32.5q72 0 128 -95q15 -26 30 -50z" />
    <glyph glyph-name="k" unicode="k" horiz-adv-x="1081" 
d="M815 811q-116 -67 -240 -186q151 -384 200 -459.5t138 -75.5q55 0 131 23l-14 -66q-152 -63 -254 -63q-86 0 -141.5 67.5t-190.5 433.5l-116 -100l-86 -385h-187l297 1286q13 56 13 74q0 47 -23.5 71t-140.5 33l12 62l373 22l10 -14l-246 -1042h4q172 184 320 321.5
t193 162.5t91 25q113 0 113 -106q0 -47 -36 -83t-85 -36q-55 0 -135 35z" />
    <glyph glyph-name="l" unicode="l" horiz-adv-x="584" 
d="M322 330q-25 -108 -25 -140q0 -98 106 -98q67 0 119 17l-14 -64q-156 -65 -248 -65q-78 0 -121 40t-43 103q0 34 19 110l241 1053q13 57 13 74q0 47 -23.5 71t-140.5 33l14 62l371 22l10 -14z" />
    <glyph glyph-name="m" unicode="m" horiz-adv-x="1800" 
d="M1729 49q-160 -65 -242 -65q-160 0 -160 143q0 51 16 111l99 372q24 90 24 135q0 146 -120 146q-133 0 -279 -150l-172 -741h-186l155 668q15 65 15 84q0 139 -127 139q-139 0 -287 -158l-168 -733h-186l147 647q25 110 25 144q0 58 -20 77t-75 19q-39 0 -108 -23l14 66
q150 67 242 67q142 0 147 -161h6q159 124 227.5 149t147.5 25q86 0 143 -49t64 -134h4q138 114 215 148.5t170 34.5q94 0 147.5 -55t53.5 -146q0 -72 -25 -156l-84 -321q-24 -92 -24 -137q0 -57 24.5 -78t79.5 -21q63 0 111 17z" />
    <glyph glyph-name="n" unicode="n" horiz-adv-x="1208" 
d="M1135 51q-171 -67 -242 -67q-160 0 -160 143q0 53 17 111l98 372q24 91 24 135q0 146 -127 146q-139 0 -280 -158l-168 -733h-186l147 647q25 110 25 144q0 56 -20 75t-75 19q-42 0 -108 -21l14 66q150 67 242 67q142 0 147 -161h6q145 114 217 144t156 30
q96 0 150.5 -55t54.5 -146q0 -72 -25 -156l-84 -321q-24 -92 -24 -137q0 -57 24.5 -78t81.5 -21q49 0 109 21z" />
    <glyph glyph-name="o" unicode="o" horiz-adv-x="1100" 
d="M440 -31q-165 0 -268.5 107.5t-103.5 288.5q0 268 167 456.5t418 188.5q176 0 277.5 -107.5t101.5 -286.5q0 -262 -166 -454.5t-426 -192.5zM633 938q-169 0 -266 -182.5t-97 -423.5q0 -291 199 -291q161 0 260.5 179.5t99.5 432.5q0 285 -196 285z" />
    <glyph glyph-name="p" unicode="p" horiz-adv-x="1184" 
d="M305 47l-57 -262q-12 -55 -12 -82q0 -72 176 -84l-15 -63h-551l15 63q118 5 148 34t40 75l209 919q23 101 23 144q0 62 -22 78t-73 16q-35 0 -108 -23l14 66q158 69 242 69q131 0 151 -133h9q159 146 299 146q150 0 235.5 -102.5t85.5 -280.5q0 -267 -171.5 -460.5
t-397.5 -193.5q-139 0 -240 74zM471 766l-129 -567q11 -62 65 -109t130 -47q154 0 262 168.5t108 411.5q0 276 -198 276q-98 0 -238 -133z" />
    <glyph glyph-name="q" unicode="q" horiz-adv-x="1137" 
d="M809 -213q-14 -62 -14 -84q0 -72 166 -84l-15 -63h-551l15 63q128 4 158 33.5t40 75.5l97 411h-9q-177 -168 -315 -168q-145 0 -228 103.5t-83 285.5q0 253 175.5 451.5t401.5 198.5q136 0 242 -64l178 47l12 -14zM846 764q9 39 -29 106.5t-153 67.5q-146 0 -267 -177.5
t-121 -402.5q0 -150 45 -212t136 -62q116 0 268 152z" />
    <glyph glyph-name="r" unicode="r" horiz-adv-x="944" 
d="M760 905q-134 0 -299 -188l-162 -717h-186l145 647q25 112 25 144q0 56 -20 75t-75 19q-42 0 -108 -21l14 66q150 67 242 67q147 0 147 -174h6l95 80q123 107 215 107q155 0 155 -164q0 -72 -35.5 -122t-97.5 -50q-106 0 -106 86q0 49 45 145z" />
    <glyph glyph-name="s" unicode="s" horiz-adv-x="883" 
d="M592 924l-18 7q-18 7 -56 7q-92 0 -145.5 -49t-53.5 -127q0 -61 36.5 -98t158.5 -82q153 -57 206.5 -120t53.5 -149q0 -148 -117 -245t-295 -97q-143 0 -244.5 52t-101.5 139q0 41 29 74.5t72 33.5q91 0 128 -120q10 -32 21 -62q46 -45 119 -45q217 0 217 199
q0 61 -44.5 103t-162.5 81q-245 84 -245 268q0 129 113.5 222.5t281.5 93.5q132 0 214.5 -39.5t82.5 -116.5q0 -41 -29 -75t-72 -34q-90 0 -127 118q-10 32 -22 61z" />
    <glyph glyph-name="t" unicode="t" horiz-adv-x="711" 
d="M752 887h-279l-127 -551q-20 -87 -20 -135q0 -56 27 -81.5t100 -25.5t145 25l-16 -74q-161 -65 -279 -65q-182 0 -182 149q0 42 10 88l156 670h-178l20 90h182l70 293h180l-67 -293h278z" />
    <glyph glyph-name="u" unicode="u" horiz-adv-x="1178" 
d="M1108 51q-161 -67 -242 -67q-73 0 -116 42t-43 113h-7q-188 -164 -358 -164q-97 0 -150 55t-53 146q0 62 23 156l78 315q22 89 22 144q0 59 -20 76.5t-72 17.5q-38 0 -111 -23l17 66q152 69 231 69q156 0 156 -143q0 -53 -17 -111l-88 -370q-22 -92 -22 -133
q0 -146 121 -146q134 0 266 135l174 752l174 12l12 -14l-147 -643q-27 -118 -27 -141q0 -57 25 -78t82 -21q52 0 106 19z" />
    <glyph glyph-name="v" unicode="v" horiz-adv-x="1102" 
d="M59 860l15 66q157 71 235 71q158 0 158 -143q0 -51 -16 -111l-97 -372q-20 -77 -20 -119q0 -166 170 -166q141 0 269 161t128 365q0 90 -53 151t-53 130q0 51 34.5 84t83.5 33q125 0 125 -187q0 -330 -179.5 -592t-430.5 -262q-129 0 -208 72t-79 197q0 45 13 90l88 319
q24 87 24 144q0 55 -19.5 74.5t-76.5 19.5q-36 0 -111 -25z" />
    <glyph glyph-name="w" unicode="w" horiz-adv-x="1683" 
d="M737 166q-192 -195 -340 -195q-123 0 -189.5 68.5t-66.5 193.5q0 50 15 99l84 315q22 83 22 144q0 59 -20 76.5t-72 17.5q-38 0 -111 -23l17 66q152 69 231 69q156 0 156 -143q0 -53 -17 -111l-92 -368q-20 -80 -20 -135q0 -152 131 -152q139 0 258 135l176 758l174 12
l12 -14l-141 -608q-22 -95 -22 -129q0 -156 170 -156q142 0 266.5 160.5t124.5 365.5q0 88 -53 151q-54 63 -54 130q0 51 35 84t84 33q127 0 127 -187q0 -331 -177 -592.5t-427 -261.5q-98 0 -176.5 53.5t-104.5 143.5z" />
    <glyph glyph-name="x" unicode="x" horiz-adv-x="1026" 
d="M807 813q-116 -104 -217 -289q81 -336 129 -384t121 -48q59 0 131 21l-19 -66q-151 -63 -249 -63q-103 0 -145 63.5t-101 321.5q-150 -235 -228.5 -311t-162.5 -76q-49 0 -79 26.5t-30 71.5q0 53 35.5 86t99.5 33q31 0 64 -12t61 -21q123 115 217 285q-88 354 -126 393
t-103 39q-48 0 -123 -25l18 68q180 71 224 71q93 0 140 -59.5t92 -281.5q4 -23 11 -54q22 32 42 64q125 202 200 268.5t154 66.5q45 0 74.5 -27.5t29.5 -74.5q0 -49 -37 -81t-96 -32q-35 0 -127 27z" />
    <glyph glyph-name="y" unicode="y" horiz-adv-x="1147" 
d="M913 197q-72 -327 -226.5 -484t-405.5 -157q-263 0 -263 141q0 45 27 76.5t74 31.5q91 0 162 -182h24q141 0 251 132.5t161 389.5h-6q-191 -165 -365 -165q-94 0 -150.5 54t-56.5 146q0 62 23 156l78 311q22 88 22 144q0 59 -20 76.5t-72 17.5q-38 0 -111 -23l17 66
q152 69 231 69q158 0 158 -143q0 -51 -16 -111l-91 -364q-24 -96 -24 -135q0 -146 129 -146q140 0 272 135l166 748l172 12l12 -14z" />
    <glyph glyph-name="z" unicode="z" horiz-adv-x="909" 
d="M922 920l-715 -840l90 -2q294 -7 332.5 28t136.5 242h59l-67 -348h-785l17 70l702 829h-131q-202 0 -251.5 -34t-112.5 -189h-62l60 303h739z" />
    <glyph glyph-name="braceleft" unicode="{" horiz-adv-x="881" 
d="M1026 1460q-159 -6 -221 -61.5t-86 -161.5l-51 -223q-36 -156 -125.5 -252t-311.5 -137l-8 -31q152 -30 212.5 -90t60.5 -168q0 -63 -41 -231q-41 -169 -41 -216q0 -69 45.5 -104.5t173.5 -42.5l-21 -76q-195 0 -284.5 58t-89.5 186q0 70 48 238t48 223q0 164 -262 178
l30 125q185 12 274 82.5t117 299.5q22 182 64.5 270.5t155 149t331.5 60.5z" />
    <glyph glyph-name="bar" unicode="|" horiz-adv-x="768" 
d="M348 -424v1948h127v-1948h-127z" />
    <glyph glyph-name="braceright" unicode="}" horiz-adv-x="881" 
d="M809 530q-213 -20 -289.5 -98t-101.5 -283q-22 -181 -68 -273.5t-158.5 -151t-326.5 -58.5l18 78q158 6 221.5 61t88.5 160l51 225q39 170 131 261t305 129l6 30q-155 30 -212.5 91t-57.5 167q0 68 40 232t40 215q0 70 -46.5 105t-170.5 42l18 74q200 0 288.5 -58.5
t88.5 -183.5q0 -70 -48 -238t-48 -222q0 -164 260 -179z" />
    <glyph glyph-name="asciitilde" unicode="~" horiz-adv-x="1317" 
d="M1212 715q-46 -123 -141 -209t-201 -86q-105 0 -241 68q-137 67 -201 67q-53 0 -95 -33t-100 -141l-77 31q49 126 142 209.5t198 83.5q116 0 244 -68t198 -68q55 0 98 34.5t99 141.5z" />
    <glyph glyph-name="exclamdown" unicode="&#xa1;" horiz-adv-x="678" 
d="M510 1184q-58 0 -97.5 39.5t-39.5 97.5q0 56 39 94.5t98 38.5q58 0 96.5 -39t38.5 -94q0 -57 -39 -97t-96 -40zM494 1004q-40 -257 -74 -557q-22 -186 -34.5 -272t-34.5 -121t-57.5 -54.5t-78.5 -19.5q-100 0 -100 100q0 51 62.5 226t238.5 698h78z" />
    <glyph glyph-name="cent" unicode="&#xa2;" horiz-adv-x="1137" 
d="M877 877q-31 53 -129 65l-197 -852q93 0 137.5 7t105 46.5t142.5 143.5l61 -41q-183 -266 -471 -266l-63 -279h-92l67 285q-155 20 -241 121t-86 262q0 250 155.5 440t409.5 205l59 262h92l-63 -262q133 -12 205.5 -71.5t72.5 -141.5q0 -65 -32.5 -112.5t-85.5 -47.5
q-107 0 -107 84q0 40 60 152zM659 944q-145 -23 -245.5 -180t-100.5 -367q0 -227 154 -291z" />
    <glyph glyph-name="sterling" unicode="&#xa3;" horiz-adv-x="1274" 
d="M1085 1292q-5 37 -47.5 62.5t-99.5 25.5q-93 0 -168 -59.5t-103 -142t-74 -379.5q-8 -48 -15 -84h397l-21 -92h-391q-51 -288 -325 -437l-2 -14h866l-39 -172h-1049l33 147q248 75 318 476h-172l20 92h168q16 272 90 423.5t203.5 234.5t283.5 83q138 0 223 -71t85 -177
q0 -76 -36 -125t-97 -49q-109 0 -109 88q0 50 45 135q10 20 16 35z" />
    <glyph glyph-name="currency" unicode="&#xa4;" horiz-adv-x="1169" 
d="M944 141l-188 185q-68 -43 -146 -43q-75 0 -143 43l-191 -187l-83 90l184 187q-43 68 -43 143q0 77 43 143l-184 191l88 86l186 -186q68 43 143 43q73 0 146 -41l184 184l90 -86l-186 -191q43 -66 43 -143q0 -75 -43 -143l186 -189zM610 725q-69 0 -115 -48.5t-46 -117.5
q0 -68 47.5 -117t113.5 -49q68 0 115 49t47 117q0 69 -48 117.5t-114 48.5z" />
    <glyph glyph-name="yen" unicode="&#xa5;" horiz-adv-x="1260" 
d="M1464 1354q-82 -15 -114 -39q-21 -12 -35 -19q-80 -44 -570 -651l-20 -88h399l-20 -90h-399l-62 -264q-4 -17 -4 -39q0 -58 55.5 -74t120.5 -24l-14 -66h-606l16 66q149 8 182.5 38.5t46.5 88.5l64 274h-387l22 90h387l15 70q-151 552 -204.5 635t-160.5 92l14 65h562
l-17 -65q-22 -2 -53 -3q-127 -7 -127 -51q0 -42 168 -552q416 507 416 542q0 54 -158 64l16 65h484z" />
    <glyph glyph-name="brokenbar" unicode="&#xa6;" horiz-adv-x="768" 
d="M348 723v801h127v-801h-127zM348 -424v809h127v-809h-127z" />
    <glyph glyph-name="section" unicode="&#xa7;" 
d="M767 1372q-42 10 -80 10q-102 0 -177 -61.5t-75 -142.5q0 -53 45 -90t222 -123q227 -115 227 -283q0 -113 -89 -215t-237 -154q166 -87 166 -227q0 -143 -135.5 -243.5t-333.5 -100.5q-127 0 -196.5 42t-69.5 111q0 45 32.5 82t88.5 37q82 0 114 -186q37 -14 82 -14
q104 0 181 63t77 154q0 52 -38.5 93.5t-196.5 117.5q-248 116 -248 299q0 241 313 364q-163 98 -163 217q0 139 129.5 235.5t332.5 96.5q131 0 199 -41t68 -110q0 -49 -32 -85t-85 -36q-85 0 -121 190zM513 864q-227 -86 -227 -272q0 -72 51.5 -123.5t204.5 -124.5
q223 110 223 283q0 64 -50.5 116t-201.5 121z" />
    <glyph glyph-name="dieresis" unicode="&#xa8;" 
d="M928 1241q-51 0 -85 36t-34 87q0 50 33.5 86.5t85.5 36.5q49 0 82.5 -36.5t33.5 -86.5q0 -51 -33.5 -87t-82.5 -36zM498 1241q-51 0 -85 36t-34 87q0 50 33.5 86.5t85.5 36.5q49 0 82.5 -36.5t33.5 -86.5q0 -51 -33.5 -87t-82.5 -36z" />
    <glyph glyph-name="copyright" unicode="&#xa9;" horiz-adv-x="1929" 
d="M993 -281q-365 0 -626 262t-261 623q0 359 261 620t626 261q363 0 623 -261t260 -620q0 -362 -260 -623.5t-623 -261.5zM993 1397q-326 0 -556 -232t-230 -561q0 -333 229.5 -566t556.5 -233t556 232.5t229 566.5q0 329 -229.5 561t-555.5 232zM1403 403
q-124 -292 -393 -292q-221 0 -356.5 131.5t-135.5 349.5q0 213 148 356.5t372 143.5q123 0 219 -64l46 66h59l4 -363h-53q-54 166 -127.5 227.5t-186.5 61.5q-119 0 -196.5 -111.5t-77.5 -306.5q0 -179 90.5 -287t235.5 -108q198 0 292 221z" />
    <glyph glyph-name="ordfeminine" unicode="&#xaa;" 
d="M1004 678q-132 -55 -201 -55q-128 0 -139 116h-7q-134 -127 -251 -127q-119 0 -187.5 83.5t-68.5 232.5q0 202 147 363t338 161q108 0 194 -49l148 39l16 -12l-133 -519q-20 -78 -20 -114q0 -48 20 -63t68 -15q30 0 90 18zM784 1253q7 28 -17 83t-118 55
q-122 0 -219.5 -143t-97.5 -322q0 -131 36 -173t103 -42q96 0 203 114z" />
    <glyph glyph-name="guillemotleft" unicode="&#xab;" horiz-adv-x="1190" 
d="M762 522l190 -368l-57 -33l-303 332q-27 30 -27 57q0 49 46 83l472 345l39 -49zM373 522l190 -368l-57 -33l-303 332q-27 30 -27 57q0 49 46 83l472 345l39 -49z" />
    <glyph glyph-name="logicalnot" unicode="&#xac;" horiz-adv-x="1317" 
d="M1057 76v450h-887v125h1018v-575h-131z" />
    <glyph glyph-name="registered" unicode="&#xae;" horiz-adv-x="1929" 
d="M993 -281q-365 0 -626 262t-261 623q0 359 261 620t626 261q363 0 623 -261t260 -620q0 -362 -260 -623.5t-623 -261.5zM993 1397q-326 0 -556 -232t-230 -561q0 -333 229.5 -566t556.5 -233t556 232.5t229 566.5q0 329 -229.5 561t-555.5 232zM1282 145
q-141 197 -307 404h-107v-262q0 -44 25 -59t117 -25v-58h-439v58q90 10 113 26t23 58v643q0 48 -32 63t-104 25v57h492q132 0 218.5 -57.5t86.5 -163.5q0 -198 -235 -264l183 -225q74 -96 117.5 -124t135.5 -38v-58h-287zM868 1004v-379h88q104 0 165 57t61 152
q0 170 -197 170h-117z" />
    <glyph glyph-name="macron" unicode="&#xaf;" horiz-adv-x="1221" 
d="M1538 1606h-1325l23 96h1327z" />
    <glyph glyph-name="degree" unicode="&#xb0;" horiz-adv-x="858" 
d="M504 803q-143 0 -234.5 93t-91.5 232q0 141 92.5 232.5t233.5 91.5q144 0 234.5 -93t90.5 -231q0 -139 -91.5 -232t-233.5 -93zM504 1378q-83 0 -129.5 -67.5t-46.5 -180.5q0 -251 180 -251q74 0 124 65t50 176q0 127 -49 192.5t-129 65.5z" />
    <glyph glyph-name="plusminus" unicode="&#xb1;" horiz-adv-x="1317" 
d="M174 0v125h447v401h-447v125h447v453h127v-453h446v-125h-446v-401h446v-125h-1020z" />
    <glyph glyph-name="twosuperior" unicode="&#xb2;" 
d="M299 629h625l-31 -140h-754l27 111q79 102 266 207q242 135 305.5 230.5t63.5 197.5q0 71 -42 109t-110 38q-102 0 -164 -65q4 -26 4 -64q0 -135 -131 -135q-71 0 -71 76q0 89 117.5 173.5t277.5 84.5q138 0 221.5 -61.5t83.5 -165.5q0 -252 -342 -402
q-247 -113 -346 -194z" />
    <glyph glyph-name="threesuperior" unicode="&#xb3;" 
d="M713 995l-2 -8q217 -30 217 -190q0 -147 -138 -244.5t-344 -97.5q-131 0 -212.5 52.5t-81.5 125.5q0 47 30 85t76 38q96 0 96 -72q0 -37 -43 -102q55 -60 154 -60q111 0 191.5 79.5t80.5 205.5q0 129 -178 129h-108l22 88h76q108 0 169.5 64.5t61.5 175.5q0 120 -135 120
q-84 0 -156 -61q5 -23 5 -47q0 -131 -127 -131q-72 0 -72 67q0 85 113 162.5t282 77.5q139 0 210 -55t71 -144q0 -83 -66.5 -153.5t-191.5 -104.5z" />
    <glyph glyph-name="acute" unicode="&#xb4;" 
d="M504 1110l-35 33q130 172 219 307q57 88 137 88q35 0 56.5 -22t21.5 -50q0 -54 -39.5 -88.5t-244.5 -182.5q-50 -36 -115 -85z" />
    <glyph glyph-name="mu" unicode="&#xb5;" horiz-adv-x="1161" 
d="M1092 51q-165 -67 -242 -67q-73 0 -116.5 42t-43.5 113h-6q-31 -24 -64 -52q-129 -107 -282 -107q-120 0 -172 90h-6l-13 -68l-14 -110l1 -127q0 -137 -45.5 -173t-88.5 -36q-70 0 -70 73q0 43 82 246q52 128 82 260l195 846l176 12l12 -12l-143 -627q-19 -83 -19 -123
q0 -137 125 -137q130 0 267 135l174 752l176 12l10 -12l-149 -645q-25 -108 -25 -143q0 -56 24.5 -76.5t79.5 -20.5q54 0 109 19z" />
    <glyph glyph-name="paragraph" unicode="&#xb6;" 
d="M1135 1346h-111l-360 -1561h-103l361 1561h-160l-361 -1561h-102l211 915q-140 0 -227.5 80t-87.5 215q0 178 130.5 301t331.5 123h496z" />
    <glyph glyph-name="periodcentered" unicode="&#xb7;" horiz-adv-x="571" 
d="M297 424q-57 0 -97 38.5t-40 96.5q0 56 39 96.5t98 40.5q58 0 96.5 -41t38.5 -96q0 -57 -39.5 -96t-95.5 -39z" />
    <glyph glyph-name="cedilla" unicode="&#xb8;" 
d="M233 -444l15 71q174 0 222 26t48 73q0 67 -153 67l45 223h77l-24 -114q93 0 150 -33.5t57 -93.5q0 -219 -437 -219z" />
    <glyph glyph-name="onesuperior" unicode="&#xb9;" 
d="M823 1446q-50 -184 -61 -238l-131 -565q-10 -43 15 -60.5t159 -27.5l-17 -66h-565l17 66q156 7 184.5 28.5t36.5 53.5l145 635h-207l19 74h61q150 0 271 100h73z" />
    <glyph glyph-name="ordmasculine" unicode="&#xba;" 
d="M504 606q-140 0 -230 90.5t-90 237.5q0 212 144 365t350 153q146 0 233.5 -86.5t87.5 -232.5q0 -211 -142.5 -369t-352.5 -158zM662 1384q-137 0 -216 -150t-79 -335q0 -104 41.5 -163.5t117.5 -59.5q124 0 207.5 150t83.5 339q0 219 -155 219z" />
    <glyph glyph-name="guillemotright" unicode="&#xbb;" horiz-adv-x="1190" 
d="M543 119l-39 49l360 367l-190 368l57 33l303 -332q27 -30 27 -57q0 -49 -45 -82zM154 119l-39 49l360 367l-190 368l57 33l303 -332q27 -30 27 -57q0 -49 -45 -82z" />
    <glyph glyph-name="onequarter" unicode="&#xbc;" horiz-adv-x="2150" 
d="M737 1446q-50 -184 -61 -238l-131 -565q-10 -43 15 -60.5t159 -27.5l-17 -66h-565l17 66q156 7 184.5 28.5t36.5 53.5l145 635h-207l19 74h61q150 0 271 100h73zM1947 322l-24 -104h-160l-53 -236h-166l53 236h-495l28 122l688 623h117l-147 -641h159zM1724 770
l-491 -448h389zM604 0h-135l1044 1419h137z" />
    <glyph glyph-name="onehalf" unicode="&#xbd;" horiz-adv-x="2150" 
d="M737 1446q-50 -184 -61 -238l-131 -565q-10 -43 15 -60.5t159 -27.5l-17 -66h-565l17 66q156 7 184.5 28.5t36.5 53.5l145 635h-207l19 74h61q150 0 271 100h73zM1354 142h625l-31 -140h-754l27 111q79 102 266 207q242 135 305.5 230.5t63.5 197.5q0 71 -42 109t-110 38
q-102 0 -164 -65q4 -26 4 -64q0 -135 -131 -135q-71 0 -71 76q0 89 117.5 173.5t277.5 84.5q138 0 221.5 -61.5t83.5 -165.5q0 -252 -342 -402q-247 -113 -346 -194zM594 0h-135l1044 1419h137z" />
    <glyph glyph-name="threequarters" unicode="&#xbe;" horiz-adv-x="2150" 
d="M713 995l-2 -8q217 -30 217 -190q0 -147 -138 -244.5t-344 -97.5q-131 0 -212.5 52.5t-81.5 125.5q0 47 30 85t76 38q96 0 96 -72q0 -37 -43 -102q55 -60 154 -60q111 0 191.5 79.5t80.5 205.5q0 129 -178 129h-108l22 88h76q108 0 169.5 64.5t61.5 175.5q0 120 -135 120
q-84 0 -156 -61q5 -23 5 -47q0 -131 -127 -131q-72 0 -72 67q0 85 113 162.5t282 77.5q139 0 210 -55t71 -144q0 -83 -66.5 -153.5t-191.5 -104.5zM2037 322l-24 -104h-160l-53 -236h-166l53 236h-495l28 122l688 623h117l-147 -641h159zM1814 770l-491 -448h389zM756 0
h-135l1044 1419h137z" />
    <glyph glyph-name="questiondown" unicode="&#xbf;" horiz-adv-x="981" 
d="M737 1180q-57 0 -97 41t-40 96q0 56 40 95.5t97 39.5q55 0 96 -38.5t41 -96.5q0 -57 -40.5 -97t-96.5 -40zM602 844l51 211h92l-79 -379q-424 -42 -424 -397q0 -109 57 -167.5t154 -58.5q73 0 137 41v69q0 171 151 171q82 0 82 -88q0 -98 -112.5 -182t-280.5 -84
q-175 0 -274 93t-99 240q0 213 146.5 355.5t398.5 175.5z" />
    <glyph glyph-name="Agrave" unicode="&#xc0;" horiz-adv-x="1374" 
d="M1303 0h-580l14 66q199 19 199 75l-45 353h-500q-178 -294 -178 -351q0 -64 186 -77l-14 -66h-545l15 66q79 6 137 35.5t100.5 86.5t309.5 490l470 762h80l189 -1229q21 -133 176 -145zM786 1130l-340 -555h428zM1073 1546l-35 -39q-112 60 -199 103q-101 50 -157.5 81
t-56.5 87q0 39 27.5 64.5t68.5 25.5q28 0 60.5 -24t291.5 -298z" />
    <glyph glyph-name="Aacute" unicode="&#xc1;" horiz-adv-x="1374" 
d="M1303 0h-580l14 66q199 19 199 75l-45 353h-500q-178 -294 -178 -351q0 -64 186 -77l-14 -66h-545l15 66q79 6 137 35.5t100.5 86.5t309.5 490l470 762h80l189 -1229q21 -133 176 -145zM786 1130l-340 -555h428zM774 1507l-26 39q91 77 282 262q57 60 123 60
q37 0 60.5 -20.5t23.5 -51.5q0 -78 -100 -122t-363 -167z" />
    <glyph glyph-name="Acircumflex" unicode="&#xc2;" horiz-adv-x="1374" 
d="M1303 0h-580l14 66q199 19 199 75l-45 353h-500q-178 -294 -178 -351q0 -64 186 -77l-14 -66h-545l15 66q79 6 137 35.5t100.5 86.5t309.5 490l470 762h80l189 -1229q21 -133 176 -145zM786 1130l-340 -555h428zM1212 1538l-49 -31l-236 211l-319 -211l-47 31l291 285
q46 45 100 45q57 0 80 -41z" />
    <glyph glyph-name="Atilde" unicode="&#xc3;" horiz-adv-x="1374" 
d="M1303 0h-580l14 66q199 19 199 75l-45 353h-500q-178 -294 -178 -351q0 -64 186 -77l-14 -66h-545l15 66q79 6 137 35.5t100.5 86.5t309.5 490l470 762h80l189 -1229q21 -133 176 -145zM786 1130l-340 -555h428zM1299 1842q-28 -101 -98.5 -172.5t-155.5 -71.5
q-82 0 -174 51q-93 51 -138 51q-41 0 -66.5 -21.5t-74.5 -113.5l-57 25q36 105 103 174t147 69q76 0 170 -51t129 -51q50 0 82 17t71 116z" />
    <glyph glyph-name="Adieresis" unicode="&#xc4;" horiz-adv-x="1374" 
d="M1303 0h-580l14 66q199 19 199 75l-45 353h-500q-178 -294 -178 -351q0 -64 186 -77l-14 -66h-545l15 66q79 6 137 35.5t100.5 86.5t309.5 490l470 762h80l189 -1229q21 -133 176 -145zM786 1130l-340 -555h428zM1136 1608q-49 0 -83.5 35.5t-34.5 87.5q0 51 34.5 86.5
t83.5 35.5q50 0 83.5 -35.5t33.5 -86.5q0 -52 -33.5 -87.5t-83.5 -35.5zM686 1608q-49 0 -84 35.5t-35 87.5q0 51 35 86.5t84 35.5t84 -35.5t35 -86.5q0 -52 -35 -87.5t-84 -35.5z" />
    <glyph glyph-name="Aring" unicode="&#xc5;" horiz-adv-x="1374" 
d="M1303 0h-580l14 66q199 19 199 75l-45 353h-500q-178 -294 -178 -351q0 -64 186 -77l-14 -66h-545l15 66q79 6 137 35.5t100.5 86.5t309.5 490l470 762h80l189 -1229q21 -133 176 -145zM786 1130l-340 -555h428zM882 1423q-105 0 -164 49.5t-59 132.5q0 112 86 187.5
t213 75.5q101 0 162 -52t61 -135q0 -107 -84 -182.5t-215 -75.5zM947 1808q-71 0 -117.5 -59t-46.5 -142q0 -124 109 -124q74 0 118 58.5t44 139.5q0 127 -107 127z" />
    <glyph glyph-name="AE" unicode="&#xc6;" horiz-adv-x="1989" 
d="M1960 1077h-76q-7 105 -40 170t-76.5 82t-200.5 17h-219l-131 -572h149q118 0 181 56t106 178h76l-130 -555h-73q4 28 4 59q0 100 -32.5 142t-149.5 42h-150l-98 -432q-15 -66 -15 -96q0 -57 37 -73.5t166 -16.5q151 0 214 10t100 34t117 124t122 172h74l-123 -418h-1169
l16 66q150 11 183 38.5t46 83.5l97 416h-476q-311 -384 -311 -454q0 -74 150 -84l-15 -66h-536l14 66q119 19 177.5 62.5t226 250t753.5 952.5q-29 16 -168 23l17 65h1241zM1065 1335l-510 -647h428l150 647h-68z" />
    <glyph glyph-name="Ccedilla" unicode="&#xc7;" horiz-adv-x="1315" 
d="M1319 913h-82v39q0 418 -322 418q-239 0 -408 -239t-169 -576q0 -219 106 -349t279 -130q291 0 471 319l72 -37q-224 -391 -635 -391q-230 0 -380.5 156t-150.5 409q0 371 241 645.5t574 274.5q230 0 375 -100l58 67h79zM413 -444l15 71q174 0 222 26t48 73q0 67 -153 67
l45 223h77l-24 -114q93 0 150 -33.5t57 -93.5q0 -219 -437 -219z" />
    <glyph glyph-name="Egrave" unicode="&#xc8;" horiz-adv-x="1337" 
d="M1309 1077h-74q-7 105 -40.5 169t-76 82t-203.5 18h-227l-131 -572h160q113 0 172.5 48t114.5 186h73l-127 -555h-73q0 108 -5.5 149.5t-41 67.5t-132.5 26h-159l-101 -432q-12 -51 -12 -96q0 -54 38.5 -72t174.5 -18q153 0 215.5 10.5t100.5 35.5t116.5 123.5
t120.5 170.5h72l-123 -418h-1178l14 66q135 10 175.5 32.5t56.5 89.5l237 1031q5 22 5 36q0 84 -177 99l17 65h1098zM1032 1546l-35 -39q-112 60 -199 103q-101 50 -157.5 81t-56.5 87q0 39 27.5 64.5t68.5 25.5q28 0 60.5 -24t291.5 -298z" />
    <glyph glyph-name="Eacute" unicode="&#xc9;" horiz-adv-x="1337" 
d="M1309 1077h-74q-7 105 -40.5 169t-76 82t-203.5 18h-227l-131 -572h160q113 0 172.5 48t114.5 186h73l-127 -555h-73q0 108 -5.5 149.5t-41 67.5t-132.5 26h-159l-101 -432q-12 -51 -12 -96q0 -54 38.5 -72t174.5 -18q153 0 215.5 10.5t100.5 35.5t116.5 123.5
t120.5 170.5h72l-123 -418h-1178l14 66q135 10 175.5 32.5t56.5 89.5l237 1031q5 22 5 36q0 84 -177 99l17 65h1098zM713 1507l-26 39q91 77 282 262q57 60 123 60q37 0 60.5 -20.5t23.5 -51.5q0 -78 -100 -122t-363 -167z" />
    <glyph glyph-name="Ecircumflex" unicode="&#xca;" horiz-adv-x="1337" 
d="M1309 1077h-74q-7 105 -40.5 169t-76 82t-203.5 18h-227l-131 -572h160q113 0 172.5 48t114.5 186h73l-127 -555h-73q0 108 -5.5 149.5t-41 67.5t-132.5 26h-159l-101 -432q-12 -51 -12 -96q0 -54 38.5 -72t174.5 -18q153 0 215.5 10.5t100.5 35.5t116.5 123.5
t120.5 170.5h72l-123 -418h-1178l14 66q135 10 175.5 32.5t56.5 89.5l237 1031q5 22 5 36q0 84 -177 99l17 65h1098zM1210 1538l-49 -31l-236 211l-319 -211l-47 31l291 285q46 45 100 45q57 0 80 -41z" />
    <glyph glyph-name="Edieresis" unicode="&#xcb;" horiz-adv-x="1337" 
d="M1309 1077h-74q-7 105 -40.5 169t-76 82t-203.5 18h-227l-131 -572h160q113 0 172.5 48t114.5 186h73l-127 -555h-73q0 108 -5.5 149.5t-41 67.5t-132.5 26h-159l-101 -432q-12 -51 -12 -96q0 -54 38.5 -72t174.5 -18q153 0 215.5 10.5t100.5 35.5t116.5 123.5
t120.5 170.5h72l-123 -418h-1178l14 66q135 10 175.5 32.5t56.5 89.5l237 1031q5 22 5 36q0 84 -177 99l17 65h1098zM1108 1608q-49 0 -83.5 35.5t-34.5 87.5q0 51 34.5 86.5t83.5 35.5q50 0 83.5 -35.5t33.5 -86.5q0 -52 -33.5 -87.5t-83.5 -35.5zM658 1608q-49 0 -84 35.5
t-35 87.5q0 51 35 86.5t84 35.5t84 -35.5t35 -86.5q0 -52 -35 -87.5t-84 -35.5z" />
    <glyph glyph-name="Igrave" unicode="&#xcc;" horiz-adv-x="799" 
d="M907 1354q-137 -10 -181.5 -35.5t-59.5 -87.5l-240 -1038q-4 -17 -4 -31q0 -83 188 -96l-14 -66h-639l14 66q156 6 192.5 37t47.5 79l240 1039q4 17 4 34q0 47 -51 66.5t-136 32.5l15 65h639zM844 1546l-35 -39q-112 60 -199 103q-101 50 -157.5 81t-56.5 87
q0 39 27.5 64.5t68.5 25.5q28 0 60.5 -24t291.5 -298z" />
    <glyph glyph-name="Iacute" unicode="&#xcd;" horiz-adv-x="799" 
d="M907 1354q-137 -10 -181.5 -35.5t-59.5 -87.5l-240 -1038q-4 -17 -4 -31q0 -83 188 -96l-14 -66h-639l14 66q156 6 192.5 37t47.5 79l240 1039q4 17 4 34q0 47 -51 66.5t-136 32.5l15 65h639zM454 1507l-26 39q91 77 282 262q57 60 123 60q37 0 60.5 -20.5t23.5 -51.5
q0 -78 -100 -122t-363 -167z" />
    <glyph glyph-name="Icircumflex" unicode="&#xce;" horiz-adv-x="799" 
d="M907 1354q-137 -10 -181.5 -35.5t-59.5 -87.5l-240 -1038q-4 -17 -4 -31q0 -83 188 -96l-14 -66h-639l14 66q156 6 192.5 37t47.5 79l240 1039q4 17 4 34q0 47 -51 66.5t-136 32.5l15 65h639zM948 1538l-49 -31l-236 211l-319 -211l-47 31l291 285q46 45 100 45
q57 0 80 -41z" />
    <glyph glyph-name="Idieresis" unicode="&#xcf;" horiz-adv-x="799" 
d="M907 1354q-137 -10 -181.5 -35.5t-59.5 -87.5l-240 -1038q-4 -17 -4 -31q0 -83 188 -96l-14 -66h-639l14 66q156 6 192.5 37t47.5 79l240 1039q4 17 4 34q0 47 -51 66.5t-136 32.5l15 65h639zM882 1608q-49 0 -83.5 35.5t-34.5 87.5q0 51 34.5 86.5t83.5 35.5
q50 0 83.5 -35.5t33.5 -86.5q0 -52 -33.5 -87.5t-83.5 -35.5zM432 1608q-49 0 -84 35.5t-35 87.5q0 51 35 86.5t84 35.5t84 -35.5t35 -86.5q0 -52 -35 -87.5t-84 -35.5z" />
    <glyph glyph-name="Eth" unicode="&#xd0;" horiz-adv-x="1534" 
d="M-29 0l15 66q87 0 145 20t76 98l121 518h-187l23 95h184l94 407q9 39 9 51q0 48 -42.5 69t-117.5 30l14 65h602q254 0 431.5 -141.5t177.5 -405.5q0 -384 -270.5 -628t-655.5 -244h-619zM686 1339l-125 -542h303l-20 -95h-303l-109 -464q-6 -26 -6 -52q0 -62 53.5 -85
t161.5 -23q283 0 461 232.5t178 559.5q0 218 -117.5 345.5t-320.5 127.5q-87 0 -156 -4z" />
    <glyph glyph-name="Ntilde" unicode="&#xd1;" horiz-adv-x="1571" 
d="M1743 1354q-150 -21 -202 -64t-101 -260l-242 -1044h-88l-584 1198l-178 -774q-26 -113 -26 -191q0 -49 14 -79t89 -51.5t97 -22.5l-14 -66h-584l17 66q126 20 188.5 56t118.5 277l160 688q12 52 12 101q0 139 -207 166l16 65h408l539 -1110l163 709q27 117 27 188
q0 52 -14.5 77t-76.5 45.5t-110 25.5l17 65h577zM1403 1842q-28 -101 -98.5 -172.5t-155.5 -71.5q-82 0 -174 51q-93 51 -138 51q-41 0 -66.5 -21.5t-74.5 -113.5l-57 25q36 105 103 174t147 69q76 0 170 -51t129 -51q50 0 82 17t71 116z" />
    <glyph glyph-name="Ograve" unicode="&#xd2;" horiz-adv-x="1495" 
d="M651 -35q-248 0 -399.5 159.5t-151.5 416.5q0 372 249 641.5t577 269.5q246 0 398.5 -158.5t152.5 -421.5q0 -372 -251.5 -639.5t-574.5 -267.5zM907 1368q-254 0 -412.5 -270t-158.5 -604q0 -213 86.5 -329t247.5 -116q249 0 410 266.5t161 616.5q0 207 -87 321.5
t-247 114.5zM1143 1546l-35 -39q-112 60 -199 103q-101 50 -157.5 81t-56.5 87q0 39 27.5 64.5t68.5 25.5q28 0 60.5 -24t291.5 -298z" />
    <glyph glyph-name="Oacute" unicode="&#xd3;" horiz-adv-x="1495" 
d="M651 -35q-248 0 -399.5 159.5t-151.5 416.5q0 372 249 641.5t577 269.5q246 0 398.5 -158.5t152.5 -421.5q0 -372 -251.5 -639.5t-574.5 -267.5zM907 1368q-254 0 -412.5 -270t-158.5 -604q0 -213 86.5 -329t247.5 -116q249 0 410 266.5t161 616.5q0 207 -87 321.5
t-247 114.5zM733 1507l-26 39q91 77 282 262q57 60 123 60q37 0 60.5 -20.5t23.5 -51.5q0 -78 -100 -122t-363 -167z" />
    <glyph glyph-name="Ocircumflex" unicode="&#xd4;" horiz-adv-x="1495" 
d="M651 -35q-248 0 -399.5 159.5t-151.5 416.5q0 372 249 641.5t577 269.5q246 0 398.5 -158.5t152.5 -421.5q0 -372 -251.5 -639.5t-574.5 -267.5zM907 1368q-254 0 -412.5 -270t-158.5 -604q0 -213 86.5 -329t247.5 -116q249 0 410 266.5t161 616.5q0 207 -87 321.5
t-247 114.5zM1249 1538l-49 -31l-236 211l-319 -211l-47 31l291 285q46 45 100 45q57 0 80 -41z" />
    <glyph glyph-name="Otilde" unicode="&#xd5;" horiz-adv-x="1495" 
d="M651 -35q-248 0 -399.5 159.5t-151.5 416.5q0 372 249 641.5t577 269.5q246 0 398.5 -158.5t152.5 -421.5q0 -372 -251.5 -639.5t-574.5 -267.5zM907 1368q-254 0 -412.5 -270t-158.5 -604q0 -213 86.5 -329t247.5 -116q249 0 410 266.5t161 616.5q0 207 -87 321.5
t-247 114.5zM1344 1842q-28 -101 -98.5 -172.5t-155.5 -71.5q-82 0 -174 51q-93 51 -138 51q-41 0 -66.5 -21.5t-74.5 -113.5l-57 25q36 105 103 174t147 69q76 0 170 -51t129 -51q50 0 82 17t71 116z" />
    <glyph glyph-name="Odieresis" unicode="&#xd6;" horiz-adv-x="1495" 
d="M651 -35q-248 0 -399.5 159.5t-151.5 416.5q0 372 249 641.5t577 269.5q246 0 398.5 -158.5t152.5 -421.5q0 -372 -251.5 -639.5t-574.5 -267.5zM907 1368q-254 0 -412.5 -270t-158.5 -604q0 -213 86.5 -329t247.5 -116q249 0 410 266.5t161 616.5q0 207 -87 321.5
t-247 114.5zM1181 1608q-49 0 -83.5 35.5t-34.5 87.5q0 51 34.5 86.5t83.5 35.5q50 0 83.5 -35.5t33.5 -86.5q0 -52 -33.5 -87.5t-83.5 -35.5zM731 1608q-49 0 -84 35.5t-35 87.5q0 51 35 86.5t84 35.5t84 -35.5t35 -86.5q0 -52 -35 -87.5t-84 -35.5z" />
    <glyph glyph-name="multiply" unicode="&#xd7;" horiz-adv-x="1317" 
d="M1044 111l-362 362l-360 -364l-89 90l365 360l-365 363l89 88l360 -363l362 363l89 -88l-365 -363l365 -360z" />
    <glyph glyph-name="Oslash" unicode="&#xd8;" horiz-adv-x="1524" 
d="M1370 1235q107 -153 107 -363q0 -372 -251.5 -639.5t-574.5 -267.5q-247 0 -405 168l-170 -166l-49 51l176 172q-103 147 -103 351q0 372 249 641.5t577 269.5q248 0 397 -162l139 137l56 -51zM1202 1171q-80 199 -295 199q-252 0 -412.5 -269.5t-160.5 -606.5
q0 -89 12 -162zM1229 1098l-858 -842q81 -207 299 -207q248 0 410.5 264t162.5 619q0 103 -14 166z" />
    <glyph glyph-name="Ugrave" unicode="&#xd9;" horiz-adv-x="1548" 
d="M1720 1354q-115 -10 -182 -49t-121 -273l-97 -430q-51 -227 -88 -310.5t-117 -159.5t-198 -121.5t-258 -45.5q-209 0 -327.5 89.5t-118.5 238.5q0 47 8 82l197 844q4 17 4 32q0 78 -133 99q-16 2 -27 4l17 65h589l-16 -65q-110 -9 -156.5 -32.5t-62.5 -92.5l-182 -791
q-15 -65 -15 -119q0 -245 285 -245q103 0 187.5 33t146.5 95t89 125t71 247.5t86 379t42 267.5q0 59 -42.5 88.5t-159.5 44.5l16 65h580zM1182 1546l-35 -39q-112 60 -199 103q-101 50 -157.5 81t-56.5 87q0 39 27.5 64.5t68.5 25.5q28 0 60.5 -24t291.5 -298z" />
    <glyph glyph-name="Uacute" unicode="&#xda;" horiz-adv-x="1548" 
d="M1720 1354q-115 -10 -182 -49t-121 -273l-97 -430q-51 -227 -88 -310.5t-117 -159.5t-198 -121.5t-258 -45.5q-209 0 -327.5 89.5t-118.5 238.5q0 47 8 82l197 844q4 17 4 32q0 78 -133 99q-16 2 -27 4l17 65h589l-16 -65q-110 -9 -156.5 -32.5t-62.5 -92.5l-182 -791
q-15 -65 -15 -119q0 -245 285 -245q103 0 187.5 33t146.5 95t89 125t71 247.5t86 379t42 267.5q0 59 -42.5 88.5t-159.5 44.5l16 65h580zM833 1507l-26 39q91 77 282 262q57 60 123 60q37 0 60.5 -20.5t23.5 -51.5q0 -78 -100 -122t-363 -167z" />
    <glyph glyph-name="Ucircumflex" unicode="&#xdb;" horiz-adv-x="1548" 
d="M1720 1354q-115 -10 -182 -49t-121 -273l-97 -430q-51 -227 -88 -310.5t-117 -159.5t-198 -121.5t-258 -45.5q-209 0 -327.5 89.5t-118.5 238.5q0 47 8 82l197 844q4 17 4 32q0 78 -133 99q-16 2 -27 4l17 65h589l-16 -65q-110 -9 -156.5 -32.5t-62.5 -92.5l-182 -791
q-15 -65 -15 -119q0 -245 285 -245q103 0 187.5 33t146.5 95t89 125t71 247.5t86 379t42 267.5q0 59 -42.5 88.5t-159.5 44.5l16 65h580zM1339 1538l-49 -31l-236 211l-319 -211l-47 31l291 285q46 45 100 45q57 0 80 -41z" />
    <glyph glyph-name="Udieresis" unicode="&#xdc;" horiz-adv-x="1548" 
d="M1720 1354q-115 -10 -182 -49t-121 -273l-97 -430q-51 -227 -88 -310.5t-117 -159.5t-198 -121.5t-258 -45.5q-209 0 -327.5 89.5t-118.5 238.5q0 47 8 82l197 844q4 17 4 32q0 78 -133 99q-16 2 -27 4l17 65h589l-16 -65q-110 -9 -156.5 -32.5t-62.5 -92.5l-182 -791
q-15 -65 -15 -119q0 -245 285 -245q103 0 187.5 33t146.5 95t89 125t71 247.5t86 379t42 267.5q0 59 -42.5 88.5t-159.5 44.5l16 65h580zM1269 1608q-49 0 -83.5 35.5t-34.5 87.5q0 51 34.5 86.5t83.5 35.5q50 0 83.5 -35.5t33.5 -86.5q0 -52 -33.5 -87.5t-83.5 -35.5z
M819 1608q-49 0 -84 35.5t-35 87.5q0 51 35 86.5t84 35.5t84 -35.5t35 -86.5q0 -52 -35 -87.5t-84 -35.5z" />
    <glyph glyph-name="Yacute" unicode="&#xdd;" horiz-adv-x="1260" 
d="M1501 1354q-49 -6 -105.5 -32.5t-123 -90t-264.5 -308.5t-234.5 -300t-56.5 -144l-64 -276q-4 -17 -4 -35q0 -65 74 -81.5t125 -20.5l-14 -66h-664l14 66q145 10 190.5 32t63.5 95l72 311q8 35 8 49q0 47 -49 208l-104 344q-55 182 -109 213.5t-113 35.5l17 65h581
l-16 -65q-129 -5 -163 -18.5t-34 -37.5q0 -42 183 -610q458 554 458 600q0 54 -172 66l17 65h504zM729 1507l-26 39q91 77 282 262q57 60 123 60q37 0 60.5 -20.5t23.5 -51.5q0 -78 -100 -122t-363 -167z" />
    <glyph glyph-name="Thorn" unicode="&#xde;" horiz-adv-x="1257" 
d="M451 324l-31 -136q-4 -18 -4 -36q0 -42 27.5 -60.5t152.5 -25.5l-16 -66h-607l17 66q136 8 171 39t46 83l237 1033q7 31 7 36q0 73 -166 97l14 65h598l-16 -65q-121 -9 -162.5 -34t-56.5 -89l-23 -98h240q165 0 267.5 -81.5t102.5 -220.5q0 -225 -180.5 -366t-431.5 -141
h-186zM621 1055l-150 -649h123q193 0 301.5 118t108.5 299q0 110 -65 171t-185 61h-133z" />
    <glyph glyph-name="germandbls" unicode="&#xdf;" horiz-adv-x="1110" 
d="M782 938l-2 -8q122 -31 192 -119.5t70 -214.5q0 -245 -170.5 -425.5t-384.5 -180.5q-74 0 -122 10l18 82q54 -12 92 -12q155 0 259 171.5t104 395.5q0 121 -58.5 187.5t-163.5 66.5h-18l18 82h37q115 0 209 92.5t94 251.5q0 158 -141 158q-238 0 -323 -414l-213 -1002
q-45 -210 -193.5 -356.5t-314.5 -146.5q-172 0 -172 118q0 45 27 77t75 32q72 0 128 -95q15 -26 30 -50q147 13 225 385l211 983q63 294 221.5 419t327.5 125q127 0 206.5 -61t79.5 -172q0 -152 -104 -255.5t-244 -123.5z" />
    <glyph glyph-name="agrave" unicode="&#xe0;" horiz-adv-x="1174" 
d="M1098 51q-159 -67 -242 -67q-71 0 -114.5 42t-45.5 105h-8q-177 -160 -307 -160q-145 0 -228 103.5t-83 285.5q0 252 173.5 451t399.5 199q137 0 238 -64l184 47l10 -14l-151 -645q-25 -107 -25 -141q0 -57 24.5 -77t80.5 -20q54 0 108 19zM840 764q9 40 -28 107t-153 67
q-146 0 -264.5 -177.5t-118.5 -402.5q0 -148 44 -211t137 -63q113 0 256 141zM856 1110l-181 149q-111 88 -139.5 120t-28.5 71q0 34 24 61t65 27q59 0 94 -59l205 -336z" />
    <glyph glyph-name="aacute" unicode="&#xe1;" horiz-adv-x="1174" 
d="M1098 51q-159 -67 -242 -67q-71 0 -114.5 42t-45.5 105h-8q-177 -160 -307 -160q-145 0 -228 103.5t-83 285.5q0 252 173.5 451t399.5 199q137 0 238 -64l184 47l10 -14l-151 -645q-25 -107 -25 -141q0 -57 24.5 -77t80.5 -20q54 0 108 19zM840 764q9 40 -28 107t-153 67
q-146 0 -264.5 -177.5t-118.5 -402.5q0 -148 44 -211t137 -63q113 0 256 141zM524 1110l-35 33q130 172 219 307q57 88 137 88q35 0 56.5 -22t21.5 -50q0 -54 -39.5 -88.5t-244.5 -182.5q-50 -36 -115 -85z" />
    <glyph glyph-name="acircumflex" unicode="&#xe2;" horiz-adv-x="1174" 
d="M1098 51q-159 -67 -242 -67q-71 0 -114.5 42t-45.5 105h-8q-177 -160 -307 -160q-145 0 -228 103.5t-83 285.5q0 252 173.5 451t399.5 199q137 0 238 -64l184 47l10 -14l-151 -645q-25 -107 -25 -141q0 -57 24.5 -77t80.5 -20q54 0 108 19zM840 764q9 40 -28 107t-153 67
q-146 0 -264.5 -177.5t-118.5 -402.5q0 -148 44 -211t137 -63q113 0 256 141zM953 1118l-226 273l-329 -273l-48 33l304 346q25 29 41 37t57 8q53 0 78 -41l172 -350z" />
    <glyph glyph-name="atilde" unicode="&#xe3;" horiz-adv-x="1174" 
d="M1098 51q-159 -67 -242 -67q-71 0 -114.5 42t-45.5 105h-8q-177 -160 -307 -160q-145 0 -228 103.5t-83 285.5q0 252 173.5 451t399.5 199q137 0 238 -64l184 47l10 -14l-151 -645q-25 -107 -25 -141q0 -57 24.5 -77t80.5 -20q54 0 108 19zM840 764q9 40 -28 107t-153 67
q-146 0 -264.5 -177.5t-118.5 -402.5q0 -148 44 -211t137 -63q113 0 256 141zM1090 1473q-28 -101 -98.5 -172.5t-155.5 -71.5q-82 0 -174 51q-93 51 -138 51q-41 0 -66.5 -21.5t-74.5 -113.5l-57 25q36 105 103 174t147 69q76 0 170 -51t129 -51q50 0 82 17t71 116z" />
    <glyph glyph-name="adieresis" unicode="&#xe4;" horiz-adv-x="1174" 
d="M1098 51q-159 -67 -242 -67q-71 0 -114.5 42t-45.5 105h-8q-177 -160 -307 -160q-145 0 -228 103.5t-83 285.5q0 252 173.5 451t399.5 199q137 0 238 -64l184 47l10 -14l-151 -645q-25 -107 -25 -141q0 -57 24.5 -77t80.5 -20q54 0 108 19zM840 764q9 40 -28 107t-153 67
q-146 0 -264.5 -177.5t-118.5 -402.5q0 -148 44 -211t137 -63q113 0 256 141zM928 1241q-51 0 -85 36t-34 87q0 50 33.5 86.5t85.5 36.5q49 0 82.5 -36.5t33.5 -86.5q0 -51 -33.5 -87t-82.5 -36zM498 1241q-51 0 -85 36t-34 87q0 50 33.5 86.5t85.5 36.5q49 0 82.5 -36.5
t33.5 -86.5q0 -51 -33.5 -87t-82.5 -36z" />
    <glyph glyph-name="aring" unicode="&#xe5;" horiz-adv-x="1174" 
d="M1098 51q-159 -67 -242 -67q-71 0 -114.5 42t-45.5 105h-8q-177 -160 -307 -160q-145 0 -228 103.5t-83 285.5q0 252 173.5 451t399.5 199q137 0 238 -64l184 47l10 -14l-151 -645q-25 -107 -25 -141q0 -57 24.5 -77t80.5 -20q54 0 108 19zM840 764q9 40 -28 107t-153 67
q-146 0 -264.5 -177.5t-118.5 -402.5q0 -148 44 -211t137 -63q113 0 256 141zM674 1114q-105 0 -164 49.5t-59 132.5q0 112 86 187.5t213 75.5q101 0 162 -52t61 -135q0 -107 -84 -182.5t-215 -75.5zM739 1499q-71 0 -117.5 -59t-46.5 -142q0 -124 109 -124q74 0 118 58.5
t44 139.5q0 127 -107 127z" />
    <glyph glyph-name="ae" unicode="&#xe6;" horiz-adv-x="1565" 
d="M866 428q0 -172 54 -258t178 -86q179 0 325 199l58 -43q-81 -123 -202 -196t-247 -73q-244 0 -327 197h-7q-178 -195 -415 -195q-108 0 -173 55t-65 148q0 167 145.5 264.5t520.5 151.5q37 148 37 186q0 69 -41 114.5t-119 45.5q-87 0 -174 -51v-30q0 -73 -6.5 -104
t-43 -60t-96.5 -29q-78 0 -78 84q0 99 137 180.5t279 81.5q243 0 301 -125q157 125 334 125q137 0 211 -55.5t74 -153.5q0 -320 -660 -373zM872 500q469 20 469 325q0 113 -118 113q-115 0 -219.5 -127.5t-131.5 -310.5zM686 510q-207 -20 -321.5 -98t-114.5 -203
q0 -123 129 -123q179 0 303 158q-8 45 -8 108q0 74 12 158z" />
    <glyph glyph-name="ccedilla" unicode="&#xe7;" horiz-adv-x="930" 
d="M733 887q-20 51 -129 51q-132 0 -232 -155.5t-100 -391.5q0 -142 63.5 -224.5t172.5 -82.5q170 0 315 199l58 -43q-80 -124 -199.5 -196.5t-237.5 -72.5q-178 0 -277 105t-99 289q0 262 155.5 453.5t399.5 191.5q136 0 213 -58t77 -155q0 -75 -34 -124.5t-95 -49.5
q-53 0 -80.5 27t-27.5 61q0 33 57 176zM233 -444l15 71q174 0 222 26t48 73q0 67 -153 67l45 223h77l-24 -114q93 0 150 -33.5t57 -93.5q0 -219 -437 -219z" />
    <glyph glyph-name="egrave" unicode="&#xe8;" horiz-adv-x="967" 
d="M268 408q0 -324 230 -324q178 0 327 199l58 -43q-82 -125 -203.5 -197t-247.5 -72q-175 0 -268.5 99t-93.5 282q0 264 164 461t409 197q135 0 209 -55t74 -154q0 -172 -170 -263t-488 -130zM274 477q276 34 371.5 122t95.5 226q0 113 -116 113q-119 0 -221 -129
t-130 -332zM783 1110l-181 149q-111 88 -139.5 120t-28.5 71q0 34 24 61t65 27q59 0 94 -59l205 -336z" />
    <glyph glyph-name="eacute" unicode="&#xe9;" horiz-adv-x="967" 
d="M268 408q0 -324 230 -324q178 0 327 199l58 -43q-82 -125 -203.5 -197t-247.5 -72q-175 0 -268.5 99t-93.5 282q0 264 164 461t409 197q135 0 209 -55t74 -154q0 -172 -170 -263t-488 -130zM274 477q276 34 371.5 122t95.5 226q0 113 -116 113q-119 0 -221 -129
t-130 -332zM504 1110l-35 33q130 172 219 307q57 88 137 88q35 0 56.5 -22t21.5 -50q0 -54 -39.5 -88.5t-244.5 -182.5q-50 -36 -115 -85z" />
    <glyph glyph-name="ecircumflex" unicode="&#xea;" horiz-adv-x="967" 
d="M268 408q0 -324 230 -324q178 0 327 199l58 -43q-82 -125 -203.5 -197t-247.5 -72q-175 0 -268.5 99t-93.5 282q0 264 164 461t409 197q135 0 209 -55t74 -154q0 -172 -170 -263t-488 -130zM274 477q276 34 371.5 122t95.5 226q0 113 -116 113q-119 0 -221 -129
t-130 -332zM916 1118l-226 273l-329 -273l-48 33l304 346q25 29 41 37t57 8q53 0 78 -41l172 -350z" />
    <glyph glyph-name="edieresis" unicode="&#xeb;" horiz-adv-x="967" 
d="M268 408q0 -324 230 -324q178 0 327 199l58 -43q-82 -125 -203.5 -197t-247.5 -72q-175 0 -268.5 99t-93.5 282q0 264 164 461t409 197q135 0 209 -55t74 -154q0 -172 -170 -263t-488 -130zM274 477q276 34 371.5 122t95.5 226q0 113 -116 113q-119 0 -221 -129
t-130 -332zM881 1241q-51 0 -85 36t-34 87q0 50 33.5 86.5t85.5 36.5q49 0 82.5 -36.5t33.5 -86.5q0 -51 -33.5 -87t-82.5 -36zM451 1241q-51 0 -85 36t-34 87q0 50 33.5 86.5t85.5 36.5q49 0 82.5 -36.5t33.5 -86.5q0 -51 -33.5 -87t-82.5 -36z" />
    <glyph glyph-name="igrave" unicode="&#xec;" horiz-adv-x="608" 
d="M537 45q-160 -65 -242 -65q-76 0 -118 38.5t-42 104.5q0 42 17 110l106 426q23 92 23 144q0 59 -20.5 75.5t-74.5 16.5q-32 0 -112 -18l14 63q155 70 238 70q155 0 155 -146q0 -50 -14 -110l-109 -424q-24 -93 -24 -140q0 -98 108 -98q57 0 109 17zM553 1110l-181 149
q-111 88 -139.5 120t-28.5 71q0 34 24 61t65 27q59 0 94 -59l205 -336z" />
    <glyph glyph-name="iacute" unicode="&#xed;" horiz-adv-x="608" 
d="M537 45q-160 -65 -242 -65q-76 0 -118 38.5t-42 104.5q0 42 17 110l106 426q23 92 23 144q0 59 -20.5 75.5t-74.5 16.5q-32 0 -112 -18l14 63q155 70 238 70q155 0 155 -146q0 -50 -14 -110l-109 -424q-24 -93 -24 -140q0 -98 108 -98q57 0 109 17zM266 1110l-35 33
q130 172 219 307q57 88 137 88q35 0 56.5 -22t21.5 -50q0 -54 -39.5 -88.5t-244.5 -182.5q-50 -36 -115 -85z" />
    <glyph glyph-name="icircumflex" unicode="&#xee;" horiz-adv-x="608" 
d="M588 1120l-193 271l-293 -271l-45 31l265 342q38 49 98 49q57 0 76 -45l143 -346zM537 45q-160 -65 -242 -65q-76 0 -118 38.5t-42 104.5q0 42 17 110l106 426q23 92 23 144q0 59 -20.5 75.5t-74.5 16.5q-32 0 -112 -18l14 63q155 70 238 70q155 0 155 -146
q0 -50 -14 -110l-109 -424q-24 -93 -24 -140q0 -98 108 -98q57 0 109 17z" />
    <glyph glyph-name="idieresis" unicode="&#xef;" horiz-adv-x="608" 
d="M590 1241q-49 0 -82 35.5t-33 87.5q0 51 32.5 87t82.5 36q49 0 82 -36.5t33 -86.5t-33.5 -86.5t-81.5 -36.5zM240 1241q-49 0 -82 35.5t-33 87.5q0 51 32.5 87t82.5 36q48 0 81 -36t33 -87q0 -52 -33 -87.5t-81 -35.5zM537 45q-160 -65 -242 -65q-76 0 -118 38.5
t-42 104.5q0 42 17 110l106 426q23 92 23 144q0 59 -20.5 75.5t-74.5 16.5q-32 0 -112 -18l14 63q155 70 238 70q155 0 155 -146q0 -50 -14 -110l-109 -424q-24 -93 -24 -140q0 -98 108 -98q57 0 109 17z" />
    <glyph glyph-name="eth" unicode="&#xf0;" horiz-adv-x="1118" 
d="M903 1343q170 -235 170 -512q0 -359 -171 -610.5t-449 -251.5q-165 0 -275 109.5t-110 292.5q0 257 163.5 433.5t395.5 176.5q84 0 153.5 -41t96.5 -96l8 2l2 26q14 185 -101 410l-262 -139l-41 74l262 137q-48 83 -133 145l60 57q98 -57 180 -147l225 119l43 -76z
M633 907q-173 0 -267 -178t-94 -412q0 -276 203 -276q154 0 260.5 190.5t106.5 415.5q0 120 -55.5 190t-153.5 70z" />
    <glyph glyph-name="ntilde" unicode="&#xf1;" horiz-adv-x="1208" 
d="M1135 51q-171 -67 -242 -67q-160 0 -160 143q0 53 17 111l98 372q24 91 24 135q0 146 -127 146q-139 0 -280 -158l-168 -733h-186l147 647q25 110 25 144q0 56 -20 75t-75 19q-42 0 -108 -21l14 66q150 67 242 67q142 0 147 -161h6q145 114 217 144t156 30
q96 0 150.5 -55t54.5 -146q0 -72 -25 -156l-84 -321q-24 -92 -24 -137q0 -57 24.5 -78t81.5 -21q49 0 109 21zM1098 1473q-28 -101 -98.5 -172.5t-155.5 -71.5q-82 0 -174 51q-93 51 -138 51q-41 0 -66.5 -21.5t-74.5 -113.5l-57 25q36 105 103 174t147 69q76 0 170 -51
t129 -51q50 0 82 17t71 116z" />
    <glyph glyph-name="ograve" unicode="&#xf2;" horiz-adv-x="1100" 
d="M440 -31q-165 0 -268.5 107.5t-103.5 288.5q0 268 167 456.5t418 188.5q176 0 277.5 -107.5t101.5 -286.5q0 -262 -166 -454.5t-426 -192.5zM633 938q-169 0 -266 -182.5t-97 -423.5q0 -291 199 -291q161 0 260.5 179.5t99.5 432.5q0 285 -196 285zM828 1110l-181 149
q-111 88 -139.5 120t-28.5 71q0 34 24 61t65 27q59 0 94 -59l205 -336z" />
    <glyph glyph-name="oacute" unicode="&#xf3;" horiz-adv-x="1100" 
d="M440 -31q-165 0 -268.5 107.5t-103.5 288.5q0 268 167 456.5t418 188.5q176 0 277.5 -107.5t101.5 -286.5q0 -262 -166 -454.5t-426 -192.5zM633 938q-169 0 -266 -182.5t-97 -423.5q0 -291 199 -291q161 0 260.5 179.5t99.5 432.5q0 285 -196 285zM506 1110l-35 33
q130 172 219 307q57 88 137 88q35 0 56.5 -22t21.5 -50q0 -54 -39.5 -88.5t-244.5 -182.5q-50 -36 -115 -85z" />
    <glyph glyph-name="ocircumflex" unicode="&#xf4;" horiz-adv-x="1100" 
d="M440 -31q-165 0 -268.5 107.5t-103.5 288.5q0 268 167 456.5t418 188.5q176 0 277.5 -107.5t101.5 -286.5q0 -262 -166 -454.5t-426 -192.5zM633 938q-169 0 -266 -182.5t-97 -423.5q0 -291 199 -291q161 0 260.5 179.5t99.5 432.5q0 285 -196 285zM940 1118l-226 273
l-329 -273l-48 33l304 346q25 29 41 37t57 8q53 0 78 -41l172 -350z" />
    <glyph glyph-name="otilde" unicode="&#xf5;" horiz-adv-x="1100" 
d="M440 -31q-165 0 -268.5 107.5t-103.5 288.5q0 268 167 456.5t418 188.5q176 0 277.5 -107.5t101.5 -286.5q0 -262 -166 -454.5t-426 -192.5zM633 938q-169 0 -266 -182.5t-97 -423.5q0 -291 199 -291q161 0 260.5 179.5t99.5 432.5q0 285 -196 285zM1067 1473
q-28 -101 -98.5 -172.5t-155.5 -71.5q-82 0 -174 51q-93 51 -138 51q-41 0 -66.5 -21.5t-74.5 -113.5l-57 25q36 105 103 174t147 69q76 0 170 -51t129 -51q50 0 82 17t71 116z" />
    <glyph glyph-name="odieresis" unicode="&#xf6;" horiz-adv-x="1100" 
d="M440 -31q-165 0 -268.5 107.5t-103.5 288.5q0 268 167 456.5t418 188.5q176 0 277.5 -107.5t101.5 -286.5q0 -262 -166 -454.5t-426 -192.5zM633 938q-169 0 -266 -182.5t-97 -423.5q0 -291 199 -291q161 0 260.5 179.5t99.5 432.5q0 285 -196 285zM918 1241
q-51 0 -85 36t-34 87q0 50 33.5 86.5t85.5 36.5q49 0 82.5 -36.5t33.5 -86.5q0 -51 -33.5 -87t-82.5 -36zM488 1241q-51 0 -85 36t-34 87q0 50 33.5 86.5t85.5 36.5q49 0 82.5 -36.5t33.5 -86.5q0 -51 -33.5 -87t-82.5 -36z" />
    <glyph glyph-name="divide" unicode="&#xf7;" horiz-adv-x="1317" 
d="M684 838q-54 0 -91.5 37.5t-37.5 91.5q0 52 37.5 89.5t91.5 37.5t91.5 -37.5t37.5 -89.5q0 -54 -37.5 -91.5t-91.5 -37.5zM170 498v125h1028v-125h-1028zM684 27q-55 0 -92 37.5t-37 89.5q0 53 38.5 91t90.5 38t90.5 -38t38.5 -91q0 -52 -37 -89.5t-92 -37.5z" />
    <glyph glyph-name="oslash" unicode="&#xf8;" horiz-adv-x="1100" 
d="M977 838q55 -94 55 -222q0 -262 -166 -454.5t-426 -192.5q-172 0 -280 123l-137 -127l-48 45l148 135q-55 88 -55 220q0 268 167 456.5t418 188.5q181 0 285 -119l131 119l45 -45zM819 782q-41 156 -186 156q-86 0 -161 -54t-129 -173.5t-64.5 -213.5t-10.5 -223z
M831 709l-550 -506q36 -162 188 -162q70 0 134 38t118 122.5t80 192t28.5 183t1.5 132.5z" />
    <glyph glyph-name="ugrave" unicode="&#xf9;" horiz-adv-x="1178" 
d="M1108 51q-161 -67 -242 -67q-73 0 -116 42t-43 113h-7q-188 -164 -358 -164q-97 0 -150 55t-53 146q0 62 23 156l78 315q22 89 22 144q0 59 -20 76.5t-72 17.5q-38 0 -111 -23l17 66q152 69 231 69q156 0 156 -143q0 -53 -17 -111l-88 -370q-22 -92 -22 -133
q0 -146 121 -146q134 0 266 135l174 752l174 12l12 -14l-147 -643q-27 -118 -27 -141q0 -57 25 -78t82 -21q52 0 106 19zM813 1110l-181 149q-111 88 -139.5 120t-28.5 71q0 34 24 61t65 27q59 0 94 -59l205 -336z" />
    <glyph glyph-name="uacute" unicode="&#xfa;" horiz-adv-x="1178" 
d="M1108 51q-161 -67 -242 -67q-73 0 -116 42t-43 113h-7q-188 -164 -358 -164q-97 0 -150 55t-53 146q0 62 23 156l78 315q22 89 22 144q0 59 -20 76.5t-72 17.5q-38 0 -111 -23l17 66q152 69 231 69q156 0 156 -143q0 -53 -17 -111l-88 -370q-22 -92 -22 -133
q0 -146 121 -146q134 0 266 135l174 752l174 12l12 -14l-147 -643q-27 -118 -27 -141q0 -57 25 -78t82 -21q52 0 106 19zM563 1110l-35 33q130 172 219 307q57 88 137 88q35 0 56.5 -22t21.5 -50q0 -54 -39.5 -88.5t-244.5 -182.5q-50 -36 -115 -85z" />
    <glyph glyph-name="ucircumflex" unicode="&#xfb;" horiz-adv-x="1178" 
d="M1108 51q-161 -67 -242 -67q-73 0 -116 42t-43 113h-7q-188 -164 -358 -164q-97 0 -150 55t-53 146q0 62 23 156l78 315q22 89 22 144q0 59 -20 76.5t-72 17.5q-38 0 -111 -23l17 66q152 69 231 69q156 0 156 -143q0 -53 -17 -111l-88 -370q-22 -92 -22 -133
q0 -146 121 -146q134 0 266 135l174 752l174 12l12 -14l-147 -643q-27 -118 -27 -141q0 -57 25 -78t82 -21q52 0 106 19zM949 1118l-226 273l-329 -273l-48 33l304 346q25 29 41 37t57 8q53 0 78 -41l172 -350z" />
    <glyph glyph-name="udieresis" unicode="&#xfc;" horiz-adv-x="1178" 
d="M1108 51q-161 -67 -242 -67q-73 0 -116 42t-43 113h-7q-188 -164 -358 -164q-97 0 -150 55t-53 146q0 62 23 156l78 315q22 89 22 144q0 59 -20 76.5t-72 17.5q-38 0 -111 -23l17 66q152 69 231 69q156 0 156 -143q0 -53 -17 -111l-88 -370q-22 -92 -22 -133
q0 -146 121 -146q134 0 266 135l174 752l174 12l12 -14l-147 -643q-27 -118 -27 -141q0 -57 25 -78t82 -21q52 0 106 19zM914 1241q-51 0 -85 36t-34 87q0 50 33.5 86.5t85.5 36.5q49 0 82.5 -36.5t33.5 -86.5q0 -51 -33.5 -87t-82.5 -36zM484 1241q-51 0 -85 36t-34 87
q0 50 33.5 86.5t85.5 36.5q49 0 82.5 -36.5t33.5 -86.5q0 -51 -33.5 -87t-82.5 -36z" />
    <glyph glyph-name="yacute" unicode="&#xfd;" horiz-adv-x="1147" 
d="M913 197q-72 -327 -226.5 -484t-405.5 -157q-263 0 -263 141q0 45 27 76.5t74 31.5q91 0 162 -182h24q141 0 251 132.5t161 389.5h-6q-191 -165 -365 -165q-94 0 -150.5 54t-56.5 146q0 62 23 156l78 311q22 88 22 144q0 59 -20 76.5t-72 17.5q-38 0 -111 -23l17 66
q152 69 231 69q158 0 158 -143q0 -51 -16 -111l-91 -364q-24 -96 -24 -135q0 -146 129 -146q140 0 272 135l166 748l172 12l12 -14zM547 1110l-35 33q130 172 219 307q57 88 137 88q35 0 56.5 -22t21.5 -50q0 -54 -39.5 -88.5t-244.5 -182.5q-50 -36 -115 -85z" />
    <glyph glyph-name="thorn" unicode="&#xfe;" horiz-adv-x="1133" 
d="M254 47l-57 -262q-15 -69 -15 -82q0 -72 176 -84l-14 -63h-551l14 63q119 5 149 33.5t42 75.5l352 1558q12 53 12 74q0 46 -23 70.5t-140 33.5l14 62l371 22l10 -14l-154 -666h6q149 142 295 142q151 0 236.5 -104t85.5 -279q0 -267 -171.5 -460.5t-397.5 -193.5
q-139 0 -240 74zM420 768l-129 -569q11 -63 64 -109.5t128 -46.5q156 0 264.5 169.5t108.5 410.5q0 276 -201 276q-98 0 -235 -131z" />
    <glyph glyph-name="ydieresis" unicode="&#xff;" horiz-adv-x="1147" 
d="M913 197q-72 -327 -226.5 -484t-405.5 -157q-263 0 -263 141q0 45 27 76.5t74 31.5q91 0 162 -182h24q141 0 251 132.5t161 389.5h-6q-191 -165 -365 -165q-94 0 -150.5 54t-56.5 146q0 62 23 156l78 311q22 88 22 144q0 59 -20 76.5t-72 17.5q-38 0 -111 -23l17 66
q152 69 231 69q158 0 158 -143q0 -51 -16 -111l-91 -364q-24 -96 -24 -135q0 -146 129 -146q140 0 272 135l166 748l172 12l12 -14zM920 1241q-51 0 -85 36t-34 87q0 50 33.5 86.5t85.5 36.5q49 0 82.5 -36.5t33.5 -86.5q0 -51 -33.5 -87t-82.5 -36zM490 1241q-51 0 -85 36
t-34 87q0 50 33.5 86.5t85.5 36.5q49 0 82.5 -36.5t33.5 -86.5q0 -51 -33.5 -87t-82.5 -36z" />
    <glyph glyph-name="Amacron" unicode="&#x100;" horiz-adv-x="1374" 
d="M1303 0h-580l14 66q199 19 199 75l-45 353h-500q-178 -294 -178 -351q0 -64 186 -77l-14 -66h-545l15 66q79 6 137 35.5t100.5 86.5t309.5 490l470 762h80l189 -1229q21 -133 176 -145zM786 1130l-340 -555h428zM1249 1661h-686l29 123h686z" />
    <glyph glyph-name="amacron" unicode="&#x101;" horiz-adv-x="1174" 
d="M1098 51q-159 -67 -242 -67q-71 0 -114.5 42t-45.5 105h-8q-177 -160 -307 -160q-145 0 -228 103.5t-83 285.5q0 252 173.5 451t399.5 199q137 0 238 -64l184 47l10 -14l-151 -645q-25 -107 -25 -141q0 -57 24.5 -77t80.5 -20q54 0 108 19zM840 764q9 40 -28 107t-153 67
q-146 0 -264.5 -177.5t-118.5 -402.5q0 -148 44 -211t137 -63q113 0 256 141zM1040 1296h-686l29 123h686z" />
    <glyph glyph-name="Abreve" unicode="&#x102;" horiz-adv-x="1374" 
d="M1303 0h-580l14 66q199 19 199 75l-45 353h-500q-178 -294 -178 -351q0 -64 186 -77l-14 -66h-545l15 66q79 6 137 35.5t100.5 86.5t309.5 490l470 762h80l189 -1229q21 -133 176 -145zM786 1130l-340 -555h428zM1290 1851q-117 -321 -379 -321q-258 0 -258 297v24l55 17
q17 -103 68 -148t162 -45q121 0 185.5 52.5t111.5 140.5z" />
    <glyph glyph-name="abreve" unicode="&#x103;" horiz-adv-x="1174" 
d="M1098 51q-159 -67 -242 -67q-71 0 -114.5 42t-45.5 105h-8q-177 -160 -307 -160q-145 0 -228 103.5t-83 285.5q0 252 173.5 451t399.5 199q137 0 238 -64l184 47l10 -14l-151 -645q-25 -107 -25 -141q0 -57 24.5 -77t80.5 -20q54 0 108 19zM840 764q9 40 -28 107t-153 67
q-146 0 -264.5 -177.5t-118.5 -402.5q0 -148 44 -211t137 -63q113 0 256 141zM1024 1495q-120 -369 -377 -369q-114 0 -181 75t-67 294l52 12q15 -129 67.5 -179t151.5 -50q96 0 163.5 47t133.5 182z" />
    <glyph glyph-name="Aogonek" unicode="&#x104;" horiz-adv-x="1374" 
d="M1303 0h-580l14 66q199 19 199 75l-45 353h-500q-178 -294 -178 -351q0 -64 186 -77l-14 -66h-545l15 66q79 6 137 35.5t100.5 86.5t309.5 490l470 762h80l189 -1229q21 -133 176 -145zM786 1130l-340 -555h428zM1190 -444h-114q-238 0 -238 157q0 177 291 326h61
q-190 -132 -190 -295q0 -117 203 -117z" />
    <glyph glyph-name="aogonek" unicode="&#x105;" horiz-adv-x="1174" 
d="M1098 51q-159 -67 -242 -67q-71 0 -114.5 42t-45.5 105h-8q-177 -160 -307 -160q-145 0 -228 103.5t-83 285.5q0 252 173.5 451t399.5 199q137 0 238 -64l184 47l10 -14l-151 -645q-25 -107 -25 -141q0 -57 24.5 -77t80.5 -20q54 0 108 19zM840 764q9 40 -28 107t-153 67
q-146 0 -264.5 -177.5t-118.5 -402.5q0 -148 44 -211t137 -63q113 0 256 141zM915 -444h-114q-238 0 -238 157q0 177 291 326h61q-190 -132 -190 -295q0 -117 203 -117z" />
    <glyph glyph-name="Cacute" unicode="&#x106;" horiz-adv-x="1315" 
d="M1319 913h-82v39q0 418 -322 418q-239 0 -408 -239t-169 -576q0 -219 106 -349t279 -130q291 0 471 319l72 -37q-224 -391 -635 -391q-230 0 -380.5 156t-150.5 409q0 371 241 645.5t574 274.5q230 0 375 -100l58 67h79zM739 1507l-26 39q91 77 282 262q57 60 123 60
q37 0 60.5 -20.5t23.5 -51.5q0 -78 -100 -122t-363 -167z" />
    <glyph glyph-name="cacute" unicode="&#x107;" horiz-adv-x="930" 
d="M733 887q-20 51 -129 51q-132 0 -232 -155.5t-100 -391.5q0 -142 63.5 -224.5t172.5 -82.5q170 0 315 199l58 -43q-80 -124 -199.5 -196.5t-237.5 -72.5q-178 0 -277 105t-99 289q0 262 155.5 453.5t399.5 191.5q136 0 213 -58t77 -155q0 -75 -34 -124.5t-95 -49.5
q-53 0 -80.5 27t-27.5 61q0 33 57 176zM479 1110l-35 33q130 172 219 307q57 88 137 88q35 0 56.5 -22t21.5 -50q0 -54 -39.5 -88.5t-244.5 -182.5q-50 -36 -115 -85z" />
    <glyph glyph-name="Ccircumflex" unicode="&#x108;" horiz-adv-x="1315" 
d="M1319 913h-82v39q0 418 -322 418q-239 0 -408 -239t-169 -576q0 -219 106 -349t279 -130q291 0 471 319l72 -37q-224 -391 -635 -391q-230 0 -380.5 156t-150.5 409q0 371 241 645.5t574 274.5q230 0 375 -100l58 67h79zM1235 1538l-49 -31l-236 211l-319 -211l-47 31
l291 285q46 45 100 45q57 0 80 -41z" />
    <glyph glyph-name="ccircumflex" unicode="&#x109;" horiz-adv-x="930" 
d="M733 887q-20 51 -129 51q-132 0 -232 -155.5t-100 -391.5q0 -142 63.5 -224.5t172.5 -82.5q170 0 315 199l58 -43q-80 -124 -199.5 -196.5t-237.5 -72.5q-178 0 -277 105t-99 289q0 262 155.5 453.5t399.5 191.5q136 0 213 -58t77 -155q0 -75 -34 -124.5t-95 -49.5
q-53 0 -80.5 27t-27.5 61q0 33 57 176zM867 1118l-226 273l-329 -273l-48 33l304 346q25 29 41 37t57 8q53 0 78 -41l172 -350z" />
    <glyph glyph-name="Cdotaccent" unicode="&#x10a;" horiz-adv-x="1315" 
d="M1319 913h-82v39q0 418 -322 418q-239 0 -408 -239t-169 -576q0 -219 106 -349t279 -130q291 0 471 319l72 -37q-224 -391 -635 -391q-230 0 -380.5 156t-150.5 409q0 371 241 645.5t574 274.5q230 0 375 -100l58 67h79zM918 1597q-52 0 -89.5 39t-37.5 92q0 55 37 95
t90 40q54 0 91.5 -37t37.5 -90q0 -56 -37 -97.5t-92 -41.5z" />
    <glyph glyph-name="cdotaccent" unicode="&#x10b;" horiz-adv-x="930" 
d="M733 887q-20 51 -129 51q-132 0 -232 -155.5t-100 -391.5q0 -142 63.5 -224.5t172.5 -82.5q170 0 315 199l58 -43q-80 -124 -199.5 -196.5t-237.5 -72.5q-178 0 -277 105t-99 289q0 262 155.5 453.5t399.5 191.5q136 0 213 -58t77 -155q0 -75 -34 -124.5t-95 -49.5
q-53 0 -80.5 27t-27.5 61q0 33 57 176zM654 1247q-52 0 -89.5 39t-37.5 92q0 55 37 95t90 40q54 0 91.5 -37t37.5 -90q0 -56 -37 -97.5t-92 -41.5z" />
    <glyph glyph-name="Ccaron" unicode="&#x10c;" horiz-adv-x="1315" 
d="M1319 913h-82v39q0 418 -322 418q-239 0 -408 -239t-169 -576q0 -219 106 -349t279 -130q291 0 471 319l72 -37q-224 -391 -635 -391q-230 0 -380.5 156t-150.5 409q0 371 241 645.5t574 274.5q230 0 375 -100l58 67h79zM1307 1837l-289 -285q-35 -35 -51.5 -40t-48.5 -5
q-51 0 -80 41l-180 289l49 33l233 -213l322 213z" />
    <glyph glyph-name="ccaron" unicode="&#x10d;" horiz-adv-x="930" 
d="M733 887q-20 51 -129 51q-132 0 -232 -155.5t-100 -391.5q0 -142 63.5 -224.5t172.5 -82.5q170 0 315 199l58 -43q-80 -124 -199.5 -196.5t-237.5 -72.5q-178 0 -277 105t-99 289q0 262 155.5 453.5t399.5 191.5q136 0 213 -58t77 -155q0 -75 -34 -124.5t-95 -49.5
q-53 0 -80.5 27t-27.5 61q0 33 57 176zM710 1163q-25 -28 -40.5 -36.5t-55.5 -8.5q-62 0 -78 41l-172 350l49 33l223 -272l330 272l47 -33z" />
    <glyph glyph-name="Dcaron" unicode="&#x10e;" horiz-adv-x="1534" 
d="M-29 0l15 66q87 0 145 20t76 98l235 1020q9 39 9 51q0 48 -42.5 69t-117.5 30l14 65h602q254 0 431.5 -141.5t177.5 -405.5q0 -384 -270.5 -628t-655.5 -244h-619zM686 1339l-254 -1101q-6 -26 -6 -52q0 -62 53.5 -85t161.5 -23q283 0 461 232.5t178 559.5
q0 218 -117.5 345.5t-320.5 127.5q-87 0 -156 -4zM1257 1837l-289 -285q-35 -35 -51.5 -40t-48.5 -5q-51 0 -80 41l-180 289l49 33l233 -213l322 213z" />
    <glyph glyph-name="dcaron" unicode="&#x10f;" horiz-adv-x="1407" 
d="M930 334q-25 -109 -25 -139q0 -57 24.5 -78t80.5 -21q54 0 108 19l-14 -64q-141 -67 -242 -67q-157 0 -157 153h-7q-176 -166 -317 -166q-145 0 -228 103.5t-83 285.5q0 257 168.5 453.5t398.5 196.5q140 0 250 -64l78 340q10 44 10 76q0 84 -117 94q-36 3 -80 8l15 62
l403 22l10 -14zM846 774q7 31 -41.5 97.5t-153.5 66.5q-150 0 -262.5 -173.5t-112.5 -406.5q0 -148 44 -211t137 -63q117 0 264 147zM1254 999l-31 64q218 107 252 243h-43q-119 0 -119 101q0 52 38.5 93.5t98.5 41.5q133 0 133 -139q0 -241 -329 -404z" />
    <glyph glyph-name="Dcroat" unicode="&#x110;" horiz-adv-x="1534" 
d="M-29 0l15 66q87 0 145 20t76 98l121 518h-187l23 95h184l94 407q9 39 9 51q0 48 -42.5 69t-117.5 30l14 65h602q254 0 431.5 -141.5t177.5 -405.5q0 -384 -270.5 -628t-655.5 -244h-619zM686 1339l-125 -542h303l-20 -95h-303l-109 -464q-6 -26 -6 -52q0 -62 53.5 -85
t161.5 -23q283 0 461 232.5t178 559.5q0 218 -117.5 345.5t-320.5 127.5q-87 0 -156 -4z" />
    <glyph glyph-name="dcroat" unicode="&#x111;" horiz-adv-x="1178" 
d="M1366 1253l-20 -82h-224l-192 -837q-25 -109 -25 -139q0 -57 24.5 -78t80.5 -21q54 0 108 19l-14 -64q-141 -67 -242 -67q-157 0 -157 153h-7q-176 -166 -317 -166q-145 0 -228 103.5t-83 285.5q0 257 168.5 453.5t398.5 196.5q140 0 250 -64l51 225h-356l18 82h356
q19 77 19 109q0 84 -117 94q-36 3 -80 8l15 62l403 22l10 -14l-63 -281h223zM846 774q7 31 -41.5 97.5t-153.5 66.5q-150 0 -262.5 -173.5t-112.5 -406.5q0 -148 44 -211t137 -63q117 0 264 147z" />
    <glyph glyph-name="Emacron" unicode="&#x112;" horiz-adv-x="1337" 
d="M1309 1077h-74q-7 105 -40.5 169t-76 82t-203.5 18h-227l-131 -572h160q113 0 172.5 48t114.5 186h73l-127 -555h-73q0 108 -5.5 149.5t-41 67.5t-132.5 26h-159l-101 -432q-12 -51 -12 -96q0 -54 38.5 -72t174.5 -18q153 0 215.5 10.5t100.5 35.5t116.5 123.5
t120.5 170.5h72l-123 -418h-1178l14 66q135 10 175.5 32.5t56.5 89.5l237 1031q5 22 5 36q0 84 -177 99l17 65h1098zM1228 1661h-686l29 123h686z" />
    <glyph glyph-name="emacron" unicode="&#x113;" horiz-adv-x="967" 
d="M268 408q0 -324 230 -324q178 0 327 199l58 -43q-82 -125 -203.5 -197t-247.5 -72q-175 0 -268.5 99t-93.5 282q0 264 164 461t409 197q135 0 209 -55t74 -154q0 -172 -170 -263t-488 -130zM274 477q276 34 371.5 122t95.5 226q0 113 -116 113q-119 0 -221 -129
t-130 -332zM1009 1296h-686l29 123h686z" />
    <glyph glyph-name="Ebreve" unicode="&#x114;" horiz-adv-x="1337" 
d="M1309 1077h-74q-7 105 -40.5 169t-76 82t-203.5 18h-227l-131 -572h160q113 0 172.5 48t114.5 186h73l-127 -555h-73q0 108 -5.5 149.5t-41 67.5t-132.5 26h-159l-101 -432q-12 -51 -12 -96q0 -54 38.5 -72t174.5 -18q153 0 215.5 10.5t100.5 35.5t116.5 123.5
t120.5 170.5h72l-123 -418h-1178l14 66q135 10 175.5 32.5t56.5 89.5l237 1031q5 22 5 36q0 84 -177 99l17 65h1098zM1247 1851q-117 -321 -379 -321q-258 0 -258 297v24l55 17q17 -103 68 -148t162 -45q121 0 185.5 52.5t111.5 140.5z" />
    <glyph glyph-name="ebreve" unicode="&#x115;" horiz-adv-x="967" 
d="M268 408q0 -324 230 -324q178 0 327 199l58 -43q-82 -125 -203.5 -197t-247.5 -72q-175 0 -268.5 99t-93.5 282q0 264 164 461t409 197q135 0 209 -55t74 -154q0 -172 -170 -263t-488 -130zM274 477q276 34 371.5 122t95.5 226q0 113 -116 113q-119 0 -221 -129
t-130 -332zM1006 1495q-120 -369 -377 -369q-114 0 -181 75t-67 294l52 12q15 -129 67.5 -179t151.5 -50q96 0 163.5 47t133.5 182z" />
    <glyph glyph-name="Edotaccent" unicode="&#x116;" horiz-adv-x="1337" 
d="M1309 1077h-74q-7 105 -40.5 169t-76 82t-203.5 18h-227l-131 -572h160q113 0 172.5 48t114.5 186h73l-127 -555h-73q0 108 -5.5 149.5t-41 67.5t-132.5 26h-159l-101 -432q-12 -51 -12 -96q0 -54 38.5 -72t174.5 -18q153 0 215.5 10.5t100.5 35.5t116.5 123.5
t120.5 170.5h72l-123 -418h-1178l14 66q135 10 175.5 32.5t56.5 89.5l237 1031q5 22 5 36q0 84 -177 99l17 65h1098zM906 1597q-52 0 -89.5 39t-37.5 92q0 55 37 95t90 40q54 0 91.5 -37t37.5 -90q0 -56 -37 -97.5t-92 -41.5z" />
    <glyph glyph-name="edotaccent" unicode="&#x117;" horiz-adv-x="967" 
d="M268 408q0 -324 230 -324q178 0 327 199l58 -43q-82 -125 -203.5 -197t-247.5 -72q-175 0 -268.5 99t-93.5 282q0 264 164 461t409 197q135 0 209 -55t74 -154q0 -172 -170 -263t-488 -130zM274 477q276 34 371.5 122t95.5 226q0 113 -116 113q-119 0 -221 -129
t-130 -332zM672 1247q-52 0 -89.5 39t-37.5 92q0 55 37 95t90 40q54 0 91.5 -37t37.5 -90q0 -56 -37 -97.5t-92 -41.5z" />
    <glyph glyph-name="Eogonek" unicode="&#x118;" horiz-adv-x="1337" 
d="M1309 1077h-74q-7 105 -40.5 169t-76 82t-203.5 18h-227l-131 -572h160q113 0 172.5 48t114.5 186h73l-127 -555h-73q0 108 -5.5 149.5t-41 67.5t-132.5 26h-159l-101 -432q-12 -51 -12 -96q0 -54 38.5 -72t174.5 -18q153 0 215.5 10.5t100.5 35.5t116.5 123.5
t120.5 170.5h72l-123 -418h-1178l14 66q135 10 175.5 32.5t56.5 89.5l237 1031q5 22 5 36q0 84 -177 99l17 65h1098zM1013 -444h-114q-238 0 -238 157q0 177 291 326h61q-190 -132 -190 -295q0 -117 203 -117z" />
    <glyph glyph-name="eogonek" unicode="&#x119;" horiz-adv-x="967" 
d="M268 408q0 -324 230 -324q178 0 327 199l58 -43q-82 -125 -203.5 -197t-247.5 -72q-175 0 -268.5 99t-93.5 282q0 264 164 461t409 197q135 0 209 -55t74 -154q0 -172 -170 -263t-488 -130zM274 477q276 34 371.5 122t95.5 226q0 113 -116 113q-119 0 -221 -129
t-130 -332zM667 -444h-114q-238 0 -238 157q0 177 291 326h61q-190 -132 -190 -295q0 -117 203 -117z" />
    <glyph glyph-name="Ecaron" unicode="&#x11a;" horiz-adv-x="1337" 
d="M1309 1077h-74q-7 105 -40.5 169t-76 82t-203.5 18h-227l-131 -572h160q113 0 172.5 48t114.5 186h73l-127 -555h-73q0 108 -5.5 149.5t-41 67.5t-132.5 26h-159l-101 -432q-12 -51 -12 -96q0 -54 38.5 -72t174.5 -18q153 0 215.5 10.5t100.5 35.5t116.5 123.5
t120.5 170.5h72l-123 -418h-1178l14 66q135 10 175.5 32.5t56.5 89.5l237 1031q5 22 5 36q0 84 -177 99l17 65h1098zM1239 1837l-289 -285q-35 -35 -51.5 -40t-48.5 -5q-51 0 -80 41l-180 289l49 33l233 -213l322 213z" />
    <glyph glyph-name="ecaron" unicode="&#x11b;" horiz-adv-x="967" 
d="M268 408q0 -324 230 -324q178 0 327 199l58 -43q-82 -125 -203.5 -197t-247.5 -72q-175 0 -268.5 99t-93.5 282q0 264 164 461t409 197q135 0 209 -55t74 -154q0 -172 -170 -263t-488 -130zM274 477q276 34 371.5 122t95.5 226q0 113 -116 113q-119 0 -221 -129
t-130 -332zM719 1163q-25 -28 -40.5 -36.5t-55.5 -8.5q-62 0 -78 41l-172 350l49 33l223 -272l330 272l47 -33z" />
    <glyph glyph-name="Gcircumflex" unicode="&#x11c;" horiz-adv-x="1485" 
d="M1481 571q-13 -2 -31 -4q-92 -10 -130.5 -36t-55.5 -95l-27 -114q-41 -175 -47 -232q-291 -123 -522 -123q-250 0 -409 156t-159 418q0 379 251.5 645t602.5 266q239 0 392 -100l57 67h80l-107 -495h-82q-1 236 -87.5 341t-272.5 105q-249 0 -423.5 -241t-174.5 -601
q0 -222 104.5 -350.5t288.5 -128.5q143 0 256 84q23 63 55 199l19 86q8 36 8 53q0 53 -44 72t-165 28l14 70h623zM1260 1538l-49 -31l-236 211l-319 -211l-47 31l291 285q46 45 100 45q57 0 80 -41z" />
    <glyph glyph-name="gcircumflex" unicode="&#x11d;" horiz-adv-x="1174" 
d="M909 190q-70 -330 -217 -482t-411 -152q-271 0 -271 145q0 45 28 75.5t75 30.5q88 0 161 -184h29q150 0 255.5 131t150.5 381l-7 2q-184 -157 -329 -157q-143 0 -223 101t-80 284q0 255 172.5 450t400.5 195q139 0 240 -64l184 47l10 -14zM844 774q9 43 -33 103.5
t-152 60.5q-150 0 -266.5 -173t-116.5 -403q0 -272 183 -272q123 0 270 143zM961 1118l-226 273l-329 -273l-48 33l304 346q25 29 41 37t57 8q53 0 78 -41l172 -350z" />
    <glyph glyph-name="Gbreve" unicode="&#x11e;" horiz-adv-x="1485" 
d="M1481 571q-13 -2 -31 -4q-92 -10 -130.5 -36t-55.5 -95l-27 -114q-41 -175 -47 -232q-291 -123 -522 -123q-250 0 -409 156t-159 418q0 379 251.5 645t602.5 266q239 0 392 -100l57 67h80l-107 -495h-82q-1 236 -87.5 341t-272.5 105q-249 0 -423.5 -241t-174.5 -601
q0 -222 104.5 -350.5t288.5 -128.5q143 0 256 84q23 63 55 199l19 86q8 36 8 53q0 53 -44 72t-165 28l14 70h623zM1327 1851q-117 -321 -379 -321q-258 0 -258 297v24l55 17q17 -103 68 -148t162 -45q121 0 185.5 52.5t111.5 140.5z" />
    <glyph glyph-name="gbreve" unicode="&#x11f;" horiz-adv-x="1174" 
d="M909 190q-70 -330 -217 -482t-411 -152q-271 0 -271 145q0 45 28 75.5t75 30.5q88 0 161 -184h29q150 0 255.5 131t150.5 381l-7 2q-184 -157 -329 -157q-143 0 -223 101t-80 284q0 255 172.5 450t400.5 195q139 0 240 -64l184 47l10 -14zM844 774q9 43 -33 103.5
t-152 60.5q-150 0 -266.5 -173t-116.5 -403q0 -272 183 -272q123 0 270 143zM1026 1495q-120 -369 -377 -369q-114 0 -181 75t-67 294l52 12q15 -129 67.5 -179t151.5 -50q96 0 163.5 47t133.5 182z" />
    <glyph glyph-name="Gdotaccent" unicode="&#x120;" horiz-adv-x="1485" 
d="M1481 571q-13 -2 -31 -4q-92 -10 -130.5 -36t-55.5 -95l-27 -114q-41 -175 -47 -232q-291 -123 -522 -123q-250 0 -409 156t-159 418q0 379 251.5 645t602.5 266q239 0 392 -100l57 67h80l-107 -495h-82q-1 236 -87.5 341t-272.5 105q-249 0 -423.5 -241t-174.5 -601
q0 -222 104.5 -350.5t288.5 -128.5q143 0 256 84q23 63 55 199l19 86q8 36 8 53q0 53 -44 72t-165 28l14 70h623zM949 1597q-52 0 -89.5 39t-37.5 92q0 55 37 95t90 40q54 0 91.5 -37t37.5 -90q0 -56 -37 -97.5t-92 -41.5z" />
    <glyph glyph-name="gdotaccent" unicode="&#x121;" horiz-adv-x="1174" 
d="M909 190q-70 -330 -217 -482t-411 -152q-271 0 -271 145q0 45 28 75.5t75 30.5q88 0 161 -184h29q150 0 255.5 131t150.5 381l-7 2q-184 -157 -329 -157q-143 0 -223 101t-80 284q0 255 172.5 450t400.5 195q139 0 240 -64l184 47l10 -14zM844 774q9 43 -33 103.5
t-152 60.5q-150 0 -266.5 -173t-116.5 -403q0 -272 183 -272q123 0 270 143zM707 1247q-52 0 -89.5 39t-37.5 92q0 55 37 95t90 40q54 0 91.5 -37t37.5 -90q0 -56 -37 -97.5t-92 -41.5z" />
    <glyph glyph-name="uni0122" unicode="&#x122;" horiz-adv-x="1485" 
d="M1481 571q-13 -2 -31 -4q-92 -10 -130.5 -36t-55.5 -95l-27 -114q-41 -175 -47 -232q-291 -123 -522 -123q-250 0 -409 156t-159 418q0 379 251.5 645t602.5 266q239 0 392 -100l57 67h80l-107 -495h-82q-1 236 -87.5 341t-272.5 105q-249 0 -423.5 -241t-174.5 -601
q0 -222 104.5 -350.5t288.5 -128.5q143 0 256 84q23 63 55 199l19 86q8 36 8 53q0 53 -44 72t-165 28l14 70h623zM504 -444l8 57q166 7 197 129h-53q-111 0 -111 76q0 43 36 79.5t95 36.5q57 0 93 -35.5t36 -95.5q0 -118 -85 -182.5t-216 -64.5z" />
    <glyph glyph-name="uni0123" unicode="&#x123;" horiz-adv-x="1174" 
d="M909 190q-70 -330 -217 -482t-411 -152q-271 0 -271 145q0 45 28 75.5t75 30.5q88 0 161 -184h29q150 0 255.5 131t150.5 381l-7 2q-184 -157 -329 -157q-143 0 -223 101t-80 284q0 255 172.5 450t400.5 195q139 0 240 -64l184 47l10 -14zM844 774q9 43 -33 103.5
t-152 60.5q-150 0 -266.5 -173t-116.5 -403q0 -272 183 -272q123 0 270 143zM854 1505l-8 -57q-173 -9 -199 -129h47q119 0 119 -90q0 -47 -35 -75t-90 -28q-57 0 -96 33t-39 98q0 110 83.5 179t217.5 69z" />
    <glyph glyph-name="Hcircumflex" unicode="&#x124;" horiz-adv-x="1669" 
d="M1755 1354q-63 -5 -128 -23.5t-87 -101.5l-237 -1034q-5 -22 -5 -35q0 -81 160 -94l-14 -66h-590l16 66q139 7 172.5 39t44.5 79l117 512h-665l-115 -501q-4 -17 -4 -33q0 -50 38 -69t122 -27l-17 -66h-588l15 66q139 6 172 37.5t45 80.5l239 1035q5 22 5 32
q0 80 -164 103l14 65h590l-14 -65q-119 -10 -159.5 -35.5t-55.5 -89.5l-103 -449h668l98 439q4 18 4 32q0 49 -50.5 73.5t-111.5 29.5l15 65h590zM1370 1538l-49 -31l-236 211l-319 -211l-47 31l291 285q46 45 100 45q57 0 80 -41z" />
    <glyph glyph-name="hcircumflex" unicode="&#x125;" horiz-adv-x="1153" 
d="M1004 1505l-234 213l-319 -213l-48 33l291 285q46 45 101 45q52 0 68 -26q4 -8 9 -15l181 -289zM1079 51q-166 -67 -241 -67q-160 0 -160 143q0 51 16 111l99 372q24 90 24 135q0 146 -127 146q-135 0 -280 -158l-168 -733h-187l267 1157q12 52 12 74q0 47 -23.5 71
t-140.5 33l12 62l373 22l10 -14l-131 -563h4q133 104 209 136t160 32q96 0 150.5 -55t54.5 -146q0 -72 -25 -156l-84 -321q-24 -92 -24 -137q0 -57 24.5 -78t81.5 -21q48 0 109 21z" />
    <glyph glyph-name="Hbar" unicode="&#x126;" horiz-adv-x="1669" 
d="M1303 195q-5 -22 -5 -35q0 -81 160 -94l-14 -66h-590l16 66q139 7 172.5 39t44.5 79l117 512h-665l-115 -501q-4 -17 -4 -33q0 -50 38 -69t122 -27l-17 -66h-588l15 66q139 6 172 37.5t45 80.5l190 830h-184l20 84h185l28 121q5 22 5 32q0 80 -164 103l14 65h590l-14 -65
q-119 -10 -159.5 -35.5t-55.5 -89.5l-31 -131h667l27 121q4 18 4 32q0 49 -50.5 73.5t-111.5 29.5l15 65h590l-17 -65q-63 -5 -128 -23.5t-87 -101.5l-29 -131h187l-21 -84h-186zM559 780h668l53 234h-668z" />
    <glyph glyph-name="hbar" unicode="&#x127;" horiz-adv-x="1153" 
d="M434 842h4q133 104 209 136t160 32q96 0 150.5 -55t54.5 -146q0 -72 -25 -156l-84 -321q-24 -92 -24 -137q0 -57 24.5 -78t81.5 -21q48 0 109 21l-15 -66q-166 -67 -241 -67q-160 0 -160 143q0 51 16 111l99 372q24 90 24 135q0 146 -127 146q-135 0 -280 -158l-168 -733
h-187l271 1171h-230l21 82h227q21 84 21 107q0 47 -23.5 71t-140.5 33l12 62l373 22l10 -14l-66 -281h353l-21 -82h-350z" />
    <glyph glyph-name="Itilde" unicode="&#x128;" horiz-adv-x="799" 
d="M907 1354q-137 -10 -181.5 -35.5t-59.5 -87.5l-240 -1038q-4 -17 -4 -31q0 -83 188 -96l-14 -66h-639l14 66q156 6 192.5 37t47.5 79l240 1039q4 17 4 34q0 47 -51 66.5t-136 32.5l15 65h639zM1022 1842q-28 -101 -98.5 -172.5t-155.5 -71.5q-82 0 -174 51
q-93 51 -138 51q-41 0 -66.5 -21.5t-74.5 -113.5l-57 25q36 105 103 174t147 69q76 0 170 -51t129 -51q50 0 82 17t71 116z" />
    <glyph glyph-name="itilde" unicode="&#x129;" horiz-adv-x="608" 
d="M737 1464q-34 -96 -107.5 -166.5t-150.5 -70.5q-67 0 -131 50q-65 50 -106 50q-36 0 -62 -20t-80 -113l-51 25q109 237 254 237q64 0 130 -50t97 -50q47 0 77.5 18t76.5 113zM537 45q-160 -65 -242 -65q-76 0 -118 38.5t-42 104.5q0 42 17 110l106 426q23 92 23 144
q0 59 -20.5 75.5t-74.5 16.5q-32 0 -112 -18l14 63q155 70 238 70q155 0 155 -146q0 -50 -14 -110l-109 -424q-24 -93 -24 -140q0 -98 108 -98q57 0 109 17z" />
    <glyph glyph-name="Imacron" unicode="&#x12a;" horiz-adv-x="799" 
d="M907 1354q-137 -10 -181.5 -35.5t-59.5 -87.5l-240 -1038q-4 -17 -4 -31q0 -83 188 -96l-14 -66h-639l14 66q156 6 192.5 37t47.5 79l240 1039q4 17 4 34q0 47 -51 66.5t-136 32.5l15 65h639zM989 1661h-686l29 123h686z" />
    <glyph glyph-name="imacron" unicode="&#x12b;" horiz-adv-x="608" 
d="M104 1290l29 129h563l-30 -129h-562zM537 45q-160 -65 -242 -65q-76 0 -118 38.5t-42 104.5q0 42 17 110l106 426q23 92 23 144q0 59 -20.5 75.5t-74.5 16.5q-32 0 -112 -18l14 63q155 70 238 70q155 0 155 -146q0 -50 -14 -110l-109 -424q-24 -93 -24 -140
q0 -98 108 -98q57 0 109 17z" />
    <glyph glyph-name="Ibreve" unicode="&#x12c;" horiz-adv-x="799" 
d="M907 1354q-137 -10 -181.5 -35.5t-59.5 -87.5l-240 -1038q-4 -17 -4 -31q0 -83 188 -96l-14 -66h-639l14 66q156 6 192.5 37t47.5 79l240 1039q4 17 4 34q0 47 -51 66.5t-136 32.5l15 65h639zM981 1851q-117 -321 -379 -321q-258 0 -258 297v24l55 17q17 -103 68 -148
t162 -45q121 0 185.5 52.5t111.5 140.5z" />
    <glyph glyph-name="ibreve" unicode="&#x12d;" horiz-adv-x="608" 
d="M690 1495q-113 -367 -342 -367q-209 0 -209 273q0 41 6 94l50 12q9 -140 50 -185.5t128 -45.5q82 0 140 41t126 190zM537 45q-160 -65 -242 -65q-76 0 -118 38.5t-42 104.5q0 42 17 110l106 426q23 92 23 144q0 59 -20.5 75.5t-74.5 16.5q-32 0 -112 -18l14 63
q155 70 238 70q155 0 155 -146q0 -50 -14 -110l-109 -424q-24 -93 -24 -140q0 -98 108 -98q57 0 109 17z" />
    <glyph glyph-name="Iogonek" unicode="&#x12e;" horiz-adv-x="799" 
d="M907 1354q-137 -10 -181.5 -35.5t-59.5 -87.5l-240 -1038q-4 -17 -4 -31q0 -83 188 -96l-14 -66h-639l14 66q156 6 192.5 37t47.5 79l240 1039q4 17 4 34q0 47 -51 66.5t-136 32.5l15 65h639zM475 -444h-114q-238 0 -238 157q0 177 291 326h61q-190 -132 -190 -295
q0 -117 203 -117z" />
    <glyph glyph-name="iogonek" unicode="&#x12f;" horiz-adv-x="608" 
d="M494 1245q-50 0 -87.5 39.5t-37.5 93.5q0 55 37 96.5t88 41.5q54 0 91.5 -38t37.5 -92q0 -56 -37.5 -98.5t-91.5 -42.5zM537 45q-160 -65 -242 -65q-76 0 -118 38.5t-42 104.5q0 42 17 110l106 426q23 92 23 144q0 59 -20.5 75.5t-74.5 16.5q-32 0 -112 -18l14 63
q155 70 238 70q155 0 155 -146q0 -50 -14 -110l-109 -424q-24 -93 -24 -140q0 -98 108 -98q57 0 109 17zM479 -444h-114q-238 0 -238 157q0 177 291 326h61q-190 -132 -190 -295q0 -117 203 -117z" />
    <glyph glyph-name="Idotaccent" unicode="&#x130;" horiz-adv-x="799" 
d="M907 1354q-137 -10 -181.5 -35.5t-59.5 -87.5l-240 -1038q-4 -17 -4 -31q0 -83 188 -96l-14 -66h-639l14 66q156 6 192.5 37t47.5 79l240 1039q4 17 4 34q0 47 -51 66.5t-136 32.5l15 65h639zM639 1597q-52 0 -89.5 39t-37.5 92q0 55 37 95t90 40q54 0 91.5 -37t37.5 -90
q0 -56 -37 -97.5t-92 -41.5z" />
    <glyph glyph-name="dotlessi" unicode="&#x131;" horiz-adv-x="608" 
d="M537 45q-160 -65 -242 -65q-76 0 -118 38.5t-42 104.5q0 42 17 110l106 426q23 92 23 144q0 59 -20.5 75.5t-74.5 16.5q-32 0 -112 -18l14 63q155 70 238 70q155 0 155 -146q0 -50 -14 -110l-109 -424q-24 -93 -24 -140q0 -98 108 -98q57 0 109 17z" />
    <glyph glyph-name="IJ" unicode="&#x132;" horiz-adv-x="1798" 
d="M907 1354q-137 -10 -181.5 -35.5t-59.5 -87.5l-240 -1038q-4 -17 -4 -31q0 -83 188 -96l-14 -66h-639l14 66q156 6 192.5 37t47.5 79l240 1039q4 17 4 34q0 47 -51 66.5t-136 32.5l15 65h639zM1931 1354q-130 -11 -170 -36t-55 -89l-190 -846q-37 -165 -178.5 -291.5
t-333.5 -126.5q-139 0 -222.5 71t-83.5 193q0 101 49 174.5t130 73.5q110 0 110 -96q0 -80 -114 -208q-27 -31 -46 -58q45 -78 177 -78q106 0 180 81.5t135 344.5l170 756q4 18 4 32q0 80 -155 99l-35 4l14 65h631z" />
    <glyph glyph-name="ij" unicode="&#x133;" horiz-adv-x="1180" 
d="M494 1245q-50 0 -87.5 39.5t-37.5 93.5q0 55 37 96.5t88 41.5q54 0 91.5 -38t37.5 -92q0 -56 -37.5 -98.5t-91.5 -42.5zM537 45q-160 -65 -242 -65q-76 0 -118 38.5t-42 104.5q0 42 17 110l106 426q23 92 23 144q0 59 -20.5 75.5t-74.5 16.5q-32 0 -112 -18l14 63
q155 70 238 70q155 0 155 -146q0 -50 -14 -110l-109 -424q-24 -93 -24 -140q0 -98 108 -98q57 0 109 17zM1086 1245q-50 0 -87.5 39.5t-37.5 93.5q0 55 37 96.5t88 41.5q55 0 92 -38.5t37 -91.5q0 -56 -37.5 -98.5t-91.5 -42.5zM498 -362q66 4 119 87t85 210t105.5 465.5
t73.5 402.5q0 52 -17.5 72t-76.5 20q-53 0 -123 -23l14 66q173 72 248 72q156 0 156 -146q0 -26 -50.5 -276.5t-94.5 -444t-98.5 -290.5t-129 -165.5t-151 -100t-148.5 -31.5q-170 0 -170 118q0 44 27 76.5t73 32.5q72 0 128 -95q15 -26 30 -50z" />
    <glyph glyph-name="Jcircumflex" unicode="&#x134;" horiz-adv-x="1061" 
d="M1194 1354q-126 -10 -168 -34t-59 -91l-191 -846q-38 -168 -181.5 -293t-336.5 -125q-140 0 -223.5 72t-83.5 192q0 100 49 174t129 74q111 0 111 -96q0 -82 -114 -208q-28 -31 -46 -58q41 -78 178 -78q116 0 191.5 89.5t130.5 336.5l170 756q4 18 4 32q0 49 -43 70
t-148 33l17 65h628zM1223 1538l-49 -31l-236 211l-319 -211l-47 31l291 285q46 45 100 45q57 0 80 -41z" />
    <glyph glyph-name="jcircumflex" unicode="&#x135;" horiz-adv-x="596" 
d="M-86 -362q66 4 119 87t85 210t105.5 465.5t73.5 402.5q0 52 -17.5 72t-76.5 20q-53 0 -123 -23l14 66q173 72 248 72q156 0 156 -146q0 -26 -50.5 -276.5t-94.5 -444t-98.5 -290.5t-129 -165.5t-151 -100t-148.5 -31.5q-170 0 -170 118q0 44 27 76.5t73 32.5
q72 0 128 -95q15 -26 30 -50zM641 1118l-226 273l-329 -273l-48 33l304 346q25 29 41 37t57 8q53 0 78 -41l172 -350z" />
    <glyph glyph-name="uni0136" unicode="&#x136;" horiz-adv-x="1421" 
d="M1581 1354l-36 -4q-139 -15 -214 -80q-375 -341 -565 -494q137 -211 332 -543q60 -100 113 -129.5t143 -37.5l-19 -66h-360q-162 345 -385 674h-55l-111 -479q-4 -17 -4 -33q0 -61 52 -75.5t112 -20.5l-17 -66h-587l14 66q134 6 168 39t45 79l239 1035q5 22 5 34
q0 45 -40.5 67t-119.5 34l14 65h590l-14 -65q-124 -10 -164 -35.5t-55 -89.5l-117 -506h20q201 140 411 335.5t210 250.5q0 35 -135 45l14 65h532zM524 -444l8 57q166 7 197 129h-53q-111 0 -111 76q0 43 36 79.5t95 36.5q57 0 93 -35.5t36 -95.5q0 -118 -85 -182.5
t-216 -64.5z" />
    <glyph glyph-name="uni0137" unicode="&#x137;" horiz-adv-x="1081" 
d="M815 811q-116 -67 -240 -186q151 -384 200 -459.5t138 -75.5q55 0 131 23l-14 -66q-152 -63 -254 -63q-86 0 -141.5 67.5t-190.5 433.5l-116 -100l-86 -385h-187l297 1286q13 56 13 74q0 47 -23.5 71t-140.5 33l12 62l373 22l10 -14l-246 -1042h4q172 184 320 321.5
t193 162.5t91 25q113 0 113 -106q0 -47 -36 -83t-85 -36q-55 0 -135 35zM307 -444l8 57q166 7 197 129h-53q-111 0 -111 76q0 43 36 79.5t95 36.5q57 0 93 -35.5t36 -95.5q0 -118 -85 -182.5t-216 -64.5z" />
    <glyph glyph-name="kgreenlandic" unicode="&#x138;" horiz-adv-x="1139" 
d="M872 811q-123 -71 -239 -186q146 -388 202 -461.5t136 -73.5q55 0 131 23l-15 -66q-152 -63 -253 -63q-81 0 -136.5 60.5t-195.5 440.5l-119 -100l-88 -385h-184l149 647q23 100 23 144q0 62 -22 78t-73 16q-36 0 -108 -21l14 66q154 67 234 67q153 0 153 -143
q0 -32 -14 -111l-59 -251h4q132 144 297.5 301t211 182.5t95.5 25.5q112 0 112 -106q0 -47 -35.5 -83t-84.5 -36q-56 0 -136 35z" />
    <glyph glyph-name="Lacute" unicode="&#x139;" horiz-adv-x="1237" 
d="M1083 0h-1108l15 66q138 8 172 38t47 84l235 1026q7 31 7 37q0 78 -164 103l14 65h600l-14 -65q-105 -8 -155.5 -31t-72.5 -98l-221 -965q-16 -70 -16 -104q0 -50 36.5 -66t170.5 -16q107 0 172.5 14t94.5 36t112 122t133 176h69zM600 1507l-26 39q91 77 282 262
q57 60 123 60q37 0 60.5 -20.5t23.5 -51.5q0 -78 -100 -122t-363 -167z" />
    <glyph glyph-name="lacute" unicode="&#x13a;" horiz-adv-x="584" 
d="M322 1507l-27 39q162 144 280 262q60 60 125 60q84 0 84 -72q0 -42 -28.5 -74.5t-433.5 -214.5zM322 330q-25 -109 -25 -140q0 -98 106 -98q67 0 119 17l-14 -64q-156 -65 -248 -65q-78 0 -121 40t-43 103q0 34 19 110l211 924q12 53 12 74q0 47 -23.5 71t-140.5 33
l14 62l371 22l10 -14z" />
    <glyph glyph-name="uni013B" unicode="&#x13b;" horiz-adv-x="1237" 
d="M1083 0h-1108l15 66q138 8 172 38t47 84l235 1026q7 31 7 37q0 78 -164 103l14 65h600l-14 -65q-105 -8 -155.5 -31t-72.5 -98l-221 -965q-16 -70 -16 -104q0 -50 36.5 -66t170.5 -16q107 0 172.5 14t94.5 36t112 122t133 176h69zM457 -444l8 57q166 7 197 129h-53
q-111 0 -111 76q0 43 36 79.5t95 36.5q57 0 93 -35.5t36 -95.5q0 -118 -85 -182.5t-216 -64.5z" />
    <glyph glyph-name="uni013C" unicode="&#x13c;" horiz-adv-x="584" 
d="M322 330q-25 -108 -25 -140q0 -98 106 -98q67 0 119 17l-14 -64q-156 -65 -248 -65q-78 0 -121 40t-43 103q0 34 19 110l241 1053q13 57 13 74q0 47 -23.5 71t-140.5 33l14 62l371 22l10 -14zM96 -444l8 57q166 7 197 129h-53q-111 0 -111 76q0 43 36 79.5t95 36.5
q57 0 93 -35.5t36 -95.5q0 -118 -85 -182.5t-216 -64.5z" />
    <glyph glyph-name="Lcaron" unicode="&#x13d;" horiz-adv-x="1237" 
d="M1083 0h-1108l15 66q138 8 172 38t47 84l235 1026q7 31 7 37q0 78 -164 103l14 65h600l-14 -65q-105 -8 -155.5 -31t-72.5 -98l-221 -965q-16 -70 -16 -104q0 -50 36.5 -66t170.5 -16q107 0 172.5 14t94.5 36t112 122t133 176h69zM981 893l-31 64q218 107 252 243h-43
q-119 0 -119 101q0 52 38.5 93.5t98.5 41.5q133 0 133 -139q0 -241 -329 -404z" />
    <glyph glyph-name="lcaron" unicode="&#x13e;" horiz-adv-x="799" 
d="M322 330q-25 -108 -25 -140q0 -98 106 -98q67 0 119 17l-14 -64q-156 -65 -248 -65q-78 0 -121 40t-43 103q0 34 19 110l241 1053q13 57 13 74q0 47 -23.5 71t-140.5 33l14 62l371 22l10 -14zM646 999l-31 64q218 107 252 243h-43q-119 0 -119 101q0 52 38.5 93.5
t98.5 41.5q133 0 133 -139q0 -241 -329 -404z" />
    <glyph glyph-name="Ldot" unicode="&#x13f;" horiz-adv-x="1237" 
d="M1083 0h-1108l15 66q138 8 172 38t47 84l235 1026q7 31 7 37q0 78 -164 103l14 65h600l-14 -65q-105 -8 -155.5 -31t-72.5 -98l-221 -965q-16 -70 -16 -104q0 -50 36.5 -66t170.5 -16q107 0 172.5 14t94.5 36t112 122t133 176h69zM1061 588q-57 0 -96 39t-39 96
q0 56 39.5 96.5t95.5 40.5t96.5 -40t40.5 -97q0 -58 -40 -96.5t-97 -38.5z" />
    <glyph glyph-name="ldot" unicode="&#x140;" horiz-adv-x="862" 
d="M322 330q-25 -108 -25 -140q0 -98 106 -98q67 0 119 17l-14 -64q-156 -65 -248 -65q-78 0 -121 40t-43 103q0 34 19 110l241 1053q13 57 13 74q0 47 -23.5 71t-140.5 33l14 62l371 22l10 -14zM738 542q-52 0 -89.5 39t-37.5 92q0 55 37 95t90 40q54 0 91.5 -37t37.5 -90
q0 -56 -37 -97.5t-92 -41.5z" />
    <glyph glyph-name="Lslash" unicode="&#x141;" horiz-adv-x="1237" 
d="M1083 0h-1108l15 66q138 8 172 38t47 84l100 439l-172 -74l-14 90l211 86l110 485q7 31 7 37q0 78 -164 103l14 65h600l-14 -65q-105 -8 -155.5 -31t-72.5 -98l-94 -406l287 121l14 -90l-323 -133l-105 -457q-16 -70 -16 -104q0 -50 36.5 -66t170.5 -16q107 0 172.5 14
t94.5 36t112 122t133 176h69z" />
    <glyph glyph-name="lslash" unicode="&#x142;" horiz-adv-x="584" 
d="M428 791l154 65l16 -84l-192 -80l-84 -362q-25 -108 -25 -140q0 -98 106 -98q67 0 119 17l-14 -64q-156 -65 -248 -65q-78 0 -121 40t-43 103q0 34 19 110l88 381l-133 -57l-17 84l170 70l133 575q13 56 13 74q0 47 -23.5 71t-140.5 33l14 62l371 22l10 -14z" />
    <glyph glyph-name="Nacute" unicode="&#x143;" horiz-adv-x="1571" 
d="M1743 1354q-150 -21 -202 -64t-101 -260l-242 -1044h-88l-584 1198l-178 -774q-26 -113 -26 -191q0 -49 14 -79t89 -51.5t97 -22.5l-14 -66h-584l17 66q126 20 188.5 56t118.5 277l160 688q12 52 12 101q0 139 -207 166l16 65h408l539 -1110l163 709q27 117 27 188
q0 52 -14.5 77t-76.5 45.5t-110 25.5l17 65h577zM866 1507l-26 39q91 77 282 262q57 60 123 60q37 0 60.5 -20.5t23.5 -51.5q0 -78 -100 -122t-363 -167z" />
    <glyph glyph-name="nacute" unicode="&#x144;" horiz-adv-x="1208" 
d="M1135 51q-171 -67 -242 -67q-160 0 -160 143q0 53 17 111l98 372q24 91 24 135q0 146 -127 146q-139 0 -280 -158l-168 -733h-186l147 647q25 110 25 144q0 56 -20 75t-75 19q-42 0 -108 -21l14 66q150 67 242 67q142 0 147 -161h6q145 114 217 144t156 30
q96 0 150.5 -55t54.5 -146q0 -72 -25 -156l-84 -321q-24 -92 -24 -137q0 -57 24.5 -78t81.5 -21q49 0 109 21zM588 1110l-35 33q130 172 219 307q57 88 137 88q35 0 56.5 -22t21.5 -50q0 -54 -39.5 -88.5t-244.5 -182.5q-50 -36 -115 -85z" />
    <glyph glyph-name="uni0145" unicode="&#x145;" horiz-adv-x="1571" 
d="M1743 1354q-150 -21 -202 -64t-101 -260l-242 -1044h-88l-584 1198l-178 -774q-26 -113 -26 -191q0 -49 14 -79t89 -51.5t97 -22.5l-14 -66h-584l17 66q126 20 188.5 56t118.5 277l160 688q12 52 12 101q0 139 -207 166l16 65h408l539 -1110l163 709q27 117 27 188
q0 52 -14.5 77t-76.5 45.5t-110 25.5l17 65h577zM490 -444l8 57q166 7 197 129h-53q-111 0 -111 76q0 43 36 79.5t95 36.5q57 0 93 -35.5t36 -95.5q0 -118 -85 -182.5t-216 -64.5z" />
    <glyph glyph-name="uni0146" unicode="&#x146;" horiz-adv-x="1208" 
d="M1135 51q-171 -67 -242 -67q-160 0 -160 143q0 53 17 111l98 372q24 91 24 135q0 146 -127 146q-139 0 -280 -158l-168 -733h-186l147 647q25 110 25 144q0 56 -20 75t-75 19q-42 0 -108 -21l14 66q150 67 242 67q142 0 147 -161h6q145 114 217 144t156 30
q96 0 150.5 -55t54.5 -146q0 -72 -25 -156l-84 -321q-24 -92 -24 -137q0 -57 24.5 -78t81.5 -21q49 0 109 21zM381 -444l8 57q166 7 197 129h-53q-111 0 -111 76q0 43 36 79.5t95 36.5q57 0 93 -35.5t36 -95.5q0 -118 -85 -182.5t-216 -64.5z" />
    <glyph glyph-name="Ncaron" unicode="&#x147;" horiz-adv-x="1571" 
d="M1743 1354q-150 -21 -202 -64t-101 -260l-242 -1044h-88l-584 1198l-178 -774q-26 -113 -26 -191q0 -49 14 -79t89 -51.5t97 -22.5l-14 -66h-584l17 66q126 20 188.5 56t118.5 277l160 688q12 52 12 101q0 139 -207 166l16 65h408l539 -1110l163 709q27 117 27 188
q0 52 -14.5 77t-76.5 45.5t-110 25.5l17 65h577zM1341 1837l-289 -285q-35 -35 -51.5 -40t-48.5 -5q-51 0 -80 41l-180 289l49 33l233 -213l322 213z" />
    <glyph glyph-name="ncaron" unicode="&#x148;" horiz-adv-x="1208" 
d="M1135 51q-171 -67 -242 -67q-160 0 -160 143q0 53 17 111l98 372q24 91 24 135q0 146 -127 146q-139 0 -280 -158l-168 -733h-186l147 647q25 110 25 144q0 56 -20 75t-75 19q-42 0 -108 -21l14 66q150 67 242 67q142 0 147 -161h6q145 114 217 144t156 30
q96 0 150.5 -55t54.5 -146q0 -72 -25 -156l-84 -321q-24 -92 -24 -137q0 -57 24.5 -78t81.5 -21q49 0 109 21zM753 1163q-25 -28 -40.5 -36.5t-55.5 -8.5q-62 0 -78 41l-172 350l49 33l223 -272l330 272l47 -33z" />
    <glyph glyph-name="napostrophe" unicode="&#x149;" horiz-adv-x="1288" 
d="M84 987l-31 64q218 107 252 243h-43q-119 0 -119 101q0 52 38.5 93.5t98.5 41.5q133 0 133 -139q0 -241 -329 -404zM1215 51q-171 -67 -242 -67q-160 0 -160 143q0 53 17 111l98 372q24 91 24 135q0 146 -127 146q-139 0 -280 -158l-168 -733h-186l147 647q25 110 25 144
q0 56 -20 75t-75 19q-42 0 -108 -21l14 66q150 67 242 67q142 0 147 -161h6q145 114 217 144t156 30q96 0 150.5 -55t54.5 -146q0 -72 -25 -156l-84 -321q-24 -92 -24 -137q0 -57 24.5 -78t81.5 -21q49 0 109 21z" />
    <glyph glyph-name="Eng" unicode="&#x14a;" horiz-adv-x="1571" 
d="M817 -342q197 13 285 344l-576 1182l-178 -774q-26 -113 -26 -191q0 -49 14 -79t89 -51.5t97 -22.5l-14 -66h-584l17 66q126 20 188.5 56t118.5 277l160 688q12 52 12 101q0 139 -207 166l16 65h408l539 -1110l163 709q27 117 27 188q0 52 -14.5 77t-76.5 45.5t-110 25.5
l17 65h577l-16 -65q-150 -21 -202 -64t-101 -260l-226 -975q-56 -241 -183.5 -370t-307.5 -129q-81 0 -133.5 38.5t-52.5 94.5q0 49 29.5 83.5t80.5 34.5q71 0 131 -95q16 -27 39 -54z" />
    <glyph glyph-name="eng" unicode="&#x14b;" horiz-adv-x="1184" 
d="M111 0l147 647q25 110 25 144q0 56 -20 75t-75 19q-42 0 -108 -21l14 66q150 67 242 67q142 0 147 -161h4q136 108 212 141t163 33q96 0 150.5 -55t54.5 -146q0 -83 -30 -241t-74.5 -357.5t-87 -299.5t-123.5 -187.5t-167.5 -127.5t-166.5 -40q-170 0 -170 118
q0 47 27 78t73 31q72 0 128 -95q15 -26 30 -50q42 -3 107.5 70t163 506.5t97.5 533.5q0 143 -129 143q-135 0 -280 -158l-168 -733h-186z" />
    <glyph glyph-name="Omacron" unicode="&#x14c;" horiz-adv-x="1495" 
d="M651 -35q-248 0 -399.5 159.5t-151.5 416.5q0 372 249 641.5t577 269.5q246 0 398.5 -158.5t152.5 -421.5q0 -372 -251.5 -639.5t-574.5 -267.5zM907 1368q-254 0 -412.5 -270t-158.5 -604q0 -213 86.5 -329t247.5 -116q249 0 410 266.5t161 616.5q0 207 -87 321.5
t-247 114.5zM1294 1661h-686l29 123h686z" />
    <glyph glyph-name="omacron" unicode="&#x14d;" horiz-adv-x="1100" 
d="M440 -31q-165 0 -268.5 107.5t-103.5 288.5q0 268 167 456.5t418 188.5q176 0 277.5 -107.5t101.5 -286.5q0 -262 -166 -454.5t-426 -192.5zM633 938q-169 0 -266 -182.5t-97 -423.5q0 -291 199 -291q161 0 260.5 179.5t99.5 432.5q0 285 -196 285zM1036 1296h-686
l29 123h686z" />
    <glyph glyph-name="Obreve" unicode="&#x14e;" horiz-adv-x="1495" 
d="M651 -35q-248 0 -399.5 159.5t-151.5 416.5q0 372 249 641.5t577 269.5q246 0 398.5 -158.5t152.5 -421.5q0 -372 -251.5 -639.5t-574.5 -267.5zM907 1368q-254 0 -412.5 -270t-158.5 -604q0 -213 86.5 -329t247.5 -116q249 0 410 266.5t161 616.5q0 207 -87 321.5
t-247 114.5zM1300 1851q-117 -321 -379 -321q-258 0 -258 297v24l55 17q17 -103 68 -148t162 -45q121 0 185.5 52.5t111.5 140.5z" />
    <glyph glyph-name="obreve" unicode="&#x14f;" horiz-adv-x="1100" 
d="M440 -31q-165 0 -268.5 107.5t-103.5 288.5q0 268 167 456.5t418 188.5q176 0 277.5 -107.5t101.5 -286.5q0 -262 -166 -454.5t-426 -192.5zM633 938q-169 0 -266 -182.5t-97 -423.5q0 -291 199 -291q161 0 260.5 179.5t99.5 432.5q0 285 -196 285zM1026 1495
q-120 -369 -377 -369q-114 0 -181 75t-67 294l52 12q15 -129 67.5 -179t151.5 -50q96 0 163.5 47t133.5 182z" />
    <glyph glyph-name="Ohungarumlaut" unicode="&#x150;" horiz-adv-x="1495" 
d="M651 -35q-248 0 -399.5 159.5t-151.5 416.5q0 372 249 641.5t577 269.5q246 0 398.5 -158.5t152.5 -421.5q0 -372 -251.5 -639.5t-574.5 -267.5zM907 1368q-254 0 -412.5 -270t-158.5 -604q0 -213 86.5 -329t247.5 -116q249 0 410 266.5t161 616.5q0 207 -87 321.5
t-247 114.5zM663 1507l-24 35l257 262q61 64 107 64q78 0 78 -76q0 -70 -94 -115q-172 -82 -324 -170zM1048 1507l-24 35l274 274q52 52 94 52q76 0 76 -76q0 -71 -92 -115q-252 -121 -328 -170z" />
    <glyph glyph-name="ohungarumlaut" unicode="&#x151;" horiz-adv-x="1100" 
d="M440 -31q-165 0 -268.5 107.5t-103.5 288.5q0 268 167 456.5t418 188.5q176 0 277.5 -107.5t101.5 -286.5q0 -262 -166 -454.5t-426 -192.5zM633 938q-169 0 -266 -182.5t-97 -423.5q0 -291 199 -291q161 0 260.5 179.5t99.5 432.5q0 285 -196 285zM753 1110l-33 29
q130 176 211 307q59 92 119 92q34 0 56 -22t22 -50q0 -53 -33.5 -83t-341.5 -273zM401 1110l-37 29q112 159 199 307q52 92 116 92q32 0 53 -22t21 -50q0 -47 -25 -78t-327 -278z" />
    <glyph glyph-name="OE" unicode="&#x152;" horiz-adv-x="2044" 
d="M2013 1077h-74q-7 105 -40 170t-76.5 82t-200.5 17h-219l-131 -572h149q119 0 181.5 56t105.5 178h76l-129 -555h-74q0 110 -5 150.5t-40.5 66.5t-132.5 26h-150l-100 -432q-12 -52 -12 -96q0 -56 36.5 -73t165.5 -17q149 0 212 10t100.5 33t115 119t125.5 178h72
l-123 -418h-1155q-242 0 -416 137.5t-174 390.5q0 387 282.5 639t672.5 252h1038zM1188 1335q-103 6 -154 6q-288 0 -493 -234.5t-205 -584.5q0 -201 112.5 -322.5t309.5 -121.5q73 0 141 4z" />
    <glyph glyph-name="oe" unicode="&#x153;" horiz-adv-x="1690" 
d="M991 408q0 -324 230 -324q178 0 327 199l58 -43q-82 -125 -203.5 -197t-247.5 -72q-216 0 -313 168q-172 -170 -402 -170q-165 0 -268.5 107.5t-103.5 288.5q0 268 167 456.5t418 188.5q214 0 324 -179q172 179 389 179q135 0 209 -55t74 -154q0 -172 -170 -263
t-488 -130zM997 477q272 34 369.5 121t97.5 227q0 113 -116 113q-119 0 -221 -129t-130 -332zM633 938q-169 0 -266 -182.5t-97 -423.5q0 -291 199 -291q161 0 260.5 179.5t99.5 432.5q0 285 -196 285z" />
    <glyph glyph-name="Racute" unicode="&#x154;" horiz-adv-x="1438" 
d="M1354 0h-359q-77 197 -319 645h-150l-104 -457q-6 -26 -6 -34q0 -39 23 -59.5t151 -28.5l-17 -66h-600l17 66q137 8 172 39t47 83l237 1037q7 31 7 41q0 44 -42 62.5t-124 25.5l14 65h639q181 0 285 -70.5t104 -199.5q0 -351 -448 -459q72 -141 158 -299q37 -68 83 -158
q38 -71 85.5 -115.5t162.5 -51.5zM686 1343l-139 -616h141q163 0 279 114.5t116 284.5q0 105 -64 161t-173 56h-160zM719 1507l-26 39q91 77 282 262q57 60 123 60q37 0 60.5 -20.5t23.5 -51.5q0 -78 -100 -122t-363 -167z" />
    <glyph glyph-name="racute" unicode="&#x155;" horiz-adv-x="944" 
d="M760 905q-134 0 -299 -188l-162 -717h-186l145 647q25 112 25 144q0 56 -20 75t-75 19q-42 0 -108 -21l14 66q150 67 242 67q147 0 147 -174h6l95 80q123 107 215 107q155 0 155 -164q0 -72 -35.5 -122t-97.5 -50q-106 0 -106 86q0 49 45 145zM469 1110l-35 33
q130 172 219 307q57 88 137 88q35 0 56.5 -22t21.5 -50q0 -54 -39.5 -88.5t-244.5 -182.5q-50 -36 -115 -85z" />
    <glyph glyph-name="uni0156" unicode="&#x156;" horiz-adv-x="1438" 
d="M1354 0h-359q-77 197 -319 645h-150l-104 -457q-6 -26 -6 -34q0 -39 23 -59.5t151 -28.5l-17 -66h-600l17 66q137 8 172 39t47 83l237 1037q7 31 7 41q0 44 -42 62.5t-124 25.5l14 65h639q181 0 285 -70.5t104 -199.5q0 -351 -448 -459q72 -141 158 -299q37 -68 83 -158
q38 -71 85.5 -115.5t162.5 -51.5zM686 1343l-139 -616h141q163 0 279 114.5t116 284.5q0 105 -64 161t-173 56h-160zM535 -444l8 57q166 7 197 129h-53q-111 0 -111 76q0 43 36 79.5t95 36.5q57 0 93 -35.5t36 -95.5q0 -118 -85 -182.5t-216 -64.5z" />
    <glyph glyph-name="uni0157" unicode="&#x157;" horiz-adv-x="944" 
d="M760 905q-134 0 -299 -188l-162 -717h-186l145 647q25 112 25 144q0 56 -20 75t-75 19q-42 0 -108 -21l14 66q150 67 242 67q147 0 147 -174h6l95 80q123 107 215 107q155 0 155 -164q0 -72 -35.5 -122t-97.5 -50q-106 0 -106 86q0 49 45 145zM72 -444l8 57
q166 7 197 129h-53q-111 0 -111 76q0 43 36 79.5t95 36.5q57 0 93 -35.5t36 -95.5q0 -118 -85 -182.5t-216 -64.5z" />
    <glyph glyph-name="Rcaron" unicode="&#x158;" horiz-adv-x="1438" 
d="M1354 0h-359q-77 197 -319 645h-150l-104 -457q-6 -26 -6 -34q0 -39 23 -59.5t151 -28.5l-17 -66h-600l17 66q137 8 172 39t47 83l237 1037q7 31 7 41q0 44 -42 62.5t-124 25.5l14 65h639q181 0 285 -70.5t104 -199.5q0 -351 -448 -459q72 -141 158 -299q37 -68 83 -158
q38 -71 85.5 -115.5t162.5 -51.5zM686 1343l-139 -616h141q163 0 279 114.5t116 284.5q0 105 -64 161t-173 56h-160zM1202 1837l-289 -285q-35 -35 -51.5 -40t-48.5 -5q-51 0 -80 41l-180 289l49 33l233 -213l322 213z" />
    <glyph glyph-name="rcaron" unicode="&#x159;" horiz-adv-x="944" 
d="M760 905q-134 0 -299 -188l-162 -717h-186l145 647q25 112 25 144q0 56 -20 75t-75 19q-42 0 -108 -21l14 66q150 67 242 67q147 0 147 -174h6l95 80q123 107 215 107q155 0 155 -164q0 -72 -35.5 -122t-97.5 -50q-106 0 -106 86q0 49 45 145zM616 1163
q-25 -28 -40.5 -36.5t-55.5 -8.5q-62 0 -78 41l-172 350l49 33l223 -272l330 272l47 -33z" />
    <glyph glyph-name="Sacute" unicode="&#x15a;" horiz-adv-x="1149" 
d="M1098 948h-80q-9 242 -83.5 331t-223.5 89q-118 0 -198.5 -80t-80.5 -194q0 -107 52 -158.5t205 -107.5q243 -91 309.5 -180.5t66.5 -188.5q0 -209 -165 -348.5t-406 -139.5q-214 0 -365 101l-57 -72h-80l96 485h82q24 -432 358 -432q151 0 240.5 83.5t89.5 223.5
q0 100 -51 158t-175 104q-160 57 -235 97.5t-123.5 116t-48.5 174.5q0 183 152 311.5t358 128.5q191 0 330 -98l53 67h80zM608 1507l-26 39q91 77 282 262q57 60 123 60q37 0 60.5 -20.5t23.5 -51.5q0 -78 -100 -122t-363 -167z" />
    <glyph glyph-name="sacute" unicode="&#x15b;" horiz-adv-x="883" 
d="M592 924l-18 7q-18 7 -56 7q-92 0 -145.5 -49t-53.5 -127q0 -61 36.5 -98t158.5 -82q153 -57 206.5 -120t53.5 -149q0 -148 -117 -245t-295 -97q-143 0 -244.5 52t-101.5 139q0 41 29 74.5t72 33.5q91 0 128 -120q10 -32 21 -62q46 -45 119 -45q217 0 217 199
q0 61 -44.5 103t-162.5 81q-245 84 -245 268q0 129 113.5 222.5t281.5 93.5q132 0 214.5 -39.5t82.5 -116.5q0 -41 -29 -75t-72 -34q-90 0 -127 118q-10 32 -22 61zM430 1110l-35 33q130 172 219 307q57 88 137 88q35 0 56.5 -22t21.5 -50q0 -54 -39.5 -88.5t-244.5 -182.5
q-50 -36 -115 -85z" />
    <glyph glyph-name="Scircumflex" unicode="&#x15c;" horiz-adv-x="1149" 
d="M1098 948h-80q-9 242 -83.5 331t-223.5 89q-118 0 -198.5 -80t-80.5 -194q0 -107 52 -158.5t205 -107.5q243 -91 309.5 -180.5t66.5 -188.5q0 -209 -165 -348.5t-406 -139.5q-214 0 -365 101l-57 -72h-80l96 485h82q24 -432 358 -432q151 0 240.5 83.5t89.5 223.5
q0 100 -51 158t-175 104q-160 57 -235 97.5t-123.5 116t-48.5 174.5q0 183 152 311.5t358 128.5q191 0 330 -98l53 67h80zM1079 1538l-49 -31l-236 211l-319 -211l-47 31l291 285q46 45 100 45q57 0 80 -41z" />
    <glyph glyph-name="scircumflex" unicode="&#x15d;" horiz-adv-x="883" 
d="M592 924l-18 7q-18 7 -56 7q-92 0 -145.5 -49t-53.5 -127q0 -61 36.5 -98t158.5 -82q153 -57 206.5 -120t53.5 -149q0 -148 -117 -245t-295 -97q-143 0 -244.5 52t-101.5 139q0 41 29 74.5t72 33.5q91 0 128 -120q10 -32 21 -62q46 -45 119 -45q217 0 217 199
q0 61 -44.5 103t-162.5 81q-245 84 -245 268q0 129 113.5 222.5t281.5 93.5q132 0 214.5 -39.5t82.5 -116.5q0 -41 -29 -75t-72 -34q-90 0 -127 118q-10 32 -22 61zM826 1118l-226 273l-329 -273l-48 33l304 346q25 29 41 37t57 8q53 0 78 -41l172 -350z" />
    <glyph glyph-name="Scedilla" unicode="&#x15e;" horiz-adv-x="1149" 
d="M1098 948h-80q-9 242 -83.5 331t-223.5 89q-118 0 -198.5 -80t-80.5 -194q0 -107 52 -158.5t205 -107.5q243 -91 309.5 -180.5t66.5 -188.5q0 -209 -165 -348.5t-406 -139.5q-214 0 -365 101l-57 -72h-80l96 485h82q24 -432 358 -432q151 0 240.5 83.5t89.5 223.5
q0 100 -51 158t-175 104q-160 57 -235 97.5t-123.5 116t-48.5 174.5q0 183 152 311.5t358 128.5q191 0 330 -98l53 67h80zM296 -444l15 71q174 0 222 26t48 73q0 67 -153 67l45 223h77l-24 -114q93 0 150 -33.5t57 -93.5q0 -219 -437 -219z" />
    <glyph glyph-name="scedilla" unicode="&#x15f;" horiz-adv-x="883" 
d="M592 924l-18 7q-18 7 -56 7q-92 0 -145.5 -49t-53.5 -127q0 -61 36.5 -98t158.5 -82q153 -57 206.5 -120t53.5 -149q0 -148 -117 -245t-295 -97q-143 0 -244.5 52t-101.5 139q0 41 29 74.5t72 33.5q91 0 128 -120q10 -32 21 -62q46 -45 119 -45q217 0 217 199
q0 61 -44.5 103t-162.5 81q-245 84 -245 268q0 129 113.5 222.5t281.5 93.5q132 0 214.5 -39.5t82.5 -116.5q0 -41 -29 -75t-72 -34q-90 0 -127 118q-10 32 -22 61zM174 -444l15 71q174 0 222 26t48 73q0 67 -153 67l45 223h77l-24 -114q93 0 150 -33.5t57 -93.5
q0 -219 -437 -219z" />
    <glyph glyph-name="Scaron" unicode="&#x160;" horiz-adv-x="1149" 
d="M1098 948h-80q-9 242 -83.5 331t-223.5 89q-118 0 -198.5 -80t-80.5 -194q0 -107 52 -158.5t205 -107.5q243 -91 309.5 -180.5t66.5 -188.5q0 -209 -165 -348.5t-406 -139.5q-214 0 -365 101l-57 -72h-80l96 485h82q24 -432 358 -432q151 0 240.5 83.5t89.5 223.5
q0 100 -51 158t-175 104q-160 57 -235 97.5t-123.5 116t-48.5 174.5q0 183 152 311.5t358 128.5q191 0 330 -98l53 67h80zM1139 1837l-289 -285q-35 -35 -51.5 -40t-48.5 -5q-51 0 -80 41l-180 289l49 33l233 -213l322 213z" />
    <glyph glyph-name="scaron" unicode="&#x161;" horiz-adv-x="883" 
d="M592 924l-18 7q-18 7 -56 7q-92 0 -145.5 -49t-53.5 -127q0 -61 36.5 -98t158.5 -82q153 -57 206.5 -120t53.5 -149q0 -148 -117 -245t-295 -97q-143 0 -244.5 52t-101.5 139q0 41 29 74.5t72 33.5q91 0 128 -120q10 -32 21 -62q46 -45 119 -45q217 0 217 199
q0 61 -44.5 103t-162.5 81q-245 84 -245 268q0 129 113.5 222.5t281.5 93.5q132 0 214.5 -39.5t82.5 -116.5q0 -41 -29 -75t-72 -34q-90 0 -127 118q-10 32 -22 61zM641 1163q-25 -28 -40.5 -36.5t-55.5 -8.5q-62 0 -78 41l-172 350l49 33l223 -272l330 272l47 -33z" />
    <glyph glyph-name="uni0162" unicode="&#x162;" horiz-adv-x="1268" 
d="M1366 1034h-70q-6 121 -40.5 201.5t-80.5 95.5t-186 15h-61l-264 -1145q-5 -22 -5 -35q0 -50 45 -68.5t156 -31.5l-16 -66h-670l16 66q150 11 194.5 33.5t64.5 93.5l266 1153h-53q-143 0 -191.5 -16t-132.5 -106.5t-137 -189.5h-72l90 385h1235zM305 -444l15 71
q174 0 222 26t48 73q0 67 -153 67l45 223h77l-24 -114q93 0 150 -33.5t57 -93.5q0 -219 -437 -219z" />
    <glyph glyph-name="uni0163" unicode="&#x163;" horiz-adv-x="711" 
d="M752 887h-279l-127 -551q-20 -87 -20 -135q0 -56 27 -81.5t100 -25.5t145 25l-16 -74q-161 -65 -279 -65q-182 0 -182 149q0 42 10 88l156 670h-178l20 90h182l70 293h180l-67 -293h278zM57 -444l15 71q174 0 222 26t48 73q0 67 -153 67l45 223h77l-24 -114
q93 0 150 -33.5t57 -93.5q0 -219 -437 -219z" />
    <glyph glyph-name="Tcaron" unicode="&#x164;" horiz-adv-x="1268" 
d="M1366 1034h-70q-6 121 -40.5 201.5t-80.5 95.5t-186 15h-61l-264 -1145q-5 -22 -5 -35q0 -50 45 -68.5t156 -31.5l-16 -66h-670l16 66q150 11 194.5 33.5t64.5 93.5l266 1153h-53q-143 0 -191.5 -16t-132.5 -106.5t-137 -189.5h-72l90 385h1235zM1231 1837l-289 -285
q-35 -35 -51.5 -40t-48.5 -5q-51 0 -80 41l-180 289l49 33l233 -213l322 213z" />
    <glyph glyph-name="tcaron" unicode="&#x165;" horiz-adv-x="711" 
d="M657 1133q193 84 228 204h-37q-119 0 -119 90q0 49 39.5 90.5t99.5 41.5q133 0 133 -127q0 -220 -319 -359zM752 887h-279l-127 -551q-20 -87 -20 -135q0 -56 27 -81.5t100 -25.5t145 25l-16 -74q-161 -65 -279 -65q-182 0 -182 149q0 42 10 88l156 670h-178l20 90h182
l70 293h180l-67 -293h278z" />
    <glyph glyph-name="Tbar" unicode="&#x166;" horiz-adv-x="1268" 
d="M664 201q-5 -22 -5 -35q0 -50 45 -68.5t156 -31.5l-16 -66h-670l16 66q150 11 194.5 33.5t64.5 93.5l114 501h-311l20 88h312l131 564h-53q-143 0 -191.5 -16t-132.5 -106.5t-137 -189.5h-72l90 385h1235l-88 -385h-70q-6 121 -40.5 201.5t-80.5 95.5t-186 15h-61
l-131 -564h311l-21 -88h-311z" />
    <glyph glyph-name="tbar" unicode="&#x167;" horiz-adv-x="711" 
d="M346 336q-20 -85 -20 -135q0 -56 27 -81.5t100 -25.5t145 25l-16 -74q-161 -65 -279 -65q-182 0 -182 149q0 42 10 88l62 268h-170l20 80h170l74 322h-178l20 90h182l70 293h180l-67 -293h278l-20 -90h-279l-74 -322h234l-21 -80h-231z" />
    <glyph glyph-name="Utilde" unicode="&#x168;" horiz-adv-x="1548" 
d="M1720 1354q-115 -10 -182 -49t-121 -273l-97 -430q-51 -227 -88 -310.5t-117 -159.5t-198 -121.5t-258 -45.5q-209 0 -327.5 89.5t-118.5 238.5q0 47 8 82l197 844q4 17 4 32q0 78 -133 99q-16 2 -27 4l17 65h589l-16 -65q-110 -9 -156.5 -32.5t-62.5 -92.5l-182 -791
q-15 -65 -15 -119q0 -245 285 -245q103 0 187.5 33t146.5 95t89 125t71 247.5t86 379t42 267.5q0 59 -42.5 88.5t-159.5 44.5l16 65h580zM1413 1842q-28 -101 -98.5 -172.5t-155.5 -71.5q-82 0 -174 51q-93 51 -138 51q-41 0 -66.5 -21.5t-74.5 -113.5l-57 25
q36 105 103 174t147 69q76 0 170 -51t129 -51q50 0 82 17t71 116z" />
    <glyph glyph-name="utilde" unicode="&#x169;" horiz-adv-x="1178" 
d="M1108 51q-161 -67 -242 -67q-73 0 -116 42t-43 113h-7q-188 -164 -358 -164q-97 0 -150 55t-53 146q0 62 23 156l78 315q22 89 22 144q0 59 -20 76.5t-72 17.5q-38 0 -111 -23l17 66q152 69 231 69q156 0 156 -143q0 -53 -17 -111l-88 -370q-22 -92 -22 -133
q0 -146 121 -146q134 0 266 135l174 752l174 12l12 -14l-147 -643q-27 -118 -27 -141q0 -57 25 -78t82 -21q52 0 106 19zM1088 1473q-28 -101 -98.5 -172.5t-155.5 -71.5q-82 0 -174 51q-93 51 -138 51q-41 0 -66.5 -21.5t-74.5 -113.5l-57 25q36 105 103 174t147 69
q76 0 170 -51t129 -51q50 0 82 17t71 116z" />
    <glyph glyph-name="Umacron" unicode="&#x16a;" horiz-adv-x="1548" 
d="M1720 1354q-115 -10 -182 -49t-121 -273l-97 -430q-51 -227 -88 -310.5t-117 -159.5t-198 -121.5t-258 -45.5q-209 0 -327.5 89.5t-118.5 238.5q0 47 8 82l197 844q4 17 4 32q0 78 -133 99q-16 2 -27 4l17 65h589l-16 -65q-110 -9 -156.5 -32.5t-62.5 -92.5l-182 -791
q-15 -65 -15 -119q0 -245 285 -245q103 0 187.5 33t146.5 95t89 125t71 247.5t86 379t42 267.5q0 59 -42.5 88.5t-159.5 44.5l16 65h580zM1376 1661h-686l29 123h686z" />
    <glyph glyph-name="umacron" unicode="&#x16b;" horiz-adv-x="1178" 
d="M1108 51q-161 -67 -242 -67q-73 0 -116 42t-43 113h-7q-188 -164 -358 -164q-97 0 -150 55t-53 146q0 62 23 156l78 315q22 89 22 144q0 59 -20 76.5t-72 17.5q-38 0 -111 -23l17 66q152 69 231 69q156 0 156 -143q0 -53 -17 -111l-88 -370q-22 -92 -22 -133
q0 -146 121 -146q134 0 266 135l174 752l174 12l12 -14l-147 -643q-27 -118 -27 -141q0 -57 25 -78t82 -21q52 0 106 19zM1038 1296h-686l29 123h686z" />
    <glyph glyph-name="Ubreve" unicode="&#x16c;" horiz-adv-x="1548" 
d="M1720 1354q-115 -10 -182 -49t-121 -273l-97 -430q-51 -227 -88 -310.5t-117 -159.5t-198 -121.5t-258 -45.5q-209 0 -327.5 89.5t-118.5 238.5q0 47 8 82l197 844q4 17 4 32q0 78 -133 99q-16 2 -27 4l17 65h589l-16 -65q-110 -9 -156.5 -32.5t-62.5 -92.5l-182 -791
q-15 -65 -15 -119q0 -245 285 -245q103 0 187.5 33t146.5 95t89 125t71 247.5t86 379t42 267.5q0 59 -42.5 88.5t-159.5 44.5l16 65h580zM1386 1851q-117 -321 -379 -321q-258 0 -258 297v24l55 17q17 -103 68 -148t162 -45q121 0 185.5 52.5t111.5 140.5z" />
    <glyph glyph-name="ubreve" unicode="&#x16d;" horiz-adv-x="1178" 
d="M1108 51q-161 -67 -242 -67q-73 0 -116 42t-43 113h-7q-188 -164 -358 -164q-97 0 -150 55t-53 146q0 62 23 156l78 315q22 89 22 144q0 59 -20 76.5t-72 17.5q-38 0 -111 -23l17 66q152 69 231 69q156 0 156 -143q0 -53 -17 -111l-88 -370q-22 -92 -22 -133
q0 -146 121 -146q134 0 266 135l174 752l174 12l12 -14l-147 -643q-27 -118 -27 -141q0 -57 25 -78t82 -21q52 0 106 19zM1026 1495q-120 -369 -377 -369q-114 0 -181 75t-67 294l52 12q15 -129 67.5 -179t151.5 -50q96 0 163.5 47t133.5 182z" />
    <glyph glyph-name="Uring" unicode="&#x16e;" horiz-adv-x="1548" 
d="M1720 1354q-115 -10 -182 -49t-121 -273l-97 -430q-51 -227 -88 -310.5t-117 -159.5t-198 -121.5t-258 -45.5q-209 0 -327.5 89.5t-118.5 238.5q0 47 8 82l197 844q4 17 4 32q0 78 -133 99q-16 2 -27 4l17 65h589l-16 -65q-110 -9 -156.5 -32.5t-62.5 -92.5l-182 -791
q-15 -65 -15 -119q0 -245 285 -245q103 0 187.5 33t146.5 95t89 125t71 247.5t86 379t42 267.5q0 59 -42.5 88.5t-159.5 44.5l16 65h580zM1010 1419q-105 0 -164 49.5t-59 132.5q0 112 86 187.5t213 75.5q101 0 162 -52t61 -135q0 -107 -84 -182.5t-215 -75.5zM1075 1804
q-71 0 -117.5 -59t-46.5 -142q0 -124 109 -124q74 0 118 58.5t44 139.5q0 127 -107 127z" />
    <glyph glyph-name="uring" unicode="&#x16f;" horiz-adv-x="1178" 
d="M1108 51q-161 -67 -242 -67q-73 0 -116 42t-43 113h-7q-188 -164 -358 -164q-97 0 -150 55t-53 146q0 62 23 156l78 315q22 89 22 144q0 59 -20 76.5t-72 17.5q-38 0 -111 -23l17 66q152 69 231 69q156 0 156 -143q0 -53 -17 -111l-88 -370q-22 -92 -22 -133
q0 -146 121 -146q134 0 266 135l174 752l174 12l12 -14l-147 -643q-27 -118 -27 -141q0 -57 25 -78t82 -21q52 0 106 19zM668 1114q-105 0 -164 49.5t-59 132.5q0 112 86 187.5t213 75.5q101 0 162 -52t61 -135q0 -107 -84 -182.5t-215 -75.5zM733 1499q-71 0 -117.5 -59
t-46.5 -142q0 -124 109 -124q74 0 118 58.5t44 139.5q0 127 -107 127z" />
    <glyph glyph-name="Uhungarumlaut" unicode="&#x170;" horiz-adv-x="1548" 
d="M1720 1354q-115 -10 -182 -49t-121 -273l-97 -430q-51 -227 -88 -310.5t-117 -159.5t-198 -121.5t-258 -45.5q-209 0 -327.5 89.5t-118.5 238.5q0 47 8 82l197 844q4 17 4 32q0 78 -133 99q-16 2 -27 4l17 65h589l-16 -65q-110 -9 -156.5 -32.5t-62.5 -92.5l-182 -791
q-15 -65 -15 -119q0 -245 285 -245q103 0 187.5 33t146.5 95t89 125t71 247.5t86 379t42 267.5q0 59 -42.5 88.5t-159.5 44.5l16 65h580zM702 1507l-24 35l257 262q61 64 107 64q78 0 78 -76q0 -70 -94 -115q-172 -82 -324 -170zM1087 1507l-24 35l274 274q52 52 94 52
q76 0 76 -76q0 -71 -92 -115q-252 -121 -328 -170z" />
    <glyph glyph-name="uhungarumlaut" unicode="&#x171;" horiz-adv-x="1178" 
d="M1108 51q-161 -67 -242 -67q-73 0 -116 42t-43 113h-7q-188 -164 -358 -164q-97 0 -150 55t-53 146q0 62 23 156l78 315q22 89 22 144q0 59 -20 76.5t-72 17.5q-38 0 -111 -23l17 66q152 69 231 69q156 0 156 -143q0 -53 -17 -111l-88 -370q-22 -92 -22 -133
q0 -146 121 -146q134 0 266 135l174 752l174 12l12 -14l-147 -643q-27 -118 -27 -141q0 -57 25 -78t82 -21q52 0 106 19zM778 1110l-33 29q130 176 211 307q59 92 119 92q34 0 56 -22t22 -50q0 -53 -33.5 -83t-341.5 -273zM426 1110l-37 29q112 159 199 307q52 92 116 92
q32 0 53 -22t21 -50q0 -47 -25 -78t-327 -278z" />
    <glyph glyph-name="Uogonek" unicode="&#x172;" horiz-adv-x="1548" 
d="M1720 1354q-115 -10 -182 -49t-121 -273l-97 -430q-51 -227 -88 -310.5t-117 -159.5t-198 -121.5t-258 -45.5q-209 0 -327.5 89.5t-118.5 238.5q0 47 8 82l197 844q4 17 4 32q0 78 -133 99q-16 2 -27 4l17 65h589l-16 -65q-110 -9 -156.5 -32.5t-62.5 -92.5l-182 -791
q-15 -65 -15 -119q0 -245 285 -245q103 0 187.5 33t146.5 95t89 125t71 247.5t86 379t42 267.5q0 59 -42.5 88.5t-159.5 44.5l16 65h580zM979 -444h-114q-238 0 -238 157q0 177 291 326h61q-190 -132 -190 -295q0 -117 203 -117z" />
    <glyph glyph-name="uogonek" unicode="&#x173;" horiz-adv-x="1178" 
d="M1108 51q-161 -67 -242 -67q-73 0 -116 42t-43 113h-7q-188 -164 -358 -164q-97 0 -150 55t-53 146q0 62 23 156l78 315q22 89 22 144q0 59 -20 76.5t-72 17.5q-38 0 -111 -23l17 66q152 69 231 69q156 0 156 -143q0 -53 -17 -111l-88 -370q-22 -92 -22 -133
q0 -146 121 -146q134 0 266 135l174 752l174 12l12 -14l-147 -643q-27 -118 -27 -141q0 -57 25 -78t82 -21q52 0 106 19zM925 -444h-114q-238 0 -238 157q0 177 291 326h61q-190 -132 -190 -295q0 -117 203 -117z" />
    <glyph glyph-name="Wcircumflex" unicode="&#x174;" horiz-adv-x="1999" 
d="M2218 1354q-75 -5 -134 -41.5t-87.5 -80.5t-259.5 -475l-414 -775h-90l-117 1093l-620 -1093h-88l-65 1243q-8 113 -161 129l15 65h571l-14 -65q-201 -12 -201 -72q0 -35 47 -944l596 1061h92l119 -1084q463 887 463 963q0 64 -176 76l14 65h524zM1571 1538l-49 -31
l-236 211l-319 -211l-47 31l291 285q46 45 100 45q57 0 80 -41z" />
    <glyph glyph-name="wcircumflex" unicode="&#x175;" horiz-adv-x="1683" 
d="M737 166q-192 -195 -340 -195q-123 0 -189.5 68.5t-66.5 193.5q0 50 15 99l84 315q22 83 22 144q0 59 -20 76.5t-72 17.5q-38 0 -111 -23l17 66q152 69 231 69q156 0 156 -143q0 -53 -17 -111l-92 -368q-20 -80 -20 -135q0 -152 131 -152q139 0 258 135l176 758l174 12
l12 -14l-141 -608q-22 -95 -22 -129q0 -156 170 -156q142 0 266.5 160.5t124.5 365.5q0 88 -53 151q-54 63 -54 130q0 51 35 84t84 33q127 0 127 -187q0 -331 -177 -592.5t-427 -261.5q-98 0 -176.5 53.5t-104.5 143.5zM1248 1118l-226 273l-329 -273l-48 33l304 346
q25 29 41 37t57 8q53 0 78 -41l172 -350z" />
    <glyph glyph-name="Ycircumflex" unicode="&#x176;" horiz-adv-x="1260" 
d="M1501 1354q-49 -6 -105.5 -32.5t-123 -90t-264.5 -308.5t-234.5 -300t-56.5 -144l-64 -276q-4 -17 -4 -35q0 -65 74 -81.5t125 -20.5l-14 -66h-664l14 66q145 10 190.5 32t63.5 95l72 311q8 35 8 49q0 47 -49 208l-104 344q-55 182 -109 213.5t-113 35.5l17 65h581
l-16 -65q-129 -5 -163 -18.5t-34 -37.5q0 -42 183 -610q458 554 458 600q0 54 -172 66l17 65h504zM1204 1538l-49 -31l-236 211l-319 -211l-47 31l291 285q46 45 100 45q57 0 80 -41z" />
    <glyph glyph-name="ycircumflex" unicode="&#x177;" horiz-adv-x="1147" 
d="M913 197q-72 -327 -226.5 -484t-405.5 -157q-263 0 -263 141q0 45 27 76.5t74 31.5q91 0 162 -182h24q141 0 251 132.5t161 389.5h-6q-191 -165 -365 -165q-94 0 -150.5 54t-56.5 146q0 62 23 156l78 311q22 88 22 144q0 59 -20 76.5t-72 17.5q-38 0 -111 -23l17 66
q152 69 231 69q158 0 158 -143q0 -51 -16 -111l-91 -364q-24 -96 -24 -135q0 -146 129 -146q140 0 272 135l166 748l172 12l12 -14zM959 1118l-226 273l-329 -273l-48 33l304 346q25 29 41 37t57 8q53 0 78 -41l172 -350z" />
    <glyph glyph-name="Ydieresis" unicode="&#x178;" horiz-adv-x="1260" 
d="M1501 1354q-49 -6 -105.5 -32.5t-123 -90t-264.5 -308.5t-234.5 -300t-56.5 -144l-64 -276q-4 -17 -4 -35q0 -65 74 -81.5t125 -20.5l-14 -66h-664l14 66q145 10 190.5 32t63.5 95l72 311q8 35 8 49q0 47 -49 208l-104 344q-55 182 -109 213.5t-113 35.5l17 65h581
l-16 -65q-129 -5 -163 -18.5t-34 -37.5q0 -42 183 -610q458 554 458 600q0 54 -172 66l17 65h504zM1155 1608q-49 0 -83.5 35.5t-34.5 87.5q0 51 34.5 86.5t83.5 35.5q50 0 83.5 -35.5t33.5 -86.5q0 -52 -33.5 -87.5t-83.5 -35.5zM705 1608q-49 0 -84 35.5t-35 87.5
q0 51 35 86.5t84 35.5t84 -35.5t35 -86.5q0 -52 -35 -87.5t-84 -35.5z" />
    <glyph glyph-name="Zacute" unicode="&#x179;" horiz-adv-x="1233" 
d="M1378 1384l-1171 -1308h321q89 0 167 9.5t122 27.5t138 116t173 213h70l-149 -442h-1139l8 35l1174 1308h-314q-159 0 -222.5 -33t-147.5 -116t-148 -176h-70l136 401h1060zM696 1507l-26 39q91 77 282 262q57 60 123 60q37 0 60.5 -20.5t23.5 -51.5q0 -78 -100 -122
t-363 -167z" />
    <glyph glyph-name="zacute" unicode="&#x17a;" horiz-adv-x="909" 
d="M922 920l-715 -840l90 -2q294 -7 332.5 28t136.5 242h59l-67 -348h-785l17 70l702 829h-131q-202 0 -251.5 -34t-112.5 -189h-62l60 303h739zM469 1110l-35 33q130 172 219 307q57 88 137 88q35 0 56.5 -22t21.5 -50q0 -54 -39.5 -88.5t-244.5 -182.5q-50 -36 -115 -85z
" />
    <glyph glyph-name="Zdotaccent" unicode="&#x17b;" horiz-adv-x="1233" 
d="M1378 1384l-1171 -1308h321q89 0 167 9.5t122 27.5t138 116t173 213h70l-149 -442h-1139l8 35l1174 1308h-314q-159 0 -222.5 -33t-147.5 -116t-148 -176h-70l136 401h1060zM844 1597q-52 0 -89.5 39t-37.5 92q0 55 37 95t90 40q54 0 91.5 -37t37.5 -90q0 -56 -37 -97.5
t-92 -41.5z" />
    <glyph glyph-name="zdotaccent" unicode="&#x17c;" horiz-adv-x="909" 
d="M922 920l-715 -840l90 -2q294 -7 332.5 28t136.5 242h59l-67 -348h-785l17 70l702 829h-131q-202 0 -251.5 -34t-112.5 -189h-62l60 303h739zM578 1247q-52 0 -89.5 39t-37.5 92q0 55 37 95t90 40q54 0 91.5 -37t37.5 -90q0 -56 -37 -97.5t-92 -41.5z" />
    <glyph glyph-name="Zcaron" unicode="&#x17d;" horiz-adv-x="1233" 
d="M1378 1384l-1171 -1308h321q89 0 167 9.5t122 27.5t138 116t173 213h70l-149 -442h-1139l8 35l1174 1308h-314q-159 0 -222.5 -33t-147.5 -116t-148 -176h-70l136 401h1060zM1190 1837l-289 -285q-35 -35 -51.5 -40t-48.5 -5q-51 0 -80 41l-180 289l49 33l233 -213
l322 213z" />
    <glyph glyph-name="zcaron" unicode="&#x17e;" horiz-adv-x="909" 
d="M922 920l-715 -840l90 -2q294 -7 332.5 28t136.5 242h59l-67 -348h-785l17 70l702 829h-131q-202 0 -251.5 -34t-112.5 -189h-62l60 303h739zM620 1163q-25 -28 -40.5 -36.5t-55.5 -8.5q-62 0 -78 41l-172 350l49 33l223 -272l330 272l47 -33z" />
    <glyph glyph-name="longs" unicode="&#x17f;" horiz-adv-x="602" 
d="M713 1466q-139 -5 -219 -383l-213 -1024q-45 -215 -194.5 -359t-313.5 -144q-172 0 -172 118q0 44 27 76.5t73 32.5q74 0 130 -95q15 -26 30 -50q145 10 225 385l213 1021q46 221 189.5 362.5t310.5 141.5q87 0 129.5 -33.5t42.5 -82.5q0 -48 -28 -78.5t-75 -30.5
q-70 0 -125 95q-15 25 -30 48z" />
    <glyph glyph-name="florin" unicode="&#x192;" horiz-adv-x="1063" 
d="M854 1239q-165 -26 -242 -401l-24 -121h264l-21 -92h-256l-60 -311q-34 -173 -82 -299.5t-121.5 -213.5t-162.5 -128.5t-184 -41.5q-90 0 -140 37.5t-50 98.5q0 40 29.5 72t76.5 32q89 0 156 -172q84 3 159 146t189 780h-215l20 92h205q56 283 197 436.5t338 153.5
q91 0 139.5 -38.5t48.5 -99.5q0 -42 -28.5 -74t-77.5 -32q-96 0 -158 176z" />
    <glyph glyph-name="Aringacute" unicode="&#x1fa;" horiz-adv-x="1374" 
d="M723 0l14 66q141 16 170 32.5t29 42.5q0 40 -55 353h-469l-82 -123q-27 -40 -39 -60l-27 -43q-51 -102 -51 -125q0 -62 186 -77l-14 -66h-545l15 66q93 8 152.5 45t121.5 131l332 481q106 154 336 500q-156 31 -156 168q0 122 115 190l293 229q74 58 118 58q82 0 82 -70
q0 -83 -119 -123q-79 -27 -133 -51q76 -12 120 -60t44 -114q0 -75 -53 -136t-139 -83l172 -1020q23 -135 176 -145l-14 -66h-580zM930 1573q-71 0 -116.5 -52t-45.5 -128q0 -117 106 -117q70 0 114 48t44 128q0 121 -102 121zM866 575l-80 478l-319 -478h399z" />
    <glyph glyph-name="aringacute" unicode="&#x1fb;" horiz-adv-x="1174" 
d="M549 1483l-27 39q218 179 303 258q74 63 125 63q80 0 80 -65q0 -70 -64.5 -104.5t-416.5 -190.5zM561 999q-141 42 -141 172q0 111 86.5 187t214.5 76q99 0 160 -52t61 -135q0 -85 -55 -153t-154 -93q83 -14 148 -55l184 47l10 -14l-151 -645q-25 -107 -25 -141
q0 -57 24.5 -77t80.5 -20q54 0 108 19l-14 -64q-159 -67 -242 -67q-71 0 -114.5 42t-45.5 105h-8q-177 -160 -307 -160q-145 0 -228 103.5t-83 285.5q0 219 140.5 407t350.5 232zM709 1374q-70 0 -116 -58.5t-46 -141.5q0 -125 108 -125q71 0 115.5 57t44.5 141
q0 127 -106 127zM840 764q9 40 -28 107t-153 67q-146 0 -264.5 -177.5t-118.5 -402.5q0 -148 44 -211t137 -63q113 0 256 141z" />
    <glyph glyph-name="AEacute" unicode="&#x1fc;" horiz-adv-x="1989" 
d="M1960 1077h-76q-7 105 -40 170t-76.5 82t-200.5 17h-219l-131 -572h149q118 0 181 56t106 178h76l-130 -555h-73q4 28 4 59q0 100 -32.5 142t-149.5 42h-150l-98 -432q-15 -66 -15 -96q0 -57 37 -73.5t166 -16.5q151 0 214 10t100 34t117 124t122 172h74l-123 -418h-1169
l16 66q150 11 183 38.5t46 83.5l97 416h-476q-311 -384 -311 -454q0 -74 150 -84l-15 -66h-536l14 66q119 19 177.5 62.5t226 250t753.5 952.5q-29 16 -168 23l17 65h1241zM1065 1335l-510 -647h428l150 647h-68zM1263 1507l-26 39q91 77 282 262q57 60 123 60
q37 0 60.5 -20.5t23.5 -51.5q0 -78 -100 -122t-363 -167z" />
    <glyph glyph-name="aeacute" unicode="&#x1fd;" horiz-adv-x="1565" 
d="M866 428q0 -172 54 -258t178 -86q179 0 325 199l58 -43q-81 -123 -202 -196t-247 -73q-244 0 -327 197h-7q-178 -195 -415 -195q-108 0 -173 55t-65 148q0 167 145.5 264.5t520.5 151.5q37 148 37 186q0 69 -41 114.5t-119 45.5q-87 0 -174 -51v-30q0 -73 -6.5 -104
t-43 -60t-96.5 -29q-78 0 -78 84q0 99 137 180.5t279 81.5q243 0 301 -125q157 125 334 125q137 0 211 -55.5t74 -153.5q0 -320 -660 -373zM872 500q469 20 469 325q0 113 -118 113q-115 0 -219.5 -127.5t-131.5 -310.5zM686 510q-207 -20 -321.5 -98t-114.5 -203
q0 -123 129 -123q179 0 303 158q-8 45 -8 108q0 74 12 158zM846 1110l-35 33q130 172 219 307q57 88 137 88q35 0 56.5 -22t21.5 -50q0 -54 -39.5 -88.5t-244.5 -182.5q-50 -36 -115 -85z" />
    <glyph glyph-name="Oslashacute" unicode="&#x1fe;" horiz-adv-x="1524" 
d="M1370 1235q107 -153 107 -363q0 -372 -251.5 -639.5t-574.5 -267.5q-247 0 -405 168l-170 -166l-49 51l176 172q-103 147 -103 351q0 372 249 641.5t577 269.5q248 0 397 -162l139 137l56 -51zM1202 1171q-80 199 -295 199q-252 0 -412.5 -269.5t-160.5 -606.5
q0 -89 12 -162zM1229 1098l-858 -842q81 -207 299 -207q248 0 410.5 264t162.5 619q0 103 -14 166zM733 1507l-26 39q91 77 282 262q57 60 123 60q37 0 60.5 -20.5t23.5 -51.5q0 -78 -100 -122t-363 -167z" />
    <glyph glyph-name="oslashacute" unicode="&#x1ff;" horiz-adv-x="1100" 
d="M977 838q55 -94 55 -222q0 -262 -166 -454.5t-426 -192.5q-172 0 -280 123l-137 -127l-48 45l148 135q-55 88 -55 220q0 268 167 456.5t418 188.5q181 0 285 -119l131 119l45 -45zM819 782q-41 156 -186 156q-86 0 -161 -54t-129 -173.5t-64.5 -213.5t-10.5 -223z
M831 709l-550 -506q36 -162 188 -162q70 0 134 38t118 122.5t80 192t28.5 183t1.5 132.5zM506 1110l-35 33q130 172 219 307q57 88 137 88q35 0 56.5 -22t21.5 -50q0 -54 -39.5 -88.5t-244.5 -182.5q-50 -36 -115 -85z" />
    <glyph glyph-name="uni0218" unicode="&#x218;" horiz-adv-x="1149" 
d="M1098 948h-80q-9 242 -83.5 331t-223.5 89q-118 0 -198.5 -80t-80.5 -194q0 -107 52 -158.5t205 -107.5q243 -91 309.5 -180.5t66.5 -188.5q0 -209 -165 -348.5t-406 -139.5q-214 0 -365 101l-57 -72h-80l96 485h82q24 -432 358 -432q151 0 240.5 83.5t89.5 223.5
q0 100 -51 158t-175 104q-160 57 -235 97.5t-123.5 116t-48.5 174.5q0 183 152 311.5t358 128.5q191 0 330 -98l53 67h80zM340 -444l8 57q166 7 197 129h-53q-111 0 -111 76q0 43 36 79.5t95 36.5q57 0 93 -35.5t36 -95.5q0 -118 -85 -182.5t-216 -64.5z" />
    <glyph glyph-name="uni0219" unicode="&#x219;" horiz-adv-x="883" 
d="M592 924l-18 7q-18 7 -56 7q-92 0 -145.5 -49t-53.5 -127q0 -61 36.5 -98t158.5 -82q153 -57 206.5 -120t53.5 -149q0 -148 -117 -245t-295 -97q-143 0 -244.5 52t-101.5 139q0 41 29 74.5t72 33.5q91 0 128 -120q10 -32 21 -62q46 -45 119 -45q217 0 217 199
q0 61 -44.5 103t-162.5 81q-245 84 -245 268q0 129 113.5 222.5t281.5 93.5q132 0 214.5 -39.5t82.5 -116.5q0 -41 -29 -75t-72 -34q-90 0 -127 118q-10 32 -22 61zM205 -444l8 57q166 7 197 129h-53q-111 0 -111 76q0 43 36 79.5t95 36.5q57 0 93 -35.5t36 -95.5
q0 -118 -85 -182.5t-216 -64.5z" />
    <glyph glyph-name="uni021A" unicode="&#x21a;" horiz-adv-x="1268" 
d="M1366 1034h-70q-6 121 -40.5 201.5t-80.5 95.5t-186 15h-61l-264 -1145q-5 -22 -5 -35q0 -50 45 -68.5t156 -31.5l-16 -66h-670l16 66q150 11 194.5 33.5t64.5 93.5l266 1153h-53q-143 0 -191.5 -16t-132.5 -106.5t-137 -189.5h-72l90 385h1235zM340 -444l8 57
q166 7 197 129h-53q-111 0 -111 76q0 43 36 79.5t95 36.5q57 0 93 -35.5t36 -95.5q0 -118 -85 -182.5t-216 -64.5z" />
    <glyph glyph-name="uni021B" unicode="&#x21b;" horiz-adv-x="711" 
d="M752 887h-279l-127 -551q-20 -87 -20 -135q0 -56 27 -81.5t100 -25.5t145 25l-16 -74q-161 -65 -279 -65q-182 0 -182 149q0 42 10 88l156 670h-178l20 90h182l70 293h180l-67 -293h278zM156 -444l8 57q166 7 197 129h-53q-111 0 -111 76q0 43 36 79.5t95 36.5
q57 0 93 -35.5t36 -95.5q0 -118 -85 -182.5t-216 -64.5z" />
    <glyph glyph-name="uni0237" unicode="&#x237;" horiz-adv-x="596" 
d="M-86 -362q66 4 119 87t85 210t105.5 465.5t73.5 402.5q0 52 -17.5 72t-76.5 20q-53 0 -123 -23l14 66q173 72 248 72q156 0 156 -146q0 -26 -50.5 -276.5t-94.5 -444t-98.5 -290.5t-129 -165.5t-151 -100t-148.5 -31.5q-170 0 -170 118q0 44 27 76.5t73 32.5
q72 0 128 -95q15 -26 30 -50z" />
    <glyph glyph-name="circumflex" unicode="&#x2c6;" 
d="M961 1118l-226 273l-329 -273l-48 33l304 346q25 29 41 37t57 8q53 0 78 -41l172 -350z" />
    <glyph glyph-name="caron" unicode="&#x2c7;" 
d="M733 1163q-25 -28 -40.5 -36.5t-55.5 -8.5q-62 0 -78 41l-172 350l49 33l223 -272l330 272l47 -33z" />
    <glyph glyph-name="uni02C9" unicode="&#x2c9;" 
d="M1040 1296h-686l29 123h686z" />
    <glyph glyph-name="breve" unicode="&#x2d8;" 
d="M1024 1495q-120 -369 -377 -369q-114 0 -181 75t-67 294l52 12q15 -129 67.5 -179t151.5 -50q96 0 163.5 47t133.5 182z" />
    <glyph glyph-name="dotaccent" unicode="&#x2d9;" 
d="M711 1247q-52 0 -89.5 39t-37.5 92q0 55 37 95t90 40q54 0 91.5 -37t37.5 -90q0 -56 -37 -97.5t-92 -41.5z" />
    <glyph glyph-name="ring" unicode="&#x2da;" horiz-adv-x="1174" 
d="M674 1114q-105 0 -164 49.5t-59 132.5q0 112 86 187.5t213 75.5q101 0 162 -52t61 -135q0 -107 -84 -182.5t-215 -75.5zM739 1499q-71 0 -117.5 -59t-46.5 -142q0 -124 109 -124q74 0 118 58.5t44 139.5q0 127 -107 127z" />
    <glyph glyph-name="ogonek" unicode="&#x2db;" 
d="M651 -444h-114q-238 0 -238 157q0 177 291 326h61q-190 -132 -190 -295q0 -117 203 -117z" />
    <glyph glyph-name="tilde" unicode="&#x2dc;" 
d="M1096 1473q-28 -101 -98.5 -172.5t-155.5 -71.5q-82 0 -174 51q-93 51 -138 51q-41 0 -66.5 -21.5t-74.5 -113.5l-57 25q36 105 103 174t147 69q76 0 170 -51t129 -51q50 0 82 17t71 116z" />
    <glyph glyph-name="hungarumlaut" unicode="&#x2dd;" 
d="M733 1110l-33 29q130 176 211 307q59 92 119 92q34 0 56 -22t22 -50q0 -53 -33.5 -83t-341.5 -273zM381 1110l-37 29q112 159 199 307q52 92 116 92q32 0 53 -22t21 -50q0 -47 -25 -78t-327 -278z" />
    <glyph glyph-name="gravecomb" unicode="&#x300;" 
d="M944 1546l-35 -39q-112 60 -199 103q-101 50 -157.5 81t-56.5 87q0 39 27.5 64.5t68.5 25.5q28 0 60.5 -24t291.5 -298z" />
    <glyph glyph-name="acutecomb" unicode="&#x301;" 
d="M475 1507l-26 39q91 77 282 262q57 60 123 60q37 0 60.5 -20.5t23.5 -51.5q0 -78 -100 -122t-363 -167z" />
    <glyph glyph-name="uni0302" unicode="&#x302;" 
d="M1024 1538l-49 -31l-236 211l-319 -211l-47 31l291 285q46 45 100 45q57 0 80 -41z" />
    <glyph glyph-name="uni0306" unicode="&#x306;" 
d="M1067 1851q-117 -321 -379 -321q-258 0 -258 297v24l55 17q17 -103 68 -148t162 -45q121 0 185.5 52.5t111.5 140.5z" />
    <glyph glyph-name="uni0308" unicode="&#x308;" 
d="M954 1608q-49 0 -83.5 35.5t-34.5 87.5q0 51 34.5 86.5t83.5 35.5q50 0 83.5 -35.5t33.5 -86.5q0 -52 -33.5 -87.5t-83.5 -35.5zM504 1608q-49 0 -84 35.5t-35 87.5q0 51 35 86.5t84 35.5t84 -35.5t35 -86.5q0 -52 -35 -87.5t-84 -35.5z" />
    <glyph glyph-name="uni030B" unicode="&#x30b;" 
d="M436 1507l-24 35l257 262q61 64 107 64q78 0 78 -76q0 -70 -94 -115q-172 -82 -324 -170zM821 1507l-24 35l274 274q52 52 94 52q76 0 76 -76q0 -71 -92 -115q-252 -121 -328 -170z" />
    <glyph glyph-name="uni030C" unicode="&#x30c;" 
d="M1067 1837l-289 -285q-35 -35 -51.5 -40t-48.5 -5q-51 0 -80 41l-180 289l49 33l233 -213l322 213z" />
    <glyph glyph-name="uni0326" unicode="&#x326;" 
d="M340 -444l8 57q166 7 197 129h-53q-111 0 -111 76q0 43 36 79.5t95 36.5q57 0 93 -35.5t36 -95.5q0 -118 -85 -182.5t-216 -64.5z" />
    <glyph glyph-name="tonos" unicode="&#x384;" 
d="M657 1139h-73l159 420h213v-25z" />
    <glyph glyph-name="dieresistonos" unicode="&#x385;" 
d="M659 1143h-69l98 469h205v-25zM426 1214q-49 0 -84 36t-35 87q0 50 33.5 86.5t85.5 36.5q50 0 83.5 -36.5t33.5 -86.5q0 -51 -35 -87t-82 -36zM985 1214q-48 0 -83.5 35.5t-35.5 87.5q0 51 34 87t85 36q50 0 83.5 -36.5t33.5 -86.5q0 -51 -35 -87t-82 -36z" />
    <glyph glyph-name="Alphatonos" unicode="&#x386;" horiz-adv-x="1374" 
d="M1303 0h-580l14 66q199 19 199 75l-45 353h-500q-178 -294 -178 -351q0 -64 186 -77l-14 -66h-545l15 66q79 6 137 35.5t100.5 86.5t309.5 490l470 762h80l189 -1229q21 -133 176 -145zM786 1130l-340 -555h428zM260 1002h-73l159 420h213v-25z" />
    <glyph glyph-name="anoteleia" unicode="&#x387;" horiz-adv-x="786" 
d="M475 717q-56 0 -96.5 39.5t-40.5 97.5q0 56 40.5 95.5t96.5 39.5t96.5 -39t40.5 -96q0 -59 -40.5 -98t-96.5 -39z" />
    <glyph glyph-name="Epsilontonos" unicode="&#x388;" horiz-adv-x="1628" 
d="M1600 1077h-74q-7 105 -40.5 169t-76 82t-203.5 18h-227l-131 -572h160q113 0 172.5 48t114.5 186h73l-127 -555h-73q0 108 -5.5 149.5t-41 67.5t-132.5 26h-159l-101 -432q-12 -51 -12 -96q0 -54 38.5 -72t174.5 -18q153 0 215.5 10.5t100.5 35.5t116.5 123.5
t120.5 170.5h72l-123 -418h-1178l14 66q135 10 175.5 32.5t56.5 89.5l237 1031q5 22 5 36q0 84 -177 99l17 65h1098zM202 1006h-73l159 420h213v-25z" />
    <glyph glyph-name="Etatonos" unicode="&#x389;" horiz-adv-x="1966" 
d="M2052 1354q-63 -5 -128 -23.5t-87 -101.5l-237 -1034q-5 -22 -5 -35q0 -81 160 -94l-14 -66h-590l16 66q139 7 172.5 39t44.5 79l117 512h-665l-115 -501q-4 -17 -4 -33q0 -50 38 -69t122 -27l-17 -66h-588l15 66q139 6 172 37.5t45 80.5l239 1035q5 22 5 32
q0 80 -164 103l14 65h590l-14 -65q-119 -10 -159.5 -35.5t-55.5 -89.5l-103 -449h668l98 439q4 18 4 32q0 49 -50.5 73.5t-111.5 29.5l15 65h590zM202 1006h-73l159 420h213v-25z" />
    <glyph glyph-name="Iotatonos" unicode="&#x38a;" horiz-adv-x="1085" 
d="M1194 1354q-137 -10 -181.5 -35.5t-59.5 -87.5l-240 -1038q-4 -17 -4 -31q0 -83 188 -96l-14 -66h-639l14 66q156 6 192.5 37t47.5 79l240 1039q4 17 4 34q0 47 -51 66.5t-136 32.5l15 65h639zM202 1006h-73l159 420h213v-25z" />
    <glyph glyph-name="Omicrontonos" unicode="&#x38c;" horiz-adv-x="1735" 
d="M891 -35q-248 0 -399.5 159.5t-151.5 416.5q0 372 249 641.5t577 269.5q246 0 398.5 -158.5t152.5 -421.5q0 -372 -251.5 -639.5t-574.5 -267.5zM1147 1368q-254 0 -412.5 -270t-158.5 -604q0 -213 86.5 -329t247.5 -116q249 0 410 266.5t161 616.5q0 207 -87 321.5
t-247 114.5zM202 1002h-73l159 420h213v-25z" />
    <glyph glyph-name="Upsilontonos" unicode="&#x38e;" horiz-adv-x="1657" 
d="M1898 1354q-49 -6 -105.5 -32.5t-123 -90t-264.5 -308.5t-234.5 -300t-56.5 -144l-64 -276q-4 -17 -4 -35q0 -65 74 -81.5t125 -20.5l-14 -66h-664l14 66q145 10 190.5 32t63.5 95l72 311q8 35 8 49q0 47 -49 208l-104 344q-55 182 -109 213.5t-113 35.5l17 65h581
l-16 -65q-129 -5 -163 -18.5t-34 -37.5q0 -42 183 -610q458 554 458 600q0 54 -172 66l17 65h504zM202 1006h-73l159 420h213v-25z" />
    <glyph glyph-name="Omegatonos" unicode="&#x38f;" horiz-adv-x="1804" 
d="M1587 0h-583l16 68q325 339 401 520.5t76 390.5q0 185 -83.5 287t-243.5 102q-252 0 -389.5 -227t-137.5 -549q0 -242 152 -524l-19 -68h-540l-50 389h66q49 -215 164 -215h223l8 39q-149 201 -190 307t-41 228q0 284 221 494t547 210q249 0 401 -135t152 -336
q0 -193 -94.5 -354.5t-391.5 -413.5l-10 -39h217q116 0 260 213l58 -20zM202 1002h-73l159 420h213v-25z" />
    <glyph glyph-name="iotadieresistonos" unicode="&#x390;" horiz-adv-x="575" 
d="M463 993l10 -16l-147 -641q-27 -118 -27 -141q0 -57 26.5 -78t82.5 -21q49 0 108 21l-14 -66q-169 -67 -240 -67q-158 0 -158 143q0 41 17 115l164 739zM417 1143h-69l98 469h205v-25zM184 1214q-49 0 -84 36t-35 87q0 50 33.5 86.5t85.5 36.5q50 0 83.5 -36.5
t33.5 -86.5q0 -51 -35 -87t-82 -36zM743 1214q-48 0 -83.5 35.5t-35.5 87.5q0 51 34 87t85 36q50 0 83.5 -36.5t33.5 -86.5q0 -51 -35 -87t-82 -36z" />
    <glyph glyph-name="Alpha" unicode="&#x391;" horiz-adv-x="1374" 
d="M1303 0h-580l14 66q199 19 199 75l-45 353h-500q-178 -294 -178 -351q0 -64 186 -77l-14 -66h-545l15 66q79 6 137 35.5t100.5 86.5t309.5 490l470 762h80l189 -1229q21 -133 176 -145zM786 1130l-340 -555h428z" />
    <glyph glyph-name="Beta" unicode="&#x392;" horiz-adv-x="1339" 
d="M885 766v-8q168 -25 260 -104.5t92 -200.5q0 -203 -170 -328t-403 -125h-693l17 66q124 10 164.5 36t56.5 86l235 1031q7 31 7 38q0 78 -160 97l14 65h627q164 0 265 -66.5t101 -185.5q0 -308 -413 -401zM686 1341l-127 -553h125q176 0 274.5 103t98.5 266
q0 189 -228 189q-48 0 -143 -5zM541 709l-113 -490q-6 -26 -6 -49q0 -98 188 -98q177 0 279 125t102 286q0 106 -72 168t-202 62q-111 0 -176 -4z" />
    <glyph glyph-name="Gamma" unicode="&#x393;" horiz-adv-x="1194" 
d="M1292 1026h-75q-6 114 -40.5 200.5t-87.5 103t-198 16.5h-205l-262 -1149q-4 -18 -4 -33q0 -39 31.5 -61t162.5 -37l-16 -66h-637l16 66q149 9 183.5 37.5t48.5 84.5l235 1031q7 31 7 34q0 50 -49.5 69.5t-127.5 31.5l17 65h1091z" />
    <glyph glyph-name="uni0394" unicode="&#x394;" horiz-adv-x="1368" 
d="M1233 0h-1335l12 49l967 1391h77l291 -1391zM795 1169l-689 -1003h895z" />
    <glyph glyph-name="Epsilon" unicode="&#x395;" horiz-adv-x="1337" 
d="M1309 1077h-74q-7 105 -40.5 169t-76 82t-203.5 18h-227l-131 -572h160q113 0 172.5 48t114.5 186h73l-127 -555h-73q0 108 -5.5 149.5t-41 67.5t-132.5 26h-159l-101 -432q-12 -51 -12 -96q0 -54 38.5 -72t174.5 -18q153 0 215.5 10.5t100.5 35.5t116.5 123.5
t120.5 170.5h72l-123 -418h-1178l14 66q135 10 175.5 32.5t56.5 89.5l237 1031q5 22 5 36q0 84 -177 99l17 65h1098z" />
    <glyph glyph-name="Zeta" unicode="&#x396;" horiz-adv-x="1233" 
d="M1378 1384l-1171 -1308h321q89 0 167 9.5t122 27.5t138 116t173 213h70l-149 -442h-1139l8 35l1174 1308h-314q-159 0 -222.5 -33t-147.5 -116t-148 -176h-70l136 401h1060z" />
    <glyph glyph-name="Eta" unicode="&#x397;" horiz-adv-x="1669" 
d="M1755 1354q-63 -5 -128 -23.5t-87 -101.5l-237 -1034q-5 -22 -5 -35q0 -81 160 -94l-14 -66h-590l16 66q139 7 172.5 39t44.5 79l117 512h-665l-115 -501q-4 -17 -4 -33q0 -50 38 -69t122 -27l-17 -66h-588l15 66q139 6 172 37.5t45 80.5l239 1035q5 22 5 32
q0 80 -164 103l14 65h590l-14 -65q-119 -10 -159.5 -35.5t-55.5 -89.5l-103 -449h668l98 439q4 18 4 32q0 49 -50.5 73.5t-111.5 29.5l15 65h590z" />
    <glyph glyph-name="Theta" unicode="&#x398;" horiz-adv-x="1495" 
d="M651 -35q-248 0 -399.5 159.5t-151.5 416.5q0 372 249 641.5t577 269.5q246 0 398.5 -158.5t152.5 -421.5q0 -372 -251.5 -639.5t-574.5 -267.5zM907 1368q-253 0 -413 -270.5t-160 -603.5q0 -211 87 -328t249 -117q249 0 411 266.5t162 616.5q0 205 -87 320.5
t-249 115.5zM950 483q0 109 -17 130.5t-163 21.5q-136 0 -170.5 -22t-79.5 -130h-63l104 451h66q0 -108 17.5 -129t162.5 -21q111 0 152 12t98 138h63l-104 -451h-66z" />
    <glyph glyph-name="Iota" unicode="&#x399;" horiz-adv-x="799" 
d="M907 1354q-137 -10 -181.5 -35.5t-59.5 -87.5l-240 -1038q-4 -17 -4 -31q0 -83 188 -96l-14 -66h-639l14 66q156 6 192.5 37t47.5 79l240 1039q4 17 4 34q0 47 -51 66.5t-136 32.5l15 65h639z" />
    <glyph glyph-name="Kappa" unicode="&#x39a;" horiz-adv-x="1421" 
d="M1581 1354l-36 -4q-139 -15 -214 -80q-375 -341 -565 -494q137 -211 332 -543q60 -100 113 -129.5t143 -37.5l-19 -66h-360q-162 345 -385 674h-55l-111 -479q-4 -17 -4 -33q0 -61 52 -75.5t112 -20.5l-17 -66h-587l14 66q134 6 168 39t45 79l239 1035q5 22 5 34
q0 45 -40.5 67t-119.5 34l14 65h590l-14 -65q-124 -10 -164 -35.5t-55 -89.5l-117 -506h20q201 140 411 335.5t210 250.5q0 35 -135 45l14 65h532z" />
    <glyph glyph-name="Lambda" unicode="&#x39b;" horiz-adv-x="1380" 
d="M788 1128l-506 -829q-69 -120 -69 -156q0 -64 186 -77l-14 -66h-545l15 66q79 6 137 35.5t100.5 86.5t309.5 490l470 762h80l195 -1229q21 -134 176 -145l-14 -66h-582l16 66q199 19 199 73v14q0 6 -2 15z" />
    <glyph glyph-name="Mu" unicode="&#x39c;" horiz-adv-x="1898" 
d="M1993 1354q-127 -11 -166.5 -36t-54.5 -89l-240 -1034q-4 -17 -4 -33q0 -44 33.5 -65t136.5 -31l-17 -66h-624l16 66q157 6 200 46t50 83l246 1056h-10l-777 -1228h-47l-178 1255h-8l-203 -872q-27 -116 -27 -185q0 -77 39 -105t154 -50l-14 -66h-574l17 66
q169 16 217.5 82.5t87.5 244.5l170 737q10 43 10 78q0 136 -180 146l14 65h477l156 -1067l553 893q64 103 86 174h475z" />
    <glyph glyph-name="Nu" unicode="&#x39d;" horiz-adv-x="1571" 
d="M1743 1354q-150 -21 -202 -64t-101 -260l-242 -1044h-88l-584 1198l-178 -774q-26 -113 -26 -191q0 -49 14 -79t89 -51.5t97 -22.5l-14 -66h-584l17 66q126 20 188.5 56t118.5 277l160 688q12 52 12 101q0 139 -207 166l16 65h408l539 -1110l163 709q27 117 27 188
q0 52 -14.5 77t-76.5 45.5t-110 25.5l17 65h577z" />
    <glyph glyph-name="Xi" unicode="&#x39e;" horiz-adv-x="1419" 
d="M1307 995q-4 25 -6 54q-13 179 -87.5 191.5t-347.5 12.5q-220 0 -318.5 -9t-184.5 -167q-24 -44 -46 -82h-69l123 424h1075l-70 -424h-69zM944 471q0 107 -18 134.5t-195 27.5q-127 0 -179 -14t-106 -148h-67l108 475h68q0 -113 21.5 -136.5t191.5 -23.5q146 0 188 17
t99 143h67l-110 -475h-68zM1139 0h-1094l49 432h72q16 -150 49 -198.5t77.5 -57t332.5 -8.5q326 0 362.5 12t87.5 57t137 195h70z" />
    <glyph glyph-name="Omicron" unicode="&#x39f;" horiz-adv-x="1495" 
d="M651 -35q-248 0 -399.5 159.5t-151.5 416.5q0 372 249 641.5t577 269.5q246 0 398.5 -158.5t152.5 -421.5q0 -372 -251.5 -639.5t-574.5 -267.5zM907 1368q-254 0 -412.5 -270t-158.5 -604q0 -213 86.5 -329t247.5 -116q249 0 410 266.5t161 616.5q0 207 -87 321.5
t-247 114.5z" />
    <glyph glyph-name="Pi" unicode="&#x3a0;" horiz-adv-x="1655" 
d="M1743 1354q-68 -5 -132 -24t-83 -101l-240 -1034q-4 -17 -4 -35q0 -81 162 -94l-16 -66h-588l14 66q138 6 172 38.5t45 79.5l264 1149h-653l-260 -1138q-4 -18 -4 -33q0 -50 38 -69t122 -27l-17 -66h-588l15 66q139 6 172 37.5t45 80.5l239 1035q5 22 5 32q0 89 -172 103
l14 65h1464z" />
    <glyph glyph-name="Rho" unicode="&#x3a1;" horiz-adv-x="1249" 
d="M522 627l-100 -439q-4 -18 -4 -36q0 -46 31 -62.5t149 -23.5l-14 -66h-609l15 66q138 8 172 38t47 84l237 1035q7 31 7 41q0 45 -41 64t-131 26l14 65h631q176 0 281.5 -78t105.5 -208q0 -224 -182 -365t-435 -141h-174zM686 1341l-143 -632h112q201 0 306.5 115.5
t105.5 287.5q0 229 -250 229h-131z" />
    <glyph glyph-name="Sigma" unicode="&#x3a3;" horiz-adv-x="1237" 
d="M1024 0h-1122l8 41l723 655l-418 693l8 30h1084l-86 -372h-72q0 101 -36.5 182.5t-89 99t-196.5 17.5h-350l354 -576l-4 -16l-643 -584h643q123 0 275 268h69z" />
    <glyph glyph-name="Tau" unicode="&#x3a4;" horiz-adv-x="1268" 
d="M1366 1034h-70q-6 121 -40.5 201.5t-80.5 95.5t-186 15h-61l-264 -1145q-5 -22 -5 -35q0 -50 45 -68.5t156 -31.5l-16 -66h-670l16 66q150 11 194.5 33.5t64.5 93.5l266 1153h-53q-143 0 -191.5 -16t-132.5 -106.5t-137 -189.5h-72l90 385h1235z" />
    <glyph glyph-name="Upsilon" unicode="&#x3a5;" horiz-adv-x="1260" 
d="M1501 1354q-49 -6 -105.5 -32.5t-123 -90t-264.5 -308.5t-234.5 -300t-56.5 -144l-64 -276q-4 -17 -4 -35q0 -65 74 -81.5t125 -20.5l-14 -66h-664l14 66q145 10 190.5 32t63.5 95l72 311q8 35 8 49q0 47 -49 208l-104 344q-55 182 -109 213.5t-113 35.5l17 65h581
l-16 -65q-129 -5 -163 -18.5t-34 -37.5q0 -42 183 -610q458 554 458 600q0 54 -172 66l17 65h504z" />
    <glyph glyph-name="Phi" unicode="&#x3a6;" horiz-adv-x="1571" 
d="M815 219q-16 -68 -16 -84q0 -34 27.5 -54t154.5 -26l-14 -65h-602l16 65q135 7 170.5 38t46.5 77l10 49q-237 0 -373.5 107t-136.5 305q0 255 184 417t517 162h39q12 50 12 68q0 71 -168 90l14 66h592l-14 -66q-118 -8 -161 -29t-60 -86l-9 -43q243 0 376.5 -108
t133.5 -301q0 -258 -184.5 -420t-515.5 -162h-39zM1026 1137l-192 -842h65q197 0 311.5 162t114.5 370q0 310 -299 310zM754 1137q-196 0 -311 -160t-115 -373q0 -147 75.5 -228t221.5 -81l194 842h-65z" />
    <glyph glyph-name="Chi" unicode="&#x3a7;" horiz-adv-x="1454" 
d="M1599 1354q-151 -11 -227 -81.5t-504 -510.5l179 -398q82 -182 115.5 -228t53.5 -54t119 -16l-14 -66h-639l14 66q201 7 201 63q0 73 -182 489q-432 -442 -432 -495q0 -52 155 -57l-14 -66h-535l17 66q157 8 252 103.5t518 532.5l-164 368q-84 188 -102 213.5t-56 44.5
t-127 26l17 65h630l-14 -65q-198 -11 -198 -62q0 -77 172 -452q389 403 389 456q0 49 -154 58l16 65h529z" />
    <glyph glyph-name="Psi" unicode="&#x3a8;" horiz-adv-x="1792" 
d="M793 1354l16 65h577l-16 -65q-111 -9 -150.5 -34t-58.5 -91l-160 -697q360 18 445 371l119 516h397l-14 -65q-10 -2 -27 -4q-106 -12 -140.5 -37t-45.5 -84l-72 -307q-107 -457 -682 -473l-55 -246q-4 -18 -4 -37q0 -45 34 -64.5t158 -35.5l-14 -66h-658l17 66
q144 10 188 33.5t64 93.5l57 256q-475 14 -475 356q0 63 16 133l66 281q4 17 4 32q0 89 -158 103l15 65h397l-115 -497q-16 -69 -16 -123q0 -254 286 -267l158 687q4 17 4 32q0 80 -157 103z" />
    <glyph glyph-name="uni03A9" unicode="&#x3a9;" horiz-adv-x="1595" 
d="M1378 0h-583l16 68q325 339 401 520.5t76 390.5q0 185 -83.5 287t-243.5 102q-252 0 -389.5 -227t-137.5 -549q0 -242 152 -524l-19 -68h-540l-50 389h66q49 -215 164 -215h223l8 39q-149 201 -190 307t-41 228q0 284 221 494t547 210q249 0 401 -135t152 -336
q0 -193 -94.5 -354.5t-391.5 -413.5l-10 -39h217q116 0 260 213l58 -20z" />
    <glyph glyph-name="Iotadieresis" unicode="&#x3aa;" horiz-adv-x="799" 
d="M907 1354q-137 -10 -181.5 -35.5t-59.5 -87.5l-240 -1038q-4 -17 -4 -31q0 -83 188 -96l-14 -66h-639l14 66q156 6 192.5 37t47.5 79l240 1039q4 17 4 34q0 47 -51 66.5t-136 32.5l15 65h639zM862 1608q-51 0 -85 36t-34 87q0 50 33.5 86.5t85.5 36.5q49 0 82.5 -36.5
t33.5 -86.5q0 -51 -33.5 -87t-82.5 -36zM432 1608q-51 0 -85 36t-34 87q0 50 33.5 86.5t85.5 36.5q49 0 82.5 -36.5t33.5 -86.5q0 -51 -33.5 -87t-82.5 -36z" />
    <glyph glyph-name="Upsilondieresis" unicode="&#x3ab;" horiz-adv-x="1260" 
d="M1501 1354q-49 -6 -105.5 -32.5t-123 -90t-264.5 -308.5t-234.5 -300t-56.5 -144l-64 -276q-4 -17 -4 -35q0 -65 74 -81.5t125 -20.5l-14 -66h-664l14 66q145 10 190.5 32t63.5 95l72 311q8 35 8 49q0 47 -49 208l-104 344q-55 182 -109 213.5t-113 35.5l17 65h581
l-16 -65q-129 -5 -163 -18.5t-34 -37.5q0 -42 183 -610q458 554 458 600q0 54 -172 66l17 65h504zM1155 1608q-49 0 -83.5 35.5t-34.5 87.5q0 51 34.5 86.5t83.5 35.5q50 0 83.5 -35.5t33.5 -86.5q0 -52 -33.5 -87.5t-83.5 -35.5zM705 1608q-49 0 -84 35.5t-35 87.5
q0 51 35 86.5t84 35.5t84 -35.5t35 -86.5q0 -52 -35 -87.5t-84 -35.5z" />
    <glyph glyph-name="alphatonos" unicode="&#x3ac;" horiz-adv-x="1225" 
d="M1184 979q-23 -74 -137 -353l-59 -144q-11 -28 -19 -99t-8 -125q0 -88 24 -125t82 -37q54 0 109 19l-17 -64q-145 -67 -235 -67q-73 0 -102 35t-29 122v60q-158 -230 -383 -230q-159 0 -248.5 104.5t-89.5 293.5q0 257 168 449t393 192q251 0 297 -226l69 197l172 12z
M639 938q-148 0 -255.5 -182t-107.5 -391q0 -126 56 -204.5t153 -78.5q153 0 258 184t105 365q0 141 -55.5 224t-153.5 83zM669 1139h-73l159 420h213v-25z" />
    <glyph glyph-name="epsilontonos" unicode="&#x3ad;" horiz-adv-x="948" 
d="M735 895q-56 43 -149 43q-105 0 -169.5 -66.5t-64.5 -162.5q0 -150 187 -150h84l-19 -90h-108q-123 0 -188.5 -59t-65.5 -158q0 -82 61 -131t160 -49q214 0 368 225l60 -45q-175 -281 -479 -281q-174 0 -273.5 69t-99.5 196q0 120 93.5 195.5t232.5 84.5v10
q-213 38 -213 197q0 109 114 198t332 89q150 0 233.5 -53t83.5 -142q0 -66 -32 -111t-90 -45q-107 0 -107 89q0 18 49 147zM589 1139h-73l159 420h213v-25z" />
    <glyph glyph-name="etatonos" unicode="&#x3ae;" horiz-adv-x="1184" 
d="M811 -444h-186l231 1050q21 95 21 135q0 150 -127 150q-143 0 -285 -158l-168 -733h-186l147 647q25 110 25 144q0 56 -20 75t-75 19q-42 0 -108 -21l14 66q150 67 242 67q142 0 147 -161h6q142 111 216.5 142.5t160.5 31.5q93 0 150 -55t57 -152q0 -58 -20 -156z
M698 1139h-73l159 420h213v-25z" />
    <glyph glyph-name="iotatonos" unicode="&#x3af;" horiz-adv-x="575" 
d="M463 993l10 -16l-147 -641q-27 -118 -27 -141q0 -57 26.5 -78t82.5 -21q49 0 108 21l-14 -66q-169 -67 -240 -67q-158 0 -158 143q0 41 17 115l164 739zM409 1139h-73l159 420h213v-25z" />
    <glyph glyph-name="upsilondieresistonos" unicode="&#x3b0;" horiz-adv-x="1102" 
d="M59 860l15 66q157 71 235 71q158 0 158 -143q0 -51 -16 -111l-97 -372q-20 -77 -20 -119q0 -166 170 -166q141 0 269 161t128 365q0 90 -53 151t-53 130q0 51 34.5 84t83.5 33q125 0 125 -187q0 -330 -179.5 -592t-430.5 -262q-129 0 -208 72t-79 197q0 45 13 90l88 319
q24 87 24 144q0 55 -19.5 74.5t-76.5 19.5q-36 0 -111 -25zM630 1143h-69l98 469h205v-25zM397 1214q-49 0 -84 36t-35 87q0 50 33.5 86.5t85.5 36.5q50 0 83.5 -36.5t33.5 -86.5q0 -51 -35 -87t-82 -36zM956 1214q-48 0 -83.5 35.5t-35.5 87.5q0 51 34 87t85 36
q50 0 83.5 -36.5t33.5 -86.5q0 -51 -35 -87t-82 -36z" />
    <glyph glyph-name="alpha" unicode="&#x3b1;" horiz-adv-x="1225" 
d="M1184 979q-23 -74 -137 -353l-59 -144q-11 -28 -19 -99t-8 -125q0 -88 24 -125t82 -37q54 0 109 19l-17 -64q-145 -67 -235 -67q-73 0 -102 35t-29 122v60q-158 -230 -383 -230q-159 0 -248.5 104.5t-89.5 293.5q0 257 168 449t393 192q251 0 297 -226l69 197l172 12z
M639 938q-148 0 -255.5 -182t-107.5 -391q0 -126 56 -204.5t153 -78.5q153 0 258 184t105 365q0 141 -55.5 224t-153.5 83z" />
    <glyph glyph-name="beta" unicode="&#x3b2;" horiz-adv-x="1159" 
d="M803 903v-8q122 -14 203 -98.5t81 -218.5q0 -240 -174.5 -421.5t-402.5 -181.5q-171 0 -258 74l-109 -493h-186l317 1450q41 188 97 289t178 178t276 77t244 -70.5t90 -193.5q0 -152 -101.5 -255t-254.5 -128zM573 844l21 90h88q116 0 205.5 103t89.5 249q0 91 -47.5 142
t-128.5 51q-233 0 -328 -430l-184 -840q-7 -31 53.5 -97.5t163.5 -66.5q156 0 267.5 172t111.5 408q0 219 -215 219h-97z" />
    <glyph glyph-name="gamma" unicode="&#x3b3;" horiz-adv-x="1042" 
d="M498 53q-6 -53 -9 -94q-22 -250 -62 -332t-116 -82q-84 0 -84 93q0 84 127 376q-10 155 -68.5 474t-87.5 357t-81 38q-39 0 -113 -23l14 66q144 71 234 71q89 0 124 -63t77.5 -319.5t42.5 -376.5v-50q45 75 174 253q140 194 143 330q1 124 37 181.5t125 57.5q96 0 96 -84
q0 -77 -90.5 -205.5t-176.5 -239.5q-223 -287 -306 -428z" />
    <glyph glyph-name="delta" unicode="&#x3b4;" horiz-adv-x="1104" 
d="M944 1434q-59 47 -168 47q-110 0 -186 -62t-76 -149q0 -62 34 -104t109 -88q163 -102 230.5 -157t108 -134t40.5 -181q0 -256 -167 -446.5t-410 -190.5q-178 0 -284.5 106.5t-106.5 286.5q0 218 139.5 387t367.5 214v6q-140 66 -201 124.5t-61 163.5q0 112 125 202.5
t350 90.5q158 0 246 -52t88 -138q0 -62 -34.5 -110t-92.5 -48q-102 0 -102 76q0 35 51 156zM655 905q-172 -14 -277.5 -183.5t-105.5 -389.5q0 -135 52.5 -213t148.5 -78q155 0 256.5 172t101.5 385q0 212 -176 307z" />
    <glyph glyph-name="epsilon" unicode="&#x3b5;" horiz-adv-x="948" 
d="M735 895q-56 43 -149 43q-105 0 -169.5 -66.5t-64.5 -162.5q0 -150 187 -150h84l-19 -90h-108q-123 0 -188.5 -59t-65.5 -158q0 -82 61 -131t160 -49q214 0 368 225l60 -45q-175 -281 -479 -281q-174 0 -273.5 69t-99.5 196q0 120 93.5 195.5t232.5 84.5v10
q-213 38 -213 197q0 109 114 198t332 89q150 0 233.5 -53t83.5 -142q0 -66 -32 -111t-90 -45q-107 0 -107 89q0 18 49 147z" />
    <glyph glyph-name="zeta" unicode="&#x3b6;" horiz-adv-x="821" 
d="M438 -317q79 9 137 66t58 140q0 71 -44.5 92.5t-175.5 27.5q-198 8 -276 106t-78 226q0 226 179 455.5t600 532.5v10l-359 -4q-174 -2 -174 90q0 49 30 82t83 33q71 0 128 -58q57 -59 116 -59q93 0 393 21l-23 -88q-774 -495 -774 -959q0 -226 221 -231q155 0 221 -48
t66 -157q0 -150 -120 -259.5t-294 -109.5q-190 0 -190 91q0 100 108 100q61 0 131 -69q17 -18 37 -31z" />
    <glyph glyph-name="eta" unicode="&#x3b7;" horiz-adv-x="1184" 
d="M811 -444h-186l231 1050q21 95 21 135q0 150 -127 150q-143 0 -285 -158l-168 -733h-186l147 647q25 110 25 144q0 56 -20 75t-75 19q-42 0 -108 -21l14 66q150 67 242 67q142 0 147 -161h6q142 111 216.5 142.5t160.5 31.5q93 0 150 -55t57 -152q0 -58 -20 -156z" />
    <glyph glyph-name="theta" unicode="&#x3b8;" horiz-adv-x="1128" 
d="M459 -31q-172 0 -263.5 132t-91.5 370q0 395 187 737t473 342q171 0 261.5 -131.5t90.5 -367.5q0 -246 -84.5 -508t-236.5 -418t-336 -156zM897 829q33 165 33 334q0 316 -180 316q-271 0 -398 -650h545zM881 745h-545l-8 -36q-37 -166 -37 -347q0 -321 180 -321
q273 0 401 668z" />
    <glyph glyph-name="iota" unicode="&#x3b9;" horiz-adv-x="575" 
d="M463 993l10 -16l-147 -641q-27 -118 -27 -141q0 -57 26.5 -78t82.5 -21q49 0 108 21l-14 -66q-169 -67 -240 -67q-158 0 -158 143q0 41 17 115l164 739z" />
    <glyph glyph-name="kappa" unicode="&#x3ba;" horiz-adv-x="1139" 
d="M872 811q-123 -71 -239 -186q146 -388 202 -461.5t136 -73.5q55 0 131 23l-15 -66q-152 -63 -253 -63q-81 0 -136.5 60.5t-195.5 440.5l-119 -100l-88 -385h-184l149 647q23 100 23 144q0 62 -22 78t-73 16q-36 0 -108 -21l14 66q154 67 234 67q153 0 153 -143
q0 -32 -14 -111l-59 -251h4q132 144 297.5 301t211 182.5t95.5 25.5q112 0 112 -106q0 -47 -35.5 -83t-84.5 -36q-56 0 -136 35z" />
    <glyph glyph-name="lambda" unicode="&#x3bb;" horiz-adv-x="999" 
d="M1004 18q-128 -38 -189 -38q-58 0 -86 34t-36.5 88.5t-32.5 339.5q-9 100 -35 340q-414 -615 -477 -742l-21 -40h-229l680 997q-29 182 -86 332h-117q-109 0 -109 96q0 48 40 86.5t108 38.5q49 0 87.5 -21t66 -70.5t56.5 -202.5l136 -744q40 -218 64 -304.5t48 -106
t76 -19.5h70z" />
    <glyph glyph-name="uni03BC" unicode="&#x3bc;" horiz-adv-x="1180" 
d="M1110 51q-163 -67 -242 -67q-73 0 -116 42t-43 113h-7q-175 -159 -344 -159q-128 0 -178 90h-6q-24 -105 -24 -267q0 -157 -31 -207.5t-96 -50.5q-91 0 -91 99q0 30 72 216q17 45 29 87l19 61q23 74 34 127l197 846l174 12l12 -14l-150 -647q-12 -52 -12 -88
q0 -152 148 -152q131 0 270 139l174 750l174 12l12 -14l-149 -643q-27 -117 -27 -141q0 -57 25 -78t82 -21q54 0 108 19z" />
    <glyph glyph-name="nu" unicode="&#x3bd;" horiz-adv-x="1026" 
d="M444 -8h-88q-51 392 -88 586l-44 227q-8 32 -34.5 55t-66.5 23q-39 0 -113 -23l15 66q144 71 231 71q74 0 107.5 -38.5t70.5 -239t70 -488.5q215 297 259 384t44 223q6 172 156 172q98 0 98 -84q0 -57 -49.5 -136t-277.5 -374q-195 -253 -290 -424z" />
    <glyph glyph-name="xi" unicode="&#x3be;" horiz-adv-x="897" 
d="M379 6q-146 0 -238 83.5t-92 215.5q0 171 131 299.5t330 157.5v6q-254 44 -254 240q0 243 354 338l2 16q-142 -6 -213 -6q-166 0 -166 82q0 45 30.5 78.5t80.5 33.5q64 0 128 -57q63 -57 118 -57q129 0 465 16l-29 -109h-129q-198 0 -321 -90.5t-123 -240.5
q0 -96 69.5 -150.5t196.5 -54.5h149l-26 -102h-197q-189 0 -290 -92t-101 -251q0 -93 61.5 -146.5t161.5 -53.5h127q215 0 215 -201q0 -151 -120 -260t-291 -109q-193 0 -193 91q0 100 111 100q56 0 130 -69q18 -18 38 -31q76 9 134 66t58 140q0 117 -151 117h-156z" />
    <glyph glyph-name="omicron" unicode="&#x3bf;" horiz-adv-x="1100" 
d="M440 -31q-165 0 -268.5 107.5t-103.5 288.5q0 268 167 456.5t418 188.5q176 0 277.5 -107.5t101.5 -286.5q0 -262 -166 -454.5t-426 -192.5zM633 938q-169 0 -266 -182.5t-97 -423.5q0 -291 199 -291q161 0 260.5 179.5t99.5 432.5q0 285 -196 285z" />
    <glyph glyph-name="pi" unicode="&#x3c0;" horiz-adv-x="1237" 
d="M1266 862h-226l-120 -526q-27 -118 -27 -141q0 -57 25.5 -78t80.5 -21q47 0 111 21l-16 -66q-169 -67 -240 -67q-162 0 -162 143q0 43 19 115l143 620h-266q-93 -452 -237 -666t-267 -214q-107 0 -107 106q0 45 31.5 80t79.5 35q54 0 127 -39q102 121 176 324.5t86 373.5
h-47q-161 0 -225 -200h-64q24 130 49 180.5t94.5 94.5t153.5 44h856z" />
    <glyph glyph-name="rho" unicode="&#x3c1;" horiz-adv-x="1153" 
d="M252 47l-107 -491h-186l215 991q47 218 185 340.5t358 122.5q168 0 266 -99.5t98 -273.5q0 -261 -173.5 -462.5t-397.5 -201.5q-166 0 -258 74zM289 209q47 -166 219 -166q152 0 259 195t107 448q0 252 -188 252q-124 0 -209.5 -105.5t-148.5 -435.5l-11 -49
q-15 -65 -28 -139z" />
    <glyph glyph-name="sigma1" unicode="&#x3c2;" horiz-adv-x="903" 
d="M748 897q-53 39 -140 39q-143 0 -244.5 -150.5t-101.5 -339.5q0 -102 46 -162.5t147 -85.5l184 -44q152 -39 152 -193q0 -150 -120 -259.5t-292 -109.5q-193 0 -193 91q0 100 111 100q59 0 130 -69q18 -18 38 -31q77 9 134.5 65.5t57.5 140.5q0 43 -28.5 70t-131.5 47
q-174 34 -248 76.5t-128.5 128.5t-54.5 201q0 250 169 423t398 173q145 0 222 -50.5t77 -132.5q0 -67 -34 -112t-93 -45q-105 0 -105 86q0 46 48 143z" />
    <glyph glyph-name="sigma" unicode="&#x3c3;" horiz-adv-x="1165" 
d="M1221 862h-277l-2 -4q80 -109 80 -268q0 -237 -172 -429t-414 -192q-170 0 -272.5 107t-102.5 289q0 281 174.5 450.5t460.5 169.5h553zM809 862h-123q-200 0 -315 -157.5t-115 -385.5q0 -274 199 -274q167 0 271.5 199.5t104.5 408.5q0 136 -22 209z" />
    <glyph glyph-name="tau" unicode="&#x3c4;" horiz-adv-x="920" 
d="M981 862h-338l-123 -526q-20 -86 -20 -135q0 -56 24.5 -81.5t93.5 -25.5q74 0 146 25l-16 -74q-170 -65 -269 -65q-184 0 -184 149q0 42 10 88l150 645h-88q-166 0 -228 -207h-61q5 31 8 58q14 125 97.5 196.5t191.5 71.5h635z" />
    <glyph glyph-name="upsilon" unicode="&#x3c5;" horiz-adv-x="1102" 
d="M59 860l15 66q157 71 235 71q158 0 158 -143q0 -51 -16 -111l-97 -372q-20 -77 -20 -119q0 -166 170 -166q141 0 269 161t128 365q0 90 -53 151t-53 130q0 51 34.5 84t83.5 33q125 0 125 -187q0 -330 -179.5 -592t-430.5 -262q-129 0 -208 72t-79 197q0 45 13 90l88 319
q24 87 24 144q0 55 -19.5 74.5t-76.5 19.5q-36 0 -111 -25z" />
    <glyph glyph-name="phi" unicode="&#x3c6;" horiz-adv-x="1450" 
d="M696 -29l-88 -415h-186l90 415q-207 8 -325.5 120.5t-118.5 295.5q0 225 136.5 388.5t385.5 221.5v-75q-151 -47 -236.5 -199t-85.5 -354q0 -146 69.5 -233.5t188.5 -92.5l156 711q28 125 117 190.5t219 65.5q149 0 255.5 -102t106.5 -277q0 -268 -195 -456t-489 -204z
M713 43q217 18 342 203t125 432q0 121 -46.5 189.5t-123.5 68.5q-105 0 -131 -129z" />
    <glyph glyph-name="chi" unicode="&#x3c7;" horiz-adv-x="1036" 
d="M922 -406q-125 -38 -191 -38q-69 0 -105.5 44.5t-58 143t-96.5 408.5l-305 -428q-17 -25 -32 -46q-41 -57 -81 -122h-229l598 782q-128 406 -181 481.5t-135 75.5q-19 0 -63 -6l16 63q141 47 195 47q61 0 92.5 -37.5t49.5 -120.5l93 -421l398 565l213 8l10 -14l-565 -743
q83 -275 133 -399.5t83.5 -152.5t100.5 -28h39q20 0 37 2z" />
    <glyph glyph-name="psi" unicode="&#x3c8;" horiz-adv-x="1507" 
d="M752 -29l-97 -415h-186l96 415q-192 12 -301.5 96.5t-109.5 229.5q0 50 12 92l72 258q24 86 24 144q0 55 -19.5 74.5t-76.5 19.5q-36 0 -111 -25l15 66q157 71 235 71q156 0 156 -143q0 -53 -17 -111l-79 -313q-21 -83 -21 -121q0 -240 240 -260l215 932l174 12l10 -14
l-215 -930q230 12 382.5 183t152.5 386q0 87 -50 145q-51 57 -51 128q0 52 35.5 85.5t85.5 33.5q123 0 123 -176q0 -347 -183.5 -596.5t-510.5 -266.5z" />
    <glyph glyph-name="omega" unicode="&#x3c9;" horiz-adv-x="1487" 
d="M680 137q-136 -168 -301 -168q-139 0 -224 105t-85 272q0 273 162 449t413 200v-75q-168 -24 -272.5 -207.5t-104.5 -429.5q0 -109 37.5 -172.5t106.5 -63.5q157 0 202 240l80 364h189l-80 -364q-10 -45 -10 -97q0 -143 139 -143q125 0 203.5 176t78.5 391
q0 273 -206 308l28 73q170 -14 274.5 -124.5t104.5 -280.5q0 -240 -141.5 -430.5t-347.5 -190.5q-175 0 -246 168z" />
    <glyph glyph-name="iotadieresis" unicode="&#x3ca;" horiz-adv-x="575" 
d="M590 1241q-49 0 -82 35.5t-33 87.5q0 51 32.5 87t82.5 36q49 0 82 -36.5t33 -86.5t-33.5 -86.5t-81.5 -36.5zM240 1241q-49 0 -82 35.5t-33 87.5q0 51 32.5 87t82.5 36q48 0 81 -36t33 -87q0 -52 -33 -87.5t-81 -35.5zM463 993l10 -16l-147 -641q-27 -118 -27 -141
q0 -57 26.5 -78t82.5 -21q49 0 108 21l-14 -66q-169 -67 -240 -67q-158 0 -158 143q0 41 17 115l164 739z" />
    <glyph glyph-name="upsilondieresis" unicode="&#x3cb;" horiz-adv-x="1102" 
d="M59 860l15 66q157 71 235 71q158 0 158 -143q0 -51 -16 -111l-97 -372q-20 -77 -20 -119q0 -166 170 -166q141 0 269 161t128 365q0 90 -53 151t-53 130q0 51 34.5 84t83.5 33q125 0 125 -187q0 -330 -179.5 -592t-430.5 -262q-129 0 -208 72t-79 197q0 45 13 90l88 319
q24 87 24 144q0 55 -19.5 74.5t-76.5 19.5q-36 0 -111 -25zM905 1241q-51 0 -85 36t-34 87q0 50 33.5 86.5t85.5 36.5q49 0 82.5 -36.5t33.5 -86.5q0 -51 -33.5 -87t-82.5 -36zM475 1241q-51 0 -85 36t-34 87q0 50 33.5 86.5t85.5 36.5q49 0 82.5 -36.5t33.5 -86.5
q0 -51 -33.5 -87t-82.5 -36z" />
    <glyph glyph-name="omicrontonos" unicode="&#x3cc;" horiz-adv-x="1100" 
d="M440 -31q-165 0 -268.5 107.5t-103.5 288.5q0 268 167 456.5t418 188.5q176 0 277.5 -107.5t101.5 -286.5q0 -262 -166 -454.5t-426 -192.5zM633 938q-169 0 -266 -182.5t-97 -423.5q0 -291 199 -291q161 0 260.5 179.5t99.5 432.5q0 285 -196 285zM655 1139h-73l159 420
h213v-25z" />
    <glyph glyph-name="upsilontonos" unicode="&#x3cd;" horiz-adv-x="1102" 
d="M59 860l15 66q157 71 235 71q158 0 158 -143q0 -51 -16 -111l-97 -372q-20 -77 -20 -119q0 -166 170 -166q141 0 269 161t128 365q0 90 -53 151t-53 130q0 51 34.5 84t83.5 33q125 0 125 -187q0 -330 -179.5 -592t-430.5 -262q-129 0 -208 72t-79 197q0 45 13 90l88 319
q24 87 24 144q0 55 -19.5 74.5t-76.5 19.5q-36 0 -111 -25zM675 1139h-73l159 420h213v-25z" />
    <glyph glyph-name="omegatonos" unicode="&#x3ce;" horiz-adv-x="1487" 
d="M680 137q-136 -168 -301 -168q-139 0 -224 105t-85 272q0 273 162 449t413 200v-75q-168 -24 -272.5 -207.5t-104.5 -429.5q0 -109 37.5 -172.5t106.5 -63.5q157 0 202 240l80 364h189l-80 -364q-10 -45 -10 -97q0 -143 139 -143q125 0 203.5 176t78.5 391
q0 273 -206 308l28 73q170 -14 274.5 -124.5t104.5 -280.5q0 -240 -141.5 -430.5t-347.5 -190.5q-175 0 -246 168zM841 1139h-73l159 420h213v-25z" />
    <glyph glyph-name="uni0401" unicode="&#x401;" horiz-adv-x="1337" 
d="M1309 1077h-74q-7 105 -40.5 169t-76 82t-203.5 18h-227l-131 -572h160q113 0 172.5 48t114.5 186h73l-127 -555h-73q0 108 -5.5 149.5t-41 67.5t-132.5 26h-159l-101 -432q-12 -51 -12 -96q0 -54 38.5 -72t174.5 -18q153 0 215.5 10.5t100.5 35.5t116.5 123.5
t120.5 170.5h72l-123 -418h-1178l14 66q135 10 175.5 32.5t56.5 89.5l237 1031q5 22 5 36q0 84 -177 99l17 65h1098zM1108 1608q-49 0 -83.5 35.5t-34.5 87.5q0 51 34.5 86.5t83.5 35.5q50 0 83.5 -35.5t33.5 -86.5q0 -52 -33.5 -87.5t-83.5 -35.5zM658 1608q-49 0 -84 35.5
t-35 87.5q0 51 35 86.5t84 35.5t84 -35.5t35 -86.5q0 -52 -35 -87.5t-84 -35.5z" />
    <glyph glyph-name="uni0402" unicode="&#x402;" horiz-adv-x="1608" 
d="M780 768q223 119 389 119q174 0 274.5 -95.5t100.5 -254.5q0 -208 -149 -386t-371 -178q-227 0 -227 127q0 50 32.5 85.5t81.5 35.5q93 0 128 -121q9 -31 18 -57q120 28 191 161t71 290q0 126 -68 197t-196 71q-115 0 -293 -74l-160 -688h-426l17 66q128 12 178 37.5
t65 89.5l266 1153h-83q-116 0 -161.5 -15.5t-127.5 -110.5t-129 -186h-72l90 385h1223l-86 -375h-70q-15 119 -48 192.5t-68 91.5t-199 18h-58z" />
    <glyph glyph-name="uni0403" unicode="&#x403;" horiz-adv-x="1194" 
d="M424 197q-4 -18 -4 -33q0 -39 31.5 -61t162.5 -37l-16 -66h-637l16 66q149 9 183.5 37.5t48.5 84.5l235 1031q7 31 7 34q0 50 -49.5 69.5t-127.5 31.5l17 65h1091l-90 -393h-75q-6 114 -40.5 200.5t-87.5 103t-198 16.5h-205zM739 1507l-26 39q91 77 282 262
q57 60 123 60q37 0 60.5 -20.5t23.5 -51.5q0 -78 -100 -122t-363 -167z" />
    <glyph glyph-name="uni0404" unicode="&#x404;" horiz-adv-x="1346" 
d="M336 637q-8 -49 -8 -127q0 -212 98.5 -336.5t267.5 -124.5q180 0 316 96v66q0 217 159 217q99 0 99 -98q0 -141 -178 -252t-435 -111t-407 146t-150 401q0 385 243.5 661.5t582.5 276.5q212 0 360 -100l53 67h80l-102 -481h-82q0 192 -81 312t-234 120q-208 0 -358 -171
t-214 -484q203 125 301 125q68 0 160 -41q91 -41 154 -41q59 0 149 61l33 -53q-176 -145 -303 -145q-70 0 -163 40q-94 39 -151 39q-84 0 -190 -63z" />
    <glyph glyph-name="uni0405" unicode="&#x405;" horiz-adv-x="1149" 
d="M1098 948h-80q-9 242 -83.5 331t-223.5 89q-118 0 -198.5 -80t-80.5 -194q0 -107 52 -158.5t205 -107.5q243 -91 309.5 -180.5t66.5 -188.5q0 -209 -165 -348.5t-406 -139.5q-214 0 -365 101l-57 -72h-80l96 485h82q24 -432 358 -432q151 0 240.5 83.5t89.5 223.5
q0 100 -51 158t-175 104q-160 57 -235 97.5t-123.5 116t-48.5 174.5q0 183 152 311.5t358 128.5q191 0 330 -98l53 67h80z" />
    <glyph glyph-name="uni0406" unicode="&#x406;" horiz-adv-x="799" 
d="M907 1354q-137 -10 -181.5 -35.5t-59.5 -87.5l-240 -1038q-4 -17 -4 -31q0 -83 188 -96l-14 -66h-639l14 66q156 6 192.5 37t47.5 79l240 1039q4 17 4 34q0 47 -51 66.5t-136 32.5l15 65h639z" />
    <glyph glyph-name="uni0407" unicode="&#x407;" horiz-adv-x="799" 
d="M907 1354q-137 -10 -181.5 -35.5t-59.5 -87.5l-240 -1038q-4 -17 -4 -31q0 -83 188 -96l-14 -66h-639l14 66q156 6 192.5 37t47.5 79l240 1039q4 17 4 34q0 47 -51 66.5t-136 32.5l15 65h639zM862 1608q-51 0 -85 36t-34 87q0 50 33.5 86.5t85.5 36.5q49 0 82.5 -36.5
t33.5 -86.5q0 -51 -33.5 -87t-82.5 -36zM432 1608q-51 0 -85 36t-34 87q0 50 33.5 86.5t85.5 36.5q49 0 82.5 -36.5t33.5 -86.5q0 -51 -33.5 -87t-82.5 -36z" />
    <glyph glyph-name="uni0408" unicode="&#x408;" horiz-adv-x="1061" 
d="M1194 1354q-126 -10 -168 -34t-59 -91l-191 -846q-38 -168 -181.5 -293t-336.5 -125q-140 0 -223.5 72t-83.5 192q0 100 49 174t129 74q111 0 111 -96q0 -82 -114 -208q-28 -31 -46 -58q41 -78 178 -78q116 0 191.5 89.5t130.5 336.5l170 756q4 18 4 32q0 49 -43 70
t-148 33l17 65h628z" />
    <glyph glyph-name="uni0409" unicode="&#x409;" horiz-adv-x="2075" 
d="M518 1354l14 65h1131l-16 -65q-116 -13 -163.5 -34.5t-64.5 -94.5l-94 -410l186 4q239 0 365.5 -82.5t126.5 -240.5q0 -230 -172 -363t-436 -133h-664l17 66q122 9 163 36.5t58 85.5l266 1151h-367q-146 -657 -379.5 -1008t-443.5 -351q-72 0 -114 36.5t-42 100.5
q0 51 31.5 89t81.5 38q92 0 146 -87q12 -21 22 -34q192 124 366.5 516t174.5 602q0 43 -28.5 65.5t-164.5 47.5zM1307 731l-121 -528q-6 -26 -6 -37q0 -94 178 -94q186 0 292.5 124t106.5 298q0 243 -303 243q-72 0 -147 -6z" />
    <glyph glyph-name="uni040A" unicode="&#x40a;" horiz-adv-x="2185" 
d="M842 0l14 66q126 10 166.5 35t54.5 87l121 525h-655l-119 -518q-4 -17 -4 -33q0 -50 38 -69t122 -27l-17 -66h-588l15 66q139 6 172 37.5t45 80.5l239 1035q5 22 5 32q0 80 -164 103l14 65h590l-14 -65q-119 -10 -159.5 -35.5t-55.5 -89.5l-101 -432h658l98 422
q4 17 4 32q0 80 -164 103l14 65h603l-17 -65q-121 -13 -166 -36t-61 -93l-94 -410l186 4q236 0 364 -82.5t128 -240.5q0 -230 -172.5 -363t-438.5 -133h-661zM1417 731l-123 -528q-4 -17 -4 -37q0 -94 176 -94q186 0 294 123.5t108 298.5q0 243 -303 243q-70 0 -148 -6z" />
    <glyph glyph-name="uni040B" unicode="&#x40b;" horiz-adv-x="1720" 
d="M991 66q96 8 147 27.5t68 96.5l66 279q20 85 20 133q0 156 -217 156q-153 0 -315 -78l-113 -485q-4 -17 -4 -33q0 -49 40.5 -69t127.5 -27l-14 -66h-625l16 66q141 10 187 35.5t61 91.5l266 1153h-83q-116 0 -161.5 -15.5t-127.5 -110.5t-129 -186h-72l90 385h1223
l-86 -375h-70q-15 119 -48 192.5t-68 91.5t-199 18h-58l-135 -586q231 129 402 129q329 0 329 -244q0 -75 -16 -137l-72 -311q-4 -17 -4 -37q0 -72 164 -94l-14 -66h-590z" />
    <glyph glyph-name="uni040C" unicode="&#x40c;" horiz-adv-x="1423" 
d="M838 727q75 -24 130.5 -88t92.5 -191l56 -194q36 -123 60 -148t111 -34q30 -3 51 -6l-16 -66h-373q-24 154 -76 351.5t-118 259t-181 61.5h-43l-108 -477q-4 -18 -4 -33q0 -50 38 -69t122 -27l-17 -66h-588l15 66q139 6 172 37.5t45 80.5l239 1035q5 22 5 32
q0 80 -164 103l14 65h590l-14 -65q-119 -10 -159.5 -35.5t-55.5 -89.5l-111 -479h92q76 0 147 57.5t188 260.5q127 220 221.5 292t191.5 72q79 0 122 -37t43 -97q0 -47 -30 -79.5t-80 -32.5q-48 0 -80 24.5t-70 110.5q-85 -49 -201 -267q-118 -221 -257 -313v-14zM835 1507
l-26 39q91 77 282 262q57 60 123 60q37 0 60.5 -20.5t23.5 -51.5q0 -78 -100 -122t-363 -167z" />
    <glyph glyph-name="uni040E" unicode="&#x40e;" horiz-adv-x="1346" 
d="M143 1354l17 65h588l-17 -65q-188 -12 -188 -58q0 -20 243 -755q433 675 433 739q0 57 -187 74l17 65h538l-14 -65q-148 -18 -215 -103t-325 -485q-249 -385 -346.5 -516.5t-205.5 -200.5t-219 -69q-70 0 -118 38.5t-48 92.5q0 53 38 97t97 44q83 0 120 -104
q9 -27 18 -50q120 37 262 234l-252 777q-45 136 -69.5 168t-69 52.5t-97.5 24.5zM1270 1839l55 -47q-75 -124 -193 -196t-237 -72q-146 0 -224.5 54t-78.5 142q0 66 35 107t90 41q94 0 94 -76q0 -51 -53 -137q52 -39 147 -39q205 0 365 223z" />
    <glyph glyph-name="uni040F" unicode="&#x40f;" horiz-adv-x="1659" 
d="M-10 66q126 9 165.5 36.5t53.5 85.5l237 1031q5 22 5 32q0 80 -164 103l14 65h586l-15 -65q-117 -10 -155.5 -34t-54.5 -91l-238 -1032q-6 -26 -6 -52q0 -45 35.5 -57t279.5 -12l248 4q78 2 88 66q3 18 8 38l238 1035q6 26 6 34q0 50 -53.5 73.5t-106.5 27.5l17 65h583
l-14 -65q-65 -5 -130 -23.5t-85 -101.5l-240 -1034q-4 -17 -4 -37q0 -41 32.5 -61t131.5 -31l-14 -66h-518q-112 0 -244 -344h-78q10 99 10 137q0 207 -92 207h-543z" />
    <glyph glyph-name="uni0410" unicode="&#x410;" horiz-adv-x="1374" 
d="M1303 0h-580l14 66q199 19 199 75l-45 353h-500q-178 -294 -178 -351q0 -64 186 -77l-14 -66h-545l15 66q79 6 137 35.5t100.5 86.5t309.5 490l470 762h80l189 -1229q21 -133 176 -145zM786 1130l-340 -555h428z" />
    <glyph glyph-name="uni0411" unicode="&#x411;" horiz-adv-x="1341" 
d="M565 815l187 4q237 0 364 -83t127 -240q0 -229 -171.5 -362.5t-436.5 -133.5h-664l17 66q133 12 169.5 38.5t51.5 83.5l237 1031q5 22 5 32q0 47 -35 68t-127 35l14 65h1063l-84 -362h-78q-7 113 -42.5 186t-80 88t-188.5 15h-205zM547 731l-121 -528q-6 -26 -6 -37
q0 -94 178 -94q187 0 293 124.5t106 297.5q0 243 -303 243q-68 0 -147 -6z" />
    <glyph glyph-name="uni0412" unicode="&#x412;" horiz-adv-x="1339" 
d="M885 766v-8q168 -25 260 -104.5t92 -200.5q0 -203 -170 -328t-403 -125h-693l17 66q124 10 164.5 36t56.5 86l235 1031q7 31 7 38q0 78 -160 97l14 65h627q164 0 265 -66.5t101 -185.5q0 -308 -413 -401zM686 1341l-127 -553h125q176 0 274.5 103t98.5 266
q0 189 -228 189q-48 0 -143 -5zM541 709l-113 -490q-6 -26 -6 -49q0 -98 188 -98q177 0 279 125t102 286q0 106 -72 168t-202 62q-111 0 -176 -4z" />
    <glyph glyph-name="uni0413" unicode="&#x413;" horiz-adv-x="1194" 
d="M424 197q-4 -18 -4 -33q0 -39 31.5 -61t162.5 -37l-16 -66h-637l16 66q149 9 183.5 37.5t48.5 84.5l235 1031q7 31 7 34q0 50 -49.5 69.5t-127.5 31.5l17 65h1091l-90 -393h-75q-6 114 -40.5 200.5t-87.5 103t-198 16.5h-205z" />
    <glyph glyph-name="uni0414" unicode="&#x414;" horiz-adv-x="1479" 
d="M221 2q-81 0 -177 -94t-171 -240h-74l95 414h139q210 235 393.5 608.5t183.5 548.5q0 55 -27.5 74t-160.5 41l16 65h1143l-16 -65q-12 -2 -29 -4q-100 -11 -134.5 -34.5t-49.5 -86.5l-242 -1049q-6 -26 -6 -35q0 -63 100 -63h84l-94 -414h-76q-7 153 -41 228t-77 90.5
t-197 15.5h-582zM1163 1339h-397q-158 -718 -594 -1257h608q58 0 81 19t34 71z" />
    <glyph glyph-name="uni0415" unicode="&#x415;" horiz-adv-x="1337" 
d="M1309 1077h-74q-7 105 -40.5 169t-76 82t-203.5 18h-227l-131 -572h160q113 0 172.5 48t114.5 186h73l-127 -555h-73q0 108 -5.5 149.5t-41 67.5t-132.5 26h-159l-101 -432q-12 -51 -12 -96q0 -54 38.5 -72t174.5 -18q153 0 215.5 10.5t100.5 35.5t116.5 123.5
t120.5 170.5h72l-123 -418h-1178l14 66q135 10 175.5 32.5t56.5 89.5l237 1031q5 22 5 36q0 84 -177 99l17 65h1098z" />
    <glyph glyph-name="uni0416" unicode="&#x416;" horiz-adv-x="2015" 
d="M473 1325q-68 -137 -168 -137q-98 0 -98 94q0 63 52 106.5t140 43.5q113 0 181 -78.5t91 -289.5q19 -183 67 -253t136 -70h76l111 478q4 17 4 32q0 45 -39 66.5t-125 36.5l14 65h592l-14 -65q-123 -10 -163.5 -35.5t-55.5 -89.5l-113 -484h76q78 0 154.5 67t177.5 252
q200 368 416 368q161 0 161 -132q0 -47 -33 -81.5t-83 -34.5q-96 0 -148 133q-71 -43 -192 -266q-118 -217 -260 -314v-14q87 -32 137.5 -101t73 -139t69.5 -229q36 -121 62 -147t109 -35q29 -3 50 -6l-16 -66h-367q-19 120 -75 339t-127.5 273t-178.5 54h-24l-109 -471
q-4 -17 -4 -33q0 -43 33.5 -64.5t132.5 -31.5l-14 -66h-592l14 66q138 7 171.5 38t45.5 80l111 475h-55q-151 0 -264 -110.5t-367 -548.5h-393l16 66q23 3 52 6q91 9 134 44.5t152 201.5q105 161 156.5 220t130.5 111.5t178 77.5l4 14q-96 103 -118 324q-22 215 -85 260z
" />
    <glyph glyph-name="uni0417" unicode="&#x417;" horiz-adv-x="1247" 
d="M195 174q80 -125 272 -125q183 0 314.5 117.5t131.5 306.5q0 223 -260 223h-145l22 105h107q163 0 258.5 105t95.5 274q0 188 -203 188q-279 0 -481 -422h-82l109 473h80l30 -67q190 98 377 98q201 0 306.5 -79t105.5 -208q0 -131 -104.5 -238t-307.5 -157l-2 -12
q147 -8 242.5 -84.5t95.5 -198.5q0 -224 -201 -365t-495 -141q-205 0 -330 86t-125 211q0 73 43.5 130t108.5 57q48 0 78 -30.5t30 -76.5q0 -57 -50 -136z" />
    <glyph glyph-name="uni0418" unicode="&#x418;" horiz-adv-x="1675" 
d="M1176 1354l16 65h586l-15 -65q-108 -9 -153.5 -32.5t-61.5 -92.5l-237 -1034q-4 -17 -4 -35q0 -44 34 -64t125 -30l-16 -66h-586l15 66q141 6 174 37.5t45 80.5l205 877l-883 -842q-10 -24 -10 -57q0 -57 51.5 -72.5t116.5 -23.5l-17 -66h-586l15 66q139 6 172 37.5
t45 80.5l239 1035q5 22 5 32q0 80 -164 103l14 65h588l-15 -65q-121 -10 -161.5 -35.5t-55.5 -89.5l-198 -854l882 837q5 21 5 43q0 42 -32.5 62t-137.5 37z" />
    <glyph glyph-name="uni0419" unicode="&#x419;" horiz-adv-x="1675" 
d="M1176 1354l16 65h586l-15 -65q-108 -9 -153.5 -32.5t-61.5 -92.5l-237 -1034q-4 -17 -4 -35q0 -44 34 -64t125 -30l-16 -66h-586l15 66q141 6 174 37.5t45 80.5l205 877l-883 -842q-10 -24 -10 -57q0 -57 51.5 -72.5t116.5 -23.5l-17 -66h-586l15 66q139 6 172 37.5
t45 80.5l239 1035q5 22 5 32q0 80 -164 103l14 65h588l-15 -65q-121 -10 -161.5 -35.5t-55.5 -89.5l-198 -854l882 837q5 21 5 43q0 42 -32.5 62t-137.5 37zM1432 1839l55 -47q-75 -124 -193 -196t-237 -72q-146 0 -224.5 54t-78.5 142q0 66 35 107t90 41q94 0 94 -76
q0 -51 -53 -137q52 -39 147 -39q205 0 365 223z" />
    <glyph glyph-name="uni041A" unicode="&#x41a;" horiz-adv-x="1423" 
d="M838 727q75 -24 130.5 -88t92.5 -191l56 -194q36 -123 60 -148t111 -34q30 -3 51 -6l-16 -66h-373q-24 154 -76 351.5t-118 259t-181 61.5h-43l-108 -477q-4 -18 -4 -33q0 -50 38 -69t122 -27l-17 -66h-588l15 66q139 6 172 37.5t45 80.5l239 1035q5 22 5 32
q0 80 -164 103l14 65h590l-14 -65q-119 -10 -159.5 -35.5t-55.5 -89.5l-111 -479h92q76 0 147 57.5t188 260.5q127 220 221.5 292t191.5 72q79 0 122 -37t43 -97q0 -47 -30 -79.5t-80 -32.5q-48 0 -80 24.5t-70 110.5q-85 -49 -201 -267q-118 -221 -257 -313v-14z" />
    <glyph glyph-name="uni041B" unicode="&#x41b;" horiz-adv-x="1548" 
d="M1636 1354q-64 -5 -129.5 -23.5t-85.5 -101.5l-237 -1034q-4 -17 -4 -35q0 -81 159 -94l-16 -66h-588l15 66q139 6 172.5 37.5t44.5 80.5l268 1155h-367q-145 -654 -380 -1006.5t-443 -352.5q-72 0 -114 36.5t-42 100.5q0 51 31.5 89t81.5 38q92 0 146 -87q12 -21 22 -34
q192 124 366.5 516t174.5 602q0 43 -28.5 65.5t-164.5 47.5l14 65h1119z" />
    <glyph glyph-name="uni041C" unicode="&#x41c;" horiz-adv-x="1898" 
d="M1993 1354q-127 -11 -166.5 -36t-54.5 -89l-240 -1034q-4 -17 -4 -33q0 -44 33.5 -65t136.5 -31l-17 -66h-624l16 66q157 6 200 46t50 83l246 1056h-10l-777 -1228h-47l-178 1255h-8l-203 -872q-27 -116 -27 -185q0 -77 39 -105t154 -50l-14 -66h-574l17 66
q169 16 217.5 82.5t87.5 244.5l170 737q10 43 10 78q0 136 -180 146l14 65h477l156 -1067l553 893q64 103 86 174h475z" />
    <glyph glyph-name="uni041D" unicode="&#x41d;" horiz-adv-x="1669" 
d="M1755 1354q-63 -5 -128 -23.5t-87 -101.5l-237 -1034q-5 -22 -5 -35q0 -81 160 -94l-14 -66h-590l16 66q139 7 172.5 39t44.5 79l117 512h-665l-115 -501q-4 -17 -4 -33q0 -50 38 -69t122 -27l-17 -66h-588l15 66q139 6 172 37.5t45 80.5l239 1035q5 22 5 32
q0 80 -164 103l14 65h590l-14 -65q-119 -10 -159.5 -35.5t-55.5 -89.5l-103 -449h668l98 439q4 18 4 32q0 49 -50.5 73.5t-111.5 29.5l15 65h590z" />
    <glyph glyph-name="uni041E" unicode="&#x41e;" horiz-adv-x="1495" 
d="M651 -35q-248 0 -399.5 159.5t-151.5 416.5q0 372 249 641.5t577 269.5q246 0 398.5 -158.5t152.5 -421.5q0 -372 -251.5 -639.5t-574.5 -267.5zM907 1368q-254 0 -412.5 -270t-158.5 -604q0 -213 86.5 -329t247.5 -116q249 0 410 266.5t161 616.5q0 207 -87 321.5
t-247 114.5z" />
    <glyph glyph-name="uni041F" unicode="&#x41f;" horiz-adv-x="1655" 
d="M1743 1354q-68 -5 -132 -24t-83 -101l-240 -1034q-4 -17 -4 -35q0 -81 162 -94l-16 -66h-588l14 66q138 6 172 38.5t45 79.5l264 1149h-653l-260 -1138q-4 -18 -4 -33q0 -50 38 -69t122 -27l-17 -66h-588l15 66q139 6 172 37.5t45 80.5l239 1035q5 22 5 32q0 89 -172 103
l14 65h1464z" />
    <glyph glyph-name="uni0420" unicode="&#x420;" horiz-adv-x="1249" 
d="M522 627l-100 -439q-4 -18 -4 -36q0 -46 31 -62.5t149 -23.5l-14 -66h-609l15 66q138 8 172 38t47 84l237 1035q7 31 7 41q0 45 -41 64t-131 26l14 65h631q176 0 281.5 -78t105.5 -208q0 -224 -182 -365t-435 -141h-174zM686 1341l-143 -632h112q201 0 306.5 115.5
t105.5 287.5q0 229 -250 229h-131z" />
    <glyph glyph-name="uni0421" unicode="&#x421;" horiz-adv-x="1315" 
d="M1319 913h-82v39q0 418 -322 418q-239 0 -408 -239t-169 -576q0 -219 106 -349t279 -130q291 0 471 319l72 -37q-224 -391 -635 -391q-230 0 -380.5 156t-150.5 409q0 371 241 645.5t574 274.5q230 0 375 -100l58 67h79z" />
    <glyph glyph-name="uni0422" unicode="&#x422;" horiz-adv-x="1268" 
d="M1366 1034h-70q-6 121 -40.5 201.5t-80.5 95.5t-186 15h-61l-264 -1145q-5 -22 -5 -35q0 -50 45 -68.5t156 -31.5l-16 -66h-670l16 66q150 11 194.5 33.5t64.5 93.5l266 1153h-53q-143 0 -191.5 -16t-132.5 -106.5t-137 -189.5h-72l90 385h1235z" />
    <glyph glyph-name="uni0423" unicode="&#x423;" horiz-adv-x="1346" 
d="M143 1354l17 65h588l-17 -65q-188 -12 -188 -58q0 -20 243 -755q433 675 433 739q0 57 -187 74l17 65h538l-14 -65q-148 -18 -215 -103t-325 -485q-249 -385 -346.5 -516.5t-205.5 -200.5t-219 -69q-70 0 -118 38.5t-48 92.5q0 53 38 97t97 44q83 0 120 -104
q9 -27 18 -50q120 37 262 234l-252 777q-45 136 -69.5 168t-69 52.5t-97.5 24.5z" />
    <glyph glyph-name="uni0424" unicode="&#x424;" horiz-adv-x="1571" 
d="M815 219q-16 -68 -16 -84q0 -34 27.5 -54t154.5 -26l-14 -65h-602l16 65q135 7 170.5 38t46.5 77l10 49q-237 0 -373.5 107t-136.5 305q0 255 184 417t517 162h39q12 50 12 68q0 71 -168 90l14 66h592l-14 -66q-118 -8 -161 -29t-60 -86l-9 -43q243 0 376.5 -108
t133.5 -301q0 -258 -184.5 -420t-515.5 -162h-39zM1026 1137l-192 -842h65q197 0 311.5 162t114.5 370q0 310 -299 310zM754 1137q-196 0 -311 -160t-115 -373q0 -147 75.5 -228t221.5 -81l194 842h-65z" />
    <glyph glyph-name="uni0425" unicode="&#x425;" horiz-adv-x="1454" 
d="M1599 1354q-151 -11 -227 -81.5t-504 -510.5l179 -398q82 -182 115.5 -228t53.5 -54t119 -16l-14 -66h-639l14 66q201 7 201 63q0 73 -182 489q-432 -442 -432 -495q0 -52 155 -57l-14 -66h-535l17 66q157 8 252 103.5t518 532.5l-164 368q-84 188 -102 213.5t-56 44.5
t-127 26l17 65h630l-14 -65q-198 -11 -198 -62q0 -77 172 -452q389 403 389 456q0 49 -154 58l16 65h529z" />
    <glyph glyph-name="uni0426" unicode="&#x426;" horiz-adv-x="1655" 
d="M-10 66q126 8 165.5 36t53.5 86l237 1031q5 22 5 32q0 80 -164 103l14 65h586l-15 -65q-117 -10 -155.5 -34t-54.5 -91l-238 -1032q-6 -26 -6 -52q0 -45 25.5 -55.5t173.5 -10.5q355 0 396 4t52 61q3 19 8 40l240 1035q4 17 4 32q0 89 -164 103l14 65h590l-14 -65
q-68 -5 -132 -24t-83 -101l-240 -1032q-8 -34 -8 -56q0 -63 98 -63h84l-94 -412h-76q-7 148 -40 224t-78 93t-197 17h-1004z" />
    <glyph glyph-name="uni0427" unicode="&#x427;" horiz-adv-x="1534" 
d="M1061 657q-246 -118 -412 -118q-354 0 -354 260q0 49 12 121l70 299q4 17 4 32q0 54 -45.5 72.5t-118.5 30.5l16 65h588l-14 -65l-30 -4q-78 -9 -122 -29t-61 -92l-59 -262q-17 -75 -17 -117q0 -180 221 -180q172 0 340 73l111 476q4 17 4 32q0 51 -54.5 75t-109.5 28
l17 65h587l-14 -65q-68 -6 -132 -25t-83 -100l-238 -1034q-4 -17 -4 -35q0 -81 160 -94l-14 -66h-590l14 66q140 6 173 38t44 80z" />
    <glyph glyph-name="uni0428" unicode="&#x428;" horiz-adv-x="2228" 
d="M-29 0l15 66q133 9 171.5 38t51.5 84l237 1031q5 22 5 32q0 80 -164 103l14 65h580l-15 -65q-113 -9 -152 -33.5t-55 -91.5l-237 -1032q-8 -35 -8 -62q0 -46 42 -51.5t218 -5.5h81q112 0 134 14t39 90l239 1037q4 17 4 32q0 90 -155 103l14 65h572l-15 -65
q-114 -9 -152.5 -34t-54.5 -91l-237 -1032q-8 -35 -8 -62q0 -40 27.5 -48.5t219.5 -8.5q179 0 213.5 8.5t44.5 57.5l248 1075q4 17 4 32q0 53 -51.5 76t-103.5 27l14 65h580l-15 -65q-108 -9 -153.5 -32.5t-61.5 -92.5l-237 -1034q-4 -17 -4 -37q0 -44 35 -63t128 -29
l-16 -66h-2036z" />
    <glyph glyph-name="uni0429" unicode="&#x429;" horiz-adv-x="2228" 
d="M1868 -334q-7 155 -44 230t-82.5 89.5t-191.5 14.5h-1579l15 66q138 8 174.5 41t48.5 86l237 1026q5 22 5 32q0 80 -164 103l14 65h580l-15 -65q-113 -9 -152 -33.5t-55 -91.5l-237 -1032q-8 -35 -8 -62q0 -41 28.5 -49t231.5 -8h81q112 0 134 14t39 90l239 1037
q4 17 4 32q0 90 -155 103l14 65h572l-15 -65q-114 -9 -152.5 -34t-54.5 -91l-237 -1032q-8 -35 -8 -62q0 -41 29 -49t235 -8q194 0 213 12t37 92l239 1037q4 17 4 32q0 53 -52 76t-103 27l14 65h580l-15 -65q-108 -9 -153.5 -32.5t-61.5 -92.5l-244 -1063q-4 -15 -4 -25
q0 -63 101 -63h84l-96 -412h-74z" />
    <glyph glyph-name="uni042A" unicode="&#x42a;" horiz-adv-x="1563" 
d="M813 815l186 4q239 0 365.5 -82.5t126.5 -240.5q0 -230 -172 -363t-436 -133h-682l14 66q132 9 181 38.5t61 83.5l266 1158h-51q-172 0 -226 -25t-129.5 -114.5t-109.5 -162.5h-76l88 375h938l-14 -65q-114 -9 -164 -31.5t-72 -97.5zM795 731l-121 -528q-6 -26 -6 -37
q0 -94 178 -94q186 0 292.5 124t106.5 298q0 243 -303 243q-72 0 -147 -6z" />
    <glyph glyph-name="uni042B" unicode="&#x42b;" horiz-adv-x="1987" 
d="M-29 0l17 66q133 12 169.5 38.5t51.5 83.5l237 1031q5 22 5 32q0 49 -43 70t-121 33l14 65h602l-16 -65q-116 -13 -163.5 -34.5t-64.5 -94.5l-94 -410l187 4q237 0 364 -83t127 -240q0 -229 -171.5 -362.5t-436.5 -133.5h-664zM547 731l-121 -528q-6 -26 -6 -37
q0 -94 178 -94q187 0 293 124.5t106 297.5q0 243 -303 243q-68 0 -147 -6zM1645 1219q4 17 4 32q0 52 -55.5 75t-112.5 28l14 65h598l-14 -65q-124 -10 -164 -35t-55 -90l-238 -1034q-4 -17 -4 -35q0 -40 30.5 -62t133.5 -32l-15 -66h-600l17 66q142 6 176 39t45 79z" />
    <glyph glyph-name="uni042C" unicode="&#x42c;" horiz-adv-x="1315" 
d="M-29 0l17 66q133 12 169.5 38.5t51.5 83.5l237 1031q5 22 5 32q0 49 -43 70t-121 33l14 65h602l-16 -65q-116 -13 -163.5 -34.5t-64.5 -94.5l-94 -410l187 4q237 0 364 -83t127 -240q0 -229 -171.5 -362.5t-436.5 -133.5h-664zM547 731l-121 -528q-6 -26 -6 -37
q0 -94 178 -94q187 0 293 124.5t106 297.5q0 243 -303 243q-68 0 -147 -6z" />
    <glyph glyph-name="uni042D" unicode="&#x42d;" horiz-adv-x="1348" 
d="M193 156q112 -107 280 -107q218 0 381.5 181t226.5 513q-191 -125 -295 -125q-72 0 -161 39q-90 39 -156 39q-60 0 -147 -59l-33 53q176 144 299 144q68 0 165 -38q96 -38 152 -38q90 0 191 65q6 43 6 142q0 196 -87 299.5t-245 103.5q-297 0 -491 -430h-82l110 481h78
l27 -67q186 98 391 98q242 0 383 -144.5t141 -392.5q0 -382 -245.5 -664t-594.5 -282q-213 0 -348 82t-135 207q0 78 42 127t108 49q49 0 78.5 -30.5t29.5 -75.5q0 -63 -49 -138z" />
    <glyph glyph-name="uni042E" unicode="&#x42e;" horiz-adv-x="2183" 
d="M537 696l-115 -501q-4 -17 -4 -33q0 -50 38 -69t122 -27l-17 -66h-586l15 66q139 6 172 37.5t45 80.5l239 1035q5 22 5 32q0 80 -164 103l14 65h588l-15 -65q-64 -5 -129.5 -23.5t-85.5 -101.5l-104 -449h276q80 299 302.5 485.5t484.5 186.5q244 0 395.5 -159
t151.5 -421q0 -369 -248.5 -638t-568.5 -269q-244 0 -394.5 159.5t-150.5 416.5q0 79 10 155h-276zM1599 1368q-252 0 -410.5 -272t-158.5 -602q0 -208 87 -326.5t247 -118.5q248 0 407.5 268t159.5 615q0 207 -87 321.5t-245 114.5z" />
    <glyph glyph-name="uni042F" unicode="&#x42f;" horiz-adv-x="1427" 
d="M866 645q-155 0 -264.5 -109.5t-355.5 -535.5h-396l17 66q132 18 164.5 33t62.5 56t139 203.5t183 225t194 98.5l2 14q-282 64 -282 287q0 191 150 313.5t374 122.5h686l-16 -65q-126 -10 -166 -34t-60 -91l-237 -1034q-4 -17 -4 -35q0 -81 160 -94l-15 -66h-590l17 66
q137 6 171.5 39.5t45.5 78.5l104 461h-84zM1112 1343h-201q-146 0 -245 -109t-99 -261q0 -119 71.5 -182.5t201.5 -63.5h131z" />
    <glyph glyph-name="uni0430" unicode="&#x430;" horiz-adv-x="1174" 
d="M1098 51q-159 -67 -242 -67q-71 0 -114.5 42t-45.5 105h-8q-177 -160 -307 -160q-145 0 -228 103.5t-83 285.5q0 252 173.5 451t399.5 199q137 0 238 -64l184 47l10 -14l-151 -645q-25 -107 -25 -141q0 -57 24.5 -77t80.5 -20q54 0 108 19zM840 764q9 40 -28 107t-153 67
q-146 0 -264.5 -177.5t-118.5 -402.5q0 -148 44 -211t137 -63q113 0 256 141z" />
    <glyph glyph-name="uni0431" unicode="&#x431;" horiz-adv-x="1100" 
d="M217 729q170 279 428 279q187 0 287 -104.5t100 -285.5q0 -267 -167 -458t-423 -191q-171 0 -272.5 118t-101.5 337q0 171 56 375t128.5 335.5t158.5 195t155.5 80.5t261.5 28q137 8 176.5 20t105.5 84l51 -41q-180 -217 -232 -224t-231 -18q-123 -8 -204.5 -45
t-161.5 -159t-127 -324zM631 938q-175 0 -275 -188t-100 -422q0 -287 211 -287q161 0 261.5 178.5t100.5 435.5q0 283 -198 283z" />
    <glyph glyph-name="uni0432" unicode="&#x432;" horiz-adv-x="1055" 
d="M705 535l-3 -13q115 -8 180.5 -61t65.5 -139q0 -158 -135.5 -255.5t-357.5 -97.5q-363 0 -363 357q0 301 154.5 492.5t419.5 191.5q141 0 227 -53t86 -150q0 -205 -274 -272zM307 530l182 21q157 18 227 74.5t70 165.5q0 69 -43.5 108t-117.5 39q-237 0 -318 -408z
M295 457q-8 -45 -8 -138q0 -133 56.5 -205.5t148.5 -72.5q123 0 189.5 80.5t66.5 200.5q0 159 -230 159q-79 0 -223 -24z" />
    <glyph glyph-name="uni0433" unicode="&#x433;" horiz-adv-x="940" 
d="M805 287l55 -47q-178 -267 -498 -267q-146 0 -231.5 67.5t-85.5 168.5q0 205 322 290q217 56 274 112t57 157q0 58 -48 96.5t-134 38.5q-165 0 -328 -207l-61 45q180 269 469 269q140 0 222.5 -64t82.5 -164q0 -104 -65 -174.5t-230 -117.5q-159 -45 -221.5 -72
t-98.5 -76t-36 -115q0 -60 53.5 -104.5t147.5 -44.5q187 0 354 209z" />
    <glyph glyph-name="uni0434" unicode="&#x434;" horiz-adv-x="1090" 
d="M862 938q-11 243 -96.5 374.5t-210.5 131.5q-119 0 -193 -62q-19 -16 -34 -26l-39 47q144 145 319 145q195 0 320 -170.5t125 -476.5q0 -412 -160 -672t-440 -260q-173 0 -278 112.5t-105 299.5q0 262 167.5 445.5t395.5 183.5q144 0 229 -72zM860 809q-83 129 -213 129
q-145 0 -258 -177.5t-113 -412.5q0 -307 193 -307q159 0 265 205.5t126 562.5z" />
    <glyph glyph-name="uni0435" unicode="&#x435;" horiz-adv-x="967" 
d="M268 408q0 -324 230 -324q178 0 327 199l58 -43q-82 -125 -203.5 -197t-247.5 -72q-175 0 -268.5 99t-93.5 282q0 264 164 461t409 197q135 0 209 -55t74 -154q0 -172 -170 -263t-488 -130zM274 477q276 34 371.5 122t95.5 226q0 113 -116 113q-119 0 -221 -129
t-130 -332z" />
    <glyph glyph-name="uni0436" unicode="&#x436;" horiz-adv-x="1831" 
d="M1581 907q-240 -123 -240 -553q0 -278 154 -278q113 0 227 160l52 -46q-165 -219 -342 -219q-128 0 -198.5 95.5t-70.5 273.5q0 83 15 145h-168l-111 -485h-180l112 483h-165q-63 -238 -212.5 -375t-326.5 -137q-133 0 -133 111q0 45 28.5 73.5t77.5 28.5q83 0 162 -118
q242 118 242 552q0 279 -156 279q-107 0 -227 -160l-49 45q159 219 342 219q128 0 198 -95.5t70 -270.5l-4 -74h172l94 420l170 12l12 -14l-98 -416h170q75 206 215 322t303 116q135 0 135 -108q0 -47 -29 -76t-77 -29q-82 0 -164 119z" />
    <glyph glyph-name="uni0437" unicode="&#x437;" horiz-adv-x="971" 
d="M637 528l-4 -14q227 -17 227 -188q0 -156 -141.5 -254.5t-362.5 -98.5q-157 0 -247.5 61t-90.5 159q0 58 34 96.5t87 38.5q45 0 71 -25t26 -59q0 -39 -48 -138q60 -63 181 -63q119 0 202.5 78t83.5 201q0 147 -188 147h-121l21 88h122q100 0 154.5 56.5t54.5 125.5
t-42.5 113.5t-129.5 44.5q-185 0 -338 -197l-59 41q172 269 444 269q152 0 238 -63t86 -169q0 -89 -67.5 -158t-192.5 -92z" />
    <glyph glyph-name="uni0438" unicode="&#x438;" horiz-adv-x="1178" 
d="M1108 51q-161 -67 -242 -67q-73 0 -116 42t-43 113h-7q-188 -164 -358 -164q-97 0 -150 55t-53 146q0 62 23 156l78 315q22 89 22 144q0 59 -20 76.5t-72 17.5q-38 0 -111 -23l17 66q152 69 231 69q156 0 156 -143q0 -53 -17 -111l-88 -370q-22 -92 -22 -133
q0 -146 121 -146q134 0 266 135l174 752l174 12l12 -14l-147 -643q-27 -118 -27 -141q0 -57 25 -78t82 -21q52 0 106 19z" />
    <glyph glyph-name="uni0439" unicode="&#x439;" horiz-adv-x="1178" 
d="M1108 51q-161 -67 -242 -67q-73 0 -116 42t-43 113h-7q-188 -164 -358 -164q-97 0 -150 55t-53 146q0 62 23 156l78 315q22 89 22 144q0 59 -20 76.5t-72 17.5q-38 0 -111 -23l17 66q152 69 231 69q156 0 156 -143q0 -53 -17 -111l-88 -370q-22 -92 -22 -133
q0 -146 121 -146q134 0 266 135l174 752l174 12l12 -14l-147 -643q-27 -118 -27 -141q0 -57 25 -78t82 -21q52 0 106 19zM1018 1503q-94 -346 -359 -346q-107 0 -169 48.5t-62 125.5q0 57 30 89t77 32q86 0 86 -82q0 -42 -31 -104q28 -23 82 -23q189 0 284 281z" />
    <glyph glyph-name="uni043A" unicode="&#x43a;" horiz-adv-x="1106" 
d="M653 518q72 -35 97.5 -79.5t44.5 -135.5l13 -73q15 -84 47 -112t97 -28q41 0 119 23l-14 -68q-159 -61 -250 -61q-60 0 -111.5 38t-72.5 195l-6 36q-3 17 -5 32q-19 105 -50 137.5t-97 32.5h-66l-102 -455h-186l147 647q25 110 25 144q0 56 -20 75t-75 19q-41 0 -108 -23
l14 66q154 69 234 69q153 0 153 -143q0 -47 -16 -121l-47 -205h59q55 0 110 35t122 171q86 178 158 222.5t143 44.5q51 0 82.5 -30.5t31.5 -79.5q0 -48 -30.5 -79.5t-77.5 -31.5q-51 0 -137 80q-18 -12 -47 -81q-83 -191 -179 -253v-8z" />
    <glyph glyph-name="uni043B" unicode="&#x43b;" horiz-adv-x="1157" 
d="M1096 117l-15 -66q-166 -67 -239 -67q-160 0 -160 143q0 43 18 111l101 391q47 182 47 239q0 19 -35 39.5t-74 20.5q-88 0 -157 -98.5t-146 -325.5q-174 -522 -379 -522q-106 0 -106 106q0 44 31.5 80.5t78.5 36.5q42 0 117 -41q69 67 164 352q69 198 120.5 292
t138.5 148t202 54q103 0 169 -35t66 -88q0 -49 -37 -197l-96 -358q-26 -97 -26 -137q0 -57 25.5 -78t82.5 -21q48 0 109 21z" />
    <glyph glyph-name="uni043C" unicode="&#x43c;" horiz-adv-x="1516" 
d="M616 16q-39 465 -98 748h-8q-74 -392 -212 -587t-243 -195q-102 0 -102 106q0 44 31 79.5t79 35.5q45 0 123 -43q215 272 256 739h-174l21 74l327 18q113 -368 144 -731l465 719l180 14l12 -14l-145 -643q-25 -111 -25 -141q0 -57 26 -78t83 -21q47 0 106 21l-14 -66
q-171 -67 -236 -67q-155 0 -155 143q0 54 14 115l131 546l-10 5l-510 -777h-66z" />
    </font>
</defs>
</svg>
