<?xml version="1.0" standalone="no"?>
<!DOCTYPE svg PUBLIC "-//W3C//DTD SVG 1.1//EN" "http://www.w3.org/Graphics/SVG/1.1/DTD/svg11.dtd" >
<svg xmlns="http://www.w3.org/2000/svg" xmlns:xlink="http://www.w3.org/1999/xlink" version="1.1">
<metadata>
Created by FontForge 20170731 at Sat Nov 12 06:11:22 2011
 By Aleksey,,,
(c) 2011 Microsoft Corporation. All Rights Reserved.
</metadata>
<defs>
<font id="GeorgiaPro-CondLight" horiz-adv-x="1024" >
  <font-face 
    font-family="Georgia"
    font-weight="300"
    font-stretch="condensed"
    units-per-em="2048"
    panose-1="2 4 3 6 5 4 5 2 3 3"
    ascent="1638"
    descent="-410"
    x-height="983"
    cap-height="1419"
    bbox="-340 -621 2103 2071"
    underline-thickness="90"
    underline-position="-317"
    unicode-range="U+0020-FB04"
  />
<missing-glyph horiz-adv-x="2048" 
d="M256 0v1536h1536v-1536h-1536zM385 129h1280v1280h-1280v-1280z" />
    <glyph glyph-name="f_f" unicode="ff" horiz-adv-x="1087" 
d="M1221 1448q0 -28 -16 -52t-54 -24q-74 0 -135 94q-71 0 -108.5 -99t-37.5 -275v-109h185v-80h-185v-731q0 -70 39 -88q19 -11 81 -19l24 -4v-61h-383v61q47 4 73 12t38 31.5t12 57.5v741h-435v-731q0 -70 39 -88q45 -18 105 -23v-61h-383v61l42 4q42 4 61.5 26.5
t19.5 70.5v741h-150v80h150v55q0 136 53 241t146 166.5t198 61.5q69 0 105 -30t36 -70q0 -28 -15.5 -52t-53.5 -24q-76 0 -135 94q-107 0 -162.5 -95.5t-55.5 -268.5v-78h435v86q0 138 46.5 247.5t125 170.5t170.5 61q62 0 93.5 -30t31.5 -70z" />
    <glyph glyph-name="fi" unicode="fi" horiz-adv-x="1065" 
d="M754 815q0 52 -17 88h-418v-731q0 -31 9.5 -55.5t31.5 -34t103 -21.5v-61h-383v61q46 4 71.5 11.5t38.5 28.5t13 63v739h-150v80h150v49q0 149 57 267.5t159.5 184.5t225.5 66q97 0 156 -40t59 -105q0 -82 -69 -82q-97 0 -132 156h-18q-165 0 -243.5 -102t-78.5 -318v-76
h324l215 14l12 -14v-809q0 -47 27 -74.5t96 -38.5v-61h-381v61q78 7 99 13q43 16 43 88v653z" />
    <glyph glyph-name="fl" unicode="fl" horiz-adv-x="1065" 
d="M633 0v61q53 5 76 13t33.5 29t11.5 59v1243q-31 33 -79 51.5t-100 18.5q-119 0 -187.5 -105.5t-68.5 -300.5v-86h216v-80h-216v-731q0 -31 10 -56t34.5 -34.5t99.5 -20.5v-61h-383v61q43 4 70 11.5t40 29t13 62.5v739h-150v80h150v49q0 135 52 259.5t140.5 191.5
t196.5 67q61 0 116 -13t87 -30l61 41l14 -14v-1360q0 -47 26.5 -74t96.5 -39v-61h-360z" />
    <glyph glyph-name="f_f_i" unicode="ffi" horiz-adv-x="1616" 
d="M1305 815q0 52 -17 88h-418v-731q0 -31 9.5 -55.5t31.5 -34t103 -21.5v-61h-383v61q46 4 71.5 11.5t38.5 28.5t13 63v739h-435v-731q0 -70 39 -88q45 -18 105 -23v-61h-383v61l42 4q42 4 61.5 26.5t19.5 70.5v741h-150v80h150v55q0 136 53 241t146 166.5t198 61.5
q69 0 105 -30t36 -70q0 -28 -15.5 -52t-53.5 -24q-76 0 -135 94q-107 0 -162.5 -95.5t-55.5 -268.5v-78h435v49q0 149 58 268.5t160 184.5t224 65q97 0 156 -40t59 -105q0 -82 -70 -82q-96 0 -131 156h-18q-165 0 -243.5 -102t-78.5 -318v-76h324l215 14l12 -14v-809
q0 -47 27 -74.5t96 -38.5v-61h-381v61q78 7 99 13q43 16 43 88v653z" />
    <glyph glyph-name="f_f_l" unicode="ffl" horiz-adv-x="1616" 
d="M1184 0v61q57 5 79.5 14t32 32.5t9.5 54.5v1243q-31 33 -79 51.5t-100 18.5q-119 0 -187.5 -105.5t-68.5 -300.5v-86h215v-80h-215v-731q0 -31 10 -56t34.5 -34.5t99.5 -20.5v-61h-383v61q43 4 70 11.5t40 29t13 62.5v739h-435v-731q0 -70 39 -88q45 -18 105 -23v-61
h-383v61l42 4q42 4 61.5 26.5t19.5 70.5v741h-150v80h150v55q0 136 53 241t146 166.5t198 61.5q69 0 105 -30t36 -70q0 -28 -15.5 -52t-53.5 -24q-76 0 -135 94q-107 0 -162.5 -95.5t-55.5 -268.5v-78h435v49q0 135 52 259.5t140.5 191.5t196.5 67q61 0 116 -13t87 -30
l61 41l14 -14v-1360q0 -45 25.5 -72.5t97.5 -40.5v-61h-360z" />
    <glyph glyph-name="f_j" unicode="fj" horiz-adv-x="1044" 
d="M870 983v-993q0 -131 -34.5 -229t-98.5 -151.5t-143 -53.5q-59 0 -100 27.5t-41 70.5q0 31 18 52.5t49 21.5q68 0 113 -90q121 0 121 327v850q0 52 -17 88h-418v-731q0 -31 9.5 -55.5t31.5 -34t103 -21.5v-61h-383v61q46 4 71.5 11.5t38.5 28.5t13 63v739h-150v80h150v49
q0 149 57 267.5t159.5 184.5t225.5 66q97 0 156 -40t59 -105q0 -82 -69 -82q-97 0 -132 156h-18q-165 0 -243.5 -102t-78.5 -318v-76h324l215 14z" />
    <glyph glyph-name=".notdef" horiz-adv-x="2048" 
d="M256 0v1536h1536v-1536h-1536zM385 129h1280v1280h-1280v-1280z" />
    <glyph glyph-name=".null" horiz-adv-x="0" 
 />
    <glyph glyph-name="nonmarkingreturn" horiz-adv-x="420" 
 />
    <glyph glyph-name="space" unicode=" " horiz-adv-x="420" 
 />
    <glyph glyph-name="space" unicode="&#xa0;" horiz-adv-x="420" 
 />
    <glyph glyph-name="exclam" unicode="!" horiz-adv-x="633" 
d="M418 1350q0 -35 -13 -195q-37 -451 -53 -737h-57q-8 220 -38 569l-25 293l-5 70q0 46 26 78t71 32q46 0 70 -32t24 -78zM434 94q0 -46 -32 -78t-78 -32q-47 0 -79 32t-32 78q0 49 32 82t79 33q46 0 78 -33.5t32 -81.5z" />
    <glyph glyph-name="quotedbl" unicode="&#x22;" horiz-adv-x="745" 
d="M629 1442q0 -34 -38 -259l-24 -147h-59q-20 162 -36.5 266.5t-16.5 139.5q0 37 21 62.5t65 25.5q45 0 66.5 -25.5t21.5 -62.5zM289 1442q0 -56 -62 -406h-55q-20 162 -36.5 266.5t-16.5 139.5q0 37 21 62.5t65 25.5q42 0 63 -25.5t21 -62.5z" />
    <glyph glyph-name="numbersign" unicode="#" horiz-adv-x="1257" 
d="M860 745l-67 -251h251v-105h-280l-111 -389h-92l111 389h-211l-111 -389h-94l113 389h-215v105h243l68 251h-252v105h281l104 373h92l-104 -373h211l104 373h94l-106 -373h215v-105h-244zM557 748l-72 -256h213l74 256h-215z" />
    <glyph glyph-name="dollar" unicode="$" horiz-adv-x="1126" 
d="M956 336q0 -145 -96.5 -242.5t-245.5 -109.5v-283h-75v281q-164 2 -266.5 88.5t-102.5 230.5q0 100 80 100q32 0 50.5 -18.5t18.5 -48.5q0 -40 -14 -77.5t-26 -66.5q20 -55 85.5 -94t174.5 -41v537q-156 70 -213.5 118t-88 111t-30.5 152q0 88 44.5 159t121 112t166.5 44
v236h75v-236q94 -2 167 -41t115 -102.5t42 -130.5q0 -35 -19.5 -59.5t-48.5 -24.5q-32 0 -57 18t-25 43q0 49 17 117q-5 22 -32.5 47.5t-68 41t-90.5 15.5v-489l72 -33q73 -32 139.5 -85.5t98.5 -120.5t32 -148zM539 1212q-80 0 -136.5 -57t-56.5 -149q0 -62 17.5 -106
t54 -76.5t121.5 -71.5v460zM807 295q0 68 -18 114t-53 79.5t-122 74.5v-504q93 14 143 76.5t50 159.5z" />
    <glyph glyph-name="percent" unicode="%" horiz-adv-x="1530" 
d="M707 1083q0 -176 -78.5 -273t-216.5 -97q-141 0 -218 96.5t-77 273.5q0 170 79.5 267.5t217.5 97.5q137 0 215 -96t78 -269zM283 0h-123l1095 1419h125zM1411 338q0 -175 -78 -273t-217 -98q-141 0 -217 97.5t-76 273.5q0 172 77.5 270.5t219.5 98.5q135 0 213 -97.5
t78 -271.5zM584 1083q0 133 -46 212t-124 79q-82 0 -128 -81t-46 -214q0 -132 46.5 -212.5t125.5 -80.5q78 0 125 79t47 218zM1290 338q0 130 -46 212.5t-124 82.5q-82 0 -129 -81.5t-47 -217.5q0 -128 47.5 -208.5t124.5 -80.5q81 0 127.5 80.5t46.5 212.5z" />
    <glyph glyph-name="ampersand" unicode="&#x26;" horiz-adv-x="1313" 
d="M1313 829q-46 -4 -74 -14t-52 -29t-45 -51t-80 -186q-65 -169 -128 -262q105 -140 181 -177.5t181 -41.5v-68h-301q-33 43 -139 172q-97 -113 -190 -160t-193 -47q-181 0 -288 106t-107 279q0 124 68 224t231 208q-95 127 -128.5 208t-33.5 157q0 132 81.5 215.5
t219.5 83.5q129 0 204 -73t75 -197q0 -106 -59.5 -194t-209.5 -189q86 -121 264 -335l95 -118q59 99 92 206t33 195q0 36 -32 56t-124 32v70h459v-70zM678 1161q0 100 -44 151.5t-116 51.5q-77 0 -125.5 -55.5t-48.5 -141.5q0 -50 12.5 -94t37 -90t89.5 -135
q195 141 195 313zM809 225q-35 44 -75.5 95.5t-162.5 207t-151 197.5q-101 -70 -146 -150t-45 -180q0 -138 76.5 -223.5t206.5 -85.5q86 0 166 37.5t131 101.5z" />
    <glyph glyph-name="quotesingle" unicode="'" horiz-adv-x="387" 
d="M283 1442q0 -34 -38 -259l-24 -147h-59q-20 162 -36.5 266.5t-16.5 139.5q0 37 21 62.5t65 25.5q45 0 66.5 -25.5t21.5 -62.5z" />
    <glyph glyph-name="parenleft" unicode="(" horiz-adv-x="680" 
d="M618 -328q-243 65 -372 303t-129 619q0 394 128 633.5t373 304.5v-78q-380 -125 -380 -860q0 -358 98 -569.5t282 -274.5v-78z" />
    <glyph glyph-name="parenright" unicode=")" horiz-adv-x="680" 
d="M61 1532q243 -65 372.5 -301.5t129.5 -620.5q0 -397 -129.5 -636.5t-372.5 -301.5v78q381 125 381 860q0 358 -98.5 569.5t-282.5 274.5v78z" />
    <glyph glyph-name="asterisk" unicode="*" horiz-adv-x="874" 
d="M438 1092q-30 -77 -73 -253q-11 -45 -26.5 -61t-43.5 -16q-26 0 -48 16t-22 41q0 24 13.5 46t39 52t61.5 73t81 108q-72 -9 -167 -34q-83 -22 -95 -22q-29 0 -49.5 15.5t-20.5 50.5q0 29 20.5 45t49.5 16q13 0 37 -6q152 -38 225 -47q-45 66 -81 109t-61.5 73t-39 52
t-13.5 47t22 41t48 16q38 0 55 -37q8 -18 31 -109q24 -100 57 -186q35 92 75 254q11 46 27.5 62t41.5 16q26 0 47.5 -16t21.5 -41t-13.5 -47t-39 -52t-61.5 -73t-80 -109q73 9 225 47q24 6 37 6q29 0 49 -16t20 -45q0 -35 -20 -50.5t-49 -15.5q-13 0 -37 7q-148 40 -225 49
q44 -65 80 -108t61.5 -73t39 -52t13.5 -46q0 -25 -21.5 -41t-47.5 -16q-39 0 -56 33q-8 15 -31 111q-26 107 -57 186z" />
    <glyph glyph-name="plus" unicode="+" horiz-adv-x="1135" 
d="M623 500v-443h-109v443h-381v106h381v441h109v-441h378v-106h-378z" />
    <glyph glyph-name="comma" unicode="," horiz-adv-x="496" 
d="M375 37q0 -69 -29.5 -130t-79 -115.5t-147.5 -127.5l-43 57q182 120 211 281h-49q-51 0 -82 29t-31 78q0 45 32 73.5t83 28.5q66 0 100.5 -45.5t34.5 -128.5z" />
    <glyph glyph-name="hyphen" unicode="-" horiz-adv-x="682" 
d="M86 479v127h510v-127h-510z" />
    <glyph glyph-name="hyphen" unicode="&#xad;" horiz-adv-x="682" 
d="M86 479v127h510v-127h-510z" />
    <glyph glyph-name="period" unicode="." horiz-adv-x="496" 
d="M358 90q0 -46 -31 -76t-77 -30q-45 0 -77 30.5t-32 75.5t32 77t77 32q46 0 77 -32.5t31 -76.5z" />
    <glyph glyph-name="slash" unicode="/" horiz-adv-x="958" 
d="M164 -424h-105l689 1948h110z" />
    <glyph glyph-name="zero" unicode="0" horiz-adv-x="1044" 
d="M952 709q0 -358 -111.5 -550t-316.5 -192q-213 0 -322.5 188.5t-109.5 553.5q0 337 111 537t321 200q211 0 319.5 -194t108.5 -543zM811 707q0 318 -74.5 495.5t-210.5 177.5q-141 0 -214.5 -175t-73.5 -498q0 -324 74.5 -501t211.5 -177t212 176t75 502z" />
    <glyph glyph-name="one" unicode="1" horiz-adv-x="1044" 
d="M223 0v70q156 9 191 22q55 19 55 96v1084h-215v78h28q86 0 164 30t119 74h39q-10 -165 -10 -309v-944q0 -47 22 -76.5t71.5 -40t160.5 -14.5v-70h-625z" />
    <glyph glyph-name="two" unicode="2" horiz-adv-x="1044" 
d="M897 0h-794v113q90 208 368 467q118 110 166.5 177.5t72.5 140.5t24 161q0 143 -61.5 227t-174.5 84q-84 0 -141.5 -34t-67.5 -87l5 -29q14 -70 14 -104q0 -31 -24 -55.5t-62 -24.5q-84 0 -84 107q0 78 50 149t134 112.5t178 41.5q173 0 277 -104.5t104 -278.5
q0 -140 -70.5 -253t-255.5 -267q-267 -223 -348 -414h690v-129z" />
    <glyph glyph-name="three" unicode="3" horiz-adv-x="1044" 
d="M923 402q0 -201 -118.5 -314.5t-321.5 -113.5q-105 0 -198.5 38.5t-148 104t-54.5 137.5q0 48 20.5 77.5t61.5 29.5q44 0 64 -21.5t20 -46.5q0 -31 -25 -131q14 -25 56 -51.5t96.5 -43t113.5 -16.5q134 0 213.5 95.5t79.5 259.5q0 146 -78 219t-227 73h-115v99h60
q295 0 295 297q0 121 -58 194.5t-158 73.5q-74 0 -137 -35.5t-86 -85.5l6 -35q17 -85 17 -122q0 -29 -25.5 -48.5t-64.5 -19.5q-78 0 -78 104q0 73 52.5 150t139.5 123.5t193 46.5q154 0 252 -93.5t98 -234.5q0 -127 -82.5 -218.5t-226.5 -127.5v-6q171 -17 267.5 -112
t96.5 -246z" />
    <glyph glyph-name="four" unicode="4" horiz-adv-x="1044" 
d="M784 451v-451h-125v451h-588v112l652 877h61v-877h195v-112h-195zM659 1223l-487 -660h487v660z" />
    <glyph glyph-name="five" unicode="5" horiz-adv-x="1044" 
d="M915 479q0 -153 -55.5 -264.5t-157 -170t-233.5 -58.5q-158 0 -272.5 77.5t-114.5 188.5q0 48 24 77t64 29q35 0 56.5 -19.5t21.5 -51.5q0 -38 -21 -129q72 -95 244 -95q138 0 220.5 110t82.5 304q0 153 -73 240.5t-203 87.5q-76 0 -146.5 -34.5t-117.5 -92.5l-60 27
l84 714h619v-129h-547l-58 -477q126 102 267 102q107 0 193.5 -54t134.5 -152.5t48 -229.5z" />
    <glyph glyph-name="six" unicode="6" horiz-adv-x="1044" 
d="M960 461q0 -139 -55 -253t-152.5 -177.5t-214.5 -63.5q-197 0 -312.5 157.5t-115.5 430.5q0 231 86 424.5t244.5 317t364.5 155.5l14 -76l-82 -22q-409 -149 -477 -590q83 74 161.5 107.5t168.5 33.5q101 0 187.5 -59t134.5 -161t48 -224zM819 434q0 170 -72.5 267.5
t-203.5 97.5q-162 0 -289 -131q-4 -37 -4 -121q0 -232 78.5 -367t211.5 -135q128 0 203.5 107t75.5 282z" />
    <glyph glyph-name="seven" unicode="7" horiz-adv-x="1044" 
d="M338 -20h-107l611 1308h-351q-174 0 -229 -22q-60 -27 -86 -191h-55v342h862v-39z" />
    <glyph glyph-name="eight" unicode="8" horiz-adv-x="1044" 
d="M970 367q0 -112 -58 -205t-163.5 -145t-238.5 -52q-200 0 -316.5 106.5t-116.5 290.5q0 239 287 379q-229 137 -229 342q0 102 53.5 188t148.5 134.5t207 48.5q168 0 272.5 -96t104.5 -256q0 -229 -223 -367q152 -76 212 -158.5t60 -209.5zM800 1106q0 119 -75 195.5
t-195 76.5q-117 0 -189.5 -72t-72.5 -192q0 -114 79.5 -191t276.5 -155q176 91 176 338zM839 346q0 79 -36 135t-118 106.5t-249 117.5q-123 -56 -177.5 -139t-54.5 -195q0 -147 91 -237.5t235 -90.5q141 0 225 83t84 220z" />
    <glyph glyph-name="nine" unicode="9" horiz-adv-x="1044" 
d="M940 854q0 -239 -86.5 -430.5t-246 -310t-368.5 -148.5l-16 76l78 17q216 74 334 216.5t155 366.5q-76 -68 -153.5 -103.5t-167.5 -35.5q-165 0 -272 125t-107 319q0 135 55 249t153 178.5t214 64.5q196 0 312 -158t116 -426zM801 860q0 233 -80 367.5t-211 134.5
q-128 0 -203.5 -105.5t-75.5 -283.5q0 -172 75.5 -270.5t209.5 -98.5q154 0 281 133q4 48 4 123z" />
    <glyph glyph-name="colon" unicode=":" horiz-adv-x="588" 
d="M399 881q0 -48 -31 -78.5t-77 -30.5q-45 0 -76 30.5t-31 78.5q0 42 31 74t76 32t76.5 -31t31.5 -75zM399 90q0 -46 -31 -76t-77 -30q-47 0 -77 31t-30 75q0 43 30 76t77 33q46 0 77 -32.5t31 -76.5z" />
    <glyph glyph-name="semicolon" unicode=";" horiz-adv-x="588" 
d="M399 881q0 -48 -31 -78.5t-77 -30.5q-45 0 -76 30.5t-31 78.5q0 42 31 74t76 32t76.5 -31t31.5 -75zM424 37q0 -69 -29.5 -130t-79 -115.5t-147.5 -127.5l-43 57q182 120 211 281h-49q-51 0 -82 29t-31 78q0 45 32 73.5t83 28.5q66 0 100.5 -45.5t34.5 -128.5z" />
    <glyph glyph-name="semicolon" unicode="&#x37e;" horiz-adv-x="588" 
d="M399 881q0 -48 -31 -78.5t-77 -30.5q-45 0 -76 30.5t-31 78.5q0 42 31 74t76 32t76.5 -31t31.5 -75zM424 37q0 -69 -29.5 -130t-79 -115.5t-147.5 -127.5l-43 57q182 120 211 281h-49q-51 0 -82 29t-31 78q0 45 32 73.5t83 28.5q66 0 100.5 -45.5t34.5 -128.5z" />
    <glyph glyph-name="less" unicode="&#x3c;" horiz-adv-x="1135" 
d="M182 504v98l768 473v-125l-657 -393l657 -399v-127z" />
    <glyph glyph-name="equal" unicode="=" horiz-adv-x="1135" 
d="M139 674v108h856v-108h-856zM139 324v106h856v-106h-856z" />
    <glyph glyph-name="greater" unicode="&#x3e;" horiz-adv-x="1135" 
d="M184 31v127l658 399l-658 393v125l768 -473v-98z" />
    <glyph glyph-name="question" unicode="?" horiz-adv-x="838" 
d="M739 1049q0 -169 -85.5 -276t-254.5 -146l-2 -277h-88v371q289 46 289 328q0 100 -28.5 172.5t-78.5 112.5t-108 40q-77 0 -109 -39q17 -93 17 -121q0 -30 -25 -52.5t-61 -22.5q-38 0 -62 28t-24 74q0 53 37 102.5t101.5 79t148.5 29.5q144 0 238.5 -113.5t94.5 -289.5z
M469 94q0 -45 -30.5 -77.5t-80.5 -32.5q-46 0 -77 32.5t-31 77.5q0 48 31.5 81.5t76.5 33.5q49 0 80 -34t31 -81z" />
    <glyph glyph-name="at" unicode="@" horiz-adv-x="1782" 
d="M1409 -119q-90 -86 -215.5 -138t-278.5 -52q-221 0 -393.5 96.5t-261 267.5t-88.5 398q0 249 111.5 463t301 333t414.5 119q189 0 328 -82t212 -230.5t73 -338.5q0 -160 -57 -292.5t-158.5 -206t-227.5 -73.5q-77 0 -123.5 47.5t-48.5 131.5h-8q-44 -83 -104 -130
t-119 -47q-89 0 -140 76t-51 193q0 121 59 247.5t152.5 206.5t196.5 80q57 0 97.5 -37t56.5 -102h8l47 127h92l-184 -532q-19 -53 -19 -107q0 -102 99 -102q158 0 255 147t97 383q0 164 -66 294t-188.5 201.5t-284.5 71.5q-186 0 -347.5 -114t-251 -304.5t-89.5 -418.5
q0 -221 75 -376.5t214.5 -237t331.5 -81.5q141 0 250 40t202 122zM1116 733q-26 170 -135 170q-67 0 -130.5 -72.5t-106 -195t-42.5 -225.5q0 -90 23 -141.5t68 -51.5q59 0 113.5 53t113.5 174z" />
    <glyph glyph-name="A" unicode="A" horiz-adv-x="1274" 
d="M817 0v70q81 4 125.5 19.5t44.5 37.5q0 29 -14 68l-101 305h-493q-27 -67 -57.5 -153.5t-38 -121t-7.5 -67.5q0 -40 56 -63t145 -25v-70h-512v70q67 5 113 31t81.5 103t195.5 465t307 771h20q161 -483 426 -1225q24 -60 54.5 -90.5t71.5 -42.5t75 -12v-70h-492zM641 1163
l-227 -581h432z" />
    <glyph glyph-name="B" unicode="B" horiz-adv-x="1192" 
d="M1100 385q0 -109 -56.5 -198.5t-157 -138t-231.5 -48.5h-546v70q37 0 81 10t64 36.5t20 69.5v1031q0 43 -17.5 71t-61 45t-76.5 17v69h538q101 0 185.5 -38t132 -107t47.5 -162q0 -131 -82 -222t-235 -126v-4q194 -32 294.5 -128.5t100.5 -246.5zM854 1096q0 128 -62 189
t-192 61l-182 -5v-555h157q141 0 210 74.5t69 235.5zM928 418q0 134 -84.5 215.5t-222.5 81.5q-135 0 -203 -4v-492v-13q0 -132 194 -132q165 0 240.5 86t75.5 258z" />
    <glyph glyph-name="C" unicode="C" horiz-adv-x="1219" 
d="M1178 358q-77 -204 -197.5 -296.5t-294.5 -92.5q-168 0 -307 94t-217 261.5t-78 371.5q0 210 80.5 383t221 271t302.5 98q194 0 334 -102l33 73h65l10 -499h-71q-21 200 -117.5 324t-236.5 124q-133 0 -237.5 -81.5t-162 -233.5t-57.5 -351q0 -170 60.5 -317.5t167 -231
t239.5 -83.5q135 0 233.5 76t161.5 241z" />
    <glyph glyph-name="D" unicode="D" horiz-adv-x="1411" 
d="M1327 700q0 -204 -87.5 -361.5t-254.5 -248t-362 -90.5h-517v70h10q51 0 109 14q49 25 49 100v1033q0 39 -13 66t-59 47t-83 20v69h545q135 0 264.5 -55t216.5 -146.5t134.5 -223.5t47.5 -294zM1163 702q0 182 -71.5 329t-199 228.5t-286.5 81.5l-188 -4v-1095
q0 -91 52.5 -127.5t182.5 -36.5q244 0 377 164t133 460z" />
    <glyph glyph-name="E" unicode="E" horiz-adv-x="1237" 
d="M1155 0h-1063v70q110 10 131 18q51 21 51 100v1029q0 49 -19 73.5t-77 42t-84 17.5v69h979v-332h-63q-28 126 -76 185.5t-121 64.5q-74 6 -184 6h-211v-569h145q74 0 117 15.5t71 60t44 149.5h63v-538h-63q-3 66 -29 130.5t-71.5 84.5t-131.5 20h-145v-434
q0 -86 22 -121.5t78 -49t207 -13.5q126 0 183 15t86 51t61.5 109t54.5 153h72z" />
    <glyph glyph-name="F" unicode="F" horiz-adv-x="1200" 
d="M1022 1077q-19 83 -43 132.5t-58 80.5t-76 42t-202 11h-225v-573h162q74 0 120.5 16.5t75.5 57.5t39 149h66v-538h-66q-2 52 -15 100t-32 74q-27 30 -48 40t-55.5 16.5t-84.5 6.5h-162v-495q0 -72 43.5 -99.5t134.5 -27.5v-70h-504v70q121 0 151.5 22.5t30.5 89.5v1035
q0 34 -10 59t-41 39q-16 10 -61 22.5t-70 12.5v69h993v-342h-63z" />
    <glyph glyph-name="G" unicode="G" horiz-adv-x="1366" 
d="M1343 563q-75 -10 -105.5 -24t-45 -41.5t-14.5 -73.5v-187q0 -129 4 -165q-147 -60 -245 -81.5t-204 -21.5q-175 0 -326 95t-237 262.5t-86 371.5q0 209 86.5 382t238.5 270.5t332 97.5q210 0 353 -109l32 80h72l8 -485h-69q-38 213 -141 323.5t-267 110.5
q-142 0 -251.5 -80.5t-169.5 -233t-60 -356.5q0 -181 65 -329t185 -232t278 -84q156 0 258 82l3 32q7 60 7 157v77q0 47 -9 81.5t-44 49.5q-19 12 -73.5 21.5t-100.5 9.5v72h526v-72z" />
    <glyph glyph-name="H" unicode="H" horiz-adv-x="1509" 
d="M930 0v70l27 2q93 6 114 28t21 84v514h-674v-501q0 -65 32 -92t123 -35v-70h-462v70l27 2q68 4 92 15.5t34 36.5t10 58v1035q0 41 -17.5 67.5t-63 43.5t-80.5 20v71h460v-69q-41 -3 -86.5 -17t-57 -37.5t-11.5 -68.5v-449h674v439q0 80 -52.5 102t-107.5 31v69h459v-69
q-46 -4 -88.5 -18.5t-55 -39.5t-12.5 -75v-1020q0 -39 9.5 -60t29.5 -37q42 -25 117 -30v-70h-461z" />
    <glyph glyph-name="I" unicode="I" horiz-adv-x="692" 
d="M84 0v70q105 8 136.5 19.5t42.5 36.5t11 54v1039q0 40 -20.5 67t-73.5 44t-96 20v69h526v-69q-47 -3 -103.5 -18.5t-72.5 -41t-16 -61.5v-1034q0 -64 43.5 -91t148.5 -34v-70h-526z" />
    <glyph glyph-name="J" unicode="J" horiz-adv-x="922" 
d="M866 1350q-33 0 -88.5 -12.5t-72.5 -36t-17 -74.5v-836q0 -193 -98 -308.5t-262 -115.5q-148 0 -234 90.5t-86 247.5q0 70 31 112t82 42q52 0 76 -29t24 -68q0 -30 -11.5 -57.5t-25.5 -55t-27.5 -56t-17.5 -60.5q33 -48 82.5 -74t108.5 -26q115 0 164 102t49 299v783
q0 46 -24 74.5t-76.5 43.5t-94.5 15v69h518v-69z" />
    <glyph glyph-name="K" unicode="K" horiz-adv-x="1257" 
d="M1024 0q-205 293 -598 719h-8v-522q0 -72 47 -103q10 -7 51 -14.5t70 -9.5v-70h-467v70q82 7 99.5 12t30 17t19 34.5t6.5 50.5v1033q0 72 -49 98q-70 35 -106 35v69h454v-69q-26 0 -69 -12t-58 -25t-21.5 -34.5t-6.5 -51.5v-496h8q217 197 343 346t126 219q0 24 -38 39
t-91 15v69h451v-69q-55 0 -100.5 -17.5t-72.5 -48.5q-181 -223 -481 -518q178 -186 368 -408l109 -129q72 -82 118 -116t128 -43v-70h-262z" />
    <glyph glyph-name="L" unicode="L" horiz-adv-x="1114" 
d="M1083 0h-970v70q92 6 116.5 18t34.5 39.5t10 60.5v1022q0 49 -19.5 76t-66.5 44.5t-75 19.5v69h469v-69q-102 -10 -133 -36t-31 -93v-961q0 -101 13 -132.5t45.5 -43.5t133.5 -12q105 0 190 15.5t109 43.5q76 73 133 275h72z" />
    <glyph glyph-name="M" unicode="M" horiz-adv-x="1757" 
d="M1137 0v70q42 0 91.5 7.5t69 22.5t29.5 41t10 56v1017h-18l-475 -1191h-19l-24 71l-430 1149h-11v-852q0 -97 7.5 -157t24 -91t41 -43.5t67 -21t80.5 -8.5v-70h-514v70l31 2q89 2 121 24t44 82t12 203v747q0 62 -14 101.5t-36 64t-66 40.5t-82 16v69h379l415 -1130
l375 954q34 86 45 176h361v-69q-28 0 -77.5 -12.5t-64 -24t-20.5 -35.5t-6 -51v-1030q0 -32 7.5 -54.5t25 -36.5t61.5 -25t76 -11v-70h-516z" />
    <glyph glyph-name="N" unicode="N" horiz-adv-x="1479" 
d="M1434 1350q-40 0 -90 -11t-67.5 -27.5t-27.5 -44.5t-15 -87.5t-5 -132.5v-1063h-41l-828 1179v-764q0 -224 60 -284q17 -19 68 -32t108 -13v-70h-530v70q32 0 82 11t71.5 32t33 56t16.5 94.5t5 123.5v727q0 64 -24.5 114t-87 84t-127.5 40v67h319l789 -1122v737
q0 84 -6 143t-18.5 91.5t-35 47t-83.5 24.5t-87 10v69h521v-69z" />
    <glyph glyph-name="O" unicode="O" horiz-adv-x="1407" 
d="M1323 705q0 -208 -79.5 -376t-225 -265t-311.5 -97q-181 0 -324 96t-221 269t-78 383q0 208 81 377t225 263.5t312 94.5q175 0 318 -94t223 -265t80 -386zM1159 707q0 315 -121 487t-336 172q-137 0 -238.5 -74t-158.5 -227t-57 -354q0 -303 119 -480.5t335 -177.5
t336.5 175t120.5 479z" />
    <glyph glyph-name="P" unicode="P" horiz-adv-x="1122" 
d="M1038 1071q0 -131 -62 -232t-173 -154.5t-254 -53.5h-131v-449q0 -70 29 -91t155 -21v-70h-489v70q42 0 87.5 10t59.5 35t14 73v1035q0 87 -49 108q-72 19 -125 19v69h516q178 0 300 -99.5t122 -248.5zM868 1022q0 95 -37 166.5t-108 112t-176 40.5h-129v-632h100
q151 0 250.5 88t99.5 225z" />
    <glyph glyph-name="Q" unicode="Q" horiz-adv-x="1407" 
d="M1323 705q0 -175 -56 -321t-158.5 -246t-234.5 -142q4 -115 77.5 -197t176.5 -82q79 0 158 17v-72q-108 -33 -217 -33q-153 0 -248 86t-116 252q-181 1 -323 96.5t-220 267.5t-78 384q0 208 81 377t225 263.5t312 94.5q175 0 318 -94t223 -265t80 -386zM1159 707
q0 315 -121 487t-336 172q-137 0 -238.5 -74t-158.5 -227t-57 -354q0 -303 119 -480.5t335 -177.5t336.5 175t120.5 479z" />
    <glyph glyph-name="R" unicode="R" horiz-adv-x="1282" 
d="M1018 0q-229 362 -447 643h-153v-459q0 -48 14.5 -74t63.5 -33t100 -7v-70h-483v70q90 7 114 20t35.5 39.5t11.5 58.5v1037q0 91 -55 106q-49 15 -106 19v69h518q125 0 222 -40t150.5 -116t53.5 -182q0 -140 -80 -233t-266 -152l80 -105l108 -147l158 -223
q59 -82 117 -114t139 -37v-70h-295zM883 1061q0 133 -77 206.5t-216 73.5h-172v-614h125q145 0 242.5 93.5t97.5 240.5z" />
    <glyph glyph-name="S" unicode="S" horiz-adv-x="1040" 
d="M958 399q0 -121 -55 -219t-151 -151.5t-213 -53.5q-187 0 -318 97l-31 -72h-67l-14 473h67q40 -218 132.5 -318t242.5 -100q139 0 207.5 74.5t68.5 206.5q0 187 -155 262q-56 27 -146 63q-151 60 -210.5 98.5t-97 84.5t-56.5 104.5t-19 132.5q0 100 49 184.5t132.5 133.5
t177.5 49q182 0 301 -100l33 71h65l8 -465h-69q-42 224 -124 318t-216 94q-102 0 -168 -64t-66 -165q0 -123 62 -192t267 -144q147 -54 218.5 -105.5t108 -124.5t36.5 -172z" />
    <glyph glyph-name="T" unicode="T" horiz-adv-x="1200" 
d="M1114 1044q-8 119 -41 184.5t-96.5 92.5t-237.5 27h-67v-1145q0 -62 46.5 -95t168.5 -38v-70h-570v70q33 2 82.5 9.5t65.5 12.5q63 23 63 101v1155h-63q-117 0 -178.5 -10.5t-107.5 -52.5t-70.5 -110.5t-24.5 -130.5h-70v375h1172v-375h-72z" />
    <glyph glyph-name="U" unicode="U" horiz-adv-x="1432" 
d="M1391 1350q-141 -7 -173 -72.5t-32 -233.5v-659q0 -194 -125.5 -306t-345.5 -112q-216 0 -342.5 112.5t-126.5 297.5v837q0 47 -21.5 75t-65.5 43t-77 18v69h487v-69q-57 -5 -104 -18.5t-60.5 -39.5t-13.5 -67v-817q0 -160 88.5 -249t247.5 -89q180 0 275.5 85t95.5 242
v635q0 110 -17 178t-45 88q-66 47 -159 52v69h514v-69z" />
    <glyph glyph-name="V" unicode="V" horiz-adv-x="1231" 
d="M1257 1352q-36 -5 -71 -20.5t-58 -40.5t-49.5 -80t-202 -514t-268.5 -715h-28q-89 267 -224.5 654t-210.5 581q-23 60 -62.5 93.5t-109.5 39.5v69h459v-69q-91 0 -123.5 -12t-32.5 -38q0 -19 62 -189q153 -426 293 -845q262 694 303 826q39 112 39 170q0 35 -45.5 58.5
t-124.5 31.5v67h454v-67z" />
    <glyph glyph-name="W" unicode="W" horiz-adv-x="1923" 
d="M1909 1352q-79 -17 -121 -54.5t-66 -111.5l-99 -332l-263 -872h-31l-377 1146l-411 -1146h-35q-92 364 -195.5 739t-144.5 510q-20 63 -58 88.5t-94 30.5v69h430v-69q-66 0 -101.5 -6.5t-35.5 -34.5q0 -25 26 -124.5t240 -875.5l394 1080h39l364 -1092q108 336 185 618.5
t77 346.5q0 41 -39.5 62.5t-124.5 27.5v67h441v-67z" />
    <glyph glyph-name="X" unicode="X" horiz-adv-x="1292" 
d="M752 0v70l37 2q52 2 86 15.5t34 37.5q0 30 -27 84t-110.5 195t-142.5 231q-98 -148 -190.5 -308.5t-92.5 -195.5q0 -24 13 -37t38 -18.5t97 -5.5v-70h-480v70q47 0 89 13.5t71 39.5t88.5 110t157.5 230t160 239l-81 126q-116 180 -251 376q-53 78 -102.5 108.5
t-112.5 37.5v69h514v-69l-35 -2q-53 -2 -86 -14.5t-33 -33.5q0 -32 51 -130.5t215 -358.5q101 145 173.5 280.5t72.5 190.5q0 68 -145 68v69h475v-69q-71 -8 -113 -27q-25 -15 -47.5 -38.5t-66.5 -84.5q-62 -87 -133.5 -202.5t-165.5 -252.5q164 -246 340 -526
q57 -93 99.5 -121t127.5 -28v-70h-524z" />
    <glyph glyph-name="Y" unicode="Y" horiz-adv-x="1096" 
d="M1130 1350q-48 -9 -81.5 -31t-63.5 -68q-53 -79 -104 -164.5t-146.5 -263t-110 -217t-14.5 -80.5v-321q0 -66 46.5 -96.5t164.5 -38.5v-70h-559v70q144 10 174.5 34.5t30.5 90.5v327q0 40 -17.5 80t-35.5 80q-166 338 -193 390t-49.5 91.5t-58.5 88t-74.5 72t-73.5 26.5
v69h451v-69l-48 -4q-89 -7 -89 -41q0 -26 90 -216.5t200 -406.5q299 551 299 606q0 25 -31.5 40.5t-111.5 21.5v69h405v-69z" />
    <glyph glyph-name="Z" unicode="Z" horiz-adv-x="1126" 
d="M1038 0h-1007v23l831 1323h-282q-104 0 -201 -11q-48 -6 -98.5 -54t-90.5 -122t-47 -125h-63l43 385h938v-22l-840 -1323h287q265 0 353.5 74.5t164.5 275.5h59z" />
    <glyph glyph-name="bracketleft" unicode="[" horiz-adv-x="614" 
d="M160 -309v1829h387v-88h-277v-1651h277v-90h-387z" />
    <glyph glyph-name="backslash" unicode="\" horiz-adv-x="958" 
d="M791 -424l-691 1948h107l692 -1948h-108z" />
    <glyph glyph-name="bracketright" unicode="]" horiz-adv-x="614" 
d="M68 -309v90h274v1651h-274v88h387v-1829h-387z" />
    <glyph glyph-name="asciicircum" unicode="^" horiz-adv-x="1176" 
d="M874 815l-286 533l-287 -533h-119l355 641h102l354 -641h-119z" />
    <glyph glyph-name="underscore" unicode="_" horiz-adv-x="1135" 
d="M-4 -274v94h1145v-94h-1145z" />
    <glyph glyph-name="grave" unicode="`" 
d="M700 1114l-256 242q-63 54 -63 110q0 26 16 47t45 21q27 0 49 -16t54 -66l194 -307z" />
    <glyph glyph-name="a" unicode="a" horiz-adv-x="881" 
d="M850 18q-73 -34 -125 -34q-115 0 -131 145h-4q-60 -74 -128 -113t-157 -39q-100 0 -162.5 69t-62.5 179q0 96 45.5 162.5t144.5 106.5l86 34l236 88v93q0 231 -162 231q-101 0 -160 -51q0 -25 6.5 -53.5t6.5 -63.5q0 -37 -24 -55.5t-56 -18.5q-31 0 -52.5 23t-21.5 63
q0 92 87 159t212 67q151 0 217 -78t66 -244l-6 -491q0 -41 7.5 -64t28.5 -39q30 -18 109 -18v-58zM592 551q-165 -50 -241 -89.5t-110 -90t-34 -129.5q0 -81 36.5 -127.5t108.5 -46.5q62 0 112 25t124 108z" />
    <glyph glyph-name="b" unicode="b" horiz-adv-x="1018" 
d="M946 496q0 -149 -51.5 -270.5t-145 -189t-210.5 -67.5q-153 0 -260 92l-41 -114l-64 10q6 180 6 373v997q0 45 -14.5 73t-42.5 43t-96 21v64l258 20l12 -14v-651l6 -2q103 131 260 131q178 0 280.5 -142t102.5 -374zM815 492q0 190 -77.5 306.5t-209.5 116.5
q-65 0 -125 -28.5t-106 -79.5v-588q22 -78 88.5 -127t157.5 -49q121 0 196.5 121.5t75.5 327.5z" />
    <glyph glyph-name="c" unicode="c" horiz-adv-x="823" 
d="M465 -27q-173 0 -283 146t-110 379q0 142 52 261t143.5 185t209.5 66q125 0 205 -72.5t80 -185.5q0 -52 -20 -81.5t-58 -29.5q-92 0 -92 92q0 45 10 82.5t12 63.5q-46 59 -151 59q-76 0 -135.5 -51t-93 -147.5t-33.5 -235.5q0 -118 38 -219t104 -158t144 -57
q152 0 261 186l55 -37q-66 -122 -153.5 -184t-184.5 -62z" />
    <glyph glyph-name="d" unicode="d" horiz-adv-x="1018" 
d="M741 -2l-16 14v92l-8 2q-111 -133 -260 -133q-112 0 -200 64t-136.5 181.5t-48.5 273.5q0 149 55.5 269t153 185.5t217.5 65.5q58 0 119.5 -18t103.5 -46v350q0 31 -6.5 58.5t-17.5 47t-29.5 32t-39.5 20t-69 12.5v60l260 20l19 -14v-1339q0 -56 30 -85.5t119 -29.5v-62z
M721 766q-28 82 -90.5 129t-141.5 47q-82 0 -147.5 -56.5t-102 -161t-36.5 -243.5q0 -116 36.5 -213t103 -151t153.5 -54q63 0 115.5 27t109.5 96v580z" />
    <glyph glyph-name="e" unicode="e" horiz-adv-x="846" 
d="M72 502q0 223 105.5 365.5t268.5 142.5q154 0 241 -111.5t87 -310.5v-53h-579q0 -220 71 -342.5t199 -122.5q88 0 151.5 43t122.5 147l58 -35q-68 -130 -153.5 -190t-190.5 -60q-176 0 -278.5 142t-102.5 385zM649 604q0 334 -207 334q-104 0 -172 -91t-73 -243h452z" />
    <glyph glyph-name="f" unicode="f" horiz-adv-x="537" 
d="M670 1448q0 -28 -16 -52t-54 -24q-74 0 -135 94q-71 0 -108.5 -99t-37.5 -275v-109h185v-80h-185v-731q0 -70 39 -88q19 -11 81 -19l24 -4v-61h-383v61q47 4 73 12t38 31.5t12 57.5v741h-150v80h150v86q0 138 46.5 247.5t125 170.5t170.5 61q62 0 93.5 -30t31.5 -70z" />
    <glyph glyph-name="g" unicode="g" horiz-adv-x="918" 
d="M883 -106q0 -156 -117.5 -247t-333.5 -91q-187 0 -285 68t-98 198q0 100 74 166t201 78v8q-85 26 -125.5 65.5t-40.5 102.5q0 103 123 164v8q-81 42 -126.5 116.5t-45.5 163.5q0 143 88.5 230.5t222.5 87.5q71 0 151 -33h295v-80h-221v-8q35 -43 55.5 -98t20.5 -111
q0 -130 -83 -219.5t-210 -89.5h-94q-82 -32 -82 -103q0 -54 42 -80t136 -30l63 -3q165 -8 221 -22.5t92 -45.5t56.5 -80t20.5 -115zM596 686q0 115 -49.5 185.5t-132.5 70.5q-85 0 -130.5 -63.5t-45.5 -188.5q0 -109 49.5 -179.5t128.5 -70.5q84 0 132 69t48 177zM801 -133
q0 50 -14 83t-41 51.5t-102 27t-247 8.5q-125 -18 -184 -66.5t-59 -140.5q0 -97 80.5 -149t226.5 -52q166 0 253 61.5t87 176.5z" />
    <glyph glyph-name="h" unicode="h" horiz-adv-x="1044" 
d="M602 0v61q81 8 96 13q47 16 47 88v510q0 110 -50.5 176.5t-131.5 66.5q-56 0 -109 -25.5t-93 -65t-50 -70.5v-582q0 -34 15 -55.5t43 -34.5t84 -21v-61h-381v61q71 5 97 29t26 72v1165q0 50 -18.5 78t-41.5 40.5t-96 18.5v64l258 20l14 -14v-688h4q136 166 306 166
q115 0 179 -89t64 -241v-512q0 -47 23.5 -71.5t99.5 -37.5v-61h-385z" />
    <glyph glyph-name="i" unicode="i" horiz-adv-x="512" 
d="M336 1391q0 -48 -23 -76.5t-61 -28.5q-35 0 -59.5 25t-24.5 73q0 47 22 76t62 29q42 0 63 -28t21 -70zM80 0v61q61 5 81 14t30 32.5t10 54.5v614q0 69 -43 107q-38 30 -113 30v64l260 18l12 -14v-807q0 -47 27 -74.5t96 -38.5v-61h-360z" />
    <glyph glyph-name="j" unicode="j" horiz-adv-x="502" 
d="M328 -10q0 -131 -35.5 -229.5t-98.5 -151.5t-143 -53q-59 0 -100 27.5t-41 70.5q0 31 18.5 52.5t48.5 21.5q68 0 113 -90q121 0 121 327v807q0 44 -17.5 78t-50.5 47t-98 16v64l272 18l11 -14v-991zM348 1391q0 -48 -23 -76.5t-61 -28.5q-35 0 -59.5 25t-24.5 73
q0 47 22 76t62 29q42 0 63 -28t21 -70z" />
    <glyph glyph-name="k" unicode="k" horiz-adv-x="948" 
d="M311 469l291 319q51 56 51 84q0 35 -80 45l-43 5v61h357v-59q-60 -16 -103.5 -44t-99 -85t-180.5 -197q30 -36 66.5 -88.5t136.5 -214.5q74 -121 104.5 -161t55.5 -54t81 -19v-61h-203q-28 39 -93 151q-169 290 -228 365l-113 -117v-227q0 -34 15 -55.5t43 -34.5t84 -21
v-61h-379v61q47 4 71 12t37 31.5t13 57.5v1165q0 74 -43 111q-25 20 -103 24l-31 2v64l279 20l14 -14v-1065z" />
    <glyph glyph-name="l" unicode="l" horiz-adv-x="506" 
d="M47 0v61q61 4 90.5 12.5t43.5 31t14 57.5v1159q0 47 -21.5 79.5t-55 45t-128.5 18.5v64l307 20l14 -14v-1360q0 -49 31 -75t115 -38v-61h-410z" />
    <glyph glyph-name="m" unicode="m" horiz-adv-x="1569" 
d="M1137 0v61q81 7 107 31t26 70v506q0 111 -51 179t-132 68q-150 0 -233 -153v-590q0 -34 13.5 -57.5t37 -34t84.5 -19.5v-61h-383v61q80 7 104.5 30.5t24.5 70.5v504q0 110 -51.5 179.5t-132.5 69.5q-73 0 -137.5 -46.5t-96.5 -114.5v-582q0 -34 15 -55.5t43 -34.5t84 -21
v-61h-381v61q82 7 102.5 30.5t20.5 70.5v620q0 60 -29.5 95.5t-101.5 35.5v64l233 18l14 -14v-135h5q64 91 128 128.5t146 37.5q85 0 145.5 -47t89.5 -127h7q80 99 148.5 136.5t146.5 37.5q113 0 184.5 -91t71.5 -241v-508q0 -87 87 -103l44 -8v-61h-383z" />
    <glyph glyph-name="n" unicode="n" horiz-adv-x="1051" 
d="M604 0v61q61 5 90 13t43.5 30.5t14.5 57.5v510q0 113 -49 178t-132 65q-56 0 -110 -25.5t-94 -65t-50 -70.5v-582q0 -34 15 -55t44 -34.5t87 -21.5v-61h-383v61q79 7 100 30.5t21 70.5v620q0 60 -29.5 95.5t-101.5 35.5v64l235 18l12 -14v-135h5q78 91 152.5 128.5
t152.5 37.5q113 0 178 -85.5t65 -246.5v-510q0 -33 12 -55t36 -33t77 -21v-61h-391z" />
    <glyph glyph-name="o" unicode="o" horiz-adv-x="969" 
d="M897 504q0 -154 -51.5 -276t-147 -190.5t-221.5 -68.5q-110 0 -204 67t-147.5 186t-53.5 265q0 235 116.5 379t305.5 144q179 0 291 -140.5t112 -365.5zM766 502q0 203 -73.5 319.5t-203.5 116.5q-139 0 -213.5 -118t-74.5 -314q0 -210 77.5 -336.5t210.5 -126.5
q128 0 202.5 126.5t74.5 332.5z" />
    <glyph glyph-name="p" unicode="p" horiz-adv-x="1042" 
d="M971 500q0 -148 -53 -270t-147 -189.5t-208 -67.5q-155 0 -233 68h-8v-305q0 -72 51 -90q16 -9 53.5 -17t62.5 -8v-65h-428v65q97 0 120.5 24t23.5 81v1058v8q0 50 -32 85.5t-110 35.5v64l244 18l12 -12v-111l9 -2q46 62 118.5 102t141.5 40q175 0 279 -141.5t104 -370.5
zM840 489q0 194 -79 310t-210 116q-65 0 -127.5 -34t-101.5 -86v-590q11 -40 46.5 -79.5t84.5 -63t104 -23.5q80 0 145 54.5t101.5 157.5t36.5 238z" />
    <glyph glyph-name="q" unicode="q" horiz-adv-x="1004" 
d="M580 -444v65l49 4q40 2 58 13.5t26 35.5t8 52v380l-4 3q-54 -68 -123 -102t-143 -34q-175 0 -277 142.5t-102 376.5q0 149 55.5 268.5t153.5 185.5t217 66q60 0 113 -23t92 -62l26 -24l64 133l61 -6q-3 -65 -9.5 -163t-6.5 -234v-893q0 -60 29 -84t118 -35v-65h-405z
M721 766q-30 84 -92 130t-140 46q-79 0 -146 -59t-103.5 -163.5t-36.5 -238.5q0 -115 36.5 -211.5t103 -151.5t153.5 -55q43 0 78 11t65 29.5t82 70.5v592z" />
    <glyph glyph-name="r" unicode="r" horiz-adv-x="705" 
d="M676 883q0 -47 -20 -74t-58 -27q-40 0 -58 21.5t-18 50.5q0 19 8 64q-64 -2 -119.5 -42.5t-93.5 -117.5v-586q0 -53 33.5 -79t114.5 -32v-61h-385v61q79 7 100 30.5t21 70.5v620q0 131 -131 131v64l235 18l12 -14v-135h5q65 87 123 124.5t118 37.5q53 0 83 -31t30 -94z
" />
    <glyph glyph-name="s" unicode="s" horiz-adv-x="774" 
d="M702 272q0 -136 -79.5 -215.5t-208.5 -79.5q-156 0 -244 93l-14 -68h-70l-10 328h65q13 -76 49 -139.5t91 -101.5t129 -38q91 0 143.5 47.5t52.5 132.5q0 76 -50.5 126t-184.5 102q-159 60 -216 125t-57 172q0 114 78 185t193 71q55 0 102 -15.5t72 -33.5l22 51h70
l16 -305h-67q-34 231 -213 231q-85 0 -131.5 -43t-46.5 -113q0 -51 18 -85.5t57 -61t148 -66.5q156 -57 221 -127t65 -172z" />
    <glyph glyph-name="t" unicode="t" horiz-adv-x="594" 
d="M561 43q-120 -61 -207 -61q-83 0 -131.5 64.5t-48.5 182.5v672h-156v82h160v305h113v-305h244v-82h-242v-633q0 -101 31.5 -143.5t99.5 -42.5q59 0 137 18v-57z" />
    <glyph glyph-name="u" unicode="u" horiz-adv-x="1038" 
d="M729 -2l-14 14v129h-6q-51 -73 -129.5 -118.5t-159.5 -45.5q-113 0 -176.5 87.5t-63.5 240.5v481q0 45 -17.5 74t-49.5 38t-82 13v62l252 22l14 -14v-670q0 -105 47 -172t121 -67q55 0 104.5 22.5t89 58.5t56.5 72v568q0 38 -15 66.5t-42 38t-95 13.5v62l252 22l19 -14
v-788q0 -33 11 -59t30 -37.5t79 -16.5v-62z" />
    <glyph glyph-name="v" unicode="v" horiz-adv-x="895" 
d="M911 928q-56 -12 -83 -33t-52 -82q-52 -125 -160 -414l-91 -244l-60 -163h-31l-97 253q-168 447 -199 524.5t-47.5 99t-43.5 35.5t-61 20v59h354v-65q-109 -6 -109 -33q0 -20 72.5 -221t106 -289.5t65.5 -169.5l23 61l170 479q24 72 24 115q0 41 -82 56l-37 6v61h338v-55
z" />
    <glyph glyph-name="w" unicode="w" horiz-adv-x="1419" 
d="M1419 922q-48 -5 -79 -31t-54 -88q-76 -209 -201 -584q-40 -127 -65 -225h-29l-286 780l-289 -780h-27q-183 587 -264 823q-19 54 -48.5 77t-76.5 30v59h342v-65q-100 0 -100 -33q0 -29 15 -84.5t47 -160t132 -417.5l271 731h45l270 -729q23 63 72 212t81.5 257t32.5 168
q0 54 -102 60v61h313v-61z" />
    <glyph glyph-name="x" unicode="x" horiz-adv-x="879" 
d="M530 0v61q41 5 63.5 13t22.5 28q0 23 -51.5 109.5t-146.5 237.5q-45 -70 -150 -246q-37 -62 -37 -90q0 -23 23.5 -37t64.5 -17v-59h-303v55q59 18 101 58.5t128 171.5t138 215l-114 178q-44 68 -87 127.5t-70 83t-73 31.5v63h313v-63q-35 0 -59.5 -9t-24.5 -22t15 -39
q28 -59 168 -266q35 56 127 217q28 51 28 76q0 18 -22 30t-60 15v61h310v-57q-58 -14 -90.5 -33t-75.5 -74q-13 -16 -33.5 -47t-45 -70t-51.5 -82.5t-53 -84.5l75 -115q128 -202 161.5 -249.5t50.5 -64.5t36.5 -27.5t49.5 -17.5v-61h-328z" />
    <glyph glyph-name="y" unicode="y" horiz-adv-x="907" 
d="M911 928q-57 -11 -84 -34t-51 -83q-48 -119 -111 -299q-102 -287 -157.5 -432t-125 -274.5t-130 -189.5t-133.5 -60q-57 0 -92 29t-35 73q0 33 22 58.5t54 25.5q75 0 104 -100q29 9 72.5 65t94.5 155t75 167q-117 331 -295 788q-20 43 -50 71t-83 36v59h354v-65
q-65 -4 -87 -12t-22 -21q0 -9 27 -92l219 -609q43 110 87.5 234.5t87 254t42.5 181.5t-121 68v61h338v-55z" />
    <glyph glyph-name="z" unicode="z" horiz-adv-x="811" 
d="M61 0v45l531 862h-148q-143 0 -196 -20q-37 -17 -58 -67.5t-36 -129.5h-58v293h649v-33l-542 -874h139q113 0 217 4q38 2 56 27t30 59l23 78l24 92h58v-336h-689z" />
    <glyph glyph-name="braceleft" unicode="{" horiz-adv-x="729" 
d="M662 -334q-179 0 -256.5 85t-77.5 265q0 54 7 133q7 78 7 127q0 119 -62 182t-208 83v118q143 20 206.5 83t63.5 184q0 50 -7 129t-7 133q0 177 80 262.5t254 85.5v-80q-93 -6 -131.5 -27t-62.5 -64.5t-24 -119.5v-254q0 -170 -69 -264t-221 -123v-8
q153 -29 221.5 -121.5t68.5 -263.5v-254q0 -66 21 -112t65 -70.5t132 -32.5v-76z" />
    <glyph glyph-name="bar" unicode="|" horiz-adv-x="694" 
d="M295 -424v1948h106v-1948h-106z" />
    <glyph glyph-name="braceright" unicode="}" horiz-adv-x="729" 
d="M68 -258q88 8 131.5 32.5t64.5 70t21 112.5v254q0 167 67.5 261t222.5 124v8q-153 29 -221.5 125t-68.5 262v254q0 76 -24 119.5t-63 65t-130 26.5v80q172 0 252.5 -85t80.5 -263q0 -54 -7 -133t-7 -129q0 -120 63.5 -184t206.5 -83v-118q-148 -20 -209 -83.5t-61 -181.5
q0 -49 7 -127q7 -79 7 -133q0 -180 -78 -265t-255 -85v76z" />
    <glyph glyph-name="asciitilde" unicode="~" horiz-adv-x="1155" 
d="M1034 684q-48 -109 -132.5 -180.5t-172.5 -71.5q-54 0 -98 18t-86 39.5t-86 39.5t-97 18q-48 0 -85.5 -27t-88.5 -114l-67 26q50 110 133 179t172 69q57 0 100.5 -18t84 -39.5t83.5 -39.5t99 -18q53 0 91.5 31.5t82.5 114.5z" />
    <glyph glyph-name="exclamdown" unicode="&#xa1;" horiz-adv-x="633" 
d="M229 80q0 35 13 195q37 459 53 737h57q4 -179 38 -569l26 -293l4 -70q0 -47 -25.5 -79t-70.5 -32q-47 0 -71 32t-24 79zM213 1335q0 47 32 79t79 32q46 0 78 -32t32 -79q0 -48 -32.5 -81t-77.5 -33q-46 0 -78.5 32.5t-32.5 81.5z" />
    <glyph glyph-name="cent" unicode="&#xa2;" horiz-adv-x="940" 
d="M467 -299v276q-157 22 -249.5 166t-92.5 355q0 201 95 341.5t247 164.5v272h76v-266q120 -4 196 -76t76 -182q0 -52 -20 -81.5t-58 -29.5q-92 0 -92 92q0 45 10.5 82.5t12.5 63.5q-42 51 -125 57v-866q149 0 258 186l55 -37q-57 -107 -138 -172t-175 -72v-274h-76z
M254 504q0 -152 59 -269t154 -153v850q-101 -25 -157 -136.5t-56 -291.5z" />
    <glyph glyph-name="sterling" unicode="&#xa3;" horiz-adv-x="1126" 
d="M1020 131v-131h-907v127q102 51 158.5 177t56.5 314h-154v87h154l-3 55q-10 165 -10 215q0 216 101 347.5t272 131.5q128 0 207.5 -85t79.5 -218q0 -45 -23.5 -74.5t-64.5 -29.5q-40 0 -63 19t-23 56q0 59 27 143l10 35q-9 32 -55 56t-99 24q-114 0 -174.5 -79
t-60.5 -220l10 -376h315v-87h-315q0 -314 -240 -477v-10h801z" />
    <glyph glyph-name="currency" unicode="&#xa4;" horiz-adv-x="1038" 
d="M813 188l-166 162q-61 -39 -127 -39q-71 0 -127 39l-164 -164l-73 78l157 164q-34 59 -34 125t34 125l-157 168l77 74l160 -164q56 39 127 39q66 0 127 -37l162 162l80 -74l-164 -168q37 -51 37 -125t-37 -125l164 -166zM664 553q0 58 -41.5 101.5t-102.5 43.5
q-58 0 -98.5 -40.5t-40.5 -104.5q0 -62 41 -103.5t98 -41.5q60 0 102 41t42 104z" />
    <glyph glyph-name="yen" unicode="&#xa5;" 
d="M1047 1350q-47 -7 -84 -27l-17 -9q-20 -10 -42.5 -36t-73.5 -119.5t-259 -505.5v-106h320v-82h-322v-262q0 -58 37 -90.5t142 -42.5v-70h-488v70l31 2q66 4 94 18t37.5 40t9.5 63v272h-319v82h319v96q-63 150 -112 253.5t-144 291.5q-51 87 -71.5 107.5t-43 33
t-71.5 21.5v69h440v-69l-42 -3q-44 -2 -71.5 -13t-27.5 -29q0 -12 29.5 -79t127.5 -278l91 -200q136 275 189.5 393t53.5 137q0 52 -98 66l-51 6v69h416v-69z" />
    <glyph glyph-name="brokenbar" unicode="&#xa6;" horiz-adv-x="694" 
d="M295 723v801h106v-801h-106zM295 -424v809h106v-809h-106z" />
    <glyph glyph-name="section" unicode="&#xa7;" horiz-adv-x="879" 
d="M758 631q0 -95 -58 -182t-159 -142q92 -46 135 -110t43 -162q0 -130 -86 -211.5t-217 -81.5q-85 0 -140.5 21.5t-84.5 57t-29 79.5q0 42 23 65t61 23q65 0 109 -100l24 -54q33 -14 84 -14q71 0 117.5 52.5t46.5 131.5q0 73 -54 127.5t-186 112.5q-266 118 -266 352
q0 198 225 309q-93 54 -142.5 120.5t-49.5 156.5q0 120 89.5 196t231.5 76q110 0 173 -43.5t63 -118.5q0 -39 -21 -61.5t-59 -22.5q-90 0 -142 160q-24 10 -73 10q-73 0 -117.5 -47t-44.5 -121q0 -70 58 -128t198 -121q122 -58 185 -142t63 -188zM651 592q0 173 -250 282
q-176 -81 -176 -251q0 -90 61.5 -158t198.5 -133q89 54 127.5 113t38.5 147z" />
    <glyph glyph-name="dieresis" unicode="&#xa8;" 
d="M412 1370q0 -42 -23 -71t-65 -29t-65 29t-23 71q0 43 23 73t65 30t65 -30t23 -73zM778 1370q0 -42 -23 -71t-65 -29t-65 29t-23 71q0 43 23 73t65 30t65 -30t23 -73z" />
    <glyph glyph-name="copyright" unicode="&#xa9;" horiz-adv-x="1929" 
d="M1849 604q0 -234 -117 -438.5t-321.5 -325.5t-443.5 -121q-242 0 -448 121.5t-322.5 325.5t-116.5 438q0 230 115.5 433t323 325.5t448.5 122.5q239 0 444.5 -122t321.5 -325t116 -434zM1751 604q0 216 -105.5 400t-285.5 288.5t-393 104.5q-212 0 -393.5 -103.5
t-288.5 -287t-107 -402.5q0 -222 108 -407.5t289.5 -288.5t391.5 -103q211 0 391 104t286.5 289t106.5 406zM1339 369q-57 -136 -145 -198t-217 -62q-123 0 -225 64t-159.5 176t-57.5 247q0 141 60 257t164 181.5t226 65.5q139 0 248 -70l22 49h48l6 -334h-58
q-14 129 -82 211t-172 82q-96 0 -170 -52.5t-115.5 -152.5t-41.5 -233q0 -177 94.5 -293.5t241.5 -116.5q95 0 164 46.5t118 154.5z" />
    <glyph glyph-name="ordfeminine" unicode="&#xaa;" horiz-adv-x="932" 
d="M813 647q-73 -26 -113 -26q-42 0 -73.5 31.5t-36.5 92.5h-6q-46 -59 -111 -93t-131 -34q-74 0 -124 58t-50 151q0 147 149 215l69 28q176 66 210 81v29q0 97 -40.5 154t-111.5 57q-38 0 -68.5 -14t-45.5 -29q10 -57 10 -91q0 -32 -19.5 -52.5t-48.5 -20.5
q-28 0 -46.5 23.5t-18.5 60.5q0 73 74 127.5t172 54.5q243 0 243 -260l-4 -395q0 -49 22 -74t99 -25v-49zM594 1094q-177 -61 -242 -116.5t-65 -135.5q0 -63 29 -101.5t81 -38.5q50 0 103.5 28t87.5 71z" />
    <glyph glyph-name="guillemotleft" unicode="&#xab;" horiz-adv-x="1153" 
d="M506 137l-293 336q-27 30 -27 47q0 11 10.5 24t22.5 27l287 334l45 -35l-193 -348l193 -352zM872 137l-292 336q-27 30 -27 47q0 15 33 51l286 334l46 -35l-193 -348l193 -352z" />
    <glyph glyph-name="logicalnot" unicode="&#xac;" horiz-adv-x="1257" 
d="M997 88v440h-864v107h981v-547h-117z" />
    <glyph glyph-name="registered" unicode="&#xae;" horiz-adv-x="1929" 
d="M1849 604q0 -234 -117 -438.5t-321.5 -325.5t-443.5 -121q-242 0 -448 121.5t-322.5 325.5t-116.5 438q0 230 115.5 433t323 325.5t448.5 122.5q239 0 444.5 -122t321.5 -325t116 -434zM1751 604q0 216 -105.5 400t-285.5 288.5t-393 104.5q-212 0 -393.5 -103.5
t-288.5 -287t-107 -402.5q0 -222 108 -407.5t289.5 -288.5t391.5 -103q211 0 391 104t286.5 289t106.5 406zM1237 135q-104 165 -224 323l-75 99h-137v-287q0 -57 33 -67q23 -10 100 -10v-58h-371v58l46 5l38 5q37 17 37 69v674q0 62 -37 72q-15 4 -84 12v57h416
q137 0 221 -62t84 -165q0 -95 -55 -162t-176 -106l126 -159q39 -48 105 -138q45 -65 90 -82q24 -13 94 -20v-58h-231zM1147 846q0 89 -51 133.5t-146 44.5h-149v-401h119q98 0 162.5 63t64.5 160z" />
    <glyph glyph-name="macron" unicode="&#xaf;" horiz-adv-x="1460" 
d="M-74 1778v65h1610v-65h-1610z" />
    <glyph glyph-name="degree" unicode="&#xb0;" horiz-adv-x="858" 
d="M748 1128q0 -139 -90 -231t-230 -92q-138 0 -226.5 93t-88.5 230q0 138 88.5 229t226.5 91t229 -90t91 -230zM612 1120q0 128 -50 195t-134 67t-133 -70t-49 -182q0 -121 50 -188.5t136 -67.5q77 0 128.5 66t51.5 180z" />
    <glyph glyph-name="plusminus" unicode="&#xb1;" horiz-adv-x="1257" 
d="M143 0v106h432v406h-432v104h432v445h109v-445h430v-104h-430v-406h430v-106h-971z" />
    <glyph glyph-name="twosuperior" unicode="&#xb2;" horiz-adv-x="891" 
d="M133 489v99q19 43 47.5 80t69 73.5t145.5 114.5q116 84 155.5 147.5t39.5 157.5q0 110 -42 163.5t-114 53.5q-56 0 -96.5 -24.5t-58.5 -61.5q14 -56 14 -98q0 -33 -22 -51.5t-58 -18.5t-56 23t-20 65q0 56 39 113t106 91t150 34q131 0 211 -79t80 -210q0 -113 -43.5 -187
t-159.5 -143q-103 -57 -145.5 -86t-78.5 -62.5t-65 -76.5h537v-117h-635z" />
    <glyph glyph-name="threesuperior" unicode="&#xb3;" horiz-adv-x="891" 
d="M752 754q0 -131 -96.5 -215t-243.5 -84q-82 0 -149.5 26t-105.5 71t-38 95q0 46 21.5 70t58.5 24q33 0 54 -19.5t21 -47.5q0 -40 -16 -88q15 -24 62 -41t104 -17q85 0 137.5 62t52.5 166q0 178 -202 178h-62v92h31q97 0 142.5 48.5t45.5 150.5q0 69 -37 112t-104 43
q-87 0 -135 -55q18 -72 18 -98q0 -31 -24 -49.5t-62 -18.5t-56.5 23.5t-18.5 54.5q0 57 38 107t105.5 78t152.5 28q120 0 192.5 -61.5t72.5 -159.5q0 -79 -51 -138t-152 -92v-10q113 -14 178.5 -76.5t65.5 -158.5z" />
    <glyph glyph-name="acute" unicode="&#xb4;" 
d="M643 1468q0 -31 -13 -56t-48 -60l-8 -8t-250 -230l-37 31l65 104q142 231 169 258t61 27q29 0 45 -20t16 -46z" />
    <glyph glyph-name="mu" unicode="&#xb5;" horiz-adv-x="1006" 
d="M993 18q-79 -30 -131 -30q-125 0 -139 147h-6q-58 -64 -99 -92.5t-89 -43.5t-107 -15q-61 0 -115.5 28t-70.5 62h-5v-72q0 -92 26 -197q26 -106 26 -161q0 -38 -20.5 -63t-57.5 -25q-38 0 -57 22t-19 53q0 56 26 221q19 120 19 279v852h117v-684q0 -112 43 -168.5
t135 -56.5q57 0 107.5 22.5t90 57.5t58.5 73v756h111v-786q0 -71 30 -94t127 -23v-62z" />
    <glyph glyph-name="paragraph" unicode="&#xb6;" horiz-adv-x="893" 
d="M881 1350h-111v-1565h-92v1565h-117v-1565h-94v960q-173 0 -268 88t-95 244q0 162 85.5 252t240.5 90h451v-69z" />
    <glyph glyph-name="periodcentered" unicode="&#xb7;" horiz-adv-x="496" 
d="M358 565q0 -46 -31 -76t-77 -30q-45 0 -77 30.5t-32 75.5t32 77t77 32q46 0 77 -32.5t31 -76.5z" />
    <glyph glyph-name="cedilla" unicode="&#xb8;" 
d="M668 -246q0 -108 -75.5 -153t-252.5 -45v69q221 0 221 99q0 38 -37.5 56.5t-124.5 18.5v217h74v-122q195 0 195 -140z" />
    <glyph glyph-name="onesuperior" unicode="&#xb9;" horiz-adv-x="891" 
d="M207 489v68q104 0 131 12q41 17 41 62v661h-176v72h33q67 0 133.5 24.5t97.5 55.5h37l-6 -242v-563q0 -38 36 -60t125 -22v-68h-452z" />
    <glyph glyph-name="ordmasculine" unicode="&#xba;" horiz-adv-x="920" 
d="M788 1042q0 -187 -92.5 -307.5t-242.5 -120.5q-86 0 -160 53t-118 148t-44 213q0 186 93.5 304t242.5 118q141 0 231 -113.5t90 -294.5zM676 1040q0 156 -55.5 252.5t-151.5 96.5q-98 0 -156.5 -96.5t-58.5 -248.5q0 -160 59 -263t156 -103q94 0 150.5 100.5t56.5 261.5z
" />
    <glyph glyph-name="guillemotright" unicode="&#xbb;" horiz-adv-x="1153" 
d="M602 170l193 352l-193 348l45 35l287 -334q12 -14 22.5 -27t10.5 -24q0 -17 -27 -47l-293 -336zM236 170l192 352l-192 348l45 35l286 -334q33 -36 33 -51q0 -17 -27 -47l-292 -336z" />
    <glyph glyph-name="onequarter" unicode="&#xbc;" horiz-adv-x="1966" 
d="M1761 209h-157v-227h-133v227h-424v99l477 653h80v-662h157v-90zM1471 299v443l-330 -443h330zM131 489v68q104 0 131 12q41 17 41 62v661h-176v72h33q67 0 133.5 24.5t97.5 55.5h37l-6 -242v-563q0 -38 36 -60t125 -22v-68h-452zM1288 1419l-698 -1419h-105l701 1419
h102z" />
    <glyph glyph-name="onehalf" unicode="&#xbd;" horiz-adv-x="1966" 
d="M1210 2v99q19 43 47.5 80t69 73.5t145.5 114.5q116 84 155.5 147.5t39.5 157.5q0 110 -42 163.5t-114 53.5q-56 0 -96.5 -24.5t-58.5 -61.5q14 -56 14 -98q0 -33 -22 -51.5t-58 -18.5t-56 23t-20 65q0 56 39 113t106 91t150 34q131 0 211 -79t80 -210q0 -113 -43.5 -187
t-159.5 -143q-103 -57 -145.5 -86t-78.5 -62.5t-65 -76.5h537v-117h-635zM131 489v68q104 0 131 12q41 17 41 62v661h-176v72h33q67 0 133.5 24.5t97.5 55.5h37l-6 -242v-563q0 -38 36 -60t125 -22v-68h-452zM1292 1419l-698 -1419h-105l701 1419h102z" />
    <glyph glyph-name="threequarters" unicode="&#xbe;" horiz-adv-x="1966" 
d="M1874 209h-157v-227h-133v227h-424v99l477 653h80v-662h157v-90zM1584 299v443l-330 -443h330zM752 754q0 -131 -96.5 -215t-243.5 -84q-82 0 -149.5 26t-105.5 71t-38 95q0 46 21.5 70t58.5 24q33 0 54 -19.5t21 -47.5q0 -40 -16 -88q15 -24 62 -41t104 -17
q85 0 137.5 62t52.5 166q0 178 -202 178h-62v92h31q97 0 142.5 48.5t45.5 150.5q0 69 -37 112t-104 43q-87 0 -135 -55q18 -72 18 -98q0 -31 -24 -49.5t-62 -18.5t-56.5 23.5t-18.5 54.5q0 57 38 107t105.5 78t152.5 28q120 0 192.5 -61.5t72.5 -159.5q0 -79 -51 -138
t-152 -92v-10q113 -14 178.5 -76.5t65.5 -158.5zM1466 1419l-698 -1419h-105l701 1419h102z" />
    <glyph glyph-name="questiondown" unicode="&#xbf;" horiz-adv-x="838" 
d="M119 379q0 169 85.5 276t254.5 146l2 276h88v-370q-152 -27 -220.5 -110t-68.5 -218q0 -100 28 -172.5t77.5 -113t109.5 -40.5q40 0 68 12t41 27q-17 102 -17 121q0 30 24 53t62 23t62 -27t24 -76q0 -53 -37 -102.5t-101.5 -79t-147.5 -29.5q-93 0 -170 51t-120.5 143.5
t-43.5 209.5zM389 1333q0 46 31 78.5t80 32.5q46 0 77 -32.5t31 -78.5q0 -47 -31.5 -80.5t-76.5 -33.5q-49 0 -80 34t-31 80z" />
    <glyph glyph-name="Agrave" unicode="&#xc0;" horiz-adv-x="1274" 
d="M817 0v70q81 4 125.5 19.5t44.5 37.5q0 29 -14 68l-101 305h-493q-27 -67 -57.5 -153.5t-38 -121t-7.5 -67.5q0 -40 56 -63t145 -25v-70h-512v70q67 5 113 31t81.5 103t195.5 465t307 771h20q161 -483 426 -1225q24 -60 54.5 -90.5t71.5 -42.5t75 -12v-70h-492zM641 1163
l-227 -581h432zM336 1798q0 29 18.5 49.5t44.5 20.5q27 0 48.5 -14.5t105.5 -98.5l205 -199l-29 -38l-305 168q-55 32 -71.5 55.5t-16.5 56.5z" />
    <glyph glyph-name="Aacute" unicode="&#xc1;" horiz-adv-x="1274" 
d="M817 0v70q81 4 125.5 19.5t44.5 37.5q0 29 -14 68l-101 305h-493q-27 -67 -57.5 -153.5t-38 -121t-7.5 -67.5q0 -40 56 -63t145 -25v-70h-512v70q67 5 113 31t81.5 103t195.5 465t307 771h20q161 -483 426 -1225q24 -60 54.5 -90.5t71.5 -42.5t75 -12v-70h-492zM641 1163
l-227 -581h432zM592 1518l-29 38l205 199q80 81 103 97t51 16q26 0 44.5 -20.5t18.5 -49.5q0 -32 -16 -56t-72 -56z" />
    <glyph glyph-name="Acircumflex" unicode="&#xc2;" horiz-adv-x="1274" 
d="M817 0v70q81 4 125.5 19.5t44.5 37.5q0 29 -14 68l-101 305h-493q-27 -67 -57.5 -153.5t-38 -121t-7.5 -67.5q0 -40 56 -63t145 -25v-70h-512v70q67 5 113 31t81.5 103t195.5 465t307 771h20q161 -483 426 -1225q24 -60 54.5 -90.5t71.5 -42.5t75 -12v-70h-492zM641 1163
l-227 -581h432zM960 1552l-45 -32l-258 200l-254 -200l-45 32l217 263q9 10 17 19.5t17.5 17t22 12t29.5 4.5q21 0 38.5 -8.5t30 -25t230.5 -282.5z" />
    <glyph glyph-name="Atilde" unicode="&#xc3;" horiz-adv-x="1274" 
d="M817 0v70q81 4 125.5 19.5t44.5 37.5q0 29 -14 68l-101 305h-493q-27 -67 -57.5 -153.5t-38 -121t-7.5 -67.5q0 -40 56 -63t145 -25v-70h-512v70q67 5 113 31t81.5 103t195.5 465t307 771h20q161 -483 426 -1225q24 -60 54.5 -90.5t71.5 -42.5t75 -12v-70h-492zM641 1163
l-227 -581h432zM968 1816q-31 -103 -84.5 -158t-120.5 -55q-43 0 -74.5 15.5t-58.5 34t-53 34t-57 15.5q-34 0 -57.5 -24t-63.5 -105l-53 22q38 94 64.5 132.5t59 60.5t74.5 22q41 0 73 -15.5t59 -34.5t51.5 -34.5t50.5 -15.5q46 0 76.5 26.5t62.5 102.5z" />
    <glyph glyph-name="Adieresis" unicode="&#xc4;" horiz-adv-x="1274" 
d="M817 0v70q81 4 125.5 19.5t44.5 37.5q0 29 -14 68l-101 305h-493q-27 -67 -57.5 -153.5t-38 -121t-7.5 -67.5q0 -40 56 -63t145 -25v-70h-512v70q67 5 113 31t81.5 103t195.5 465t307 771h20q161 -483 426 -1225q24 -60 54.5 -90.5t71.5 -42.5t75 -12v-70h-492zM641 1163
l-227 -581h432zM553 1735q0 -42 -23 -71t-65 -29t-65 29t-23 71q0 43 23 72.5t65 29.5t65 -29.5t23 -72.5zM961 1735q0 -42 -23 -71t-65 -29t-65 29t-23 71q0 43 23 72.5t65 29.5t65 -29.5t23 -72.5z" />
    <glyph glyph-name="Aring" unicode="&#xc5;" horiz-adv-x="1274" 
d="M817 0v70q81 4 125.5 19.5t44.5 37.5q0 29 -14 68l-101 305h-493q-27 -67 -57.5 -153.5t-38 -121t-7.5 -67.5q0 -40 56 -63t145 -25v-70h-512v70q67 5 113 31t81.5 103t195.5 465t307 771h20q161 -483 426 -1225q24 -60 54.5 -90.5t71.5 -42.5t75 -12v-70h-492zM641 1163
l-227 -581h432zM907 1650q0 -98 -69.5 -158.5t-178.5 -60.5q-112 0 -180 60t-68 159q0 93 70.5 155t177.5 62q110 0 179 -60.5t69 -156.5zM790 1650q0 73 -35.5 115.5t-95.5 42.5q-63 0 -97 -42.5t-34 -115.5q0 -71 35 -114t96 -43q65 0 98 44t33 113z" />
    <glyph glyph-name="AE" unicode="&#xc6;" horiz-adv-x="1778" 
d="M877 1331h-39l-349 -641h388v641zM1614 1419v-332h-64q-28 128 -75.5 186t-117 64t-188.5 6h-149v-569h84q74 0 117 15.5t71 59.5t43 150h64v-538h-64q-3 68 -28.5 131.5t-70.5 83.5t-132 20h-84v-434q0 -92 13.5 -125t48.5 -46t143 -13q101 0 160 7t97 21t65 53.5
t56 107.5t48 139h71l-26 -406h-1000v70q101 8 125 18q56 28 56 100v418h-431q-97 -159 -184 -340q-22 -49 -22 -90q0 -57 31.5 -80.5t103.5 -25.5v-70h-451v70q38 0 105 36q60 37 112 134q266 459 607 1089q-45 21 -162 21v69h1028z" />
    <glyph glyph-name="Ccedilla" unicode="&#xc7;" horiz-adv-x="1219" 
d="M1178 358q-77 -204 -197.5 -296.5t-294.5 -92.5q-168 0 -307 94t-217 261.5t-78 371.5q0 210 80.5 383t221 271t302.5 98q194 0 334 -102l33 73h65l10 -499h-71q-21 200 -117.5 324t-236.5 124q-133 0 -237.5 -81.5t-162 -233.5t-57.5 -351q0 -170 60.5 -317.5t167 -231
t239.5 -83.5q135 0 233.5 76t161.5 241zM861 -246q0 -108 -75.5 -153t-252.5 -45v69q221 0 221 99q0 38 -37.5 56.5t-124.5 18.5v217h74v-122q195 0 195 -140z" />
    <glyph glyph-name="Egrave" unicode="&#xc8;" horiz-adv-x="1237" 
d="M1155 0h-1063v70q110 10 131 18q51 21 51 100v1029q0 49 -19 73.5t-77 42t-84 17.5v69h979v-332h-63q-28 126 -76 185.5t-121 64.5q-74 6 -184 6h-211v-569h145q74 0 117 15.5t71 60t44 149.5h63v-538h-63q-3 66 -29 130.5t-71.5 84.5t-131.5 20h-145v-434
q0 -86 22 -121.5t78 -49t207 -13.5q126 0 183 15t86 51t61.5 109t54.5 153h72zM338 1798q0 29 18.5 49.5t44.5 20.5q27 0 48.5 -14.5t105.5 -98.5l205 -199l-29 -38l-305 168q-55 32 -71.5 55.5t-16.5 56.5z" />
    <glyph glyph-name="Eacute" unicode="&#xc9;" horiz-adv-x="1237" 
d="M1155 0h-1063v70q110 10 131 18q51 21 51 100v1029q0 49 -19 73.5t-77 42t-84 17.5v69h979v-332h-63q-28 126 -76 185.5t-121 64.5q-74 6 -184 6h-211v-569h145q74 0 117 15.5t71 60t44 149.5h63v-538h-63q-3 66 -29 130.5t-71.5 84.5t-131.5 20h-145v-434
q0 -86 22 -121.5t78 -49t207 -13.5q126 0 183 15t86 51t61.5 109t54.5 153h72zM539 1518l-29 38l205 199q80 81 103 97t51 16q26 0 44.5 -20.5t18.5 -49.5q0 -32 -16 -56t-72 -56z" />
    <glyph glyph-name="Ecircumflex" unicode="&#xca;" horiz-adv-x="1237" 
d="M1155 0h-1063v70q110 10 131 18q51 21 51 100v1029q0 49 -19 73.5t-77 42t-84 17.5v69h979v-332h-63q-28 126 -76 185.5t-121 64.5q-74 6 -184 6h-211v-569h145q74 0 117 15.5t71 60t44 149.5h63v-538h-63q-3 66 -29 130.5t-71.5 84.5t-131.5 20h-145v-434
q0 -86 22 -121.5t78 -49t207 -13.5q126 0 183 15t86 51t61.5 109t54.5 153h72zM934 1552l-45 -32l-258 200l-254 -200l-45 32l217 263q9 10 17 19.5t17.5 17t22 12t29.5 4.5q21 0 38.5 -8.5t30 -25t230.5 -282.5z" />
    <glyph glyph-name="Edieresis" unicode="&#xcb;" horiz-adv-x="1237" 
d="M1155 0h-1063v70q110 10 131 18q51 21 51 100v1029q0 49 -19 73.5t-77 42t-84 17.5v69h979v-332h-63q-28 126 -76 185.5t-121 64.5q-74 6 -184 6h-211v-569h145q74 0 117 15.5t71 60t44 149.5h63v-538h-63q-3 66 -29 130.5t-71.5 84.5t-131.5 20h-145v-434
q0 -86 22 -121.5t78 -49t207 -13.5q126 0 183 15t86 51t61.5 109t54.5 153h72zM516 1745q0 -42 -23 -71t-65 -29t-65 29t-23 71q0 43 23 72.5t65 29.5t65 -29.5t23 -72.5zM924 1745q0 -42 -23 -71t-65 -29t-65 29t-23 71q0 43 23 72.5t65 29.5t65 -29.5t23 -72.5z" />
    <glyph glyph-name="Igrave" unicode="&#xcc;" horiz-adv-x="692" 
d="M84 0v70q105 8 136.5 19.5t42.5 36.5t11 54v1039q0 40 -20.5 67t-73.5 44t-96 20v69h526v-69q-47 -3 -103.5 -18.5t-72.5 -41t-16 -61.5v-1034q0 -64 43.5 -91t148.5 -34v-70h-526zM58 1798q0 29 18.5 49.5t44.5 20.5q27 0 48.5 -14.5t105.5 -98.5l205 -199l-29 -38
l-305 168q-55 32 -71.5 55.5t-16.5 56.5z" />
    <glyph glyph-name="Iacute" unicode="&#xcd;" horiz-adv-x="692" 
d="M84 0v70q105 8 136.5 19.5t42.5 36.5t11 54v1039q0 40 -20.5 67t-73.5 44t-96 20v69h526v-69q-47 -3 -103.5 -18.5t-72.5 -41t-16 -61.5v-1034q0 -64 43.5 -91t148.5 -34v-70h-526zM229 1518l-29 38l205 199q80 81 103 97t51 16q26 0 44.5 -20.5t18.5 -49.5
q0 -32 -16 -56t-72 -56z" />
    <glyph glyph-name="Icircumflex" unicode="&#xce;" horiz-adv-x="692" 
d="M84 0v70q105 8 136.5 19.5t42.5 36.5t11 54v1039q0 40 -20.5 67t-73.5 44t-96 20v69h526v-69q-47 -3 -103.5 -18.5t-72.5 -41t-16 -61.5v-1034q0 -64 43.5 -91t148.5 -34v-70h-526zM653 1552l-45 -32l-258 200l-254 -200l-45 32l217 263q9 10 17 19.5t17.5 17t22 12
t29.5 4.5q21 0 38.5 -8.5t30 -25t230.5 -282.5z" />
    <glyph glyph-name="Idieresis" unicode="&#xcf;" horiz-adv-x="692" 
d="M84 0v70q105 8 136.5 19.5t42.5 36.5t11 54v1039q0 40 -20.5 67t-73.5 44t-96 20v69h526v-69q-47 -3 -103.5 -18.5t-72.5 -41t-16 -61.5v-1034q0 -64 43.5 -91t148.5 -34v-70h-526zM231 1745q0 -42 -23 -71t-65 -29t-65 29t-23 71q0 43 23 72.5t65 29.5t65 -29.5
t23 -72.5zM639 1745q0 -42 -23 -71t-65 -29t-65 29t-23 71q0 43 23 72.5t65 29.5t65 -29.5t23 -72.5z" />
    <glyph glyph-name="Eth" unicode="&#xd0;" horiz-adv-x="1411" 
d="M1327 700q0 -204 -87.5 -361.5t-254.5 -248t-362 -90.5h-517v70h10q51 0 109 14q49 25 49 100v523h-182v96h182v414q0 39 -13 66t-59 47t-83 20v69h545q135 0 264.5 -55t216.5 -146.5t134.5 -223.5t47.5 -294zM1163 702q0 182 -71.5 329t-199 228.5t-286.5 81.5l-188 -4
v-534h299v-96h-299v-465q0 -91 52.5 -127.5t182.5 -36.5q244 0 377 164t133 460z" />
    <glyph glyph-name="Ntilde" unicode="&#xd1;" horiz-adv-x="1479" 
d="M1434 1350q-40 0 -90 -11t-67.5 -27.5t-27.5 -44.5t-15 -87.5t-5 -132.5v-1063h-41l-828 1179v-764q0 -224 60 -284q17 -19 68 -32t108 -13v-70h-530v70q32 0 82 11t71.5 32t33 56t16.5 94.5t5 123.5v727q0 64 -24.5 114t-87 84t-127.5 40v67h319l789 -1122v737
q0 84 -6 143t-18.5 91.5t-35 47t-83.5 24.5t-87 10v69h521v-69zM1075 1831q-31 -103 -84.5 -158t-120.5 -55q-43 0 -74.5 15.5t-58.5 34t-53 34t-57 15.5q-34 0 -57.5 -24t-63.5 -105l-53 22q38 94 64.5 132.5t59 60.5t74.5 22q41 0 73 -15.5t59 -34.5t51.5 -34.5
t50.5 -15.5q46 0 76.5 26.5t62.5 102.5z" />
    <glyph glyph-name="Ograve" unicode="&#xd2;" horiz-adv-x="1407" 
d="M1323 705q0 -208 -79.5 -376t-225 -265t-311.5 -97q-181 0 -324 96t-221 269t-78 383q0 208 81 377t225 263.5t312 94.5q175 0 318 -94t223 -265t80 -386zM1159 707q0 315 -121 487t-336 172q-137 0 -238.5 -74t-158.5 -227t-57 -354q0 -303 119 -480.5t335 -177.5
t336.5 175t120.5 479zM408 1798q0 29 18.5 49.5t44.5 20.5q27 0 48.5 -14.5t105.5 -98.5l205 -199l-29 -38l-305 168q-55 32 -71.5 55.5t-16.5 56.5z" />
    <glyph glyph-name="Oacute" unicode="&#xd3;" horiz-adv-x="1407" 
d="M1323 705q0 -208 -79.5 -376t-225 -265t-311.5 -97q-181 0 -324 96t-221 269t-78 383q0 208 81 377t225 263.5t312 94.5q175 0 318 -94t223 -265t80 -386zM1159 707q0 315 -121 487t-336 172q-137 0 -238.5 -74t-158.5 -227t-57 -354q0 -303 119 -480.5t335 -177.5
t336.5 175t120.5 479zM598 1518l-29 38l205 199q80 81 103 97t51 16q26 0 44.5 -20.5t18.5 -49.5q0 -32 -16 -56t-72 -56z" />
    <glyph glyph-name="Ocircumflex" unicode="&#xd4;" horiz-adv-x="1407" 
d="M1323 705q0 -208 -79.5 -376t-225 -265t-311.5 -97q-181 0 -324 96t-221 269t-78 383q0 208 81 377t225 263.5t312 94.5q175 0 318 -94t223 -265t80 -386zM1159 707q0 315 -121 487t-336 172q-137 0 -238.5 -74t-158.5 -227t-57 -354q0 -303 119 -480.5t335 -177.5
t336.5 175t120.5 479zM1003 1552l-45 -32l-258 200l-254 -200l-45 32l217 263q9 10 17 19.5t17.5 17t22 12t29.5 4.5q21 0 38.5 -8.5t30 -25t230.5 -282.5z" />
    <glyph glyph-name="Otilde" unicode="&#xd5;" horiz-adv-x="1407" 
d="M1323 705q0 -208 -79.5 -376t-225 -265t-311.5 -97q-181 0 -324 96t-221 269t-78 383q0 208 81 377t225 263.5t312 94.5q175 0 318 -94t223 -265t80 -386zM1159 707q0 315 -121 487t-336 172q-137 0 -238.5 -74t-158.5 -227t-57 -354q0 -303 119 -480.5t335 -177.5
t336.5 175t120.5 479zM1013 1831q-31 -103 -84.5 -158t-120.5 -55q-43 0 -74.5 15.5t-58.5 34t-53 34t-57 15.5q-34 0 -57.5 -24t-63.5 -105l-53 22q38 94 64.5 132.5t59 60.5t74.5 22q41 0 73 -15.5t59 -34.5t51.5 -34.5t50.5 -15.5q46 0 76.5 26.5t62.5 102.5z" />
    <glyph glyph-name="Odieresis" unicode="&#xd6;" horiz-adv-x="1407" 
d="M1323 705q0 -208 -79.5 -376t-225 -265t-311.5 -97q-181 0 -324 96t-221 269t-78 383q0 208 81 377t225 263.5t312 94.5q175 0 318 -94t223 -265t80 -386zM1159 707q0 315 -121 487t-336 172q-137 0 -238.5 -74t-158.5 -227t-57 -354q0 -303 119 -480.5t335 -177.5
t336.5 175t120.5 479zM584 1745q0 -42 -23 -71t-65 -29t-65 29t-23 71q0 43 23 72.5t65 29.5t65 -29.5t23 -72.5zM992 1745q0 -42 -23 -71t-65 -29t-65 29t-23 71q0 43 23 72.5t65 29.5t65 -29.5t23 -72.5z" />
    <glyph glyph-name="multiply" unicode="&#xd7;" horiz-adv-x="1257" 
d="M979 127l-352 352l-348 -356l-76 78l352 350l-352 354l76 74l348 -352l352 352l76 -74l-355 -354l355 -350z" />
    <glyph glyph-name="Oslash" unicode="&#xd8;" horiz-adv-x="1407" 
d="M1323 705q0 -208 -79.5 -376t-225 -265t-311.5 -97q-244 0 -408 164l-164 -211l-61 41l174 225q-164 214 -164 529q0 208 81 377t225 263.5t312 94.5q232 0 400 -162l133 172l61 -45l-141 -182q168 -211 168 -528zM1159 707q0 253 -84 423l-704 -907q121 -170 331 -170
q216 0 336.5 175t120.5 479zM248 711q0 -256 82 -418l704 907q-121 166 -332 166q-137 0 -238.5 -74t-158.5 -227t-57 -354z" />
    <glyph glyph-name="Ugrave" unicode="&#xd9;" horiz-adv-x="1432" 
d="M1391 1350q-141 -7 -173 -72.5t-32 -233.5v-659q0 -194 -125.5 -306t-345.5 -112q-216 0 -342.5 112.5t-126.5 297.5v837q0 47 -21.5 75t-65.5 43t-77 18v69h487v-69q-57 -5 -104 -18.5t-60.5 -39.5t-13.5 -67v-817q0 -160 88.5 -249t247.5 -89q180 0 275.5 85t95.5 242
v635q0 110 -17 178t-45 88q-66 47 -159 52v69h514v-69zM410 1798q0 29 18.5 49.5t44.5 20.5q27 0 48.5 -14.5t105.5 -98.5l205 -199l-29 -38l-305 168q-55 32 -71.5 55.5t-16.5 56.5z" />
    <glyph glyph-name="Uacute" unicode="&#xda;" horiz-adv-x="1432" 
d="M1391 1350q-141 -7 -173 -72.5t-32 -233.5v-659q0 -194 -125.5 -306t-345.5 -112q-216 0 -342.5 112.5t-126.5 297.5v837q0 47 -21.5 75t-65.5 43t-77 18v69h487v-69q-57 -5 -104 -18.5t-60.5 -39.5t-13.5 -67v-817q0 -160 88.5 -249t247.5 -89q180 0 275.5 85t95.5 242
v635q0 110 -17 178t-45 88q-66 47 -159 52v69h514v-69zM670 1518l-29 38l205 199q80 81 103 97t51 16q26 0 44.5 -20.5t18.5 -49.5q0 -32 -16 -56t-72 -56z" />
    <glyph glyph-name="Ucircumflex" unicode="&#xdb;" horiz-adv-x="1432" 
d="M1391 1350q-141 -7 -173 -72.5t-32 -233.5v-659q0 -194 -125.5 -306t-345.5 -112q-216 0 -342.5 112.5t-126.5 297.5v837q0 47 -21.5 75t-65.5 43t-77 18v69h487v-69q-57 -5 -104 -18.5t-60.5 -39.5t-13.5 -67v-817q0 -160 88.5 -249t247.5 -89q180 0 275.5 85t95.5 242
v635q0 110 -17 178t-45 88q-66 47 -159 52v69h514v-69zM1034 1552l-45 -32l-258 200l-254 -200l-45 32l217 263q9 10 17 19.5t17.5 17t22 12t29.5 4.5q21 0 38.5 -8.5t30 -25t230.5 -282.5z" />
    <glyph glyph-name="Udieresis" unicode="&#xdc;" horiz-adv-x="1432" 
d="M1391 1350q-141 -7 -173 -72.5t-32 -233.5v-659q0 -194 -125.5 -306t-345.5 -112q-216 0 -342.5 112.5t-126.5 297.5v837q0 47 -21.5 75t-65.5 43t-77 18v69h487v-69q-57 -5 -104 -18.5t-60.5 -39.5t-13.5 -67v-817q0 -160 88.5 -249t247.5 -89q180 0 275.5 85t95.5 242
v635q0 110 -17 178t-45 88q-66 47 -159 52v69h514v-69zM614 1745q0 -42 -23 -71t-65 -29t-65 29t-23 71q0 43 23 72.5t65 29.5t65 -29.5t23 -72.5zM1022 1745q0 -42 -23 -71t-65 -29t-65 29t-23 71q0 43 23 72.5t65 29.5t65 -29.5t23 -72.5z" />
    <glyph glyph-name="Yacute" unicode="&#xdd;" horiz-adv-x="1096" 
d="M1130 1350q-48 -9 -81.5 -31t-63.5 -68q-53 -79 -104 -164.5t-146.5 -263t-110 -217t-14.5 -80.5v-321q0 -66 46.5 -96.5t164.5 -38.5v-70h-559v70q144 10 174.5 34.5t30.5 90.5v327q0 40 -17.5 80t-35.5 80q-166 338 -193 390t-49.5 91.5t-58.5 88t-74.5 72t-73.5 26.5
v69h451v-69l-48 -4q-89 -7 -89 -41q0 -26 90 -216.5t200 -406.5q299 551 299 606q0 25 -31.5 40.5t-111.5 21.5v69h405v-69zM457 1518l-29 38l205 199q80 81 103 97t51 16q26 0 44.5 -20.5t18.5 -49.5q0 -32 -16 -56t-72 -56z" />
    <glyph glyph-name="Thorn" unicode="&#xde;" horiz-adv-x="1122" 
d="M1038 745q0 -127 -62 -223t-174 -147t-257 -51h-127v-140q0 -85 53 -102q26 -9 94 -10l37 -2v-70h-489v70q73 6 105 16.5t44 37t12 64.5v1037q0 40 -14.5 63.5t-59.5 40.5t-91 21v69h475v-69q-65 0 -117 -18.5t-49 -94.5v-111h211q107 0 201.5 -48.5t151 -135.5
t56.5 -197zM868 721q0 93 -36.5 167.5t-106.5 117.5t-170 43h-137v-641h117q155 0 244 82t89 231z" />
    <glyph glyph-name="germandbls" unicode="&#xdf;" horiz-adv-x="961" 
d="M891 498q0 -144 -52 -260.5t-145 -182t-209 -65.5q-62 0 -110 8v80q43 -12 104 -12q275 0 275 438q0 179 -87.5 285t-238.5 106h-14v82h32q74 0 135.5 32t97.5 91t36 139q0 115 -50 177.5t-135 62.5q-118 0 -173.5 -113.5t-55.5 -341.5v-1024h-233v61l41 8
q44 7 59.5 31.5t15.5 73.5v850q0 526 346 526q132 0 211.5 -80.5t79.5 -220.5q0 -82 -40.5 -149.5t-117 -112t-145.5 -47.5v-6q181 -33 277 -146.5t96 -289.5z" />
    <glyph glyph-name="agrave" unicode="&#xe0;" horiz-adv-x="881" 
d="M850 18q-73 -34 -125 -34q-115 0 -131 145h-4q-60 -74 -128 -113t-157 -39q-100 0 -162.5 69t-62.5 179q0 96 45.5 162.5t144.5 106.5l86 34l236 88v93q0 231 -162 231q-101 0 -160 -51q0 -25 6.5 -53.5t6.5 -63.5q0 -37 -24 -55.5t-56 -18.5q-31 0 -52.5 23t-21.5 63
q0 92 87 159t212 67q151 0 217 -78t66 -244l-6 -491q0 -41 7.5 -64t28.5 -39q30 -18 109 -18v-58zM592 551q-165 -50 -241 -89.5t-110 -90t-34 -129.5q0 -81 36.5 -127.5t108.5 -46.5q62 0 112 25t124 108zM540 1114l-256 242q-63 54 -63 110q0 26 16 47t45 21q27 0 49 -16
t54 -66l194 -307z" />
    <glyph glyph-name="aacute" unicode="&#xe1;" horiz-adv-x="881" 
d="M850 18q-73 -34 -125 -34q-115 0 -131 145h-4q-60 -74 -128 -113t-157 -39q-100 0 -162.5 69t-62.5 179q0 96 45.5 162.5t144.5 106.5l86 34l236 88v93q0 231 -162 231q-101 0 -160 -51q0 -25 6.5 -53.5t6.5 -63.5q0 -37 -24 -55.5t-56 -18.5q-31 0 -52.5 23t-21.5 63
q0 92 87 159t212 67q151 0 217 -78t66 -244l-6 -491q0 -41 7.5 -64t28.5 -39q30 -18 109 -18v-58zM592 551q-165 -50 -241 -89.5t-110 -90t-34 -129.5q0 -81 36.5 -127.5t108.5 -46.5q62 0 112 25t124 108zM684 1468q0 -31 -13 -56t-48 -60l-8 -8t-250 -230l-37 31l65 104
q142 231 169 258t61 27q29 0 45 -20t16 -46z" />
    <glyph glyph-name="acircumflex" unicode="&#xe2;" horiz-adv-x="881" 
d="M850 18q-73 -34 -125 -34q-115 0 -131 145h-4q-60 -74 -128 -113t-157 -39q-100 0 -162.5 69t-62.5 179q0 96 45.5 162.5t144.5 106.5l86 34l236 88v93q0 231 -162 231q-101 0 -160 -51q0 -25 6.5 -53.5t6.5 -63.5q0 -37 -24 -55.5t-56 -18.5q-31 0 -52.5 23t-21.5 63
q0 92 87 159t212 67q151 0 217 -78t66 -244l-6 -491q0 -41 7.5 -64t28.5 -39q30 -18 109 -18v-58zM592 551q-165 -50 -241 -89.5t-110 -90t-34 -129.5q0 -81 36.5 -127.5t108.5 -46.5q62 0 112 25t124 108zM729 1155l-45 -25l-217 262l-213 -262l-45 25l176 323q14 22 33 38
t53 16t51 -14.5t31 -34.5z" />
    <glyph glyph-name="atilde" unicode="&#xe3;" horiz-adv-x="881" 
d="M850 18q-73 -34 -125 -34q-115 0 -131 145h-4q-60 -74 -128 -113t-157 -39q-100 0 -162.5 69t-62.5 179q0 96 45.5 162.5t144.5 106.5l86 34l236 88v93q0 231 -162 231q-101 0 -160 -51q0 -25 6.5 -53.5t6.5 -63.5q0 -37 -24 -55.5t-56 -18.5q-31 0 -52.5 23t-21.5 63
q0 92 87 159t212 67q151 0 217 -78t66 -244l-6 -491q0 -41 7.5 -64t28.5 -39q30 -18 109 -18v-58zM592 551q-165 -50 -241 -89.5t-110 -90t-34 -129.5q0 -81 36.5 -127.5t108.5 -46.5q62 0 112 25t124 108zM778 1460q-31 -103 -84.5 -158t-120.5 -55q-43 0 -74.5 15.5
t-58.5 34t-53 34t-57 15.5q-34 0 -57.5 -24t-63.5 -105l-53 22q38 94 64.5 132.5t59 60.5t74.5 22q41 0 73 -15.5t59 -34.5t51.5 -34.5t50.5 -15.5q46 0 76.5 26.5t62.5 102.5z" />
    <glyph glyph-name="adieresis" unicode="&#xe4;" horiz-adv-x="881" 
d="M850 18q-73 -34 -125 -34q-115 0 -131 145h-4q-60 -74 -128 -113t-157 -39q-100 0 -162.5 69t-62.5 179q0 96 45.5 162.5t144.5 106.5l86 34l236 88v93q0 231 -162 231q-101 0 -160 -51q0 -25 6.5 -53.5t6.5 -63.5q0 -37 -24 -55.5t-56 -18.5q-31 0 -52.5 23t-21.5 63
q0 92 87 159t212 67q151 0 217 -78t66 -244l-6 -491q0 -41 7.5 -64t28.5 -39q30 -18 109 -18v-58zM592 551q-165 -50 -241 -89.5t-110 -90t-34 -129.5q0 -81 36.5 -127.5t108.5 -46.5q62 0 112 25t124 108zM344 1370q0 -42 -23 -71t-65 -29t-65 29t-23 71q0 43 23 73t65 30
t65 -30t23 -73zM710 1370q0 -42 -23 -71t-65 -29t-65 29t-23 71q0 43 23 73t65 30t65 -30t23 -73z" />
    <glyph glyph-name="aring" unicode="&#xe5;" horiz-adv-x="881" 
d="M850 18q-73 -34 -125 -34q-115 0 -131 145h-4q-60 -74 -128 -113t-157 -39q-100 0 -162.5 69t-62.5 179q0 96 45.5 162.5t144.5 106.5l86 34l236 88v93q0 231 -162 231q-101 0 -160 -51q0 -25 6.5 -53.5t6.5 -63.5q0 -37 -24 -55.5t-56 -18.5q-31 0 -52.5 23t-21.5 63
q0 92 87 159t212 67q151 0 217 -78t66 -244l-6 -491q0 -41 7.5 -64t28.5 -39q30 -18 109 -18v-58zM592 551q-165 -50 -241 -89.5t-110 -90t-34 -129.5q0 -81 36.5 -127.5t108.5 -46.5q62 0 112 25t124 108zM680 1341q0 -98 -69.5 -158.5t-178.5 -60.5q-112 0 -180 60
t-68 159q0 93 70.5 155t177.5 62q110 0 179 -60.5t69 -156.5zM563 1341q0 73 -35.5 115.5t-95.5 42.5q-63 0 -97 -42.5t-34 -115.5q0 -71 35 -114t96 -43q65 0 98 44t33 113z" />
    <glyph glyph-name="ae" unicode="&#xe6;" horiz-adv-x="1350" 
d="M688 848q104 162 270 162q153 0 236.5 -111.5t83.5 -310.5v-53h-567v-19q2 -210 71.5 -328t192.5 -118q85 0 147 42t121 148l57 -35q-66 -129 -148.5 -189.5t-186.5 -60.5q-113 0 -195.5 52t-120.5 149h-6q-87 -109 -165 -154t-171 -45q-100 0 -163.5 68.5t-63.5 179.5
q0 98 45.5 164t146.5 105l84 34l236 88v93q0 231 -162 231q-101 0 -160 -51q0 -25 6.5 -53.5t6.5 -63.5q0 -37 -24 -55.5t-56 -18.5q-31 0 -52.5 23t-21.5 63q0 91 89.5 158.5t217.5 67.5q109 0 167.5 -39t84.5 -123zM592 551q-162 -49 -238 -89.5t-111.5 -92.5t-35.5 -127
q0 -81 35.5 -127.5t107.5 -46.5q73 0 136 38t106 101v344zM1151 604q0 334 -201 334q-100 0 -165.5 -90t-71.5 -244h438z" />
    <glyph glyph-name="ccedilla" unicode="&#xe7;" horiz-adv-x="823" 
d="M465 -27q-173 0 -283 146t-110 379q0 142 52 261t143.5 185t209.5 66q125 0 205 -72.5t80 -185.5q0 -52 -20 -81.5t-58 -29.5q-92 0 -92 92q0 45 10 82.5t12 63.5q-46 59 -151 59q-76 0 -135.5 -51t-93 -147.5t-33.5 -235.5q0 -118 38 -219t104 -158t144 -57
q152 0 261 186l55 -37q-66 -122 -153.5 -184t-184.5 -62zM635 -246q0 -108 -75.5 -153t-252.5 -45v69q221 0 221 99q0 38 -37.5 56.5t-124.5 18.5v217h74v-122q195 0 195 -140z" />
    <glyph glyph-name="egrave" unicode="&#xe8;" horiz-adv-x="846" 
d="M72 502q0 223 105.5 365.5t268.5 142.5q154 0 241 -111.5t87 -310.5v-53h-579q0 -220 71 -342.5t199 -122.5q88 0 151.5 43t122.5 147l58 -35q-68 -130 -153.5 -190t-190.5 -60q-176 0 -278.5 142t-102.5 385zM649 604q0 334 -207 334q-104 0 -172 -91t-73 -243h452z
M548 1114l-256 242q-63 54 -63 110q0 26 16 47t45 21q27 0 49 -16t54 -66l194 -307z" />
    <glyph glyph-name="eacute" unicode="&#xe9;" horiz-adv-x="846" 
d="M72 502q0 223 105.5 365.5t268.5 142.5q154 0 241 -111.5t87 -310.5v-53h-579q0 -220 71 -342.5t199 -122.5q88 0 151.5 43t122.5 147l58 -35q-68 -130 -153.5 -190t-190.5 -60q-176 0 -278.5 142t-102.5 385zM649 604q0 334 -207 334q-104 0 -172 -91t-73 -243h452z
M713 1468q0 -31 -13 -56t-48 -60l-8 -8t-250 -230l-37 31l65 104q142 231 169 258t61 27q29 0 45 -20t16 -46z" />
    <glyph glyph-name="ecircumflex" unicode="&#xea;" horiz-adv-x="846" 
d="M72 502q0 223 105.5 365.5t268.5 142.5q154 0 241 -111.5t87 -310.5v-53h-579q0 -220 71 -342.5t199 -122.5q88 0 151.5 43t122.5 147l58 -35q-68 -130 -153.5 -190t-190.5 -60q-176 0 -278.5 142t-102.5 385zM649 604q0 334 -207 334q-104 0 -172 -91t-73 -243h452z
M696 1147l-45 -25l-217 262l-213 -262l-45 25l176 323q14 22 33 38t53 16t51 -14.5t31 -34.5z" />
    <glyph glyph-name="edieresis" unicode="&#xeb;" horiz-adv-x="846" 
d="M72 502q0 223 105.5 365.5t268.5 142.5q154 0 241 -111.5t87 -310.5v-53h-579q0 -220 71 -342.5t199 -122.5q88 0 151.5 43t122.5 147l58 -35q-68 -130 -153.5 -190t-190.5 -60q-176 0 -278.5 142t-102.5 385zM649 604q0 334 -207 334q-104 0 -172 -91t-73 -243h452z
M353 1370q0 -42 -23 -71t-65 -29t-65 29t-23 71q0 43 23 73t65 30t65 -30t23 -73zM719 1370q0 -42 -23 -71t-65 -29t-65 29t-23 71q0 43 23 73t65 30t65 -30t23 -73z" />
    <glyph glyph-name="igrave" unicode="&#xec;" horiz-adv-x="512" 
d="M80 0v61q61 5 81 14t30 32.5t10 54.5v614q0 69 -43 107q-38 30 -113 30v64l260 18l12 -14v-807q0 -47 27 -74.5t96 -38.5v-61h-360zM307 1114l-256 242q-63 54 -63 110q0 26 16 47t45 21q27 0 49 -16t54 -66l194 -307z" />
    <glyph glyph-name="iacute" unicode="&#xed;" horiz-adv-x="512" 
d="M80 0v61q61 5 81 14t30 32.5t10 54.5v614q0 69 -43 107q-38 30 -113 30v64l260 18l12 -14v-807q0 -47 27 -74.5t96 -38.5v-61h-360zM524 1468q0 -31 -13 -56t-48 -60l-8 -8t-250 -230l-37 31l65 104q142 231 169 258t61 27q29 0 45 -20t16 -46z" />
    <glyph glyph-name="icircumflex" unicode="&#xee;" horiz-adv-x="512" 
d="M80 0v61q61 5 81 14t30 32.5t10 54.5v614q0 69 -43 107q-38 30 -113 30v64l260 18l12 -14v-807q0 -47 27 -74.5t96 -38.5v-61h-360zM489 1147l-45 -25l-217 262l-213 -262l-45 25l176 323q14 22 33 38t53 16t51 -14.5t31 -34.5z" />
    <glyph glyph-name="idieresis" unicode="&#xef;" horiz-adv-x="512" 
d="M80 0v61q61 5 81 14t30 32.5t10 54.5v614q0 69 -43 107q-38 30 -113 30v64l260 18l12 -14v-807q0 -47 27 -74.5t96 -38.5v-61h-360zM144 1370q0 -42 -23 -71t-65 -29t-65 29t-23 71q0 43 23 73t65 30t65 -30t23 -73zM510 1370q0 -42 -23 -71t-65 -29t-65 29t-23 71
q0 43 23 73t65 30t65 -30t23 -73z" />
    <glyph glyph-name="eth" unicode="&#xf0;" horiz-adv-x="973" 
d="M903 600q0 -288 -114 -459.5t-312 -171.5q-106 0 -201.5 66t-150.5 182t-55 262q0 143 52.5 255t147.5 173.5t215 61.5q79 0 151.5 -43.5t108.5 -108.5l7 2q-13 119 -60.5 232.5t-142.5 238.5l-262 -135l-45 72l258 133q-57 76 -176 151l53 50q41 -20 113.5 -74.5
t95.5 -81.5l225 119l45 -70l-213 -115q134 -154 197 -333t63 -406zM770 516q0 161 -78.5 271t-202.5 110q-135 0 -212.5 -105.5t-77.5 -293.5q0 -220 73.5 -337.5t214.5 -117.5q132 0 207.5 129.5t75.5 343.5z" />
    <glyph glyph-name="ntilde" unicode="&#xf1;" horiz-adv-x="1051" 
d="M604 0v61q61 5 90 13t43.5 30.5t14.5 57.5v510q0 113 -49 178t-132 65q-56 0 -110 -25.5t-94 -65t-50 -70.5v-582q0 -34 15 -55t44 -34.5t87 -21.5v-61h-383v61q79 7 100 30.5t21 70.5v620q0 60 -29.5 95.5t-101.5 35.5v64l235 18l12 -14v-135h5q78 91 152.5 128.5
t152.5 37.5q113 0 178 -85.5t65 -246.5v-510q0 -33 12 -55t36 -33t77 -21v-61h-391zM841 1460q-31 -103 -84.5 -158t-120.5 -55q-43 0 -74.5 15.5t-58.5 34t-53 34t-57 15.5q-34 0 -57.5 -24t-63.5 -105l-53 22q38 94 64.5 132.5t59 60.5t74.5 22q41 0 73 -15.5t59 -34.5
t51.5 -34.5t50.5 -15.5q46 0 76.5 26.5t62.5 102.5z" />
    <glyph glyph-name="ograve" unicode="&#xf2;" horiz-adv-x="969" 
d="M897 504q0 -154 -51.5 -276t-147 -190.5t-221.5 -68.5q-110 0 -204 67t-147.5 186t-53.5 265q0 235 116.5 379t305.5 144q179 0 291 -140.5t112 -365.5zM766 502q0 203 -73.5 319.5t-203.5 116.5q-139 0 -213.5 -118t-74.5 -314q0 -210 77.5 -336.5t210.5 -126.5
q128 0 202.5 126.5t74.5 332.5zM581 1114l-256 242q-63 54 -63 110q0 26 16 47t45 21q27 0 49 -16t54 -66l194 -307z" />
    <glyph glyph-name="oacute" unicode="&#xf3;" horiz-adv-x="969" 
d="M897 504q0 -154 -51.5 -276t-147 -190.5t-221.5 -68.5q-110 0 -204 67t-147.5 186t-53.5 265q0 235 116.5 379t305.5 144q179 0 291 -140.5t112 -365.5zM766 502q0 203 -73.5 319.5t-203.5 116.5q-139 0 -213.5 -118t-74.5 -314q0 -210 77.5 -336.5t210.5 -126.5
q128 0 202.5 126.5t74.5 332.5zM749 1468q0 -31 -13 -56t-48 -60l-8 -8t-250 -230l-37 31l65 104q142 231 169 258t61 27q29 0 45 -20t16 -46z" />
    <glyph glyph-name="ocircumflex" unicode="&#xf4;" horiz-adv-x="969" 
d="M897 504q0 -154 -51.5 -276t-147 -190.5t-221.5 -68.5q-110 0 -204 67t-147.5 186t-53.5 265q0 235 116.5 379t305.5 144q179 0 291 -140.5t112 -365.5zM766 502q0 203 -73.5 319.5t-203.5 116.5q-139 0 -213.5 -118t-74.5 -314q0 -210 77.5 -336.5t210.5 -126.5
q128 0 202.5 126.5t74.5 332.5zM745 1147l-45 -25l-217 262l-213 -262l-45 25l176 323q14 22 33 38t53 16t51 -14.5t31 -34.5z" />
    <glyph glyph-name="otilde" unicode="&#xf5;" horiz-adv-x="969" 
d="M897 504q0 -154 -51.5 -276t-147 -190.5t-221.5 -68.5q-110 0 -204 67t-147.5 186t-53.5 265q0 235 116.5 379t305.5 144q179 0 291 -140.5t112 -365.5zM766 502q0 203 -73.5 319.5t-203.5 116.5q-139 0 -213.5 -118t-74.5 -314q0 -210 77.5 -336.5t210.5 -126.5
q128 0 202.5 126.5t74.5 332.5zM796 1460q-31 -103 -84.5 -158t-120.5 -55q-43 0 -74.5 15.5t-58.5 34t-53 34t-57 15.5q-34 0 -57.5 -24t-63.5 -105l-53 22q38 94 64.5 132.5t59 60.5t74.5 22q41 0 73 -15.5t59 -34.5t51.5 -34.5t50.5 -15.5q46 0 76.5 26.5t62.5 102.5z
" />
    <glyph glyph-name="odieresis" unicode="&#xf6;" horiz-adv-x="969" 
d="M897 504q0 -154 -51.5 -276t-147 -190.5t-221.5 -68.5q-110 0 -204 67t-147.5 186t-53.5 265q0 235 116.5 379t305.5 144q179 0 291 -140.5t112 -365.5zM766 502q0 203 -73.5 319.5t-203.5 116.5q-139 0 -213.5 -118t-74.5 -314q0 -210 77.5 -336.5t210.5 -126.5
q128 0 202.5 126.5t74.5 332.5zM391 1370q0 -42 -23 -71t-65 -29t-65 29t-23 71q0 43 23 73t65 30t65 -30t23 -73zM757 1370q0 -42 -23 -71t-65 -29t-65 29t-23 71q0 43 23 73t65 30t65 -30t23 -73z" />
    <glyph glyph-name="divide" unicode="&#xf7;" horiz-adv-x="1257" 
d="M743 961q0 -45 -32 -79t-80 -34t-80.5 33.5t-32.5 79.5q0 43 33.5 74.5t79.5 31.5t79 -31.5t33 -74.5zM133 500v106h991v-106h-991zM743 147q0 -44 -32.5 -76t-79.5 -32q-46 0 -79.5 31.5t-33.5 76.5q0 46 34 78.5t79 32.5q46 0 79 -33t33 -78z" />
    <glyph glyph-name="oslash" unicode="&#xf8;" horiz-adv-x="969" 
d="M897 504q0 -154 -51.5 -276t-147 -190.5t-221.5 -68.5q-137 0 -246 103l-94 -138l-51 41l98 146q-112 142 -112 366q0 235 116.5 379t305.5 144q138 0 239 -88l84 122l57 -36l-94 -136q117 -144 117 -368zM766 502q0 158 -51 274l-426 -622q76 -111 200 -111
q128 0 202.5 126.5t74.5 332.5zM201 506q0 -169 51 -287l426 623q-68 96 -189 96q-139 0 -213.5 -118t-74.5 -314z" />
    <glyph glyph-name="ugrave" unicode="&#xf9;" horiz-adv-x="1038" 
d="M729 -2l-14 14v129h-6q-51 -73 -129.5 -118.5t-159.5 -45.5q-113 0 -176.5 87.5t-63.5 240.5v481q0 45 -17.5 74t-49.5 38t-82 13v62l252 22l14 -14v-670q0 -105 47 -172t121 -67q55 0 104.5 22.5t89 58.5t56.5 72v568q0 38 -15 66.5t-42 38t-95 13.5v62l252 22l19 -14
v-788q0 -33 11 -59t30 -37.5t79 -16.5v-62zM567 1114l-256 242q-63 54 -63 110q0 26 16 47t45 21q27 0 49 -16t54 -66l194 -307z" />
    <glyph glyph-name="uacute" unicode="&#xfa;" horiz-adv-x="1038" 
d="M729 -2l-14 14v129h-6q-51 -73 -129.5 -118.5t-159.5 -45.5q-113 0 -176.5 87.5t-63.5 240.5v481q0 45 -17.5 74t-49.5 38t-82 13v62l252 22l14 -14v-670q0 -105 47 -172t121 -67q55 0 104.5 22.5t89 58.5t56.5 72v568q0 38 -15 66.5t-42 38t-95 13.5v62l252 22l19 -14
v-788q0 -33 11 -59t30 -37.5t79 -16.5v-62zM760 1468q0 -31 -13 -56t-48 -60l-8 -8t-250 -230l-37 31l65 104q142 231 169 258t61 27q29 0 45 -20t16 -46z" />
    <glyph glyph-name="ucircumflex" unicode="&#xfb;" horiz-adv-x="1038" 
d="M729 -2l-14 14v129h-6q-51 -73 -129.5 -118.5t-159.5 -45.5q-113 0 -176.5 87.5t-63.5 240.5v481q0 45 -17.5 74t-49.5 38t-82 13v62l252 22l14 -14v-670q0 -105 47 -172t121 -67q55 0 104.5 22.5t89 58.5t56.5 72v568q0 38 -15 66.5t-42 38t-95 13.5v62l252 22l19 -14
v-788q0 -33 11 -59t30 -37.5t79 -16.5v-62zM762 1147l-45 -25l-217 262l-213 -262l-45 25l176 323q14 22 33 38t53 16t51 -14.5t31 -34.5z" />
    <glyph glyph-name="udieresis" unicode="&#xfc;" horiz-adv-x="1038" 
d="M729 -2l-14 14v129h-6q-51 -73 -129.5 -118.5t-159.5 -45.5q-113 0 -176.5 87.5t-63.5 240.5v481q0 45 -17.5 74t-49.5 38t-82 13v62l252 22l14 -14v-670q0 -105 47 -172t121 -67q55 0 104.5 22.5t89 58.5t56.5 72v568q0 38 -15 66.5t-42 38t-95 13.5v62l252 22l19 -14
v-788q0 -33 11 -59t30 -37.5t79 -16.5v-62zM410 1370q0 -42 -23 -71t-65 -29t-65 29t-23 71q0 43 23 73t65 30t65 -30t23 -73zM776 1370q0 -42 -23 -71t-65 -29t-65 29t-23 71q0 43 23 73t65 30t65 -30t23 -73z" />
    <glyph glyph-name="yacute" unicode="&#xfd;" horiz-adv-x="907" 
d="M911 928q-57 -11 -84 -34t-51 -83q-48 -119 -111 -299q-102 -287 -157.5 -432t-125 -274.5t-130 -189.5t-133.5 -60q-57 0 -92 29t-35 73q0 33 22 58.5t54 25.5q75 0 104 -100q29 9 72.5 65t94.5 155t75 167q-117 331 -295 788q-20 43 -50 71t-83 36v59h354v-65
q-65 -4 -87 -12t-22 -21q0 -9 27 -92l219 -609q43 110 87.5 234.5t87 254t42.5 181.5t-121 68v61h338v-55zM709 1468q0 -31 -13 -56t-48 -60l-8 -8t-250 -230l-37 31l65 104q142 231 169 258t61 27q29 0 45 -20t16 -46z" />
    <glyph glyph-name="thorn" unicode="&#xfe;" horiz-adv-x="1018" 
d="M946 496q0 -146 -51 -267.5t-141 -190.5t-199 -69q-71 0 -138.5 19.5t-119.5 52.5v-305q0 -72 51 -90q19 -9 57.5 -17t61.5 -8v-65h-430v65q96 0 119.5 24t23.5 81v1601q0 79 -49 115q-21 16 -96 20l-31 2v64l281 20l12 -14v-651l6 -2q44 58 116 94.5t144 36.5
q178 0 280.5 -142t102.5 -374zM815 492q0 190 -77.5 306.5t-209.5 116.5q-65 0 -125 -28.5t-106 -79.5v-588q20 -76 88.5 -126t157.5 -50q121 0 196.5 121.5t75.5 327.5z" />
    <glyph glyph-name="ydieresis" unicode="&#xff;" horiz-adv-x="907" 
d="M911 928q-57 -11 -84 -34t-51 -83q-48 -119 -111 -299q-102 -287 -157.5 -432t-125 -274.5t-130 -189.5t-133.5 -60q-57 0 -92 29t-35 73q0 33 22 58.5t54 25.5q75 0 104 -100q29 9 72.5 65t94.5 155t75 167q-117 331 -295 788q-20 43 -50 71t-83 36v59h354v-65
q-65 -4 -87 -12t-22 -21q0 -9 27 -92l219 -609q43 110 87.5 234.5t87 254t42.5 181.5t-121 68v61h338v-55zM367 1370q0 -42 -23 -71t-65 -29t-65 29t-23 71q0 43 23 73t65 30t65 -30t23 -73zM733 1370q0 -42 -23 -71t-65 -29t-65 29t-23 71q0 43 23 73t65 30t65 -30t23 -73z
" />
    <glyph glyph-name="Amacron" unicode="&#x100;" horiz-adv-x="1274" 
d="M817 0v70q81 4 125.5 19.5t44.5 37.5q0 29 -14 68l-101 305h-493q-27 -67 -57.5 -153.5t-38 -121t-7.5 -67.5q0 -40 56 -63t145 -25v-70h-512v70q67 5 113 31t81.5 103t195.5 465t307 771h20q161 -483 426 -1225q24 -60 54.5 -90.5t71.5 -42.5t75 -12v-70h-492zM641 1163
l-227 -581h432zM389 1663v108h562v-108h-562z" />
    <glyph glyph-name="amacron" unicode="&#x101;" horiz-adv-x="881" 
d="M850 18q-73 -34 -125 -34q-115 0 -131 145h-4q-60 -74 -128 -113t-157 -39q-100 0 -162.5 69t-62.5 179q0 96 45.5 162.5t144.5 106.5l86 34l236 88v93q0 231 -162 231q-101 0 -160 -51q0 -25 6.5 -53.5t6.5 -63.5q0 -37 -24 -55.5t-56 -18.5q-31 0 -52.5 23t-21.5 63
q0 92 87 159t212 67q151 0 217 -78t66 -244l-6 -491q0 -41 7.5 -64t28.5 -39q30 -18 109 -18v-58zM592 551q-165 -50 -241 -89.5t-110 -90t-34 -129.5q0 -81 36.5 -127.5t108.5 -46.5q62 0 112 25t124 108zM170 1305v108h562v-108h-562z" />
    <glyph glyph-name="Abreve" unicode="&#x102;" horiz-adv-x="1274" 
d="M817 0v70q81 4 125.5 19.5t44.5 37.5q0 29 -14 68l-101 305h-493q-27 -67 -57.5 -153.5t-38 -121t-7.5 -67.5q0 -40 56 -63t145 -25v-70h-512v70q67 5 113 31t81.5 103t195.5 465t307 771h20q161 -483 426 -1225q24 -60 54.5 -90.5t71.5 -42.5t75 -12v-70h-492zM641 1163
l-227 -581h432zM973 1833q-26 -164 -98 -238.5t-207 -74.5t-208 76t-97 237l47 10q34 -106 90.5 -145t167.5 -39t167.5 39t90.5 145z" />
    <glyph glyph-name="abreve" unicode="&#x103;" horiz-adv-x="881" 
d="M850 18q-73 -34 -125 -34q-115 0 -131 145h-4q-60 -74 -128 -113t-157 -39q-100 0 -162.5 69t-62.5 179q0 96 45.5 162.5t144.5 106.5l86 34l236 88v93q0 231 -162 231q-101 0 -160 -51q0 -25 6.5 -53.5t6.5 -63.5q0 -37 -24 -55.5t-56 -18.5q-31 0 -52.5 23t-21.5 63
q0 92 87 159t212 67q151 0 217 -78t66 -244l-6 -491q0 -41 7.5 -64t28.5 -39q30 -18 109 -18v-58zM592 551q-165 -50 -241 -89.5t-110 -90t-34 -129.5q0 -81 36.5 -127.5t108.5 -46.5q62 0 112 25t124 108zM696 1477q-25 -175 -89 -265t-175 -90q-217 0 -264 355l47 10
q36 -130 86 -177.5t131 -47.5t130.5 47t86.5 178z" />
    <glyph glyph-name="Aogonek" unicode="&#x104;" horiz-adv-x="1274" 
d="M1075 0q-37 -44 -57.5 -101.5t-20.5 -111.5q0 -92 42 -126t153 -36v-69h-111q-96 0 -156.5 55t-60.5 141q0 141 146 248h-193v70q81 4 125.5 19.5t44.5 37.5q0 13 -4.5 33.5t-110.5 339.5h-493q-27 -67 -57.5 -153.5t-38 -121t-7.5 -67.5q0 -40 56 -63t145 -25v-70h-512
v70q67 5 113 31t81.5 103t195.5 465t307 771h20q161 -483 426 -1225q24 -60 54.5 -90.5t71.5 -42.5t75 -12v-70h-234zM641 1163l-227 -581h432z" />
    <glyph glyph-name="aogonek" unicode="&#x105;" horiz-adv-x="881" 
d="M651 -444q-96 0 -156.5 55t-60.5 141q0 163 193 279q-27 37 -33 98h-4q-60 -74 -128 -113t-157 -39q-100 0 -162.5 69t-62.5 179q0 96 45.5 162.5t144.5 106.5l86 34l236 88v93q0 231 -162 231q-101 0 -160 -51q0 -25 6.5 -53.5t6.5 -63.5q0 -37 -24 -55.5t-56 -18.5
q-31 0 -52.5 23t-21.5 63q0 92 87 159t212 67q151 0 217 -78t66 -244l-6 -491q0 -41 7.5 -64t28.5 -39q30 -18 109 -18v-58q-73 -34 -125 -34q-41 0 -74 22q-84 -94 -84 -219q0 -92 42 -126t153 -36v-69h-111zM592 551q-165 -50 -241 -89.5t-110 -90t-34 -129.5
q0 -81 36.5 -127.5t108.5 -46.5q62 0 112 25t124 108z" />
    <glyph glyph-name="Cacute" unicode="&#x106;" horiz-adv-x="1219" 
d="M1178 358q-77 -204 -197.5 -296.5t-294.5 -92.5q-168 0 -307 94t-217 261.5t-78 371.5q0 210 80.5 383t221 271t302.5 98q194 0 334 -102l33 73h65l10 -499h-71q-21 200 -117.5 324t-236.5 124q-133 0 -237.5 -81.5t-162 -233.5t-57.5 -351q0 -170 60.5 -317.5t167 -231
t239.5 -83.5q135 0 233.5 76t161.5 241zM571 1518l-29 38l205 199q80 81 103 97t51 16q26 0 44.5 -20.5t18.5 -49.5q0 -32 -16 -56t-72 -56z" />
    <glyph glyph-name="cacute" unicode="&#x107;" horiz-adv-x="823" 
d="M465 -27q-173 0 -283 146t-110 379q0 142 52 261t143.5 185t209.5 66q125 0 205 -72.5t80 -185.5q0 -52 -20 -81.5t-58 -29.5q-92 0 -92 92q0 45 10 82.5t12 63.5q-46 59 -151 59q-76 0 -135.5 -51t-93 -147.5t-33.5 -235.5q0 -118 38 -219t104 -158t144 -57
q152 0 261 186l55 -37q-66 -122 -153.5 -184t-184.5 -62zM692 1468q0 -31 -13 -56t-48 -60l-8 -8t-250 -230l-37 31l65 104q142 231 169 258t61 27q29 0 45 -20t16 -46z" />
    <glyph glyph-name="Ccircumflex" unicode="&#x108;" horiz-adv-x="1219" 
d="M1178 358q-77 -204 -197.5 -296.5t-294.5 -92.5q-168 0 -307 94t-217 261.5t-78 371.5q0 210 80.5 383t221 271t302.5 98q194 0 334 -102l33 73h65l10 -499h-71q-21 200 -117.5 324t-236.5 124q-133 0 -237.5 -81.5t-162 -233.5t-57.5 -351q0 -170 60.5 -317.5t167 -231
t239.5 -83.5q135 0 233.5 76t161.5 241zM987 1552l-45 -32l-258 200l-254 -200l-45 32l217 263q9 10 17 19.5t17.5 17t22 12t29.5 4.5q21 0 38.5 -8.5t30 -25t230.5 -282.5z" />
    <glyph glyph-name="ccircumflex" unicode="&#x109;" horiz-adv-x="823" 
d="M465 -27q-173 0 -283 146t-110 379q0 142 52 261t143.5 185t209.5 66q125 0 205 -72.5t80 -185.5q0 -52 -20 -81.5t-58 -29.5q-92 0 -92 92q0 45 10 82.5t12 63.5q-46 59 -151 59q-76 0 -135.5 -51t-93 -147.5t-33.5 -235.5q0 -118 38 -219t104 -158t144 -57
q152 0 261 186l55 -37q-66 -122 -153.5 -184t-184.5 -62zM713 1151l-45 -25l-217 262l-213 -262l-45 25l176 323q14 22 33 38t53 16t51 -14.5t31 -34.5z" />
    <glyph glyph-name="Cdotaccent" unicode="&#x10a;" horiz-adv-x="1219" 
d="M1178 358q-77 -204 -197.5 -296.5t-294.5 -92.5q-168 0 -307 94t-217 261.5t-78 371.5q0 210 80.5 383t221 271t302.5 98q194 0 334 -102l33 73h65l10 -499h-71q-21 200 -117.5 324t-236.5 124q-133 0 -237.5 -81.5t-162 -233.5t-57.5 -351q0 -170 60.5 -317.5t167 -231
t239.5 -83.5q135 0 233.5 76t161.5 241zM766 1749q0 -48 -23 -76.5t-61 -28.5q-35 0 -59.5 25t-24.5 73q0 47 22 76t62 29q42 0 63 -28t21 -70z" />
    <glyph glyph-name="cdotaccent" unicode="&#x10b;" horiz-adv-x="823" 
d="M465 -27q-173 0 -283 146t-110 379q0 142 52 261t143.5 185t209.5 66q125 0 205 -72.5t80 -185.5q0 -52 -20 -81.5t-58 -29.5q-92 0 -92 92q0 45 10 82.5t12 63.5q-46 59 -151 59q-76 0 -135.5 -51t-93 -147.5t-33.5 -235.5q0 -118 38 -219t104 -158t144 -57
q152 0 261 186l55 -37q-66 -122 -153.5 -184t-184.5 -62zM543 1391q0 -48 -23 -76.5t-61 -28.5q-35 0 -59.5 25t-24.5 73q0 47 22 76t62 29q42 0 63 -28t21 -70z" />
    <glyph glyph-name="Ccaron" unicode="&#x10c;" horiz-adv-x="1219" 
d="M1178 358q-77 -204 -197.5 -296.5t-294.5 -92.5q-168 0 -307 94t-217 261.5t-78 371.5q0 210 80.5 383t221 271t302.5 98q194 0 334 -102l33 73h65l10 -499h-71q-21 200 -117.5 324t-236.5 124q-133 0 -237.5 -81.5t-162 -233.5t-57.5 -351q0 -170 60.5 -317.5t167 -231
t239.5 -83.5q135 0 233.5 76t161.5 241zM674 1520q-14 0 -25.5 3t-21 9.5t-39.5 40.5l-217 262l45 33l254 -201l258 201l45 -33l-217 -266q-8 -9 -15.5 -18t-16.5 -16t-21 -11t-29 -4z" />
    <glyph glyph-name="ccaron" unicode="&#x10d;" horiz-adv-x="823" 
d="M465 -27q-173 0 -283 146t-110 379q0 142 52 261t143.5 185t209.5 66q125 0 205 -72.5t80 -185.5q0 -52 -20 -81.5t-58 -29.5q-92 0 -92 92q0 45 10 82.5t12 63.5q-46 59 -151 59q-76 0 -135.5 -51t-93 -147.5t-33.5 -235.5q0 -118 38 -219t104 -158t144 -57
q152 0 261 186l55 -37q-66 -122 -153.5 -184t-184.5 -62zM455 1124q-34 0 -53 16t-33 38l-176 323l45 23l213 -262l217 262l45 -23l-176 -327q-14 -20 -31 -35t-51 -15z" />
    <glyph glyph-name="Dcaron" unicode="&#x10e;" horiz-adv-x="1411" 
d="M1327 700q0 -204 -87.5 -361.5t-254.5 -248t-362 -90.5h-517v70h10q51 0 109 14q49 25 49 100v1033q0 39 -13 66t-59 47t-83 20v69h545q135 0 264.5 -55t216.5 -146.5t134.5 -223.5t47.5 -294zM1163 702q0 182 -71.5 329t-199 228.5t-286.5 81.5l-188 -4v-1095
q0 -91 52.5 -127.5t182.5 -36.5q244 0 377 164t133 460zM645 1520q-14 0 -25.5 3t-21 9.5t-39.5 40.5l-217 262l45 33l254 -201l258 201l45 -33l-217 -266q-8 -9 -15.5 -18t-16.5 -16t-21 -11t-29 -4z" />
    <glyph glyph-name="dcaron" unicode="&#x10f;" horiz-adv-x="1118" 
d="M741 -2l-16 14v92l-8 2q-111 -133 -260 -133q-112 0 -200 64t-136.5 181.5t-48.5 273.5q0 149 55.5 269t153 185.5t217.5 65.5q58 0 119.5 -18t103.5 -46v350q0 31 -6.5 58.5t-17.5 47t-29.5 32t-39.5 20t-69 12.5v60l260 20l19 -14v-1339q0 -56 30 -85.5t119 -29.5v-62z
M721 766q-28 82 -90.5 129t-141.5 47q-82 0 -147.5 -56.5t-102 -161t-36.5 -243.5q0 -116 36.5 -213t103 -151t153.5 -54q63 0 115.5 27t109.5 96v580zM1139 1380q0 -60 -20 -104.5t-60.5 -83.5t-140.5 -99l-31 49q83 52 113 80t44.5 59t16.5 76h-43q-44 0 -71 27.5
t-27 73.5q0 37 26.5 64.5t65.5 27.5q127 0 127 -170z" />
    <glyph glyph-name="Dcroat" unicode="&#x110;" horiz-adv-x="1411" 
d="M1327 700q0 -204 -87.5 -361.5t-254.5 -248t-362 -90.5h-517v70h10q51 0 109 14q49 25 49 100v523h-182v96h182v414q0 39 -13 66t-59 47t-83 20v69h545q135 0 264.5 -55t216.5 -146.5t134.5 -223.5t47.5 -294zM1163 702q0 182 -71.5 329t-199 228.5t-286.5 81.5l-188 -4
v-534h299v-96h-299v-465q0 -91 52.5 -127.5t182.5 -36.5q244 0 377 164t133 460z" />
    <glyph glyph-name="dcroat" unicode="&#x111;" horiz-adv-x="1018" 
d="M741 -2l-16 14v92l-8 2q-111 -133 -260 -133q-112 0 -200 64t-136.5 181.5t-48.5 273.5q0 149 55.5 269t153 185.5t217.5 65.5q58 0 119.5 -18t103.5 -46v230h-283v79h283v41q0 31 -6.5 58.5t-17.5 47t-29.5 32t-39.5 20t-69 12.5v60l260 20l19 -14v-277h196v-79h-196
v-983q0 -56 30 -85.5t119 -29.5v-62zM721 766q-28 82 -90.5 129t-141.5 47q-82 0 -147.5 -56.5t-102 -161t-36.5 -243.5q0 -116 36.5 -213t103 -151t153.5 -54q63 0 115.5 27t109.5 96v580z" />
    <glyph glyph-name="Emacron" unicode="&#x112;" horiz-adv-x="1237" 
d="M1155 0h-1063v70q110 10 131 18q51 21 51 100v1029q0 49 -19 73.5t-77 42t-84 17.5v69h979v-332h-63q-28 126 -76 185.5t-121 64.5q-74 6 -184 6h-211v-569h145q74 0 117 15.5t71 60t44 149.5h63v-538h-63q-3 66 -29 130.5t-71.5 84.5t-131.5 20h-145v-434
q0 -86 22 -121.5t78 -49t207 -13.5q126 0 183 15t86 51t61.5 109t54.5 153h72zM335 1663v108h562v-108h-562z" />
    <glyph glyph-name="emacron" unicode="&#x113;" horiz-adv-x="846" 
d="M72 502q0 223 105.5 365.5t268.5 142.5q154 0 241 -111.5t87 -310.5v-53h-579q0 -220 71 -342.5t199 -122.5q88 0 151.5 43t122.5 147l58 -35q-68 -130 -153.5 -190t-190.5 -60q-176 0 -278.5 142t-102.5 385zM649 604q0 334 -207 334q-104 0 -172 -91t-73 -243h452z
M167 1305v108h562v-108h-562z" />
    <glyph glyph-name="Ebreve" unicode="&#x114;" horiz-adv-x="1237" 
d="M1155 0h-1063v70q110 10 131 18q51 21 51 100v1029q0 49 -19 73.5t-77 42t-84 17.5v69h979v-332h-63q-28 126 -76 185.5t-121 64.5q-74 6 -184 6h-211v-569h145q74 0 117 15.5t71 60t44 149.5h63v-538h-63q-3 66 -29 130.5t-71.5 84.5t-131.5 20h-145v-434
q0 -86 22 -121.5t78 -49t207 -13.5q126 0 183 15t86 51t61.5 109t54.5 153h72zM932 1833q-26 -164 -98 -238.5t-207 -74.5t-208 76t-97 237l47 10q34 -106 90.5 -145t167.5 -39t167.5 39t90.5 145z" />
    <glyph glyph-name="ebreve" unicode="&#x115;" horiz-adv-x="846" 
d="M72 502q0 223 105.5 365.5t268.5 142.5q154 0 241 -111.5t87 -310.5v-53h-579q0 -220 71 -342.5t199 -122.5q88 0 151.5 43t122.5 147l58 -35q-68 -130 -153.5 -190t-190.5 -60q-176 0 -278.5 142t-102.5 385zM649 604q0 334 -207 334q-104 0 -172 -91t-73 -243h452z
M706 1477q-25 -175 -89 -265t-175 -90q-217 0 -264 355l47 10q36 -130 86 -177.5t131 -47.5t130.5 47t86.5 178z" />
    <glyph glyph-name="Edotaccent" unicode="&#x116;" horiz-adv-x="1237" 
d="M1155 0h-1063v70q110 10 131 18q51 21 51 100v1029q0 49 -19 73.5t-77 42t-84 17.5v69h979v-332h-63q-28 126 -76 185.5t-121 64.5q-74 6 -184 6h-211v-569h145q74 0 117 15.5t71 60t44 149.5h63v-538h-63q-3 66 -29 130.5t-71.5 84.5t-131.5 20h-145v-434
q0 -86 22 -121.5t78 -49t207 -13.5q126 0 183 15t86 51t61.5 109t54.5 153h72zM698 1749q0 -48 -23 -76.5t-61 -28.5q-35 0 -59.5 25t-24.5 73q0 47 22 76t62 29q42 0 63 -28t21 -70z" />
    <glyph glyph-name="edotaccent" unicode="&#x117;" horiz-adv-x="846" 
d="M72 502q0 223 105.5 365.5t268.5 142.5q154 0 241 -111.5t87 -310.5v-53h-579q0 -220 71 -342.5t199 -122.5q88 0 151.5 43t122.5 147l58 -35q-68 -130 -153.5 -190t-190.5 -60q-176 0 -278.5 142t-102.5 385zM649 604q0 334 -207 334q-104 0 -172 -91t-73 -243h452z
M524 1391q0 -48 -23 -76.5t-61 -28.5q-35 0 -59.5 25t-24.5 73q0 47 22 76t62 29q42 0 63 -28t21 -70z" />
    <glyph glyph-name="Eogonek" unicode="&#x118;" horiz-adv-x="1237" 
d="M967 -444q-97 0 -157 55t-60 141q0 141 145 248h-803v70q110 10 131 18q51 21 51 100v1029q0 49 -19 73.5t-77 42t-84 17.5v69h979v-332h-63q-28 126 -76 185.5t-121 64.5q-74 6 -184 6h-211v-569h145q74 0 117 15.5t71 60t44 149.5h63v-538h-63q-3 66 -29 130.5
t-71.5 84.5t-131.5 20h-145v-434q0 -86 22 -121.5t78 -49t207 -13.5q126 0 183 15t86 51t61.5 109t54.5 153h72l-27 -406h-194q-36 -44 -57 -101t-21 -112q0 -92 42 -126t152 -36v-69h-110z" />
    <glyph glyph-name="eogonek" unicode="&#x119;" horiz-adv-x="846" 
d="M72 502q0 223 105.5 365.5t268.5 142.5q154 0 241 -111.5t87 -310.5v-53h-579q0 -220 71 -342.5t199 -122.5q88 0 151.5 43t122.5 147l58 -35q-67 -127 -148 -186q-139 -100 -139 -252q0 -92 42 -126t153 -36v-69h-111q-96 0 -156.5 55t-60.5 141q0 122 141 230
q-26 -7 -65 -7q-176 0 -278.5 142t-102.5 385zM649 604q0 334 -207 334q-104 0 -172 -91t-73 -243h452z" />
    <glyph glyph-name="Ecaron" unicode="&#x11a;" horiz-adv-x="1237" 
d="M1155 0h-1063v70q110 10 131 18q51 21 51 100v1029q0 49 -19 73.5t-77 42t-84 17.5v69h979v-332h-63q-28 126 -76 185.5t-121 64.5q-74 6 -184 6h-211v-569h145q74 0 117 15.5t71 60t44 149.5h63v-538h-63q-3 66 -29 130.5t-71.5 84.5t-131.5 20h-145v-434
q0 -86 22 -121.5t78 -49t207 -13.5q126 0 183 15t86 51t61.5 109t54.5 153h72zM633 1520q-14 0 -25.5 3t-21 9.5t-39.5 40.5l-217 262l45 33l254 -201l258 201l45 -33l-217 -266q-8 -9 -15.5 -18t-16.5 -16t-21 -11t-29 -4z" />
    <glyph glyph-name="ecaron" unicode="&#x11b;" horiz-adv-x="846" 
d="M72 502q0 223 105.5 365.5t268.5 142.5q154 0 241 -111.5t87 -310.5v-53h-579q0 -220 71 -342.5t199 -122.5q88 0 151.5 43t122.5 147l58 -35q-68 -130 -153.5 -190t-190.5 -60q-176 0 -278.5 142t-102.5 385zM649 604q0 334 -207 334q-104 0 -172 -91t-73 -243h452z
M442 1124q-34 0 -53 16t-33 38l-176 323l45 23l213 -262l217 262l45 -23l-176 -327q-14 -20 -31 -35t-51 -15z" />
    <glyph glyph-name="Gcircumflex" unicode="&#x11c;" horiz-adv-x="1366" 
d="M1343 563q-75 -10 -105.5 -24t-45 -41.5t-14.5 -73.5v-187q0 -129 4 -165q-147 -60 -245 -81.5t-204 -21.5q-175 0 -326 95t-237 262.5t-86 371.5q0 209 86.5 382t238.5 270.5t332 97.5q210 0 353 -109l32 80h72l8 -485h-69q-38 213 -141 323.5t-267 110.5
q-142 0 -251.5 -80.5t-169.5 -233t-60 -356.5q0 -181 65 -329t185 -232t278 -84q156 0 258 82l3 32q7 60 7 157v77q0 47 -9 81.5t-44 49.5q-19 12 -73.5 21.5t-100.5 9.5v72h526v-72zM1010 1552l-45 -32l-258 200l-254 -200l-45 32l217 263q9 10 17 19.5t17.5 17t22 12
t29.5 4.5q21 0 38.5 -8.5t30 -25t230.5 -282.5z" />
    <glyph glyph-name="gcircumflex" unicode="&#x11d;" horiz-adv-x="918" 
d="M883 -106q0 -156 -117.5 -247t-333.5 -91q-187 0 -285 68t-98 198q0 100 74 166t201 78v8q-85 26 -125.5 65.5t-40.5 102.5q0 103 123 164v8q-81 42 -126.5 116.5t-45.5 163.5q0 143 88.5 230.5t222.5 87.5q71 0 151 -33h295v-80h-221v-8q35 -43 55.5 -98t20.5 -111
q0 -130 -83 -219.5t-210 -89.5h-94q-82 -32 -82 -103q0 -54 42 -80t136 -30l63 -3q165 -8 221 -22.5t92 -45.5t56.5 -80t20.5 -115zM596 686q0 115 -49.5 185.5t-132.5 70.5q-85 0 -130.5 -63.5t-45.5 -188.5q0 -109 49.5 -179.5t128.5 -70.5q84 0 132 69t48 177zM801 -133
q0 50 -14 83t-41 51.5t-102 27t-247 8.5q-125 -18 -184 -66.5t-59 -140.5q0 -97 80.5 -149t226.5 -52q166 0 253 61.5t87 176.5zM700 1147l-45 -25l-217 262l-213 -262l-45 25l176 323q14 22 33 38t53 16t51 -14.5t31 -34.5z" />
    <glyph glyph-name="Gbreve" unicode="&#x11e;" horiz-adv-x="1366" 
d="M1343 563q-75 -10 -105.5 -24t-45 -41.5t-14.5 -73.5v-187q0 -129 4 -165q-147 -60 -245 -81.5t-204 -21.5q-175 0 -326 95t-237 262.5t-86 371.5q0 209 86.5 382t238.5 270.5t332 97.5q210 0 353 -109l32 80h72l8 -485h-69q-38 213 -141 323.5t-267 110.5
q-142 0 -251.5 -80.5t-169.5 -233t-60 -356.5q0 -181 65 -329t185 -232t278 -84q156 0 258 82l3 32q7 60 7 157v77q0 47 -9 81.5t-44 49.5q-19 12 -73.5 21.5t-100.5 9.5v72h526v-72zM1018 1833q-26 -164 -98 -238.5t-207 -74.5t-208 76t-97 237l47 10q34 -106 90.5 -145
t167.5 -39t167.5 39t90.5 145z" />
    <glyph glyph-name="gbreve" unicode="&#x11f;" horiz-adv-x="918" 
d="M883 -106q0 -156 -117.5 -247t-333.5 -91q-187 0 -285 68t-98 198q0 100 74 166t201 78v8q-85 26 -125.5 65.5t-40.5 102.5q0 103 123 164v8q-81 42 -126.5 116.5t-45.5 163.5q0 143 88.5 230.5t222.5 87.5q71 0 151 -33h295v-80h-221v-8q35 -43 55.5 -98t20.5 -111
q0 -130 -83 -219.5t-210 -89.5h-94q-82 -32 -82 -103q0 -54 42 -80t136 -30l63 -3q165 -8 221 -22.5t92 -45.5t56.5 -80t20.5 -115zM596 686q0 115 -49.5 185.5t-132.5 70.5q-85 0 -130.5 -63.5t-45.5 -188.5q0 -109 49.5 -179.5t128.5 -70.5q84 0 132 69t48 177zM801 -133
q0 50 -14 83t-41 51.5t-102 27t-247 8.5q-125 -18 -184 -66.5t-59 -140.5q0 -97 80.5 -149t226.5 -52q166 0 253 61.5t87 176.5zM700 1477q-25 -175 -89 -265t-175 -90q-217 0 -264 355l47 10q36 -130 86 -177.5t131 -47.5t130.5 47t86.5 178z" />
    <glyph glyph-name="Gdotaccent" unicode="&#x120;" horiz-adv-x="1366" 
d="M1343 563q-75 -10 -105.5 -24t-45 -41.5t-14.5 -73.5v-187q0 -129 4 -165q-147 -60 -245 -81.5t-204 -21.5q-175 0 -326 95t-237 262.5t-86 371.5q0 209 86.5 382t238.5 270.5t332 97.5q210 0 353 -109l32 80h72l8 -485h-69q-38 213 -141 323.5t-267 110.5
q-142 0 -251.5 -80.5t-169.5 -233t-60 -356.5q0 -181 65 -329t185 -232t278 -84q156 0 258 82l3 32q7 60 7 157v77q0 47 -9 81.5t-44 49.5q-19 12 -73.5 21.5t-100.5 9.5v72h526v-72zM786 1749q0 -48 -23 -76.5t-61 -28.5q-35 0 -59.5 25t-24.5 73q0 47 22 76t62 29
q42 0 63 -28t21 -70z" />
    <glyph glyph-name="gdotaccent" unicode="&#x121;" horiz-adv-x="918" 
d="M883 -106q0 -156 -117.5 -247t-333.5 -91q-187 0 -285 68t-98 198q0 100 74 166t201 78v8q-85 26 -125.5 65.5t-40.5 102.5q0 103 123 164v8q-81 42 -126.5 116.5t-45.5 163.5q0 143 88.5 230.5t222.5 87.5q71 0 151 -33h295v-80h-221v-8q35 -43 55.5 -98t20.5 -111
q0 -130 -83 -219.5t-210 -89.5h-94q-82 -32 -82 -103q0 -54 42 -80t136 -30l63 -3q165 -8 221 -22.5t92 -45.5t56.5 -80t20.5 -115zM596 686q0 115 -49.5 185.5t-132.5 70.5q-85 0 -130.5 -63.5t-45.5 -188.5q0 -109 49.5 -179.5t128.5 -70.5q84 0 132 69t48 177zM801 -133
q0 50 -14 83t-41 51.5t-102 27t-247 8.5q-125 -18 -184 -66.5t-59 -140.5q0 -97 80.5 -149t226.5 -52q166 0 253 61.5t87 176.5zM500 1391q0 -48 -23 -76.5t-61 -28.5q-35 0 -59.5 25t-24.5 73q0 47 22 76t62 29q42 0 63 -28t21 -70z" />
    <glyph glyph-name="uni0122" unicode="&#x122;" horiz-adv-x="1366" 
d="M1343 563q-75 -10 -105.5 -24t-45 -41.5t-14.5 -73.5v-187q0 -129 4 -165q-147 -60 -245 -81.5t-204 -21.5q-175 0 -326 95t-237 262.5t-86 371.5q0 209 86.5 382t238.5 270.5t332 97.5q210 0 353 -109l32 80h72l8 -485h-69q-38 213 -141 323.5t-267 110.5
q-142 0 -251.5 -80.5t-169.5 -233t-60 -356.5q0 -181 65 -329t185 -232t278 -84q156 0 258 82l3 32q7 60 7 157v77q0 47 -9 81.5t-44 49.5q-19 12 -73.5 21.5t-100.5 9.5v72h526v-72zM831 -231q0 -101 -65 -157t-177 -56v55q85 6 123.5 35.5t38.5 97.5h-55q-46 0 -75.5 25
t-29.5 67q0 41 29 69.5t76 28.5q59 0 97 -47t38 -118z" />
    <glyph glyph-name="uni0123" unicode="&#x123;" horiz-adv-x="918" 
d="M883 -106q0 -156 -117.5 -247t-333.5 -91q-187 0 -285 68t-98 198q0 100 74 166t201 78v8q-85 26 -125.5 65.5t-40.5 102.5q0 103 123 164v8q-81 42 -126.5 116.5t-45.5 163.5q0 143 88.5 230.5t222.5 87.5q71 0 151 -33h295v-80h-221v-8q35 -43 55.5 -98t20.5 -111
q0 -130 -83 -219.5t-210 -89.5h-94q-82 -32 -82 -103q0 -54 42 -80t136 -30l63 -3q165 -8 221 -22.5t92 -45.5t56.5 -80t20.5 -115zM596 686q0 115 -49.5 185.5t-132.5 70.5q-85 0 -130.5 -63.5t-45.5 -188.5q0 -109 49.5 -179.5t128.5 -70.5q84 0 132 69t48 177zM801 -133
q0 50 -14 83t-41 51.5t-102 27t-247 8.5q-125 -18 -184 -66.5t-59 -140.5q0 -97 80.5 -149t226.5 -52q166 0 253 61.5t87 176.5zM303 1292q0 101 65 157t177 56v-55q-85 -6 -123.5 -35.5t-38.5 -97.5h55q46 0 75.5 -25t29.5 -67q0 -40 -29.5 -69.5t-75.5 -29.5q-59 0 -97 47
t-38 119z" />
    <glyph glyph-name="Hcircumflex" unicode="&#x124;" horiz-adv-x="1509" 
d="M930 0v70l27 2q93 6 114 28t21 84v514h-674v-501q0 -65 32 -92t123 -35v-70h-462v70l27 2q68 4 92 15.5t34 36.5t10 58v1035q0 41 -17.5 67.5t-63 43.5t-80.5 20v71h460v-69q-41 -3 -86.5 -17t-57 -37.5t-11.5 -68.5v-449h674v439q0 80 -52.5 102t-107.5 31v69h459v-69
q-46 -4 -88.5 -18.5t-55 -39.5t-12.5 -75v-1020q0 -39 9.5 -60t29.5 -37q42 -25 117 -30v-70h-461zM1055 1552l-45 -32l-258 200l-254 -200l-45 32l217 263q9 10 17 19.5t17.5 17t22 12t29.5 4.5q21 0 38.5 -8.5t30 -25t230.5 -282.5z" />
    <glyph glyph-name="hcircumflex" unicode="&#x125;" horiz-adv-x="1044" 
d="M602 0v61q81 8 96 13q47 16 47 88v510q0 110 -50.5 176.5t-131.5 66.5q-56 0 -109 -25.5t-93 -65t-50 -70.5v-582q0 -34 15 -55.5t43 -34.5t84 -21v-61h-381v61q71 5 97 29t26 72v1165q0 50 -18.5 78t-41.5 40.5t-96 18.5v64l258 20l14 -14v-688h4q136 166 306 166
q115 0 179 -89t64 -241v-512q0 -47 23.5 -71.5t99.5 -37.5v-61h-385zM827 1648l-45 -32l-258 200l-254 -200l-45 32l217 263q9 10 17 19.5t17.5 17t22 12t29.5 4.5q21 0 38.5 -8.5t30 -25t230.5 -282.5z" />
    <glyph glyph-name="Hbar" unicode="&#x126;" horiz-adv-x="1509" 
d="M930 0v70l27 2q93 6 114 28t21 84v514h-674v-501q0 -65 32 -92t123 -35v-70h-462v70l27 2q68 4 92 15.5t34 36.5t10 58v832h-161v82h161v121q0 41 -17.5 67.5t-63 43.5t-80.5 20v71h460v-69q-41 -3 -86.5 -17t-57 -37.5t-11.5 -68.5v-131h674v121q0 80 -52.5 102
t-107.5 31v69h459v-69q-46 -4 -88.5 -18.5t-55 -39.5t-12.5 -75v-121h162v-82h-162v-817q0 -39 9.5 -60t29.5 -37q42 -25 117 -30v-70h-461zM1092 778v236h-674v-236h674z" />
    <glyph glyph-name="hbar" unicode="&#x127;" horiz-adv-x="1044" 
d="M602 0v61q81 8 96 13q47 16 47 88v510q0 110 -50.5 176.5t-131.5 66.5q-56 0 -109 -25.5t-93 -65t-50 -70.5v-582q0 -34 15 -55.5t43 -34.5t84 -21v-61h-381v61q71 5 97 29t26 72v1016h-201v79h201v70q0 50 -18.5 78t-41.5 40.5t-96 18.5v64l258 20l14 -14v-277h289v-79
h-289v-332h4q136 166 306 166q115 0 179 -89t64 -241v-512q0 -47 23.5 -71.5t99.5 -37.5v-61h-385z" />
    <glyph glyph-name="Itilde" unicode="&#x128;" horiz-adv-x="692" 
d="M84 0v70q105 8 136.5 19.5t42.5 36.5t11 54v1039q0 40 -20.5 67t-73.5 44t-96 20v69h526v-69q-47 -3 -103.5 -18.5t-72.5 -41t-16 -61.5v-1034q0 -64 43.5 -91t148.5 -34v-70h-526zM659 1825q-31 -103 -84.5 -158t-120.5 -55q-43 0 -74.5 15.5t-58.5 34t-53 34t-57 15.5
q-34 0 -57.5 -24t-63.5 -105l-53 22q38 94 64.5 132.5t59 60.5t74.5 22q41 0 73 -15.5t59 -34.5t51.5 -34.5t50.5 -15.5q46 0 76.5 26.5t62.5 102.5z" />
    <glyph glyph-name="itilde" unicode="&#x129;" horiz-adv-x="512" 
d="M80 0v61q61 5 81 14t30 32.5t10 54.5v614q0 69 -43 107q-38 30 -113 30v64l260 18l12 -14v-807q0 -47 27 -74.5t96 -38.5v-61h-360zM549 1460q-31 -103 -84.5 -158t-120.5 -55q-43 0 -74.5 15.5t-58.5 34t-53 34t-57 15.5q-34 0 -57.5 -24t-63.5 -105l-53 22
q38 94 64.5 132.5t59 60.5t74.5 22q41 0 73 -15.5t59 -34.5t51.5 -34.5t50.5 -15.5q46 0 76.5 26.5t62.5 102.5z" />
    <glyph glyph-name="Imacron" unicode="&#x12a;" horiz-adv-x="692" 
d="M84 0v70q105 8 136.5 19.5t42.5 36.5t11 54v1039q0 40 -20.5 67t-73.5 44t-96 20v69h526v-69q-47 -3 -103.5 -18.5t-72.5 -41t-16 -61.5v-1034q0 -64 43.5 -91t148.5 -34v-70h-526zM67 1663v108h562v-108h-562z" />
    <glyph glyph-name="imacron" unicode="&#x12b;" horiz-adv-x="512" 
d="M80 0v61q61 5 81 14t30 32.5t10 54.5v614q0 69 -43 107q-38 30 -113 30v64l260 18l12 -14v-807q0 -47 27 -74.5t96 -38.5v-61h-360zM-41 1305v108h562v-108h-562z" />
    <glyph glyph-name="Ibreve" unicode="&#x12c;" horiz-adv-x="692" 
d="M84 0v70q105 8 136.5 19.5t42.5 36.5t11 54v1039q0 40 -20.5 67t-73.5 44t-96 20v69h526v-69q-47 -3 -103.5 -18.5t-72.5 -41t-16 -61.5v-1034q0 -64 43.5 -91t148.5 -34v-70h-526zM651 1833q-26 -164 -98 -238.5t-207 -74.5t-208 76t-97 237l47 10q34 -106 90.5 -145
t167.5 -39t167.5 39t90.5 145z" />
    <glyph glyph-name="ibreve" unicode="&#x12d;" horiz-adv-x="512" 
d="M80 0v61q61 5 81 14t30 32.5t10 54.5v614q0 69 -43 107q-38 30 -113 30v64l260 18l12 -14v-807q0 -47 27 -74.5t96 -38.5v-61h-360zM508 1477q-25 -175 -89 -265t-175 -90q-217 0 -264 355l47 10q36 -130 86 -177.5t131 -47.5t130.5 47t86.5 178z" />
    <glyph glyph-name="Iogonek" unicode="&#x12e;" horiz-adv-x="692" 
d="M410 -444q-97 0 -157 55t-60 141q0 141 145 248h-254v70q105 8 136.5 19.5t42.5 36.5t11 54v1039q0 40 -20.5 67t-73.5 44t-96 20v69h526v-69q-47 -3 -103.5 -18.5t-72.5 -41t-16 -61.5v-1034q0 -64 43.5 -91t148.5 -34v-70h-207q-37 -44 -57 -102t-20 -111
q0 -92 42 -126t152 -36v-69h-110z" />
    <glyph glyph-name="iogonek" unicode="&#x12f;" horiz-adv-x="512" 
d="M311 -444q-96 0 -156.5 55t-60.5 141q0 141 148 248h-162v61q61 5 81 14t30 32.5t10 54.5v614q0 69 -43 107q-38 30 -113 30v64l260 18l12 -14v-807q0 -47 27 -74.5t96 -38.5v-61h-133q-37 -40 -58.5 -97.5t-21.5 -115.5q0 -92 42 -126t153 -36v-69h-111zM336 1391
q0 -48 -23 -76.5t-61 -28.5q-35 0 -59.5 25t-24.5 73q0 47 22 76t62 29q42 0 63 -28t21 -70z" />
    <glyph glyph-name="Idotaccent" unicode="&#x130;" horiz-adv-x="692" 
d="M84 0v70q105 8 136.5 19.5t42.5 36.5t11 54v1039q0 40 -20.5 67t-73.5 44t-96 20v69h526v-69q-47 -3 -103.5 -18.5t-72.5 -41t-16 -61.5v-1034q0 -64 43.5 -91t148.5 -34v-70h-526zM432 1682q0 -48 -23 -76.5t-61 -28.5q-35 0 -59.5 25t-24.5 73q0 47 22 76t62 29
q42 0 63 -28t21 -70z" />
    <glyph glyph-name="dotlessi" unicode="&#x131;" horiz-adv-x="512" 
d="M80 0v61q61 5 81 14t30 32.5t10 54.5v614q0 69 -43 107q-38 30 -113 30v64l260 18l12 -14v-807q0 -47 27 -74.5t96 -38.5v-61h-360z" />
    <glyph glyph-name="IJ" unicode="&#x132;" horiz-adv-x="1614" 
d="M84 0v70q105 8 136.5 19.5t42.5 36.5t11 54v1039q0 40 -20.5 67t-73.5 44t-96 20v69h526v-69q-47 -3 -103.5 -18.5t-72.5 -41t-16 -61.5v-1034q0 -64 43.5 -91t148.5 -34v-70h-526zM1558 1350q-33 0 -88.5 -12.5t-72.5 -36t-17 -74.5v-836q0 -193 -98 -308.5t-262 -115.5
q-148 0 -234 90.5t-86 247.5q0 70 31 112t82 42q52 0 76 -29t24 -68q0 -30 -11.5 -57.5t-25.5 -55t-27.5 -56t-17.5 -60.5q33 -48 82.5 -74t108.5 -26q115 0 164 102t49 299v783q0 46 -24 74.5t-76.5 43.5t-94.5 15v69h518v-69z" />
    <glyph glyph-name="ij" unicode="&#x133;" horiz-adv-x="1014" 
d="M336 1391q0 -48 -23 -76.5t-61 -28.5q-35 0 -59.5 25t-24.5 73q0 47 22 76t62 29q42 0 63 -28t21 -70zM80 0v61q61 5 81 14t30 32.5t10 54.5v614q0 69 -43 107q-38 30 -113 30v64l260 18l12 -14v-807q0 -47 27 -74.5t96 -38.5v-61h-360zM840 -10q0 -131 -35.5 -229.5
t-98.5 -151.5t-143 -53q-59 0 -100 27.5t-41 70.5q0 31 18.5 52.5t48.5 21.5q68 0 113 -90q121 0 121 327v807q0 44 -17.5 78t-50.5 47t-98 16v64l272 18l11 -14v-991zM860 1391q0 -48 -23 -76.5t-61 -28.5q-35 0 -59.5 25t-24.5 73q0 47 22 76t62 29q42 0 63 -28t21 -70z
" />
    <glyph glyph-name="Jcircumflex" unicode="&#x134;" horiz-adv-x="922" 
d="M866 1350q-33 0 -88.5 -12.5t-72.5 -36t-17 -74.5v-836q0 -193 -98 -308.5t-262 -115.5q-148 0 -234 90.5t-86 247.5q0 70 31 112t82 42q52 0 76 -29t24 -68q0 -30 -11.5 -57.5t-25.5 -55t-27.5 -56t-17.5 -60.5q33 -48 82.5 -74t108.5 -26q115 0 164 102t49 299v783
q0 46 -24 74.5t-76.5 43.5t-94.5 15v69h518v-69zM913 1552l-45 -32l-258 200l-254 -200l-45 32l217 263q9 10 17 19.5t17.5 17t22 12t29.5 4.5q21 0 38.5 -8.5t30 -25t230.5 -282.5z" />
    <glyph glyph-name="jcircumflex" unicode="&#x135;" horiz-adv-x="502" 
d="M328 -10q0 -131 -35.5 -229.5t-98.5 -151.5t-143 -53q-59 0 -100 27.5t-41 70.5q0 31 18.5 52.5t48.5 21.5q68 0 113 -90q121 0 121 327v807q0 44 -17.5 78t-50.5 47t-98 16v64l272 18l11 -14v-991zM502 1147l-45 -25l-217 262l-213 -262l-45 25l176 323q14 22 33 38
t53 16t51 -14.5t31 -34.5z" />
    <glyph glyph-name="uni0136" unicode="&#x136;" horiz-adv-x="1257" 
d="M1024 0q-205 293 -598 719h-8v-522q0 -72 47 -103q10 -7 51 -14.5t70 -9.5v-70h-467v70q82 7 99.5 12t30 17t19 34.5t6.5 50.5v1033q0 72 -49 98q-70 35 -106 35v69h454v-69q-26 0 -69 -12t-58 -25t-21.5 -34.5t-6.5 -51.5v-496h8q217 197 343 346t126 219q0 24 -38 39
t-91 15v69h451v-69q-55 0 -100.5 -17.5t-72.5 -48.5q-181 -223 -481 -518q178 -186 368 -408l109 -129q72 -82 118 -116t128 -43v-70h-262zM856 -231q0 -101 -65 -157t-177 -56v55q85 6 123.5 35.5t38.5 97.5h-55q-46 0 -75.5 25t-29.5 67q0 41 29 69.5t76 28.5q59 0 97 -47
t38 -118z" />
    <glyph glyph-name="uni0137" unicode="&#x137;" horiz-adv-x="948" 
d="M311 469l291 319q51 56 51 84q0 35 -80 45l-43 5v61h357v-59q-60 -16 -103.5 -44t-99 -85t-180.5 -197q30 -36 66.5 -88.5t136.5 -214.5q74 -121 104.5 -161t55.5 -54t81 -19v-61h-203q-28 39 -93 151q-169 290 -228 365l-113 -117v-227q0 -34 15 -55.5t43 -34.5t84 -21
v-61h-379v61q47 4 71 12t37 31.5t13 57.5v1165q0 74 -43 111q-25 20 -103 24l-31 2v64l279 20l14 -14v-1065zM668 -231q0 -101 -65 -157t-177 -56v55q85 6 123.5 35.5t38.5 97.5h-55q-46 0 -75.5 25t-29.5 67q0 41 29 69.5t76 28.5q59 0 97 -47t38 -118z" />
    <glyph glyph-name="kgreenlandic" unicode="&#x138;" horiz-adv-x="954" 
d="M317 469l291 319q51 56 51 84q0 35 -79 45l-43 5v61h356v-59q-60 -16 -103.5 -44t-99 -85t-180.5 -197q30 -36 66.5 -88.5t136.5 -214.5q61 -100 96.5 -149t60 -64t84.5 -21v-61h-202q-27 38 -153 252q-117 198 -169 264l-113 -117v-227q0 -34 15 -55.5t43 -34.5t84 -21
v-61h-379v61q44 4 70 11.5t38.5 31t12.5 58.5v612q0 72 -31.5 105.5t-99.5 33.5v64l235 18l12 -14v-512z" />
    <glyph glyph-name="Lacute" unicode="&#x139;" horiz-adv-x="1114" 
d="M1083 0h-970v70q92 6 116.5 18t34.5 39.5t10 60.5v1022q0 49 -19.5 76t-66.5 44.5t-75 19.5v69h469v-69q-102 -10 -133 -36t-31 -93v-961q0 -101 13 -132.5t45.5 -43.5t133.5 -12q105 0 190 15.5t109 43.5q76 73 133 275h72zM354 1518l-29 38l205 199q80 81 103 97t51 16
q26 0 44.5 -20.5t18.5 -49.5q0 -32 -16 -56t-72 -56z" />
    <glyph glyph-name="lacute" unicode="&#x13a;" horiz-adv-x="506" 
d="M47 0v61q61 4 90.5 12.5t43.5 31t14 57.5v1159q0 47 -21.5 79.5t-55 45t-128.5 18.5v64l307 20l14 -14v-1360q0 -49 31 -75t115 -38v-61h-410zM151 1614l-29 38l205 199q80 81 103 97t51 16q26 0 44.5 -20.5t18.5 -49.5q0 -32 -16 -56t-72 -56z" />
    <glyph glyph-name="uni013B" unicode="&#x13b;" horiz-adv-x="1114" 
d="M1083 0h-970v70q92 6 116.5 18t34.5 39.5t10 60.5v1022q0 49 -19.5 76t-66.5 44.5t-75 19.5v69h469v-69q-102 -10 -133 -36t-31 -93v-961q0 -101 13 -132.5t45.5 -43.5t133.5 -12q105 0 190 15.5t109 43.5q76 73 133 275h72zM778 -231q0 -101 -65 -157t-177 -56v55
q85 6 123.5 35.5t38.5 97.5h-55q-46 0 -75.5 25t-29.5 67q0 41 29 69.5t76 28.5q59 0 97 -47t38 -118z" />
    <glyph glyph-name="uni013C" unicode="&#x13c;" horiz-adv-x="506" 
d="M47 0v61q61 4 90.5 12.5t43.5 31t14 57.5v1159q0 47 -21.5 79.5t-55 45t-128.5 18.5v64l307 20l14 -14v-1360q0 -49 31 -75t115 -38v-61h-410zM381 -231q0 -101 -65 -157t-177 -56v55q85 6 123.5 35.5t38.5 97.5h-55q-46 0 -75.5 25t-29.5 67q0 41 29 69.5t76 28.5
q59 0 97 -47t38 -118z" />
    <glyph glyph-name="Lcaron" unicode="&#x13d;" horiz-adv-x="1114" 
d="M1083 0h-970v70q92 6 116.5 18t34.5 39.5t10 60.5v1022q0 49 -19.5 76t-66.5 44.5t-75 19.5v69h469v-69q-102 -10 -133 -36t-31 -93v-961q0 -101 13 -132.5t45.5 -43.5t133.5 -12q105 0 190 15.5t109 43.5q76 73 133 275h72zM1010 1266q0 -60 -20 -104.5t-60.5 -83.5
t-140.5 -99l-31 49q83 52 113 80t44.5 59t16.5 76h-43q-44 0 -71 27.5t-27 73.5q0 37 26.5 64.5t65.5 27.5q127 0 127 -170z" />
    <glyph glyph-name="lcaron" unicode="&#x13e;" horiz-adv-x="592" 
d="M47 0v61q61 4 90.5 12.5t43.5 31t14 57.5v1159q0 47 -21.5 79.5t-55 45t-128.5 18.5v64l307 20l14 -14v-1360q0 -49 31 -75t115 -38v-61h-410zM612 1380q0 -60 -20 -104.5t-60.5 -83.5t-140.5 -99l-31 49q83 52 113 80t44.5 59t16.5 76h-43q-44 0 -71 27.5t-27 73.5
q0 37 26.5 64.5t65.5 27.5q127 0 127 -170z" />
    <glyph glyph-name="Ldot" unicode="&#x13f;" horiz-adv-x="1114" 
d="M1083 0h-970v70q92 6 116.5 18t34.5 39.5t10 60.5v1022q0 49 -19.5 76t-66.5 44.5t-75 19.5v69h469v-69q-102 -10 -133 -36t-31 -93v-961q0 -101 13 -132.5t45.5 -43.5t133.5 -12q105 0 190 15.5t109 43.5q76 73 133 275h72zM897 688q0 -46 -31 -76t-77 -30
q-45 0 -77 30.5t-32 75.5t32 77t77 32q46 0 77 -32.5t31 -76.5z" />
    <glyph glyph-name="ldot" unicode="&#x140;" horiz-adv-x="651" 
d="M47 0v61q61 4 90.5 12.5t43.5 31t14 57.5v1159q0 47 -21.5 79.5t-55 45t-128.5 18.5v64l307 20l14 -14v-1360q0 -49 31 -75t115 -38v-61h-410zM682 565q0 -46 -31 -76t-77 -30q-45 0 -77 30.5t-32 75.5t32 77t77 32q46 0 77 -32.5t31 -76.5z" />
    <glyph glyph-name="Lslash" unicode="&#x141;" horiz-adv-x="1114" 
d="M100 647l174 76v487q0 49 -19.5 76t-66.5 44.5t-75 19.5v69h469v-69q-102 -10 -133 -36t-31 -93v-437l256 113l33 -86l-289 -125v-426q0 -101 13 -132.5t45.5 -43.5t133.5 -12q105 0 190 15.5t109 43.5q76 73 133 275h72l-31 -406h-970v70q92 6 116.5 18t34.5 39.5
t10 60.5v437l-141 -60z" />
    <glyph glyph-name="lslash" unicode="&#x142;" horiz-adv-x="506" 
d="M47 0v61q61 4 90.5 12.5t43.5 31t14 57.5v452l-129 -55l-33 78l162 68v616q0 47 -21.5 79.5t-55 45t-128.5 18.5v64l307 20l14 -14v-780l121 51l33 -76l-154 -65v-490q0 -49 31 -75t115 -38v-61h-410z" />
    <glyph glyph-name="Nacute" unicode="&#x143;" horiz-adv-x="1479" 
d="M1434 1350q-40 0 -90 -11t-67.5 -27.5t-27.5 -44.5t-15 -87.5t-5 -132.5v-1063h-41l-828 1179v-764q0 -224 60 -284q17 -19 68 -32t108 -13v-70h-530v70q32 0 82 11t71.5 32t33 56t16.5 94.5t5 123.5v727q0 64 -24.5 114t-87 84t-127.5 40v67h319l789 -1122v737
q0 84 -6 143t-18.5 91.5t-35 47t-83.5 24.5t-87 10v69h521v-69zM631 1518l-29 38l205 199q80 81 103 97t51 16q26 0 44.5 -20.5t18.5 -49.5q0 -32 -16 -56t-72 -56z" />
    <glyph glyph-name="nacute" unicode="&#x144;" horiz-adv-x="1051" 
d="M604 0v61q61 5 90 13t43.5 30.5t14.5 57.5v510q0 113 -49 178t-132 65q-56 0 -110 -25.5t-94 -65t-50 -70.5v-582q0 -34 15 -55t44 -34.5t87 -21.5v-61h-383v61q79 7 100 30.5t21 70.5v620q0 60 -29.5 95.5t-101.5 35.5v64l235 18l12 -14v-135h5q78 91 152.5 128.5
t152.5 37.5q113 0 178 -85.5t65 -246.5v-510q0 -33 12 -55t36 -33t77 -21v-61h-391zM768 1468q0 -31 -13 -56t-48 -60l-8 -8t-250 -230l-37 31l65 104q142 231 169 258t61 27q29 0 45 -20t16 -46z" />
    <glyph glyph-name="uni0145" unicode="&#x145;" horiz-adv-x="1479" 
d="M1434 1350q-40 0 -90 -11t-67.5 -27.5t-27.5 -44.5t-15 -87.5t-5 -132.5v-1063h-41l-828 1179v-764q0 -224 60 -284q17 -19 68 -32t108 -13v-70h-530v70q32 0 82 11t71.5 32t33 56t16.5 94.5t5 123.5v727q0 64 -24.5 114t-87 84t-127.5 40v67h319l789 -1122v737
q0 84 -6 143t-18.5 91.5t-35 47t-83.5 24.5t-87 10v69h521v-69zM881 -231q0 -101 -65 -157t-177 -56v55q85 6 123.5 35.5t38.5 97.5h-55q-46 0 -75.5 25t-29.5 67q0 41 29 69.5t76 28.5q59 0 97 -47t38 -118z" />
    <glyph glyph-name="uni0146" unicode="&#x146;" horiz-adv-x="1051" 
d="M604 0v61q61 5 90 13t43.5 30.5t14.5 57.5v510q0 113 -49 178t-132 65q-56 0 -110 -25.5t-94 -65t-50 -70.5v-582q0 -34 15 -55t44 -34.5t87 -21.5v-61h-383v61q79 7 100 30.5t21 70.5v620q0 60 -29.5 95.5t-101.5 35.5v64l235 18l12 -14v-135h5q78 91 152.5 128.5
t152.5 37.5q113 0 178 -85.5t65 -246.5v-510q0 -33 12 -55t36 -33t77 -21v-61h-391zM674 -231q0 -101 -65 -157t-177 -56v55q85 6 123.5 35.5t38.5 97.5h-55q-46 0 -75.5 25t-29.5 67q0 41 29 69.5t76 28.5q59 0 97 -47t38 -118z" />
    <glyph glyph-name="Ncaron" unicode="&#x147;" horiz-adv-x="1479" 
d="M1434 1350q-40 0 -90 -11t-67.5 -27.5t-27.5 -44.5t-15 -87.5t-5 -132.5v-1063h-41l-828 1179v-764q0 -224 60 -284q17 -19 68 -32t108 -13v-70h-530v70q32 0 82 11t71.5 32t33 56t16.5 94.5t5 123.5v727q0 64 -24.5 114t-87 84t-127.5 40v67h319l789 -1122v737
q0 84 -6 143t-18.5 91.5t-35 47t-83.5 24.5t-87 10v69h521v-69zM758 1520q-14 0 -25.5 3t-21 9.5t-39.5 40.5l-217 262l45 33l254 -201l258 201l45 -33l-217 -266q-8 -9 -15.5 -18t-16.5 -16t-21 -11t-29 -4z" />
    <glyph glyph-name="ncaron" unicode="&#x148;" horiz-adv-x="1051" 
d="M604 0v61q61 5 90 13t43.5 30.5t14.5 57.5v510q0 113 -49 178t-132 65q-56 0 -110 -25.5t-94 -65t-50 -70.5v-582q0 -34 15 -55t44 -34.5t87 -21.5v-61h-383v61q79 7 100 30.5t21 70.5v620q0 60 -29.5 95.5t-101.5 35.5v64l235 18l12 -14v-135h5q78 91 152.5 128.5
t152.5 37.5q113 0 178 -85.5t65 -246.5v-510q0 -33 12 -55t36 -33t77 -21v-61h-391zM537 1124q-34 0 -53 16t-33 38l-176 323l45 23l213 -262l217 262l45 -23l-176 -327q-14 -20 -31 -35t-51 -15z" />
    <glyph glyph-name="napostrophe" unicode="&#x149;" horiz-adv-x="1059" 
d="M612 0v61q61 5 90 13t43.5 30.5t14.5 57.5v510q0 113 -49 178t-132 65q-56 0 -110 -25.5t-94 -65t-50 -70.5v-582q0 -34 15 -55t44 -34.5t87 -21.5v-61h-383v61q79 7 100 30.5t21 70.5v620q0 60 -29.5 95.5t-101.5 35.5v64l235 18l12 -14v-135h5q78 91 152.5 128.5
t152.5 37.5q113 0 178 -85.5t65 -246.5v-510q0 -33 12 -55t36 -33t77 -21v-61h-391zM215 1360q0 -60 -20 -104.5t-60.5 -83.5t-140.5 -99l-31 49q83 52 113 80t44.5 59t16.5 76h-43q-44 0 -71 27.5t-27 73.5q0 37 26.5 64.5t65.5 27.5q127 0 127 -170z" />
    <glyph glyph-name="Eng" unicode="&#x14a;" horiz-adv-x="1479" 
d="M1434 1350q-40 0 -90 -11t-67.5 -27.5t-27.5 -44.5t-15 -87.5t-5 -132.5v-1047q0 -212 -88 -328t-244 -116q-78 0 -126 31.5t-48 84.5q0 41 25.5 66.5t68.5 25.5q60 0 105 -74l28 -44q96 2 147.5 96t51.5 270l-789 1151v-764q0 -224 60 -284q17 -19 68 -32t108 -13v-70
h-530v70q32 0 82 11t71.5 32t33 56t16.5 94.5t5 123.5v727q0 64 -24.5 114t-87 84t-127.5 40v67h319l789 -1149v764q0 84 -6 143t-18.5 91.5t-35 47t-83.5 24.5t-87 10v69h521v-69z" />
    <glyph glyph-name="eng" unicode="&#x14b;" horiz-adv-x="1034" 
d="M317 172q0 -34 15 -55t44 -34.5t87 -21.5v-61h-383v61q79 7 100 30.5t21 70.5v620q0 60 -29.5 95.5t-101.5 35.5v64l235 18l12 -14v-135h5q78 91 152.5 128.5t152.5 37.5q113 0 178 -85.5t65 -246.5v-315l-4 -338q-4 -221 -80 -346t-200 -125q-59 0 -98 28t-39 70
q0 35 19.5 54.5t47.5 19.5q67 0 113 -95q50 7 75 49t36.5 132.5t11.5 387.5v470q0 114 -49.5 178.5t-131.5 64.5q-56 0 -110 -25.5t-94 -65t-50 -70.5v-582z" />
    <glyph glyph-name="Omacron" unicode="&#x14c;" horiz-adv-x="1407" 
d="M1323 705q0 -208 -79.5 -376t-225 -265t-311.5 -97q-181 0 -324 96t-221 269t-78 383q0 208 81 377t225 263.5t312 94.5q175 0 318 -94t223 -265t80 -386zM1159 707q0 315 -121 487t-336 172q-137 0 -238.5 -74t-158.5 -227t-57 -354q0 -303 119 -480.5t335 -177.5
t336.5 175t120.5 479zM421 1663v108h562v-108h-562z" />
    <glyph glyph-name="omacron" unicode="&#x14d;" horiz-adv-x="969" 
d="M897 504q0 -154 -51.5 -276t-147 -190.5t-221.5 -68.5q-110 0 -204 67t-147.5 186t-53.5 265q0 235 116.5 379t305.5 144q179 0 291 -140.5t112 -365.5zM766 502q0 203 -73.5 319.5t-203.5 116.5q-139 0 -213.5 -118t-74.5 -314q0 -210 77.5 -336.5t210.5 -126.5
q128 0 202.5 126.5t74.5 332.5zM206 1305v108h562v-108h-562z" />
    <glyph glyph-name="Obreve" unicode="&#x14e;" horiz-adv-x="1407" 
d="M1323 705q0 -208 -79.5 -376t-225 -265t-311.5 -97q-181 0 -324 96t-221 269t-78 383q0 208 81 377t225 263.5t312 94.5q175 0 318 -94t223 -265t80 -386zM1159 707q0 315 -121 487t-336 172q-137 0 -238.5 -74t-158.5 -227t-57 -354q0 -303 119 -480.5t335 -177.5
t336.5 175t120.5 479zM1007 1833q-26 -164 -98 -238.5t-207 -74.5t-208 76t-97 237l47 10q34 -106 90.5 -145t167.5 -39t167.5 39t90.5 145z" />
    <glyph glyph-name="obreve" unicode="&#x14f;" horiz-adv-x="969" 
d="M897 504q0 -154 -51.5 -276t-147 -190.5t-221.5 -68.5q-110 0 -204 67t-147.5 186t-53.5 265q0 235 116.5 379t305.5 144q179 0 291 -140.5t112 -365.5zM766 502q0 203 -73.5 319.5t-203.5 116.5q-139 0 -213.5 -118t-74.5 -314q0 -210 77.5 -336.5t210.5 -126.5
q128 0 202.5 126.5t74.5 332.5zM751 1477q-25 -175 -89 -265t-175 -90q-217 0 -264 355l47 10q36 -130 86 -177.5t131 -47.5t130.5 47t86.5 178z" />
    <glyph glyph-name="Ohungarumlaut" unicode="&#x150;" horiz-adv-x="1407" 
d="M1323 705q0 -208 -79.5 -376t-225 -265t-311.5 -97q-181 0 -324 96t-221 269t-78 383q0 208 81 377t225 263.5t312 94.5q175 0 318 -94t223 -265t80 -386zM1159 707q0 315 -121 487t-336 172q-137 0 -238.5 -74t-158.5 -227t-57 -354q0 -303 119 -480.5t335 -177.5
t336.5 175t120.5 479zM489 1518l-29 38q164 178 217 231t74 67t47 14t45 -20.5t19 -49.5q0 -32 -16 -56t-72 -56zM825 1518l-29 38l129 137q46 52 93 99t68 61.5t48 14.5q26 0 45 -20.5t19 -49.5q0 -32 -16 -56t-72 -56z" />
    <glyph glyph-name="ohungarumlaut" unicode="&#x151;" horiz-adv-x="969" 
d="M897 504q0 -154 -51.5 -276t-147 -190.5t-221.5 -68.5q-110 0 -204 67t-147.5 186t-53.5 265q0 235 116.5 379t305.5 144q179 0 291 -140.5t112 -365.5zM766 502q0 203 -73.5 319.5t-203.5 116.5q-139 0 -213.5 -118t-74.5 -314q0 -210 77.5 -336.5t210.5 -126.5
q128 0 202.5 126.5t74.5 332.5zM574 1468q0 -31 -16 -57.5t-46 -58.5q-4 -5 -9 -10l-228 -228l-39 27l103 190q40 74 71 121t48 63.5t48 18.5q29 0 48.5 -20t19.5 -46zM914 1468q0 -31 -16 -57.5t-46 -58.5q-4 -5 -9 -10l-228 -228l-39 27l103 190q40 74 71 121t48 63.5
t48 18.5q29 0 48.5 -20t19.5 -46z" />
    <glyph glyph-name="OE" unicode="&#x152;" horiz-adv-x="1784" 
d="M721 0q-128 0 -253 54t-209 146.5t-129.5 223t-45.5 299.5q0 209 85.5 367t242 243.5t352.5 85.5h858v-332h-66q-43 240 -170 250q-64 6 -159 6h-197v-569h129q60 0 94 16t56 64.5t32 144.5h64v-538h-64q-3 69 -22 130.5t-55 83t-105 21.5h-129v-434q0 -106 13.5 -135
t49.5 -39t150 -10t182.5 10t100 28t67.5 98.5t64 191.5h72l-25 -406h-983zM889 1333l-144 6q-244 0 -370.5 -158t-126.5 -460q0 -185 65 -332t184.5 -229t268.5 -82l98 5l25 -1v1251z" />
    <glyph glyph-name="oe" unicode="&#x153;" horiz-adv-x="1516" 
d="M877 516q2 -210 71.5 -328t192.5 -118q85 0 147 42t121 148l57 -35q-66 -130 -149 -190t-187 -60q-108 0 -190.5 58t-128.5 168q-46 -105 -133 -168.5t-213 -63.5q-110 0 -200.5 65.5t-141.5 185.5t-51 267q0 240 110.5 381.5t298.5 141.5q111 0 197.5 -57.5
t136.5 -166.5q48 104 126.5 164t180.5 60q151 0 236.5 -111t85.5 -311v-53h-567v-19zM745 502q0 215 -69 325.5t-197 110.5q-137 0 -207.5 -110.5t-70.5 -321.5q0 -220 72.5 -341.5t205.5 -121.5q128 0 197 121t69 338zM1319 604q0 334 -201 334q-102 0 -167.5 -90.5
t-71.5 -243.5h440z" />
    <glyph glyph-name="Racute" unicode="&#x154;" horiz-adv-x="1282" 
d="M1018 0q-229 362 -447 643h-153v-459q0 -48 14.5 -74t63.5 -33t100 -7v-70h-483v70q90 7 114 20t35.5 39.5t11.5 58.5v1037q0 91 -55 106q-49 15 -106 19v69h518q125 0 222 -40t150.5 -116t53.5 -182q0 -140 -80 -233t-266 -152l80 -105l108 -147l158 -223
q59 -82 117 -114t139 -37v-70h-295zM883 1061q0 133 -77 206.5t-216 73.5h-172v-614h125q145 0 242.5 93.5t97.5 240.5zM506 1518l-29 38l205 199q80 81 103 97t51 16q26 0 44.5 -20.5t18.5 -49.5q0 -32 -16 -56t-72 -56z" />
    <glyph glyph-name="racute" unicode="&#x155;" horiz-adv-x="705" 
d="M676 883q0 -47 -20 -74t-58 -27q-40 0 -58 21.5t-18 50.5q0 19 8 64q-64 -2 -119.5 -42.5t-93.5 -117.5v-586q0 -53 33.5 -79t114.5 -32v-61h-385v61q79 7 100 30.5t21 70.5v620q0 131 -131 131v64l235 18l12 -14v-135h5q65 87 123 124.5t118 37.5q53 0 83 -31t30 -94z
M643 1468q0 -31 -13 -56t-48 -60l-8 -8t-250 -230l-37 31l65 104q142 231 169 258t61 27q29 0 45 -20t16 -46z" />
    <glyph glyph-name="uni0156" unicode="&#x156;" horiz-adv-x="1282" 
d="M1018 0q-229 362 -447 643h-153v-459q0 -48 14.5 -74t63.5 -33t100 -7v-70h-483v70q90 7 114 20t35.5 39.5t11.5 58.5v1037q0 91 -55 106q-49 15 -106 19v69h518q125 0 222 -40t150.5 -116t53.5 -182q0 -140 -80 -233t-266 -152l80 -105l108 -147l158 -223
q59 -82 117 -114t139 -37v-70h-295zM883 1061q0 133 -77 206.5t-216 73.5h-172v-614h125q145 0 242.5 93.5t97.5 240.5zM860 -231q0 -101 -65 -157t-177 -56v55q85 6 123.5 35.5t38.5 97.5h-55q-46 0 -75.5 25t-29.5 67q0 41 29 69.5t76 28.5q59 0 97 -47t38 -118z" />
    <glyph glyph-name="uni0157" unicode="&#x157;" horiz-adv-x="705" 
d="M676 883q0 -47 -20 -74t-58 -27q-40 0 -58 21.5t-18 50.5q0 19 8 64q-64 -2 -119.5 -42.5t-93.5 -117.5v-586q0 -53 33.5 -79t114.5 -32v-61h-385v61q79 7 100 30.5t21 70.5v620q0 131 -131 131v64l235 18l12 -14v-135h5q65 87 123 124.5t118 37.5q53 0 83 -31t30 -94z
M397 -231q0 -101 -65 -157t-177 -56v55q85 6 123.5 35.5t38.5 97.5h-55q-46 0 -75.5 25t-29.5 67q0 41 29 69.5t76 28.5q59 0 97 -47t38 -118z" />
    <glyph glyph-name="Rcaron" unicode="&#x158;" horiz-adv-x="1282" 
d="M1018 0q-229 362 -447 643h-153v-459q0 -48 14.5 -74t63.5 -33t100 -7v-70h-483v70q90 7 114 20t35.5 39.5t11.5 58.5v1037q0 91 -55 106q-49 15 -106 19v69h518q125 0 222 -40t150.5 -116t53.5 -182q0 -140 -80 -233t-266 -152l80 -105l108 -147l158 -223
q59 -82 117 -114t139 -37v-70h-295zM883 1061q0 133 -77 206.5t-216 73.5h-172v-614h125q145 0 242.5 93.5t97.5 240.5zM614 1520q-14 0 -25.5 3t-21 9.5t-39.5 40.5l-217 262l45 33l254 -201l258 201l45 -33l-217 -266q-8 -9 -15.5 -18t-16.5 -16t-21 -11t-29 -4z" />
    <glyph glyph-name="rcaron" unicode="&#x159;" horiz-adv-x="705" 
d="M676 883q0 -47 -20 -74t-58 -27q-40 0 -58 21.5t-18 50.5q0 19 8 64q-64 -2 -119.5 -42.5t-93.5 -117.5v-586q0 -53 33.5 -79t114.5 -32v-61h-385v61q79 7 100 30.5t21 70.5v620q0 131 -131 131v64l235 18l12 -14v-135h5q65 87 123 124.5t118 37.5q53 0 83 -31t30 -94z
M399 1124q-34 0 -53 16t-33 38l-176 323l45 23l213 -262l217 262l45 -23l-176 -327q-14 -20 -31 -35t-51 -15z" />
    <glyph glyph-name="Sacute" unicode="&#x15a;" horiz-adv-x="1040" 
d="M958 399q0 -121 -55 -219t-151 -151.5t-213 -53.5q-187 0 -318 97l-31 -72h-67l-14 473h67q40 -218 132.5 -318t242.5 -100q139 0 207.5 74.5t68.5 206.5q0 187 -155 262q-56 27 -146 63q-151 60 -210.5 98.5t-97 84.5t-56.5 104.5t-19 132.5q0 100 49 184.5t132.5 133.5
t177.5 49q182 0 301 -100l33 71h65l8 -465h-69q-42 224 -124 318t-216 94q-102 0 -168 -64t-66 -165q0 -123 62 -192t267 -144q147 -54 218.5 -105.5t108 -124.5t36.5 -172zM414 1518l-29 38l205 199q80 81 103 97t51 16q26 0 44.5 -20.5t18.5 -49.5q0 -32 -16 -56t-72 -56z
" />
    <glyph glyph-name="sacute" unicode="&#x15b;" horiz-adv-x="774" 
d="M702 272q0 -136 -79.5 -215.5t-208.5 -79.5q-156 0 -244 93l-14 -68h-70l-10 328h65q13 -76 49 -139.5t91 -101.5t129 -38q91 0 143.5 47.5t52.5 132.5q0 76 -50.5 126t-184.5 102q-159 60 -216 125t-57 172q0 114 78 185t193 71q55 0 102 -15.5t72 -33.5l22 51h70
l16 -305h-67q-34 231 -213 231q-85 0 -131.5 -43t-46.5 -113q0 -51 18 -85.5t57 -61t148 -66.5q156 -57 221 -127t65 -172zM622 1468q0 -31 -13 -56t-48 -60l-8 -8t-250 -230l-37 31l65 104q142 231 169 258t61 27q29 0 45 -20t16 -46z" />
    <glyph glyph-name="Scircumflex" unicode="&#x15c;" horiz-adv-x="1040" 
d="M958 399q0 -121 -55 -219t-151 -151.5t-213 -53.5q-187 0 -318 97l-31 -72h-67l-14 473h67q40 -218 132.5 -318t242.5 -100q139 0 207.5 74.5t68.5 206.5q0 187 -155 262q-56 27 -146 63q-151 60 -210.5 98.5t-97 84.5t-56.5 104.5t-19 132.5q0 100 49 184.5t132.5 133.5
t177.5 49q182 0 301 -100l33 71h65l8 -465h-69q-42 224 -124 318t-216 94q-102 0 -168 -64t-66 -165q0 -123 62 -192t267 -144q147 -54 218.5 -105.5t108 -124.5t36.5 -172zM823 1552l-45 -32l-258 200l-254 -200l-45 32l217 263q9 10 17 19.5t17.5 17t22 12t29.5 4.5
q21 0 38.5 -8.5t30 -25t230.5 -282.5z" />
    <glyph glyph-name="scircumflex" unicode="&#x15d;" horiz-adv-x="774" 
d="M702 272q0 -136 -79.5 -215.5t-208.5 -79.5q-156 0 -244 93l-14 -68h-70l-10 328h65q13 -76 49 -139.5t91 -101.5t129 -38q91 0 143.5 47.5t52.5 132.5q0 76 -50.5 126t-184.5 102q-159 60 -216 125t-57 172q0 114 78 185t193 71q55 0 102 -15.5t72 -33.5l22 51h70
l16 -305h-67q-34 231 -213 231q-85 0 -131.5 -43t-46.5 -113q0 -51 18 -85.5t57 -61t148 -66.5q156 -57 221 -127t65 -172zM637 1147l-45 -25l-217 262l-213 -262l-45 25l176 323q14 22 33 38t53 16t51 -14.5t31 -34.5z" />
    <glyph glyph-name="Scedilla" unicode="&#x15e;" horiz-adv-x="1040" 
d="M958 399q0 -121 -55 -219t-151 -151.5t-213 -53.5q-187 0 -318 97l-31 -72h-67l-14 473h67q40 -218 132.5 -318t242.5 -100q139 0 207.5 74.5t68.5 206.5q0 187 -155 262q-56 27 -146 63q-151 60 -210.5 98.5t-97 84.5t-56.5 104.5t-19 132.5q0 100 49 184.5t132.5 133.5
t177.5 49q182 0 301 -100l33 71h65l8 -465h-69q-42 224 -124 318t-216 94q-102 0 -168 -64t-66 -165q0 -123 62 -192t267 -144q147 -54 218.5 -105.5t108 -124.5t36.5 -172zM709 -246q0 -108 -75.5 -153t-252.5 -45v69q221 0 221 99q0 38 -37.5 56.5t-124.5 18.5v217h74
v-122q195 0 195 -140z" />
    <glyph glyph-name="scedilla" unicode="&#x15f;" horiz-adv-x="774" 
d="M702 272q0 -136 -79.5 -215.5t-208.5 -79.5q-156 0 -244 93l-14 -68h-70l-10 328h65q13 -76 49 -139.5t91 -101.5t129 -38q91 0 143.5 47.5t52.5 132.5q0 76 -50.5 126t-184.5 102q-159 60 -216 125t-57 172q0 114 78 185t193 71q55 0 102 -15.5t72 -33.5l22 51h70
l16 -305h-67q-34 231 -213 231q-85 0 -131.5 -43t-46.5 -113q0 -51 18 -85.5t57 -61t148 -66.5q156 -57 221 -127t65 -172zM572 -246q0 -108 -75.5 -153t-252.5 -45v69q221 0 221 99q0 38 -37.5 56.5t-124.5 18.5v217h74v-122q195 0 195 -140z" />
    <glyph glyph-name="Scaron" unicode="&#x160;" horiz-adv-x="1040" 
d="M958 399q0 -121 -55 -219t-151 -151.5t-213 -53.5q-187 0 -318 97l-31 -72h-67l-14 473h67q40 -218 132.5 -318t242.5 -100q139 0 207.5 74.5t68.5 206.5q0 187 -155 262q-56 27 -146 63q-151 60 -210.5 98.5t-97 84.5t-56.5 104.5t-19 132.5q0 100 49 184.5t132.5 133.5
t177.5 49q182 0 301 -100l33 71h65l8 -465h-69q-42 224 -124 318t-216 94q-102 0 -168 -64t-66 -165q0 -123 62 -192t267 -144q147 -54 218.5 -105.5t108 -124.5t36.5 -172zM520 1520q-14 0 -25.5 3t-21 9.5t-39.5 40.5l-217 262l45 33l254 -201l258 201l45 -33l-217 -266
q-8 -9 -15.5 -18t-16.5 -16t-21 -11t-29 -4z" />
    <glyph glyph-name="scaron" unicode="&#x161;" horiz-adv-x="774" 
d="M702 272q0 -136 -79.5 -215.5t-208.5 -79.5q-156 0 -244 93l-14 -68h-70l-10 328h65q13 -76 49 -139.5t91 -101.5t129 -38q91 0 143.5 47.5t52.5 132.5q0 76 -50.5 126t-184.5 102q-159 60 -216 125t-57 172q0 114 78 185t193 71q55 0 102 -15.5t72 -33.5l22 51h70
l16 -305h-67q-34 231 -213 231q-85 0 -131.5 -43t-46.5 -113q0 -51 18 -85.5t57 -61t148 -66.5q156 -57 221 -127t65 -172zM381 1124q-34 0 -53 16t-33 38l-176 323l45 23l213 -262l217 262l45 -23l-176 -327q-14 -20 -31 -35t-51 -15z" />
    <glyph glyph-name="uni0162" unicode="&#x162;" horiz-adv-x="1200" 
d="M1114 1044q-8 119 -41 184.5t-96.5 92.5t-237.5 27h-67v-1145q0 -62 46.5 -95t168.5 -38v-70h-570v70q33 2 82.5 9.5t65.5 12.5q63 23 63 101v1155h-63q-117 0 -178.5 -10.5t-107.5 -52.5t-70.5 -110.5t-24.5 -130.5h-70v375h1172v-375h-72zM768 -246q0 -108 -75.5 -153
t-252.5 -45v69q221 0 221 99q0 38 -37.5 56.5t-124.5 18.5v217h74v-122q195 0 195 -140z" />
    <glyph glyph-name="uni0163" unicode="&#x163;" horiz-adv-x="594" 
d="M561 43q-120 -61 -207 -61q-83 0 -131.5 64.5t-48.5 182.5v672h-156v82h160v305h113v-305h244v-82h-242v-633q0 -101 31.5 -143.5t99.5 -42.5q59 0 137 18v-57zM537 -246q0 -108 -75.5 -153t-252.5 -45v69q221 0 221 99q0 38 -37.5 56.5t-124.5 18.5v217h74v-122
q195 0 195 -140z" />
    <glyph glyph-name="Tcaron" unicode="&#x164;" horiz-adv-x="1200" 
d="M1114 1044q-8 119 -41 184.5t-96.5 92.5t-237.5 27h-67v-1145q0 -62 46.5 -95t168.5 -38v-70h-570v70q33 2 82.5 9.5t65.5 12.5q63 23 63 101v1155h-63q-117 0 -178.5 -10.5t-107.5 -52.5t-70.5 -110.5t-24.5 -130.5h-70v375h1172v-375h-72zM600 1520q-14 0 -25.5 3
t-21 9.5t-39.5 40.5l-217 262l45 33l254 -201l258 201l45 -33l-217 -266q-8 -9 -15.5 -18t-16.5 -16t-21 -11t-29 -4z" />
    <glyph glyph-name="tcaron" unicode="&#x165;" horiz-adv-x="594" 
d="M561 43q-120 -61 -207 -61q-83 0 -131.5 64.5t-48.5 182.5v672h-156v82h160v305h113v-305h244v-82h-242v-633q0 -101 31.5 -143.5t99.5 -42.5q59 0 137 18v-57zM634 1462q0 -59 -20 -105t-63 -85.5t-138 -95.5l-31 49q89 55 118 83t42.5 59t14.5 73h-43q-46 0 -72.5 27.5
t-26.5 72.5q0 37 26.5 64.5t65.5 27.5q71 0 99 -45.5t28 -124.5z" />
    <glyph glyph-name="Tbar" unicode="&#x166;" horiz-adv-x="1200" 
d="M1114 1044q-8 119 -41 184.5t-96.5 92.5t-237.5 27h-67v-562h272v-86h-272v-497q0 -62 46.5 -95t168.5 -38v-70h-570v70q33 2 82.5 9.5t65.5 12.5q63 23 63 101v507h-272v86h272v562h-63q-117 0 -178.5 -10.5t-107.5 -52.5t-70.5 -110.5t-24.5 -130.5h-70v375h1172v-375
h-72z" />
    <glyph glyph-name="tbar" unicode="&#x167;" horiz-adv-x="594" 
d="M561 43q-120 -61 -207 -61q-83 0 -131.5 64.5t-48.5 182.5v258h-139v78h139v336h-156v82h160v305h113v-305h244v-82h-242v-336h205v-78h-205v-219q0 -101 31.5 -143.5t99.5 -42.5q59 0 137 18v-57z" />
    <glyph glyph-name="Utilde" unicode="&#x168;" horiz-adv-x="1432" 
d="M1391 1350q-141 -7 -173 -72.5t-32 -233.5v-659q0 -194 -125.5 -306t-345.5 -112q-216 0 -342.5 112.5t-126.5 297.5v837q0 47 -21.5 75t-65.5 43t-77 18v69h487v-69q-57 -5 -104 -18.5t-60.5 -39.5t-13.5 -67v-817q0 -160 88.5 -249t247.5 -89q180 0 275.5 85t95.5 242
v635q0 110 -17 178t-45 88q-66 47 -159 52v69h514v-69zM1046 1831q-31 -103 -84.5 -158t-120.5 -55q-43 0 -74.5 15.5t-58.5 34t-53 34t-57 15.5q-34 0 -57.5 -24t-63.5 -105l-53 22q38 94 64.5 132.5t59 60.5t74.5 22q41 0 73 -15.5t59 -34.5t51.5 -34.5t50.5 -15.5
q46 0 76.5 26.5t62.5 102.5z" />
    <glyph glyph-name="utilde" unicode="&#x169;" horiz-adv-x="1038" 
d="M729 -2l-14 14v129h-6q-51 -73 -129.5 -118.5t-159.5 -45.5q-113 0 -176.5 87.5t-63.5 240.5v481q0 45 -17.5 74t-49.5 38t-82 13v62l252 22l14 -14v-670q0 -105 47 -172t121 -67q55 0 104.5 22.5t89 58.5t56.5 72v568q0 38 -15 66.5t-42 38t-95 13.5v62l252 22l19 -14
v-788q0 -33 11 -59t30 -37.5t79 -16.5v-62zM821 1460q-31 -103 -84.5 -158t-120.5 -55q-43 0 -74.5 15.5t-58.5 34t-53 34t-57 15.5q-34 0 -57.5 -24t-63.5 -105l-53 22q38 94 64.5 132.5t59 60.5t74.5 22q41 0 73 -15.5t59 -34.5t51.5 -34.5t50.5 -15.5q46 0 76.5 26.5
t62.5 102.5z" />
    <glyph glyph-name="Umacron" unicode="&#x16a;" horiz-adv-x="1432" 
d="M1391 1350q-141 -7 -173 -72.5t-32 -233.5v-659q0 -194 -125.5 -306t-345.5 -112q-216 0 -342.5 112.5t-126.5 297.5v837q0 47 -21.5 75t-65.5 43t-77 18v69h487v-69q-57 -5 -104 -18.5t-60.5 -39.5t-13.5 -67v-817q0 -160 88.5 -249t247.5 -89q180 0 275.5 85t95.5 242
v635q0 110 -17 178t-45 88q-66 47 -159 52v69h514v-69zM444 1663v108h562v-108h-562z" />
    <glyph glyph-name="umacron" unicode="&#x16b;" horiz-adv-x="1038" 
d="M729 -2l-14 14v129h-6q-51 -73 -129.5 -118.5t-159.5 -45.5q-113 0 -176.5 87.5t-63.5 240.5v481q0 45 -17.5 74t-49.5 38t-82 13v62l252 22l14 -14v-670q0 -105 47 -172t121 -67q55 0 104.5 22.5t89 58.5t56.5 72v568q0 38 -15 66.5t-42 38t-95 13.5v62l252 22l19 -14
v-788q0 -33 11 -59t30 -37.5t79 -16.5v-62zM229 1305v108h562v-108h-562z" />
    <glyph glyph-name="Ubreve" unicode="&#x16c;" horiz-adv-x="1432" 
d="M1391 1350q-141 -7 -173 -72.5t-32 -233.5v-659q0 -194 -125.5 -306t-345.5 -112q-216 0 -342.5 112.5t-126.5 297.5v837q0 47 -21.5 75t-65.5 43t-77 18v69h487v-69q-57 -5 -104 -18.5t-60.5 -39.5t-13.5 -67v-817q0 -160 88.5 -249t247.5 -89q180 0 275.5 85t95.5 242
v635q0 110 -17 178t-45 88q-66 47 -159 52v69h514v-69zM1030 1833q-26 -164 -98 -238.5t-207 -74.5t-208 76t-97 237l47 10q34 -106 90.5 -145t167.5 -39t167.5 39t90.5 145z" />
    <glyph glyph-name="ubreve" unicode="&#x16d;" horiz-adv-x="1038" 
d="M729 -2l-14 14v129h-6q-51 -73 -129.5 -118.5t-159.5 -45.5q-113 0 -176.5 87.5t-63.5 240.5v481q0 45 -17.5 74t-49.5 38t-82 13v62l252 22l14 -14v-670q0 -105 47 -172t121 -67q55 0 104.5 22.5t89 58.5t56.5 72v568q0 38 -15 66.5t-42 38t-95 13.5v62l252 22l19 -14
v-788q0 -33 11 -59t30 -37.5t79 -16.5v-62zM760 1477q-25 -175 -89 -265t-175 -90q-217 0 -264 355l47 10q36 -130 86 -177.5t131 -47.5t130.5 47t86.5 178z" />
    <glyph glyph-name="Uring" unicode="&#x16e;" horiz-adv-x="1432" 
d="M1391 1350q-141 -7 -173 -72.5t-32 -233.5v-659q0 -194 -125.5 -306t-345.5 -112q-216 0 -342.5 112.5t-126.5 297.5v837q0 47 -21.5 75t-65.5 43t-77 18v69h487v-69q-57 -5 -104 -18.5t-60.5 -39.5t-13.5 -67v-817q0 -160 88.5 -249t247.5 -89q180 0 275.5 85t95.5 242
v635q0 110 -17 178t-45 88q-66 47 -159 52v69h514v-69zM971 1718q0 -98 -69.5 -158.5t-178.5 -60.5q-112 0 -180 60t-68 159q0 93 70.5 155t177.5 62q110 0 179 -60.5t69 -156.5zM854 1718q0 73 -35.5 115.5t-95.5 42.5q-63 0 -97 -42.5t-34 -115.5q0 -71 35 -114t96 -43
q65 0 98 44t33 113z" />
    <glyph glyph-name="uring" unicode="&#x16f;" horiz-adv-x="1038" 
d="M729 -2l-14 14v129h-6q-51 -73 -129.5 -118.5t-159.5 -45.5q-113 0 -176.5 87.5t-63.5 240.5v481q0 45 -17.5 74t-49.5 38t-82 13v62l252 22l14 -14v-670q0 -105 47 -172t121 -67q55 0 104.5 22.5t89 58.5t56.5 72v568q0 38 -15 66.5t-42 38t-95 13.5v62l252 22l19 -14
v-788q0 -33 11 -59t30 -37.5t79 -16.5v-62zM739 1337q0 -98 -69.5 -158.5t-178.5 -60.5q-112 0 -180 60t-68 159q0 93 70.5 155t177.5 62q110 0 179 -60.5t69 -156.5zM622 1337q0 73 -35.5 115.5t-95.5 42.5q-63 0 -97 -42.5t-34 -115.5q0 -71 35 -114t96 -43q65 0 98 44
t33 113z" />
    <glyph glyph-name="Uhungarumlaut" unicode="&#x170;" horiz-adv-x="1432" 
d="M1391 1350q-141 -7 -173 -72.5t-32 -233.5v-659q0 -194 -125.5 -306t-345.5 -112q-216 0 -342.5 112.5t-126.5 297.5v837q0 47 -21.5 75t-65.5 43t-77 18v69h487v-69q-57 -5 -104 -18.5t-60.5 -39.5t-13.5 -67v-817q0 -160 88.5 -249t247.5 -89q180 0 275.5 85t95.5 242
v635q0 110 -17 178t-45 88q-66 47 -159 52v69h514v-69zM528 1518l-29 38q164 178 217 231t74 67t47 14t45 -20.5t19 -49.5q0 -32 -16 -56t-72 -56zM864 1518l-29 38l129 137q46 52 93 99t68 61.5t48 14.5q26 0 45 -20.5t19 -49.5q0 -32 -16 -56t-72 -56z" />
    <glyph glyph-name="uhungarumlaut" unicode="&#x171;" horiz-adv-x="1038" 
d="M729 -2l-14 14v129h-6q-51 -73 -129.5 -118.5t-159.5 -45.5q-113 0 -176.5 87.5t-63.5 240.5v481q0 45 -17.5 74t-49.5 38t-82 13v62l252 22l14 -14v-670q0 -105 47 -172t121 -67q55 0 104.5 22.5t89 58.5t56.5 72v568q0 38 -15 66.5t-42 38t-95 13.5v62l252 22l19 -14
v-788q0 -33 11 -59t30 -37.5t79 -16.5v-62zM563 1468q0 -31 -16 -57.5t-46 -58.5q-4 -5 -9 -10l-228 -228l-39 27l103 190q40 74 71 121t48 63.5t48 18.5q29 0 48.5 -20t19.5 -46zM903 1468q0 -31 -16 -57.5t-46 -58.5q-4 -5 -9 -10l-228 -228l-39 27l103 190q40 74 71 121
t48 63.5t48 18.5q29 0 48.5 -20t19.5 -46z" />
    <glyph glyph-name="Uogonek" unicode="&#x172;" horiz-adv-x="1432" 
d="M811 -444q-96 0 -156.5 55t-60.5 141q0 121 106 215q-207 4 -330.5 116t-123.5 294v837q0 47 -21.5 75t-65.5 43t-77 18v69h487v-69q-57 -5 -104 -18.5t-60.5 -39.5t-13.5 -67v-817q0 -160 88.5 -249t247.5 -89q180 0 275.5 85t95.5 242v635q0 110 -17 178t-45 88
q-66 47 -159 52v69h514v-69q-141 -7 -173 -72.5t-32 -233.5v-659q0 -178 -106.5 -287.5t-297.5 -126.5q-55 -88 -55 -184q0 -92 42 -126t153 -36v-69h-111z" />
    <glyph glyph-name="uogonek" unicode="&#x173;" horiz-adv-x="1038" 
d="M760 -444q-96 0 -156.5 55t-60.5 141q0 153 172 266v123h-6q-51 -73 -129.5 -118.5t-159.5 -45.5q-113 0 -176.5 87.5t-63.5 240.5v481q0 45 -17.5 74t-49.5 38t-82 13v62l252 22l14 -14v-670q0 -105 47 -172t121 -67q55 0 104.5 22.5t89 58.5t56.5 72v568q0 38 -15 66.5
t-42 38t-95 13.5v62l252 22l19 -14v-788q0 -33 11 -59t30 -37.5t79 -16.5v-62l-200 -18q-78 -95 -78 -213q0 -92 42 -126t152 -36v-69h-110z" />
    <glyph glyph-name="Wcircumflex" unicode="&#x174;" horiz-adv-x="1923" 
d="M1909 1352q-79 -17 -121 -54.5t-66 -111.5l-99 -332l-263 -872h-31l-377 1146l-411 -1146h-35q-92 364 -195.5 739t-144.5 510q-20 63 -58 88.5t-94 30.5v69h430v-69q-66 0 -101.5 -6.5t-35.5 -34.5q0 -25 26 -124.5t240 -875.5l394 1080h39l364 -1092q108 336 185 618.5
t77 346.5q0 41 -39.5 62.5t-124.5 27.5v67h441v-67zM1268 1552l-45 -32l-258 200l-254 -200l-45 32l217 263q9 10 17 19.5t17.5 17t22 12t29.5 4.5q21 0 38.5 -8.5t30 -25t230.5 -282.5z" />
    <glyph glyph-name="wcircumflex" unicode="&#x175;" horiz-adv-x="1419" 
d="M1419 922q-48 -5 -79 -31t-54 -88q-76 -209 -201 -584q-40 -127 -65 -225h-29l-286 780l-289 -780h-27q-183 587 -264 823q-19 54 -48.5 77t-76.5 30v59h342v-65q-100 0 -100 -33q0 -29 15 -84.5t47 -160t132 -417.5l271 731h45l270 -729q23 63 72 212t81.5 257t32.5 168
q0 54 -102 60v61h313v-61zM969 1147l-45 -25l-217 262l-213 -262l-45 25l176 323q14 22 33 38t53 16t51 -14.5t31 -34.5z" />
    <glyph glyph-name="Ycircumflex" unicode="&#x176;" horiz-adv-x="1096" 
d="M1130 1350q-48 -9 -81.5 -31t-63.5 -68q-53 -79 -104 -164.5t-146.5 -263t-110 -217t-14.5 -80.5v-321q0 -66 46.5 -96.5t164.5 -38.5v-70h-559v70q144 10 174.5 34.5t30.5 90.5v327q0 40 -17.5 80t-35.5 80q-166 338 -193 390t-49.5 91.5t-58.5 88t-74.5 72t-73.5 26.5
v69h451v-69l-48 -4q-89 -7 -89 -41q0 -26 90 -216.5t200 -406.5q299 551 299 606q0 25 -31.5 40.5t-111.5 21.5v69h405v-69zM852 1552l-45 -32l-258 200l-254 -200l-45 32l217 263q9 10 17 19.5t17.5 17t22 12t29.5 4.5q21 0 38.5 -8.5t30 -25t230.5 -282.5z" />
    <glyph glyph-name="ycircumflex" unicode="&#x177;" horiz-adv-x="907" 
d="M911 928q-57 -11 -84 -34t-51 -83q-48 -119 -111 -299q-102 -287 -157.5 -432t-125 -274.5t-130 -189.5t-133.5 -60q-57 0 -92 29t-35 73q0 33 22 58.5t54 25.5q75 0 104 -100q29 9 72.5 65t94.5 155t75 167q-117 331 -295 788q-20 43 -50 71t-83 36v59h354v-65
q-65 -4 -87 -12t-22 -21q0 -9 27 -92l219 -609q43 110 87.5 234.5t87 254t42.5 181.5t-121 68v61h338v-55zM735 1147l-45 -25l-217 262l-213 -262l-45 25l176 323q14 22 33 38t53 16t51 -14.5t31 -34.5z" />
    <glyph glyph-name="Ydieresis" unicode="&#x178;" horiz-adv-x="1096" 
d="M1130 1350q-48 -9 -81.5 -31t-63.5 -68q-53 -79 -104 -164.5t-146.5 -263t-110 -217t-14.5 -80.5v-321q0 -66 46.5 -96.5t164.5 -38.5v-70h-559v70q144 10 174.5 34.5t30.5 90.5v327q0 40 -17.5 80t-35.5 80q-166 338 -193 390t-49.5 91.5t-58.5 88t-74.5 72t-73.5 26.5
v69h451v-69l-48 -4q-89 -7 -89 -41q0 -26 90 -216.5t200 -406.5q299 551 299 606q0 25 -31.5 40.5t-111.5 21.5v69h405v-69zM434 1745q0 -42 -23 -71t-65 -29t-65 29t-23 71q0 43 23 72.5t65 29.5t65 -29.5t23 -72.5zM842 1745q0 -42 -23 -71t-65 -29t-65 29t-23 71
q0 43 23 72.5t65 29.5t65 -29.5t23 -72.5z" />
    <glyph glyph-name="Zacute" unicode="&#x179;" horiz-adv-x="1126" 
d="M1038 0h-1007v23l831 1323h-282q-104 0 -201 -11q-48 -6 -98.5 -54t-90.5 -122t-47 -125h-63l43 385h938v-22l-840 -1323h287q265 0 353.5 74.5t164.5 275.5h59zM471 1518l-29 38l205 199q80 81 103 97t51 16q26 0 44.5 -20.5t18.5 -49.5q0 -32 -16 -56t-72 -56z" />
    <glyph glyph-name="zacute" unicode="&#x17a;" horiz-adv-x="811" 
d="M61 0v45l531 862h-148q-143 0 -196 -20q-37 -17 -58 -67.5t-36 -129.5h-58v293h649v-33l-542 -874h139q113 0 217 4q38 2 56 27t30 59l23 78l24 92h58v-336h-689zM668 1468q0 -31 -13 -56t-48 -60l-8 -8t-250 -230l-37 31l65 104q142 231 169 258t61 27q29 0 45 -20
t16 -46z" />
    <glyph glyph-name="Zdotaccent" unicode="&#x17b;" horiz-adv-x="1126" 
d="M1038 0h-1007v23l831 1323h-282q-104 0 -201 -11q-48 -6 -98.5 -54t-90.5 -122t-47 -125h-63l43 385h938v-22l-840 -1323h287q265 0 353.5 74.5t164.5 275.5h59zM676 1749q0 -48 -23 -76.5t-61 -28.5q-35 0 -59.5 25t-24.5 73q0 47 22 76t62 29q42 0 63 -28t21 -70z" />
    <glyph glyph-name="zdotaccent" unicode="&#x17c;" horiz-adv-x="811" 
d="M61 0v45l531 862h-148q-143 0 -196 -20q-37 -17 -58 -67.5t-36 -129.5h-58v293h649v-33l-542 -874h139q113 0 217 4q38 2 56 27t30 59l23 78l24 92h58v-336h-689zM512 1391q0 -48 -23 -76.5t-61 -28.5q-35 0 -59.5 25t-24.5 73q0 47 22 76t62 29q42 0 63 -28t21 -70z" />
    <glyph glyph-name="Zcaron" unicode="&#x17d;" horiz-adv-x="1126" 
d="M1038 0h-1007v23l831 1323h-282q-104 0 -201 -11q-48 -6 -98.5 -54t-90.5 -122t-47 -125h-63l43 385h938v-22l-840 -1323h287q265 0 353.5 74.5t164.5 275.5h59zM573 1520q-14 0 -25.5 3t-21 9.5t-39.5 40.5l-217 262l45 33l254 -201l258 201l45 -33l-217 -266
q-8 -9 -15.5 -18t-16.5 -16t-21 -11t-29 -4z" />
    <glyph glyph-name="zcaron" unicode="&#x17e;" horiz-adv-x="811" 
d="M61 0v45l531 862h-148q-143 0 -196 -20q-37 -17 -58 -67.5t-36 -129.5h-58v293h649v-33l-542 -874h139q113 0 217 4q38 2 56 27t30 59l23 78l24 92h58v-336h-689zM407 1124q-34 0 -53 16t-33 38l-176 323l45 23l213 -262l217 262l45 -23l-176 -327q-14 -20 -31 -35
t-51 -15z" />
    <glyph glyph-name="longs" unicode="&#x17f;" horiz-adv-x="518" 
d="M649 1448q0 -28 -15.5 -52t-53.5 -24q-44 0 -76 25.5t-60 68.5q-70 -15 -107.5 -113t-37.5 -261v-920q0 -70 39 -88q16 -10 80 -19l24 -4v-61h-383v61q83 7 103 30t20 71v907q0 138 46.5 247.5t125 170.5t170.5 61q62 0 93.5 -30t31.5 -70z" />
    <glyph glyph-name="florin" unicode="&#x192;" horiz-adv-x="909" 
d="M909 1176q0 -33 -19 -56.5t-52 -23.5q-74 0 -125 147q-104 -18 -162 -121.5t-78 -296.5l-12 -123h213v-79h-221q-35 -424 -85 -613t-143.5 -284t-224.5 -95q-72 0 -116 34.5t-44 86.5q0 31 16 56.5t54 25.5q67 0 127 -141q79 11 134 90t83.5 225.5t73.5 614.5h-160v79
h170q20 174 52.5 275t89.5 174t123 113.5t147 40.5q72 0 115.5 -36t43.5 -93z" />
    <glyph glyph-name="Aringacute" unicode="&#x1fa;" horiz-adv-x="1274" 
d="M817 0v70q81 4 125.5 19.5t44.5 37.5q0 29 -14 68l-101 305h-493q-27 -67 -57.5 -153.5t-38 -121t-7.5 -67.5q0 -40 56 -63t145 -25v-70h-512v70q67 5 113 31t81.5 103t195.5 465t307 771h20q161 -483 426 -1225q24 -60 54.5 -90.5t71.5 -42.5t75 -12v-70h-492zM641 1163
l-227 -581h432zM907 1599q0 -98 -69.5 -158.5t-178.5 -60.5q-112 0 -180 60t-68 159q0 93 70.5 155t177.5 62q110 0 179 -60.5t69 -156.5zM790 1599q0 73 -35.5 115.5t-95.5 42.5q-63 0 -97 -42.5t-34 -115.5q0 -71 35 -114t96 -43q65 0 98 44t33 113zM539 1721l-29 38
l205 199q80 81 103 97t51 16q26 0 44.5 -20.5t18.5 -49.5q0 -32 -16 -56t-72 -56z" />
    <glyph glyph-name="aringacute" unicode="&#x1fb;" horiz-adv-x="881" 
d="M850 18q-73 -34 -125 -34q-115 0 -131 145h-4q-60 -74 -128 -113t-157 -39q-100 0 -162.5 69t-62.5 179q0 96 45.5 162.5t144.5 106.5l86 34l236 88v93q0 231 -162 231q-101 0 -160 -51q0 -25 6.5 -53.5t6.5 -63.5q0 -37 -24 -55.5t-56 -18.5q-31 0 -52.5 23t-21.5 63
q0 92 87 159t212 67q151 0 217 -78t66 -244l-6 -491q0 -41 7.5 -64t28.5 -39q30 -18 109 -18v-58zM592 551q-165 -50 -241 -89.5t-110 -90t-34 -129.5q0 -81 36.5 -127.5t108.5 -46.5q62 0 112 25t124 108zM680 1169q0 -98 -69.5 -158.5t-178.5 -60.5q-112 0 -180 60
t-68 159q0 93 70.5 155t177.5 62q110 0 179 -60.5t69 -156.5zM563 1169q0 73 -35.5 115.5t-95.5 42.5q-63 0 -97 -42.5t-34 -115.5q0 -71 35 -114t96 -43q65 0 98 44t33 113zM291 1414l-29 38l205 199q80 81 103 97t51 16q26 0 44.5 -20.5t18.5 -49.5q0 -32 -16 -56t-72 -56
z" />
    <glyph glyph-name="AEacute" unicode="&#x1fc;" horiz-adv-x="1778" 
d="M877 1331h-39l-349 -641h388v641zM1614 1419v-332h-64q-28 128 -75.5 186t-117 64t-188.5 6h-149v-569h84q74 0 117 15.5t71 59.5t43 150h64v-538h-64q-3 68 -28.5 131.5t-70.5 83.5t-132 20h-84v-434q0 -92 13.5 -125t48.5 -46t143 -13q101 0 160 7t97 21t65 53.5
t56 107.5t48 139h71l-26 -406h-1000v70q101 8 125 18q56 28 56 100v418h-431q-97 -159 -184 -340q-22 -49 -22 -90q0 -57 31.5 -80.5t103.5 -25.5v-70h-451v70q38 0 105 36q60 37 112 134q266 459 607 1089q-45 21 -162 21v69h1028zM981 1518l-29 38l205 199q80 81 103 97
t51 16q26 0 44.5 -20.5t18.5 -49.5q0 -32 -16 -56t-72 -56z" />
    <glyph glyph-name="aeacute" unicode="&#x1fd;" horiz-adv-x="1350" 
d="M688 848q104 162 270 162q153 0 236.5 -111.5t83.5 -310.5v-53h-567v-19q2 -210 71.5 -328t192.5 -118q85 0 147 42t121 148l57 -35q-66 -129 -148.5 -189.5t-186.5 -60.5q-113 0 -195.5 52t-120.5 149h-6q-87 -109 -165 -154t-171 -45q-100 0 -163.5 68.5t-63.5 179.5
q0 98 45.5 164t146.5 105l84 34l236 88v93q0 231 -162 231q-101 0 -160 -51q0 -25 6.5 -53.5t6.5 -63.5q0 -37 -24 -55.5t-56 -18.5q-31 0 -52.5 23t-21.5 63q0 91 89.5 158.5t217.5 67.5q109 0 167.5 -39t84.5 -123zM592 551q-162 -49 -238 -89.5t-111.5 -92.5t-35.5 -127
q0 -81 35.5 -127.5t107.5 -46.5q73 0 136 38t106 101v344zM1151 604q0 334 -201 334q-100 0 -165.5 -90t-71.5 -244h438zM952 1468q0 -31 -13 -56t-48 -60l-8 -8t-250 -230l-37 31l65 104q142 231 169 258t61 27q29 0 45 -20t16 -46z" />
    <glyph glyph-name="Oslashacute" unicode="&#x1fe;" horiz-adv-x="1407" 
d="M1323 705q0 -208 -79.5 -376t-225 -265t-311.5 -97q-244 0 -408 164l-164 -211l-61 41l174 225q-164 214 -164 529q0 208 81 377t225 263.5t312 94.5q232 0 400 -162l133 172l61 -45l-141 -182q168 -211 168 -528zM1159 707q0 253 -84 423l-704 -907q121 -170 331 -170
q216 0 336.5 175t120.5 479zM248 711q0 -256 82 -418l704 907q-121 166 -332 166q-137 0 -238.5 -74t-158.5 -227t-57 -354zM598 1518l-29 38l205 199q80 81 103 97t51 16q26 0 44.5 -20.5t18.5 -49.5q0 -32 -16 -56t-72 -56z" />
    <glyph glyph-name="oslashacute" unicode="&#x1ff;" horiz-adv-x="969" 
d="M897 504q0 -154 -51.5 -276t-147 -190.5t-221.5 -68.5q-137 0 -246 103l-94 -138l-51 41l98 146q-112 142 -112 366q0 235 116.5 379t305.5 144q138 0 239 -88l84 122l57 -36l-94 -136q117 -144 117 -368zM766 502q0 158 -51 274l-426 -622q76 -111 200 -111
q128 0 202.5 126.5t74.5 332.5zM201 506q0 -169 51 -287l426 623q-68 96 -189 96q-139 0 -213.5 -118t-74.5 -314zM749 1468q0 -31 -13 -56t-48 -60l-8 -8t-250 -230l-37 31l65 104q142 231 169 258t61 27q29 0 45 -20t16 -46z" />
    <glyph glyph-name="uni0218" unicode="&#x218;" horiz-adv-x="1040" 
d="M958 399q0 -121 -55 -219t-151 -151.5t-213 -53.5q-187 0 -318 97l-31 -72h-67l-14 473h67q40 -218 132.5 -318t242.5 -100q139 0 207.5 74.5t68.5 206.5q0 187 -155 262q-56 27 -146 63q-151 60 -210.5 98.5t-97 84.5t-56.5 104.5t-19 132.5q0 100 49 184.5t132.5 133.5
t177.5 49q182 0 301 -100l33 71h65l8 -465h-69q-42 224 -124 318t-216 94q-102 0 -168 -64t-66 -165q0 -123 62 -192t267 -144q147 -54 218.5 -105.5t108 -124.5t36.5 -172zM643 -231q0 -101 -65 -157t-177 -56v55q85 6 123.5 35.5t38.5 97.5h-55q-46 0 -75.5 25t-29.5 67
q0 41 29 69.5t76 28.5q59 0 97 -47t38 -118z" />
    <glyph glyph-name="uni0219" unicode="&#x219;" horiz-adv-x="774" 
d="M702 272q0 -136 -79.5 -215.5t-208.5 -79.5q-156 0 -244 93l-14 -68h-70l-10 328h65q13 -76 49 -139.5t91 -101.5t129 -38q91 0 143.5 47.5t52.5 132.5q0 76 -50.5 126t-184.5 102q-159 60 -216 125t-57 172q0 114 78 185t193 71q55 0 102 -15.5t72 -33.5l22 51h70
l16 -305h-67q-34 231 -213 231q-85 0 -131.5 -43t-46.5 -113q0 -51 18 -85.5t57 -61t148 -66.5q156 -57 221 -127t65 -172zM500 -231q0 -101 -65 -157t-177 -56v55q85 6 123.5 35.5t38.5 97.5h-55q-46 0 -75.5 25t-29.5 67q0 41 29 69.5t76 28.5q59 0 97 -47t38 -118z" />
    <glyph glyph-name="uni021A" unicode="&#x21a;" horiz-adv-x="1200" 
d="M1114 1044q-8 119 -41 184.5t-96.5 92.5t-237.5 27h-67v-1145q0 -62 46.5 -95t168.5 -38v-70h-570v70q33 2 82.5 9.5t65.5 12.5q63 23 63 101v1155h-63q-117 0 -178.5 -10.5t-107.5 -52.5t-70.5 -110.5t-24.5 -130.5h-70v375h1172v-375h-72zM706 -231q0 -101 -65 -157
t-177 -56v55q85 6 123.5 35.5t38.5 97.5h-55q-46 0 -75.5 25t-29.5 67q0 41 29 69.5t76 28.5q59 0 97 -47t38 -118z" />
    <glyph glyph-name="uni021B" unicode="&#x21b;" horiz-adv-x="594" 
d="M561 43q-120 -61 -207 -61q-83 0 -131.5 64.5t-48.5 182.5v672h-156v82h160v305h113v-305h244v-82h-242v-633q0 -101 31.5 -143.5t99.5 -42.5q59 0 137 18v-57zM475 -231q0 -101 -65 -157t-177 -56v55q85 6 123.5 35.5t38.5 97.5h-55q-46 0 -75.5 25t-29.5 67
q0 41 29 69.5t76 28.5q59 0 97 -47t38 -118z" />
    <glyph glyph-name="uni0237" unicode="&#x237;" horiz-adv-x="502" 
d="M328 -10q0 -131 -35.5 -229.5t-98.5 -151.5t-143 -53q-59 0 -100 27.5t-41 70.5q0 31 18.5 52.5t48.5 21.5q68 0 113 -90q121 0 121 327v807q0 44 -17.5 78t-50.5 47t-98 16v64l272 18l11 -14v-991z" />
    <glyph glyph-name="circumflex" unicode="&#x2c6;" 
d="M772 1147l-45 -25l-217 262l-213 -262l-45 25l176 323q14 22 33 38t53 16t51 -14.5t31 -34.5z" />
    <glyph glyph-name="caron" unicode="&#x2c7;" 
d="M514 1124q-34 0 -53 16t-33 38l-176 323l45 23l213 -262l217 262l45 -23l-176 -327q-14 -20 -31 -35t-51 -15z" />
    <glyph glyph-name="uni02C9" unicode="&#x2c9;" 
d="M231 1305v108h562v-108h-562z" />
    <glyph glyph-name="breve" unicode="&#x2d8;" 
d="M776 1477q-25 -175 -89 -265t-175 -90q-217 0 -264 355l47 10q36 -130 86 -177.5t131 -47.5t130.5 47t86.5 178z" />
    <glyph glyph-name="dotaccent" unicode="&#x2d9;" 
d="M596 1391q0 -48 -23 -76.5t-61 -28.5q-35 0 -59.5 25t-24.5 73q0 47 22 76t62 29q42 0 63 -28t21 -70z" />
    <glyph glyph-name="ring" unicode="&#x2da;" 
d="M760 1337q0 -98 -69.5 -158.5t-178.5 -60.5q-112 0 -180 60t-68 159q0 93 70.5 155t177.5 62q110 0 179 -60.5t69 -156.5zM643 1337q0 73 -35.5 115.5t-95.5 42.5q-63 0 -97 -42.5t-34 -115.5q0 -71 35 -114t96 -43q65 0 98 44t33 113z" />
    <glyph glyph-name="ogonek" unicode="&#x2db;" 
d="M549 -444q-96 0 -156.5 55t-60.5 141q0 170 207 287h45q-57 -46 -88 -113.5t-31 -138.5q0 -92 42 -126t152 -36v-69h-110z" />
    <glyph glyph-name="tilde" unicode="&#x2dc;" 
d="M823 1460q-31 -103 -84.5 -158t-120.5 -55q-43 0 -74.5 15.5t-58.5 34t-53 34t-57 15.5q-34 0 -57.5 -24t-63.5 -105l-53 22q38 94 64.5 132.5t59 60.5t74.5 22q41 0 73 -15.5t59 -34.5t51.5 -34.5t50.5 -15.5q46 0 76.5 26.5t62.5 102.5z" />
    <glyph glyph-name="hungarumlaut" unicode="&#x2dd;" 
d="M547 1468q0 -31 -16 -57.5t-46 -58.5q-4 -5 -9 -10l-228 -228l-39 27l103 190q40 74 71 121t48 63.5t48 18.5q29 0 48.5 -20t19.5 -46zM887 1468q0 -31 -16 -57.5t-46 -58.5q-4 -5 -9 -10l-228 -228l-39 27l103 190q40 74 71 121t48 63.5t48 18.5q29 0 48.5 -20t19.5 -46
z" />
    <glyph glyph-name="gravecomb" unicode="&#x300;" 
d="M328 1798q0 29 18.5 49.5t44.5 20.5q27 0 48.5 -14.5t105.5 -98.5l205 -199l-29 -38l-305 168q-55 32 -71.5 55.5t-16.5 56.5z" />
    <glyph glyph-name="acutecomb" unicode="&#x301;" 
d="M303 1518l-29 38l205 199q80 81 103 97t51 16q26 0 44.5 -20.5t18.5 -49.5q0 -32 -16 -56t-72 -56z" />
    <glyph glyph-name="uni0302" unicode="&#x302;" 
d="M813 1552l-45 -32l-258 200l-254 -200l-45 32l217 263q9 10 17 19.5t17.5 17t22 12t29.5 4.5q21 0 38.5 -8.5t30 -25t230.5 -282.5z" />
    <glyph glyph-name="uni0306" unicode="&#x306;" 
d="M817 1833q-26 -164 -98 -238.5t-207 -74.5t-208 76t-97 237l47 10q34 -106 90.5 -145t167.5 -39t167.5 39t90.5 145z" />
    <glyph glyph-name="uni0308" unicode="&#x308;" 
d="M391 1745q0 -42 -23 -71t-65 -29t-65 29t-23 71q0 43 23 72.5t65 29.5t65 -29.5t23 -72.5zM799 1745q0 -42 -23 -71t-65 -29t-65 29t-23 71q0 43 23 72.5t65 29.5t65 -29.5t23 -72.5z" />
    <glyph glyph-name="uni030B" unicode="&#x30b;" 
d="M303 1518l-29 38q164 178 217 231t74 67t47 14t45 -20.5t19 -49.5q0 -32 -16 -56t-72 -56zM639 1518l-29 38l129 137q46 52 93 99t68 61.5t48 14.5q26 0 45 -20.5t19 -49.5q0 -32 -16 -56t-72 -56z" />
    <glyph glyph-name="uni030C" unicode="&#x30c;" 
d="M514 1520q-14 0 -25.5 3t-21 9.5t-39.5 40.5l-217 262l45 33l254 -201l258 201l45 -33l-217 -266q-8 -9 -15.5 -18t-16.5 -16t-21 -11t-29 -4z" />
    <glyph glyph-name="uni0326" unicode="&#x326;" 
d="M602 -231q0 -101 -65 -157t-177 -56v55q85 6 123.5 35.5t38.5 97.5h-55q-46 0 -75.5 25t-29.5 67q0 41 29 69.5t76 28.5q59 0 97 -47t38 -118z" />
    <glyph glyph-name="tonos" unicode="&#x384;" 
d="M539 1143h-54l74 416h180v-19z" />
    <glyph glyph-name="dieresistonos" unicode="&#x385;" 
d="M836 1315q0 -44 -25.5 -72.5t-67.5 -28.5t-69 28.5t-27 72.5q0 43 27 71.5t69 28.5t67.5 -28.5t25.5 -71.5zM381 1315q0 -44 -27 -72.5t-69 -28.5t-67 28.5t-25 72.5q0 43 25 71.5t67 28.5t69 -28.5t27 -71.5zM467 1143h-43l74 375h159v-19z" />
    <glyph glyph-name="Alphatonos" unicode="&#x386;" horiz-adv-x="1274" 
d="M817 0v70q81 4 125.5 19.5t44.5 37.5q0 29 -14 68l-101 305h-493q-27 -67 -57.5 -153.5t-38 -121t-7.5 -67.5q0 -40 56 -63t145 -25v-70h-512v70q67 5 113 31t81.5 103t195.5 465t307 771h20q161 -483 426 -1225q24 -60 54.5 -90.5t71.5 -42.5t75 -12v-70h-492zM641 1163
l-227 -581h432zM131 1006h-54l74 416h180v-19z" />
    <glyph glyph-name="anoteleia" unicode="&#x387;" horiz-adv-x="588" 
d="M399 881q0 -48 -31 -78.5t-77 -30.5q-45 0 -76 30.5t-31 78.5q0 42 31 74t76 32t76.5 -31t31.5 -75z" />
    <glyph glyph-name="Epsilontonos" unicode="&#x388;" horiz-adv-x="1520" 
d="M1438 0h-1063v70q110 10 131 18q51 21 51 100v1029q0 49 -19 73.5t-77 42t-84 17.5v69h979v-332h-63q-28 126 -76 185.5t-121 64.5q-74 6 -184 6h-211v-569h145q74 0 117 15.5t71 60t44 149.5h63v-538h-63q-3 66 -29 130.5t-71.5 84.5t-131.5 20h-145v-434
q0 -86 22 -121.5t78 -49t207 -13.5q126 0 183 15t86 51t61.5 109t54.5 153h72zM76 1006h-54l74 416h180v-19z" />
    <glyph glyph-name="Etatonos" unicode="&#x389;" horiz-adv-x="1792" 
d="M1213 0v70l27 2q93 6 114 28t21 84v514h-674v-501q0 -65 32 -92t123 -35v-70h-462v70l27 2q68 4 92 15.5t34 36.5t10 58v1035q0 41 -17.5 67.5t-63 43.5t-80.5 20v71h460v-69q-41 -3 -86.5 -17t-57 -37.5t-11.5 -68.5v-449h674v439q0 80 -52.5 102t-107.5 31v69h459v-69
q-46 -4 -88.5 -18.5t-55 -39.5t-12.5 -75v-1020q0 -39 9.5 -60t29.5 -37q42 -25 117 -30v-70h-461zM76 1006h-54l74 416h180v-19z" />
    <glyph glyph-name="Iotatonos" unicode="&#x38a;" horiz-adv-x="975" 
d="M367 0v70q105 8 136.5 19.5t42.5 36.5t11 54v1039q0 40 -20.5 67t-73.5 44t-96 20v69h526v-69q-47 -3 -103.5 -18.5t-72.5 -41t-16 -61.5v-1034q0 -64 43.5 -91t148.5 -34v-70h-526zM76 1006h-54l74 416h180v-19z" />
    <glyph glyph-name="Omicrontonos" unicode="&#x38c;" horiz-adv-x="1630" 
d="M1546 705q0 -208 -79.5 -376t-225 -265t-311.5 -97q-181 0 -324 96t-221 269t-78 383q0 208 81 377t225 263.5t312 94.5q175 0 318 -94t223 -265t80 -386zM1382 707q0 315 -121 487t-336 172q-137 0 -238.5 -74t-158.5 -227t-57 -354q0 -303 119 -480.5t335 -177.5
t336.5 175t120.5 479zM76 1006h-54l74 416h180v-19z" />
    <glyph glyph-name="Upsilontonos" unicode="&#x38e;" horiz-adv-x="1460" 
d="M1495 1350q-48 -9 -81.5 -31t-63.5 -68q-53 -79 -104 -164.5t-146.5 -263t-110 -217t-14.5 -80.5v-321q0 -66 46.5 -96.5t164.5 -38.5v-70h-559v70q144 10 174.5 34.5t30.5 90.5v327q0 40 -17.5 80t-35.5 80q-166 338 -193 390t-49.5 91.5t-58.5 88t-74.5 72t-73.5 26.5
v69h451v-69l-48 -4q-89 -7 -89 -41q0 -26 90 -216.5t200 -406.5q299 551 299 606q0 25 -31.5 40.5t-111.5 21.5v69h405v-69zM76 1006h-54l74 416h180v-19z" />
    <glyph glyph-name="Omegatonos" unicode="&#x38f;" horiz-adv-x="1655" 
d="M1395 147q52 0 102 52.5t92 156.5l58 -18l-111 -338h-506v74q143 194 200 299t85 205t28 213q0 179 -51 312t-142.5 198t-215.5 65q-126 0 -216.5 -66.5t-142 -200.5t-51.5 -308q0 -113 27 -212t80.5 -198.5t206.5 -306.5v-74h-506l-111 338l58 18q82 -209 190 -209h207
v31q-125 143 -189 248.5t-96.5 216t-32.5 229.5q0 150 79 284t212 214t285 80q150 0 283 -79.5t212.5 -216t79.5 -282.5q0 -180 -72.5 -344t-246.5 -350v-31h205zM76 1006h-54l74 416h180v-19z" />
    <glyph glyph-name="iotadieresistonos" unicode="&#x390;" horiz-adv-x="524" 
d="M496 4q-93 -22 -164 -22q-62 0 -99.5 45t-37.5 133v624q0 46 -19 77t-55.5 41.5t-75.5 10.5v64l256 18l10 -14v-817q0 -57 25 -81t92 -24h68v-55zM564 1315q0 -44 -25.5 -72.5t-67.5 -28.5t-69 28.5t-27 72.5q0 43 27 71.5t69 28.5t67.5 -28.5t25.5 -71.5zM109 1315
q0 -44 -27 -72.5t-69 -28.5t-67 28.5t-25 72.5q0 43 25 71.5t67 28.5t69 -28.5t27 -71.5zM195 1143h-43l74 375h159v-19z" />
    <glyph glyph-name="Alpha" unicode="&#x391;" horiz-adv-x="1274" 
d="M817 0v70q81 4 125.5 19.5t44.5 37.5q0 29 -14 68l-101 305h-493q-27 -67 -57.5 -153.5t-38 -121t-7.5 -67.5q0 -40 56 -63t145 -25v-70h-512v70q67 5 113 31t81.5 103t195.5 465t307 771h20q161 -483 426 -1225q24 -60 54.5 -90.5t71.5 -42.5t75 -12v-70h-492zM641 1163
l-227 -581h432z" />
    <glyph glyph-name="Beta" unicode="&#x392;" horiz-adv-x="1192" 
d="M1100 385q0 -109 -56.5 -198.5t-157 -138t-231.5 -48.5h-546v70q37 0 81 10t64 36.5t20 69.5v1031q0 43 -17.5 71t-61 45t-76.5 17v69h538q101 0 185.5 -38t132 -107t47.5 -162q0 -131 -82 -222t-235 -126v-4q194 -32 294.5 -128.5t100.5 -246.5zM854 1096q0 128 -62 189
t-192 61l-182 -5v-555h157q141 0 210 74.5t69 235.5zM928 418q0 134 -84.5 215.5t-222.5 81.5q-135 0 -203 -4v-492v-13q0 -132 194 -132q165 0 240.5 86t75.5 258z" />
    <glyph glyph-name="Gamma" unicode="&#x393;" horiz-adv-x="1057" 
d="M979 1036q-61 281 -180 297q-79 10 -219 10h-162v-1142q0 -69 39.5 -100t160.5 -31v-70h-526v70q119 0 150.5 24.5t31.5 87.5v1035q0 50 -18.5 73t-63 38t-100.5 22v69h950v-383h-63z" />
    <glyph glyph-name="uni0394" unicode="&#x394;" horiz-adv-x="1210" 
d="M18 0v45l598 1395h21l555 -1395v-45h-1174zM594 1186l-440 -1045h850z" />
    <glyph glyph-name="Epsilon" unicode="&#x395;" horiz-adv-x="1237" 
d="M1155 0h-1063v70q110 10 131 18q51 21 51 100v1029q0 49 -19 73.5t-77 42t-84 17.5v69h979v-332h-63q-28 126 -76 185.5t-121 64.5q-74 6 -184 6h-211v-569h145q74 0 117 15.5t71 60t44 149.5h63v-538h-63q-3 66 -29 130.5t-71.5 84.5t-131.5 20h-145v-434
q0 -86 22 -121.5t78 -49t207 -13.5q126 0 183 15t86 51t61.5 109t54.5 153h72z" />
    <glyph glyph-name="Zeta" unicode="&#x396;" horiz-adv-x="1126" 
d="M1038 0h-1007v23l831 1323h-282q-104 0 -201 -11q-48 -6 -98.5 -54t-90.5 -122t-47 -125h-63l43 385h938v-22l-840 -1323h287q265 0 353.5 74.5t164.5 275.5h59z" />
    <glyph glyph-name="Eta" unicode="&#x397;" horiz-adv-x="1509" 
d="M930 0v70l27 2q93 6 114 28t21 84v514h-674v-501q0 -65 32 -92t123 -35v-70h-462v70l27 2q68 4 92 15.5t34 36.5t10 58v1035q0 41 -17.5 67.5t-63 43.5t-80.5 20v71h460v-69q-41 -3 -86.5 -17t-57 -37.5t-11.5 -68.5v-449h674v439q0 80 -52.5 102t-107.5 31v69h459v-69
q-46 -4 -88.5 -18.5t-55 -39.5t-12.5 -75v-1020q0 -39 9.5 -60t29.5 -37q42 -25 117 -30v-70h-461z" />
    <glyph glyph-name="Theta" unicode="&#x398;" horiz-adv-x="1407" 
d="M893 492q-7 47 -20 86.5t-26.5 51t-39 16.5t-105.5 5q-83 0 -116 -7.5t-49 -41t-25 -110.5h-63v434h63q11 -69 26.5 -105t45.5 -44.5t118 -8.5q74 0 109 7t47 30q26 64 35 121h63v-434h-63zM1323 705q0 -208 -79.5 -376t-225 -265t-311.5 -97q-181 0 -324 96t-221 269
t-78 383q0 208 81 377t225 263.5t312 94.5q175 0 318 -94t223 -265t80 -386zM1159 707q0 315 -121 487t-336 172q-137 0 -238.5 -74t-158.5 -227t-57 -354q0 -303 119 -480.5t335 -177.5t336.5 175t120.5 479z" />
    <glyph glyph-name="Iota" unicode="&#x399;" horiz-adv-x="692" 
d="M84 0v70q105 8 136.5 19.5t42.5 36.5t11 54v1039q0 40 -20.5 67t-73.5 44t-96 20v69h526v-69q-47 -3 -103.5 -18.5t-72.5 -41t-16 -61.5v-1034q0 -64 43.5 -91t148.5 -34v-70h-526z" />
    <glyph glyph-name="Kappa" unicode="&#x39a;" horiz-adv-x="1257" 
d="M1024 0q-205 293 -598 719h-8v-522q0 -72 47 -103q10 -7 51 -14.5t70 -9.5v-70h-467v70q82 7 99.5 12t30 17t19 34.5t6.5 50.5v1033q0 72 -49 98q-70 35 -106 35v69h454v-69q-26 0 -69 -12t-58 -25t-21.5 -34.5t-6.5 -51.5v-496h8q217 197 343 346t126 219q0 24 -38 39
t-91 15v69h451v-69q-55 0 -100.5 -17.5t-72.5 -48.5q-181 -223 -481 -518q178 -186 368 -408l109 -129q72 -82 118 -116t128 -43v-70h-262z" />
    <glyph glyph-name="Lambda" unicode="&#x39b;" horiz-adv-x="1255" 
d="M616 1157l-61 -171q-224 -615 -258 -724q-21 -66 -21 -104q0 -40 56 -63t145 -25v-70h-512v70q59 5 101 25t69 63t132 305t250 656l118 319h29q301 -903 426 -1223q25 -62 55 -91.5t70 -41.5t75 -12v-70h-499v70q170 0 170 57q0 12 -7 38.5t-124.5 371.5t-213.5 620z" />
    <glyph glyph-name="Mu" unicode="&#x39c;" horiz-adv-x="1757" 
d="M1137 0v70q42 0 91.5 7.5t69 22.5t29.5 41t10 56v1017h-18l-475 -1191h-19l-24 71l-430 1149h-11v-852q0 -97 7.5 -157t24 -91t41 -43.5t67 -21t80.5 -8.5v-70h-514v70l31 2q89 2 121 24t44 82t12 203v747q0 62 -14 101.5t-36 64t-66 40.5t-82 16v69h379l415 -1130
l375 954q34 86 45 176h361v-69q-28 0 -77.5 -12.5t-64 -24t-20.5 -35.5t-6 -51v-1030q0 -32 7.5 -54.5t25 -36.5t61.5 -25t76 -11v-70h-516z" />
    <glyph glyph-name="Nu" unicode="&#x39d;" horiz-adv-x="1479" 
d="M1434 1350q-40 0 -90 -11t-67.5 -27.5t-27.5 -44.5t-15 -87.5t-5 -132.5v-1063h-41l-828 1179v-764q0 -224 60 -284q17 -19 68 -32t108 -13v-70h-530v70q32 0 82 11t71.5 32t33 56t16.5 94.5t5 123.5v727q0 64 -24.5 114t-87 84t-127.5 40v67h319l789 -1122v737
q0 84 -6 143t-18.5 91.5t-35 47t-83.5 24.5t-87 10v69h521v-69z" />
    <glyph glyph-name="Xi" unicode="&#x39e;" horiz-adv-x="1264" 
d="M889 125q55 0 93.5 27.5t65 74t54.5 152.5h67l-32 -379h-1006l-33 379h68q27 -103 53.5 -150t64.5 -75.5t95 -28.5h510zM819 492q-12 67 -32 105.5t-44 46t-114 7.5t-114.5 -7.5t-41.5 -34t-35 -117.5h-63v434h63q14 -69 31.5 -105t42 -44.5t117.5 -8.5q71 0 99.5 5
t41 22t26.5 52t23 79h64v-434h-64zM387 1292q-54 0 -89 -28t-57.5 -71.5t-50.5 -158.5h-65l20 385h965l20 -385h-65l-20 82q-22 83 -67 129.5t-110 46.5h-481z" />
    <glyph glyph-name="Omicron" unicode="&#x39f;" horiz-adv-x="1407" 
d="M1323 705q0 -208 -79.5 -376t-225 -265t-311.5 -97q-181 0 -324 96t-221 269t-78 383q0 208 81 377t225 263.5t312 94.5q175 0 318 -94t223 -265t80 -386zM1159 707q0 315 -121 487t-336 172q-137 0 -238.5 -74t-158.5 -227t-57 -354q0 -303 119 -480.5t335 -177.5
t336.5 175t120.5 479z" />
    <glyph glyph-name="Pi" unicode="&#x3a0;" horiz-adv-x="1481" 
d="M418 197q0 -53 20.5 -78.5t58.5 -37t78 -11.5v-70h-464v70q72 5 94.5 9.5t38.5 17t23 35.5t7 50v1035q0 41 -19 68t-60.5 43.5t-83.5 21.5v69h1251v-69q-85 -6 -120.5 -32.5t-35.5 -90.5v-1030q0 -57 21 -81.5t60.5 -35t74.5 -10.5v-70h-463v70q99 0 131.5 22.5
t32.5 91.5v1153h-645v-1140z" />
    <glyph glyph-name="Rho" unicode="&#x3a1;" horiz-adv-x="1122" 
d="M1038 1071q0 -131 -62 -232t-173 -154.5t-254 -53.5h-131v-449q0 -70 29 -91t155 -21v-70h-489v70q42 0 87.5 10t59.5 35t14 73v1035q0 87 -49 108q-72 19 -125 19v69h516q178 0 300 -99.5t122 -248.5zM868 1022q0 95 -37 166.5t-108 112t-176 40.5h-129v-632h100
q151 0 250.5 88t99.5 225z" />
    <glyph glyph-name="Sigma" unicode="&#x3a3;" horiz-adv-x="1079" 
d="M1014 0h-989v20l505 662l-483 715v22h920v-360h-62q-13 107 -67.5 188t-122.5 88q-66 11 -197 11h-252l410 -603l-469 -616h557q55 0 92.5 28.5t63.5 74.5t55 155h65z" />
    <glyph glyph-name="Tau" unicode="&#x3a4;" horiz-adv-x="1200" 
d="M1114 1044q-8 119 -41 184.5t-96.5 92.5t-237.5 27h-67v-1145q0 -62 46.5 -95t168.5 -38v-70h-570v70q33 2 82.5 9.5t65.5 12.5q63 23 63 101v1155h-63q-117 0 -178.5 -10.5t-107.5 -52.5t-70.5 -110.5t-24.5 -130.5h-70v375h1172v-375h-72z" />
    <glyph glyph-name="Upsilon" unicode="&#x3a5;" horiz-adv-x="1096" 
d="M1130 1350q-48 -9 -81.5 -31t-63.5 -68q-53 -79 -104 -164.5t-146.5 -263t-110 -217t-14.5 -80.5v-321q0 -66 46.5 -96.5t164.5 -38.5v-70h-559v70q144 10 174.5 34.5t30.5 90.5v327q0 40 -17.5 80t-35.5 80q-166 338 -193 390t-49.5 91.5t-58.5 88t-74.5 72t-73.5 26.5
v69h451v-69l-48 -4q-89 -7 -89 -41q0 -26 90 -216.5t200 -406.5q299 551 299 606q0 25 -31.5 40.5t-111.5 21.5v69h405v-69z" />
    <glyph glyph-name="Phi" unicode="&#x3a6;" horiz-adv-x="1425" 
d="M1352 739q0 -157 -70.5 -273t-200 -177.5t-299.5 -61.5v-53q0 -64 33 -85.5t148 -29.5v-65h-488v65q63 6 100.5 15t52.5 33.5t15 66.5v53q-263 0 -416 136.5t-153 375.5q0 137 67.5 242t195.5 163t298 58h8v39q0 65 -49 90t-121 33v66h481v-66q-75 -6 -109 -16t-48.5 -35
t-14.5 -58v-53h6q265 0 414.5 -122.5t149.5 -340.5zM1184 715q0 194 -101.5 304.5t-289.5 110.5h-13v-829q123 0 214 48.5t140.5 145.5t49.5 220zM645 1130h-12q-128 0 -216 -52.5t-133.5 -145t-45.5 -217.5q0 -120 50 -218.5t142 -147t215 -48.5v829z" />
    <glyph glyph-name="Chi" unicode="&#x3a7;" horiz-adv-x="1292" 
d="M752 0v70l37 2q52 2 86 15.5t34 37.5q0 30 -27 84t-110.5 195t-142.5 231q-98 -148 -190.5 -308.5t-92.5 -195.5q0 -24 13 -37t38 -18.5t97 -5.5v-70h-480v70q47 0 89 13.5t71 39.5t88.5 110t157.5 230t160 239l-81 126q-116 180 -251 376q-53 78 -102.5 108.5
t-112.5 37.5v69h514v-69l-35 -2q-53 -2 -86 -14.5t-33 -33.5q0 -32 51 -130.5t215 -358.5q101 145 173.5 280.5t72.5 190.5q0 68 -145 68v69h475v-69q-71 -8 -113 -27q-25 -15 -47.5 -38.5t-66.5 -84.5q-62 -87 -133.5 -202.5t-165.5 -252.5q164 -246 340 -526
q57 -93 99.5 -121t127.5 -28v-70h-524z" />
    <glyph glyph-name="Psi" unicode="&#x3a8;" horiz-adv-x="1569" 
d="M856 205q0 -76 59 -107q10 -6 63 -17t81 -11v-70h-547v70q28 0 78 6t63 12q58 24 58 107v262q-246 10 -376 131t-130 338v288q0 49 -21 76t-61.5 41t-81.5 19v69h307v-508q0 -179 93 -275t270 -101v677q0 45 -17 71t-68.5 46.5t-76.5 20.5v69h465v-69q-32 0 -83.5 -15.5
t-63 -40.5t-11.5 -67v-692q361 14 361 376v508h311v-69q-65 -7 -101 -17t-49.5 -31t-13.5 -73v-303q0 -214 -128 -334t-380 -135v-252z" />
    <glyph glyph-name="uni03A9" unicode="&#x3a9;" horiz-adv-x="1442" 
d="M1182 147q52 0 102 52.5t92 156.5l58 -18l-111 -338h-506v74q143 194 200 299t85 205t28 213q0 179 -51 312t-142.5 198t-215.5 65q-126 0 -216.5 -66.5t-142 -200.5t-51.5 -308q0 -113 27 -212t80.5 -198.5t206.5 -306.5v-74h-506l-111 338l58 18q82 -209 190 -209h207
v31q-125 143 -189 248.5t-96.5 216t-32.5 229.5q0 150 79 284t212 214t285 80q150 0 283 -79.5t212.5 -216t79.5 -282.5q0 -180 -72.5 -344t-246.5 -350v-31h205z" />
    <glyph glyph-name="Iotadieresis" unicode="&#x3aa;" horiz-adv-x="692" 
d="M84 0v70q105 8 136.5 19.5t42.5 36.5t11 54v1039q0 40 -20.5 67t-73.5 44t-96 20v69h526v-69q-47 -3 -103.5 -18.5t-72.5 -41t-16 -61.5v-1034q0 -64 43.5 -91t148.5 -34v-70h-526zM231 1745q0 -42 -23 -71t-65 -29t-65 29t-23 71q0 43 23 72.5t65 29.5t65 -29.5
t23 -72.5zM639 1745q0 -42 -23 -71t-65 -29t-65 29t-23 71q0 43 23 72.5t65 29.5t65 -29.5t23 -72.5z" />
    <glyph glyph-name="Upsilondieresis" unicode="&#x3ab;" horiz-adv-x="1096" 
d="M1130 1350q-48 -9 -81.5 -31t-63.5 -68q-53 -79 -104 -164.5t-146.5 -263t-110 -217t-14.5 -80.5v-321q0 -66 46.5 -96.5t164.5 -38.5v-70h-559v70q144 10 174.5 34.5t30.5 90.5v327q0 40 -17.5 80t-35.5 80q-166 338 -193 390t-49.5 91.5t-58.5 88t-74.5 72t-73.5 26.5
v69h451v-69l-48 -4q-89 -7 -89 -41q0 -26 90 -216.5t200 -406.5q299 551 299 606q0 25 -31.5 40.5t-111.5 21.5v69h405v-69zM434 1745q0 -42 -23 -71t-65 -29t-65 29t-23 71q0 43 23 72.5t65 29.5t65 -29.5t23 -72.5zM842 1745q0 -42 -23 -71t-65 -29t-65 29t-23 71
q0 43 23 72.5t65 29.5t65 -29.5t23 -72.5z" />
    <glyph glyph-name="alphatonos" unicode="&#x3ac;" horiz-adv-x="1075" 
d="M1077 16q-83 -32 -135 -32q-126 0 -156 264q-51 -130 -134.5 -202.5t-198.5 -72.5q-109 0 -196.5 64.5t-136 181.5t-48.5 266q0 147 54.5 269t150.5 190t210 68q216 0 312 -275l28 244h109q-11 -122 -82 -500q2 -137 31.5 -247.5t72.5 -137.5q34 -12 59 -14t60 -2v-64z
M506 942q-134 0 -218.5 -125t-84.5 -336q0 -183 81.5 -300.5t211.5 -117.5q121 0 193.5 117.5t84.5 333.5q-15 196 -88 312t-180 116zM521 1143h-54l74 416h180v-19z" />
    <glyph glyph-name="epsilontonos" unicode="&#x3ad;" horiz-adv-x="815" 
d="M428 -27q-163 0 -254.5 76.5t-91.5 212.5q0 79 39 134.5t104.5 86.5t147.5 33v10q-254 44 -254 234q0 71 38.5 128t110 89.5t174.5 32.5q89 0 160.5 -30t111.5 -82t40 -112q0 -108 -80 -108q-37 0 -56.5 23t-19.5 57q0 49 14 131q-26 18 -71 33.5t-95 15.5
q-93 0 -147.5 -53.5t-54.5 -141.5t56.5 -135t158.5 -47h61v-88h-74q-108 0 -172.5 -55t-64.5 -146q0 -99 65 -154t175 -55q101 0 175.5 50.5t137.5 167.5l53 -29q-66 -145 -161 -212t-226 -67zM455 1143h-54l74 416h180v-19z" />
    <glyph glyph-name="etatonos" unicode="&#x3ae;" horiz-adv-x="1020" 
d="M856 -444h-117v1116q0 109 -48 176t-134 67q-56 0 -110 -25.5t-94 -65t-50 -70.5v-754h-117v782q0 60 -29.5 95.5t-101.5 35.5v64l236 18l12 -14v-135h4q76 88 150.5 127t154.5 39q114 0 179 -86t65 -246v-1124zM498 1143h-54l74 416h180v-19z" />
    <glyph glyph-name="iotatonos" unicode="&#x3af;" horiz-adv-x="524" 
d="M496 4q-93 -22 -164 -22q-62 0 -99.5 45t-37.5 133v624q0 46 -19 77t-55.5 41.5t-75.5 10.5v64l256 18l10 -14v-817q0 -57 25 -81t92 -24h68v-55zM254 1143h-54l74 416h180v-19z" />
    <glyph glyph-name="upsilondieresistonos" unicode="&#x3b0;" horiz-adv-x="1004" 
d="M494 -27q-153 0 -230.5 92t-77.5 265v68l2 363v62q0 72 -79 72q-50 0 -86 -6v55q40 21 86.5 35t76.5 14q48 0 74.5 -16.5t38.5 -50.5t12 -117l-4 -428q0 -157 57 -228t173 -71q128 0 206 124.5t78 334.5q0 187 -81 253q-53 43 -67 64.5t-14 56.5q0 82 86 82
q76 0 121 -102.5t45 -261.5q0 -186 -52.5 -337.5t-148 -237t-216.5 -85.5zM848 1315q0 -44 -25.5 -72.5t-67.5 -28.5t-69 28.5t-27 72.5q0 43 27 71.5t69 28.5t67.5 -28.5t25.5 -71.5zM393 1315q0 -44 -27 -72.5t-69 -28.5t-67 28.5t-25 72.5q0 43 25 71.5t67 28.5t69 -28.5
t27 -71.5zM479 1143h-43l74 375h159v-19z" />
    <glyph glyph-name="alpha" unicode="&#x3b1;" horiz-adv-x="1075" 
d="M1077 16q-83 -32 -135 -32q-126 0 -156 264q-51 -130 -134.5 -202.5t-198.5 -72.5q-109 0 -196.5 64.5t-136 181.5t-48.5 266q0 147 54.5 269t150.5 190t210 68q216 0 312 -275l28 244h109q-11 -122 -82 -500q2 -137 31.5 -247.5t72.5 -137.5q34 -12 59 -14t60 -2v-64z
M506 942q-134 0 -218.5 -125t-84.5 -336q0 -183 81.5 -300.5t211.5 -117.5q121 0 193.5 117.5t84.5 333.5q-15 196 -88 312t-180 116z" />
    <glyph glyph-name="beta" unicode="&#x3b2;" horiz-adv-x="1026" 
d="M948 496q0 -146 -54 -265.5t-147 -187.5t-202 -68q-74 0 -134 17.5t-114 58.5h-8v-495h-117v1448q0 185 21.5 267t74.5 146t126.5 98.5t160.5 34.5q153 0 246.5 -86.5t93.5 -234.5q0 -125 -82.5 -209t-239.5 -113v-6q176 -17 275.5 -123.5t99.5 -281.5zM817 492
q0 181 -86 269.5t-244 88.5h-34v88h24q82 0 149 33.5t105.5 97t38.5 150.5q0 120 -58 189t-157 69q-132 0 -199 -107t-67 -311v-856q41 -85 101.5 -122.5t141.5 -37.5t146.5 56t102 157t36.5 236z" />
    <glyph glyph-name="gamma" unicode="&#x3b3;" horiz-adv-x="954" 
d="M545 -330q0 -53 -21 -83.5t-57 -30.5q-34 0 -52 26.5t-18 73.5q0 67 14 166t33 180q-90 335 -299 825q-19 45 -54 63.5t-97 22.5v64l207 18l14 -14q99 -238 180 -476.5t99 -357.5q29 88 123 297q83 184 83 295q0 45 -15 138l-3 36q0 46 23 72.5t65 26.5q37 0 61.5 -29.5
t24.5 -85.5q0 -147 -139 -415q-145 -280 -201 -457q29 -245 29 -355z" />
    <glyph glyph-name="delta" unicode="&#x3b4;" horiz-adv-x="969" 
d="M768 473q0 156 -70 267t-200 171q-133 -15 -214 -142t-81 -296q0 -191 80.5 -310.5t208.5 -119.5q122 0 199 122t77 308zM160 1280q0 72 43 134t121.5 99t183.5 37q131 0 224 -61.5t93 -153.5q0 -44 -22.5 -74t-61.5 -30q-35 0 -58.5 25t-23.5 59q0 15 2 31t19 88
q-74 45 -178 45q-97 0 -158 -53.5t-61 -135.5q0 -77 52.5 -135t221.5 -156q185 -105 262.5 -219.5t77.5 -298.5q0 -140 -54 -258t-148 -186t-208 -68q-116 0 -211 65.5t-149.5 183t-54.5 259.5q0 186 96.5 316t261.5 161v7q-150 75 -210 148.5t-60 170.5z" />
    <glyph glyph-name="epsilon" unicode="&#x3b5;" horiz-adv-x="815" 
d="M428 -27q-163 0 -254.5 76.5t-91.5 212.5q0 79 39 134.5t104.5 86.5t147.5 33v10q-254 44 -254 234q0 71 38.5 128t110 89.5t174.5 32.5q89 0 160.5 -30t111.5 -82t40 -112q0 -108 -80 -108q-37 0 -56.5 23t-19.5 57q0 49 14 131q-26 18 -71 33.5t-95 15.5
q-93 0 -147.5 -53.5t-54.5 -141.5t56.5 -135t158.5 -47h61v-88h-74q-108 0 -172.5 -55t-64.5 -146q0 -99 65 -154t175 -55q101 0 175.5 50.5t137.5 167.5l53 -29q-66 -145 -161 -212t-226 -67z" />
    <glyph glyph-name="zeta" unicode="&#x3b6;" horiz-adv-x="756" 
d="M797 1368l-123 -118q-239 -230 -352 -422t-113 -359q0 -148 65 -235t185 -101q24 -4 85 -6q118 -5 173 -58.5t55 -166.5q0 -80 -44 -153.5t-120.5 -116t-169.5 -42.5q-65 0 -100 24.5t-35 70.5q0 30 23.5 49.5t62.5 19.5q27 0 57 -12t97 -59q31 2 68.5 28.5t61 69.5
t23.5 98q0 53 -29 81.5t-112 41.5l-100 8q-100 5 -184 59.5t-130.5 145t-46.5 201.5q0 132 59.5 268t177 286.5t355.5 381.5v8q-272 -17 -373 -17q-83 0 -124.5 28t-41.5 73q0 43 24.5 67.5t66.5 24.5q35 0 60.5 -18.5t50.5 -40t54.5 -40t73.5 -18.5q85 0 163.5 6.5
t156.5 12.5v-70z" />
    <glyph glyph-name="eta" unicode="&#x3b7;" horiz-adv-x="1020" 
d="M856 -444h-117v1116q0 109 -48 176t-134 67q-56 0 -110 -25.5t-94 -65t-50 -70.5v-754h-117v782q0 60 -29.5 95.5t-101.5 35.5v64l236 18l12 -14v-135h4q76 88 150.5 127t154.5 39q114 0 179 -86t65 -246v-1124z" />
    <glyph glyph-name="theta" unicode="&#x3b8;" horiz-adv-x="1012" 
d="M922 762q0 -225 -51.5 -409.5t-145.5 -284t-217 -99.5q-191 0 -304.5 226.5t-113.5 564.5q0 231 53.5 415t148 279.5t216.5 95.5q121 0 214 -96t146.5 -280.5t53.5 -411.5zM791 829q0 208 -34.5 351.5t-98 220t-150.5 76.5q-134 0 -207.5 -170.5t-75.5 -477.5h566z
M791 748h-566v-17q0 -326 73.5 -507t209.5 -181q86 0 149.5 79.5t98.5 232.5t35 376v17z" />
    <glyph glyph-name="iota" unicode="&#x3b9;" horiz-adv-x="524" 
d="M496 4q-93 -22 -164 -22q-62 0 -99.5 45t-37.5 133v624q0 46 -19 77t-55.5 41.5t-75.5 10.5v64l256 18l10 -14v-817q0 -57 25 -81t92 -24h68v-55z" />
    <glyph glyph-name="kappa" unicode="&#x3ba;" horiz-adv-x="930" 
d="M948 29q-106 -45 -172 -45q-47 0 -86 38t-101 139.5t-186 344.5l-100 -121v-385h-117v782q0 131 -131 131v64l234 18l14 -14v-506l181 229q114 144 165 198t83.5 72.5t68.5 18.5q43 0 65.5 -25.5t22.5 -70.5q0 -31 -24.5 -55.5t-67.5 -24.5q-26 0 -97 19
q-94 -71 -223 -240q110 -203 175.5 -308t114.5 -158.5t97 -53.5t84 8v-55z" />
    <glyph glyph-name="lambda" unicode="&#x3bb;" horiz-adv-x="932" 
d="M94 1460q0 40 31.5 65t79.5 25q53 0 95 -42.5t92 -164.5t119.5 -323t140.5 -438q90 -300 121.5 -377t59.5 -101t85 -24h45v-62q-88 -34 -144 -34q-55 0 -86.5 39.5t-52.5 123.5l-38 153q-84 344 -146 542q-76 -170 -188 -427.5t-130 -303.5t-39 -111h-145l450 991
q-79 254 -163 373q-101 0 -144 22.5t-43 73.5z" />
    <glyph glyph-name="uni03BC" unicode="&#x3bc;" horiz-adv-x="1006" 
d="M993 18q-79 -30 -131 -30q-125 0 -139 147h-6q-58 -64 -99 -92.5t-89 -43.5t-107 -15q-61 0 -115.5 28t-70.5 62h-5v-72q0 -92 26 -197q26 -106 26 -161q0 -38 -20.5 -63t-57.5 -25q-38 0 -57 22t-19 53q0 56 26 221q19 120 19 279v852h117v-684q0 -112 43 -168.5
t135 -56.5q57 0 107.5 22.5t90 57.5t58.5 73v756h111v-786q0 -71 30 -94t127 -23v-62z" />
    <glyph glyph-name="nu" unicode="&#x3bd;" horiz-adv-x="936" 
d="M483 184l111 251q106 235 106 325q0 40 -7 82.5t-7 77.5q0 37 24 64.5t58 27.5q42 0 66 -27.5t24 -81.5q0 -45 -18.5 -100.5t-77.5 -171.5q-207 -403 -267 -575l-22 -64h-37l-81 235q-124 360 -216 600q-17 45 -52 64.5t-97 21.5v64l223 18l10 -14q2 -21 45 -147
l156 -464z" />
    <glyph glyph-name="xi" unicode="&#x3be;" horiz-adv-x="815" 
d="M756 1358h-27q-122 0 -229 -38.5t-165.5 -108.5t-58.5 -162q0 -112 86 -177t224 -65h125v-88h-121q-176 0 -280.5 -83t-104.5 -226q0 -85 33 -148.5t92.5 -99t130.5 -35.5h108q119 0 184.5 -58.5t65.5 -166.5q0 -76 -41.5 -147t-114 -113.5t-159.5 -42.5q-82 0 -126 26.5
t-44 63.5q0 65 82 65q29 0 65 -14t103 -57q37 2 74 28t59 68t22 100q0 62 -42.5 94.5t-125.5 32.5h-114q-99 0 -184.5 46t-136 130t-50.5 189q0 102 51 186.5t138.5 137.5t191.5 67v6q-153 25 -231 98.5t-78 180.5q0 103 91.5 188t237.5 123v8l-251 -4q-90 0 -139.5 26
t-49.5 76q0 41 22 63.5t62 22.5q37 0 67 -18t58.5 -39t59.5 -39t69 -18q208 0 371 14v-92z" />
    <glyph glyph-name="omicron" unicode="&#x3bf;" horiz-adv-x="969" 
d="M897 504q0 -154 -51.5 -276t-147 -190.5t-221.5 -68.5q-110 0 -204 67t-147.5 186t-53.5 265q0 235 116.5 379t305.5 144q179 0 291 -140.5t112 -365.5zM766 502q0 203 -73.5 319.5t-203.5 116.5q-139 0 -213.5 -118t-74.5 -314q0 -210 77.5 -336.5t210.5 -126.5
q128 0 202.5 126.5t74.5 332.5z" />
    <glyph glyph-name="pi" unicode="&#x3c0;" horiz-adv-x="1116" 
d="M246 131q56 99 92.5 256.5t36.5 306.5q0 73 -6 187h-27q-175 0 -180 -195h-60q-10 52 -10 98q0 82 69 140.5t177 58.5h711v-102h-197v-705q0 -54 24.5 -79t84.5 -25q55 0 67 4v-68q-34 -11 -81 -18.5t-81 -7.5q-133 0 -133 170v729h-278q6 -96 6 -181q0 -169 -50 -363.5
t-111.5 -274.5t-147.5 -80q-37 0 -59.5 23t-22.5 58q0 38 23 62.5t65 24.5q43 0 88 -19z" />
    <glyph glyph-name="rho" unicode="&#x3c1;" horiz-adv-x="1004" 
d="M932 506q0 -149 -53 -272.5t-145.5 -192t-203.5 -68.5q-145 0 -241 78h-8v-495h-117v950q0 246 98.5 375t290.5 129q173 0 276 -135t103 -369zM801 506q0 211 -65 319.5t-195 108.5q-137 0 -198.5 -118.5t-61.5 -397.5v-215q25 -69 92 -116.5t149 -47.5q125 0 202 127
t77 340z" />
    <glyph glyph-name="sigma1" unicode="&#x3c2;" horiz-adv-x="770" 
d="M457 938q-74 0 -140.5 -56.5t-99.5 -149.5t-33 -214q0 -145 46.5 -231t150.5 -127q55 -22 174 -54q90 -22 134 -68t44 -128q0 -134 -90 -226t-229 -92q-82 0 -118 26.5t-36 64.5q0 35 23 52t55 17q50 0 118 -45l38 -26q71 8 114 59t43 129q0 57 -30.5 85.5t-85.5 45.5
l-49 14q-121 32 -173 54q-241 99 -241 413q0 151 48.5 270t141 189t195.5 70q113 0 195.5 -61.5t82.5 -157.5q0 -105 -76 -105q-33 0 -53 21t-20 57q0 47 12 127q-54 47 -141 47z" />
    <glyph glyph-name="sigma" unicode="&#x3c3;" horiz-adv-x="1028" 
d="M766 498q0 115 -29.5 221t-79.5 164h-65q-393 0 -393 -416q0 -114 36.5 -212t103 -155t150.5 -57q127 0 202 127t75 328zM1012 883h-254v-2q62 -60 99.5 -166t37.5 -221q0 -230 -115.5 -377.5t-300.5 -147.5q-111 0 -205.5 63t-149 177.5t-54.5 253.5q0 247 139.5 383.5
t394.5 136.5h408v-100z" />
    <glyph glyph-name="tau" unicode="&#x3c4;" horiz-adv-x="809" 
d="M768 883h-326v-598q0 -113 29 -158t100 -45q59 0 121 20v-59q-111 -61 -200 -61q-78 0 -123 55t-45 156v690h-33q-87 0 -133.5 -44.5t-53.5 -150.5h-57q-10 53 -10 88q0 88 66 147.5t173 59.5h492v-100z" />
    <glyph glyph-name="upsilon" unicode="&#x3c5;" horiz-adv-x="1004" 
d="M494 -27q-153 0 -230.5 92t-77.5 265v68l2 363v62q0 72 -79 72q-50 0 -86 -6v55q40 21 86.5 35t76.5 14q48 0 74.5 -16.5t38.5 -50.5t12 -117l-4 -428q0 -157 57 -228t173 -71q128 0 206 124.5t78 334.5q0 187 -81 253q-53 43 -67 64.5t-14 56.5q0 82 86 82
q76 0 121 -102.5t45 -261.5q0 -186 -52.5 -337.5t-148 -237t-216.5 -85.5z" />
    <glyph glyph-name="phi" unicode="&#x3c6;" horiz-adv-x="1225" 
d="M1153 524q0 -160 -62.5 -283t-173 -193.5t-245.5 -76.5v-415h-119v415q-226 12 -353.5 149.5t-127.5 368.5q0 405 370 510l19 -67q-129 -42 -194.5 -155.5t-65.5 -287.5q0 -202 95.5 -322.5t256.5 -123.5v725q0 118 64 181t174 63q97 0 181 -63.5t132.5 -176t48.5 -248.5
zM1022 532q0 183 -65 293.5t-171 110.5q-53 0 -83.5 -45.5t-30.5 -124.5v-723q167 11 258.5 138t91.5 351z" />
    <glyph glyph-name="chi" unicode="&#x3c7;" horiz-adv-x="893" 
d="M483 369q163 305 224 448l21 48l50 118h142l-375 -709q86 -194 157 -340t103 -194t65.5 -67t92.5 -19h34v-60q-100 -38 -159 -38q-46 0 -81 29.5t-69.5 103.5t-101.5 262l-88 239l-62 -117q-195 -362 -256 -517h-137l395 731q-88 202 -156.5 338t-102.5 182.5t-71.5 65
t-109.5 18.5v59q101 45 160 45q38 0 64.5 -14.5t48 -47t61.5 -134.5q32 -84 68.5 -197t82.5 -233z" />
    <glyph glyph-name="psi" unicode="&#x3c8;" horiz-adv-x="1331" 
d="M186 377v64l2 327v59q0 68 -79 68q-44 0 -86 -6v55q40 21 86.5 35t76.5 14q48 0 74.5 -16.5t38.5 -50.5t12 -117l-4 -436q0 -92 42.5 -163.5t126 -113.5t175.5 -45v932h119v-932q174 12 287.5 149.5t113.5 344.5q0 183 -73 257q-56 55 -65 73.5t-9 44.5q0 35 22 56t64 21
q70 0 110 -92.5t40 -240.5q0 -301 -128 -483t-362 -210v-415h-119v415q-231 16 -348 120t-117 286z" />
    <glyph glyph-name="omega" unicode="&#x3c9;" horiz-adv-x="1323" 
d="M850 993q190 -25 295.5 -162.5t105.5 -359.5q0 -220 -95.5 -361t-246.5 -141q-87 0 -149 46t-103 145q-34 -85 -101 -138t-163 -53q-144 0 -232.5 136.5t-88.5 363.5q0 221 106 360t293 164l16 -63q-143 -23 -214.5 -135.5t-71.5 -325.5q0 -200 54 -309t155 -109
q89 0 140.5 68t51.5 198v332h117v-332q0 -266 174 -266q105 0 166 113t61 305q0 410 -284 461z" />
    <glyph glyph-name="iotadieresis" unicode="&#x3ca;" horiz-adv-x="524" 
d="M496 4q-93 -22 -164 -22q-62 0 -99.5 45t-37.5 133v624q0 46 -19 77t-55.5 41.5t-75.5 10.5v64l256 18l10 -14v-817q0 -57 25 -81t92 -24h68v-55zM160 1370q0 -42 -23 -71t-65 -29t-65 29t-23 71q0 43 23 73t65 30t65 -30t23 -73zM526 1370q0 -42 -23 -71t-65 -29t-65 29
t-23 71q0 43 23 73t65 30t65 -30t23 -73z" />
    <glyph glyph-name="upsilondieresis" unicode="&#x3cb;" horiz-adv-x="1004" 
d="M494 -27q-153 0 -230.5 92t-77.5 265v68l2 363v62q0 72 -79 72q-50 0 -86 -6v55q40 21 86.5 35t76.5 14q48 0 74.5 -16.5t38.5 -50.5t12 -117l-4 -428q0 -157 57 -228t173 -71q128 0 206 124.5t78 334.5q0 187 -81 253q-53 43 -67 64.5t-14 56.5q0 82 86 82
q76 0 121 -102.5t45 -261.5q0 -186 -52.5 -337.5t-148 -237t-216.5 -85.5zM430 1370q0 -42 -23 -71t-65 -29t-65 29t-23 71q0 43 23 73t65 30t65 -30t23 -73zM796 1370q0 -42 -23 -71t-65 -29t-65 29t-23 71q0 43 23 73t65 30t65 -30t23 -73z" />
    <glyph glyph-name="omicrontonos" unicode="&#x3cc;" horiz-adv-x="969" 
d="M897 504q0 -154 -51.5 -276t-147 -190.5t-221.5 -68.5q-110 0 -204 67t-147.5 186t-53.5 265q0 235 116.5 379t305.5 144q179 0 291 -140.5t112 -365.5zM766 502q0 203 -73.5 319.5t-203.5 116.5q-139 0 -213.5 -118t-74.5 -314q0 -210 77.5 -336.5t210.5 -126.5
q128 0 202.5 126.5t74.5 332.5zM486 1143h-54l74 416h180v-19z" />
    <glyph glyph-name="upsilontonos" unicode="&#x3cd;" horiz-adv-x="1004" 
d="M494 -27q-153 0 -230.5 92t-77.5 265v68l2 363v62q0 72 -79 72q-50 0 -86 -6v55q40 21 86.5 35t76.5 14q48 0 74.5 -16.5t38.5 -50.5t12 -117l-4 -428q0 -157 57 -228t173 -71q128 0 206 124.5t78 334.5q0 187 -81 253q-53 43 -67 64.5t-14 56.5q0 82 86 82
q76 0 121 -102.5t45 -261.5q0 -186 -52.5 -337.5t-148 -237t-216.5 -85.5zM508 1143h-54l74 416h180v-19z" />
    <glyph glyph-name="omegatonos" unicode="&#x3ce;" horiz-adv-x="1323" 
d="M850 993q190 -25 295.5 -162.5t105.5 -359.5q0 -220 -95.5 -361t-246.5 -141q-87 0 -149 46t-103 145q-34 -85 -101 -138t-163 -53q-144 0 -232.5 136.5t-88.5 363.5q0 221 106 360t293 164l16 -63q-143 -23 -214.5 -135.5t-71.5 -325.5q0 -200 54 -309t155 -109
q89 0 140.5 68t51.5 198v332h117v-332q0 -266 174 -266q105 0 166 113t61 305q0 410 -284 461zM668 1143h-54l74 416h180v-19z" />
    <glyph glyph-name="uni0401" unicode="&#x401;" horiz-adv-x="1237" 
d="M1155 0h-1063v70q110 10 131 18q51 21 51 100v1029q0 49 -19 73.5t-77 42t-84 17.5v69h979v-332h-63q-28 126 -76 185.5t-121 64.5q-74 6 -184 6h-211v-569h145q74 0 117 15.5t71 60t44 149.5h63v-538h-63q-3 66 -29 130.5t-71.5 84.5t-131.5 20h-145v-434
q0 -86 22 -121.5t78 -49t207 -13.5q126 0 183 15t86 51t61.5 109t54.5 153h72zM516 1745q0 -42 -23 -71t-65 -29t-65 29t-23 71q0 43 23 72.5t65 29.5t65 -29.5t23 -72.5zM924 1745q0 -42 -23 -71t-65 -29t-65 29t-23 71q0 43 23 72.5t65 29.5t65 -29.5t23 -72.5z" />
    <glyph glyph-name="uni0402" unicode="&#x402;" horiz-adv-x="1425" 
d="M297 0v70q42 0 105 11.5t84.5 38.5t21.5 73v1155h-43q-117 0 -178.5 -10.5t-107.5 -52.5t-70.5 -110.5t-24.5 -130.5h-70v375h1155v-375h-71q-7 116 -41 183t-98 94t-236 27h-72v-580q193 119 359 119q107 0 193 -54t133.5 -152.5t47.5 -223.5q0 -135 -51.5 -247.5
t-141 -174.5t-198.5 -62q-94 0 -148 39.5t-54 102.5q0 39 24 64.5t66 25.5q77 0 123 -99l28 -63q88 14 143.5 115.5t55.5 251.5q0 174 -81.5 265t-229.5 91q-62 0 -121.5 -15t-147.5 -57v-694h-354z" />
    <glyph glyph-name="uni0403" unicode="&#x403;" horiz-adv-x="1057" 
d="M979 1036q-61 281 -180 297q-79 10 -219 10h-162v-1142q0 -69 39.5 -100t160.5 -31v-70h-526v70q119 0 150.5 24.5t31.5 87.5v1035q0 50 -18.5 73t-63 38t-100.5 22v69h950v-383h-63zM485 1518l-29 38l205 199q80 81 103 97t51 16q26 0 44.5 -20.5t18.5 -49.5
q0 -32 -16 -56t-72 -56z" />
    <glyph glyph-name="uni0404" unicode="&#x404;" horiz-adv-x="1204" 
d="M248 705q89 60 149 85t109 25q46 0 82 -12.5t69 -27.5t65 -27.5t71 -12.5q66 0 133 62l39 -47q-125 -125 -240 -125q-44 0 -79 13t-68 28t-67.5 28t-78.5 13q-93 0 -180 -72q11 -165 73.5 -300t164 -210.5t225.5 -75.5q176 0 289 113l-3 25q-10 80 -10 104q0 53 25 84
t65 31q39 0 61.5 -27t22.5 -72q0 -86 -64.5 -165.5t-175 -126t-239.5 -46.5q-178 0 -315 91.5t-212 258t-75 377.5q0 210 80.5 383t221 271t302.5 98q194 0 334 -102l33 73h65l10 -499h-71q-23 202 -119 325t-238 123q-133 0 -237 -81t-160.5 -231.5t-56.5 -350.5z" />
    <glyph glyph-name="uni0405" unicode="&#x405;" horiz-adv-x="1040" 
d="M958 399q0 -121 -55 -219t-151 -151.5t-213 -53.5q-187 0 -318 97l-31 -72h-67l-14 473h67q40 -218 132.5 -318t242.5 -100q139 0 207.5 74.5t68.5 206.5q0 187 -155 262q-56 27 -146 63q-151 60 -210.5 98.5t-97 84.5t-56.5 104.5t-19 132.5q0 100 49 184.5t132.5 133.5
t177.5 49q182 0 301 -100l33 71h65l8 -465h-69q-42 224 -124 318t-216 94q-102 0 -168 -64t-66 -165q0 -123 62 -192t267 -144q147 -54 218.5 -105.5t108 -124.5t36.5 -172z" />
    <glyph glyph-name="uni0406" unicode="&#x406;" horiz-adv-x="692" 
d="M84 0v70q105 8 136.5 19.5t42.5 36.5t11 54v1039q0 40 -20.5 67t-73.5 44t-96 20v69h526v-69q-47 -3 -103.5 -18.5t-72.5 -41t-16 -61.5v-1034q0 -64 43.5 -91t148.5 -34v-70h-526z" />
    <glyph glyph-name="uni0407" unicode="&#x407;" horiz-adv-x="692" 
d="M84 0v70q105 8 136.5 19.5t42.5 36.5t11 54v1039q0 40 -20.5 67t-73.5 44t-96 20v69h526v-69q-47 -3 -103.5 -18.5t-72.5 -41t-16 -61.5v-1034q0 -64 43.5 -91t148.5 -34v-70h-526zM231 1745q0 -42 -23 -71t-65 -29t-65 29t-23 71q0 43 23 72.5t65 29.5t65 -29.5
t23 -72.5zM639 1745q0 -42 -23 -71t-65 -29t-65 29t-23 71q0 43 23 72.5t65 29.5t65 -29.5t23 -72.5z" />
    <glyph glyph-name="uni0408" unicode="&#x408;" horiz-adv-x="922" 
d="M866 1350q-33 0 -88.5 -12.5t-72.5 -36t-17 -74.5v-836q0 -193 -98 -308.5t-262 -115.5q-148 0 -234 90.5t-86 247.5q0 70 31 112t82 42q52 0 76 -29t24 -68q0 -30 -11.5 -57.5t-25.5 -55t-27.5 -56t-17.5 -60.5q33 -48 82.5 -74t108.5 -26q115 0 164 102t49 299v783
q0 46 -24 74.5t-76.5 43.5t-94.5 15v69h518v-69z" />
    <glyph glyph-name="uni0409" unicode="&#x409;" horiz-adv-x="1851" 
d="M1599 432q0 135 -81.5 218t-225.5 83q-93 0 -176 -8v-508q0 -67 12.5 -94t43.5 -38t116 -11q96 0 166 42t107.5 125.5t37.5 190.5zM621 1341q0 -354 -41.5 -611t-109 -423.5t-152.5 -246.5t-173 -80q-74 0 -113.5 33.5t-39.5 90.5q0 36 23.5 64.5t70.5 28.5
q38 0 67 -25.5t60 -97.5q48 29 102 108.5t99 208.5t74.5 306.5t29.5 404.5q0 80 -8.5 123.5t-28 64t-54 33.5t-120.5 27v69h965v-69q-39 0 -83.5 -14.5t-58.5 -37.5t-14 -71v-428q88 6 182 6q232 0 351.5 -100.5t119.5 -290.5q0 -127 -60 -220.5t-166 -143.5t-232 -50h-498
v70q33 0 80.5 7.5t63.5 30t16 74.5v1159h-352z" />
    <glyph glyph-name="uni040A" unicode="&#x40a;" horiz-adv-x="1950" 
d="M1698 432q0 142 -85.5 221.5t-228.5 79.5q-87 0 -170 -8v-522q0 -56 13 -82.5t44.5 -36.5t106.5 -10q100 0 171.5 41.5t110 124t38.5 192.5zM1071 711h-653v-514q0 -65 32 -92t123 -35v-70h-462v70l27 2q91 5 113.5 30t22.5 84v1031q0 41 -17.5 67.5t-63 43.5t-80.5 20
v71h460v-69q-44 -3 -88.5 -17t-55.5 -40t-11 -66v-436h653v426q0 80 -49.5 101t-110.5 32v69h469v-69q-31 0 -82.5 -13.5t-67.5 -39.5t-16 -76v-422q78 6 185 6q232 0 350.5 -100.5t118.5 -290.5q0 -127 -60 -220.5t-166 -143.5t-239 -50h-494v70q81 6 110 13.5t40.5 30.5
t11.5 68v529z" />
    <glyph glyph-name="uni040B" unicode="&#x40b;" horiz-adv-x="1581" 
d="M1098 1044q-7 116 -41 183t-98 94t-236 27h-72v-588q193 119 363 119q179 0 265.5 -95t86.5 -307v-272q0 -48 16 -73t67.5 -43.5t80.5 -18.5v-70h-473v70q32 0 82.5 11.5t65 37.5t14.5 74v296q0 281 -269 281q-76 0 -140.5 -17t-158.5 -67v-483q0 -47 19.5 -74.5t74 -43
t80.5 -15.5v-70h-528v70q42 0 105 11.5t84.5 38.5t21.5 73v1155h-43q-117 0 -178.5 -10.5t-107.5 -52.5t-70.5 -110.5t-24.5 -130.5h-70v375h1155v-375h-71z" />
    <glyph glyph-name="uni040C" unicode="&#x40c;" horiz-adv-x="1241" 
d="M418 197q0 -60 20.5 -83.5t60.5 -33.5t79 -10v-70h-459v70q71 6 91 10.5t35.5 17.5t22 35t6.5 49v1035q0 77 -49.5 102.5t-105.5 30.5v69h459v-69q-52 -4 -94.5 -19.5t-54 -38t-11.5 -65.5v-492h78q52 0 90 32t61 84.5t66 197.5q34 116 77 196.5t113.5 132.5t155.5 52
q78 0 115.5 -29.5t37.5 -71.5q0 -37 -21.5 -61.5t-57.5 -24.5q-97 0 -129 129q-53 -29 -89.5 -93.5t-72.5 -189.5q-38 -128 -84 -216t-109 -146v-12q98 -29 157.5 -83t115.5 -163l68 -142q47 -105 72.5 -154t46.5 -67t68 -27t83 -9v-70h-297q-51 138 -124.5 304.5
t-117.5 230.5t-93.5 92t-135.5 28h-74v-458zM561 1518l-29 38l205 199q80 81 103 97t51 16q26 0 44.5 -20.5t18.5 -49.5q0 -32 -16 -56t-72 -56z" />
    <glyph glyph-name="uni040E" unicode="&#x40e;" horiz-adv-x="1212" 
d="M-37 1350v69h475v-69l-49 -4q-98 -8 -98 -43q0 -12 8 -36t152.5 -335t212.5 -449q165 397 225.5 567t60.5 220q0 37 -32 56t-109 24v69h448v-69q-42 -5 -83.5 -23t-67 -45t-57.5 -98l-178 -414l-169 -387q-97 -208 -195.5 -302.5t-223.5 -94.5q-71 0 -116.5 40t-45.5 103
q0 45 25.5 66.5t60.5 21.5q42 0 71.5 -29t53.5 -112q67 11 126.5 68t125.5 184l-245 529l-169 357q-32 63 -78.5 96t-128.5 40zM828 1655q-9 25 -20 54t-11 65q0 43 22 68.5t56 25.5q40 0 64 -28t24 -79q0 -62 -43.5 -118t-120 -87.5t-178.5 -31.5q-104 0 -181 31.5t-118 86
t-41 119.5q0 51 24.5 79t61.5 28q31 0 54.5 -22t23.5 -72q0 -36 -10.5 -65t-18.5 -54q54 -68 205 -68q146 0 207 68z" />
    <glyph glyph-name="uni040F" unicode="&#x40f;" horiz-adv-x="1487" 
d="M928 0q-55 0 -94 -94t-50 -250h-79q-11 159 -50 251.5t-96 92.5h-446v70l28 2q72 5 93.5 18.5t30.5 38t9 53.5v1035q0 79 -64 106t-97 27v69h454v-69q-29 0 -77 -13t-60 -34t-12 -76v-1034q0 -32 14 -58.5t35.5 -39t80.5 -15t189 -2.5h65q128 0 182 3.5t68.5 23
t14.5 65.5v1047q0 34 -7.5 59t-33.5 41q-82 33 -111 33v69h459v-69q-32 0 -97 -27.5t-65 -105.5v-1035q0 -73 52 -98q7 -3 20.5 -5.5t89.5 -8.5v-70h-446z" />
    <glyph glyph-name="uni0410" unicode="&#x410;" horiz-adv-x="1274" 
d="M817 0v70q81 4 125.5 19.5t44.5 37.5q0 29 -14 68l-101 305h-493q-27 -67 -57.5 -153.5t-38 -121t-7.5 -67.5q0 -40 56 -63t145 -25v-70h-512v70q67 5 113 31t81.5 103t195.5 465t307 771h20q161 -483 426 -1225q24 -60 54.5 -90.5t71.5 -42.5t75 -12v-70h-492zM641 1163
l-227 -581h432z" />
    <glyph glyph-name="uni0411" unicode="&#x411;" horiz-adv-x="1159" 
d="M418 797q112 8 200 8q233 0 353.5 -100.5t120.5 -290.5q0 -128 -59 -221t-165 -143t-235 -50h-529v70q38 0 86.5 8t66 28t17.5 82v1029q0 40 -20.5 69.5t-65 46.5t-75.5 17v69h897v-354h-72q-7 117 -40 178.5t-96 83t-239 21.5h-145v-551zM922 428q0 141 -83 223t-225 82
q-73 0 -196 -10v-500q0 -88 35 -118.5t129 -30.5q122 0 196.5 38.5t109 112.5t34.5 203z" />
    <glyph glyph-name="uni0412" unicode="&#x412;" horiz-adv-x="1192" 
d="M1100 385q0 -109 -56.5 -198.5t-157 -138t-231.5 -48.5h-546v70q37 0 81 10t64 36.5t20 69.5v1031q0 43 -17.5 71t-61 45t-76.5 17v69h538q101 0 185.5 -38t132 -107t47.5 -162q0 -131 -82 -222t-235 -126v-4q194 -32 294.5 -128.5t100.5 -246.5zM854 1096q0 128 -62 189
t-192 61l-182 -5v-555h157q141 0 210 74.5t69 235.5zM928 418q0 134 -84.5 215.5t-222.5 81.5q-135 0 -203 -4v-492v-13q0 -132 194 -132q165 0 240.5 86t75.5 258z" />
    <glyph glyph-name="uni0413" unicode="&#x413;" horiz-adv-x="1057" 
d="M979 1036q-61 281 -180 297q-79 10 -219 10h-162v-1142q0 -69 39.5 -100t160.5 -31v-70h-526v70q119 0 150.5 24.5t31.5 87.5v1035q0 50 -18.5 73t-63 38t-100.5 22v69h950v-383h-63z" />
    <glyph glyph-name="uni0414" unicode="&#x414;" horiz-adv-x="1341" 
d="M188 0q-26 -11 -49.5 -61.5t-43 -142.5t-19.5 -128h-74v410h135q128 189 208.5 489.5t80.5 565.5q0 62 -9 100.5t-29 60t-67.5 37t-103.5 19.5v69h1006v-69q-49 0 -89 -13.5t-53.5 -38t-13.5 -71.5v-1051q0 -54 26 -75t85 -21h69v-412h-73q0 48 -16 135t-37.5 135.5
t-47.5 61.5h-885zM924 1341h-392l1 -53q0 -337 -72.5 -661t-208.5 -549h573q99 0 99 88v1175z" />
    <glyph glyph-name="uni0415" unicode="&#x415;" horiz-adv-x="1237" 
d="M1155 0h-1063v70q110 10 131 18q51 21 51 100v1029q0 49 -19 73.5t-77 42t-84 17.5v69h979v-332h-63q-28 126 -76 185.5t-121 64.5q-74 6 -184 6h-211v-569h145q74 0 117 15.5t71 60t44 149.5h63v-538h-63q-3 66 -29 130.5t-71.5 84.5t-131.5 20h-145v-434
q0 -86 22 -121.5t78 -49t207 -13.5q126 0 183 15t86 51t61.5 109t54.5 153h72z" />
    <glyph glyph-name="uni0416" unicode="&#x416;" horiz-adv-x="1776" 
d="M815 1217q0 43 -13 68t-64 45t-79 20v69h467v-69q-31 0 -84 -14.5t-67 -39.5t-14 -69v-492h77q53 0 91.5 32.5t61.5 85.5t65 196q33 112 75 193t113.5 134.5t157.5 53.5q78 0 115.5 -29.5t37.5 -71.5q0 -38 -22 -62t-58 -24q-97 0 -129 129q-53 -29 -89.5 -95t-71.5 -188
q-38 -128 -84 -216t-109 -146v-12q97 -29 156.5 -82t115.5 -164l68 -142q47 -105 72.5 -154t46 -67t67 -27t78.5 -9v-70h-291q-63 170 -135 329.5t-114.5 217.5t-91 83t-130.5 25h-73v-458q0 -30 7.5 -54t26 -39t66 -24.5t65.5 -9.5v-70h-467v70q38 0 81.5 7.5t59 33.5
t15.5 71v473h-74q-85 0 -134.5 -27.5t-94 -91t-117 -228.5t-125.5 -308h-290v70q29 0 79.5 9.5t71.5 32t53 87.5l60 128q96 216 163.5 286.5t176.5 101.5v12q-64 59 -109.5 147t-82.5 215q-37 126 -74 190.5t-89 92.5q-32 -129 -129 -129q-38 0 -59 22.5t-21 53.5
q0 46 38 78.5t116 32.5q85 0 155.5 -52t113.5 -133.5t77 -195.5q47 -157 71 -207.5t62 -78.5t90 -28h72v482z" />
    <glyph glyph-name="uni0417" unicode="&#x417;" horiz-adv-x="1098" 
d="M1010 412q0 -202 -136.5 -322.5t-363.5 -120.5q-129 0 -237 46t-169 124t-61 166q0 57 23 91t69 34q38 0 60 -25t22 -59q0 -51 -24 -147q13 -33 57 -69t107 -58.5t139 -22.5q161 0 250.5 94.5t89.5 264.5q0 144 -81 220.5t-227 76.5h-135v96h96q293 0 293 313
q0 127 -57 190.5t-166 63.5q-136 0 -224.5 -104.5t-127.5 -341.5h-66l9 497h65l33 -73q140 102 317 102q124 0 212.5 -39.5t131.5 -117t43 -171.5q0 -125 -83.5 -216t-235.5 -132v-12q115 -10 203 -58t131 -122.5t43 -167.5z" />
    <glyph glyph-name="uni0418" unicode="&#x418;" horiz-adv-x="1487" 
d="M903 1419h465v-69q-30 0 -73.5 -13.5t-57 -25.5t-19.5 -35.5t-6 -48.5v-1030q0 -67 50 -103q7 -7 46 -15.5t60 -8.5v-70h-463v70l27 3q72 6 90 11q49 25 49 100v903l-661 -878v-35q0 -46 49 -80q7 -7 48.5 -15.5t65.5 -8.5v-70h-460v70l26 2q66 4 84 12q51 25 51 98v1035
q0 69 -51 100q-74 33 -110 33v69h458v-69q-28 0 -73 -13.5t-58.5 -25t-19.5 -34t-6 -50.5v-883l663 881q0 63 -51 92q-27 12 -66.5 22.5t-56.5 10.5v69z" />
    <glyph glyph-name="uni0419" unicode="&#x419;" horiz-adv-x="1487" 
d="M903 1419h465v-69q-30 0 -73.5 -13.5t-57 -25.5t-19.5 -35.5t-6 -48.5v-1030q0 -67 50 -103q7 -7 46 -15.5t60 -8.5v-70h-463v70l27 3q72 6 90 11q49 25 49 100v903l-661 -878v-35q0 -46 49 -80q7 -7 48.5 -15.5t65.5 -8.5v-70h-460v70l26 2q66 4 84 12q51 25 51 98v1035
q0 69 -51 100q-74 33 -110 33v69h458v-69q-28 0 -73 -13.5t-58.5 -25t-19.5 -34t-6 -50.5v-883l663 881q0 63 -51 92q-27 12 -66.5 22.5t-56.5 10.5v69zM950 1655q-9 25 -20 54t-11 65q0 43 22 68.5t56 25.5q40 0 64 -28t24 -79q0 -62 -43.5 -118t-120 -87.5t-178.5 -31.5
q-104 0 -181 31.5t-118 86t-41 119.5q0 51 24.5 79t61.5 28q31 0 54.5 -22t23.5 -72q0 -36 -10.5 -65t-18.5 -54q54 -68 205 -68q146 0 207 68z" />
    <glyph glyph-name="uni041A" unicode="&#x41a;" horiz-adv-x="1241" 
d="M418 197q0 -60 20.5 -83.5t60.5 -33.5t79 -10v-70h-459v70q71 6 91 10.5t35.5 17.5t22 35t6.5 49v1035q0 77 -49.5 102.5t-105.5 30.5v69h459v-69q-52 -4 -94.5 -19.5t-54 -38t-11.5 -65.5v-492h78q52 0 90 32t61 84.5t66 197.5q34 116 77 196.5t113.5 132.5t155.5 52
q78 0 115.5 -29.5t37.5 -71.5q0 -37 -21.5 -61.5t-57.5 -24.5q-97 0 -129 129q-53 -29 -89.5 -93.5t-72.5 -189.5q-38 -128 -84 -216t-109 -146v-12q98 -29 157.5 -83t115.5 -163l68 -142q47 -105 72.5 -154t46.5 -67t68 -27t83 -9v-70h-297q-51 138 -124.5 304.5
t-117.5 230.5t-93.5 92t-135.5 28h-74v-458z" />
    <glyph glyph-name="uni041B" unicode="&#x41b;" horiz-adv-x="1411" 
d="M1292 1419v-69q-44 0 -86.5 -15t-55.5 -36.5t-13 -71.5v-1030q0 -54 13.5 -78t44 -36.5t97.5 -12.5v-70h-458v70l26 2q81 5 107 24.5t26 87.5v1157h-352q0 -302 -36 -554.5t-103.5 -430.5t-161.5 -277t-195 -99q-74 0 -113.5 33.5t-39.5 90.5q0 36 23.5 64.5t70.5 28.5
q38 0 67 -25.5t60 -97.5q87 52 167 215t119.5 370.5t39.5 442.5q0 99 -13 141.5t-50 66t-148 40.5v69h964z" />
    <glyph glyph-name="uni041C" unicode="&#x41c;" horiz-adv-x="1757" 
d="M1137 0v70q42 0 91.5 7.5t69 22.5t29.5 41t10 56v1017h-18l-475 -1191h-19l-24 71l-430 1149h-11v-852q0 -97 7.5 -157t24 -91t41 -43.5t67 -21t80.5 -8.5v-70h-514v70l31 2q89 2 121 24t44 82t12 203v747q0 62 -14 101.5t-36 64t-66 40.5t-82 16v69h379l415 -1130
l375 954q34 86 45 176h361v-69q-28 0 -77.5 -12.5t-64 -24t-20.5 -35.5t-6 -51v-1030q0 -32 7.5 -54.5t25 -36.5t61.5 -25t76 -11v-70h-516z" />
    <glyph glyph-name="uni041D" unicode="&#x41d;" horiz-adv-x="1509" 
d="M930 0v70l27 2q93 6 114 28t21 84v514h-674v-501q0 -65 32 -92t123 -35v-70h-462v70l27 2q68 4 92 15.5t34 36.5t10 58v1035q0 41 -17.5 67.5t-63 43.5t-80.5 20v71h460v-69q-41 -3 -86.5 -17t-57 -37.5t-11.5 -68.5v-449h674v439q0 80 -52.5 102t-107.5 31v69h459v-69
q-46 -4 -88.5 -18.5t-55 -39.5t-12.5 -75v-1020q0 -39 9.5 -60t29.5 -37q42 -25 117 -30v-70h-461z" />
    <glyph glyph-name="uni041E" unicode="&#x41e;" horiz-adv-x="1407" 
d="M1323 705q0 -208 -79.5 -376t-225 -265t-311.5 -97q-181 0 -324 96t-221 269t-78 383q0 208 81 377t225 263.5t312 94.5q175 0 318 -94t223 -265t80 -386zM1159 707q0 315 -121 487t-336 172q-137 0 -238.5 -74t-158.5 -227t-57 -354q0 -303 119 -480.5t335 -177.5
t336.5 175t120.5 479z" />
    <glyph glyph-name="uni041F" unicode="&#x41f;" horiz-adv-x="1481" 
d="M418 197q0 -53 20.5 -78.5t58.5 -37t78 -11.5v-70h-464v70q72 5 94.5 9.5t38.5 17t23 35.5t7 50v1035q0 41 -19 68t-60.5 43.5t-83.5 21.5v69h1251v-69q-85 -6 -120.5 -32.5t-35.5 -90.5v-1030q0 -57 21 -81.5t60.5 -35t74.5 -10.5v-70h-463v70q99 0 131.5 22.5
t32.5 91.5v1153h-645v-1140z" />
    <glyph glyph-name="uni0420" unicode="&#x420;" horiz-adv-x="1122" 
d="M1038 1071q0 -131 -62 -232t-173 -154.5t-254 -53.5h-131v-449q0 -70 29 -91t155 -21v-70h-489v70q42 0 87.5 10t59.5 35t14 73v1035q0 87 -49 108q-72 19 -125 19v69h516q178 0 300 -99.5t122 -248.5zM868 1022q0 95 -37 166.5t-108 112t-176 40.5h-129v-632h100
q151 0 250.5 88t99.5 225z" />
    <glyph glyph-name="uni0421" unicode="&#x421;" horiz-adv-x="1219" 
d="M1178 358q-77 -204 -197.5 -296.5t-294.5 -92.5q-168 0 -307 94t-217 261.5t-78 371.5q0 210 80.5 383t221 271t302.5 98q194 0 334 -102l33 73h65l10 -499h-71q-21 200 -117.5 324t-236.5 124q-133 0 -237.5 -81.5t-162 -233.5t-57.5 -351q0 -170 60.5 -317.5t167 -231
t239.5 -83.5q135 0 233.5 76t161.5 241z" />
    <glyph glyph-name="uni0422" unicode="&#x422;" horiz-adv-x="1200" 
d="M1114 1044q-8 119 -41 184.5t-96.5 92.5t-237.5 27h-67v-1145q0 -62 46.5 -95t168.5 -38v-70h-570v70q33 2 82.5 9.5t65.5 12.5q63 23 63 101v1155h-63q-117 0 -178.5 -10.5t-107.5 -52.5t-70.5 -110.5t-24.5 -130.5h-70v375h1172v-375h-72z" />
    <glyph glyph-name="uni0423" unicode="&#x423;" horiz-adv-x="1212" 
d="M-37 1350v69h475v-69l-49 -4q-98 -8 -98 -43q0 -12 8 -36t152.5 -335t212.5 -449q165 397 225.5 567t60.5 220q0 37 -32 56t-109 24v69h448v-69q-42 -5 -83.5 -23t-67 -45t-57.5 -98l-178 -414l-169 -387q-97 -208 -195.5 -302.5t-223.5 -94.5q-71 0 -116.5 40t-45.5 103
q0 45 25.5 66.5t60.5 21.5q42 0 71.5 -29t53.5 -112q67 11 126.5 68t125.5 184l-245 529l-169 357q-32 63 -78.5 96t-128.5 40z" />
    <glyph glyph-name="uni0424" unicode="&#x424;" horiz-adv-x="1425" 
d="M1352 739q0 -157 -70.5 -273t-200 -177.5t-299.5 -61.5v-53q0 -64 33 -85.5t148 -29.5v-65h-488v65q63 6 100.5 15t52.5 33.5t15 66.5v53q-263 0 -416 136.5t-153 375.5q0 137 67.5 242t195.5 163t298 58h8v39q0 65 -49 90t-121 33v66h481v-66q-75 -6 -109 -16t-48.5 -35
t-14.5 -58v-53h6q265 0 414.5 -122.5t149.5 -340.5zM1184 715q0 194 -101.5 304.5t-289.5 110.5h-13v-829q123 0 214 48.5t140.5 145.5t49.5 220zM645 1130h-12q-128 0 -216 -52.5t-133.5 -145t-45.5 -217.5q0 -120 50 -218.5t142 -147t215 -48.5v829z" />
    <glyph glyph-name="uni0425" unicode="&#x425;" horiz-adv-x="1292" 
d="M752 0v70l37 2q52 2 86 15.5t34 37.5q0 30 -27 84t-110.5 195t-142.5 231q-98 -148 -190.5 -308.5t-92.5 -195.5q0 -24 13 -37t38 -18.5t97 -5.5v-70h-480v70q47 0 89 13.5t71 39.5t88.5 110t157.5 230t160 239l-81 126q-116 180 -251 376q-53 78 -102.5 108.5
t-112.5 37.5v69h514v-69l-35 -2q-53 -2 -86 -14.5t-33 -33.5q0 -32 51 -130.5t215 -358.5q101 145 173.5 280.5t72.5 190.5q0 68 -145 68v69h475v-69q-71 -8 -113 -27q-25 -15 -47.5 -38.5t-66.5 -84.5q-62 -87 -133.5 -202.5t-165.5 -252.5q164 -246 340 -526
q57 -93 99.5 -121t127.5 -28v-70h-524z" />
    <glyph glyph-name="uni0426" unicode="&#x426;" horiz-adv-x="1481" 
d="M113 0v70q98 0 129.5 26.5t31.5 85.5v1035q0 76 -59.5 104.5t-101.5 28.5v69h456v-69q-22 0 -69 -12.5t-60.5 -24.5t-17.5 -36.5t-4 -49.5v-1037q0 -53 27.5 -81.5t78.5 -28.5l211 -4l254 4q44 0 58 21.5t14 66.5v1049q0 34 -7.5 59t-33.5 41q-82 33 -113 33v69h453v-69
q-44 0 -107 -25q-47 -19 -47 -98v-1053q0 -53 23.5 -73.5t83.5 -20.5h76v-412h-74q0 48 -16 135t-37.5 135.5t-47.5 61.5h-1101z" />
    <glyph glyph-name="uni0427" unicode="&#x427;" horiz-adv-x="1370" 
d="M952 1217q0 43 -18 69.5t-65.5 44t-82.5 19.5v69h465v-69q-45 0 -108 -25q-47 -18 -47 -98v-1030q0 -69 28.5 -95t126.5 -32v-70h-458v70l27 2q71 4 93 16.5t30.5 36.5t8.5 57v482q-87 -45 -187.5 -72t-182.5 -27q-189 0 -280 84t-91 279v289q0 47 -18.5 72.5t-57.5 41
t-88 19.5v69h467v-69q-85 -8 -120.5 -32.5t-35.5 -90.5v-269q0 -159 63.5 -222.5t201.5 -63.5q185 0 329 73v472z" />
    <glyph glyph-name="uni0428" unicode="&#x428;" horiz-adv-x="1991" 
d="M1573 1217q0 30 -6 53.5t-22.5 38t-61.5 28t-70 13.5v69h459v-69q-32 0 -77.5 -13t-62 -36.5t-16.5 -73.5v-1030q0 -55 20.5 -81t61 -36t80.5 -10v-70h-1772v70l64 4q55 2 79.5 28t24.5 80v1035q0 42 -18 69.5t-62 45.5t-81 18v69h456v-69q-32 0 -76.5 -13.5t-60.5 -38
t-16 -71.5v-1051q0 -50 14 -68.5t47.5 -25t131.5 -6.5h121q142 0 168 13.5t26 66.5v1061q0 44 -17 71.5t-60 42.5t-83 19v69h455v-69q-30 0 -75 -12.5t-61 -33.5t-16 -77v-1051q0 -52 16.5 -69.5t70.5 -24t179 -6.5h36q150 0 177 13.5t27 66.5v1061z" />
    <glyph glyph-name="uni0429" unicode="&#x429;" horiz-adv-x="1991" 
d="M106 70l64 4q55 2 79.5 28t24.5 80v1035q0 42 -18 69.5t-62 45.5t-81 18v69h456v-69q-32 0 -76.5 -13.5t-60.5 -38t-16 -71.5v-1051q0 -50 14 -68.5t47.5 -25t131.5 -6.5h121q142 0 168 13.5t26 66.5v1061q0 44 -17 71.5t-60 42.5t-83 19v69h455v-69q-30 0 -75 -12.5
t-61 -33.5t-16 -77v-1051q0 -52 16.5 -69.5t70.5 -24t179 -6.5h36q150 0 177 13.5t27 66.5v1061q0 30 -6 53.5t-22.5 38t-61.5 28t-70 13.5v69h459v-69q-32 0 -77.5 -13t-62 -36.5t-16.5 -73.5v-1053q0 -53 25.5 -73.5t87.5 -20.5h69v-412h-73q0 48 -16 135t-37.5 135.5
t-47.5 61.5h-1618v70z" />
    <glyph glyph-name="uni042A" unicode="&#x42a;" horiz-adv-x="1370" 
d="M653 799q78 6 166 6q229 0 349 -101t120 -290q0 -129 -59.5 -222t-164 -142.5t-235.5 -49.5h-510v70q87 7 122 16t52 31t17 78v1153h-45q-117 0 -178.5 -10.5t-107.5 -52.5t-70.5 -110.5t-24.5 -130.5h-70v375h815v-69q-33 0 -81.5 -10.5t-64 -24t-23 -38.5t-7.5 -56
v-422zM1118 430q0 137 -82 220t-219 83q-81 0 -164 -8v-502q0 -86 33.5 -117.5t118.5 -31.5q159 0 236 82.5t77 273.5z" />
    <glyph glyph-name="uni042B" unicode="&#x42b;" horiz-adv-x="1745" 
d="M274 1210q0 49 -18 75t-68 45.5t-75 19.5v69h471v-69q-44 0 -119 -25q-47 -19 -47 -104v-422l37 3l125 3q232 0 352.5 -100t120.5 -291q0 -128 -58 -221t-163 -143t-238 -50h-490v70q26 0 72 6.5t60 14.5t22 19t12 32t4 44v1024zM883 428q0 138 -82 221.5t-221 83.5
q-79 0 -162 -8v-504q0 -83 32.5 -115t124.5 -32q154 0 231 83t77 271zM1096 0v70q105 8 136.5 19.5t42.5 36.5t11 54v1039q0 40 -20.5 67t-73.5 44t-96 20v69h526v-69q-47 -3 -103.5 -18.5t-72.5 -41t-16 -61.5v-1034q0 -64 43.5 -91t148.5 -34v-70h-526z" />
    <glyph glyph-name="uni042C" unicode="&#x42c;" horiz-adv-x="1135" 
d="M274 1210q0 49 -18 75t-68 45.5t-75 19.5v69h471v-69q-44 0 -119 -25q-47 -19 -47 -104v-422l37 3l125 3q232 0 352.5 -100t120.5 -291q0 -128 -58 -221t-163 -143t-238 -50h-490v70q26 0 72 6.5t60 14.5t22 19t12 32t4 44v1024zM883 428q0 138 -82 221.5t-221 83.5
q-79 0 -162 -8v-504q0 -83 32.5 -115t124.5 -32q154 0 231 83t77 271z" />
    <glyph glyph-name="uni042D" unicode="&#x42d;" horiz-adv-x="1194" 
d="M956 823q-10 262 -113 403.5t-284 141.5q-314 0 -375 -444h-69l6 495h63l33 -73q67 48 159.5 74t184.5 26q256 0 402.5 -185t146.5 -513q0 -234 -73.5 -412t-209 -272.5t-311.5 -94.5q-133 0 -239.5 40t-172 117t-65.5 157q0 58 26 90.5t72 32.5q39 0 61.5 -29t22.5 -74
q0 -58 -14 -139q50 -54 131 -84.5t172 -30.5q204 0 321 182.5t125 511.5q-131 -106 -245 -106q-46 0 -81.5 11.5t-67 25.5t-63.5 25.5t-71 11.5q-62 0 -149 -68l-39 51q69 60 143.5 91.5t134.5 31.5q44 0 78.5 -11.5t66 -25t63 -24.5t67.5 -11q37 0 71.5 15.5t91.5 62.5z
" />
    <glyph glyph-name="uni042E" unicode="&#x42e;" horiz-adv-x="2007" 
d="M1923 705q0 -214 -79 -381.5t-219.5 -262t-309.5 -94.5q-176 0 -314.5 90.5t-216.5 257.5t-82 381h-288v-499q0 -65 32 -92t123 -35v-70h-458v70l27 2q68 4 92 15.5t34 36.5t10 58v1035q0 41 -17.5 67.5t-63 43.5t-80.5 20v71h456v-69q-41 -3 -86.5 -17t-57 -37.5
t-11.5 -68.5v-451h291q11 190 94.5 345t220 242t293.5 87q172 0 313 -95.5t219 -266.5t78 -383zM1759 707q0 313 -119 486t-327 173q-132 0 -232 -75.5t-157.5 -229.5t-57.5 -350q0 -299 119 -478.5t328 -179.5q211 0 328.5 171.5t117.5 482.5z" />
    </font>
</defs>
</svg>
