<?xml version="1.0" standalone="no"?>
<!DOCTYPE svg PUBLIC "-//W3C//DTD SVG 1.1//EN" "http://www.w3.org/Graphics/SVG/1.1/DTD/svg11.dtd" >
<svg xmlns="http://www.w3.org/2000/svg" xmlns:xlink="http://www.w3.org/1999/xlink" version="1.1">
<metadata>
Created by FontForge 20170731 at Sat Nov 12 06:11:23 2011
 By Aleksey,,,
(c) 2011 Microsoft Corporation. All Rights Reserved.
</metadata>
<defs>
<font id="GeorgiaPro-Regular" horiz-adv-x="1024" >
  <font-face 
    font-family="Georgia"
    font-weight="400"
    font-stretch="normal"
    units-per-em="2048"
    panose-1="2 4 5 2 5 4 5 2 3 3"
    ascent="1638"
    descent="-410"
    x-height="985"
    cap-height="1419"
    bbox="-354 -621 2390 1878"
    underline-thickness="101"
    underline-position="-331"
    unicode-range="U+0020-FB04"
  />
<missing-glyph horiz-adv-x="2048" 
d="M256 0v1536h1536v-1536h-1536zM385 129h1280v1280h-1280v-1280z" />
    <glyph glyph-name="f_f" unicode="ff" horiz-adv-x="1270" 
d="M1149 1464q-139 -9 -139 -381v-102h254v-94h-254v-709q0 -61 40 -82.5t148 -29.5v-66h-520v66l48 5q97 7 97 97v719h-417v-709q0 -61 40 -82.5t148 -29.5v-66h-520v66l48 5q97 7 97 97v719h-194v94h194v41q0 223 115 363.5t293 140.5q89 0 134.5 -34.5t45.5 -84.5
q0 -107 -98 -107q-79 0 -164 142q-139 -9 -139 -381v-80h417v63q0 223 115 363.5t293 140.5q89 0 134.5 -34.5t45.5 -83.5q0 -107 -98 -107q-80 0 -164 141z" />
    <glyph glyph-name="fi" unicode="fi" horiz-adv-x="1194" 
d="M672 0v66q100 8 119.5 34.5t19.5 69.5v631q0 52 -29 90h-376v-713q0 -54 32.5 -77.5t122.5 -34.5v-66h-487v66q105 8 125 36t20 68v717h-194v94h194v25q0 250 138 397t327 147q145 0 221 -45.5t76 -122.5q0 -41 -26 -74.5t-66 -33.5q-107 0 -142 130l-20 66h-53
q-125 0 -196.5 -104t-71.5 -301v-84h329l248 16l14 -14v-803q0 -98 148 -114v-66h-473z" />
    <glyph glyph-name="fl" unicode="fl" horiz-adv-x="1208" 
d="M676 0v66l49 5q98 7 98 97v1192q0 43 -37.5 76.5t-109.5 33.5q-270 0 -270 -405v-84h243v-94h-243v-709q0 -54 32.5 -77.5t122.5 -34.5v-66h-487v66q105 8 125 36t20 68v717h-194v94h194v25q0 258 139.5 401t325.5 143q136 0 229 -41l82 39l15 -14v-1354q0 -101 145 -114
v-66h-479z" />
    <glyph glyph-name="f_f_i" unicode="ffi" horiz-adv-x="1810" 
d="M1288 0v66q100 8 119.5 34.5t19.5 69.5v631q0 50 -28 90h-389v-713q0 -54 32.5 -77.5t122.5 -34.5v-66h-487v66q105 8 125 36t20 68v717h-417v-709q0 -61 40 -82.5t148 -29.5v-66h-520v66l48 5q97 7 97 97v719h-194v94h194v51q0 216 125 355t303 139q83 0 131.5 -33
t48.5 -86q0 -107 -98 -107q-79 0 -164 142q-159 -8 -159 -371v-90h417v25q0 250 138 397t327 147q145 0 221 -45.5t76 -122.5q0 -41 -26 -74.5t-66 -33.5q-107 0 -142 130l-20 66h-53q-125 0 -196.5 -104t-71.5 -301v-84h342l247 16l15 -14v-803q0 -98 147 -114v-66h-473z
" />
    <glyph glyph-name="f_f_l" unicode="ffl" horiz-adv-x="1810" 
d="M1280 0v66l49 5q98 7 98 97v1192q0 43 -39 76.5t-108 33.5q-270 0 -270 -405v-84h243v-94h-243v-709q0 -54 32.5 -77.5t122.5 -34.5v-66h-487v66q105 8 125 36t20 68v717h-417v-709q0 -61 40 -82.5t148 -29.5v-66h-520v66l48 5q97 7 97 97v719h-194v94h194v51
q0 216 125 355t303 139q83 0 131.5 -33t48.5 -86q0 -107 -98 -107q-79 0 -164 142q-159 -8 -159 -371v-90h417v25q0 258 139.5 401t325.5 143q135 0 230 -41l81 39l15 -14v-1354q0 -101 145 -114v-66h-479z" />
    <glyph glyph-name="f_j" unicode="fj" horiz-adv-x="1165" 
d="M997 59q0 -221 -115.5 -362t-287.5 -141q-84 0 -132 34t-48 84q0 109 94 109q39 0 72 -22.5t90 -120.5q75 0 108 93.5t33 293.5v774q0 52 -29 90h-376v-713q0 -54 32.5 -77.5t122.5 -34.5v-66h-487v66q105 8 125 36t20 68v717h-194v94h194v25q0 250 138 397t327 147
q145 0 221 -45.5t76 -122.5q0 -41 -26 -74.5t-66 -33.5q-107 0 -142 130l-20 66h-53q-125 0 -196.5 -104t-71.5 -301v-84h329l248 16l14 -14v-924z" />
    <glyph glyph-name=".notdef" horiz-adv-x="2048" 
d="M256 0v1536h1536v-1536h-1536zM385 129h1280v1280h-1280v-1280z" />
    <glyph glyph-name=".null" horiz-adv-x="0" 
 />
    <glyph glyph-name="nonmarkingreturn" horiz-adv-x="1176" 
 />
    <glyph glyph-name="space" unicode=" " horiz-adv-x="494" 
 />
    <glyph glyph-name="space" unicode="&#xa0;" horiz-adv-x="494" 
 />
    <glyph glyph-name="exclam" unicode="!" horiz-adv-x="678" 
d="M381 432h-78q-22 264 -55 557q-33 282 -33 332q0 57 36.5 96t92.5 39q54 0 90.5 -37.5t36.5 -97.5t-31 -334zM344 -20q-55 0 -96 38.5t-41 96.5q0 57 41 97t96 40q54 0 95.5 -39.5t41.5 -97.5q0 -59 -41 -97t-96 -38z" />
    <glyph glyph-name="quotedbl" unicode="&#x22;" horiz-adv-x="844" 
d="M641 967h-61q-19 123 -53 289q-27 129 -27 161q0 47 28.5 80t83.5 33q56 0 84.5 -33t28.5 -80q0 -29 -27 -160zM258 967h-59q-19 123 -53 289q-27 129 -27 161q0 47 28.5 80t83.5 33q54 0 82.5 -33t28.5 -80q0 -29 -27 -160z" />
    <glyph glyph-name="numbersign" unicode="#" horiz-adv-x="1317" 
d="M913 745l-71 -251h262v-123h-297l-107 -371h-110l106 371h-217l-106 -371h-113l109 371h-215v123h249l72 251h-262v123h297l104 363h111l-104 -363h217l104 363h113l-107 -363h215v-123h-250zM586 748l-74 -256h219l76 256h-221z" />
    <glyph glyph-name="dollar" unicode="$" horiz-adv-x="1249" 
d="M682 -16v-283h-84v281q-193 3 -317.5 93t-124.5 224q0 123 98 123q56 0 84.5 -26.5t28.5 -61.5q0 -28 -33 -124q-7 -21 -10 -34q64 -112 274 -117v506q-279 99 -342 187t-63 198q0 140 115 240t290 104v230h84v-230q182 -4 288.5 -88.5t106.5 -187.5q0 -109 -90 -109
q-48 0 -81.5 25t-33.5 57q0 42 17 110q4 16 6 27q-59 86 -213 86v-462l65 -25q237 -92 297 -175.5t60 -186.5q0 -153 -116 -260t-306 -121zM598 1214q-96 0 -161.5 -55t-65.5 -135q0 -87 42.5 -141.5t184.5 -108.5v440zM682 545v-484q233 14 233 224q0 174 -211 251
q-13 4 -22 9z" />
    <glyph glyph-name="percent" unicode="%" horiz-adv-x="1673" 
d="M449 713q-159 0 -249.5 101.5t-90.5 268.5q0 163 91.5 266t248.5 103t248 -102t91 -267q0 -171 -92.5 -270.5t-246.5 -99.5zM449 1378q-82 0 -126 -79.5t-44 -215.5q0 -138 44 -217.5t126 -79.5q80 0 124.5 78.5t44.5 218.5q0 138 -44 216.5t-125 78.5zM319 0h-137
l1176 1423h141zM1225 -33q-160 0 -249 101.5t-89 269.5q0 164 90.5 267.5t249.5 103.5q158 0 248 -105t90 -266q0 -173 -93.5 -272t-246.5 -99zM1227 635q-82 0 -127 -79t-45 -218q0 -135 43.5 -215t126.5 -80q81 0 126.5 78.5t45.5 216.5q0 136 -44 216.5t-126 80.5z" />
    <glyph glyph-name="ampersand" unicode="&#x26;" horiz-adv-x="1454" 
d="M1454 827q-115 -10 -166.5 -42.5t-87.5 -111.5q-135 -291 -192 -360q118 -134 193 -182.5t239 -58.5v-72h-414l-147 170q-189 -205 -394 -205q-176 0 -292.5 101.5t-116.5 277.5q0 133 71 232.5t238 205.5q-121 160 -146.5 223t-25.5 138q0 135 101.5 222t250.5 87
q146 0 229 -81.5t83 -196.5q0 -215 -281 -363q97 -130 263 -324q44 -52 93 -112q142 222 142 366q0 53 -174 86v72h534v-72zM553 870q195 108 195 283q0 211 -175 211q-77 0 -122 -59t-45 -125q0 -117 147 -310zM825 227q-55 71 -208 258q-136 166 -189 240
q-147 -102 -147 -305q0 -138 78 -227t206 -89q165 0 260 123z" />
    <glyph glyph-name="quotesingle" unicode="'" horiz-adv-x="440" 
d="M250 967h-62q-15 101 -52 289q-27 132 -27 161q0 113 112 113q56 0 84.5 -33t28.5 -80q0 -29 -27 -160z" />
    <glyph glyph-name="parenleft" unicode="(" horiz-adv-x="768" 
d="M700 -328q-276 34 -429.5 277.5t-153.5 646.5q0 404 150.5 651t432.5 285v-82q-391 -74 -391 -856q0 -770 391 -840v-82z" />
    <glyph glyph-name="parenright" unicode=")" horiz-adv-x="768" 
d="M68 -328v82q391 70 391 840q0 782 -391 856v82q283 -39 433 -286t150 -650t-153 -646t-430 -278z" />
    <glyph glyph-name="asterisk" unicode="*" horiz-adv-x="967" 
d="M514 1083q46 -64 150 -173q57 -61 57 -99q0 -26 -24 -46t-52 -20q-33 0 -49.5 23t-46.5 122q-32 102 -66 177q-37 -85 -83 -242q-23 -80 -76 -80q-28 0 -52 20t-24 46q0 38 58 99q103 109 149 173q-82 -8 -251 -48q-27 -7 -42 -7q-76 0 -76 72q0 69 76 69q15 0 42 -6
q186 -41 251 -47q-50 69 -149 174q-58 61 -58 99q0 25 24 45t52 20q53 0 76 -79q46 -156 83 -240q34 75 66 176q30 98 46 120.5t50 22.5q28 0 52 -20t24 -45q0 -38 -57 -99q-100 -105 -150 -174q57 5 251 47q27 6 42 6q76 0 76 -69q0 -72 -76 -72q-15 0 -42 7
q-175 41 -251 48z" />
    <glyph glyph-name="plus" unicode="+" horiz-adv-x="1317" 
d="M723 498v-453h-127v453h-453v125h453v450h127v-450h451v-125h-451z" />
    <glyph glyph-name="comma" unicode="," horiz-adv-x="553" 
d="M143 -354l-47 67q206 123 228 289h-52q-67 0 -105 35.5t-38 93.5q0 47 36.5 84t90.5 37q172 0 172 -217q0 -106 -78.5 -211t-206.5 -178z" />
    <glyph glyph-name="hyphen" unicode="-" horiz-adv-x="766" 
d="M86 465v158h596v-158h-596z" />
    <glyph glyph-name="hyphen" unicode="&#xad;" horiz-adv-x="766" 
d="M86 465v158h596v-158h-596z" />
    <glyph glyph-name="period" unicode="." horiz-adv-x="553" 
d="M279 -20q-57 0 -97.5 39.5t-40.5 95.5q0 55 40.5 96t97.5 41q56 0 96.5 -40.5t40.5 -96.5t-40.5 -95.5t-96.5 -39.5z" />
    <glyph glyph-name="slash" unicode="/" horiz-adv-x="961" 
d="M178 -424h-129l688 1948h133z" />
    <glyph glyph-name="zero" unicode="0" horiz-adv-x="1153" 
d="M575 -33q-246 0 -374.5 198.5t-128.5 545.5q0 342 133 540.5t373 198.5q242 0 372.5 -200.5t130.5 -538.5q0 -355 -134.5 -549.5t-371.5 -194.5zM578 1382q-140 0 -212.5 -174t-72.5 -497q0 -325 72.5 -499.5t209.5 -174.5q139 0 212 175t73 499q0 322 -72.5 496.5
t-209.5 174.5z" />
    <glyph glyph-name="one" unicode="1" horiz-adv-x="1153" 
d="M207 72q287 5 287 133v1034h-291v84h96q94 0 183.5 37.5t131.5 89.5h84q-10 -260 -10 -309v-936q0 -63 51.5 -94.5t223.5 -38.5v-72h-756v72z" />
    <glyph glyph-name="two" unicode="2" horiz-adv-x="1153" 
d="M98 0v135q51 92 381 371q178 150 239.5 252t61.5 289q0 154 -71 237.5t-189 83.5q-142 0 -209 -94q3 -16 8 -35q21 -82 21 -129q0 -40 -34.5 -68t-92.5 -28q-102 0 -102 127q0 121 120 215t316 94q213 0 335 -104t122 -297q0 -121 -36 -202.5t-101 -147.5t-259 -214
q-264 -201 -356 -309h803v-176h-957z" />
    <glyph glyph-name="three" unicode="3" horiz-adv-x="1153" 
d="M274 135q68 -84 238 -84q136 0 220.5 95t84.5 264q0 286 -274 286h-131v115h88q260 0 260 305q0 252 -228 252q-123 0 -183 -69q-14 -16 -21 -23q26 -104 26 -166q0 -39 -33 -67.5t-90 -28.5q-102 0 -102 125q0 115 124.5 213t317.5 98q200 0 305 -100t105 -228
q0 -257 -297 -342v-14q168 -19 261 -113.5t93 -246.5q0 -190 -153.5 -313.5t-384.5 -123.5q-184 0 -303 86.5t-119 200.5q0 127 100 127q55 0 89 -27t34 -69q0 -56 -27 -152z" />
    <glyph glyph-name="four" unicode="4" horiz-adv-x="1153" 
d="M891 428v-428h-193v428h-639v156l701 854h131v-879h203v-131h-203zM698 1214l-538 -655h538v655z" />
    <glyph glyph-name="five" unicode="5" horiz-adv-x="1153" 
d="M279 123q80 -70 221 -70q139 0 221 109t82 303q0 141 -81.5 233.5t-205.5 92.5q-173 0 -272 -129l-68 24l84 733h717v-178h-635l-51 -434q134 94 278 94q192 0 321.5 -117t129.5 -317q0 -215 -148 -355.5t-372 -140.5q-171 0 -294.5 82.5t-123.5 194.5q0 58 28 92.5
t74 34.5q54 0 88.5 -29.5t34.5 -71.5q0 -45 -28 -151z" />
    <glyph glyph-name="six" unicode="6" horiz-adv-x="1153" 
d="M878 1454l18 -90l-90 -16q-56 -10 -180 -82.5t-203 -199.5t-106 -296q156 137 348 137q167 0 285 -129t118 -317q0 -207 -139 -350.5t-344 -143.5q-222 0 -356 160t-134 430q0 354 211.5 600.5t571.5 296.5zM312 670l-4 -123q0 -232 76 -366t203 -134q119 0 191.5 104.5
t72.5 282.5q0 165 -75 262t-199 97q-155 0 -265 -123z" />
    <glyph glyph-name="seven" unicode="7" horiz-adv-x="1153" 
d="M432 -20h-125l670 1269h-494q-136 0 -186.5 -14t-83.5 -58t-49 -151h-62v391h1043v-63z" />
    <glyph glyph-name="eight" unicode="8" horiz-adv-x="1153" 
d="M382 725q-254 142 -254 348q0 158 136 270.5t335 112.5q193 0 312.5 -102.5t119.5 -261.5q0 -220 -260 -340q168 -73 239.5 -160t71.5 -215q0 -171 -148 -291.5t-376 -120.5q-221 0 -354.5 110.5t-133.5 286.5q0 243 312 363zM699 786q141 86 141 316q0 118 -71 196
t-187 78q-115 0 -185.5 -74t-70.5 -182q0 -110 88 -182t285 -152zM451 690q-186 -101 -186 -315q0 -147 87 -238.5t230 -91.5q138 0 220 79.5t82 205.5q0 106 -83 179t-350 181z" />
    <glyph glyph-name="nine" unicode="9" horiz-adv-x="1153" 
d="M270 -25l-16 90l88 17q127 25 285 155t209 412q-155 -135 -349 -135q-167 0 -285 128.5t-118 317.5q0 208 140 350t343 142q222 0 356 -160t134 -430q0 -351 -209.5 -592.5t-577.5 -294.5zM840 749l4 123q0 232 -76 366t-203 134q-118 0 -191 -103t-73 -282
q0 -162 74.5 -260t199.5 -98q158 0 265 120z" />
    <glyph glyph-name="colon" unicode=":" horiz-adv-x="641" 
d="M319 717q-57 0 -97 40.5t-40 96.5q0 54 40 94.5t97 40.5q58 0 98 -40t40 -95q0 -57 -40 -97t-98 -40zM319 -20q-56 0 -96.5 39.5t-40.5 95.5t40.5 96.5t96.5 40.5t97 -40.5t41 -96.5q0 -57 -40.5 -96t-97.5 -39z" />
    <glyph glyph-name="semicolon" unicode=";" horiz-adv-x="641" 
d="M319 717q-57 0 -97 40.5t-40 96.5q0 54 40 94.5t97 40.5q58 0 98 -40t40 -95q0 -57 -40 -97t-98 -40zM188 -354l-47 67q206 123 228 289h-52q-67 0 -105 35.5t-38 93.5q0 47 36.5 84t90.5 37q172 0 172 -217q0 -106 -78.5 -211t-206.5 -178z" />
    <glyph glyph-name="semicolon" unicode="&#x37e;" horiz-adv-x="641" 
d="M319 717q-57 0 -97 40.5t-40 96.5q0 54 40 94.5t97 40.5q58 0 98 -40t40 -95q0 -57 -40 -97t-98 -40zM188 -354l-47 67q206 123 228 289h-52q-67 0 -105 35.5t-38 93.5q0 47 36.5 84t90.5 37q172 0 172 -217q0 -106 -78.5 -211t-206.5 -178z" />
    <glyph glyph-name="less" unicode="&#x3c;" horiz-adv-x="1317" 
d="M193 504v112l925 482v-137l-770 -402l770 -399v-137z" />
    <glyph glyph-name="equal" unicode="=" horiz-adv-x="1317" 
d="M154 682v127h1009v-127h-1009zM154 311v125h1009v-125h-1009z" />
    <glyph glyph-name="greater" unicode="&#x3e;" horiz-adv-x="1317" 
d="M199 23v137l770 399l-770 402v137l925 -482v-112z" />
    <glyph glyph-name="question" unicode="?" horiz-adv-x="981" 
d="M436 598v-221h-92v379q344 23 344 307q0 309 -248 309q-81 0 -131 -39q23 -101 23 -137q0 -40 -35 -69t-90 -29q-101 0 -101 123q0 87 98.5 159t244.5 72q199 0 314.5 -116.5t115.5 -295.5q0 -182 -117 -298.5t-326 -143.5zM393 -20q-55 0 -96 38.5t-41 96.5q0 57 41 97
t96 40q54 0 95.5 -39.5t41.5 -97.5q0 -59 -41 -97t-96 -38z" />
    <glyph glyph-name="at" unicode="@" horiz-adv-x="1903" 
d="M1530 -119q-225 -194 -545 -194q-340 0 -578.5 215t-238.5 575q0 363 256 628t645 265q313 0 491.5 -185t178.5 -468q0 -243 -133.5 -412.5t-339.5 -169.5q-84 0 -143 43.5t-66 120.5h-8q-109 -160 -234 -160q-108 0 -169.5 72t-61.5 205q0 169 138.5 354.5t328.5 185.5
q131 0 153 -125h6l43 113h150l-191 -538q-18 -51 -18 -109q0 -98 92 -98q156 0 259.5 146t103.5 382q0 251 -159.5 406t-428.5 155q-293 0 -512 -221.5t-219 -572.5q0 -344 179 -537t484 -193q301 0 506 168zM1182 741q-25 156 -135 156q-115 0 -203 -164t-88 -334
q0 -176 88 -176q119 0 223 180z" />
    <glyph glyph-name="A" unicode="A" horiz-adv-x="1374" 
d="M829 0v72q183 11 183 57q0 22 -8 43l-119 320h-498q-98 -254 -98 -332q0 -74 205 -88v-72h-535v72q82 6 132 38.5t76 80.5t186 459l306 790h80l473 -1225q51 -133 209 -143v-72h-592zM635 1130l-211 -550h426z" />
    <glyph glyph-name="B" unicode="B" horiz-adv-x="1339" 
d="M94 0v72q120 9 157.5 34t37.5 87v1019q0 121 -187 136v71h656q178 0 294.5 -80.5t116.5 -228.5q0 -265 -335 -344v-8q413 -62 413 -373q0 -174 -139.5 -279.5t-339.5 -105.5h-674zM502 1335v-544h127q301 0 301 299q0 249 -266 249q-90 0 -162 -4zM502 707v-500
q0 -127 192 -127q307 0 307 342q0 132 -87 210.5t-238 78.5q-117 0 -174 -4z" />
    <glyph glyph-name="C" unicode="C" horiz-adv-x="1315" 
d="M1288 358q-156 -391 -565 -391q-271 0 -458 203.5t-187 525.5q0 330 192.5 542t483.5 212q195 0 352 -98l41 67h80l10 -506h-84q-97 453 -387 453q-204 0 -326.5 -174t-122.5 -481q0 -272 135 -451.5t345 -179.5q295 0 417 315z" />
    <glyph glyph-name="D" unicode="D" horiz-adv-x="1534" 
d="M94 0v72q121 0 158 28t37 88v1024q0 66 -42.5 95.5t-144.5 40.5v71h621q300 0 516.5 -186.5t216.5 -532.5q0 -324 -223.5 -512t-550.5 -188h-588zM502 1333v-1089q0 -91 52.5 -126.5t162.5 -35.5q242 0 368.5 160t126.5 460q0 282 -149.5 458.5t-392.5 176.5
q-104 0 -168 -4z" />
    <glyph glyph-name="E" unicode="E" horiz-adv-x="1337" 
d="M1264 0h-1178v72q134 11 168.5 34.5t34.5 86.5v1019q0 70 -53.5 99t-149.5 37v71h1098v-342h-74q-21 78 -79.5 152t-100.5 92t-205 18h-223v-563h160q113 0 163 50.5t70 181.5h74v-555h-74q-5 50 -28 117.5t-65.5 95.5t-139.5 28h-160v-426q0 -122 38.5 -154t202.5 -32
h87q140 0 189 22t108 121t92 193h71z" />
    <glyph glyph-name="F" unicode="F" horiz-adv-x="1227" 
d="M1124 1065q-18 77 -78.5 156.5t-102 98.5t-204.5 19h-237v-569h162q131 0 181 57.5t62 173.5h76v-557h-76q-12 115 -56 179.5t-187 64.5h-162v-487q0 -52 29 -84t169 -45v-72h-614v72q114 9 138.5 13.5t44.5 30.5t20 72v1024q0 70 -53.5 99t-149.5 37v71h1112v-354h-74z
" />
    <glyph glyph-name="G" unicode="G" horiz-adv-x="1485" 
d="M1470 567q-12 -2 -29 -4q-90 -14 -122.5 -39t-32.5 -92v-193q0 -113 4 -149q-268 -123 -522 -123q-292 0 -491 205t-199 526q0 326 203.5 539t509.5 213q201 0 366 -98l41 67h80l8 -495h-82q-107 442 -420 442q-210 0 -336 -174.5t-126 -482.5q0 -291 133.5 -472.5
t357.5 -181.5q159 0 264 84l8 96v179q0 82 -42 112t-193 41v74h620v-74z" />
    <glyph glyph-name="H" unicode="H" horiz-adv-x="1669" 
d="M979 0v72q116 10 137.5 19t36 31t14.5 66v506h-665v-493q0 -61 37 -90.5t147 -38.5v-72h-588v72q137 6 164 37t27 79v1024q0 120 -191 136v71h588v-71q-105 -9 -144.5 -32t-39.5 -93v-441h665v430q0 120 -188 136v71h588v-71q-106 -9 -146.5 -33t-40.5 -92v-1022
q0 -63 40.5 -91.5t146.5 -37.5v-72h-588z" />
    <glyph glyph-name="I" unicode="I" horiz-adv-x="799" 
d="M80 0v72q141 10 177 29t36 85v1028q0 67 -59.5 97t-153.5 37v71h639v-71q-135 -10 -174 -35.5t-39 -87.5v-1026q0 -52 34 -83.5t179 -43.5v-72h-639z" />
    <glyph glyph-name="J" unicode="J" horiz-adv-x="1061" 
d="M1006 1348q-126 -11 -161.5 -35.5t-35.5 -89.5v-840q0 -159 -119 -288.5t-313 -129.5q-166 0 -266.5 92t-100.5 246q0 77 38 125.5t99 48.5q63 0 98.5 -34.5t35.5 -88.5q0 -56 -76 -174q-18 -27 -27 -55v-2q63 -82 184 -82t176.5 93.5t55.5 328.5v749q0 121 -213 136v71
h625v-71z" />
    <glyph glyph-name="K" unicode="K" horiz-adv-x="1421" 
d="M1077 0q-215 338 -551 694h-24v-493q0 -53 30.5 -85t157.5 -44v-72h-588v72q115 10 136 19t36 33t15 64v1024q0 120 -187 136v71h588v-71q-106 -9 -147 -32t-41 -93v-490h18q215 181 351.5 340t136.5 225q0 41 -148 50v71h533v-71q-58 0 -120.5 -19t-84.5 -37t-142 -156
q-180 -205 -323 -341q152 -172 346 -415q137 -173 176.5 -212t87.5 -63.5t142 -32.5v-72h-398z" />
    <glyph glyph-name="L" unicode="L" horiz-adv-x="1237" 
d="M1206 0h-1108v72q124 10 157.5 32t33.5 89v1015q0 70 -55 101.5t-136 38.5v71h598v-71q-126 -10 -160 -37.5t-34 -91.5v-953q0 -128 36 -158t195 -30q108 0 169 12.5t85.5 32t84.5 117.5t93 182h72z" />
    <glyph glyph-name="M" unicode="M" horiz-adv-x="1898" 
d="M1180 0v72q103 9 136 15t59 37t26 77v1032h-17l-483 -1210h-49l-463 1234h-12v-847q0 -130 20.5 -207.5t104.5 -102.5t119 -28v-72h-574v72q154 13 194 71t40 256v725q0 212 -224 224v71h484l405 -1065l348 891q34 88 47 174h463v-71q-121 -10 -156.5 -35t-35.5 -90
v-1022q0 -64 40 -91.5t154 -37.5v-72h-626z" />
    <glyph glyph-name="N" unicode="N" horiz-adv-x="1571" 
d="M1554 1348q-146 -19 -188.5 -64t-42.5 -260v-1038h-86l-860 1161v-731q0 -132 16 -193t38.5 -83.5t87 -43t112.5 -24.5v-72h-584v72q119 17 176.5 54t57.5 277v701q0 207 -256 244v71h403l799 -1081v674q0 228 -56.5 272.5t-193.5 63.5v71h577v-71z" />
    <glyph glyph-name="O" unicode="O" horiz-adv-x="1524" 
d="M762 -35q-293 0 -487.5 210.5t-194.5 533.5q0 326 197.5 534.5t484.5 208.5q292 0 487 -208t195 -535q0 -328 -197.5 -536t-484.5 -208zM762 1364q-209 0 -324.5 -176.5t-115.5 -478.5q0 -304 116 -479t324 -175q210 0 325 175.5t115 478.5q0 304 -116 479.5t-324 175.5z
" />
    <glyph glyph-name="P" unicode="P" horiz-adv-x="1249" 
d="M502 623v-430q0 -71 36 -92t169 -29v-72h-609v72q124 10 157.5 32t33.5 89v1024q0 60 -30.5 89.5t-168.5 41.5v71h649q197 0 321 -96.5t124 -253.5q0 -206 -149.5 -326t-375.5 -120h-157zM502 1337v-626h100q168 0 251 86t83 223q0 317 -295 317h-139z" />
    <glyph glyph-name="Q" unicode="Q" horiz-adv-x="1524" 
d="M977 4q3 -114 80.5 -199.5t165.5 -85.5q99 0 163 12q16 3 31 5v-78q-141 -43 -299 -43q-156 0 -259 92t-120 260q-294 13 -476.5 222.5t-182.5 519.5q0 326 197.5 534.5t484.5 208.5q292 0 487 -208t195 -535q0 -251 -123.5 -437.5t-343.5 -267.5zM762 1364
q-209 0 -324.5 -176.5t-115.5 -478.5q0 -304 116 -479t324 -175q210 0 325 175.5t115 478.5q0 304 -116 479.5t-324 175.5z" />
    <glyph glyph-name="R" unicode="R" horiz-adv-x="1438" 
d="M1098 0q-219 345 -453 643h-143v-450q0 -71 33.5 -90.5t162.5 -30.5v-72h-600v72q124 10 157.5 32t33.5 89v1026q0 65 -36 92t-155 37v71h656q205 0 325.5 -88.5t120.5 -249.5q0 -282 -346 -383q71 -90 281 -376q109 -149 138.5 -172.5t68 -47.5t139.5 -30v-72h-383z
M502 1337v-608h131q144 0 232.5 92t88.5 238q0 132 -75.5 205t-206.5 73h-170z" />
    <glyph glyph-name="S" unicode="S" horiz-adv-x="1149" 
d="M231 72l-43 -72h-79l-15 485h80q122 -428 430 -428q268 0 268 250q0 75 -36 137t-85.5 95t-148.5 70q-197 72 -281 119.5t-136 132.5t-52 204q0 161 126.5 273t303.5 112q156 0 318 -98l41 67h79l9 -471h-82q-65 241 -154 328.5t-223 87.5q-97 0 -163 -61.5t-66 -149.5
q0 -104 56.5 -172t253.5 -139q253 -92 345 -186.5t92 -252.5q0 -189 -138.5 -310.5t-344.5 -121.5q-185 0 -355 101z" />
    <glyph glyph-name="T" unicode="T" horiz-adv-x="1268" 
d="M1182 1034q-22 82 -80.5 172t-101 112.5t-201.5 22.5h-60v-1134q0 -56 36 -88t194 -47v-72h-670v72q147 10 187 33t40 92v1144h-57q-145 0 -187.5 -14.5t-105 -105t-90.5 -187.5h-72v385h1237v-385h-69z" />
    <glyph glyph-name="U" unicode="U" horiz-adv-x="1548" 
d="M1534 1348q-151 -12 -191 -67.5t-40 -248.5v-616q0 -210 -153.5 -330.5t-358.5 -120.5q-242 0 -386.5 118t-144.5 292v837q0 117 -186 136v71h592v-71q-120 -10 -155.5 -35t-35.5 -90v-785q0 -360 352 -360q184 0 280.5 103t96.5 255v584q0 212 -52.5 262t-199.5 66v71
h582v-71z" />
    <glyph glyph-name="V" unicode="V" horiz-adv-x="1366" 
d="M1407 1348q-145 -15 -193.5 -111t-502.5 -1255h-82l-464 1238q-51 117 -204 128v71h588v-71q-178 -12 -178 -54q0 -29 366 -999q127 306 226.5 565t113 308.5t13.5 91.5q0 68 -211 88v71h528v-71z" />
    <glyph glyph-name="W" unicode="W" horiz-adv-x="1999" 
d="M2028 1348q-48 -4 -90.5 -23.5t-70 -49t-35.5 -49.5t-88 -281l-296 -963h-92l-359 1091l-372 -1091h-88l-352 1240q-34 111 -189 126v71h579v-71q-184 -12 -184 -52q0 -24 20.5 -99.5t243.5 -850.5l355 1053h98l356 -1075q246 836 246 936q0 71 -197 88v71h515v-71z" />
    <glyph glyph-name="X" unicode="X" horiz-adv-x="1454" 
d="M793 0v72q184 7 184 57q0 54 -287 481q-311 -409 -311 -471q0 -63 164 -67v-72h-531v72q111 9 166 43.5t172 192.5l285 384q-372 548 -418.5 596t-189.5 60v71h657v-71q-182 -12 -182 -54q0 -39 84 -168l41 -65q57 -92 141 -215q276 373 276 436q0 56 -163 66v71h528v-71
q-136 -7 -200 -70.5t-388 -507.5l176 -256q207 -308 237 -342.5t74 -66.5t148 -33v-72h-663z" />
    <glyph glyph-name="Y" unicode="Y" horiz-adv-x="1260" 
d="M1315 1348q-57 -6 -108.5 -36.5t-119.5 -125.5t-193.5 -310.5t-145 -262t-19.5 -134.5v-270q0 -57 38.5 -90t188.5 -47v-72h-663v72q147 10 185 32t38 95v344q0 34 -169 350.5t-223.5 381t-166.5 73.5v71h604v-71q-186 -9 -186 -48q0 -28 311 -591q324 520 324 565
q0 30 -35.5 47.5t-153.5 26.5v71h494v-71z" />
    <glyph glyph-name="Z" unicode="Z" horiz-adv-x="1233" 
d="M1167 0h-1140v35l893 1304h-326q-156 0 -210 -25t-125 -117t-105 -179h-70l43 401h1063v-35l-893 -1304h338q152 0 218.5 16t103 51t96 123.5t92.5 171.5h69z" />
    <glyph glyph-name="bracketleft" unicode="[" horiz-adv-x="768" 
d="M168 -309v1829h532v-93h-354v-1644h354v-92h-532z" />
    <glyph glyph-name="backslash" unicode="\" horiz-adv-x="961" 
d="M780 -424l-690 1948h131l690 -1948h-131z" />
    <glyph glyph-name="bracketright" unicode="]" horiz-adv-x="768" 
d="M68 -309v92h354v1644h-354v93h532v-1829h-532z" />
    <glyph glyph-name="asciicircum" unicode="^" horiz-adv-x="1317" 
d="M981 797l-322 524l-323 -524h-146l412 659h115l409 -659h-145z" />
    <glyph glyph-name="underscore" unicode="_" horiz-adv-x="1317" 
d="M-4 -283v103h1327v-103h-1327z" />
    <glyph glyph-name="grave" unicode="`" 
d="M700 1110q-105 85 -252 197q-81 61 -100.5 87t-19.5 66q0 31 24 54.5t58 23.5q74 0 127 -88q88 -142 202 -307z" />
    <glyph glyph-name="a" unicode="a" horiz-adv-x="1032" 
d="M1006 18q-104 -38 -162 -38q-157 0 -185 143h-6q-133 -148 -319 -148q-111 0 -182.5 67.5t-71.5 178.5q0 124 68 189.5t234 120.5q237 78 273 100v98q0 86 -47.5 148.5t-140.5 62.5q-96 0 -141 -47q0 -25 9 -59t9 -72q0 -39 -34.5 -65.5t-84.5 -26.5q-96 0 -96 114
q0 89 112 159.5t238 70.5q205 0 285 -80.5t80 -245.5l-6 -493q0 -54 25.5 -80t46 -29.5t96.5 -3.5v-64zM657 547q-218 -64 -297 -132t-79 -169q0 -160 153 -160q118 0 217 115z" />
    <glyph glyph-name="b" unicode="b" horiz-adv-x="1147" 
d="M301 61l-74 -114l-61 14q8 219 8 379v977q0 69 -36 101.5t-154 41.5v66l362 22l14 -14v-651l7 -2q125 133 280 133q183 0 304.5 -145.5t121.5 -374.5q0 -222 -139 -373.5t-326 -151.5q-150 0 -307 92zM360 801v-576q0 -33 62.5 -106.5t169.5 -73.5q121 0 196.5 118
t75.5 324q0 186 -75.5 300t-210.5 114q-128 0 -218 -100z" />
    <glyph glyph-name="c" unicode="c" horiz-adv-x="930" 
d="M926 229q-63 -114 -171.5 -185t-226.5 -71q-214 0 -335 142.5t-121 382.5q0 212 132.5 364t336.5 152q151 0 239 -71.5t88 -186.5q0 -127 -102 -127q-58 0 -91.5 29t-33.5 67q0 40 12 90q12 51 15 72q-29 51 -131 51q-113 0 -185.5 -111.5t-72.5 -320.5
q0 -189 83.5 -305.5t215.5 -116.5q171 0 282 188z" />
    <glyph glyph-name="d" unicode="d" horiz-adv-x="1176" 
d="M809 -4l-16 14v92l-9 2q-126 -133 -284 -133q-179 0 -303.5 148.5t-124.5 376.5q0 220 138 369t331 149q142 0 250 -64v344q0 63 -34.5 111t-197.5 57v64l404 22l16 -14v-1331q0 -45 23.5 -74.5t44.5 -34t106 -10.5v-66zM791 768q0 29 -60 99.5t-170 70.5
q-123 0 -201.5 -122.5t-78.5 -332.5q0 -179 78 -291t210 -112q126 0 222 110v578z" />
    <glyph glyph-name="e" unicode="e" horiz-adv-x="989" 
d="M948 231q-138 -258 -405 -258q-222 0 -346.5 145.5t-124.5 383.5q0 210 126.5 361t323.5 151q195 0 298.5 -113.5t103.5 -310.5v-66h-654q0 -210 85.5 -325t244.5 -115q88 0 150.5 39t128.5 151zM727 608q0 330 -207 330q-104 0 -174 -88t-76 -242h457z" />
    <glyph glyph-name="f" unicode="f" horiz-adv-x="666" 
d="M545 1464q-139 -9 -139 -381v-102h253v-94h-253v-709q0 -61 40 -82.5t148 -29.5v-66h-520v66l48 5q97 7 97 97v719h-194v94h194v63q0 223 115 363.5t293 140.5q89 0 134.5 -34.5t45.5 -83.5q0 -107 -98 -107q-80 0 -164 141z" />
    <glyph glyph-name="g" unicode="g" horiz-adv-x="1042" 
d="M326 39v12q-174 52 -174 174q0 113 149 174v17q-201 92 -201 278q0 143 105.5 231.5t265.5 88.5q76 0 180 -33h344v-94h-231v-6q74 -88 74 -199q0 -129 -107.5 -219t-245.5 -90h-120q-72 -30 -72 -86q0 -28 12 -46.5t43.5 -31.5t131.5 -18l214 -10q170 -9 240 -96.5
t70 -186.5q0 -156 -136 -249t-381 -93q-444 0 -444 258q0 93 73 155t210 70zM467 942q-172 0 -172 -250q0 -110 48.5 -180t125.5 -70q84 0 131 68t47 176q0 117 -47 186.5t-133 69.5zM418 14q-50 0 -125.5 -46t-75.5 -150q0 -83 79 -135t226 -52q318 0 318 230
q0 59 -33.5 97t-119.5 47t-269 9z" />
    <glyph glyph-name="h" unicode="h" horiz-adv-x="1192" 
d="M659 0v66q28 3 52 5q100 6 100 97v508q0 99 -47.5 159t-122.5 60q-171 0 -256 -150v-567q0 -101 152 -112v-66h-484v66l49 5q97 7 97 97v1149q0 39 -19.5 76.5t-49.5 48.5t-124 18v66l365 22l14 -14v-688h4q109 110 181 139t155 29q274 0 274 -326v-512q0 -99 144 -110
v-66h-484z" />
    <glyph glyph-name="i" unicode="i" horiz-adv-x="600" 
d="M295 1245q-50 0 -87.5 39.5t-37.5 93.5q0 55 37 96.5t88 41.5q56 0 93.5 -39t37.5 -91q0 -57 -38 -99t-93 -42zM74 0v66l48 5q97 7 97 97v608q0 122 -176 135v66l348 20l15 -14v-803q0 -57 35.5 -81t109.5 -33v-66h-477z" />
    <glyph glyph-name="j" unicode="j" horiz-adv-x="598" 
d="M315 1245q-49 0 -87 40t-38 93q0 56 38 97t87 41q56 0 93.5 -38t37.5 -89q0 -59 -39 -101.5t-92 -42.5zM430 59q0 -222 -114.5 -362.5t-286.5 -140.5q-83 0 -132 33.5t-49 84.5q0 109 95 109q76 0 131 -93q15 -26 30 -50q76 0 109 93.5t33 293.5v741q0 45 -35.5 89.5
t-190.5 55.5v64l398 20l12 -14v-924z" />
    <glyph glyph-name="k" unicode="k" horiz-adv-x="1098" 
d="M819 0q-277 397 -352 494l-82 -78v-234q0 -58 34 -82.5t118 -33.5v-66h-484v66l49 5q97 7 97 97v1147q0 47 -31.5 94.5t-161.5 50.5v66l365 22l14 -14v-1045l292 291q56 58 56 84q0 41 -127 58v63h434v-61q-110 -32 -174 -75.5t-200 -176.5q-30 -30 -64 -62
q103 -124 264 -348q95 -133 131.5 -162t118.5 -34v-66h-297z" />
    <glyph glyph-name="l" unicode="l" horiz-adv-x="586" 
d="M53 0v66l50 5q98 6 98 97v1143q0 47 -31.5 93t-167.5 56v66l371 22l14 -14v-1354q0 -102 148 -114v-66h-482z" />
    <glyph glyph-name="m" unicode="m" horiz-adv-x="1804" 
d="M1280 0v66l47 5q96 7 96 97v510q0 101 -46.5 159t-119.5 58q-162 0 -249 -147v-570q0 -101 143 -112v-66h-471v66l45 5q94 8 94 97v510q0 101 -46.5 159t-119.5 58q-160 0 -250 -150v-565q0 -102 148 -114v-66h-479v66l48 5q97 7 97 97v612q0 119 -160 131v66l330 20
l14 -14v-139h7q30 29 60 60q109 110 269 110q187 0 264 -176q112 113 184.5 144.5t155.5 31.5q131 0 201 -87t70 -247v-502q0 -48 27 -75.5t122 -36.5v-66h-481z" />
    <glyph glyph-name="n" unicode="n" horiz-adv-x="1210" 
d="M678 0v66l51 5q100 6 100 97v508q0 100 -47.5 159.5t-122.5 59.5q-171 0 -256 -150v-567q0 -100 152 -112v-66h-483v66l48 5q97 7 97 97v608q0 129 -156 135v66l328 20l14 -14v-137h5q109 112 179.5 140t151.5 28q279 0 279 -326v-512q0 -99 143 -110v-66h-483z" />
    <glyph glyph-name="o" unicode="o" horiz-adv-x="1104" 
d="M543 -31q-198 0 -335.5 146t-137.5 374q0 232 134.5 378.5t352.5 146.5q212 0 343.5 -142.5t131.5 -367.5q0 -234 -134 -384.5t-355 -150.5zM555 938q-135 0 -207 -117.5t-72 -314.5q0 -209 72.5 -335t206.5 -126q128 0 199 125t71 332q0 202 -69.5 319t-200.5 117z" />
    <glyph glyph-name="p" unicode="p" horiz-adv-x="1169" 
d="M393 41h-8v-297q0 -51 33.5 -80t165.5 -41v-67h-551v67q119 5 142.5 34t23.5 75v1048q0 124 -166 131v66l336 20l14 -12v-111l8 -2q130 142 283 142q177 0 300.5 -146.5t123.5 -371.5t-138.5 -374t-326.5 -149q-155 0 -240 68zM385 793v-584q0 -29 62 -95.5t167 -66.5
q121 0 198 117t77 323q0 183 -75.5 298.5t-213.5 115.5q-123 0 -215 -108z" />
    <glyph glyph-name="q" unicode="q" horiz-adv-x="1147" 
d="M621 -444v67q122 6 146 34t24 75v364l-7 2q-122 -125 -276 -125q-186 0 -311 148t-125 383q0 214 142 362t331 148q151 0 266 -77q26 -18 43 -28l84 131l57 -8q-16 -281 -16 -370v-914q0 -54 29.5 -82.5t144.5 -42.5v-67h-532zM791 772q0 29 -60.5 97.5t-173.5 68.5
q-120 0 -198 -123.5t-78 -331.5q0 -181 78 -291t221 -110q117 0 211 100v590z" />
    <glyph glyph-name="r" unicode="r" horiz-adv-x="840" 
d="M621 897q-132 -7 -218 -145v-574q0 -54 34.5 -79t154.5 -33v-66h-520v66l48 5q97 7 97 97v608q0 130 -156 135v66l328 20l14 -14v-137h5q129 164 276 164q63 0 103 -40.5t40 -111.5q0 -57 -27.5 -93t-74.5 -36q-52 0 -83.5 26.5t-31.5 65.5q0 30 11 76z" />
    <glyph glyph-name="s" unicode="s" horiz-adv-x="885" 
d="M178 61l-20 -63h-74l-10 342h67q30 -118 116 -203.5t198 -85.5q200 0 200 168q0 69 -49.5 114t-204.5 91q-303 89 -303 301q0 124 92.5 206.5t239.5 82.5q122 0 217 -51l23 53h71l17 -318h-70q-55 240 -260 240q-79 0 -127.5 -40.5t-48.5 -100.5q0 -77 46.5 -114
t203.5 -89q177 -57 242 -129.5t65 -179.5q0 -137 -104 -224.5t-265 -87.5q-146 0 -262 88z" />
    <glyph glyph-name="t" unicode="t" horiz-adv-x="707" 
d="M682 43q-144 -63 -266 -63q-226 0 -226 237v670h-178v94h183v307h182v-307h282v-94h-280v-551q0 -137 31 -186.5t129 -49.5q85 0 143 17v-74z" />
    <glyph glyph-name="u" unicode="u" horiz-adv-x="1178" 
d="M809 -4l-16 14v125h-7q-143 -160 -327 -160q-269 0 -269 334v471q0 123 -155 129v66l330 22l14 -14v-684q0 -100 46 -157.5t118 -57.5q157 0 248 145v559q0 42 -26 75.5t-53.5 37.5t-107.5 8v66l359 22l16 -14v-782q0 -118 149 -117v-66z" />
    <glyph glyph-name="v" unicode="v" horiz-adv-x="1018" 
d="M1047 926q-58 -13 -92.5 -39.5t-51 -55.5t-117.5 -265l-146 -341q-45 -103 -85 -233h-80q-309 769 -349.5 839.5t-143.5 88.5v65h454v-70q-119 -7 -119 -43l252 -624l170 407q68 163 68 191q0 53 -137 76v63h377v-59z" />
    <glyph glyph-name="w" unicode="w" horiz-adv-x="1509" 
d="M1540 922q-69 -10 -108 -46.5t-57 -94t-126 -373t-133 -414.5h-86l-264 725l-268 -725h-82l-268 807q-30 95 -152 119v65h438v-70q-108 -5 -108 -43q0 -18 188 -616l252 711h96l256 -701q180 540 180 586q0 30 -47.5 50t-85.5 20v63h375v-63z" />
    <glyph glyph-name="x" unicode="x" horiz-adv-x="1034" 
d="M569 0v66q109 11 109 36q0 33 -205 324q-211 -271 -211 -305q0 -44 115 -58v-63h-365v61q113 29 187.5 121.5t228.5 298.5l-198 286q-78 113 -113.5 133t-87.5 20v65h428v-65q-95 0 -95 -23q0 -27 191 -299q49 66 109.5 152.5t64.5 97.5t4 22q0 31 -69 46q-17 3 -29 6v63
h362v-61q-102 -26 -148.5 -67.5t-248.5 -311.5l278 -402q50 -72 146 -77v-66h-453z" />
    <glyph glyph-name="y" unicode="y" horiz-adv-x="1008" 
d="M1038 924q-34 -5 -78 -35t-58 -53.5t-89 -202.5l-138 -330q-141 -341 -210 -478.5t-146 -203t-155 -65.5q-73 0 -119.5 34.5t-46.5 87.5q0 48 25.5 80.5t68.5 32.5q86 0 156 -127q44 23 112.5 129t108.5 211l-336 820q-33 73 -151 96v65h448v-70q-113 -7 -113 -43
q0 -2 5 -14l10 -31l237 -583l201 491q4 12 11 27q24 54 24 84q0 51 -133 76v63h366v-61z" />
    <glyph glyph-name="z" unicode="z" horiz-adv-x="909" 
d="M55 0v53l557 852h-137q-203 0 -248.5 -39t-72.5 -184h-62v303h756v-41l-567 -862l90 -2q290 -6 328 22.5t94 245.5h61v-348h-799z" />
    <glyph glyph-name="braceleft" unicode="{" horiz-adv-x="881" 
d="M813 -334q-255 0 -350.5 85t-95.5 276q0 63 8 129t8 125q0 123 -67 183t-244 73v129q176 13 243.5 72.5t67.5 183.5q0 58 -8 126q-8 67 -8 130q0 186 96.5 272t349.5 86v-82q-153 -3 -205.5 -55.5t-52.5 -161.5v-233q0 -162 -70 -255.5t-272 -132.5v-30
q202 -39 272 -131.5t70 -255.5v-234q0 -103 49 -156.5t209 -62.5v-80z" />
    <glyph glyph-name="bar" unicode="|" horiz-adv-x="768" 
d="M322 -424v1948h127v-1948h-127z" />
    <glyph glyph-name="braceright" unicode="}" horiz-adv-x="881" 
d="M809 537q-177 -13 -243 -72.5t-66 -183.5q0 -59 7 -125t7 -129q0 -189 -95.5 -275t-350.5 -86v80q160 9 209 62.5t49 156.5v234q0 163 70 255.5t274 131.5v30q-204 39 -274 132.5t-70 255.5v233q0 108 -52.5 160.5t-205.5 56.5v82q253 0 349.5 -86.5t96.5 -271.5
q0 -63 -7 -130q-7 -68 -7 -126q0 -125 66.5 -184t242.5 -72v-129z" />
    <glyph glyph-name="asciitilde" unicode="~" horiz-adv-x="1317" 
d="M1188 715q-46 -120 -140 -207.5t-202 -87.5q-104 0 -242 68q-138 67 -201 67q-54 0 -96.5 -33.5t-97.5 -140.5l-80 31q47 121 141.5 207t200.5 86q117 0 244 -68q126 -68 198 -68q53 0 95.5 32t101.5 144z" />
    <glyph glyph-name="exclamdown" unicode="&#xa1;" horiz-adv-x="678" 
d="M344 1174q-55 0 -96 38.5t-41 96.5q0 57 41 97t96 40q54 0 95.5 -39.5t41.5 -97.5q0 -59 -41 -97t-96 -38zM303 991h78q19 -206 54.5 -523.5t35.5 -365.5q0 -58 -36 -96.5t-91 -38.5q-57 0 -93 39.5t-36 95.5q0 50 33 333q33 292 55 556z" />
    <glyph glyph-name="cent" unicode="&#xa2;" horiz-adv-x="1137" 
d="M1040 233q-140 -230 -389 -251v-281h-82v281q-202 17 -315 157t-113 361q0 192 118.5 339t309.5 171v266h82v-260q161 -4 251.5 -78t90.5 -182q0 -127 -106 -127q-121 0 -121 96q0 41 24 130q5 18 7 32q-35 49 -146 57v-856l10 -2q39 -8 132.5 21.5t187.5 173.5zM569 938
q-225 -66 -225 -430q0 -328 225 -408v838z" />
    <glyph glyph-name="sterling" unicode="&#xa3;" horiz-adv-x="1274" 
d="M1165 176v-176h-1048v147q219 73 219 474h-166v96h166q-14 232 -14 252q0 212 125.5 349.5t328.5 137.5q157 0 257 -89t100 -208q0 -125 -105 -125q-62 0 -94.5 30t-32.5 69q0 45 31 159q-48 84 -160 84q-114 0 -180 -76t-66 -217q0 -60 6 -175q5 -116 5 -191h395v-96
h-395q0 -279 -238 -435v-10h866z" />
    <glyph glyph-name="currency" unicode="&#xa4;" horiz-adv-x="1169" 
d="M920 141l-189 185q-70 -43 -145 -43q-78 0 -146 43l-188 -187l-84 90l182 187q-41 72 -41 143q0 73 41 143l-182 191l88 86l184 -186q68 43 146 43q71 0 143 -41l186 184l91 -86l-187 -191q43 -66 43 -143q0 -75 -43 -143l187 -189zM586 725q-69 0 -115.5 -48t-46.5 -118
q0 -69 48 -117.5t114 -48.5q68 0 115 49t47 117q0 69 -48 117.5t-114 48.5z" />
    <glyph glyph-name="yen" unicode="&#xa5;" horiz-adv-x="1260" 
d="M1282 1348q-87 -15 -154.5 -69t-402.5 -636v-84h393v-94h-393v-258q0 -56 34 -88.5t171 -46.5v-72h-611v72q132 11 166.5 31.5t34.5 93.5v268h-391v94h391v66q-291 578 -359.5 647t-172.5 76v71h579v-71q-168 -9 -168 -48q0 -25 289 -542q291 491 291 516q0 61 -168 74
v71h471v-71z" />
    <glyph glyph-name="brokenbar" unicode="&#xa6;" horiz-adv-x="768" 
d="M322 723v801h127v-801h-127zM322 -424v809h127v-809h-127z" />
    <glyph glyph-name="section" unicode="&#xa7;" 
d="M653 317q207 -85 207 -266q0 -134 -111 -221.5t-292 -87.5q-144 0 -221.5 50t-77.5 122q0 100 98 100q76 0 127 -122q13 -33 27 -62q28 -10 84 -10q89 0 152 54.5t63 125.5q0 69 -55 123t-224 121q-309 119 -309 352q0 201 241 303q-204 97 -204 262q0 128 109.5 210.5
t291.5 82.5q146 0 222.5 -50.5t76.5 -123.5q0 -98 -98 -98q-76 0 -126 123q-14 32 -28 61q-28 10 -84 10q-90 0 -150.5 -51t-60.5 -127q0 -66 56 -110t251 -125q285 -119 285 -328q0 -104 -68.5 -189.5t-181.5 -128.5zM446 862q-172 -69 -172 -225q0 -93 70 -158t238 -133
q166 92 166 242q0 169 -302 274z" />
    <glyph glyph-name="dieresis" unicode="&#xa8;" 
d="M727 1241q-50 0 -84.5 36.5t-34.5 86.5q0 49 34.5 86t84.5 37q51 0 85 -37t34 -86t-34.5 -86t-84.5 -37zM297 1241q-50 0 -84.5 37t-34.5 86t34 86t85 37q50 0 84.5 -37t34.5 -86q0 -50 -34.5 -86.5t-84.5 -36.5z" />
    <glyph glyph-name="copyright" unicode="&#xa9;" horiz-adv-x="1929" 
d="M967 -281q-365 0 -626 261t-261 624q0 360 261.5 620.5t625.5 260.5q361 0 621.5 -261t260.5 -620q0 -362 -260 -623.5t-622 -261.5zM967 1397q-328 0 -558.5 -232t-230.5 -561q0 -334 230 -566.5t559 -232.5q327 0 555.5 233t228.5 566q0 329 -229 561t-555 232z
M1374 403q-123 -292 -393 -292q-220 0 -354.5 131.5t-134.5 349.5q0 213 148 356.5t372 143.5q122 0 219 -64l45 66h57l6 -363h-55q-51 165 -125 227t-186 62q-119 0 -197 -110.5t-78 -307.5q0 -177 90.5 -286t235.5 -109q200 0 293 221z" />
    <glyph glyph-name="ordfeminine" unicode="&#xaa;" 
d="M934 647q-96 -31 -143 -31q-131 0 -152 121h-6q-120 -125 -268 -125q-91 0 -150 58t-59 143q0 121 59.5 167.5t274.5 116.5q100 32 145 56v55q0 65 -39 118.5t-119 53.5q-69 0 -108 -39q3 -18 9 -45q5 -27 5 -53q0 -29 -30.5 -50.5t-78.5 -21.5q-79 0 -79 97
q0 72 91.5 128t200.5 56q172 0 241 -65.5t69 -196.5l-6 -391q0 -57 47 -82l42 -8h54v-62zM637 1075q-188 -54 -246.5 -102.5t-58.5 -122.5q0 -127 117 -127q110 0 184 86z" />
    <glyph glyph-name="guillemotleft" unicode="&#xab;" horiz-adv-x="1190" 
d="M948 121l-354 332q-43 40 -43 75q0 39 45 80l352 330l49 -41l-260 -369l260 -368zM567 121l-354 332q-43 40 -43 75t45 80l352 330l49 -41l-260 -369l260 -368z" />
    <glyph glyph-name="logicalnot" unicode="&#xac;" horiz-adv-x="1317" 
d="M1030 76v450h-887v125h1020v-575h-133z" />
    <glyph glyph-name="registered" unicode="&#xae;" horiz-adv-x="1929" 
d="M967 -281q-365 0 -626 261t-261 624q0 360 261.5 620.5t625.5 260.5q361 0 621.5 -261t260.5 -620q0 -362 -260 -623.5t-622 -261.5zM967 1397q-328 0 -558.5 -232t-230.5 -561q0 -334 230 -566.5t559 -232.5q327 0 555.5 233t228.5 566q0 329 -229 561t-555 232z
M1255 145q-158 220 -309 404h-104v-262q0 -33 18.5 -53.5t122.5 -30.5v-58h-438v58q89 11 112 26t23 58v643q0 46 -30.5 62.5t-104.5 25.5v57h491q133 0 219 -57.5t86 -163.5q0 -198 -235 -264q110 -130 184 -225q74 -96 116 -124t136 -38v-58h-287zM842 1004v-379h88
q104 0 164.5 57t60.5 152q0 170 -197 170h-116z" />
    <glyph glyph-name="macron" unicode="&#xaf;" horiz-adv-x="1317" 
d="M-4 1604v100h1327v-100h-1327z" />
    <glyph glyph-name="degree" unicode="&#xb0;" horiz-adv-x="858" 
d="M428 803q-141 0 -232.5 93t-91.5 232q0 140 92.5 232t231.5 92q145 0 236.5 -92.5t91.5 -231.5q0 -140 -92.5 -232.5t-235.5 -92.5zM428 1378q-81 0 -128.5 -66.5t-47.5 -181.5q0 -117 46.5 -184t133.5 -67q74 0 124 65t50 176q0 127 -48 192.5t-130 65.5z" />
    <glyph glyph-name="plusminus" unicode="&#xb1;" horiz-adv-x="1317" 
d="M150 0v125h446v401h-446v125h446v453h127v-453h444v-125h-444v-401h444v-125h-1017z" />
    <glyph glyph-name="twosuperior" unicode="&#xb2;" 
d="M147 489v111q61 101 228 207q169 106 229 182t60 193q0 98 -49.5 147t-129.5 49q-108 0 -155 -65q20 -85 20 -119q0 -29 -28 -52.5t-80 -23.5q-88 0 -88 103q0 86 100.5 158.5t245.5 72.5q159 0 256.5 -76t97.5 -200q0 -99 -45.5 -180t-222.5 -173q-233 -113 -307 -188
h620v-146h-752z" />
    <glyph glyph-name="threesuperior" unicode="&#xb3;" 
d="M297 582q66 -54 168 -54t162.5 59t60.5 169q0 178 -205 178h-106v92h76q192 0 192 201q0 153 -162 153q-92 0 -141 -57q18 -77 18 -109q0 -26 -28.5 -47.5t-77.5 -21.5q-88 0 -88 92q0 80 98.5 147.5t251.5 67.5q159 0 240.5 -68.5t81.5 -154.5q0 -169 -215 -230v-10
q258 -33 258 -237q0 -132 -119.5 -214.5t-302.5 -82.5q-144 0 -238 61t-94 139q0 41 22 71t62 30q53 0 79.5 -23t26.5 -51q0 -23 -7 -51q-8 -28 -13 -49z" />
    <glyph glyph-name="acute" unicode="&#xb4;" 
d="M324 1110l-39 33q114 165 202 307q53 88 127 88q34 0 58 -23.5t24 -54.5q0 -56 -43 -91t-221 -174q-47 -36 -108 -85z" />
    <glyph glyph-name="mu" unicode="&#xb5;" horiz-adv-x="1159" 
d="M1133 18q-105 -36 -164 -36q-167 0 -195 153h-6q-92 -103 -158.5 -129t-154.5 -26q-125 0 -191 79h-6v-57q0 -66 27 -186q26 -120 26 -158q0 -45 -28 -73.5t-70 -28.5q-92 0 -92 100q0 55 32 236q21 118 21 243v850h191v-676q0 -103 45 -160t118 -57q164 0 244 139v754
h191v-782q0 -60 25.5 -86t48.5 -29.5t96 -3.5v-66z" />
    <glyph glyph-name="paragraph" unicode="&#xb6;" 
d="M999 1346h-110v-1561h-103v1561h-159v-1561h-105v922q-196 0 -310 93.5t-114 258.5q0 158 112 259t273 101h516v-73z" />
    <glyph glyph-name="periodcentered" unicode="&#xb7;" horiz-adv-x="571" 
d="M289 424q-57 0 -97.5 39.5t-40.5 95.5q0 55 40.5 96t97.5 41q56 0 96.5 -40.5t40.5 -96.5t-40.5 -95.5t-96.5 -39.5z" />
    <glyph glyph-name="cedilla" unicode="&#xb8;" 
d="M307 -444v71q171 0 212.5 23.5t41.5 66.5q0 76 -164 76v223h78v-114q232 0 232 -150q0 -196 -400 -196z" />
    <glyph glyph-name="onesuperior" unicode="&#xb9;" 
d="M223 489v72q74 0 138.5 9.5t64.5 70.5v631h-207v78h64q152 0 247 96h72q-6 -168 -6 -238v-559q0 -88 192 -88v-72h-565z" />
    <glyph glyph-name="ordmasculine" unicode="&#xba;" 
d="M504 606q-160 0 -273.5 117.5t-113.5 302.5q0 189 110 307.5t289 118.5q177 0 284 -116.5t107 -297.5q0 -186 -109.5 -309t-293.5 -123zM514 1378q-105 0 -160 -92.5t-55 -245.5q0 -167 57 -263.5t158 -96.5q98 0 153.5 97.5t55.5 258.5q0 159 -54 250.5t-155 91.5z" />
    <glyph glyph-name="guillemotright" unicode="&#xbb;" horiz-adv-x="1190" 
d="M623 121l-50 39l261 368l-261 369l50 41l352 -330q45 -42 45 -80q0 -37 -30 -64zM242 121l-49 39l260 368l-260 369l49 41l352 -330q45 -42 45 -80q0 -37 -30 -64z" />
    <glyph glyph-name="onequarter" unicode="&#xbc;" horiz-adv-x="2150" 
d="M137 489v72q74 0 138.5 9.5t64.5 70.5v631h-207v78h64q152 0 247 96h72q-6 -168 -6 -238v-559q0 -88 192 -88v-72h-565zM1446 1419l-737 -1419h-135l737 1419h135zM1986 215h-157v-233h-166v233h-496v125l543 623h119v-639h157v-109zM1663 324v453l-394 -453h394z" />
    <glyph glyph-name="onehalf" unicode="&#xbd;" horiz-adv-x="2150" 
d="M137 489v72q74 0 138.5 9.5t64.5 70.5v631h-207v78h64q152 0 247 96h72q-6 -168 -6 -238v-559q0 -88 192 -88v-72h-565zM1436 1419l-737 -1419h-135l737 1419h135zM1292 2v111q61 101 228 207q169 106 229 182t60 193q0 98 -49.5 147t-129.5 49q-108 0 -155 -65
q20 -85 20 -119q0 -29 -28 -52.5t-80 -23.5q-88 0 -88 103q0 86 100.5 158.5t245.5 72.5q159 0 256.5 -76t97.5 -200q0 -99 -45.5 -180t-222.5 -173q-233 -113 -307 -188h620v-146h-752z" />
    <glyph glyph-name="threequarters" unicode="&#xbe;" horiz-adv-x="2150" 
d="M289 582q66 -54 168 -54t162.5 59t60.5 169q0 178 -205 178h-106v92h76q192 0 192 201q0 153 -162 153q-92 0 -141 -57q18 -77 18 -109q0 -26 -28.5 -47.5t-77.5 -21.5q-88 0 -88 92q0 80 98.5 147.5t251.5 67.5q159 0 240.5 -68.5t81.5 -154.5q0 -169 -215 -230v-10
q258 -33 258 -237q0 -132 -119.5 -214.5t-302.5 -82.5q-144 0 -238 61t-94 139q0 41 22 71t62 30q53 0 79.5 -23t26.5 -51q0 -23 -7 -51q-8 -28 -13 -49zM1597 1419l-737 -1419h-135l737 1419h135zM2076 215h-157v-233h-166v233h-496v125l543 623h119v-639h157v-109z
M1753 324v453l-394 -453h394z" />
    <glyph glyph-name="questiondown" unicode="&#xbf;" horiz-adv-x="981" 
d="M586 1174q-57 0 -97 40t-40 97q0 56 40.5 95.5t96.5 39.5t96.5 -39t40.5 -96t-40.5 -97t-96.5 -40zM543 827v222h92v-379q-344 -26 -344 -308q0 -309 250 -309q73 0 131 39q-23 103 -23 137q0 39 34 69t91 30q100 0 100 -123q0 -85 -97.5 -158.5t-244.5 -73.5
q-200 0 -316 117.5t-116 294.5q0 181 116 299t327 143z" />
    <glyph glyph-name="Agrave" unicode="&#xc0;" horiz-adv-x="1374" 
d="M829 0v72q183 11 183 57q0 22 -8 43l-119 320h-498q-98 -254 -98 -332q0 -74 205 -88v-72h-535v72q82 6 132 38.5t76 80.5t186 459l306 790h80l473 -1225q51 -133 209 -143v-72h-592zM635 1130l-211 -550h426zM907 1507q-116 58 -209 102q-103 48 -166 81t-63 98
q0 80 92 80q56 0 102 -50t275 -272z" />
    <glyph glyph-name="Aacute" unicode="&#xc1;" horiz-adv-x="1374" 
d="M829 0v72q183 11 183 57q0 22 -8 43l-119 320h-498q-98 -254 -98 -332q0 -74 205 -88v-72h-535v72q82 6 132 38.5t76 80.5t186 459l306 790h80l473 -1225q51 -133 209 -143v-72h-592zM635 1130l-211 -550h426zM547 1507l-31 39q166 158 262 258q60 64 115 64
q39 0 65.5 -22.5t26.5 -57.5q0 -48 -35 -76.5t-193 -102.5q-94 -44 -210 -102z" />
    <glyph glyph-name="Acircumflex" unicode="&#xc2;" horiz-adv-x="1374" 
d="M829 0v72q183 11 183 57q0 22 -8 43l-119 320h-498q-98 -254 -98 -332q0 -74 205 -88v-72h-535v72q82 6 132 38.5t76 80.5t186 459l306 790h80l473 -1225q51 -133 209 -143v-72h-592zM635 1130l-211 -550h426zM976 1507l-278 211l-274 -211l-50 31l236 285q21 25 36 35
t56 10q54 0 86 -41l238 -289z" />
    <glyph glyph-name="Atilde" unicode="&#xc3;" horiz-adv-x="1374" 
d="M829 0v72q183 11 183 57q0 22 -8 43l-119 320h-498q-98 -254 -98 -332q0 -74 205 -88v-72h-535v72q82 6 132 38.5t76 80.5t186 459l306 790h80l473 -1225q51 -133 209 -143v-72h-592zM635 1130l-211 -550h426zM1088 1824q-31 -102 -102 -171.5t-154 -69.5q-84 0 -175 51
t-134 51q-36 0 -61 -16t-81 -119l-59 25q93 241 250 241q80 0 171 -51t128 -51q96 0 130 78q11 25 26 57z" />
    <glyph glyph-name="Adieresis" unicode="&#xc4;" horiz-adv-x="1374" 
d="M829 0v72q183 11 183 57q0 22 -8 43l-119 320h-498q-98 -254 -98 -332q0 -74 205 -88v-72h-535v72q82 6 132 38.5t76 80.5t186 459l306 790h80l473 -1225q51 -133 209 -143v-72h-592zM635 1130l-211 -550h426zM919 1598q-49 0 -84 35.5t-35 87.5q0 51 35 86.5t84 35.5
t83 -35.5t34 -86.5q0 -52 -34 -87.5t-83 -35.5zM469 1598q-49 0 -83 35.5t-34 87.5q0 51 34 86.5t83 35.5t84 -35.5t35 -86.5q0 -52 -35 -87.5t-84 -35.5z" />
    <glyph glyph-name="Aring" unicode="&#xc5;" horiz-adv-x="1374" 
d="M829 0v72q183 11 183 57q0 22 -8 43l-119 320h-498q-98 -254 -98 -332q0 -74 205 -88v-72h-535v72q82 6 132 38.5t76 80.5t186 459l306 790h80l473 -1225q51 -133 209 -143v-72h-592zM635 1130l-211 -550h426zM696 1421q-117 0 -187.5 60.5t-70.5 162.5q0 97 74 159.5
t184 62.5q114 0 186 -61t72 -161q0 -98 -71 -160.5t-187 -62.5zM696 1802q-131 0 -131 -158q0 -69 33 -114t98 -45q131 0 131 159q0 72 -35 115t-96 43z" />
    <glyph glyph-name="AE" unicode="&#xc6;" horiz-adv-x="1989" 
d="M1915 0h-1170v72q148 8 175.5 38t27.5 83v409h-479q-211 -362 -211 -432q0 -87 168 -98v-72h-522v72q142 14 209.5 108.5t652.5 1144.5q-49 17 -170 23v71h1239v-342h-76q-18 75 -76 150t-101.5 93.5t-207.5 18.5h-213v-563h150q116 0 164.5 49.5t68.5 182.5h76v-555h-76
q-4 48 -28.5 120.5t-69.5 96.5t-135 24h-150v-426q0 -128 42.5 -157t201.5 -29h84q133 0 180 22t108.5 123.5t92.5 190.5h72zM948 1331h-78l-354 -641h432v641z" />
    <glyph glyph-name="Ccedilla" unicode="&#xc7;" horiz-adv-x="1315" 
d="M1288 358q-156 -391 -565 -391q-271 0 -458 203.5t-187 525.5q0 330 192.5 542t483.5 212q195 0 352 -98l41 67h80l10 -506h-84q-97 453 -387 453q-204 0 -326.5 -174t-122.5 -481q0 -272 135 -451.5t345 -179.5q295 0 417 315zM579 -444v71q171 0 212.5 23.5t41.5 66.5
q0 76 -164 76v223h78v-114q232 0 232 -150q0 -196 -400 -196z" />
    <glyph glyph-name="Egrave" unicode="&#xc8;" horiz-adv-x="1337" 
d="M1264 0h-1178v72q134 11 168.5 34.5t34.5 86.5v1019q0 70 -53.5 99t-149.5 37v71h1098v-342h-74q-21 78 -79.5 152t-100.5 92t-205 18h-223v-563h160q113 0 163 50.5t70 181.5h74v-555h-74q-5 50 -28 117.5t-65.5 95.5t-139.5 28h-160v-426q0 -122 38.5 -154t202.5 -32
h87q140 0 189 22t108 121t92 193h71zM815 1507q-116 58 -209 102q-103 48 -166 81t-63 98q0 80 92 80q56 0 102 -50t275 -272z" />
    <glyph glyph-name="Eacute" unicode="&#xc9;" horiz-adv-x="1337" 
d="M1264 0h-1178v72q134 11 168.5 34.5t34.5 86.5v1019q0 70 -53.5 99t-149.5 37v71h1098v-342h-74q-21 78 -79.5 152t-100.5 92t-205 18h-223v-563h160q113 0 163 50.5t70 181.5h74v-555h-74q-5 50 -28 117.5t-65.5 95.5t-139.5 28h-160v-426q0 -122 38.5 -154t202.5 -32
h87q140 0 189 22t108 121t92 193h71zM525 1507l-31 39q166 158 262 258q60 64 115 64q39 0 65.5 -22.5t26.5 -57.5q0 -48 -35 -76.5t-193 -102.5q-94 -44 -210 -102z" />
    <glyph glyph-name="Ecircumflex" unicode="&#xca;" horiz-adv-x="1337" 
d="M1264 0h-1178v72q134 11 168.5 34.5t34.5 86.5v1019q0 70 -53.5 99t-149.5 37v71h1098v-342h-74q-21 78 -79.5 152t-100.5 92t-205 18h-223v-563h160q113 0 163 50.5t70 181.5h74v-555h-74q-5 50 -28 117.5t-65.5 95.5t-139.5 28h-160v-426q0 -122 38.5 -154t202.5 -32
h87q140 0 189 22t108 121t92 193h71zM956 1507l-278 211l-274 -211l-50 31l236 285q21 25 36 35t56 10q54 0 86 -41l238 -289z" />
    <glyph glyph-name="Edieresis" unicode="&#xcb;" horiz-adv-x="1337" 
d="M1264 0h-1178v72q134 11 168.5 34.5t34.5 86.5v1019q0 70 -53.5 99t-149.5 37v71h1098v-342h-74q-21 78 -79.5 152t-100.5 92t-205 18h-223v-563h160q113 0 163 50.5t70 181.5h74v-555h-74q-5 50 -28 117.5t-65.5 95.5t-139.5 28h-160v-426q0 -122 38.5 -154t202.5 -32
h87q140 0 189 22t108 121t92 193h71zM913 1608q-49 0 -84 35.5t-35 87.5q0 51 35 86.5t84 35.5t83 -35.5t34 -86.5q0 -52 -34 -87.5t-83 -35.5zM463 1608q-49 0 -83 35.5t-34 87.5q0 51 34 86.5t83 35.5t84 -35.5t35 -86.5q0 -52 -35 -87.5t-84 -35.5z" />
    <glyph glyph-name="Igrave" unicode="&#xcc;" horiz-adv-x="799" 
d="M80 0v72q141 10 177 29t36 85v1028q0 67 -59.5 97t-153.5 37v71h639v-71q-135 -10 -174 -35.5t-39 -87.5v-1026q0 -52 34 -83.5t179 -43.5v-72h-639zM645 1507q-116 58 -209 102q-103 48 -166 81t-63 98q0 80 92 80q56 0 102 -50t275 -272z" />
    <glyph glyph-name="Iacute" unicode="&#xcd;" horiz-adv-x="799" 
d="M80 0v72q141 10 177 29t36 85v1028q0 67 -59.5 97t-153.5 37v71h639v-71q-135 -10 -174 -35.5t-39 -87.5v-1026q0 -52 34 -83.5t179 -43.5v-72h-639zM201 1507l-31 39q166 158 262 258q60 64 115 64q39 0 65.5 -22.5t26.5 -57.5q0 -48 -35 -76.5t-193 -102.5
q-94 -44 -210 -102z" />
    <glyph glyph-name="Icircumflex" unicode="&#xce;" horiz-adv-x="799" 
d="M80 0v72q141 10 177 29t36 85v1028q0 67 -59.5 97t-153.5 37v71h639v-71q-135 -10 -174 -35.5t-39 -87.5v-1026q0 -52 34 -83.5t179 -43.5v-72h-639zM677 1507l-278 211l-274 -211l-50 31l236 285q21 25 36 35t56 10q54 0 86 -41l238 -289z" />
    <glyph glyph-name="Idieresis" unicode="&#xcf;" horiz-adv-x="799" 
d="M80 0v72q141 10 177 29t36 85v1028q0 67 -59.5 97t-153.5 37v71h639v-71q-135 -10 -174 -35.5t-39 -87.5v-1026q0 -52 34 -83.5t179 -43.5v-72h-639zM616 1608q-50 0 -84.5 36.5t-34.5 86.5q0 49 34.5 86t84.5 37q51 0 85 -37t34 -86t-34.5 -86t-84.5 -37zM186 1608
q-50 0 -84.5 37t-34.5 86t34 86t85 37q50 0 84.5 -37t34.5 -86q0 -50 -34.5 -86.5t-84.5 -36.5z" />
    <glyph glyph-name="Eth" unicode="&#xd0;" horiz-adv-x="1534" 
d="M94 0v72q121 0 158 28t37 88v512h-187v99h187v413q0 66 -42.5 95.5t-144.5 40.5v71h621q300 0 516.5 -186.5t216.5 -532.5q0 -323 -221.5 -511.5t-552.5 -188.5h-588zM502 1333v-534h301v-99h-301v-456q0 -91 52.5 -126.5t162.5 -35.5q242 0 368.5 160t126.5 460
q0 282 -149.5 458.5t-392.5 176.5q-104 0 -168 -4z" />
    <glyph glyph-name="Ntilde" unicode="&#xd1;" horiz-adv-x="1571" 
d="M1554 1348q-146 -19 -188.5 -64t-42.5 -260v-1038h-86l-860 1161v-731q0 -132 16 -193t38.5 -83.5t87 -43t112.5 -24.5v-72h-584v72q119 17 176.5 54t57.5 277v701q0 207 -256 244v71h403l799 -1081v674q0 228 -56.5 272.5t-193.5 63.5v71h577v-71zM1194 1835
q-31 -102 -102 -171.5t-154 -69.5q-84 0 -175 51t-134 51q-36 0 -61 -16t-81 -119l-59 25q93 241 250 241q80 0 171 -51t128 -51q96 0 130 78q11 25 26 57z" />
    <glyph glyph-name="Ograve" unicode="&#xd2;" horiz-adv-x="1524" 
d="M762 -35q-293 0 -487.5 210.5t-194.5 533.5q0 326 197.5 534.5t484.5 208.5q292 0 487 -208t195 -535q0 -328 -197.5 -536t-484.5 -208zM762 1364q-209 0 -324.5 -176.5t-115.5 -478.5q0 -304 116 -479t324 -175q210 0 325 175.5t115 478.5q0 304 -116 479.5t-324 175.5z
M999 1507q-116 58 -209 102q-103 48 -166 81t-63 98q0 80 92 80q56 0 102 -50t275 -272z" />
    <glyph glyph-name="Oacute" unicode="&#xd3;" horiz-adv-x="1524" 
d="M762 -35q-293 0 -487.5 210.5t-194.5 533.5q0 326 197.5 534.5t484.5 208.5q292 0 487 -208t195 -535q0 -328 -197.5 -536t-484.5 -208zM762 1364q-209 0 -324.5 -176.5t-115.5 -478.5q0 -304 116 -479t324 -175q210 0 325 175.5t115 478.5q0 304 -116 479.5t-324 175.5z
M568 1507l-31 39q166 158 262 258q60 64 115 64q39 0 65.5 -22.5t26.5 -57.5q0 -48 -35 -76.5t-193 -102.5q-94 -44 -210 -102z" />
    <glyph glyph-name="Ocircumflex" unicode="&#xd4;" horiz-adv-x="1524" 
d="M762 -35q-293 0 -487.5 210.5t-194.5 533.5q0 326 197.5 534.5t484.5 208.5q292 0 487 -208t195 -535q0 -328 -197.5 -536t-484.5 -208zM762 1364q-209 0 -324.5 -176.5t-115.5 -478.5q0 -304 116 -479t324 -175q210 0 325 175.5t115 478.5q0 304 -116 479.5t-324 175.5z
M1038 1507l-278 211l-274 -211l-50 31l236 285q21 25 36 35t56 10q54 0 86 -41l238 -289z" />
    <glyph glyph-name="Otilde" unicode="&#xd5;" horiz-adv-x="1524" 
d="M762 -35q-293 0 -487.5 210.5t-194.5 533.5q0 326 197.5 534.5t484.5 208.5q292 0 487 -208t195 -535q0 -328 -197.5 -536t-484.5 -208zM762 1364q-209 0 -324.5 -176.5t-115.5 -478.5q0 -304 116 -479t324 -175q210 0 325 175.5t115 478.5q0 304 -116 479.5t-324 175.5z
M1145 1835q-31 -102 -102 -171.5t-154 -69.5q-84 0 -175 51t-134 51q-36 0 -61 -16t-81 -119l-59 25q93 241 250 241q80 0 171 -51t128 -51q96 0 130 78q11 25 26 57z" />
    <glyph glyph-name="Odieresis" unicode="&#xd6;" horiz-adv-x="1524" 
d="M762 -35q-293 0 -487.5 210.5t-194.5 533.5q0 326 197.5 534.5t484.5 208.5q292 0 487 -208t195 -535q0 -328 -197.5 -536t-484.5 -208zM762 1364q-209 0 -324.5 -176.5t-115.5 -478.5q0 -304 116 -479t324 -175q210 0 325 175.5t115 478.5q0 304 -116 479.5t-324 175.5z
M987 1608q-49 0 -84 35.5t-35 87.5q0 51 35 86.5t84 35.5t83 -35.5t34 -86.5q0 -52 -34 -87.5t-83 -35.5zM537 1608q-49 0 -83 35.5t-34 87.5q0 51 34 86.5t83 35.5t84 -35.5t35 -86.5q0 -52 -35 -87.5t-84 -35.5z" />
    <glyph glyph-name="multiply" unicode="&#xd7;" horiz-adv-x="1317" 
d="M1020 111l-363 362l-360 -364l-88 90l362 360l-362 363l88 88l360 -363l363 363l88 -88l-365 -363l365 -360z" />
    <glyph glyph-name="Oslash" unicode="&#xd8;" horiz-adv-x="1524" 
d="M330 127l-174 -211l-66 49l182 215q-192 214 -192 529q0 326 197.5 534.5t484.5 208.5q250 0 432 -160l152 185l65 -54l-158 -186q191 -219 191 -528q0 -328 -197.5 -536t-484.5 -208q-243 0 -432 162zM1098 1176q-117 188 -336 188q-213 0 -328 -178t-115 -477
q0 -235 66 -394zM1141 1102l-715 -858q120 -189 336 -189q209 0 325.5 175t116.5 479q0 237 -63 393z" />
    <glyph glyph-name="Ugrave" unicode="&#xd9;" horiz-adv-x="1548" 
d="M1534 1348q-151 -12 -191 -67.5t-40 -248.5v-616q0 -210 -153.5 -330.5t-358.5 -120.5q-242 0 -386.5 118t-144.5 292v837q0 117 -186 136v71h592v-71q-120 -10 -155.5 -35t-35.5 -90v-785q0 -360 352 -360q184 0 280.5 103t96.5 255v584q0 212 -52.5 262t-199.5 66v71
h582v-71zM991 1507q-116 58 -209 102q-103 48 -166 81t-63 98q0 80 92 80q56 0 102 -50t275 -272z" />
    <glyph glyph-name="Uacute" unicode="&#xda;" horiz-adv-x="1548" 
d="M1534 1348q-151 -12 -191 -67.5t-40 -248.5v-616q0 -210 -153.5 -330.5t-358.5 -120.5q-242 0 -386.5 118t-144.5 292v837q0 117 -186 136v71h592v-71q-120 -10 -155.5 -35t-35.5 -90v-785q0 -360 352 -360q184 0 280.5 103t96.5 255v584q0 212 -52.5 262t-199.5 66v71
h582v-71zM615 1507l-31 39q166 158 262 258q60 64 115 64q39 0 65.5 -22.5t26.5 -57.5q0 -48 -35 -76.5t-193 -102.5q-94 -44 -210 -102z" />
    <glyph glyph-name="Ucircumflex" unicode="&#xdb;" horiz-adv-x="1548" 
d="M1534 1348q-151 -12 -191 -67.5t-40 -248.5v-616q0 -210 -153.5 -330.5t-358.5 -120.5q-242 0 -386.5 118t-144.5 292v837q0 117 -186 136v71h592v-71q-120 -10 -155.5 -35t-35.5 -90v-785q0 -360 352 -360q184 0 280.5 103t96.5 255v584q0 212 -52.5 262t-199.5 66v71
h582v-71zM1087 1507l-278 211l-274 -211l-50 31l236 285q21 25 36 35t56 10q54 0 86 -41l238 -289z" />
    <glyph glyph-name="Udieresis" unicode="&#xdc;" horiz-adv-x="1548" 
d="M1534 1348q-151 -12 -191 -67.5t-40 -248.5v-616q0 -210 -153.5 -330.5t-358.5 -120.5q-242 0 -386.5 118t-144.5 292v837q0 117 -186 136v71h592v-71q-120 -10 -155.5 -35t-35.5 -90v-785q0 -360 352 -360q184 0 280.5 103t96.5 255v584q0 212 -52.5 262t-199.5 66v71
h582v-71zM1040 1608q-49 0 -84 35.5t-35 87.5q0 51 35 86.5t84 35.5t83 -35.5t34 -86.5q0 -52 -34 -87.5t-83 -35.5zM590 1608q-49 0 -83 35.5t-34 87.5q0 51 34 86.5t83 35.5t84 -35.5t35 -86.5q0 -52 -35 -87.5t-84 -35.5z" />
    <glyph glyph-name="Yacute" unicode="&#xdd;" horiz-adv-x="1260" 
d="M1315 1348q-57 -6 -108.5 -36.5t-119.5 -125.5t-193.5 -310.5t-145 -262t-19.5 -134.5v-270q0 -57 38.5 -90t188.5 -47v-72h-663v72q147 10 185 32t38 95v344q0 34 -169 350.5t-223.5 381t-166.5 73.5v71h604v-71q-186 -9 -186 -48q0 -28 311 -591q324 520 324 565
q0 30 -35.5 47.5t-153.5 26.5v71h494v-71zM525 1507l-31 39q166 158 262 258q60 64 115 64q39 0 65.5 -22.5t26.5 -57.5q0 -48 -35 -76.5t-193 -102.5q-94 -44 -210 -102z" />
    <glyph glyph-name="Thorn" unicode="&#xde;" horiz-adv-x="1257" 
d="M502 324v-131q0 -71 36.5 -92.5t166.5 -28.5v-72h-607v72q124 10 157.5 32t33.5 89v1021q0 67 -53.5 97t-139.5 37v71h596v-71q-119 -10 -154.5 -35t-35.5 -88v-92h252q187 0 311.5 -103.5t124.5 -271.5q0 -205 -144.5 -319.5t-375.5 -114.5h-168zM502 1049v-637h108
q164 0 247 84.5t83 228.5q0 155 -76.5 239.5t-222.5 84.5h-139z" />
    <glyph glyph-name="germandbls" unicode="&#xdf;" horiz-adv-x="1122" 
d="M489 0v82q38 -10 89 -10q258 0 258 432q0 178 -76 282.5t-211 104.5h-21v86h37q96 0 164 69.5t68 192.5q0 115 -50 175.5t-135 60.5q-227 0 -227 -414v-1061h-326v66q106 7 123 39t17 67v834q0 186 45 296t146.5 179t232.5 69q154 0 251 -80.5t97 -224.5
q0 -123 -79.5 -207t-189.5 -98v-8q152 -36 247 -151t95 -283q0 -226 -124.5 -367t-309.5 -141q-71 0 -121 10z" />
    <glyph glyph-name="agrave" unicode="&#xe0;" horiz-adv-x="1032" 
d="M1006 18q-104 -38 -162 -38q-157 0 -185 143h-6q-133 -148 -319 -148q-111 0 -182.5 67.5t-71.5 178.5q0 124 68 189.5t234 120.5q237 78 273 100v98q0 86 -47.5 148.5t-140.5 62.5q-96 0 -141 -47q0 -25 9 -59t9 -72q0 -39 -34.5 -65.5t-84.5 -26.5q-96 0 -96 114
q0 89 112 159.5t238 70.5q205 0 285 -80.5t80 -245.5l-6 -493q0 -54 25.5 -80t46 -29.5t96.5 -3.5v-64zM657 547q-218 -64 -297 -132t-79 -169q0 -160 153 -160q118 0 217 115zM657 1110q-105 85 -252 197q-81 61 -100.5 87t-19.5 66q0 31 24 54.5t58 23.5q74 0 127 -88
q88 -142 202 -307z" />
    <glyph glyph-name="aacute" unicode="&#xe1;" horiz-adv-x="1032" 
d="M1006 18q-104 -38 -162 -38q-157 0 -185 143h-6q-133 -148 -319 -148q-111 0 -182.5 67.5t-71.5 178.5q0 124 68 189.5t234 120.5q237 78 273 100v98q0 86 -47.5 148.5t-140.5 62.5q-96 0 -141 -47q0 -25 9 -59t9 -72q0 -39 -34.5 -65.5t-84.5 -26.5q-96 0 -96 114
q0 89 112 159.5t238 70.5q205 0 285 -80.5t80 -245.5l-6 -493q0 -54 25.5 -80t46 -29.5t96.5 -3.5v-64zM657 547q-218 -64 -297 -132t-79 -169q0 -160 153 -160q118 0 217 115zM367 1110l-39 33q114 165 202 307q53 88 127 88q34 0 58 -23.5t24 -54.5q0 -56 -43 -91
t-221 -174q-47 -36 -108 -85z" />
    <glyph glyph-name="acircumflex" unicode="&#xe2;" horiz-adv-x="1032" 
d="M1006 18q-104 -38 -162 -38q-157 0 -185 143h-6q-133 -148 -319 -148q-111 0 -182.5 67.5t-71.5 178.5q0 124 68 189.5t234 120.5q237 78 273 100v98q0 86 -47.5 148.5t-140.5 62.5q-96 0 -141 -47q0 -25 9 -59t9 -72q0 -39 -34.5 -65.5t-84.5 -26.5q-96 0 -96 114
q0 89 112 159.5t238 70.5q205 0 285 -80.5t80 -245.5l-6 -493q0 -54 25.5 -80t46 -29.5t96.5 -3.5v-64zM657 547q-218 -64 -297 -132t-79 -169q0 -160 153 -160q118 0 217 115zM770 1124l-278 273l-274 -273l-50 33l238 346q19 27 34.5 36t55.5 9q55 0 84 -41l240 -350z" />
    <glyph glyph-name="atilde" unicode="&#xe3;" horiz-adv-x="1032" 
d="M1006 18q-104 -38 -162 -38q-157 0 -185 143h-6q-133 -148 -319 -148q-111 0 -182.5 67.5t-71.5 178.5q0 124 68 189.5t234 120.5q237 78 273 100v98q0 86 -47.5 148.5t-140.5 62.5q-96 0 -141 -47q0 -25 9 -59t9 -72q0 -39 -34.5 -65.5t-84.5 -26.5q-96 0 -96 114
q0 89 112 159.5t238 70.5q205 0 285 -80.5t80 -245.5l-6 -493q0 -54 25.5 -80t46 -29.5t96.5 -3.5v-64zM657 547q-218 -64 -297 -132t-79 -169q0 -160 153 -160q118 0 217 115zM891 1466q-31 -102 -102 -171.5t-154 -69.5q-84 0 -175 51t-134 51q-36 0 -61 -16t-81 -119
l-59 25q93 241 250 241q80 0 171 -51t128 -51q96 0 130 78q11 25 26 57z" />
    <glyph glyph-name="adieresis" unicode="&#xe4;" horiz-adv-x="1032" 
d="M1006 18q-104 -38 -162 -38q-157 0 -185 143h-6q-133 -148 -319 -148q-111 0 -182.5 67.5t-71.5 178.5q0 124 68 189.5t234 120.5q237 78 273 100v98q0 86 -47.5 148.5t-140.5 62.5q-96 0 -141 -47q0 -25 9 -59t9 -72q0 -39 -34.5 -65.5t-84.5 -26.5q-96 0 -96 114
q0 89 112 159.5t238 70.5q205 0 285 -80.5t80 -245.5l-6 -493q0 -54 25.5 -80t46 -29.5t96.5 -3.5v-64zM657 547q-218 -64 -297 -132t-79 -169q0 -160 153 -160q118 0 217 115zM711 1241q-50 0 -84.5 36.5t-34.5 86.5q0 49 34.5 86t84.5 37q51 0 85 -37t34 -86t-34.5 -86
t-84.5 -37zM281 1241q-50 0 -84.5 37t-34.5 86t34 86t85 37q50 0 84.5 -37t34.5 -86q0 -50 -34.5 -86.5t-84.5 -36.5z" />
    <glyph glyph-name="aring" unicode="&#xe5;" horiz-adv-x="1032" 
d="M1006 18q-104 -38 -162 -38q-157 0 -185 143h-6q-133 -148 -319 -148q-111 0 -182.5 67.5t-71.5 178.5q0 124 68 189.5t234 120.5q237 78 273 100v98q0 86 -47.5 148.5t-140.5 62.5q-96 0 -141 -47q0 -25 9 -59t9 -72q0 -39 -34.5 -65.5t-84.5 -26.5q-96 0 -96 114
q0 89 112 159.5t238 70.5q205 0 285 -80.5t80 -245.5l-6 -493q0 -54 25.5 -80t46 -29.5t96.5 -3.5v-64zM657 547q-218 -64 -297 -132t-79 -169q0 -160 153 -160q118 0 217 115zM496 1114q-117 0 -187.5 60.5t-70.5 162.5q0 97 74 159.5t184 62.5q114 0 186 -61t72 -161
q0 -98 -71 -160.5t-187 -62.5zM496 1495q-131 0 -131 -158q0 -69 33 -114t98 -45q131 0 131 159q0 72 -35 115t-96 43z" />
    <glyph glyph-name="ae" unicode="&#xe6;" horiz-adv-x="1509" 
d="M1468 233q-127 -260 -385 -260q-243 0 -370 189h-6q-142 -189 -367 -189q-117 0 -187.5 67.5t-70.5 178.5q0 129 78.5 209t480.5 195v106q0 80 -43.5 145.5t-128.5 65.5q-100 0 -145 -47q0 -25 9 -59t9 -72q0 -39 -33.5 -65.5t-85.5 -26.5q-96 0 -96 114q0 87 110 158.5
t234 71.5q229 0 311 -121q125 121 281 121q184 0 282.5 -111t98.5 -297v-57h-619q0 -465 305 -465q174 0 269 192zM1245 631q0 307 -194 307q-97 0 -161.5 -87t-64.5 -220h420zM643 537q-362 -71 -362 -289q0 -162 145 -162q132 0 217 109v342z" />
    <glyph glyph-name="ccedilla" unicode="&#xe7;" horiz-adv-x="930" 
d="M926 229q-63 -114 -171.5 -185t-226.5 -71q-214 0 -335 142.5t-121 382.5q0 212 132.5 364t336.5 152q151 0 239 -71.5t88 -186.5q0 -127 -102 -127q-58 0 -91.5 29t-33.5 67q0 40 12 90q12 51 15 72q-29 51 -131 51q-113 0 -185.5 -111.5t-72.5 -320.5
q0 -189 83.5 -305.5t215.5 -116.5q171 0 282 188zM368 -444v71q171 0 212.5 23.5t41.5 66.5q0 76 -164 76v223h78v-114q232 0 232 -150q0 -196 -400 -196z" />
    <glyph glyph-name="egrave" unicode="&#xe8;" horiz-adv-x="989" 
d="M948 231q-138 -258 -405 -258q-222 0 -346.5 145.5t-124.5 383.5q0 210 126.5 361t323.5 151q195 0 298.5 -113.5t103.5 -310.5v-66h-654q0 -210 85.5 -325t244.5 -115q88 0 150.5 39t128.5 151zM727 608q0 330 -207 330q-104 0 -174 -88t-76 -242h457zM659 1110
q-105 85 -252 197q-81 61 -100.5 87t-19.5 66q0 31 24 54.5t58 23.5q74 0 127 -88q88 -142 202 -307z" />
    <glyph glyph-name="eacute" unicode="&#xe9;" horiz-adv-x="989" 
d="M948 231q-138 -258 -405 -258q-222 0 -346.5 145.5t-124.5 383.5q0 210 126.5 361t323.5 151q195 0 298.5 -113.5t103.5 -310.5v-66h-654q0 -210 85.5 -325t244.5 -115q88 0 150.5 39t128.5 151zM727 608q0 330 -207 330q-104 0 -174 -88t-76 -242h457zM392 1110l-39 33
q114 165 202 307q53 88 127 88q34 0 58 -23.5t24 -54.5q0 -56 -43 -91t-221 -174q-47 -36 -108 -85z" />
    <glyph glyph-name="ecircumflex" unicode="&#xea;" horiz-adv-x="989" 
d="M948 231q-138 -258 -405 -258q-222 0 -346.5 145.5t-124.5 383.5q0 210 126.5 361t323.5 151q195 0 298.5 -113.5t103.5 -310.5v-66h-654q0 -210 85.5 -325t244.5 -115q88 0 150.5 39t128.5 151zM727 608q0 330 -207 330q-104 0 -174 -88t-76 -242h457zM798 1118
l-278 273l-274 -273l-50 33l238 346q19 27 34.5 36t55.5 9q55 0 84 -41l240 -350z" />
    <glyph glyph-name="edieresis" unicode="&#xeb;" horiz-adv-x="989" 
d="M948 231q-138 -258 -405 -258q-222 0 -346.5 145.5t-124.5 383.5q0 210 126.5 361t323.5 151q195 0 298.5 -113.5t103.5 -310.5v-66h-654q0 -210 85.5 -325t244.5 -115q88 0 150.5 39t128.5 151zM727 608q0 330 -207 330q-104 0 -174 -88t-76 -242h457zM743 1241
q-50 0 -84.5 36.5t-34.5 86.5q0 49 34.5 86t84.5 37q51 0 85 -37t34 -86t-34.5 -86t-84.5 -37zM313 1241q-50 0 -84.5 37t-34.5 86t34 86t85 37q50 0 84.5 -37t34.5 -86q0 -50 -34.5 -86.5t-84.5 -36.5z" />
    <glyph glyph-name="igrave" unicode="&#xec;" horiz-adv-x="600" 
d="M74 0v66l48 5q97 7 97 97v608q0 122 -176 135v66l348 20l15 -14v-803q0 -57 35.5 -81t109.5 -33v-66h-477zM415 1110q-105 85 -252 197q-81 61 -100.5 87t-19.5 66q0 31 24 54.5t58 23.5q74 0 127 -88q88 -142 202 -307z" />
    <glyph glyph-name="iacute" unicode="&#xed;" horiz-adv-x="600" 
d="M74 0v66l48 5q97 7 97 97v608q0 122 -176 135v66l348 20l15 -14v-803q0 -57 35.5 -81t109.5 -33v-66h-477zM142 1110l-39 33q114 165 202 307q53 88 127 88q34 0 58 -23.5t24 -54.5q0 -56 -43 -91t-221 -174q-47 -36 -108 -85z" />
    <glyph glyph-name="icircumflex" unicode="&#xee;" horiz-adv-x="600" 
d="M74 0v66l48 5q97 7 97 97v608q0 122 -176 135v66l348 20l15 -14v-803q0 -57 35.5 -81t109.5 -33v-66h-477zM538 1118l-278 273l-274 -273l-50 33l238 346q19 27 34.5 36t55.5 9q55 0 84 -41l240 -350z" />
    <glyph glyph-name="idieresis" unicode="&#xef;" horiz-adv-x="600" 
d="M74 0v66l48 5q97 7 97 97v608q0 122 -176 135v66l348 20l15 -14v-803q0 -57 35.5 -81t109.5 -33v-66h-477zM485 1241q-50 0 -84.5 36.5t-34.5 86.5q0 49 34.5 86t84.5 37q51 0 85 -37t34 -86t-34.5 -86t-84.5 -37zM55 1241q-50 0 -84.5 37t-34.5 86t34 86t85 37
q50 0 84.5 -37t34.5 -86q0 -50 -34.5 -86.5t-84.5 -36.5z" />
    <glyph glyph-name="eth" unicode="&#xf0;" horiz-adv-x="1090" 
d="M795 846l8 2q-25 219 -174 434l-232 -137l-49 78l227 131q-55 74 -165 145l51 57q109 -56 213 -147l203 123l51 -80l-191 -109q277 -293 277 -733q0 -295 -129 -468t-353 -173q-192 0 -327 143.5t-135 372.5q0 222 127 361t327 139q176 0 271 -139zM545 905
q-131 0 -200 -106.5t-69 -298.5q0 -455 267 -455q126 0 194 127t68 340q0 177 -70.5 285t-189.5 108z" />
    <glyph glyph-name="ntilde" unicode="&#xf1;" horiz-adv-x="1210" 
d="M678 0v66l51 5q100 6 100 97v508q0 100 -47.5 159.5t-122.5 59.5q-171 0 -256 -150v-567q0 -100 152 -112v-66h-483v66l48 5q97 7 97 97v608q0 129 -156 135v66l328 20l14 -14v-137h5q109 112 179.5 140t151.5 28q279 0 279 -326v-512q0 -99 143 -110v-66h-483zM987 1466
q-31 -102 -102 -171.5t-154 -69.5q-84 0 -175 51t-134 51q-36 0 -61 -16t-81 -119l-59 25q93 241 250 241q80 0 171 -51t128 -51q96 0 130 78q11 25 26 57z" />
    <glyph glyph-name="ograve" unicode="&#xf2;" horiz-adv-x="1104" 
d="M543 -31q-198 0 -335.5 146t-137.5 374q0 232 134.5 378.5t352.5 146.5q212 0 343.5 -142.5t131.5 -367.5q0 -234 -134 -384.5t-355 -150.5zM555 938q-135 0 -207 -117.5t-72 -314.5q0 -209 72.5 -335t206.5 -126q128 0 199 125t71 332q0 202 -69.5 319t-200.5 117z
M747 1110q-105 85 -252 197q-81 61 -100.5 87t-19.5 66q0 31 24 54.5t58 23.5q74 0 127 -88q88 -142 202 -307z" />
    <glyph glyph-name="oacute" unicode="&#xf3;" horiz-adv-x="1104" 
d="M543 -31q-198 0 -335.5 146t-137.5 374q0 232 134.5 378.5t352.5 146.5q212 0 343.5 -142.5t131.5 -367.5q0 -234 -134 -384.5t-355 -150.5zM555 938q-135 0 -207 -117.5t-72 -314.5q0 -209 72.5 -335t206.5 -126q128 0 199 125t71 332q0 202 -69.5 319t-200.5 117z
M371 1110l-39 33q114 165 202 307q53 88 127 88q34 0 58 -23.5t24 -54.5q0 -56 -43 -91t-221 -174q-47 -36 -108 -85z" />
    <glyph glyph-name="ocircumflex" unicode="&#xf4;" horiz-adv-x="1104" 
d="M543 -31q-198 0 -335.5 146t-137.5 374q0 232 134.5 378.5t352.5 146.5q212 0 343.5 -142.5t131.5 -367.5q0 -234 -134 -384.5t-355 -150.5zM555 938q-135 0 -207 -117.5t-72 -314.5q0 -209 72.5 -335t206.5 -126q128 0 199 125t71 332q0 202 -69.5 319t-200.5 117z
M835 1118l-278 273l-274 -273l-50 33l238 346q19 27 34.5 36t55.5 9q55 0 84 -41l240 -350z" />
    <glyph glyph-name="otilde" unicode="&#xf5;" horiz-adv-x="1104" 
d="M543 -31q-198 0 -335.5 146t-137.5 374q0 232 134.5 378.5t352.5 146.5q212 0 343.5 -142.5t131.5 -367.5q0 -234 -134 -384.5t-355 -150.5zM555 938q-135 0 -207 -117.5t-72 -314.5q0 -209 72.5 -335t206.5 -126q128 0 199 125t71 332q0 202 -69.5 319t-200.5 117z
M942 1466q-31 -102 -102 -171.5t-154 -69.5q-84 0 -175 51t-134 51q-36 0 -61 -16t-81 -119l-59 25q93 241 250 241q80 0 171 -51t128 -51q96 0 130 78q11 25 26 57z" />
    <glyph glyph-name="odieresis" unicode="&#xf6;" horiz-adv-x="1104" 
d="M543 -31q-198 0 -335.5 146t-137.5 374q0 232 134.5 378.5t352.5 146.5q212 0 343.5 -142.5t131.5 -367.5q0 -234 -134 -384.5t-355 -150.5zM555 938q-135 0 -207 -117.5t-72 -314.5q0 -209 72.5 -335t206.5 -126q128 0 199 125t71 332q0 202 -69.5 319t-200.5 117z
M774 1241q-50 0 -84.5 36.5t-34.5 86.5q0 49 34.5 86t84.5 37q51 0 85 -37t34 -86t-34.5 -86t-84.5 -37zM344 1241q-50 0 -84.5 37t-34.5 86t34 86t85 37q50 0 84.5 -37t34.5 -86q0 -50 -34.5 -86.5t-84.5 -36.5z" />
    <glyph glyph-name="divide" unicode="&#xf7;" horiz-adv-x="1317" 
d="M659 838q-54 0 -91.5 37.5t-37.5 91.5q0 52 37.5 89.5t91.5 37.5q53 0 91 -38.5t38 -88.5q0 -52 -38 -90.5t-91 -38.5zM143 498v125h1031v-125h-1031zM659 27q-55 0 -92 37.5t-37 89.5q0 53 38.5 91t90.5 38t90.5 -38.5t38.5 -90.5q0 -51 -37.5 -89t-91.5 -38z" />
    <glyph glyph-name="oslash" unicode="&#xf8;" horiz-adv-x="1104" 
d="M256 76q-23 -26 -127 -158l-57 43l133 164q-135 151 -135 364q0 232 134.5 378.5t352.5 146.5q166 0 289 -96l110 141l60 -45l-119 -146q135 -145 135 -364q0 -234 -134 -384.5t-355 -150.5q-156 0 -287 107zM764 815q-69 123 -209 123q-137 0 -210 -119t-73 -313
q0 -142 35 -258zM797 748l-457 -570q73 -133 215 -133q129 0 201.5 125.5t72.5 331.5q0 144 -32 246z" />
    <glyph glyph-name="ugrave" unicode="&#xf9;" horiz-adv-x="1178" 
d="M809 -4l-16 14v125h-7q-143 -160 -327 -160q-269 0 -269 334v471q0 123 -155 129v66l330 22l14 -14v-684q0 -100 46 -157.5t118 -57.5q157 0 248 145v559q0 42 -26 75.5t-53.5 37.5t-107.5 8v66l359 22l16 -14v-782q0 -118 149 -117v-66zM731 1110q-105 85 -252 197
q-81 61 -100.5 87t-19.5 66q0 31 24 54.5t58 23.5q74 0 127 -88q88 -142 202 -307z" />
    <glyph glyph-name="uacute" unicode="&#xfa;" horiz-adv-x="1178" 
d="M809 -4l-16 14v125h-7q-143 -160 -327 -160q-269 0 -269 334v471q0 123 -155 129v66l330 22l14 -14v-684q0 -100 46 -157.5t118 -57.5q157 0 248 145v559q0 42 -26 75.5t-53.5 37.5t-107.5 8v66l359 22l16 -14v-782q0 -118 149 -117v-66zM437 1110l-39 33
q114 165 202 307q53 88 127 88q34 0 58 -23.5t24 -54.5q0 -56 -43 -91t-221 -174q-47 -36 -108 -85z" />
    <glyph glyph-name="ucircumflex" unicode="&#xfb;" horiz-adv-x="1178" 
d="M809 -4l-16 14v125h-7q-143 -160 -327 -160q-269 0 -269 334v471q0 123 -155 129v66l330 22l14 -14v-684q0 -100 46 -157.5t118 -57.5q157 0 248 145v559q0 42 -26 75.5t-53.5 37.5t-107.5 8v66l359 22l16 -14v-782q0 -118 149 -117v-66zM849 1118l-278 273l-274 -273
l-50 33l238 346q19 27 34.5 36t55.5 9q55 0 84 -41l240 -350z" />
    <glyph glyph-name="udieresis" unicode="&#xfc;" horiz-adv-x="1178" 
d="M809 -4l-16 14v125h-7q-143 -160 -327 -160q-269 0 -269 334v471q0 123 -155 129v66l330 22l14 -14v-684q0 -100 46 -157.5t118 -57.5q157 0 248 145v559q0 42 -26 75.5t-53.5 37.5t-107.5 8v66l359 22l16 -14v-782q0 -118 149 -117v-66zM788 1241q-50 0 -84.5 36.5
t-34.5 86.5q0 49 34.5 86t84.5 37q51 0 85 -37t34 -86t-34.5 -86t-84.5 -37zM358 1241q-50 0 -84.5 37t-34.5 86t34 86t85 37q50 0 84.5 -37t34.5 -86q0 -50 -34.5 -86.5t-84.5 -36.5z" />
    <glyph glyph-name="yacute" unicode="&#xfd;" horiz-adv-x="1008" 
d="M1038 924q-34 -5 -78 -35t-58 -53.5t-89 -202.5l-138 -330q-141 -341 -210 -478.5t-146 -203t-155 -65.5q-73 0 -119.5 34.5t-46.5 87.5q0 48 25.5 80.5t68.5 32.5q86 0 156 -127q44 23 112.5 129t108.5 211l-336 820q-33 73 -151 96v65h448v-70q-113 -7 -113 -43
q0 -2 5 -14l10 -31l237 -583l201 491q4 12 11 27q24 54 24 84q0 51 -133 76v63h366v-61zM387 1110l-39 33q114 165 202 307q53 88 127 88q34 0 58 -23.5t24 -54.5q0 -56 -43 -91t-221 -174q-47 -36 -108 -85z" />
    <glyph glyph-name="thorn" unicode="&#xfe;" horiz-adv-x="1145" 
d="M369 41h-9v-297q0 -53 35.5 -81t163.5 -40v-67h-551v67q121 6 143.5 34t22.5 75v1585q0 31 -18.5 72t-46.5 52t-127 19v66l364 22l14 -14v-660l7 -2q129 142 278 142q182 0 304 -149t122 -380q0 -216 -139 -364t-326 -148q-152 0 -237 68zM360 793v-584q0 -28 60.5 -95
t169.5 -67q120 0 196 116.5t76 323.5q0 185 -75.5 299.5t-211.5 114.5q-123 0 -215 -108z" />
    <glyph glyph-name="ydieresis" unicode="&#xff;" horiz-adv-x="1008" 
d="M1038 924q-34 -5 -78 -35t-58 -53.5t-89 -202.5l-138 -330q-141 -341 -210 -478.5t-146 -203t-155 -65.5q-73 0 -119.5 34.5t-46.5 87.5q0 48 25.5 80.5t68.5 32.5q86 0 156 -127q44 23 112.5 129t108.5 211l-336 820q-33 73 -151 96v65h448v-70q-113 -7 -113 -43
q0 -2 5 -14l10 -31l237 -583l201 491q4 12 11 27q24 54 24 84q0 51 -133 76v63h366v-61zM758 1241q-50 0 -84.5 36.5t-34.5 86.5q0 49 34.5 86t84.5 37q51 0 85 -37t34 -86t-34.5 -86t-84.5 -37zM328 1241q-50 0 -84.5 37t-34.5 86t34 86t85 37q50 0 84.5 -37t34.5 -86
q0 -50 -34.5 -86.5t-84.5 -36.5z" />
    <glyph glyph-name="Amacron" unicode="&#x100;" horiz-adv-x="1374" 
d="M829 0v72q183 11 183 57q0 22 -8 43l-119 320h-498q-98 -254 -98 -332q0 -74 205 -88v-72h-535v72q82 6 132 38.5t76 80.5t186 459l306 790h80l473 -1225q51 -133 209 -143v-72h-592zM635 1130l-211 -550h426zM358 1644v129h684v-129h-684z" />
    <glyph glyph-name="amacron" unicode="&#x101;" horiz-adv-x="1032" 
d="M1006 18q-104 -38 -162 -38q-157 0 -185 143h-6q-133 -148 -319 -148q-111 0 -182.5 67.5t-71.5 178.5q0 124 68 189.5t234 120.5q237 78 273 100v98q0 86 -47.5 148.5t-140.5 62.5q-96 0 -141 -47q0 -25 9 -59t9 -72q0 -39 -34.5 -65.5t-84.5 -26.5q-96 0 -96 114
q0 89 112 159.5t238 70.5q205 0 285 -80.5t80 -245.5l-6 -493q0 -54 25.5 -80t46 -29.5t96.5 -3.5v-64zM657 547q-218 -64 -297 -132t-79 -169q0 -160 153 -160q118 0 217 115zM164 1290v129h684v-129h-684z" />
    <glyph glyph-name="Abreve" unicode="&#x102;" horiz-adv-x="1374" 
d="M829 0v72q183 11 183 57q0 22 -8 43l-119 320h-498q-98 -254 -98 -332q0 -74 205 -88v-72h-535v72q82 6 132 38.5t76 80.5t186 459l306 790h80l473 -1225q51 -133 209 -143v-72h-592zM635 1130l-211 -550h426zM1015 1851q-51 -321 -317 -321q-267 0 -317 321l55 17
q59 -191 262 -191t262 191z" />
    <glyph glyph-name="abreve" unicode="&#x103;" horiz-adv-x="1032" 
d="M1006 18q-104 -38 -162 -38q-157 0 -185 143h-6q-133 -148 -319 -148q-111 0 -182.5 67.5t-71.5 178.5q0 124 68 189.5t234 120.5q237 78 273 100v98q0 86 -47.5 148.5t-140.5 62.5q-96 0 -141 -47q0 -25 9 -59t9 -72q0 -39 -34.5 -65.5t-84.5 -26.5q-96 0 -96 114
q0 89 112 159.5t238 70.5q205 0 285 -80.5t80 -245.5l-6 -493q0 -54 25.5 -80t46 -29.5t96.5 -3.5v-64zM657 547q-218 -64 -297 -132t-79 -169q0 -160 153 -160q118 0 217 115zM809 1495q-53 -369 -313 -369q-263 0 -313 369l55 12q40 -129 99.5 -179t158.5 -50
q98 0 157.5 48.5t100.5 180.5z" />
    <glyph glyph-name="Aogonek" unicode="&#x104;" horiz-adv-x="1374" 
d="M829 0v72q183 11 183 57q0 22 -8 43l-119 320h-498q-98 -254 -98 -332q0 -74 205 -88v-72h-535v72q82 6 132 38.5t76 80.5t186 459l306 790h80l473 -1225q51 -133 209 -143v-72h-592zM635 1130l-211 -550h426zM1206 -444q-130 0 -199 52t-69 142q0 157 238 289h59
q-137 -107 -137 -256q0 -87 56 -121.5t167 -34.5v-71h-115z" />
    <glyph glyph-name="aogonek" unicode="&#x105;" horiz-adv-x="1032" 
d="M1006 18q-104 -38 -162 -38q-157 0 -185 143h-6q-133 -148 -319 -148q-111 0 -182.5 67.5t-71.5 178.5q0 124 68 189.5t234 120.5q237 78 273 100v98q0 86 -47.5 148.5t-140.5 62.5q-96 0 -141 -47q0 -25 9 -59t9 -72q0 -39 -34.5 -65.5t-84.5 -26.5q-96 0 -96 114
q0 89 112 159.5t238 70.5q205 0 285 -80.5t80 -245.5l-6 -493q0 -54 25.5 -80t46 -29.5t96.5 -3.5v-64zM657 547q-218 -64 -297 -132t-79 -169q0 -160 153 -160q118 0 217 115zM815 -444q-130 0 -199 52t-69 142q0 157 238 289h59q-137 -107 -137 -256q0 -87 56 -121.5
t167 -34.5v-71h-115z" />
    <glyph glyph-name="Cacute" unicode="&#x106;" horiz-adv-x="1315" 
d="M1288 358q-156 -391 -565 -391q-271 0 -458 203.5t-187 525.5q0 330 192.5 542t483.5 212q195 0 352 -98l41 67h80l10 -506h-84q-97 453 -387 453q-204 0 -326.5 -174t-122.5 -481q0 -272 135 -451.5t345 -179.5q295 0 417 315zM533 1507l-31 39q166 158 262 258
q60 64 115 64q39 0 65.5 -22.5t26.5 -57.5q0 -48 -35 -76.5t-193 -102.5q-94 -44 -210 -102z" />
    <glyph glyph-name="cacute" unicode="&#x107;" horiz-adv-x="930" 
d="M926 229q-63 -114 -171.5 -185t-226.5 -71q-214 0 -335 142.5t-121 382.5q0 212 132.5 364t336.5 152q151 0 239 -71.5t88 -186.5q0 -127 -102 -127q-58 0 -91.5 29t-33.5 67q0 40 12 90q12 51 15 72q-29 51 -131 51q-113 0 -185.5 -111.5t-72.5 -320.5
q0 -189 83.5 -305.5t215.5 -116.5q171 0 282 188zM349 1110l-39 33q114 165 202 307q53 88 127 88q34 0 58 -23.5t24 -54.5q0 -56 -43 -91t-221 -174q-47 -36 -108 -85z" />
    <glyph glyph-name="Ccircumflex" unicode="&#x108;" horiz-adv-x="1315" 
d="M1288 358q-156 -391 -565 -391q-271 0 -458 203.5t-187 525.5q0 330 192.5 542t483.5 212q195 0 352 -98l41 67h80l10 -506h-84q-97 453 -387 453q-204 0 -326.5 -174t-122.5 -481q0 -272 135 -451.5t345 -179.5q295 0 417 315zM1013 1507l-278 211l-274 -211l-50 31
l236 285q21 25 36 35t56 10q54 0 86 -41l238 -289z" />
    <glyph glyph-name="ccircumflex" unicode="&#x109;" horiz-adv-x="930" 
d="M926 229q-63 -114 -171.5 -185t-226.5 -71q-214 0 -335 142.5t-121 382.5q0 212 132.5 364t336.5 152q151 0 239 -71.5t88 -186.5q0 -127 -102 -127q-58 0 -91.5 29t-33.5 67q0 40 12 90q12 51 15 72q-29 51 -131 51q-113 0 -185.5 -111.5t-72.5 -320.5
q0 -189 83.5 -305.5t215.5 -116.5q171 0 282 188zM798 1118l-278 273l-274 -273l-50 33l238 346q19 27 34.5 36t55.5 9q55 0 84 -41l240 -350z" />
    <glyph glyph-name="Cdotaccent" unicode="&#x10a;" horiz-adv-x="1315" 
d="M1288 358q-156 -391 -565 -391q-271 0 -458 203.5t-187 525.5q0 330 192.5 542t483.5 212q195 0 352 -98l41 67h80l10 -506h-84q-97 453 -387 453q-204 0 -326.5 -174t-122.5 -481q0 -272 135 -451.5t345 -179.5q295 0 417 315zM748 1597q-51 0 -88 39t-37 92
q0 54 36.5 94.5t88.5 40.5q57 0 94 -38t37 -89q0 -57 -37.5 -98t-93.5 -41z" />
    <glyph glyph-name="cdotaccent" unicode="&#x10b;" horiz-adv-x="930" 
d="M926 229q-63 -114 -171.5 -185t-226.5 -71q-214 0 -335 142.5t-121 382.5q0 212 132.5 364t336.5 152q151 0 239 -71.5t88 -186.5q0 -127 -102 -127q-58 0 -91.5 29t-33.5 67q0 40 12 90q12 51 15 72q-29 51 -131 51q-113 0 -185.5 -111.5t-72.5 -320.5
q0 -189 83.5 -305.5t215.5 -116.5q171 0 282 188zM516 1247q-51 0 -88 39t-37 92q0 54 36.5 94.5t88.5 40.5q57 0 94 -38t37 -89q0 -57 -37.5 -98t-93.5 -41z" />
    <glyph glyph-name="Ccaron" unicode="&#x10c;" horiz-adv-x="1315" 
d="M1288 358q-156 -391 -565 -391q-271 0 -458 203.5t-187 525.5q0 330 192.5 542t483.5 212q195 0 352 -98l41 67h80l10 -506h-84q-97 453 -387 453q-204 0 -326.5 -174t-122.5 -481q0 -272 135 -451.5t345 -179.5q295 0 417 315zM1076 1835l-236 -283q-29 -35 -39.5 -40
t-52.5 -5q-54 0 -86 41l-238 287l50 33l278 -213l274 213z" />
    <glyph glyph-name="ccaron" unicode="&#x10d;" horiz-adv-x="930" 
d="M926 229q-63 -114 -171.5 -185t-226.5 -71q-214 0 -335 142.5t-121 382.5q0 212 132.5 364t336.5 152q151 0 239 -71.5t88 -186.5q0 -127 -102 -127q-58 0 -91.5 29t-33.5 67q0 40 12 90q12 51 15 72q-29 51 -131 51q-113 0 -185.5 -111.5t-72.5 -320.5
q0 -189 83.5 -305.5t215.5 -116.5q171 0 282 188zM608 1159q-28 -41 -84 -41q-41 0 -56.5 9t-33.5 36l-238 346l50 33l274 -272l278 272l50 -33z" />
    <glyph glyph-name="Dcaron" unicode="&#x10e;" horiz-adv-x="1534" 
d="M94 0v72q121 0 158 28t37 88v1024q0 66 -42.5 95.5t-144.5 40.5v71h621q300 0 516.5 -186.5t216.5 -532.5q0 -324 -223.5 -512t-550.5 -188h-588zM502 1333v-1089q0 -91 52.5 -126.5t162.5 -35.5q242 0 368.5 160t126.5 460q0 282 -149.5 458.5t-392.5 176.5
q-104 0 -168 -4zM1037 1835l-236 -283q-29 -35 -39.5 -40t-52.5 -5q-54 0 -86 41l-238 287l50 33l278 -213l274 213z" />
    <glyph glyph-name="dcaron" unicode="&#x10f;" horiz-adv-x="1362" 
d="M809 -4l-16 14v92l-9 2q-126 -133 -284 -133q-179 0 -303.5 148.5t-124.5 376.5q0 220 138 369t331 149q142 0 250 -64v344q0 63 -34.5 111t-197.5 57v64l404 22l16 -14v-1331q0 -45 23.5 -74.5t44.5 -34t106 -10.5v-66zM791 768q0 29 -60 99.5t-170 70.5
q-123 0 -201.5 -122.5t-78.5 -332.5q0 -179 78 -291t210 -112q126 0 222 110v578zM1120 1003l-35 60q193 101 199 245h-47q-133 0 -133 121q0 46 33.5 80.5t84.5 34.5q160 0 160 -205q0 -190 -262 -336z" />
    <glyph glyph-name="Dcroat" unicode="&#x110;" horiz-adv-x="1534" 
d="M94 0v72q121 0 158 28t37 88v512h-187v99h187v413q0 66 -42.5 95.5t-144.5 40.5v71h621q300 0 516.5 -186.5t216.5 -532.5q0 -323 -221.5 -511.5t-552.5 -188.5h-588zM502 1333v-534h301v-99h-301v-456q0 -91 52.5 -126.5t162.5 -35.5q242 0 368.5 160t126.5 460
q0 282 -149.5 458.5t-392.5 176.5q-104 0 -168 -4z" />
    <glyph glyph-name="dcroat" unicode="&#x111;" horiz-adv-x="1176" 
d="M430 1169v86h363v50q0 66 -41 107.5t-193 49.5v64l404 22l16 -14v-279h215v-86h-215v-966q0 -45 23.5 -74.5t44.5 -34t106 -10.5v-66l-344 -22l-16 14v92l-9 2q-126 -133 -284 -133q-179 0 -303.5 148.5t-124.5 376.5q0 220 138 369t331 149q142 0 250 -64v219h-361z
M791 768q0 29 -60 99.5t-170 70.5q-123 0 -201.5 -122.5t-78.5 -332.5q0 -179 78 -291t210 -112q126 0 222 110v578z" />
    <glyph glyph-name="Emacron" unicode="&#x112;" horiz-adv-x="1337" 
d="M1264 0h-1178v72q134 11 168.5 34.5t34.5 86.5v1019q0 70 -53.5 99t-149.5 37v71h1098v-342h-74q-21 78 -79.5 152t-100.5 92t-205 18h-223v-563h160q113 0 163 50.5t70 181.5h74v-555h-74q-5 50 -28 117.5t-65.5 95.5t-139.5 28h-160v-426q0 -122 38.5 -154t202.5 -32
h87q140 0 189 22t108 121t92 193h71zM377 1657v129h684v-129h-684z" />
    <glyph glyph-name="emacron" unicode="&#x113;" horiz-adv-x="989" 
d="M948 231q-138 -258 -405 -258q-222 0 -346.5 145.5t-124.5 383.5q0 210 126.5 361t323.5 151q195 0 298.5 -113.5t103.5 -310.5v-66h-654q0 -210 85.5 -325t244.5 -115q88 0 150.5 39t128.5 151zM727 608q0 330 -207 330q-104 0 -174 -88t-76 -242h457zM176 1290v129h684
v-129h-684z" />
    <glyph glyph-name="Ebreve" unicode="&#x114;" horiz-adv-x="1337" 
d="M1264 0h-1178v72q134 11 168.5 34.5t34.5 86.5v1019q0 70 -53.5 99t-149.5 37v71h1098v-342h-74q-21 78 -79.5 152t-100.5 92t-205 18h-223v-563h160q113 0 163 50.5t70 181.5h74v-555h-74q-5 50 -28 117.5t-65.5 95.5t-139.5 28h-160v-426q0 -122 38.5 -154t202.5 -32
h87q140 0 189 22t108 121t92 193h71zM1036 1851q-51 -321 -317 -321q-267 0 -317 321l55 17q59 -191 262 -191t262 191z" />
    <glyph glyph-name="ebreve" unicode="&#x115;" horiz-adv-x="989" 
d="M948 231q-138 -258 -405 -258q-222 0 -346.5 145.5t-124.5 383.5q0 210 126.5 361t323.5 151q195 0 298.5 -113.5t103.5 -310.5v-66h-654q0 -210 85.5 -325t244.5 -115q88 0 150.5 39t128.5 151zM727 608q0 330 -207 330q-104 0 -174 -88t-76 -242h457zM831 1495
q-53 -369 -313 -369q-263 0 -313 369l55 12q40 -129 99.5 -179t158.5 -50q98 0 157.5 48.5t100.5 180.5z" />
    <glyph glyph-name="Edotaccent" unicode="&#x116;" horiz-adv-x="1337" 
d="M1264 0h-1178v72q134 11 168.5 34.5t34.5 86.5v1019q0 70 -53.5 99t-149.5 37v71h1098v-342h-74q-21 78 -79.5 152t-100.5 92t-205 18h-223v-563h160q113 0 163 50.5t70 181.5h74v-555h-74q-5 50 -28 117.5t-65.5 95.5t-139.5 28h-160v-426q0 -122 38.5 -154t202.5 -32
h87q140 0 189 22t108 121t92 193h71zM674 1597q-51 0 -88 39t-37 92q0 54 36.5 94.5t88.5 40.5q57 0 94 -38t37 -89q0 -57 -37.5 -98t-93.5 -41z" />
    <glyph glyph-name="edotaccent" unicode="&#x117;" horiz-adv-x="989" 
d="M948 231q-138 -258 -405 -258q-222 0 -346.5 145.5t-124.5 383.5q0 210 126.5 361t323.5 151q195 0 298.5 -113.5t103.5 -310.5v-66h-654q0 -210 85.5 -325t244.5 -115q88 0 150.5 39t128.5 151zM727 608q0 330 -207 330q-104 0 -174 -88t-76 -242h457zM516 1247
q-51 0 -88 39t-37 92q0 54 36.5 94.5t88.5 40.5q57 0 94 -38t37 -89q0 -57 -37.5 -98t-93.5 -41z" />
    <glyph glyph-name="Eogonek" unicode="&#x118;" horiz-adv-x="1337" 
d="M1264 0h-1178v72q134 11 168.5 34.5t34.5 86.5v1019q0 70 -53.5 99t-149.5 37v71h1098v-342h-74q-21 78 -79.5 152t-100.5 92t-205 18h-223v-563h160q113 0 163 50.5t70 181.5h74v-555h-74q-5 50 -28 117.5t-65.5 95.5t-139.5 28h-160v-426q0 -122 38.5 -154t202.5 -32
h87q140 0 189 22t108 121t92 193h71zM1087 -444q-130 0 -199 52t-69 142q0 157 238 289h59q-137 -107 -137 -256q0 -87 56 -121.5t167 -34.5v-71h-115z" />
    <glyph glyph-name="eogonek" unicode="&#x119;" horiz-adv-x="989" 
d="M948 231q-138 -258 -405 -258q-222 0 -346.5 145.5t-124.5 383.5q0 210 126.5 361t323.5 151q195 0 298.5 -113.5t103.5 -310.5v-66h-654q0 -210 85.5 -325t244.5 -115q88 0 150.5 39t128.5 151zM727 608q0 330 -207 330q-104 0 -174 -88t-76 -242h457zM737 -444
q-130 0 -199 52t-69 142q0 157 238 289h59q-137 -107 -137 -256q0 -87 56 -121.5t167 -34.5v-71h-115z" />
    <glyph glyph-name="Ecaron" unicode="&#x11a;" horiz-adv-x="1337" 
d="M1264 0h-1178v72q134 11 168.5 34.5t34.5 86.5v1019q0 70 -53.5 99t-149.5 37v71h1098v-342h-74q-21 78 -79.5 152t-100.5 92t-205 18h-223v-563h160q113 0 163 50.5t70 181.5h74v-555h-74q-5 50 -28 117.5t-65.5 95.5t-139.5 28h-160v-426q0 -122 38.5 -154t202.5 -32
h87q140 0 189 22t108 121t92 193h71zM1018 1835l-236 -283q-29 -35 -39.5 -40t-52.5 -5q-54 0 -86 41l-238 287l50 33l278 -213l274 213z" />
    <glyph glyph-name="ecaron" unicode="&#x11b;" horiz-adv-x="989" 
d="M948 231q-138 -258 -405 -258q-222 0 -346.5 145.5t-124.5 383.5q0 210 126.5 361t323.5 151q195 0 298.5 -113.5t103.5 -310.5v-66h-654q0 -210 85.5 -325t244.5 -115q88 0 150.5 39t128.5 151zM727 608q0 330 -207 330q-104 0 -174 -88t-76 -242h457zM608 1159
q-28 -41 -84 -41q-41 0 -56.5 9t-33.5 36l-238 346l50 33l274 -272l278 272l50 -33z" />
    <glyph glyph-name="Gcircumflex" unicode="&#x11c;" horiz-adv-x="1485" 
d="M1470 567q-12 -2 -29 -4q-90 -14 -122.5 -39t-32.5 -92v-193q0 -113 4 -149q-268 -123 -522 -123q-292 0 -491 205t-199 526q0 326 203.5 539t509.5 213q201 0 366 -98l41 67h80l8 -495h-82q-107 442 -420 442q-210 0 -336 -174.5t-126 -482.5q0 -291 133.5 -472.5
t357.5 -181.5q159 0 264 84l8 96v179q0 82 -42 112t-193 41v74h620v-74zM1054 1507l-278 211l-274 -211l-50 31l236 285q21 25 36 35t56 10q54 0 86 -41l238 -289z" />
    <glyph glyph-name="gcircumflex" unicode="&#x11d;" horiz-adv-x="1042" 
d="M326 39v12q-174 52 -174 174q0 113 149 174v17q-201 92 -201 278q0 143 105.5 231.5t265.5 88.5q76 0 180 -33h344v-94h-231v-6q74 -88 74 -199q0 -129 -107.5 -219t-245.5 -90h-120q-72 -30 -72 -86q0 -28 12 -46.5t43.5 -31.5t131.5 -18l214 -10q170 -9 240 -96.5
t70 -186.5q0 -156 -136 -249t-381 -93q-444 0 -444 258q0 93 73 155t210 70zM467 942q-172 0 -172 -250q0 -110 48.5 -180t125.5 -70q84 0 131 68t47 176q0 117 -47 186.5t-133 69.5zM418 14q-50 0 -125.5 -46t-75.5 -150q0 -83 79 -135t226 -52q318 0 318 230
q0 59 -33.5 97t-119.5 47t-269 9zM763 1118l-278 273l-274 -273l-50 33l238 346q19 27 34.5 36t55.5 9q55 0 84 -41l240 -350z" />
    <glyph glyph-name="Gbreve" unicode="&#x11e;" horiz-adv-x="1485" 
d="M1470 567q-12 -2 -29 -4q-90 -14 -122.5 -39t-32.5 -92v-193q0 -113 4 -149q-268 -123 -522 -123q-292 0 -491 205t-199 526q0 326 203.5 539t509.5 213q201 0 366 -98l41 67h80l8 -495h-82q-107 442 -420 442q-210 0 -336 -174.5t-126 -482.5q0 -291 133.5 -472.5
t357.5 -181.5q159 0 264 84l8 96v179q0 82 -42 112t-193 41v74h620v-74zM1099 1851q-51 -321 -317 -321q-267 0 -317 321l55 17q59 -191 262 -191t262 191z" />
    <glyph glyph-name="gbreve" unicode="&#x11f;" horiz-adv-x="1042" 
d="M326 39v12q-174 52 -174 174q0 113 149 174v17q-201 92 -201 278q0 143 105.5 231.5t265.5 88.5q76 0 180 -33h344v-94h-231v-6q74 -88 74 -199q0 -129 -107.5 -219t-245.5 -90h-120q-72 -30 -72 -86q0 -28 12 -46.5t43.5 -31.5t131.5 -18l214 -10q170 -9 240 -96.5
t70 -186.5q0 -156 -136 -249t-381 -93q-444 0 -444 258q0 93 73 155t210 70zM467 942q-172 0 -172 -250q0 -110 48.5 -180t125.5 -70q84 0 131 68t47 176q0 117 -47 186.5t-133 69.5zM418 14q-50 0 -125.5 -46t-75.5 -150q0 -83 79 -135t226 -52q318 0 318 230
q0 59 -33.5 97t-119.5 47t-269 9zM809 1495q-53 -369 -313 -369q-263 0 -313 369l55 12q40 -129 99.5 -179t158.5 -50q98 0 157.5 48.5t100.5 180.5z" />
    <glyph glyph-name="Gdotaccent" unicode="&#x120;" horiz-adv-x="1485" 
d="M1470 567q-12 -2 -29 -4q-90 -14 -122.5 -39t-32.5 -92v-193q0 -113 4 -149q-268 -123 -522 -123q-292 0 -491 205t-199 526q0 326 203.5 539t509.5 213q201 0 366 -98l41 67h80l8 -495h-82q-107 442 -420 442q-210 0 -336 -174.5t-126 -482.5q0 -291 133.5 -472.5
t357.5 -181.5q159 0 264 84l8 96v179q0 82 -42 112t-193 41v74h620v-74zM776 1597q-51 0 -88 39t-37 92q0 54 36.5 94.5t88.5 40.5q57 0 94 -38t37 -89q0 -57 -37.5 -98t-93.5 -41z" />
    <glyph glyph-name="gdotaccent" unicode="&#x121;" horiz-adv-x="1042" 
d="M326 39v12q-174 52 -174 174q0 113 149 174v17q-201 92 -201 278q0 143 105.5 231.5t265.5 88.5q76 0 180 -33h344v-94h-231v-6q74 -88 74 -199q0 -129 -107.5 -219t-245.5 -90h-120q-72 -30 -72 -86q0 -28 12 -46.5t43.5 -31.5t131.5 -18l214 -10q170 -9 240 -96.5
t70 -186.5q0 -156 -136 -249t-381 -93q-444 0 -444 258q0 93 73 155t210 70zM467 942q-172 0 -172 -250q0 -110 48.5 -180t125.5 -70q84 0 131 68t47 176q0 117 -47 186.5t-133 69.5zM418 14q-50 0 -125.5 -46t-75.5 -150q0 -83 79 -135t226 -52q318 0 318 230
q0 59 -33.5 97t-119.5 47t-269 9zM489 1247q-51 0 -88 39t-37 92q0 54 36.5 94.5t88.5 40.5q57 0 94 -38t37 -89q0 -57 -37.5 -98t-93.5 -41z" />
    <glyph glyph-name="uni0122" unicode="&#x122;" horiz-adv-x="1485" 
d="M1470 567q-12 -2 -29 -4q-90 -14 -122.5 -39t-32.5 -92v-193q0 -113 4 -149q-268 -123 -522 -123q-292 0 -491 205t-199 526q0 326 203.5 539t509.5 213q201 0 366 -98l41 67h80l8 -495h-82q-107 442 -420 442q-210 0 -336 -174.5t-126 -482.5q0 -291 133.5 -472.5
t357.5 -181.5q159 0 264 84l8 96v179q0 82 -42 112t-193 41v74h620v-74zM662 -444v57q176 9 174 129h-55q-119 0 -119 94q0 40 32.5 69t83.5 29q66 0 107 -45.5t41 -119.5q0 -102 -71 -157.5t-193 -55.5z" />
    <glyph glyph-name="uni0123" unicode="&#x123;" horiz-adv-x="1042" 
d="M326 39v12q-174 52 -174 174q0 113 149 174v17q-201 92 -201 278q0 143 105.5 231.5t265.5 88.5q76 0 180 -33h344v-94h-231v-6q74 -88 74 -199q0 -129 -107.5 -219t-245.5 -90h-120q-72 -30 -72 -86q0 -28 12 -46.5t43.5 -31.5t131.5 -18l214 -10q170 -9 240 -96.5
t70 -186.5q0 -156 -136 -249t-381 -93q-444 0 -444 258q0 93 73 155t210 70zM467 942q-172 0 -172 -250q0 -110 48.5 -180t125.5 -70q84 0 131 68t47 176q0 117 -47 186.5t-133 69.5zM418 14q-50 0 -125.5 -46t-75.5 -150q0 -83 79 -135t226 -52q318 0 318 230
q0 59 -33.5 97t-119.5 47t-269 9zM616 1495v-57q-175 -8 -174 -129h55q119 0 119 -95q0 -40 -32.5 -69t-84.5 -29q-65 0 -106 46t-41 120q0 102 70 157.5t194 55.5z" />
    <glyph glyph-name="Hcircumflex" unicode="&#x124;" horiz-adv-x="1669" 
d="M979 0v72q116 10 137.5 19t36 31t14.5 66v506h-665v-493q0 -61 37 -90.5t147 -38.5v-72h-588v72q137 6 164 37t27 79v1024q0 120 -191 136v71h588v-71q-105 -9 -144.5 -32t-39.5 -93v-441h665v430q0 120 -188 136v71h588v-71q-106 -9 -146.5 -33t-40.5 -92v-1022
q0 -63 40.5 -91.5t146.5 -37.5v-72h-588zM1112 1507l-278 211l-274 -211l-50 31l236 285q21 25 36 35t56 10q54 0 86 -41l238 -289z" />
    <glyph glyph-name="hcircumflex" unicode="&#x125;" horiz-adv-x="1192" 
d="M883 1507l-281 211l-274 -211l-47 31l233 285q37 45 92 45q52 0 88 -41l236 -289zM659 0v66q28 3 52 5q100 6 100 97v508q0 99 -47.5 159t-122.5 60q-171 0 -256 -150v-567q0 -101 152 -112v-66h-484v66l49 5q97 7 97 97v1020q0 39 -19.5 76.5t-49.5 48.5t-124 18v66
l365 22l14 -14v-559h4q109 110 181 139t155 29q274 0 274 -326v-512q0 -99 144 -110v-66h-484z" />
    <glyph glyph-name="Hbar" unicode="&#x126;" horiz-adv-x="1669" 
d="M102 1012v88h187v112q0 120 -191 136v71h588v-71q-105 -9 -144.5 -32t-39.5 -93v-123h665v112q0 120 -188 136v71h588v-71q-106 -9 -146.5 -33t-40.5 -92v-123h187v-88h-187v-811q0 -63 40.5 -91.5t146.5 -37.5v-72h-588v72q116 10 137.5 19t36 31t14.5 66v506h-665v-493
q0 -61 37 -90.5t147 -38.5v-72h-588v72q137 6 164 37t27 79v824h-187zM502 1012v-230h665v230h-665z" />
    <glyph glyph-name="hbar" unicode="&#x127;" horiz-adv-x="1192" 
d="M385 846h4q109 110 181 139t155 29q274 0 274 -326v-512q0 -99 144 -110v-66h-484v66q28 3 52 5q100 6 100 97v508q0 99 -47.5 159t-122.5 60q-171 0 -256 -150v-567q0 -101 152 -112v-66h-484v66l49 5q97 7 97 97v1001h-228v86h228v62q0 39 -19.5 76.5t-49.5 48.5
t-124 18v66l365 22l14 -14v-279h350v-86h-350v-323z" />
    <glyph glyph-name="Itilde" unicode="&#x128;" horiz-adv-x="799" 
d="M774 1835q-28 -99 -100 -171.5t-156 -72.5q-82 0 -163 53q-81 52 -126 52q-36 0 -62.5 -18t-78.5 -119l-57 24q32 102 99.5 173t148.5 71q82 0 161 -51q79 -52 117 -52q98 0 132 79q10 24 24 55zM80 0v72q141 10 177 29t36 85v1028q0 67 -59.5 97t-153.5 37v71h639v-71
q-135 -10 -174 -35.5t-39 -87.5v-1026q0 -52 34 -83.5t179 -43.5v-72h-639z" />
    <glyph glyph-name="itilde" unicode="&#x129;" horiz-adv-x="600" 
d="M621 1466q-28 -103 -92 -172t-138 -69q-75 0 -147 51t-113 51q-35 0 -58 -20t-67 -115l-53 25q80 241 223 241q72 0 144 -51t106 -51q46 0 74.5 18t62.5 117zM74 0v66l48 5q97 7 97 97v608q0 122 -176 135v66l348 20l15 -14v-803q0 -57 35.5 -81t109.5 -33v-66h-477z" />
    <glyph glyph-name="Imacron" unicode="&#x12a;" horiz-adv-x="799" 
d="M80 0v72q141 10 177 29t36 85v1028q0 67 -59.5 97t-153.5 37v71h639v-71q-135 -10 -174 -35.5t-39 -87.5v-1026q0 -52 34 -83.5t179 -43.5v-72h-639zM59 1657v129h684v-129h-684z" />
    <glyph glyph-name="imacron" unicode="&#x12b;" horiz-adv-x="600" 
d="M74 0v66l48 5q97 7 97 97v608q0 122 -176 135v66l348 20l15 -14v-803q0 -57 35.5 -81t109.5 -33v-66h-477zM-70 1290v129h684v-129h-684z" />
    <glyph glyph-name="Ibreve" unicode="&#x12c;" horiz-adv-x="799" 
d="M80 0v72q141 10 177 29t36 85v1028q0 67 -59.5 97t-153.5 37v71h639v-71q-135 -10 -174 -35.5t-39 -87.5v-1026q0 -52 34 -83.5t179 -43.5v-72h-639zM716 1851q-51 -321 -317 -321q-267 0 -317 321l55 17q59 -191 262 -191t262 191z" />
    <glyph glyph-name="ibreve" unicode="&#x12d;" horiz-adv-x="600" 
d="M551 1495q-41 -369 -272 -369q-239 0 -273 369l51 12q36 -140 85.5 -184.5t136.5 -44.5q83 0 132.5 40.5t90.5 188.5zM74 0v66l48 5q97 7 97 97v608q0 122 -176 135v66l348 20l15 -14v-803q0 -57 35.5 -81t109.5 -33v-66h-477z" />
    <glyph glyph-name="Iogonek" unicode="&#x12e;" horiz-adv-x="799" 
d="M80 0v72q141 10 177 29t36 85v1028q0 67 -59.5 97t-153.5 37v71h639v-71q-135 -10 -174 -35.5t-39 -87.5v-1026q0 -52 34 -83.5t179 -43.5v-72h-639zM493 -444q-130 0 -199 52t-69 142q0 157 238 289h59q-137 -107 -137 -256q0 -87 56 -121.5t167 -34.5v-71h-115z" />
    <glyph glyph-name="iogonek" unicode="&#x12f;" horiz-adv-x="600" 
d="M295 1245q-50 0 -87.5 39.5t-37.5 93.5q0 55 37 96.5t88 41.5q56 0 93.5 -39t37.5 -91q0 -57 -38 -99t-93 -42zM74 0v66l48 5q97 7 97 97v608q0 122 -176 135v66l348 20l15 -14v-803q0 -57 35.5 -81t109.5 -33v-66h-477zM399 -444q-130 0 -199 52t-69 142q0 157 238 289
h59q-137 -107 -137 -256q0 -87 56 -121.5t167 -34.5v-71h-115z" />
    <glyph glyph-name="Idotaccent" unicode="&#x130;" horiz-adv-x="799" 
d="M80 0v72q141 10 177 29t36 85v1028q0 67 -59.5 97t-153.5 37v71h639v-71q-135 -10 -174 -35.5t-39 -87.5v-1026q0 -52 34 -83.5t179 -43.5v-72h-639zM399 1597q-51 0 -88 39t-37 92q0 54 36.5 94.5t88.5 40.5q57 0 94 -38t37 -89q0 -57 -37.5 -98t-93.5 -41z" />
    <glyph glyph-name="dotlessi" unicode="&#x131;" horiz-adv-x="600" 
d="M74 0v66l48 5q97 7 97 97v608q0 122 -176 135v66l348 20l15 -14v-803q0 -57 35.5 -81t109.5 -33v-66h-477z" />
    <glyph glyph-name="IJ" unicode="&#x132;" horiz-adv-x="1819" 
d="M80 0v72q141 10 177 29t36 85v1028q0 67 -59.5 97t-153.5 37v71h639v-71q-135 -10 -174 -35.5t-39 -87.5v-1026q0 -52 34 -83.5t179 -43.5v-72h-639zM1764 1348q-126 -11 -161.5 -35.5t-35.5 -89.5v-840q0 -159 -119 -288.5t-313 -129.5q-166 0 -266.5 92t-100.5 246
q0 77 38 125.5t99 48.5q63 0 98.5 -34.5t35.5 -88.5q0 -56 -76 -174q-18 -27 -27 -55v-2q63 -82 184 -82t176.5 93.5t55.5 328.5v749q0 121 -213 136v71h625v-71z" />
    <glyph glyph-name="ij" unicode="&#x133;" horiz-adv-x="1171" 
d="M295 1245q-50 0 -87.5 39.5t-37.5 93.5q0 55 37 96.5t88 41.5q56 0 93.5 -39t37.5 -91q0 -57 -38 -99t-93 -42zM74 0v66l48 5q97 7 97 97v608q0 122 -176 135v66l348 20l15 -14v-803q0 -57 35.5 -81t109.5 -33v-66h-477zM888 1245q-49 0 -87 40t-38 93q0 56 38 97t87 41
q56 0 93.5 -38t37.5 -89q0 -59 -39 -101.5t-92 -42.5zM1003 59q0 -222 -114.5 -362.5t-286.5 -140.5q-83 0 -132 33.5t-49 84.5q0 109 95 109q76 0 131 -93q15 -26 30 -50q76 0 109 93.5t33 293.5v741q0 45 -35.5 89.5t-190.5 55.5v64l398 20l12 -14v-924z" />
    <glyph glyph-name="Jcircumflex" unicode="&#x134;" horiz-adv-x="1061" 
d="M1006 1348q-126 -11 -161.5 -35.5t-35.5 -89.5v-840q0 -159 -119 -288.5t-313 -129.5q-166 0 -266.5 92t-100.5 246q0 77 38 125.5t99 48.5q63 0 98.5 -34.5t35.5 -88.5q0 -56 -76 -174q-18 -27 -27 -55v-2q63 -82 184 -82t176.5 93.5t55.5 328.5v749q0 121 -213 136v71
h625v-71zM958 1507l-278 211l-274 -211l-50 31l236 285q21 25 36 35t56 10q54 0 86 -41l238 -289z" />
    <glyph glyph-name="jcircumflex" unicode="&#x135;" horiz-adv-x="598" 
d="M430 59q0 -222 -114.5 -362.5t-286.5 -140.5q-83 0 -132 33.5t-49 84.5q0 109 95 109q76 0 131 -93q15 -26 30 -50q76 0 109 93.5t33 293.5v741q0 45 -35.5 89.5t-190.5 55.5v64l398 20l12 -14v-924zM554 1118l-278 273l-274 -273l-50 33l238 346q19 27 34.5 36t55.5 9
q55 0 84 -41l240 -350z" />
    <glyph glyph-name="uni0136" unicode="&#x136;" horiz-adv-x="1421" 
d="M1077 0q-215 338 -551 694h-24v-493q0 -53 30.5 -85t157.5 -44v-72h-588v72q115 10 136 19t36 33t15 64v1024q0 120 -187 136v71h588v-71q-106 -9 -147 -32t-41 -93v-490h18q215 181 351.5 340t136.5 225q0 41 -148 50v71h533v-71q-58 0 -120.5 -19t-84.5 -37t-142 -156
q-180 -205 -323 -341q152 -172 346 -415q137 -173 176.5 -212t87.5 -63.5t142 -32.5v-72h-398zM686 -444v57q176 9 174 129h-55q-119 0 -119 94q0 40 32.5 69t83.5 29q66 0 107 -45.5t41 -119.5q0 -102 -71 -157.5t-193 -55.5z" />
    <glyph glyph-name="uni0137" unicode="&#x137;" horiz-adv-x="1098" 
d="M819 0q-277 397 -352 494l-82 -78v-234q0 -58 34 -82.5t118 -33.5v-66h-484v66l49 5q97 7 97 97v1147q0 47 -31.5 94.5t-161.5 50.5v66l365 22l14 -14v-1045l292 291q56 58 56 84q0 41 -127 58v63h434v-61q-110 -32 -174 -75.5t-200 -176.5q-30 -30 -64 -62
q103 -124 264 -348q95 -133 131.5 -162t118.5 -34v-66h-297zM500 -444v57q176 9 174 129h-55q-119 0 -119 94q0 40 32.5 69t83.5 29q66 0 107 -45.5t41 -119.5q0 -102 -71 -157.5t-193 -55.5z" />
    <glyph glyph-name="kgreenlandic" unicode="&#x138;" horiz-adv-x="1114" 
d="M217 776q0 129 -156 135v66l328 20l14 -14v-494q349 339 349 375q0 41 -127 58v63h434v-61q-99 -28 -166.5 -70.5t-152.5 -127.5q-71 -71 -119 -116q104 -127 262 -348q95 -133 132.5 -162t119.5 -34v-66h-297q-299 429 -353 494l-82 -78v-234q0 -59 36 -83t116 -33v-66
h-483v66l48 5q97 7 97 97v608z" />
    <glyph glyph-name="Lacute" unicode="&#x139;" horiz-adv-x="1237" 
d="M1206 0h-1108v72q124 10 157.5 32t33.5 89v1015q0 70 -55 101.5t-136 38.5v71h598v-71q-126 -10 -160 -37.5t-34 -91.5v-953q0 -128 36 -158t195 -30q108 0 169 12.5t85.5 32t84.5 117.5t93 182h72zM445 1507l-31 39q166 158 262 258q60 64 115 64q39 0 65.5 -22.5
t26.5 -57.5q0 -48 -35 -76.5t-193 -102.5q-94 -44 -210 -102z" />
    <glyph glyph-name="lacute" unicode="&#x13a;" horiz-adv-x="586" 
d="M129 1507l-31 39q157 150 262 260q59 64 115 64q40 0 66 -24t26 -56q0 -66 -59 -97t-255 -124q-54 -26 -124 -62zM53 0v66l50 5q98 6 98 97v1014q0 47 -31.5 93t-167.5 56v66l371 22l14 -14v-1225q0 -102 148 -114v-66h-482z" />
    <glyph glyph-name="uni013B" unicode="&#x13b;" horiz-adv-x="1237" 
d="M1206 0h-1108v72q124 10 157.5 32t33.5 89v1015q0 70 -55 101.5t-136 38.5v71h598v-71q-126 -10 -160 -37.5t-34 -91.5v-953q0 -128 36 -158t195 -30q108 0 169 12.5t85.5 32t84.5 117.5t93 182h72zM584 -444v57q176 9 174 129h-55q-119 0 -119 94q0 40 32.5 69t83.5 29
q66 0 107 -45.5t41 -119.5q0 -102 -71 -157.5t-193 -55.5z" />
    <glyph glyph-name="uni013C" unicode="&#x13c;" horiz-adv-x="586" 
d="M53 0v66l50 5q98 6 98 97v1143q0 47 -31.5 93t-167.5 56v66l371 22l14 -14v-1354q0 -102 148 -114v-66h-482zM189 -444v57q176 9 174 129h-55q-119 0 -119 94q0 40 32.5 69t83.5 29q66 0 107 -45.5t41 -119.5q0 -102 -71 -157.5t-193 -55.5z" />
    <glyph glyph-name="Lcaron" unicode="&#x13d;" horiz-adv-x="1237" 
d="M1206 0h-1108v72q124 10 157.5 32t33.5 89v1015q0 70 -55 101.5t-136 38.5v71h598v-71q-126 -10 -160 -37.5t-34 -91.5v-953q0 -128 36 -158t195 -30q108 0 169 12.5t85.5 32t84.5 117.5t93 182h72zM879 895l-35 60q193 101 199 245h-47q-133 0 -133 121q0 46 33.5 80.5
t84.5 34.5q160 0 160 -205q0 -190 -262 -336z" />
    <glyph glyph-name="lcaron" unicode="&#x13e;" horiz-adv-x="770" 
d="M53 0v66l50 5q98 6 98 97v1143q0 47 -31.5 93t-167.5 56v66l371 22l14 -14v-1354q0 -102 148 -114v-66h-482zM531 1003l-35 60q193 101 199 245h-47q-133 0 -133 121q0 46 33.5 80.5t84.5 34.5q160 0 160 -205q0 -190 -262 -336z" />
    <glyph glyph-name="Ldot" unicode="&#x13f;" horiz-adv-x="1237" 
d="M1206 0h-1108v72q124 10 157.5 32t33.5 89v1015q0 70 -55 101.5t-136 38.5v71h598v-71q-126 -10 -160 -37.5t-34 -91.5v-953q0 -128 36 -158t195 -30q108 0 169 12.5t85.5 32t84.5 117.5t93 182h72zM1014 590q-57 0 -97.5 39.5t-40.5 95.5q0 55 40.5 96t97.5 41
q56 0 96.5 -40.5t40.5 -96.5t-40.5 -95.5t-96.5 -39.5z" />
    <glyph glyph-name="ldot" unicode="&#x140;" horiz-adv-x="860" 
d="M53 0v66l50 5q98 6 98 97v1143q0 47 -31.5 93t-167.5 56v66l371 22l14 -14v-1354q0 -102 148 -114v-66h-482zM723 537q-57 0 -97.5 39.5t-40.5 95.5q0 55 40.5 96t97.5 41q56 0 96.5 -40.5t40.5 -96.5t-40.5 -95.5t-96.5 -39.5z" />
    <glyph glyph-name="Lslash" unicode="&#x141;" horiz-adv-x="1237" 
d="M502 266q0 -128 36 -158t195 -30q108 0 169 12.5t85.5 32t84.5 117.5t93 182h72l-31 -422h-1108v72q124 10 157.5 32t33.5 89v432l-164 -68l-35 86l199 82v483q0 70 -55 101.5t-136 38.5v71h598v-71q-126 -10 -160 -37.5t-34 -91.5v-412l270 113l35 -89l-305 -124v-441z
" />
    <glyph glyph-name="lslash" unicode="&#x142;" horiz-adv-x="586" 
d="M387 686v-506q0 -102 148 -114v-66h-482v66l50 5q98 6 98 97v448l-138 -59l-34 82l172 72v600q0 47 -31.5 93t-167.5 56v66l371 22l14 -14v-754l137 60l35 -82z" />
    <glyph glyph-name="Nacute" unicode="&#x143;" horiz-adv-x="1571" 
d="M1554 1348q-146 -19 -188.5 -64t-42.5 -260v-1038h-86l-860 1161v-731q0 -132 16 -193t38.5 -83.5t87 -43t112.5 -24.5v-72h-584v72q119 17 176.5 54t57.5 277v701q0 207 -256 244v71h403l799 -1081v674q0 228 -56.5 272.5t-193.5 63.5v71h577v-71zM656 1507l-31 39
q166 158 262 258q60 64 115 64q39 0 65.5 -22.5t26.5 -57.5q0 -48 -35 -76.5t-193 -102.5q-94 -44 -210 -102z" />
    <glyph glyph-name="nacute" unicode="&#x144;" horiz-adv-x="1210" 
d="M678 0v66l51 5q100 6 100 97v508q0 100 -47.5 159.5t-122.5 59.5q-171 0 -256 -150v-567q0 -100 152 -112v-66h-483v66l48 5q97 7 97 97v608q0 129 -156 135v66l328 20l14 -14v-137h5q109 112 179.5 140t151.5 28q279 0 279 -326v-512q0 -99 143 -110v-66h-483zM467 1110
l-39 33q114 165 202 307q53 88 127 88q34 0 58 -23.5t24 -54.5q0 -56 -43 -91t-221 -174q-47 -36 -108 -85z" />
    <glyph glyph-name="uni0145" unicode="&#x145;" horiz-adv-x="1571" 
d="M1554 1348q-146 -19 -188.5 -64t-42.5 -260v-1038h-86l-860 1161v-731q0 -132 16 -193t38.5 -83.5t87 -43t112.5 -24.5v-72h-584v72q119 17 176.5 54t57.5 277v701q0 207 -256 244v71h403l799 -1081v674q0 228 -56.5 272.5t-193.5 63.5v71h577v-71zM668 -444v57
q176 9 174 129h-55q-119 0 -119 94q0 40 32.5 69t83.5 29q66 0 107 -45.5t41 -119.5q0 -102 -71 -157.5t-193 -55.5z" />
    <glyph glyph-name="uni0146" unicode="&#x146;" horiz-adv-x="1210" 
d="M678 0v66l51 5q100 6 100 97v508q0 100 -47.5 159.5t-122.5 59.5q-171 0 -256 -150v-567q0 -100 152 -112v-66h-483v66l48 5q97 7 97 97v608q0 129 -156 135v66l328 20l14 -14v-137h5q109 112 179.5 140t151.5 28q279 0 279 -326v-512q0 -99 143 -110v-66h-483zM510 -444
v57q176 9 174 129h-55q-119 0 -119 94q0 40 32.5 69t83.5 29q66 0 107 -45.5t41 -119.5q0 -102 -71 -157.5t-193 -55.5z" />
    <glyph glyph-name="Ncaron" unicode="&#x147;" horiz-adv-x="1571" 
d="M1554 1348q-146 -19 -188.5 -64t-42.5 -260v-1038h-86l-860 1161v-731q0 -132 16 -193t38.5 -83.5t87 -43t112.5 -24.5v-72h-584v72q119 17 176.5 54t57.5 277v701q0 207 -256 244v71h403l799 -1081v674q0 228 -56.5 272.5t-193.5 63.5v71h577v-71zM1106 1835l-236 -283
q-29 -35 -39.5 -40t-52.5 -5q-54 0 -86 41l-238 287l50 33l278 -213l274 213z" />
    <glyph glyph-name="ncaron" unicode="&#x148;" horiz-adv-x="1210" 
d="M678 0v66l51 5q100 6 100 97v508q0 100 -47.5 159.5t-122.5 59.5q-171 0 -256 -150v-567q0 -100 152 -112v-66h-483v66l48 5q97 7 97 97v608q0 129 -156 135v66l328 20l14 -14v-137h5q109 112 179.5 140t151.5 28q279 0 279 -326v-512q0 -99 143 -110v-66h-483zM694 1159
q-28 -41 -84 -41q-41 0 -56.5 9t-33.5 36l-238 346l50 33l274 -272l278 272l50 -33z" />
    <glyph glyph-name="napostrophe" unicode="&#x149;" horiz-adv-x="1321" 
d="M789 0v66l51 5q100 6 100 97v508q0 100 -47.5 159.5t-122.5 59.5q-171 0 -256 -150v-567q0 -100 152 -112v-66h-483v66l48 5q97 7 97 97v608q0 129 -156 135v66l328 20l14 -14v-137h5q109 112 179.5 140t151.5 28q279 0 279 -326v-512q0 -99 143 -110v-66h-483zM14 989
l-35 60q193 101 199 245h-47q-133 0 -133 121q0 46 33.5 80.5t84.5 34.5q160 0 160 -205q0 -190 -262 -336z" />
    <glyph glyph-name="Eng" unicode="&#x14a;" horiz-adv-x="1571" 
d="M377 416q0 -132 16 -193t38.5 -83.5t87 -43t112.5 -24.5v-72h-584v72q119 17 176.5 54t57.5 277v701q0 207 -256 244v71h403l799 -1081v674q0 228 -56.5 272.5t-193.5 63.5v71h577v-71q-146 -19 -188.5 -64t-42.5 -260v-969q0 -241 -106 -370t-299 -129
q-90 0 -145.5 37.5t-55.5 95.5q0 49 29.5 83.5t80.5 34.5q71 0 131 -95q16 -27 39 -54q107 3 167.5 95.5t60.5 250.5l-848 1143v-731z" />
    <glyph glyph-name="eng" unicode="&#x14b;" horiz-adv-x="1186" 
d="M403 178q0 -100 152 -112v-66h-483v66l48 5q97 7 97 97v608q0 129 -156 135v66l328 20l14 -14v-137h5q110 112 181 140t152 28q135 0 206 -85.5t71 -240.5q4 -288 4 -313q0 -346 -13.5 -432.5t-61.5 -179t-136.5 -150t-198.5 -57.5q-84 0 -132 34t-48 84q0 43 24.5 76
t69.5 33q39 0 72 -22.5t90 -120.5q88 0 117 126.5t29 600.5q0 278 -6.5 354t-55 125t-115.5 49q-170 0 -254 -150v-567z" />
    <glyph glyph-name="Omacron" unicode="&#x14c;" horiz-adv-x="1524" 
d="M762 -35q-293 0 -487.5 210.5t-194.5 533.5q0 326 197.5 534.5t484.5 208.5q292 0 487 -208t195 -535q0 -328 -197.5 -536t-484.5 -208zM762 1364q-209 0 -324.5 -176.5t-115.5 -478.5q0 -304 116 -479t324 -175q210 0 325 175.5t115 478.5q0 304 -116 479.5t-324 175.5z
M422 1657v129h684v-129h-684z" />
    <glyph glyph-name="omacron" unicode="&#x14d;" horiz-adv-x="1104" 
d="M543 -31q-198 0 -335.5 146t-137.5 374q0 232 134.5 378.5t352.5 146.5q212 0 343.5 -142.5t131.5 -367.5q0 -234 -134 -384.5t-355 -150.5zM555 938q-135 0 -207 -117.5t-72 -314.5q0 -209 72.5 -335t206.5 -126q128 0 199 125t71 332q0 202 -69.5 319t-200.5 117z
M211 1290v129h684v-129h-684z" />
    <glyph glyph-name="Obreve" unicode="&#x14e;" horiz-adv-x="1524" 
d="M762 -35q-293 0 -487.5 210.5t-194.5 533.5q0 326 197.5 534.5t484.5 208.5q292 0 487 -208t195 -535q0 -328 -197.5 -536t-484.5 -208zM762 1364q-209 0 -324.5 -176.5t-115.5 -478.5q0 -304 116 -479t324 -175q210 0 325 175.5t115 478.5q0 304 -116 479.5t-324 175.5z
M1079 1851q-51 -321 -317 -321q-267 0 -317 321l55 17q59 -191 262 -191t262 191z" />
    <glyph glyph-name="obreve" unicode="&#x14f;" horiz-adv-x="1104" 
d="M543 -31q-198 0 -335.5 146t-137.5 374q0 232 134.5 378.5t352.5 146.5q212 0 343.5 -142.5t131.5 -367.5q0 -234 -134 -384.5t-355 -150.5zM555 938q-135 0 -207 -117.5t-72 -314.5q0 -209 72.5 -335t206.5 -126q128 0 199 125t71 332q0 202 -69.5 319t-200.5 117z
M866 1495q-53 -369 -313 -369q-263 0 -313 369l55 12q40 -129 99.5 -179t158.5 -50q98 0 157.5 48.5t100.5 180.5z" />
    <glyph glyph-name="Ohungarumlaut" unicode="&#x150;" horiz-adv-x="1524" 
d="M762 -35q-293 0 -487.5 210.5t-194.5 533.5q0 326 197.5 534.5t484.5 208.5q292 0 487 -208t195 -535q0 -328 -197.5 -536t-484.5 -208zM762 1364q-209 0 -324.5 -176.5t-115.5 -478.5q0 -304 116 -479t324 -175q210 0 325 175.5t115 478.5q0 304 -116 479.5t-324 175.5z
M534 1507l-28 35q121 138 213 250q61 76 110 76q41 0 64.5 -26.5t23.5 -57.5q0 -64 -82 -107q-246 -130 -301 -170zM917 1507l-28 35l219 250q61 76 110 76q41 0 64.5 -26.5t23.5 -57.5q0 -64 -82 -107l-139 -72q-64 -34 -168 -98z" />
    <glyph glyph-name="ohungarumlaut" unicode="&#x151;" horiz-adv-x="1104" 
d="M543 -31q-198 0 -335.5 146t-137.5 374q0 232 134.5 378.5t352.5 146.5q212 0 343.5 -142.5t131.5 -367.5q0 -234 -134 -384.5t-355 -150.5zM555 938q-135 0 -207 -117.5t-72 -314.5q0 -209 72.5 -335t206.5 -126q128 0 199 125t71 332q0 202 -69.5 319t-200.5 117z
M686 1110l-35 29q144 233 182 307q55 92 113 92q34 0 58 -23.5t24 -54.5q0 -40 -18 -65t-113 -106zM331 1110l-36 29q107 178 169 307q47 92 111 92q33 0 57.5 -25t24.5 -55q0 -47 -26 -77.5t-300 -270.5z" />
    <glyph glyph-name="OE" unicode="&#x152;" horiz-adv-x="2044" 
d="M1968 0h-1153q-301 0 -518 187.5t-217 531.5q0 326 221.5 513t548.5 187h1038v-342h-73q-21 80 -79 153t-100.5 91t-205.5 18h-213v-563h149q121 0 168 55t65 177h74v-555h-74q-6 67 -33.5 133.5t-72 87t-127.5 20.5h-149v-426q0 -120 37 -153t204 -33h86q134 0 182 23
t110 127t87 186h74zM1004 1331q-71 4 -156 4q-248 0 -387 -159t-139 -459q0 -282 149.5 -458.5t392.5 -176.5l140 4v1245z" />
    <glyph glyph-name="oe" unicode="&#x153;" horiz-adv-x="1671" 
d="M1630 233q-54 -118 -156 -189t-227 -71q-237 0 -360 197q-134 -201 -357 -201q-192 0 -326 145.5t-134 374.5t130.5 377t348.5 148q211 0 346 -193q125 193 330 193q182 0 281.5 -112t99.5 -306v-72h-625q6 -440 313 -440q92 0 152.5 43t114.5 149zM1409 608
q0 330 -197 330q-100 0 -165.5 -94.5t-65.5 -235.5h428zM539 938q-127 0 -195 -116.5t-68 -315.5q0 -214 68 -337.5t195 -123.5q249 0 249 444q0 449 -249 449z" />
    <glyph glyph-name="Racute" unicode="&#x154;" horiz-adv-x="1438" 
d="M1098 0q-219 345 -453 643h-143v-450q0 -71 33.5 -90.5t162.5 -30.5v-72h-600v72q124 10 157.5 32t33.5 89v1026q0 65 -36 92t-155 37v71h656q205 0 325.5 -88.5t120.5 -249.5q0 -282 -346 -383q71 -90 281 -376q109 -149 138.5 -172.5t68 -47.5t139.5 -30v-72h-383z
M502 1337v-608h131q144 0 232.5 92t88.5 238q0 132 -75.5 205t-206.5 73h-170zM555 1507l-31 39q166 158 262 258q60 64 115 64q39 0 65.5 -22.5t26.5 -57.5q0 -48 -35 -76.5t-193 -102.5q-94 -44 -210 -102z" />
    <glyph glyph-name="racute" unicode="&#x155;" horiz-adv-x="840" 
d="M621 897q-132 -7 -218 -145v-574q0 -54 34.5 -79t154.5 -33v-66h-520v66l48 5q97 7 97 97v608q0 130 -156 135v66l328 20l14 -14v-137h5q129 164 276 164q63 0 103 -40.5t40 -111.5q0 -57 -27.5 -93t-74.5 -36q-52 0 -83.5 26.5t-31.5 65.5q0 30 11 76zM324 1110l-39 33
q114 165 202 307q53 88 127 88q34 0 58 -23.5t24 -54.5q0 -56 -43 -91t-221 -174q-47 -36 -108 -85z" />
    <glyph glyph-name="uni0156" unicode="&#x156;" horiz-adv-x="1438" 
d="M1098 0q-219 345 -453 643h-143v-450q0 -71 33.5 -90.5t162.5 -30.5v-72h-600v72q124 10 157.5 32t33.5 89v1026q0 65 -36 92t-155 37v71h656q205 0 325.5 -88.5t120.5 -249.5q0 -282 -346 -383q71 -90 281 -376q109 -149 138.5 -172.5t68 -47.5t139.5 -30v-72h-383z
M502 1337v-608h131q144 0 232.5 92t88.5 238q0 132 -75.5 205t-206.5 73h-170zM672 -444v57q176 9 174 129h-55q-119 0 -119 94q0 40 32.5 69t83.5 29q66 0 107 -45.5t41 -119.5q0 -102 -71 -157.5t-193 -55.5z" />
    <glyph glyph-name="uni0157" unicode="&#x157;" horiz-adv-x="840" 
d="M621 897q-132 -7 -218 -145v-574q0 -54 34.5 -79t154.5 -33v-66h-520v66l48 5q97 7 97 97v608q0 130 -156 135v66l328 20l14 -14v-137h5q129 164 276 164q63 0 103 -40.5t40 -111.5q0 -57 -27.5 -93t-74.5 -36q-52 0 -83.5 26.5t-31.5 65.5q0 30 11 76zM264 -444v57
q176 9 174 129h-55q-119 0 -119 94q0 40 32.5 69t83.5 29q66 0 107 -45.5t41 -119.5q0 -102 -71 -157.5t-193 -55.5z" />
    <glyph glyph-name="Rcaron" unicode="&#x158;" horiz-adv-x="1438" 
d="M1098 0q-219 345 -453 643h-143v-450q0 -71 33.5 -90.5t162.5 -30.5v-72h-600v72q124 10 157.5 32t33.5 89v1026q0 65 -36 92t-155 37v71h656q205 0 325.5 -88.5t120.5 -249.5q0 -282 -346 -383q71 -90 281 -376q109 -149 138.5 -172.5t68 -47.5t139.5 -30v-72h-383z
M502 1337v-608h131q144 0 232.5 92t88.5 238q0 132 -75.5 205t-206.5 73h-170zM985 1835l-236 -283q-29 -35 -39.5 -40t-52.5 -5q-54 0 -86 41l-238 287l50 33l278 -213l274 213z" />
    <glyph glyph-name="rcaron" unicode="&#x159;" horiz-adv-x="840" 
d="M621 897q-132 -7 -218 -145v-574q0 -54 34.5 -79t154.5 -33v-66h-520v66l48 5q97 7 97 97v608q0 130 -156 135v66l328 20l14 -14v-137h5q129 164 276 164q63 0 103 -40.5t40 -111.5q0 -57 -27.5 -93t-74.5 -36q-52 0 -83.5 26.5t-31.5 65.5q0 30 11 76zM512 1159
q-28 -41 -84 -41q-41 0 -56.5 9t-33.5 36l-238 346l50 33l274 -272l278 272l50 -33z" />
    <glyph glyph-name="Sacute" unicode="&#x15a;" horiz-adv-x="1149" 
d="M231 72l-43 -72h-79l-15 485h80q122 -428 430 -428q268 0 268 250q0 75 -36 137t-85.5 95t-148.5 70q-197 72 -281 119.5t-136 132.5t-52 204q0 161 126.5 273t303.5 112q156 0 318 -98l41 67h79l9 -471h-82q-65 241 -154 328.5t-223 87.5q-97 0 -163 -61.5t-66 -149.5
q0 -104 56.5 -172t253.5 -139q253 -92 345 -186.5t92 -252.5q0 -189 -138.5 -310.5t-344.5 -121.5q-185 0 -355 101zM412 1507l-31 39q166 158 262 258q60 64 115 64q39 0 65.5 -22.5t26.5 -57.5q0 -48 -35 -76.5t-193 -102.5q-94 -44 -210 -102z" />
    <glyph glyph-name="sacute" unicode="&#x15b;" horiz-adv-x="885" 
d="M178 61l-20 -63h-74l-10 342h67q30 -118 116 -203.5t198 -85.5q200 0 200 168q0 69 -49.5 114t-204.5 91q-303 89 -303 301q0 124 92.5 206.5t239.5 82.5q122 0 217 -51l23 53h71l17 -318h-70q-55 240 -260 240q-79 0 -127.5 -40.5t-48.5 -100.5q0 -77 46.5 -114
t203.5 -89q177 -57 242 -129.5t65 -179.5q0 -137 -104 -224.5t-265 -87.5q-146 0 -262 88zM324 1110l-39 33q114 165 202 307q53 88 127 88q34 0 58 -23.5t24 -54.5q0 -56 -43 -91t-221 -174q-47 -36 -108 -85z" />
    <glyph glyph-name="Scircumflex" unicode="&#x15c;" horiz-adv-x="1149" 
d="M231 72l-43 -72h-79l-15 485h80q122 -428 430 -428q268 0 268 250q0 75 -36 137t-85.5 95t-148.5 70q-197 72 -281 119.5t-136 132.5t-52 204q0 161 126.5 273t303.5 112q156 0 318 -98l41 67h79l9 -471h-82q-65 241 -154 328.5t-223 87.5q-97 0 -163 -61.5t-66 -149.5
q0 -104 56.5 -172t253.5 -139q253 -92 345 -186.5t92 -252.5q0 -189 -138.5 -310.5t-344.5 -121.5q-185 0 -355 101zM868 1507l-278 211l-274 -211l-50 31l236 285q21 25 36 35t56 10q54 0 86 -41l238 -289z" />
    <glyph glyph-name="scircumflex" unicode="&#x15d;" horiz-adv-x="885" 
d="M178 61l-20 -63h-74l-10 342h67q30 -118 116 -203.5t198 -85.5q200 0 200 168q0 69 -49.5 114t-204.5 91q-303 89 -303 301q0 124 92.5 206.5t239.5 82.5q122 0 217 -51l23 53h71l17 -318h-70q-55 240 -260 240q-79 0 -127.5 -40.5t-48.5 -100.5q0 -77 46.5 -114
t203.5 -89q177 -57 242 -129.5t65 -179.5q0 -137 -104 -224.5t-265 -87.5q-146 0 -262 88zM733 1118l-278 273l-274 -273l-50 33l238 346q19 27 34.5 36t55.5 9q55 0 84 -41l240 -350z" />
    <glyph glyph-name="Scedilla" unicode="&#x15e;" horiz-adv-x="1149" 
d="M231 72l-43 -72h-79l-15 485h80q122 -428 430 -428q268 0 268 250q0 75 -36 137t-85.5 95t-148.5 70q-197 72 -281 119.5t-136 132.5t-52 204q0 161 126.5 273t303.5 112q156 0 318 -98l41 67h79l9 -471h-82q-65 241 -154 328.5t-223 87.5q-97 0 -163 -61.5t-66 -149.5
q0 -104 56.5 -172t253.5 -139q253 -92 345 -186.5t92 -252.5q0 -189 -138.5 -310.5t-344.5 -121.5q-185 0 -355 101zM420 -444v71q171 0 212.5 23.5t41.5 66.5q0 76 -164 76v223h78v-114q232 0 232 -150q0 -196 -400 -196z" />
    <glyph glyph-name="scedilla" unicode="&#x15f;" horiz-adv-x="885" 
d="M178 61l-20 -63h-74l-10 342h67q30 -118 116 -203.5t198 -85.5q200 0 200 168q0 69 -49.5 114t-204.5 91q-303 89 -303 301q0 124 92.5 206.5t239.5 82.5q122 0 217 -51l23 53h71l17 -318h-70q-55 240 -260 240q-79 0 -127.5 -40.5t-48.5 -100.5q0 -77 46.5 -114
t203.5 -89q177 -57 242 -129.5t65 -179.5q0 -137 -104 -224.5t-265 -87.5q-146 0 -262 88zM272 -444v71q171 0 212.5 23.5t41.5 66.5q0 76 -164 76v223h78v-114q232 0 232 -150q0 -196 -400 -196z" />
    <glyph glyph-name="Scaron" unicode="&#x160;" horiz-adv-x="1149" 
d="M231 72l-43 -72h-79l-15 485h80q122 -428 430 -428q268 0 268 250q0 75 -36 137t-85.5 95t-148.5 70q-197 72 -281 119.5t-136 132.5t-52 204q0 161 126.5 273t303.5 112q156 0 318 -98l41 67h79l9 -471h-82q-65 241 -154 328.5t-223 87.5q-97 0 -163 -61.5t-66 -149.5
q0 -104 56.5 -172t253.5 -139q253 -92 345 -186.5t92 -252.5q0 -189 -138.5 -310.5t-344.5 -121.5q-185 0 -355 101zM910 1835l-236 -283q-29 -35 -39.5 -40t-52.5 -5q-54 0 -86 41l-238 287l50 33l278 -213l274 213z" />
    <glyph glyph-name="scaron" unicode="&#x161;" horiz-adv-x="885" 
d="M178 61l-20 -63h-74l-10 342h67q30 -118 116 -203.5t198 -85.5q200 0 200 168q0 69 -49.5 114t-204.5 91q-303 89 -303 301q0 124 92.5 206.5t239.5 82.5q122 0 217 -51l23 53h71l17 -318h-70q-55 240 -260 240q-79 0 -127.5 -40.5t-48.5 -100.5q0 -77 46.5 -114
t203.5 -89q177 -57 242 -129.5t65 -179.5q0 -137 -104 -224.5t-265 -87.5q-146 0 -262 88zM539 1159q-28 -41 -84 -41q-41 0 -56.5 9t-33.5 36l-238 346l50 33l274 -272l278 272l50 -33z" />
    <glyph glyph-name="uni0162" unicode="&#x162;" horiz-adv-x="1268" 
d="M1182 1034q-22 82 -80.5 172t-101 112.5t-201.5 22.5h-60v-1134q0 -56 36 -88t194 -47v-72h-670v72q147 10 187 33t40 92v1144h-57q-145 0 -187.5 -14.5t-105 -105t-90.5 -187.5h-72v385h1237v-385h-69zM432 -444v71q171 0 212.5 23.5t41.5 66.5q0 76 -164 76v223h78
v-114q232 0 232 -150q0 -196 -400 -196z" />
    <glyph glyph-name="uni0163" unicode="&#x163;" horiz-adv-x="707" 
d="M682 43q-144 -63 -266 -63q-226 0 -226 237v670h-178v94h183v307h182v-307h282v-94h-280v-551q0 -137 31 -186.5t129 -49.5q85 0 143 17v-74zM211 -444v71q171 0 212.5 23.5t41.5 66.5q0 76 -164 76v223h78v-114q232 0 232 -150q0 -196 -400 -196z" />
    <glyph glyph-name="Tcaron" unicode="&#x164;" horiz-adv-x="1268" 
d="M1182 1034q-22 82 -80.5 172t-101 112.5t-201.5 22.5h-60v-1134q0 -56 36 -88t194 -47v-72h-670v72q147 10 187 33t40 92v1144h-57q-145 0 -187.5 -14.5t-105 -105t-90.5 -187.5h-72v385h1237v-385h-69zM961 1835l-236 -283q-29 -35 -39.5 -40t-52.5 -5q-54 0 -86 41
l-238 287l50 33l278 -213l274 213z" />
    <glyph glyph-name="tcaron" unicode="&#x165;" horiz-adv-x="707" 
d="M532 1071l-34 59q188 91 196 207h-45q-133 0 -133 111q0 42 34.5 76.5t84.5 34.5q160 0 160 -191q0 -180 -263 -297zM682 43q-144 -63 -266 -63q-226 0 -226 237v670h-178v94h183v307h182v-307h282v-94h-280v-551q0 -137 31 -186.5t129 -49.5q85 0 143 17v-74z" />
    <glyph glyph-name="Tbar" unicode="&#x166;" horiz-adv-x="1268" 
d="M1051 784v-92h-312v-485q0 -56 36 -88t194 -47v-72h-670v72q147 10 187 33t40 92v495h-311v92h311v557h-57q-145 0 -187.5 -14.5t-105 -105t-90.5 -187.5h-72v385h1237v-385h-69q-22 82 -80.5 172t-101 112.5t-201.5 22.5h-60v-557h312z" />
    <glyph glyph-name="tbar" unicode="&#x167;" horiz-adv-x="707" 
d="M379 336q0 -137 31 -186.5t129 -49.5q85 0 143 17v-74q-144 -63 -266 -63q-226 0 -226 237v266h-170v84h170v320h-178v94h183v307h182v-307h282v-94h-280v-320h233v-84h-233v-147z" />
    <glyph glyph-name="Utilde" unicode="&#x168;" horiz-adv-x="1548" 
d="M1534 1348q-151 -12 -191 -67.5t-40 -248.5v-616q0 -210 -153.5 -330.5t-358.5 -120.5q-242 0 -386.5 118t-144.5 292v837q0 117 -186 136v71h592v-71q-120 -10 -155.5 -35t-35.5 -90v-785q0 -360 352 -360q184 0 280.5 103t96.5 255v584q0 212 -52.5 262t-199.5 66v71
h582v-71zM1198 1835q-31 -102 -102 -171.5t-154 -69.5q-84 0 -175 51t-134 51q-36 0 -61 -16t-81 -119l-59 25q93 241 250 241q80 0 171 -51t128 -51q96 0 130 78q11 25 26 57z" />
    <glyph glyph-name="utilde" unicode="&#x169;" horiz-adv-x="1178" 
d="M809 -4l-16 14v125h-7q-143 -160 -327 -160q-269 0 -269 334v471q0 123 -155 129v66l330 22l14 -14v-684q0 -100 46 -157.5t118 -57.5q157 0 248 145v559q0 42 -26 75.5t-53.5 37.5t-107.5 8v66l359 22l16 -14v-782q0 -118 149 -117v-66zM958 1466q-31 -102 -102 -171.5
t-154 -69.5q-84 0 -175 51t-134 51q-36 0 -61 -16t-81 -119l-59 25q93 241 250 241q80 0 171 -51t128 -51q96 0 130 78q11 25 26 57z" />
    <glyph glyph-name="Umacron" unicode="&#x16a;" horiz-adv-x="1548" 
d="M1534 1348q-151 -12 -191 -67.5t-40 -248.5v-616q0 -210 -153.5 -330.5t-358.5 -120.5q-242 0 -386.5 118t-144.5 292v837q0 117 -186 136v71h592v-71q-120 -10 -155.5 -35t-35.5 -90v-785q0 -360 352 -360q184 0 280.5 103t96.5 255v584q0 212 -52.5 262t-199.5 66v71
h582v-71zM469 1657v129h684v-129h-684z" />
    <glyph glyph-name="umacron" unicode="&#x16b;" horiz-adv-x="1178" 
d="M809 -4l-16 14v125h-7q-143 -160 -327 -160q-269 0 -269 334v471q0 123 -155 129v66l330 22l14 -14v-684q0 -100 46 -157.5t118 -57.5q157 0 248 145v559q0 42 -26 75.5t-53.5 37.5t-107.5 8v66l359 22l16 -14v-782q0 -118 149 -117v-66zM227 1290v129h684v-129h-684z
" />
    <glyph glyph-name="Ubreve" unicode="&#x16c;" horiz-adv-x="1548" 
d="M1534 1348q-151 -12 -191 -67.5t-40 -248.5v-616q0 -210 -153.5 -330.5t-358.5 -120.5q-242 0 -386.5 118t-144.5 292v837q0 117 -186 136v71h592v-71q-120 -10 -155.5 -35t-35.5 -90v-785q0 -360 352 -360q184 0 280.5 103t96.5 255v584q0 212 -52.5 262t-199.5 66v71
h582v-71zM1134 1851q-51 -321 -317 -321q-267 0 -317 321l55 17q59 -191 262 -191t262 191z" />
    <glyph glyph-name="ubreve" unicode="&#x16d;" horiz-adv-x="1178" 
d="M809 -4l-16 14v125h-7q-143 -160 -327 -160q-269 0 -269 334v471q0 123 -155 129v66l330 22l14 -14v-684q0 -100 46 -157.5t118 -57.5q157 0 248 145v559q0 42 -26 75.5t-53.5 37.5t-107.5 8v66l359 22l16 -14v-782q0 -118 149 -117v-66zM862 1495q-53 -369 -313 -369
q-263 0 -313 369l55 12q40 -129 99.5 -179t158.5 -50q98 0 157.5 48.5t100.5 180.5z" />
    <glyph glyph-name="Uring" unicode="&#x16e;" horiz-adv-x="1548" 
d="M1534 1348q-151 -12 -191 -67.5t-40 -248.5v-616q0 -210 -153.5 -330.5t-358.5 -120.5q-242 0 -386.5 118t-144.5 292v837q0 117 -186 136v71h592v-71q-120 -10 -155.5 -35t-35.5 -90v-785q0 -360 352 -360q184 0 280.5 103t96.5 255v584q0 212 -52.5 262t-199.5 66v71
h582v-71zM809 1419q-117 0 -187.5 60.5t-70.5 162.5q0 97 74 159.5t184 62.5q114 0 186 -61t72 -161q0 -98 -71 -160.5t-187 -62.5zM809 1800q-131 0 -131 -158q0 -69 33 -114t98 -45q131 0 131 159q0 72 -35 115t-96 43z" />
    <glyph glyph-name="uring" unicode="&#x16f;" horiz-adv-x="1178" 
d="M809 -4l-16 14v125h-7q-143 -160 -327 -160q-269 0 -269 334v471q0 123 -155 129v66l330 22l14 -14v-684q0 -100 46 -157.5t118 -57.5q157 0 248 145v559q0 42 -26 75.5t-53.5 37.5t-107.5 8v66l359 22l16 -14v-782q0 -118 149 -117v-66zM565 1114q-117 0 -187.5 60.5
t-70.5 162.5q0 97 74 159.5t184 62.5q114 0 186 -61t72 -161q0 -98 -71 -160.5t-187 -62.5zM565 1495q-131 0 -131 -158q0 -69 33 -114t98 -45q131 0 131 159q0 72 -35 115t-96 43z" />
    <glyph glyph-name="Uhungarumlaut" unicode="&#x170;" horiz-adv-x="1548" 
d="M1534 1348q-151 -12 -191 -67.5t-40 -248.5v-616q0 -210 -153.5 -330.5t-358.5 -120.5q-242 0 -386.5 118t-144.5 292v837q0 117 -186 136v71h592v-71q-120 -10 -155.5 -35t-35.5 -90v-785q0 -360 352 -360q184 0 280.5 103t96.5 255v584q0 212 -52.5 262t-199.5 66v71
h582v-71zM518 1507l-28 35q121 138 213 250q61 76 110 76q41 0 64.5 -26.5t23.5 -57.5q0 -64 -82 -107q-246 -130 -301 -170zM901 1507l-28 35l219 250q61 76 110 76q41 0 64.5 -26.5t23.5 -57.5q0 -64 -82 -107l-139 -72q-64 -34 -168 -98z" />
    <glyph glyph-name="uhungarumlaut" unicode="&#x171;" horiz-adv-x="1178" 
d="M809 -4l-16 14v125h-7q-143 -160 -327 -160q-269 0 -269 334v471q0 123 -155 129v66l330 22l14 -14v-684q0 -100 46 -157.5t118 -57.5q157 0 248 145v559q0 42 -26 75.5t-53.5 37.5t-107.5 8v66l359 22l16 -14v-782q0 -118 149 -117v-66zM684 1110l-35 29
q144 233 182 307q55 92 113 92q34 0 58 -23.5t24 -54.5q0 -40 -18 -65t-113 -106zM329 1110l-36 29q107 178 169 307q47 92 111 92q33 0 57.5 -25t24.5 -55q0 -47 -26 -77.5t-300 -270.5z" />
    <glyph glyph-name="Uogonek" unicode="&#x172;" horiz-adv-x="1548" 
d="M1534 1348q-151 -12 -191 -67.5t-40 -248.5v-616q0 -210 -153.5 -330.5t-358.5 -120.5q-242 0 -386.5 118t-144.5 292v837q0 117 -186 136v71h592v-71q-120 -10 -155.5 -35t-35.5 -90v-785q0 -360 352 -360q184 0 280.5 103t96.5 255v584q0 212 -52.5 262t-199.5 66v71
h582v-71zM1050 -444q-130 0 -199 52t-69 142q0 157 238 289h59q-137 -107 -137 -256q0 -87 56 -121.5t167 -34.5v-71h-115z" />
    <glyph glyph-name="uogonek" unicode="&#x173;" horiz-adv-x="1178" 
d="M809 -4l-16 14v125h-7q-143 -160 -327 -160q-269 0 -269 334v471q0 123 -155 129v66l330 22l14 -14v-684q0 -100 46 -157.5t118 -57.5q157 0 248 145v559q0 42 -26 75.5t-53.5 37.5t-107.5 8v66l359 22l16 -14v-782q0 -118 149 -117v-66zM962 -444q-130 0 -199 52
t-69 142q0 157 238 289h59q-137 -107 -137 -256q0 -87 56 -121.5t167 -34.5v-71h-115z" />
    <glyph glyph-name="Wcircumflex" unicode="&#x174;" horiz-adv-x="1999" 
d="M2028 1348q-48 -4 -90.5 -23.5t-70 -49t-35.5 -49.5t-88 -281l-296 -963h-92l-359 1091l-372 -1091h-88l-352 1240q-34 111 -189 126v71h579v-71q-184 -12 -184 -52q0 -24 20.5 -99.5t243.5 -850.5l355 1053h98l356 -1075q246 836 246 936q0 71 -197 88v71h515v-71z
M1335 1507l-278 211l-274 -211l-50 31l236 285q21 25 36 35t56 10q54 0 86 -41l238 -289z" />
    <glyph glyph-name="wcircumflex" unicode="&#x175;" horiz-adv-x="1509" 
d="M1540 922q-69 -10 -108 -46.5t-57 -94t-126 -373t-133 -414.5h-86l-264 725l-268 -725h-82l-268 807q-30 95 -152 119v65h438v-70q-108 -5 -108 -43q0 -18 188 -616l252 711h96l256 -701q180 540 180 586q0 30 -47.5 50t-85.5 20v63h375v-63zM1091 1118l-278 273
l-274 -273l-50 33l238 346q19 27 34.5 36t55.5 9q55 0 84 -41l240 -350z" />
    <glyph glyph-name="Ycircumflex" unicode="&#x176;" horiz-adv-x="1260" 
d="M1315 1348q-57 -6 -108.5 -36.5t-119.5 -125.5t-193.5 -310.5t-145 -262t-19.5 -134.5v-270q0 -57 38.5 -90t188.5 -47v-72h-663v72q147 10 185 32t38 95v344q0 34 -169 350.5t-223.5 381t-166.5 73.5v71h604v-71q-186 -9 -186 -48q0 -28 311 -591q324 520 324 565
q0 30 -35.5 47.5t-153.5 26.5v71h494v-71zM954 1507l-278 211l-274 -211l-50 31l236 285q21 25 36 35t56 10q54 0 86 -41l238 -289z" />
    <glyph glyph-name="ycircumflex" unicode="&#x177;" horiz-adv-x="1008" 
d="M1038 924q-34 -5 -78 -35t-58 -53.5t-89 -202.5l-138 -330q-141 -341 -210 -478.5t-146 -203t-155 -65.5q-73 0 -119.5 34.5t-46.5 87.5q0 48 25.5 80.5t68.5 32.5q86 0 156 -127q44 23 112.5 129t108.5 211l-336 820q-33 73 -151 96v65h448v-70q-113 -7 -113 -43
q0 -2 5 -14l10 -31l237 -583l201 491q4 12 11 27q24 54 24 84q0 51 -133 76v63h366v-61zM804 1118l-278 273l-274 -273l-50 33l238 346q19 27 34.5 36t55.5 9q55 0 84 -41l240 -350z" />
    <glyph glyph-name="Ydieresis" unicode="&#x178;" horiz-adv-x="1260" 
d="M1315 1348q-57 -6 -108.5 -36.5t-119.5 -125.5t-193.5 -310.5t-145 -262t-19.5 -134.5v-270q0 -57 38.5 -90t188.5 -47v-72h-663v72q147 10 185 32t38 95v344q0 34 -169 350.5t-223.5 381t-166.5 73.5v71h604v-71q-186 -9 -186 -48q0 -28 311 -591q324 520 324 565
q0 30 -35.5 47.5t-153.5 26.5v71h494v-71zM895 1608q-49 0 -84 35.5t-35 87.5q0 51 35 86.5t84 35.5t83 -35.5t34 -86.5q0 -52 -34 -87.5t-83 -35.5zM445 1608q-49 0 -83 35.5t-34 87.5q0 51 34 86.5t83 35.5t84 -35.5t35 -86.5q0 -52 -35 -87.5t-84 -35.5z" />
    <glyph glyph-name="Zacute" unicode="&#x179;" horiz-adv-x="1233" 
d="M1167 0h-1140v35l893 1304h-326q-156 0 -210 -25t-125 -117t-105 -179h-70l43 401h1063v-35l-893 -1304h338q152 0 218.5 16t103 51t96 123.5t92.5 171.5h69zM500 1507l-31 39q166 158 262 258q60 64 115 64q39 0 65.5 -22.5t26.5 -57.5q0 -48 -35 -76.5t-193 -102.5
q-94 -44 -210 -102z" />
    <glyph glyph-name="zacute" unicode="&#x17a;" horiz-adv-x="909" 
d="M55 0v53l557 852h-137q-203 0 -248.5 -39t-72.5 -184h-62v303h756v-41l-567 -862l90 -2q290 -6 328 22.5t94 245.5h61v-348h-799zM359 1110l-39 33q114 165 202 307q53 88 127 88q34 0 58 -23.5t24 -54.5q0 -56 -43 -91t-221 -174q-47 -36 -108 -85z" />
    <glyph glyph-name="Zdotaccent" unicode="&#x17b;" horiz-adv-x="1233" 
d="M1167 0h-1140v35l893 1304h-326q-156 0 -210 -25t-125 -117t-105 -179h-70l43 401h1063v-35l-893 -1304h338q152 0 218.5 16t103 51t96 123.5t92.5 171.5h69zM635 1597q-51 0 -88 39t-37 92q0 54 36.5 94.5t88.5 40.5q57 0 94 -38t37 -89q0 -57 -37.5 -98t-93.5 -41z" />
    <glyph glyph-name="zdotaccent" unicode="&#x17c;" horiz-adv-x="909" 
d="M55 0v53l557 852h-137q-203 0 -248.5 -39t-72.5 -184h-62v303h756v-41l-567 -862l90 -2q290 -6 328 22.5t94 245.5h61v-348h-799zM467 1247q-51 0 -88 39t-37 92q0 54 36.5 94.5t88.5 40.5q57 0 94 -38t37 -89q0 -57 -37.5 -98t-93.5 -41z" />
    <glyph glyph-name="Zcaron" unicode="&#x17d;" horiz-adv-x="1233" 
d="M1167 0h-1140v35l893 1304h-326q-156 0 -210 -25t-125 -117t-105 -179h-70l43 401h1063v-35l-893 -1304h338q152 0 218.5 16t103 51t96 123.5t92.5 171.5h69zM955 1835l-236 -283q-29 -35 -39.5 -40t-52.5 -5q-54 0 -86 41l-238 287l50 33l278 -213l274 213z" />
    <glyph glyph-name="zcaron" unicode="&#x17e;" horiz-adv-x="909" 
d="M55 0v53l557 852h-137q-203 0 -248.5 -39t-72.5 -184h-62v303h756v-41l-567 -862l90 -2q290 -6 328 22.5t94 245.5h61v-348h-799zM545 1159q-28 -41 -84 -41q-41 0 -56.5 9t-33.5 36l-238 346l50 33l274 -272l278 272l50 -33z" />
    <glyph glyph-name="longs" unicode="&#x17f;" horiz-adv-x="612" 
d="M199 1051q0 215 116 356t291 141q89 0 133.5 -34.5t44.5 -83.5q0 -107 -96 -107q-76 0 -133 93l-31 48q-139 -7 -139 -391v-895q0 -46 27.5 -74t152.5 -38v-66h-512v66l49 5q97 7 97 97v883z" />
    <glyph glyph-name="florin" unicode="&#x192;" horiz-adv-x="1063" 
d="M784 1235q-163 -24 -209 -395l-14 -121h258v-96h-266q-38 -454 -102 -637t-174 -269t-250 -86q-96 0 -149.5 40.5t-53.5 99.5q0 104 96 104q95 0 174 -172q87 7 147.5 149.5t120.5 770.5h-204v96h213q28 280 156 434t325 154q95 0 149 -42t54 -102q0 -104 -99 -104
q-96 0 -172 176z" />
    <glyph glyph-name="Aringacute" unicode="&#x1fa;" horiz-adv-x="1374" 
d="M829 0v72q183 10 183 57q0 30 -8 43l-134 320h-469q-112 -260 -112 -332q0 -76 205 -88v-72h-535v72q87 7 136.5 42.5t72 74t156.5 357.5l286 679q-172 44 -172 207q0 114 113 178q122 94 248 205q63 53 106 53q45 0 72 -24t27 -56q0 -37 -23.5 -66t-198.5 -90
q172 -48 172 -200q0 -160 -168 -205l424 -1012q60 -143 211 -143v-72h-592zM696 1579q-60 0 -95.5 -41.5t-35.5 -105.5q0 -68 36.5 -110t94.5 -42q62 0 97.5 42t35.5 110q0 64 -35 105.5t-98 41.5zM637 1047l-199 -467h396z" />
    <glyph glyph-name="aringacute" unicode="&#x1fb;" horiz-adv-x="1032" 
d="M330 1483l-31 39q159 153 260 258q61 63 117 63q39 0 65.5 -23t26.5 -57q0 -55 -36 -78.5t-402 -201.5zM389 1004q-153 51 -153 208q0 97 73.5 159.5t184.5 62.5q114 0 186 -62t72 -160q0 -152 -152 -206q244 -36 244 -318l-6 -493q0 -54 25.5 -80t46 -29.5t96.5 -3.5
v-64q-104 -38 -162 -38q-157 0 -185 143h-6q-133 -148 -319 -148q-111 0 -182.5 67.5t-71.5 178.5q0 124 68 189.5t234 120.5q237 78 273 100v98q0 86 -47.5 148.5t-140.5 62.5q-96 0 -141 -47q0 -25 9 -59t9 -72q0 -39 -34.5 -65.5t-84.5 -26.5q-96 0 -96 114
q0 70 72 131.5t188 88.5zM494 1370q-63 0 -98.5 -42.5t-35.5 -115.5q0 -69 34.5 -114t99.5 -45q131 0 131 159q0 72 -35 115t-96 43zM657 547q-218 -64 -297 -132t-79 -169q0 -160 153 -160q118 0 217 115z" />
    <glyph glyph-name="AEacute" unicode="&#x1fc;" horiz-adv-x="1989" 
d="M1915 0h-1170v72q148 8 175.5 38t27.5 83v409h-479q-211 -362 -211 -432q0 -87 168 -98v-72h-522v72q142 14 209.5 108.5t652.5 1144.5q-49 17 -170 23v71h1239v-342h-76q-18 75 -76 150t-101.5 93.5t-207.5 18.5h-213v-563h150q116 0 164.5 49.5t68.5 182.5h76v-555h-76
q-4 48 -28.5 120.5t-69.5 96.5t-135 24h-150v-426q0 -128 42.5 -157t201.5 -29h84q133 0 180 22t108.5 123.5t92.5 190.5h72zM948 1331h-78l-354 -641h432v641zM1078 1507l-31 39q166 158 262 258q60 64 115 64q39 0 65.5 -22.5t26.5 -57.5q0 -48 -35 -76.5t-193 -102.5
q-94 -44 -210 -102z" />
    <glyph glyph-name="aeacute" unicode="&#x1fd;" horiz-adv-x="1509" 
d="M1468 233q-127 -260 -385 -260q-243 0 -370 189h-6q-142 -189 -367 -189q-117 0 -187.5 67.5t-70.5 178.5q0 129 78.5 209t480.5 195v106q0 80 -43.5 145.5t-128.5 65.5q-100 0 -145 -47q0 -25 9 -59t9 -72q0 -39 -33.5 -65.5t-85.5 -26.5q-96 0 -96 114q0 87 110 158.5
t234 71.5q229 0 311 -121q125 121 281 121q184 0 282.5 -111t98.5 -297v-57h-619q0 -465 305 -465q174 0 269 192zM1245 631q0 307 -194 307q-97 0 -161.5 -87t-64.5 -220h420zM643 537q-362 -71 -362 -289q0 -162 145 -162q132 0 217 109v342zM709 1110l-39 33
q114 165 202 307q53 88 127 88q34 0 58 -23.5t24 -54.5q0 -56 -43 -91t-221 -174q-47 -36 -108 -85z" />
    <glyph glyph-name="Oslashacute" unicode="&#x1fe;" horiz-adv-x="1524" 
d="M330 127l-174 -211l-66 49l182 215q-192 214 -192 529q0 326 197.5 534.5t484.5 208.5q250 0 432 -160l152 185l65 -54l-158 -186q191 -219 191 -528q0 -328 -197.5 -536t-484.5 -208q-243 0 -432 162zM1098 1176q-117 188 -336 188q-213 0 -328 -178t-115 -477
q0 -235 66 -394zM1141 1102l-715 -858q120 -189 336 -189q209 0 325.5 175t116.5 479q0 237 -63 393zM568 1507l-31 39q166 158 262 258q60 64 115 64q39 0 65.5 -22.5t26.5 -57.5q0 -48 -35 -76.5t-193 -102.5q-94 -44 -210 -102z" />
    <glyph glyph-name="oslashacute" unicode="&#x1ff;" horiz-adv-x="1104" 
d="M256 76q-23 -26 -127 -158l-57 43l133 164q-135 151 -135 364q0 232 134.5 378.5t352.5 146.5q166 0 289 -96l110 141l60 -45l-119 -146q135 -145 135 -364q0 -234 -134 -384.5t-355 -150.5q-156 0 -287 107zM764 815q-69 123 -209 123q-137 0 -210 -119t-73 -313
q0 -142 35 -258zM797 748l-457 -570q73 -133 215 -133q129 0 201.5 125.5t72.5 331.5q0 144 -32 246zM371 1110l-39 33q114 165 202 307q53 88 127 88q34 0 58 -23.5t24 -54.5q0 -56 -43 -91t-221 -174q-47 -36 -108 -85z" />
    <glyph glyph-name="uni0218" unicode="&#x218;" horiz-adv-x="1149" 
d="M231 72l-43 -72h-79l-15 485h80q122 -428 430 -428q268 0 268 250q0 75 -36 137t-85.5 95t-148.5 70q-197 72 -281 119.5t-136 132.5t-52 204q0 161 126.5 273t303.5 112q156 0 318 -98l41 67h79l9 -471h-82q-65 241 -154 328.5t-223 87.5q-97 0 -163 -61.5t-66 -149.5
q0 -104 56.5 -172t253.5 -139q253 -92 345 -186.5t92 -252.5q0 -189 -138.5 -310.5t-344.5 -121.5q-185 0 -355 101zM473 -444v57q176 9 174 129h-55q-119 0 -119 94q0 40 32.5 69t83.5 29q66 0 107 -45.5t41 -119.5q0 -102 -71 -157.5t-193 -55.5z" />
    <glyph glyph-name="uni0219" unicode="&#x219;" horiz-adv-x="885" 
d="M178 61l-20 -63h-74l-10 342h67q30 -118 116 -203.5t198 -85.5q200 0 200 168q0 69 -49.5 114t-204.5 91q-303 89 -303 301q0 124 92.5 206.5t239.5 82.5q122 0 217 -51l23 53h71l17 -318h-70q-55 240 -260 240q-79 0 -127.5 -40.5t-48.5 -100.5q0 -77 46.5 -114
t203.5 -89q177 -57 242 -129.5t65 -179.5q0 -137 -104 -224.5t-265 -87.5q-146 0 -262 88zM326 -444v57q176 9 174 129h-55q-119 0 -119 94q0 40 32.5 69t83.5 29q66 0 107 -45.5t41 -119.5q0 -102 -71 -157.5t-193 -55.5z" />
    <glyph glyph-name="uni021A" unicode="&#x21a;" horiz-adv-x="1268" 
d="M1182 1034q-22 82 -80.5 172t-101 112.5t-201.5 22.5h-60v-1134q0 -56 36 -88t194 -47v-72h-670v72q147 10 187 33t40 92v1144h-57q-145 0 -187.5 -14.5t-105 -105t-90.5 -187.5h-72v385h1237v-385h-69zM533 -444v57q176 9 174 129h-55q-119 0 -119 94q0 40 32.5 69
t83.5 29q66 0 107 -45.5t41 -119.5q0 -102 -71 -157.5t-193 -55.5z" />
    <glyph glyph-name="uni021B" unicode="&#x21b;" horiz-adv-x="707" 
d="M682 43q-144 -63 -266 -63q-226 0 -226 237v670h-178v94h183v307h182v-307h282v-94h-280v-551q0 -137 31 -186.5t129 -49.5q85 0 143 17v-74zM316 -444v57q176 9 174 129h-55q-119 0 -119 94q0 40 32.5 69t83.5 29q66 0 107 -45.5t41 -119.5q0 -102 -71 -157.5
t-193 -55.5z" />
    <glyph glyph-name="uni0237" unicode="&#x237;" horiz-adv-x="598" 
d="M430 59q0 -222 -114.5 -362.5t-286.5 -140.5q-83 0 -132 33.5t-49 84.5q0 109 95 109q76 0 131 -93q15 -26 30 -50q76 0 109 93.5t33 293.5v741q0 45 -35.5 89.5t-190.5 55.5v64l398 20l12 -14v-924z" />
    <glyph glyph-name="circumflex" unicode="&#x2c6;" 
d="M788 1118l-278 273l-274 -273l-50 33l238 346q19 27 34.5 36t55.5 9q55 0 84 -41l240 -350z" />
    <glyph glyph-name="caron" unicode="&#x2c7;" 
d="M598 1159q-28 -41 -84 -41q-41 0 -56.5 9t-33.5 36l-238 346l50 33l274 -272l278 272l50 -33z" />
    <glyph glyph-name="uni02C9" unicode="&#x2c9;" 
d="M170 1290v129h684v-129h-684z" />
    <glyph glyph-name="breve" unicode="&#x2d8;" 
d="M825 1495q-53 -369 -313 -369q-263 0 -313 369l55 12q40 -129 99.5 -179t158.5 -50q98 0 157.5 48.5t100.5 180.5z" />
    <glyph glyph-name="dotaccent" unicode="&#x2d9;" 
d="M510 1247q-51 0 -88 39t-37 92q0 54 36.5 94.5t88.5 40.5q57 0 94 -38t37 -89q0 -57 -37.5 -98t-93.5 -41z" />
    <glyph glyph-name="ring" unicode="&#x2da;" 
d="M512 1114q-117 0 -187.5 60.5t-70.5 162.5q0 97 74 159.5t184 62.5q114 0 186 -61t72 -161q0 -98 -71 -160.5t-187 -62.5zM512 1495q-131 0 -131 -158q0 -69 33 -114t98 -45q131 0 131 159q0 72 -35 115t-96 43z" />
    <glyph glyph-name="ogonek" unicode="&#x2db;" 
d="M573 -444q-130 0 -199 52t-69 142q0 157 238 289h59q-137 -107 -137 -256q0 -87 56 -121.5t167 -34.5v-71h-115z" />
    <glyph glyph-name="tilde" unicode="&#x2dc;" 
d="M895 1466q-31 -102 -102 -171.5t-154 -69.5q-84 0 -175 51t-134 51q-36 0 -61 -16t-81 -119l-59 25q93 241 250 241q80 0 171 -51t128 -51q96 0 130 78q11 25 26 57z" />
    <glyph glyph-name="hungarumlaut" unicode="&#x2dd;" 
d="M584 1110l-35 29q144 233 182 307q55 92 113 92q34 0 58 -23.5t24 -54.5q0 -40 -18 -65t-113 -106zM229 1110l-36 29q107 178 169 307q47 92 111 92q33 0 57.5 -25t24.5 -55q0 -47 -26 -77.5t-300 -270.5z" />
    <glyph glyph-name="gravecomb" unicode="&#x300;" 
d="M737 1507q-116 58 -209 102q-103 48 -166 81t-63 98q0 80 92 80q56 0 102 -50t275 -272z" />
    <glyph glyph-name="acutecomb" unicode="&#x301;" 
d="M287 1507l-31 39q166 158 262 258q60 64 115 64q39 0 65.5 -22.5t26.5 -57.5q0 -48 -35 -76.5t-193 -102.5q-94 -44 -210 -102z" />
    <glyph glyph-name="uni0302" unicode="&#x302;" 
d="M788 1507l-278 211l-274 -211l-50 31l236 285q21 25 36 35t56 10q54 0 86 -41l238 -289z" />
    <glyph glyph-name="uni0306" unicode="&#x306;" 
d="M829 1851q-51 -321 -317 -321q-267 0 -317 321l55 17q59 -191 262 -191t262 191z" />
    <glyph glyph-name="uni0308" unicode="&#x308;" 
d="M737 1608q-49 0 -84 35.5t-35 87.5q0 51 35 86.5t84 35.5t83 -35.5t34 -86.5q0 -52 -34 -87.5t-83 -35.5zM287 1608q-49 0 -83 35.5t-34 87.5q0 51 34 86.5t83 35.5t84 -35.5t35 -86.5q0 -52 -35 -87.5t-84 -35.5z" />
    <glyph glyph-name="uni030B" unicode="&#x30b;" 
d="M182 1507l-28 35q121 138 213 250q61 76 110 76q41 0 64.5 -26.5t23.5 -57.5q0 -64 -82 -107q-246 -130 -301 -170zM565 1507l-28 35l219 250q61 76 110 76q41 0 64.5 -26.5t23.5 -57.5q0 -64 -82 -107l-139 -72q-64 -34 -168 -98z" />
    <glyph glyph-name="uni030C" unicode="&#x30c;" 
d="M838 1835l-236 -283q-29 -35 -39.5 -40t-52.5 -5q-54 0 -86 41l-238 287l50 33l278 -213l274 213z" />
    <glyph glyph-name="uni0326" unicode="&#x326;" 
d="M373 -444v57q176 9 174 129h-55q-119 0 -119 94q0 40 32.5 69t83.5 29q66 0 107 -45.5t41 -119.5q0 -102 -71 -157.5t-193 -55.5z" />
    <glyph glyph-name="tonos" unicode="&#x384;" 
d="M752 1534l-207 -395h-68l66 420h209v-25z" />
    <glyph glyph-name="dieresistonos" unicode="&#x385;" 
d="M672 1528l-205 -385h-59l73 405h191v-20zM788 1214q-47 0 -81.5 36t-34.5 87q0 50 33.5 86.5t82.5 36.5q50 0 82.5 -36t32.5 -87q0 -52 -34 -87.5t-81 -35.5zM238 1214q-47 0 -81 35.5t-34 87.5q0 51 32.5 87t82.5 36q49 0 82.5 -36.5t33.5 -86.5q0 -51 -34.5 -87
t-81.5 -36z" />
    <glyph glyph-name="Alphatonos" unicode="&#x386;" horiz-adv-x="1374" 
d="M829 0v72q183 11 183 57q0 22 -8 43l-119 320h-498q-98 -254 -98 -332q0 -74 205 -88v-72h-535v72q82 6 132 38.5t76 80.5t186 459l306 790h80l473 -1225q51 -133 209 -143v-72h-592zM635 1130l-211 -550h426zM346 1397l-207 -395h-68l66 420h209v-25z" />
    <glyph glyph-name="anoteleia" unicode="&#x387;" horiz-adv-x="641" 
d="M319 717q-57 0 -97 40.5t-40 96.5q0 54 40 94.5t97 40.5q58 0 98 -40t40 -95q0 -57 -40 -97t-98 -40z" />
    <glyph glyph-name="Epsilontonos" unicode="&#x388;" horiz-adv-x="1628" 
d="M1555 0h-1178v72q134 11 168.5 34.5t34.5 86.5v1019q0 70 -53.5 99t-149.5 37v71h1098v-342h-74q-21 78 -79.5 152t-100.5 92t-205 18h-223v-563h160q113 0 163 50.5t70 181.5h74v-555h-74q-5 50 -28 117.5t-65.5 95.5t-139.5 28h-160v-426q0 -122 38.5 -154t202.5 -32
h87q140 0 189 22t108 121t92 193h71zM297 1397l-207 -395h-68l66 420h209v-25z" />
    <glyph glyph-name="Etatonos" unicode="&#x389;" horiz-adv-x="1966" 
d="M1276 0v72q116 10 137.5 19t36 31t14.5 66v506h-665v-493q0 -61 37 -90.5t147 -38.5v-72h-588v72q137 6 164 37t27 79v1024q0 120 -191 136v71h588v-71q-105 -9 -144.5 -32t-39.5 -93v-441h665v430q0 120 -188 136v71h588v-71q-106 -9 -146.5 -33t-40.5 -92v-1022
q0 -63 40.5 -91.5t146.5 -37.5v-72h-588zM297 1397l-207 -395h-68l66 420h209v-25z" />
    <glyph glyph-name="Iotatonos" unicode="&#x38a;" horiz-adv-x="1085" 
d="M367 0v72q141 10 177 29t36 85v1028q0 67 -59.5 97t-153.5 37v71h639v-71q-135 -10 -174 -35.5t-39 -87.5v-1026q0 -52 34 -83.5t179 -43.5v-72h-639zM297 1397l-207 -395h-68l66 420h209v-25z" />
    <glyph glyph-name="Omicrontonos" unicode="&#x38c;" horiz-adv-x="1741" 
d="M979 -35q-293 0 -487.5 210.5t-194.5 533.5q0 326 197.5 534.5t484.5 208.5q292 0 487 -208t195 -535q0 -328 -197.5 -536t-484.5 -208zM979 1364q-209 0 -324.5 -176.5t-115.5 -478.5q0 -304 116 -479t324 -175q210 0 325 175.5t115 478.5q0 304 -116 479.5t-324 175.5z
M297 1397l-207 -395h-68l66 420h209v-25z" />
    <glyph glyph-name="Upsilontonos" unicode="&#x38e;" horiz-adv-x="1647" 
d="M1702 1348q-57 -6 -108.5 -36.5t-119.5 -125.5t-193.5 -310.5t-145 -262t-19.5 -134.5v-270q0 -57 38.5 -90t188.5 -47v-72h-663v72q147 10 185 32t38 95v344q0 34 -169 350.5t-223.5 381t-166.5 73.5v71h604v-71q-186 -9 -186 -48q0 -28 311 -591q324 520 324 565
q0 30 -35.5 47.5t-153.5 26.5v71h494v-71zM297 1397l-207 -395h-68l66 420h209v-25z" />
    <glyph glyph-name="Omegatonos" unicode="&#x38f;" horiz-adv-x="1784" 
d="M219 387h67q15 -33 31 -70q59 -141 150 -141h229v33q-234 254 -296 391.5t-62 292.5q0 230 186.5 394.5t462.5 164.5q281 0 466 -165t185 -394q0 -150 -59 -286t-299 -398v-33h227q88 0 148 141q15 37 30 70h70l-70 -387h-590v68q195 271 248 412.5t53 299.5
q0 274 -104 429t-305 155q-202 0 -305 -159t-103 -425q0 -154 51.5 -297t249.5 -415v-68h-594zM297 1397l-207 -395h-68l66 420h209v-25z" />
    <glyph glyph-name="iotadieresistonos" unicode="&#x390;" horiz-adv-x="604" 
d="M598 16q-106 -36 -207 -36q-188 0 -188 215l2 583q0 48 -31 86t-141 47v66l344 20l12 -14v-774q0 -131 143 -131q38 0 66 4v-66zM463 1528l-205 -385h-59l73 405h191v-20zM579 1214q-47 0 -81.5 36t-34.5 87q0 50 33.5 86.5t82.5 36.5q50 0 82.5 -36t32.5 -87
q0 -52 -34 -87.5t-81 -35.5zM29 1214q-47 0 -81 35.5t-34 87.5q0 51 32.5 87t82.5 36q49 0 82.5 -36.5t33.5 -86.5q0 -51 -34.5 -87t-81.5 -36z" />
    <glyph glyph-name="Alpha" unicode="&#x391;" horiz-adv-x="1374" 
d="M829 0v72q183 11 183 57q0 22 -8 43l-119 320h-498q-98 -254 -98 -332q0 -74 205 -88v-72h-535v72q82 6 132 38.5t76 80.5t186 459l306 790h80l473 -1225q51 -133 209 -143v-72h-592zM635 1130l-211 -550h426z" />
    <glyph glyph-name="Beta" unicode="&#x392;" horiz-adv-x="1339" 
d="M94 0v72q120 9 157.5 34t37.5 87v1019q0 121 -187 136v71h656q178 0 294.5 -80.5t116.5 -228.5q0 -265 -335 -344v-8q413 -62 413 -373q0 -174 -139.5 -279.5t-339.5 -105.5h-674zM502 1335v-544h127q301 0 301 299q0 249 -266 249q-90 0 -162 -4zM502 707v-500
q0 -127 192 -127q307 0 307 342q0 132 -87 210.5t-238 78.5q-117 0 -174 -4z" />
    <glyph glyph-name="Gamma" unicode="&#x393;" horiz-adv-x="1194" 
d="M1104 1022q-25 93 -77.5 182t-100.5 112t-221 23h-203v-1136q0 -59 43 -90t178 -41v-72h-637v72q114 9 138.5 13.5t44.5 30.5t20 72v1024q0 70 -53.5 99t-149.5 37v71h1094v-397h-76z" />
    <glyph glyph-name="uni0394" unicode="&#x394;" horiz-adv-x="1354" 
d="M18 0v49l641 1391h78l596 -1391v-49h-1315zM629 1163l-453 -991h877z" />
    <glyph glyph-name="Epsilon" unicode="&#x395;" horiz-adv-x="1337" 
d="M1264 0h-1178v72q134 11 168.5 34.5t34.5 86.5v1019q0 70 -53.5 99t-149.5 37v71h1098v-342h-74q-21 78 -79.5 152t-100.5 92t-205 18h-223v-563h160q113 0 163 50.5t70 181.5h74v-555h-74q-5 50 -28 117.5t-65.5 95.5t-139.5 28h-160v-426q0 -122 38.5 -154t202.5 -32
h87q140 0 189 22t108 121t92 193h71z" />
    <glyph glyph-name="Zeta" unicode="&#x396;" horiz-adv-x="1233" 
d="M1167 0h-1140v35l893 1304h-326q-156 0 -210 -25t-125 -117t-105 -179h-70l43 401h1063v-35l-893 -1304h338q152 0 218.5 16t103 51t96 123.5t92.5 171.5h69z" />
    <glyph glyph-name="Eta" unicode="&#x397;" horiz-adv-x="1669" 
d="M979 0v72q116 10 137.5 19t36 31t14.5 66v506h-665v-493q0 -61 37 -90.5t147 -38.5v-72h-588v72q137 6 164 37t27 79v1024q0 120 -191 136v71h588v-71q-105 -9 -144.5 -32t-39.5 -93v-441h665v430q0 120 -188 136v71h588v-71q-106 -9 -146.5 -33t-40.5 -92v-1022
q0 -63 40.5 -91.5t146.5 -37.5v-72h-588z" />
    <glyph glyph-name="Theta" unicode="&#x398;" horiz-adv-x="1524" 
d="M762 -35q-293 0 -487.5 210.5t-194.5 533.5q0 326 197.5 534.5t484.5 208.5q292 0 487 -208t195 -535q0 -328 -197.5 -536t-484.5 -208zM762 1364q-212 0 -327.5 -178.5t-115.5 -476.5q0 -302 116.5 -478t326.5 -176t326 177t116 477q0 308 -117.5 481.5t-324.5 173.5z
M981 481q-22 111 -52.5 131.5t-166.5 20.5t-165.5 -20t-51.5 -132h-68v455h68q22 -111 52 -130.5t165 -19.5q136 0 166.5 20.5t52.5 129.5h66v-455h-66z" />
    <glyph glyph-name="Iota" unicode="&#x399;" horiz-adv-x="799" 
d="M80 0v72q141 10 177 29t36 85v1028q0 67 -59.5 97t-153.5 37v71h639v-71q-135 -10 -174 -35.5t-39 -87.5v-1026q0 -52 34 -83.5t179 -43.5v-72h-639z" />
    <glyph glyph-name="Kappa" unicode="&#x39a;" horiz-adv-x="1421" 
d="M1077 0q-215 338 -551 694h-24v-493q0 -53 30.5 -85t157.5 -44v-72h-588v72q115 10 136 19t36 33t15 64v1024q0 120 -187 136v71h588v-71q-106 -9 -147 -32t-41 -93v-490h18q215 181 351.5 340t136.5 225q0 41 -148 50v71h533v-71q-58 0 -120.5 -19t-84.5 -37t-142 -156
q-180 -205 -323 -341q152 -172 346 -415q137 -173 176.5 -212t87.5 -63.5t142 -32.5v-72h-398z" />
    <glyph glyph-name="Lambda" unicode="&#x39b;" horiz-adv-x="1380" 
d="M836 0v72q180 11 180 57q0 30 -8 43l-371 956l-310 -806q-38 -107 -38 -162q0 -74 205 -88v-72h-535v72q83 6 134 40t78 86.5t193 477.5l298 764h79l478 -1225q52 -133 208 -143v-72h-591z" />
    <glyph glyph-name="Mu" unicode="&#x39c;" horiz-adv-x="1898" 
d="M1180 0v72q103 9 136 15t59 37t26 77v1032h-17l-483 -1210h-49l-463 1234h-12v-847q0 -130 20.5 -207.5t104.5 -102.5t119 -28v-72h-574v72q154 13 194 71t40 256v725q0 212 -224 224v71h484l405 -1065l348 891q34 88 47 174h463v-71q-121 -10 -156.5 -35t-35.5 -90
v-1022q0 -64 40 -91.5t154 -37.5v-72h-626z" />
    <glyph glyph-name="Nu" unicode="&#x39d;" horiz-adv-x="1571" 
d="M1554 1348q-146 -19 -188.5 -64t-42.5 -260v-1038h-86l-860 1161v-731q0 -132 16 -193t38.5 -83.5t87 -43t112.5 -24.5v-72h-584v72q119 17 176.5 54t57.5 277v701q0 207 -256 244v71h403l799 -1081v674q0 228 -56.5 272.5t-193.5 63.5v71h577v-71z" />
    <glyph glyph-name="Xi" unicode="&#x39e;" horiz-adv-x="1419" 
d="M1204 989q-40 152 -76 193.5t-67 53t-354 11.5q-319 0 -348 -12.5t-63.5 -50.5t-80.5 -195h-70l27 430h1075l27 -430h-70zM956 469q-24 132 -68 147t-177 15q-124 0 -173.5 -13.5t-74.5 -148.5h-70v479h70q26 -131 72 -145.5t176 -14.5q138 0 179.5 16t65.5 144h70v-479
h-70zM1257 0h-1093l-47 432h69q49 -147 90.5 -190.5t73 -55.5t357.5 -12q335 0 364.5 11.5t69 51t94.5 195.5h70z" />
    <glyph glyph-name="Omicron" unicode="&#x39f;" horiz-adv-x="1524" 
d="M762 -35q-293 0 -487.5 210.5t-194.5 533.5q0 326 197.5 534.5t484.5 208.5q292 0 487 -208t195 -535q0 -328 -197.5 -536t-484.5 -208zM762 1364q-209 0 -324.5 -176.5t-115.5 -478.5q0 -304 116 -479t324 -175q210 0 325 175.5t115 478.5q0 304 -116 479.5t-324 175.5z
" />
    <glyph glyph-name="Pi" unicode="&#x3a0;" horiz-adv-x="1655" 
d="M502 201q0 -61 37 -90.5t147 -38.5v-72h-588v72q137 6 164 37t27 79v1024q0 120 -191 136v71h1454v-71q-64 -5 -125 -23.5t-61 -101.5v-1022q0 -60 38 -90t148 -39v-72h-587v72q116 10 137.5 19t36 31t14.5 66v1141h-651v-1128z" />
    <glyph glyph-name="Rho" unicode="&#x3a1;" horiz-adv-x="1249" 
d="M502 623v-430q0 -71 36 -92t169 -29v-72h-609v72q124 10 157.5 32t33.5 89v1024q0 60 -30.5 89.5t-168.5 41.5v71h649q197 0 321 -96.5t124 -253.5q0 -206 -149.5 -326t-375.5 -120h-157zM502 1337v-626h100q168 0 251 86t83 223q0 317 -295 317h-139z" />
    <glyph glyph-name="Sigma" unicode="&#x3a3;" horiz-adv-x="1237" 
d="M1153 0h-1128v35l571 637l-555 712v35h1069v-377h-72q-24 106 -83 188t-111.5 95.5t-194.5 13.5h-309l444 -571v-16l-520 -576h654q128 0 212 266h70z" />
    <glyph glyph-name="Tau" unicode="&#x3a4;" horiz-adv-x="1268" 
d="M1182 1034q-22 82 -80.5 172t-101 112.5t-201.5 22.5h-60v-1134q0 -56 36 -88t194 -47v-72h-670v72q147 10 187 33t40 92v1144h-57q-145 0 -187.5 -14.5t-105 -105t-90.5 -187.5h-72v385h1237v-385h-69z" />
    <glyph glyph-name="Upsilon" unicode="&#x3a5;" horiz-adv-x="1260" 
d="M1315 1348q-57 -6 -108.5 -36.5t-119.5 -125.5t-193.5 -310.5t-145 -262t-19.5 -134.5v-270q0 -57 38.5 -90t188.5 -47v-72h-663v72q147 10 185 32t38 95v344q0 34 -169 350.5t-223.5 381t-166.5 73.5v71h604v-71q-186 -9 -186 -48q0 -28 311 -591q324 520 324 565
q0 30 -35.5 47.5t-153.5 26.5v71h494v-71z" />
    <glyph glyph-name="Phi" unicode="&#x3a6;" horiz-adv-x="1571" 
d="M889 219v-45q0 -57 31.5 -81.5t171.5 -33.5v-69h-600v69q135 10 162.5 38t27.5 77v45q-281 0 -447.5 139.5t-166.5 380.5q0 215 158 343t446 128h10v27q0 65 -52 92.5t-141 34.5v70h592v-70q-129 -9 -160.5 -35t-31.5 -82v-37h8q290 0 448 -129t158 -342
q0 -240 -168.5 -380t-445.5 -140zM889 1133v-834q186 0 281.5 118.5t95.5 297.5q0 188 -86.5 303t-247.5 115h-43zM682 1133h-43q-163 0 -249.5 -117t-86.5 -301q0 -182 96.5 -299t282.5 -117v834z" />
    <glyph glyph-name="Chi" unicode="&#x3a7;" horiz-adv-x="1454" 
d="M793 0v72q184 7 184 57q0 54 -287 481q-311 -409 -311 -471q0 -63 164 -67v-72h-531v72q111 9 166 43.5t172 192.5l285 384q-372 548 -418.5 596t-189.5 60v71h657v-71q-182 -12 -182 -54q0 -39 84 -168l41 -65q57 -92 141 -215q276 373 276 436q0 56 -163 66v71h528v-71
q-136 -7 -200 -70.5t-388 -507.5l176 -256q207 -308 237 -342.5t74 -66.5t148 -33v-72h-663z" />
    <glyph glyph-name="Psi" unicode="&#x3a8;" horiz-adv-x="1792" 
d="M1001 209q0 -59 39.5 -91t182.5 -46v-72h-654v72q141 10 180 33t39 94v250q-571 18 -571 481v282q0 118 -184 136v71h397v-508q0 -359 358 -379v680q0 68 -52.5 98.5t-131.5 37.5v71h580v-71q-52 -4 -117.5 -22.5t-65.5 -102.5v-691q359 20 359 379v508h399v-71
q-117 -12 -150.5 -36t-33.5 -89v-293q0 -462 -574 -481v-240z" />
    <glyph glyph-name="uni03A9" unicode="&#x3a9;" horiz-adv-x="1595" 
d="M31 387h67q15 -33 31 -70q59 -141 150 -141h229v33q-234 254 -296 391.5t-62 292.5q0 230 186.5 394.5t462.5 164.5q281 0 466 -165t185 -394q0 -150 -59 -286t-299 -398v-33h227q88 0 148 141q15 37 30 70h70l-70 -387h-590v68q195 271 248 412.5t53 299.5
q0 274 -104 429t-305 155q-202 0 -305 -159t-103 -425q0 -154 51.5 -297t249.5 -415v-68h-594z" />
    <glyph glyph-name="Iotadieresis" unicode="&#x3aa;" horiz-adv-x="799" 
d="M80 0v72q141 10 177 29t36 85v1028q0 67 -59.5 97t-153.5 37v71h639v-71q-135 -10 -174 -35.5t-39 -87.5v-1026q0 -52 34 -83.5t179 -43.5v-72h-639zM616 1608q-50 0 -84.5 36.5t-34.5 86.5q0 49 34.5 86t84.5 37q51 0 85 -37t34 -86t-34.5 -86t-84.5 -37zM186 1608
q-50 0 -84.5 37t-34.5 86t34 86t85 37q50 0 84.5 -37t34.5 -86q0 -50 -34.5 -86.5t-84.5 -36.5z" />
    <glyph glyph-name="Upsilondieresis" unicode="&#x3ab;" horiz-adv-x="1260" 
d="M1315 1348q-57 -6 -108.5 -36.5t-119.5 -125.5t-193.5 -310.5t-145 -262t-19.5 -134.5v-270q0 -57 38.5 -90t188.5 -47v-72h-663v72q147 10 185 32t38 95v344q0 34 -169 350.5t-223.5 381t-166.5 73.5v71h604v-71q-186 -9 -186 -48q0 -28 311 -591q324 520 324 565
q0 30 -35.5 47.5t-153.5 26.5v71h494v-71zM895 1608q-49 0 -84 35.5t-35 87.5q0 51 35 86.5t84 35.5t83 -35.5t34 -86.5q0 -52 -34 -87.5t-83 -35.5zM445 1608q-49 0 -83 35.5t-34 87.5q0 51 34 86.5t83 35.5t84 -35.5t35 -86.5q0 -52 -35 -87.5t-84 -35.5z" />
    <glyph glyph-name="alphatonos" unicode="&#x3ac;" horiz-adv-x="1225" 
d="M1229 18q-118 -38 -195 -38q-92 0 -133.5 58t-52.5 163q-143 -230 -354 -230q-174 0 -298 146.5t-124 376.5q0 219 135 369.5t328 150.5q237 0 323 -219l25 190h186q-1 -40 -44 -283l-42 -235q0 -86 18.5 -181t51.5 -146t59.5 -53.5t116.5 -2.5v-66zM281 481
q0 -180 74 -291.5t204 -111.5q145 0 206.5 139.5t61.5 304.5q0 128 -64.5 271t-207.5 143q-123 0 -198.5 -124t-75.5 -331zM783 1534l-207 -395h-68l66 420h209v-25z" />
    <glyph glyph-name="epsilontonos" unicode="&#x3ad;" horiz-adv-x="958" 
d="M940 252q-137 -281 -430 -281q-188 0 -307 79t-119 212q0 112 76 179.5t207 74.5v10q-248 44 -248 234q0 101 103.5 177.5t289.5 76.5q173 0 269 -62.5t96 -169.5q0 -123 -101 -123q-53 0 -87 27t-34 66q0 32 8 71l13 72q-69 43 -162 43q-87 0 -141 -51t-54 -125
q0 -104 48.5 -152.5t164.5 -48.5h84v-92h-108q-219 0 -219 -193q0 -95 65 -148.5t183 -53.5q219 0 333 221zM725 1534l-207 -395h-68l66 420h209v-25z" />
    <glyph glyph-name="etatonos" unicode="&#x3ae;" horiz-adv-x="1169" 
d="M815 -444v1120q0 103 -50 161t-126 58q-162 0 -252 -150v-745h-186v776q0 129 -156 135v66l328 20l14 -14v-137h4q156 168 330 168q136 0 209.5 -86t73.5 -240v-1132h-189zM799 1534l-207 -395h-68l66 420h209v-25z" />
    <glyph glyph-name="iotatonos" unicode="&#x3af;" horiz-adv-x="604" 
d="M598 16q-106 -36 -207 -36q-188 0 -188 215l2 583q0 48 -31 86t-141 47v66l344 20l12 -14v-774q0 -131 143 -131q38 0 66 4v-66zM508 1534l-207 -395h-68l66 420h209v-25z" />
    <glyph glyph-name="upsilondieresistonos" unicode="&#x3b0;" horiz-adv-x="1108" 
d="M6 879v63q134 57 205 57q95 0 139.5 -50t44.5 -181l-4 -416q-1 -127 46 -196.5t173 -69.5q133 0 219 118t86 308q0 161 -96 234q-54 41 -75 74.5t-21 86.5q0 46 31.5 71.5t79.5 25.5q188 0 188 -369q0 -292 -127 -478t-336 -186q-163 0 -261.5 90.5t-96.5 249.5l2 467
q0 109 -99 109q-24 0 -98 -8zM740 1528l-205 -385h-59l73 405h191v-20zM856 1214q-47 0 -81.5 36t-34.5 87q0 50 33.5 86.5t82.5 36.5q50 0 82.5 -36t32.5 -87q0 -52 -34 -87.5t-81 -35.5zM306 1214q-47 0 -81 35.5t-34 87.5q0 51 32.5 87t82.5 36q49 0 82.5 -36.5
t33.5 -86.5q0 -51 -34.5 -87t-81.5 -36z" />
    <glyph glyph-name="alpha" unicode="&#x3b1;" horiz-adv-x="1225" 
d="M1229 18q-118 -38 -195 -38q-92 0 -133.5 58t-52.5 163q-143 -230 -354 -230q-174 0 -298 146.5t-124 376.5q0 219 135 369.5t328 150.5q237 0 323 -219l25 190h186q-1 -40 -44 -283l-42 -235q0 -86 18.5 -181t51.5 -146t59.5 -53.5t116.5 -2.5v-66zM281 481
q0 -180 74 -291.5t204 -111.5q145 0 206.5 139.5t61.5 304.5q0 128 -64.5 271t-207.5 143q-123 0 -198.5 -124t-75.5 -331z" />
    <glyph glyph-name="beta" unicode="&#x3b2;" horiz-adv-x="1157" 
d="M367 43h-9v-487h-186v1448q0 192 45 295t149.5 177t262.5 74q177 0 284 -86t107 -241q0 -129 -83.5 -214.5t-211.5 -105.5l4 -8q155 -18 253.5 -130t98.5 -284q0 -220 -138.5 -363t-334.5 -143q-148 0 -241 68zM512 842v94h70q109 0 182.5 74t73.5 207q0 119 -58.5 188.5
t-158.5 69.5q-263 0 -263 -416v-850q70 -160 234 -160q126 0 203 113t77 315q0 196 -65.5 280.5t-200.5 84.5h-94z" />
    <glyph glyph-name="gamma" unicode="&#x3b3;" horiz-adv-x="1053" 
d="M483 14q-69 214 -185.5 483t-150.5 338.5t-159 75.5v66l297 20l14 -14q9 -23 20 -47l70 -165q189 -432 203 -589q17 51 119 260q80 164 80 230q0 49 -15 122q-16 73 -16 103q0 44 33 80.5t86 36.5q114 0 114 -117q0 -112 -167 -415q-157 -284 -210 -429q6 -53 12 -93
q19 -127 19 -185q0 -138 -28 -178.5t-80 -40.5q-105 0 -105 131q0 135 49 327z" />
    <glyph glyph-name="delta" unicode="&#x3b4;" horiz-adv-x="1104" 
d="M764 1434q-60 41 -176 41q-96 0 -162 -54t-66 -129q0 -74 53.5 -126t264.5 -167q185 -99 269.5 -209.5t84.5 -308.5q0 -216 -135.5 -364t-343.5 -148q-214 0 -348.5 144.5t-134.5 363.5q0 194 115.5 324t312.5 162v6q-179 64 -257.5 136t-78.5 175q0 112 110 191t312 79
q171 0 275 -61t104 -162q0 -125 -103 -125q-60 0 -90.5 27.5t-30.5 64.5q0 41 10 75q9 34 15 65zM571 903q-134 0 -213 -117.5t-79 -312.5q0 -188 74 -308t198 -120q127 0 200.5 118.5t73.5 309.5q0 139 -38 235t-113 145.5t-103 49.5z" />
    <glyph glyph-name="epsilon" unicode="&#x3b5;" horiz-adv-x="958" 
d="M940 252q-137 -281 -430 -281q-188 0 -307 79t-119 212q0 112 76 179.5t207 74.5v10q-248 44 -248 234q0 101 103.5 177.5t289.5 76.5q173 0 269 -62.5t96 -169.5q0 -123 -101 -123q-53 0 -87 27t-34 66q0 32 8 71l13 72q-69 43 -162 43q-87 0 -141 -51t-54 -125
q0 -104 48.5 -152.5t164.5 -48.5h84v-92h-108q-219 0 -219 -193q0 -95 65 -148.5t183 -53.5q219 0 333 221z" />
    <glyph glyph-name="zeta" unicode="&#x3b6;" horiz-adv-x="827" 
d="M895 1354q-614 -440 -614 -885q0 -289 266 -299q201 0 264 -71t63 -183q0 -125 -105 -225.5t-251 -100.5q-192 0 -192 101q0 88 96 88q50 0 128 -67q19 -17 44 -29q67 5 116.5 53t49.5 127q0 60 -28.5 91t-68 40.5t-151.5 14.5q-226 9 -326 126t-100 281q0 207 136 414.5
t483 496.5v10l-367 -4q-195 -2 -195 111q0 96 95 96q67 0 137 -57q70 -58 127 -58q95 0 393 21v-92z" />
    <glyph glyph-name="eta" unicode="&#x3b7;" horiz-adv-x="1169" 
d="M815 -444v1120q0 103 -50 161t-126 58q-162 0 -252 -150v-745h-186v776q0 129 -156 135v66l328 20l14 -14v-137h4q156 168 330 168q136 0 209.5 -86t73.5 -240v-1132h-189z" />
    <glyph glyph-name="theta" unicode="&#x3b8;" horiz-adv-x="1139" 
d="M569 -31q-225 0 -353 219.5t-128 571.5q0 363 129 576.5t352 213.5t352.5 -214.5t129.5 -573.5q0 -362 -131 -577.5t-351 -215.5zM846 831q-4 644 -277 644q-270 0 -274 -644h551zM846 743h-551v-34q0 -664 274 -664q277 0 277 664v34z" />
    <glyph glyph-name="iota" unicode="&#x3b9;" horiz-adv-x="604" 
d="M598 16q-106 -36 -207 -36q-188 0 -188 215l2 583q0 48 -31 86t-141 47v66l344 20l12 -14v-774q0 -131 143 -131q38 0 66 4v-66z" />
    <glyph glyph-name="kappa" unicode="&#x3ba;" horiz-adv-x="1098" 
d="M1118 31q-126 -49 -219 -49q-100 0 -149 48t-173 286l-92 173l-98 -108v-381h-186v776q0 129 -156 135v66l328 20l14 -14v-504q318 397 389 459.5t137 62.5q121 0 121 -124q0 -46 -32.5 -77.5t-79.5 -31.5q-45 0 -146 43q-38 -25 -114 -117q-23 -27 -54 -61
q222 -414 287.5 -480.5t130.5 -66.5q35 0 92 8v-63z" />
    <glyph glyph-name="lambda" unicode="&#x3bb;" horiz-adv-x="999" 
d="M336 1321q-45 3 -111.5 2.5t-96.5 34.5t-30 76q0 47 38.5 81.5t96.5 34.5q161 0 236 -221l290 -815q130 -363 168.5 -397.5t98.5 -34.5h45v-64q-117 -38 -174 -38q-81 0 -118.5 67t-118.5 388q-37 146 -93 333l-166 -343q-167 -347 -186 -425h-227l487 987
q-58 202 -139 334z" />
    <glyph glyph-name="uni03BC" unicode="&#x3bc;" horiz-adv-x="1186" 
d="M1163 18q-106 -36 -174 -36q-169 0 -192 153h-6q-91 -102 -159.5 -128.5t-156.5 -26.5q-121 0 -186 79h-6v-57q0 -72 26 -190q25 -118 25 -150q0 -48 -34.5 -77t-78.5 -29q-40 0 -69 26.5t-29 73.5q0 48 30 219q21 120 21 260v850h191v-676q0 -98 52 -157.5t128 -59.5
q161 0 250 139v754h190v-782q0 -59 24.5 -85t49 -30t104.5 -4v-66z" />
    <glyph glyph-name="nu" unicode="&#x3bd;" horiz-adv-x="1026" 
d="M305 983q16 -85 86 -268l184 -484q128 258 155.5 330.5t27.5 112.5q0 60 -9 127q-10 66 -10 96q0 43 35.5 80t87.5 37q111 0 111 -113q0 -70 -75 -206q-21 -38 -42 -83q-61 -122 -205 -391q-44 -85 -96 -229h-86l-116 304q-184 492 -217 549.5t-150 65.5v66l307 20z" />
    <glyph glyph-name="xi" unicode="&#x3be;" horiz-adv-x="903" 
d="M860 1341h-129q-175 0 -279 -75t-104 -215q0 -115 82.5 -178.5t231.5 -63.5h145v-107h-197q-334 0 -334 -282q0 -123 71.5 -188.5t193.5 -65.5h133q122 0 187 -66.5t65 -183.5q0 -125 -107 -225.5t-252 -100.5q-192 0 -192 101q0 88 96 88q54 0 130 -67q18 -17 42 -29
q70 5 118 53t48 127q0 143 -180 143h-156q-169 0 -280 103.5t-111 261.5q0 149 106 257.5t275 133.5v6q-311 52 -311 279q0 216 292 296v17q-146 -6 -215 -6q-182 0 -182 100q0 96 90 96q64 0 139 -56t130 -56q126 0 454 16v-113z" />
    <glyph glyph-name="omicron" unicode="&#x3bf;" horiz-adv-x="1104" 
d="M543 -31q-198 0 -335.5 146t-137.5 374q0 232 134.5 378.5t352.5 146.5q212 0 343.5 -142.5t131.5 -367.5q0 -234 -134 -384.5t-355 -150.5zM555 938q-135 0 -207 -117.5t-72 -314.5q0 -209 72.5 -335t206.5 -126q128 0 199 125t71 332q0 202 -69.5 319t-200.5 117z" />
    <glyph glyph-name="pi" unicode="&#x3c0;" horiz-adv-x="1231" 
d="M299 174q107 239 107 553q0 55 -5 135h-61q-163 0 -178 -200h-64q-8 70 -8 116q0 78 63 142.5t164 64.5h859v-123h-226v-653q0 -131 146 -131q39 0 67 4v-66q-107 -36 -211 -36q-190 0 -190 215v667h-262l2 -71q9 -332 -80 -573t-236 -241q-53 0 -83.5 34t-30.5 85
q0 42 29 74.5t75 32.5q35 0 123 -29z" />
    <glyph glyph-name="rho" unicode="&#x3c1;" horiz-adv-x="1143" 
d="M358 41h-8v-485h-186v991q0 216 121.5 341.5t337.5 125.5q199 0 321.5 -137t122.5 -371q0 -225 -138 -379t-325 -154q-147 0 -246 68zM604 936q-88 0 -145.5 -46.5t-84 -129.5t-26.5 -363q0 -137 3.5 -184t73.5 -106.5t165 -59.5q120 0 195 125.5t75 335.5
q0 428 -256 428z" />
    <glyph glyph-name="sigma1" unicode="&#x3c2;" horiz-adv-x="913" 
d="M586 -317q69 6 123.5 58.5t54.5 131.5q0 118 -181 141q-161 20 -267 68.5t-177 157.5t-71 252q0 240 140 381t322 141q158 0 254.5 -64.5t96.5 -167.5q0 -123 -101 -123q-53 0 -87 26.5t-34 66.5q0 32 8 71l13 72q-67 43 -150 43q-111 0 -192.5 -103t-81.5 -294
q0 -145 71.5 -235.5t266.5 -118.5q110 -16 162 -38.5t89.5 -78t37.5 -142.5q0 -137 -107.5 -236.5t-263.5 -99.5q-205 0 -205 105q0 86 96 86q51 0 137 -70q21 -17 46 -30z" />
    <glyph glyph-name="sigma" unicode="&#x3c3;" horiz-adv-x="1174" 
d="M1153 862h-276v-4q155 -161 155 -371q0 -219 -133.5 -368.5t-351.5 -149.5q-203 0 -340 136.5t-137 355.5q0 240 140.5 382t387.5 142h555v-123zM741 862h-143q-322 0 -322 -401q0 -186 74.5 -301t204.5 -115q127 0 198.5 124t71.5 329q0 219 -84 364z" />
    <glyph glyph-name="tau" unicode="&#x3c4;" horiz-adv-x="924" 
d="M903 862h-340v-528q0 -145 26 -190.5t122 -45.5q73 0 131 19v-74q-141 -63 -254 -63q-211 0 -211 237v645h-90q-164 0 -178 -200h-64q-6 80 -6 116q0 83 62 145t163 62h639v-123z" />
    <glyph glyph-name="upsilon" unicode="&#x3c5;" horiz-adv-x="1108" 
d="M6 879v63q134 57 205 57q95 0 139.5 -50t44.5 -181l-4 -416q-1 -127 46 -196.5t173 -69.5q133 0 219 118t86 308q0 161 -96 234q-54 41 -75 74.5t-21 86.5q0 46 31.5 71.5t79.5 25.5q188 0 188 -369q0 -292 -127 -478t-336 -186q-163 0 -261.5 90.5t-96.5 249.5l2 467
q0 109 -99 109q-24 0 -98 -8z" />
    <glyph glyph-name="phi" unicode="&#x3c6;" horiz-adv-x="1425" 
d="M805 -29v-415h-187v415q-259 13 -403.5 156t-144.5 362q0 413 424 519l14 -82q-229 -82 -229 -437q0 -196 91 -316.5t248 -125.5v725q0 115 83.5 178.5t211.5 63.5q175 0 309 -133t134 -357q0 -233 -155 -386.5t-396 -166.5zM805 47q164 12 253 140t89 345
q0 191 -65 297.5t-162 106.5q-46 0 -80.5 -31t-34.5 -86v-772z" />
    <glyph glyph-name="chi" unicode="&#x3c7;" horiz-adv-x="1036" 
d="M612 256q153 -317 219 -428t105.5 -140.5t110.5 -29.5h51v-64q-115 -38 -183 -38t-119 50t-243 546q-284 -527 -307 -596h-226l439 759q-207 429 -274 502.5t-189 73.5v63q119 45 184 45q77 0 115.5 -55.5t137.5 -312.5q47 -124 83 -211l176 333q70 130 115 232h225z" />
    <glyph glyph-name="psi" unicode="&#x3c8;" horiz-adv-x="1495" 
d="M887 -29v-415h-187v415q-241 11 -372 116t-129 290l4 401q1 109 -101 109q-28 0 -96 -8v63q130 57 203 57q98 0 142 -52.5t42 -178.5l-2 -401q-1 -145 87 -224t222 -88v930h187v-930q186 16 295.5 153.5t109.5 323.5q0 151 -86 220q-51 40 -68.5 68t-17.5 73
q0 111 115 111q174 0 174 -326q0 -302 -135.5 -489.5t-386.5 -217.5z" />
    <glyph glyph-name="omega" unicode="&#x3c9;" horiz-adv-x="1464" 
d="M934 997q211 -20 334 -159t123 -363q0 -222 -109 -364t-278 -142q-165 0 -273 168q-105 -168 -270 -168q-171 0 -279 142.5t-108 363.5q0 224 122 363t334 159l17 -79q-268 -32 -268 -476q0 -180 50.5 -285.5t143.5 -105.5q166 0 166 236v368h186v-368q0 -236 164 -236
q96 0 146.5 108t50.5 283q0 442 -268 476z" />
    <glyph glyph-name="iotadieresis" unicode="&#x3ca;" horiz-adv-x="604" 
d="M598 16q-106 -36 -207 -36q-188 0 -188 215l2 583q0 48 -31 86t-141 47v66l344 20l12 -14v-774q0 -131 143 -131q38 0 66 4v-66zM487 1241q-50 0 -84.5 36.5t-34.5 86.5q0 49 34.5 86t84.5 37q51 0 85 -37t34 -86t-34.5 -86t-84.5 -37zM57 1241q-50 0 -84.5 37t-34.5 86
t34 86t85 37q50 0 84.5 -37t34.5 -86q0 -50 -34.5 -86.5t-84.5 -36.5z" />
    <glyph glyph-name="upsilondieresis" unicode="&#x3cb;" horiz-adv-x="1108" 
d="M6 879v63q134 57 205 57q95 0 139.5 -50t44.5 -181l-4 -416q-1 -127 46 -196.5t173 -69.5q133 0 219 118t86 308q0 161 -96 234q-54 41 -75 74.5t-21 86.5q0 46 31.5 71.5t79.5 25.5q188 0 188 -369q0 -292 -127 -478t-336 -186q-163 0 -261.5 90.5t-96.5 249.5l2 467
q0 109 -99 109q-24 0 -98 -8zM774 1241q-50 0 -84.5 36.5t-34.5 86.5q0 49 34.5 86t84.5 37q51 0 85 -37t34 -86t-34.5 -86t-84.5 -37zM344 1241q-50 0 -84.5 37t-34.5 86t34 86t85 37q50 0 84.5 -37t34.5 -86q0 -50 -34.5 -86.5t-84.5 -36.5z" />
    <glyph glyph-name="omicrontonos" unicode="&#x3cc;" horiz-adv-x="1104" 
d="M543 -31q-198 0 -335.5 146t-137.5 374q0 232 134.5 378.5t352.5 146.5q212 0 343.5 -142.5t131.5 -367.5q0 -234 -134 -384.5t-355 -150.5zM555 938q-135 0 -207 -117.5t-72 -314.5q0 -209 72.5 -335t206.5 -126q128 0 199 125t71 332q0 202 -69.5 319t-200.5 117z
M772 1534l-207 -395h-68l66 420h209v-25z" />
    <glyph glyph-name="upsilontonos" unicode="&#x3cd;" horiz-adv-x="1108" 
d="M6 879v63q134 57 205 57q95 0 139.5 -50t44.5 -181l-4 -416q-1 -127 46 -196.5t173 -69.5q133 0 219 118t86 308q0 161 -96 234q-54 41 -75 74.5t-21 86.5q0 46 31.5 71.5t79.5 25.5q188 0 188 -369q0 -292 -127 -478t-336 -186q-163 0 -261.5 90.5t-96.5 249.5l2 467
q0 109 -99 109q-24 0 -98 -8zM779 1534l-207 -395h-68l66 420h209v-25z" />
    <glyph glyph-name="omegatonos" unicode="&#x3ce;" horiz-adv-x="1464" 
d="M934 997q211 -20 334 -159t123 -363q0 -222 -109 -364t-278 -142q-165 0 -273 168q-105 -168 -270 -168q-171 0 -279 142.5t-108 363.5q0 224 122 363t334 159l17 -79q-268 -32 -268 -476q0 -180 50.5 -285.5t143.5 -105.5q166 0 166 236v368h186v-368q0 -236 164 -236
q96 0 146.5 108t50.5 283q0 442 -268 476zM947 1534l-207 -395h-68l66 420h209v-25z" />
    <glyph glyph-name="uni0401" unicode="&#x401;" horiz-adv-x="1337" 
d="M1264 0h-1178v72q134 11 168.5 34.5t34.5 86.5v1019q0 70 -53.5 99t-149.5 37v71h1098v-342h-74q-21 78 -79.5 152t-100.5 92t-205 18h-223v-563h160q113 0 163 50.5t70 181.5h74v-555h-74q-5 50 -28 117.5t-65.5 95.5t-139.5 28h-160v-426q0 -122 38.5 -154t202.5 -32
h87q140 0 189 22t108 121t92 193h71zM913 1608q-49 0 -84 35.5t-35 87.5q0 51 35 86.5t84 35.5t83 -35.5t34 -86.5q0 -52 -34 -87.5t-83 -35.5zM463 1608q-49 0 -83 35.5t-34 87.5q0 51 34 86.5t83 35.5t84 -35.5t35 -86.5q0 -52 -35 -87.5t-84 -35.5z" />
    <glyph glyph-name="uni0402" unicode="&#x402;" horiz-adv-x="1608" 
d="M727 688v-688h-426v72q134 10 173.5 33.5t39.5 91.5v1144h-45q-145 0 -187.5 -14.5t-105 -105t-90.5 -187.5h-72v385h1225v-375h-70q-20 84 -82 170.5t-102.5 106.5t-198.5 20h-59v-573q211 119 379 119q205 0 321.5 -119t116.5 -315q0 -185 -123 -332.5t-317 -147.5
q-117 0 -180.5 39t-63.5 105q0 46 26.5 77t71.5 31q97 0 151 -124l26 -58q184 41 184 363q0 166 -78.5 259t-226.5 93q-125 0 -287 -70z" />
    <glyph glyph-name="uni0403" unicode="&#x403;" horiz-adv-x="1194" 
d="M1104 1022q-25 93 -77.5 182t-100.5 112t-221 23h-203v-1136q0 -59 43 -90t178 -41v-72h-637v72q114 9 138.5 13.5t44.5 30.5t20 72v1024q0 70 -53.5 99t-149.5 37v71h1094v-397h-76zM516 1507l-31 39q166 158 262 258q60 64 115 64q39 0 65.5 -22.5t26.5 -57.5
q0 -48 -35 -76.5t-193 -102.5q-94 -44 -210 -102z" />
    <glyph glyph-name="uni0404" unicode="&#x404;" horiz-adv-x="1346" 
d="M309 631q21 -269 149 -424.5t320 -155.5q175 0 297 96q-8 118 -8 152q0 59 33.5 95t91.5 36q111 0 111 -135q0 -130 -154.5 -229t-390.5 -99q-306 0 -493 198t-187 531q0 330 194.5 542t483.5 212q195 0 352 -98l39 67h80l10 -506h-84q-98 453 -385 453
q-208 0 -333.5 -171t-127.5 -486q173 125 275 125q68 0 168 -41q99 -41 161 -41t136 59l43 -53q-149 -148 -283 -148q-68 0 -166 41t-154 41q-86 0 -178 -61z" />
    <glyph glyph-name="uni0405" unicode="&#x405;" horiz-adv-x="1149" 
d="M231 72l-43 -72h-79l-15 485h80q122 -428 430 -428q268 0 268 250q0 75 -36 137t-85.5 95t-148.5 70q-197 72 -281 119.5t-136 132.5t-52 204q0 161 126.5 273t303.5 112q156 0 318 -98l41 67h79l9 -471h-82q-65 241 -154 328.5t-223 87.5q-97 0 -163 -61.5t-66 -149.5
q0 -104 56.5 -172t253.5 -139q253 -92 345 -186.5t92 -252.5q0 -189 -138.5 -310.5t-344.5 -121.5q-185 0 -355 101z" />
    <glyph glyph-name="uni0406" unicode="&#x406;" horiz-adv-x="799" 
d="M80 0v72q141 10 177 29t36 85v1028q0 67 -59.5 97t-153.5 37v71h639v-71q-135 -10 -174 -35.5t-39 -87.5v-1026q0 -52 34 -83.5t179 -43.5v-72h-639z" />
    <glyph glyph-name="uni0407" unicode="&#x407;" horiz-adv-x="799" 
d="M80 0v72q141 10 177 29t36 85v1028q0 67 -59.5 97t-153.5 37v71h639v-71q-135 -10 -174 -35.5t-39 -87.5v-1026q0 -52 34 -83.5t179 -43.5v-72h-639zM616 1608q-50 0 -84.5 36.5t-34.5 86.5q0 49 34.5 86t84.5 37q51 0 85 -37t34 -86t-34.5 -86t-84.5 -37zM186 1608
q-50 0 -84.5 37t-34.5 86t34 86t85 37q50 0 84.5 -37t34.5 -86q0 -50 -34.5 -86.5t-84.5 -36.5z" />
    <glyph glyph-name="uni0408" unicode="&#x408;" horiz-adv-x="1061" 
d="M1006 1348q-126 -11 -161.5 -35.5t-35.5 -89.5v-840q0 -159 -119 -288.5t-313 -129.5q-166 0 -266.5 92t-100.5 246q0 77 38 125.5t99 48.5q63 0 98.5 -34.5t35.5 -88.5q0 -56 -76 -174q-18 -27 -27 -55v-2q63 -82 184 -82t176.5 93.5t55.5 328.5v749q0 121 -213 136v71
h625v-71z" />
    <glyph glyph-name="uni0409" unicode="&#x409;" horiz-adv-x="2073" 
d="M666 1335q0 -648 -154 -1001.5t-358 -353.5q-79 0 -128 41t-49 102q0 47 31.5 87t83.5 40q89 0 144 -91q12 -21 22 -34q105 89 195 370.5t90 606.5q0 109 -23.5 165.5t-200.5 80.5v71h1139v-71q-125 -10 -160.5 -37.5t-35.5 -91.5v-404q99 4 192 4q268 0 413.5 -102
t145.5 -299q0 -196 -141 -307t-344 -111h-670v72q137 6 164 37t27 79v1147h-383zM1262 727v-518q0 -71 45 -100t147 -29q311 0 311 354q0 131 -87.5 214t-245.5 83q-116 0 -170 -4z" />
    <glyph glyph-name="uni040A" unicode="&#x40a;" horiz-adv-x="2181" 
d="M502 711v-510q0 -61 37 -90.5t147 -38.5v-72h-588v72q137 6 164 37t27 79v1024q0 120 -191 136v71h588v-71q-105 -9 -144.5 -32t-39.5 -93v-424h655v409q0 72 -53.5 102.5t-134.5 37.5v71h600v-71q-127 -11 -163 -38.5t-36 -90.5v-404q103 4 195 4q268 0 413.5 -102
t145.5 -299q0 -196 -141.5 -307t-346.5 -111h-671v72q121 10 156.5 34t35.5 87v518h-655zM1370 727v-518q0 -72 46 -100.5t149 -28.5q311 0 311 354q0 133 -89.5 215t-244.5 82q-114 0 -172 -4z" />
    <glyph glyph-name="uni040B" unicode="&#x40b;" horiz-adv-x="1720" 
d="M727 760q222 127 379 127q195 0 294 -78.5t99 -292.5v-309q0 -119 191 -135v-72h-590v72q119 10 151.5 35.5t32.5 89.5v272q0 107 -17.5 162t-73.5 90t-163 35q-157 0 -303 -76v-479q0 -64 39.5 -91.5t157.5 -37.5v-72h-627v72q137 10 177 33.5t40 91.5v1144h-45
q-145 0 -187.5 -14.5t-105 -105t-90.5 -187.5h-72v385h1225v-375h-70q-20 84 -82 170.5t-102.5 106.5t-198.5 20h-59v-581z" />
    <glyph glyph-name="uni040C" unicode="&#x40c;" horiz-adv-x="1423" 
d="M502 201q0 -53 30.5 -85t157.5 -44v-72h-588v72q115 10 136 19t36 33t15 64v1024q0 120 -187 136v71h588v-71q-106 -9 -147 -32t-41 -93v-486h92q75 0 138.5 65t124.5 259q62 199 146 285t207 86q80 0 124 -36t44 -93q0 -48 -26.5 -81.5t-75.5 -33.5q-47 0 -82 23.5
t-80 113.5q-68 -40 -133 -255q-68 -224 -188 -331v-14q112 -31 181.5 -95.5t105.5 -134.5t139 -294q36 -80 72 -99.5t155 -29.5v-72h-391q-44 125 -126.5 321t-152.5 264t-203 68h-71v-452zM629 1507l-31 39q166 158 262 258q60 64 115 64q39 0 65.5 -22.5t26.5 -57.5
q0 -48 -35 -76.5t-193 -102.5q-94 -44 -210 -102z" />
    <glyph glyph-name="uni040E" unicode="&#x40e;" horiz-adv-x="1346" 
d="M-35 1348v71h598v-71q-176 -13 -176 -50q0 -17 21 -55q18 -34 52 -101q119 -234 310 -593q291 629 291 719q0 61 -197 80v71h531v-71q-157 -17 -209.5 -119t-285.5 -615q-125 -275 -195.5 -392t-160.5 -179.5t-198 -62.5q-80 0 -135 44t-55 103q0 50 29.5 87.5t78.5 37.5
q83 0 139 -104q14 -27 29 -50q114 25 223 228l-479 907q-61 100 -211 115zM913 1661q-37 81 -37 119q0 46 31 72t76 26t72.5 -32t27.5 -83q0 -94 -100 -163.5t-285 -69.5q-184 0 -282.5 69t-98.5 164q0 51 27.5 83t70.5 32q107 0 107 -98q0 -34 -13 -64t-22 -55
q63 -64 211 -64q150 0 215 64z" />
    <glyph glyph-name="uni040F" unicode="&#x40f;" horiz-adv-x="1659" 
d="M788 -344q-48 335 -155 344h-535v72q137 6 164 37t27 79v1024q0 120 -191 136v71h584v-71q-99 -8 -139.5 -30t-40.5 -95v-1026q0 -42 21.5 -67.5t55.5 -36.5t261 -11q219 0 268 7.5t49 84.5v1038q0 71 -50.5 100t-131.5 36v71h581v-71q-64 -5 -125 -23.5t-61 -101.5
v-1022q0 -63 42 -91.5t149 -37.5v-72h-537q-110 0 -158 -344h-78z" />
    <glyph glyph-name="uni0410" unicode="&#x410;" horiz-adv-x="1374" 
d="M829 0v72q183 11 183 57q0 22 -8 43l-119 320h-498q-98 -254 -98 -332q0 -74 205 -88v-72h-535v72q82 6 132 38.5t76 80.5t186 459l306 790h80l473 -1225q51 -133 209 -143v-72h-592zM635 1130l-211 -550h426z" />
    <glyph glyph-name="uni0411" unicode="&#x411;" horiz-adv-x="1333" 
d="M94 0v72q120 9 157.5 34t37.5 87v1019q0 121 -187 136v71h1065v-348h-73q-21 80 -80 156t-100 94t-205 18h-207v-524q99 4 192 4q268 0 413.5 -102t145.5 -299q0 -196 -141 -307t-344 -111h-674zM502 727v-518q0 -71 45 -100t147 -29q312 0 312 354q0 132 -88.5 214.5
t-245.5 82.5q-114 0 -170 -4z" />
    <glyph glyph-name="uni0412" unicode="&#x412;" horiz-adv-x="1339" 
d="M94 0v72q120 9 157.5 34t37.5 87v1019q0 121 -187 136v71h656q178 0 294.5 -80.5t116.5 -228.5q0 -265 -335 -344v-8q413 -62 413 -373q0 -174 -139.5 -279.5t-339.5 -105.5h-674zM502 1335v-544h127q301 0 301 299q0 249 -266 249q-90 0 -162 -4zM502 707v-500
q0 -127 192 -127q307 0 307 342q0 132 -87 210.5t-238 78.5q-117 0 -174 -4z" />
    <glyph glyph-name="uni0413" unicode="&#x413;" horiz-adv-x="1194" 
d="M1104 1022q-25 93 -77.5 182t-100.5 112t-221 23h-203v-1136q0 -59 43 -90t178 -41v-72h-637v72q114 9 138.5 13.5t44.5 30.5t20 72v1024q0 70 -53.5 99t-149.5 37v71h1094v-397h-76z" />
    <glyph glyph-name="uni0414" unicode="&#x414;" horiz-adv-x="1479" 
d="M299 2q-50 0 -117 -92.5t-108 -241.5h-74v418h137q136 214 228 522t92 535q0 125 -42.5 157.5t-181.5 47.5v71h1143v-71q-104 -9 -144 -32t-40 -93v-1039q0 -98 117 -98h84v-418h-74q-93 315 -217 334h-803zM979 1335h-399q0 -322 -83.5 -663t-232.5 -586h621q94 0 94 90
v1159z" />
    <glyph glyph-name="uni0415" unicode="&#x415;" horiz-adv-x="1337" 
d="M1264 0h-1178v72q134 11 168.5 34.5t34.5 86.5v1019q0 70 -53.5 99t-149.5 37v71h1098v-342h-74q-21 78 -79.5 152t-100.5 92t-205 18h-223v-563h160q113 0 163 50.5t70 181.5h74v-555h-74q-5 50 -28 117.5t-65.5 95.5t-139.5 28h-160v-426q0 -122 38.5 -154t202.5 -32
h87q140 0 189 22t108 121t92 193h71z" />
    <glyph glyph-name="uni0416" unicode="&#x416;" horiz-adv-x="2015" 
d="M1649 0q-45 130 -124.5 318.5t-147.5 261.5t-201 73h-62v-452q0 -53 30 -84.5t161 -44.5v-72h-588v72q114 10 135 19t35 31.5t14 65.5v465h-59q-113 0 -183.5 -54t-154.5 -248t-139 -351h-390v72q119 10 156.5 29.5t73.5 99.5l113 245q55 121 128.5 186t176.5 93v14
q-120 105 -182 330q-61 216 -134 256q-61 -137 -160 -137q-50 0 -77 34.5t-27 80.5q0 55 44.5 92t125.5 37q119 0 201.5 -79.5t147.5 -291.5q57 -186 116.5 -255t142.5 -69h80v475q0 70 -52 99.5t-132 36.5v71h588v-71q-121 -10 -156 -35.5t-35 -89.5v-486h80q79 0 140 66
t119 258q66 215 149.5 293t199.5 78q81 0 125.5 -37t44.5 -92q0 -48 -27 -81.5t-77 -33.5q-98 0 -160 137q-74 -41 -132 -254q-61 -222 -183 -332v-14q91 -27 152.5 -75t103.5 -113t139 -281q56 -129 93 -152t159 -32v-72h-391z" />
    <glyph glyph-name="uni0417" unicode="&#x417;" horiz-adv-x="1247" 
d="M254 174q98 -123 293 -123q164 0 265 92t101 265q0 286 -307 286h-143v109h106q291 0 291 311q0 252 -244 252q-152 0 -247.5 -103.5t-149.5 -349.5h-82l8 506h80l41 -67q161 98 371 98q230 0 347.5 -97t117.5 -233q0 -122 -87.5 -214t-254.5 -134v-12q183 -11 291 -103
t108 -243q0 -199 -172.5 -323t-439.5 -124q-229 0 -366.5 99.5t-137.5 240.5q0 61 31.5 101.5t85.5 40.5q127 0 127 -109q0 -39 -24 -130q-6 -21 -9 -36z" />
    <glyph glyph-name="uni0418" unicode="&#x418;" horiz-adv-x="1675" 
d="M987 1419h588v-71q-101 -8 -143.5 -31.5t-42.5 -93.5v-1022q0 -60 38.5 -90.5t147.5 -38.5v-72h-588v72q140 6 166.5 37t26.5 79v885l-686 -856v-22q0 -57 39.5 -85.5t150.5 -37.5v-72h-586v72q137 6 164 37t27 79v1024q0 120 -191 136v71h586v-71q-104 -9 -145 -32
t-41 -93v-863l686 854q0 118 -197 134v71z" />
    <glyph glyph-name="uni0419" unicode="&#x419;" horiz-adv-x="1675" 
d="M987 1419h588v-71q-101 -8 -143.5 -31.5t-42.5 -93.5v-1022q0 -60 38.5 -90.5t147.5 -38.5v-72h-588v72q140 6 166.5 37t26.5 79v885l-686 -856v-22q0 -57 39.5 -85.5t150.5 -37.5v-72h-586v72q137 6 164 37t27 79v1024q0 120 -191 136v71h586v-71q-104 -9 -145 -32
t-41 -93v-863l686 854q0 118 -197 134v71zM1050 1661q-37 81 -37 119q0 46 31 72t76 26t72.5 -32t27.5 -83q0 -94 -100 -163.5t-285 -69.5q-184 0 -282.5 69t-98.5 164q0 51 27.5 83t70.5 32q107 0 107 -98q0 -34 -13 -64t-22 -55q63 -64 211 -64q150 0 215 64z" />
    <glyph glyph-name="uni041A" unicode="&#x41a;" horiz-adv-x="1423" 
d="M502 201q0 -53 30.5 -85t157.5 -44v-72h-588v72q115 10 136 19t36 33t15 64v1024q0 120 -187 136v71h588v-71q-106 -9 -147 -32t-41 -93v-486h92q75 0 138.5 65t124.5 259q62 199 146 285t207 86q80 0 124 -36t44 -93q0 -48 -26.5 -81.5t-75.5 -33.5q-47 0 -82 23.5
t-80 113.5q-68 -40 -133 -255q-68 -224 -188 -331v-14q112 -31 181.5 -95.5t105.5 -134.5t139 -294q36 -80 72 -99.5t155 -29.5v-72h-391q-44 125 -126.5 321t-152.5 264t-203 68h-71v-452z" />
    <glyph glyph-name="uni041B" unicode="&#x41b;" horiz-adv-x="1548" 
d="M319 1348v71h1129v-71q-101 -8 -143.5 -31.5t-42.5 -93.5v-1022q0 -60 38.5 -90.5t147.5 -38.5v-72h-590v72q137 6 164 37t27 79v1147h-383q0 -648 -154 -1001.5t-358 -353.5q-79 0 -128 41t-49 102q0 47 31.5 87t83.5 40q89 0 144 -91q12 -21 22 -34q105 89 195 370.5
t90 606.5q0 109 -23.5 165.5t-200.5 80.5z" />
    <glyph glyph-name="uni041C" unicode="&#x41c;" horiz-adv-x="1898" 
d="M1180 0v72q103 9 136 15t59 37t26 77v1032h-17l-483 -1210h-49l-463 1234h-12v-847q0 -130 20.5 -207.5t104.5 -102.5t119 -28v-72h-574v72q154 13 194 71t40 256v725q0 212 -224 224v71h484l405 -1065l348 891q34 88 47 174h463v-71q-121 -10 -156.5 -35t-35.5 -90
v-1022q0 -64 40 -91.5t154 -37.5v-72h-626z" />
    <glyph glyph-name="uni041D" unicode="&#x41d;" horiz-adv-x="1669" 
d="M979 0v72q116 10 137.5 19t36 31t14.5 66v506h-665v-493q0 -61 37 -90.5t147 -38.5v-72h-588v72q137 6 164 37t27 79v1024q0 120 -191 136v71h588v-71q-105 -9 -144.5 -32t-39.5 -93v-441h665v430q0 120 -188 136v71h588v-71q-106 -9 -146.5 -33t-40.5 -92v-1022
q0 -63 40.5 -91.5t146.5 -37.5v-72h-588z" />
    <glyph glyph-name="uni041E" unicode="&#x41e;" horiz-adv-x="1524" 
d="M762 -35q-293 0 -487.5 210.5t-194.5 533.5q0 326 197.5 534.5t484.5 208.5q292 0 487 -208t195 -535q0 -328 -197.5 -536t-484.5 -208zM762 1364q-209 0 -324.5 -176.5t-115.5 -478.5q0 -304 116 -479t324 -175q210 0 325 175.5t115 478.5q0 304 -116 479.5t-324 175.5z
" />
    <glyph glyph-name="uni041F" unicode="&#x41f;" horiz-adv-x="1655" 
d="M502 201q0 -61 37 -90.5t147 -38.5v-72h-588v72q137 6 164 37t27 79v1024q0 120 -191 136v71h1454v-71q-64 -5 -125 -23.5t-61 -101.5v-1022q0 -60 38 -90t148 -39v-72h-587v72q116 10 137.5 19t36 31t14.5 66v1141h-651v-1128z" />
    <glyph glyph-name="uni0420" unicode="&#x420;" horiz-adv-x="1249" 
d="M502 623v-430q0 -71 36 -92t169 -29v-72h-609v72q124 10 157.5 32t33.5 89v1024q0 60 -30.5 89.5t-168.5 41.5v71h649q197 0 321 -96.5t124 -253.5q0 -206 -149.5 -326t-375.5 -120h-157zM502 1337v-626h100q168 0 251 86t83 223q0 317 -295 317h-139z" />
    <glyph glyph-name="uni0421" unicode="&#x421;" horiz-adv-x="1315" 
d="M1288 358q-156 -391 -565 -391q-271 0 -458 203.5t-187 525.5q0 330 192.5 542t483.5 212q195 0 352 -98l41 67h80l10 -506h-84q-97 453 -387 453q-204 0 -326.5 -174t-122.5 -481q0 -272 135 -451.5t345 -179.5q295 0 417 315z" />
    <glyph glyph-name="uni0422" unicode="&#x422;" horiz-adv-x="1268" 
d="M1182 1034q-22 82 -80.5 172t-101 112.5t-201.5 22.5h-60v-1134q0 -56 36 -88t194 -47v-72h-670v72q147 10 187 33t40 92v1144h-57q-145 0 -187.5 -14.5t-105 -105t-90.5 -187.5h-72v385h1237v-385h-69z" />
    <glyph glyph-name="uni0423" unicode="&#x423;" horiz-adv-x="1346" 
d="M-35 1348v71h598v-71q-176 -13 -176 -50q0 -17 21 -55q18 -34 52 -101q119 -234 310 -593q291 629 291 719q0 61 -197 80v71h531v-71q-157 -17 -209.5 -119t-285.5 -615q-125 -275 -195.5 -392t-160.5 -179.5t-198 -62.5q-80 0 -135 44t-55 103q0 50 29.5 87.5t78.5 37.5
q83 0 139 -104q14 -27 29 -50q114 25 223 228l-479 907q-61 100 -211 115z" />
    <glyph glyph-name="uni0424" unicode="&#x424;" horiz-adv-x="1571" 
d="M889 219v-45q0 -57 31.5 -81.5t171.5 -33.5v-69h-600v69q135 10 162.5 38t27.5 77v45q-281 0 -447.5 139.5t-166.5 380.5q0 215 158 343t446 128h10v27q0 65 -52 92.5t-141 34.5v70h592v-70q-129 -9 -160.5 -35t-31.5 -82v-37h8q290 0 448 -129t158 -342
q0 -240 -168.5 -380t-445.5 -140zM889 1133v-834q186 0 281.5 118.5t95.5 297.5q0 188 -86.5 303t-247.5 115h-43zM682 1133h-43q-163 0 -249.5 -117t-86.5 -301q0 -182 96.5 -299t282.5 -117v834z" />
    <glyph glyph-name="uni0425" unicode="&#x425;" horiz-adv-x="1454" 
d="M793 0v72q184 7 184 57q0 54 -287 481q-311 -409 -311 -471q0 -63 164 -67v-72h-531v72q111 9 166 43.5t172 192.5l285 384q-372 548 -418.5 596t-189.5 60v71h657v-71q-182 -12 -182 -54q0 -39 84 -168l41 -65q57 -92 141 -215q276 373 276 436q0 56 -163 66v71h528v-71
q-136 -7 -200 -70.5t-388 -507.5l176 -256q207 -308 237 -342.5t74 -66.5t148 -33v-72h-663z" />
    <glyph glyph-name="uni0426" unicode="&#x426;" horiz-adv-x="1655" 
d="M1493 -334q-38 144 -98 235.5t-117 98.5h-1180v72q137 6 164 37t27 79v1024q0 120 -191 136v71h584v-71q-99 -8 -139.5 -30t-40.5 -95v-1026q0 -56 31 -82.5t125 -29.5t182 -3q215 0 264 7.5t49 84.5v1038q0 71 -50.5 100t-131.5 36v71h581v-71q-64 -5 -125 -23.5
t-61 -101.5v-1041q0 -98 119 -98h84v-418h-76z" />
    <glyph glyph-name="uni0427" unicode="&#x427;" horiz-adv-x="1534" 
d="M1032 1212q0 120 -190 136v71h590v-71q-103 -9 -145 -32t-42 -93v-1022q0 -63 41 -91.5t146 -37.5v-72h-590v72q118 10 139.5 19t36 31t14.5 66v469q-224 -114 -405 -114q-200 0 -303 80.5t-103 296.5v292q0 120 -190 136v71h590v-71q-101 -8 -143 -31.5t-42 -93.5v-256
q0 -179 69.5 -237t194.5 -58q173 0 332 71v469z" />
    <glyph glyph-name="uni0428" unicode="&#x428;" horiz-adv-x="2249" 
d="M1731 1212q0 121 -183 136v71h580v-71q-101 -8 -143.5 -31.5t-42.5 -93.5v-1022q0 -60 38.5 -90t151.5 -39v-72h-2038v72q105 9 131 15t45 31t19 70v1024q0 120 -191 136v71h580v-71q-96 -7 -137 -29.5t-41 -95.5v-1037q0 -69 47 -86.5t231 -17.5q180 0 206 14.5t26 69.5
v1046q0 121 -183 136v71h572v-71q-98 -8 -138 -30.5t-40 -94.5v-1037q0 -70 47.5 -87t220.5 -17q174 0 208 11.5t34 72.5v1046z" />
    <glyph glyph-name="uni0429" unicode="&#x429;" horiz-adv-x="2249" 
d="M2068 -334q-39 145 -99.5 236.5t-117.5 97.5h-1757v72q105 9 131 15t45 31t19 70v1024q0 120 -191 136v71h580v-71q-96 -7 -137 -29.5t-41 -95.5v-1037q0 -69 47 -86.5t223 -17.5q172 0 206 11t34 73v1046q0 121 -183 136v71h572v-71q-98 -8 -138 -30.5t-40 -94.5v-1037
q0 -71 48 -87.5t234 -16.5q162 0 195 11.5t33 72.5v1046q0 121 -183 136v71h580v-71q-101 -8 -143.5 -31.5t-42.5 -93.5v-1041q0 -98 116 -98h84v-418h-74z" />
    <glyph glyph-name="uni042A" unicode="&#x42a;" horiz-adv-x="1561" 
d="M954 1348q-132 -10 -168 -37.5t-36 -91.5v-404q103 4 192 4q268 0 414.5 -102.5t146.5 -298.5t-142 -307t-345 -111h-692v72q152 10 182.5 42.5t30.5 78.5v1146h-52q-148 0 -194 -9t-107 -89.5t-94 -181.5h-76v360h940v-71zM750 727v-518q0 -71 45 -100t147 -29
q313 0 313 354q0 132 -88.5 214.5t-244.5 82.5q-118 0 -172 -4z" />
    <glyph glyph-name="uni042B" unicode="&#x42b;" horiz-adv-x="1982" 
d="M502 815q98 4 188 4q268 0 413.5 -102t145.5 -299q0 -196 -141 -307t-344 -111h-670v72q120 9 157.5 34t37.5 87v1015q0 70 -55 101.5t-136 38.5v71h600v-71q-128 -11 -162 -38t-34 -91v-404zM502 727v-518q0 -75 45 -102t143 -27q311 0 311 354q0 131 -87.5 214
t-245.5 83q-110 0 -166 -4zM1481 1212q0 120 -191 136v71h590v-71q-70 -6 -128 -25t-58 -100v-1022q0 -60 38 -90t148 -39v-72h-590v72q103 9 129 15t44 30.5t18 70.5v1024z" />
    <glyph glyph-name="uni042C" unicode="&#x42c;" horiz-adv-x="1313" 
d="M502 815q99 4 192 4q268 0 413.5 -102t145.5 -299q0 -196 -141 -307t-344 -111h-674v72q120 9 157.5 34t37.5 87v1015q0 70 -55 101.5t-136 38.5v71h600v-71q-128 -11 -162 -38t-34 -91v-404zM502 727v-518q0 -71 45 -100t147 -29q312 0 312 354q0 132 -88.5 214.5
t-245.5 82.5q-114 0 -170 -4z" />
    <glyph glyph-name="uni042D" unicode="&#x42d;" horiz-adv-x="1348" 
d="M1038 823q-10 260 -123 401.5t-301 141.5q-323 0 -413 -453h-82l6 506h80l39 -67q169 98 385 98q286 0 462.5 -189.5t176.5 -508.5q0 -348 -194.5 -566.5t-498.5 -218.5q-249 0 -389.5 94.5t-140.5 227.5q0 141 121 141q119 0 119 -117q0 -60 -23 -163q117 -99 281 -99
q217 0 352.5 182.5t142.5 509.5q-172 -125 -274 -125q-72 0 -168 39t-162 39q-61 0 -135 -59l-43 53q153 146 283 146q70 0 167 -38q96 -38 152 -38q95 0 180 63z" />
    <glyph glyph-name="uni042E" unicode="&#x42e;" horiz-adv-x="2183" 
d="M500 692v-491q0 -61 37 -90.5t147 -38.5v-72h-586v72q137 6 164 37t27 79v1024q0 120 -191 136v71h586v-71q-105 -9 -144.5 -32t-39.5 -93v-443h278q26 305 213.5 488.5t446.5 183.5q284 0 474.5 -207.5t190.5 -535.5t-192.5 -536t-472.5 -208q-281 0 -468 199.5
t-194 527.5h-276zM1436 1364q-205 0 -315.5 -175t-110.5 -480q0 -306 111.5 -480t314.5 -174q204 0 315 175.5t111 478.5q0 307 -111.5 481t-314.5 174z" />
    <glyph glyph-name="uni042F" unicode="&#x42f;" horiz-adv-x="1427" 
d="M735 0v72q137 7 164 36.5t27 84.5v450h-95q-114 0 -180 -50.5t-150.5 -244t-138.5 -348.5h-389v72q119 10 156.5 30t73.5 99l123 266q36 76 95.5 130t153.5 85v14q-346 72 -346 355q0 167 128 267.5t323 100.5h655v-71q-128 -11 -162 -38t-34 -91v-1026q0 -43 18 -71.5
t57.5 -36t120.5 -13.5v-72h-600zM926 1337h-172q-129 0 -206 -81t-77 -218q0 -146 85 -227.5t237 -81.5h133v608z" />
    <glyph glyph-name="uni0430" unicode="&#x430;" horiz-adv-x="1032" 
d="M1006 18q-104 -38 -162 -38q-157 0 -185 143h-6q-133 -148 -319 -148q-111 0 -182.5 67.5t-71.5 178.5q0 124 68 189.5t234 120.5q237 78 273 100v98q0 86 -47.5 148.5t-140.5 62.5q-96 0 -141 -47q0 -25 9 -59t9 -72q0 -39 -34.5 -65.5t-84.5 -26.5q-96 0 -96 114
q0 89 112 159.5t238 70.5q205 0 285 -80.5t80 -245.5l-6 -493q0 -54 25.5 -80t46 -29.5t96.5 -3.5v-64zM657 547q-218 -64 -297 -132t-79 -169q0 -160 153 -160q118 0 217 115z" />
    <glyph glyph-name="uni0431" unicode="&#x431;" horiz-adv-x="1108" 
d="M184 729q54 131 155 205t226 74q220 0 345.5 -137t125.5 -367q0 -232 -136 -383.5t-359 -151.5q-211 0 -338 166.5t-127 464.5q0 250 58.5 447.5t154.5 278t186.5 92.5t281.5 21q82 3 124 21t90 76l57 -41q-157 -211 -211 -226t-295 -24q-289 -13 -346 -514zM563 932
q-135 0 -208.5 -117t-73.5 -311q0 -459 274 -459q127 0 200.5 125.5t73.5 333.5q0 202 -68.5 315t-197.5 113z" />
    <glyph glyph-name="uni0432" unicode="&#x432;" horiz-adv-x="1061" 
d="M74 0v66l48 5q97 7 97 97v641q0 102 -151 111v65q294 0 480 2.5t285 -53t99 -170.5q0 -186 -223 -236v-10q276 -39 276 -244q0 -129 -108.5 -201.5t-280.5 -72.5h-522zM403 913v-358h97q233 0 233 201q0 162 -217 162q-33 0 -113 -5zM403 475v-325q0 -82 134 -82
q247 0 247 223q0 87 -65 137.5t-184 50.5q-86 0 -132 -4z" />
    <glyph glyph-name="uni0433" unicode="&#x433;" horiz-adv-x="901" 
d="M883 659h-62q-38 106 -80 166.5t-71 73t-158 12.5h-106v-733q0 -46 28 -74t137 -38v-66h-497v66l48 5q97 7 97 97v641q0 100 -158 111v65h822v-326z" />
    <glyph glyph-name="uni0434" unicode="&#x434;" horiz-adv-x="1147" 
d="M113 82q101 136 173 347t72 345q0 85 -41 110t-145 36v65h897v-65q-101 -6 -122 -31.5t-21 -71.5v-639q0 -56 24 -76t82 -20h64v-371h-72q-24 111 -74.5 196.5t-103.5 96.5h-582q-38 0 -95.5 -77t-88.5 -216h-74v371h107zM657 82q82 0 82 61v760h-274q-11 -495 -240 -821
h432z" />
    <glyph glyph-name="uni0435" unicode="&#x435;" horiz-adv-x="989" 
d="M948 231q-138 -258 -405 -258q-222 0 -346.5 145.5t-124.5 383.5q0 210 126.5 361t323.5 151q195 0 298.5 -113.5t103.5 -310.5v-66h-654q0 -210 85.5 -325t244.5 -115q88 0 150.5 39t128.5 151zM727 608q0 330 -207 330q-104 0 -174 -88t-76 -242h457z" />
    <glyph glyph-name="uni0436" unicode="&#x436;" horiz-adv-x="1612" 
d="M14 66q79 7 114 20.5t51 37.5t70 146q51 114 106.5 164t142.5 68v12q-90 56 -132 200q-46 157 -67 167q-57 -70 -81.5 -86.5t-59.5 -16.5q-48 0 -76.5 29t-28.5 74q0 116 148 116q85 0 144 -43.5t111 -204.5q39 -124 80 -172.5t119 -48.5h60v283q0 100 -150 109v65h473
v-65q-97 -3 -119 -29.5t-22 -71.5v-291h59q68 0 113 42t89 179q49 155 107 201.5t146 46.5q148 0 148 -116q0 -45 -28.5 -74t-76.5 -29q-38 0 -64 19t-77 84q-21 -8 -67 -167q-42 -144 -132 -200v-12q126 -26 185.5 -116t113.5 -224q23 -50 56 -67.5t128 -28.5v-66h-331
q-75 249 -150 352t-201 103h-18v-279q0 -101 150 -110v-66h-474v66q26 3 47 4q95 2 95 96v289h-19q-113 0 -190.5 -87.5t-161.5 -367.5h-330v66z" />
    <glyph glyph-name="uni0437" unicode="&#x437;" horiz-adv-x="971" 
d="M248 106q56 -59 192 -59q107 0 174.5 63t67.5 175q0 192 -223 192h-107v92h86q113 0 165 48t52 159q0 73 -45.5 117.5t-128.5 44.5q-192 0 -295 -289h-65l6 357h66l36 -56q138 64 279 64q171 0 259.5 -68t88.5 -166q0 -185 -252 -237v-15q283 -19 283 -243
q0 -142 -125.5 -227t-321.5 -85q-173 0 -276 73t-103 179q0 103 99 103q51 0 80.5 -26.5t29.5 -63.5q0 -33 -22 -132z" />
    <glyph glyph-name="uni0438" unicode="&#x438;" horiz-adv-x="1253" 
d="M700 985h480v-65q-102 -6 -124 -33.5t-22 -69.5v-639q0 -101 150 -112v-66h-479v66l48 5q101 7 101 97v518l-455 -491v-17q0 -100 154 -112v-66h-479v66l48 5q97 7 97 97v641q0 102 -151 111v65h479v-65q-101 -6 -123.5 -33t-22.5 -70v-510l453 494q0 61 -38 88t-116 31
v65z" />
    <glyph glyph-name="uni0439" unicode="&#x439;" horiz-adv-x="1253" 
d="M700 985h480v-65q-102 -6 -124 -33.5t-22 -69.5v-639q0 -101 150 -112v-66h-479v66l48 5q101 7 101 97v518l-455 -491v-17q0 -100 154 -112v-66h-479v66l48 5q97 7 97 97v641q0 102 -151 111v65h479v-65q-101 -6 -123.5 -33t-22.5 -70v-510l453 494q0 61 -38 88t-116 31
v65zM461 1290q50 -65 166 -65q117 0 168 65l-19 54q-12 31 -12 63q0 92 101 92q42 0 70 -30t28 -78q0 -89 -88.5 -160.5t-247.5 -71.5q-158 0 -246 70t-88 162q0 48 28.5 78t70.5 30q100 0 100 -92q0 -39 -31 -117z" />
    <glyph glyph-name="uni043A" unicode="&#x43a;" horiz-adv-x="1128" 
d="M403 178q0 -100 152 -112v-66h-481v66l48 5q97 7 97 97v641q0 102 -151 111v65h481v-65q-101 -6 -123.5 -33t-22.5 -70v-289h64q66 0 110.5 40.5t96.5 180.5q34 92 52 129t68.5 78t131.5 41q147 0 147 -114q0 -45 -28 -76t-74 -31q-33 0 -56 12.5t-86 88.5
q-18 -14 -46 -97q-72 -217 -158 -266v-12q107 -24 167.5 -90t125.5 -223q21 -52 48 -81t152 -42v-66h-340q-66 242 -145 348.5t-207 106.5h-23v-277z" />
    <glyph glyph-name="uni043B" unicode="&#x43b;" horiz-adv-x="1190" 
d="M639 0v66l46 5q99 7 99 97v735h-272q0 -442 -112 -682.5t-269 -240.5q-67 0 -106 35.5t-39 88.5q0 42 25.5 71.5t66.5 29.5q68 0 121 -66q12 -15 20 -24q65 60 124.5 255t59.5 404q0 84 -39 109t-147 37v65h899v-65q-101 -6 -123 -33t-22 -70v-639q0 -100 149 -112v-66
h-481z" />
    <glyph glyph-name="uni043C" unicode="&#x43c;" horiz-adv-x="1464" 
d="M1391 920q-104 -6 -125 -33.5t-21 -69.5v-639q0 -101 150 -112v-66h-484v66l49 5q103 7 103 97v715h-25l-333 -867h-64l-313 883h-23v-690q0 -72 30.5 -103.5t123.5 -39.5v-66h-385v66l48 5q65 4 81 39.5t16 88.5v600q0 112 -151 121v65h409l248 -704l217 583
q20 54 35 121h414v-65z" />
    <glyph glyph-name="uni043D" unicode="&#x43d;" horiz-adv-x="1247" 
d="M403 178q0 -99 152 -112v-66h-481v66l48 5q97 7 97 97v641q0 102 -151 111v65h481v-65q-101 -6 -123.5 -33t-22.5 -70v-254h441v246q0 99 -154 111v65h484v-65q-103 -6 -124.5 -33t-21.5 -70v-639q0 -101 150 -112v-66h-484v66l49 5q101 7 101 97v313h-441v-303z" />
    <glyph glyph-name="uni043E" unicode="&#x43e;" horiz-adv-x="1104" 
d="M543 -31q-198 0 -335.5 146t-137.5 374q0 232 134.5 378.5t352.5 146.5q212 0 343.5 -142.5t131.5 -367.5q0 -234 -134 -384.5t-355 -150.5zM555 938q-135 0 -207 -117.5t-72 -314.5q0 -209 72.5 -335t206.5 -126q128 0 199 125t71 332q0 202 -69.5 319t-200.5 117z" />
    <glyph glyph-name="uni043F" unicode="&#x43f;" horiz-adv-x="1233" 
d="M406 178q0 -100 149 -112v-66h-481v66l48 5q97 7 97 97v641q0 102 -151 111v65h1089v-65q-103 -6 -123 -32.5t-20 -70.5v-639q0 -60 37.5 -82.5t109.5 -29.5v-66h-481v66l47 5q100 7 100 97v735h-421v-725z" />
    <glyph glyph-name="uni0440" unicode="&#x440;" horiz-adv-x="1169" 
d="M393 41h-8v-297q0 -51 33.5 -80t165.5 -41v-67h-551v67q119 5 142.5 34t23.5 75v1048q0 124 -166 131v66l336 20l14 -12v-111l8 -2q130 142 283 142q177 0 300.5 -146.5t123.5 -371.5t-138.5 -374t-326.5 -149q-155 0 -240 68zM385 793v-584q0 -29 62 -95.5t167 -66.5
q121 0 198 117t77 323q0 183 -75.5 298.5t-213.5 115.5q-123 0 -215 -108z" />
    <glyph glyph-name="uni0441" unicode="&#x441;" horiz-adv-x="930" 
d="M926 229q-63 -114 -171.5 -185t-226.5 -71q-214 0 -335 142.5t-121 382.5q0 212 132.5 364t336.5 152q151 0 239 -71.5t88 -186.5q0 -127 -102 -127q-58 0 -91.5 29t-33.5 67q0 40 12 90q12 51 15 72q-29 51 -131 51q-113 0 -185.5 -111.5t-72.5 -320.5
q0 -189 83.5 -305.5t215.5 -116.5q171 0 282 188z" />
    <glyph glyph-name="uni0442" unicode="&#x442;" horiz-adv-x="965" 
d="M881 670q-35 95 -77 155.5t-72 73t-157 12.5v-733q0 -101 160 -112v-66h-502v66q28 3 54 5q102 6 102 97v743l-123 -5q-57 -1 -107 -78.5t-75 -157.5h-61v315h919v-315h-61z" />
    <glyph glyph-name="uni0443" unicode="&#x443;" horiz-adv-x="1008" 
d="M1038 924q-34 -5 -78 -35t-58 -53.5t-89 -202.5l-138 -330q-141 -341 -210 -478.5t-146 -203t-155 -65.5q-73 0 -119.5 34.5t-46.5 87.5q0 48 25.5 80.5t68.5 32.5q86 0 156 -127q44 23 112.5 129t108.5 211l-336 820q-33 73 -151 96v65h448v-70q-113 -7 -113 -43
q0 -2 5 -14l10 -31l237 -583l201 491q4 12 11 27q24 54 24 84q0 51 -133 76v63h366v-61z" />
    <glyph glyph-name="uni0444" unicode="&#x444;" horiz-adv-x="1542" 
d="M868 25h-4v-281q0 -56 37.5 -83t151.5 -38v-67h-551v67q130 6 153 29t23 80v293h-4q-85 -41 -168 -41q-186 0 -308 138.5t-122 366.5q0 231 121 373t309 142q81 0 168 -41h4v292q0 121 -166 129v66l338 23l14 -13v-497h4q87 41 168 41q189 0 309.5 -138t120.5 -368
q0 -232 -122.5 -373t-307.5 -141q-83 0 -168 41zM864 872v-757q66 -52 144 -52q124 0 190 113.5t66 321.5q0 426 -256 426q-81 0 -144 -52zM678 872q-66 52 -143 52q-256 0 -256 -435q0 -426 256 -426q77 0 143 52v757z" />
    <glyph glyph-name="uni0445" unicode="&#x445;" horiz-adv-x="1034" 
d="M569 0v66q109 11 109 36q0 33 -205 324q-211 -271 -211 -305q0 -44 115 -58v-63h-365v61q113 29 187.5 121.5t228.5 298.5l-198 286q-78 113 -113.5 133t-87.5 20v65h428v-65q-95 0 -95 -23q0 -27 191 -299q49 66 109.5 152.5t64.5 97.5t4 22q0 31 -69 46q-17 3 -29 6v63
h362v-61q-102 -26 -148.5 -67.5t-248.5 -311.5l278 -402q50 -72 146 -77v-66h-453z" />
    <glyph glyph-name="uni0446" unicode="&#x446;" horiz-adv-x="1235" 
d="M74 66l48 5q97 7 97 97v641q0 102 -149 111v65h483v-65q-101 -6 -124 -33t-23 -70v-643q0 -68 35 -83t192 -15q153 0 173.5 9.5t20.5 70.5v653q0 98 -151 111v65h481v-65q-103 -6 -123 -32.5t-20 -70.5v-641q0 -59 25.5 -78.5t80.5 -19.5h64v-371h-72q-23 115 -75 199.5
t-103 93.5h-860v66z" />
    <glyph glyph-name="uni0447" unicode="&#x447;" horiz-adv-x="1171" 
d="M768 809q0 99 -154 111v65h484v-65q-102 -6 -124 -33.5t-22 -69.5v-639q0 -100 150 -112v-66h-484v66l49 5q101 7 101 97v262q-179 -78 -293 -78q-160 0 -232.5 61.5t-72.5 198.5v197q0 99 -152 111v65h484v-65q-101 -6 -123.5 -33t-22.5 -70v-155q0 -107 45 -154
t146 -47q109 0 221 39v309z" />
    <glyph glyph-name="uni0448" unicode="&#x448;" horiz-adv-x="1767" 
d="M70 66l50 5q99 6 99 97v641q0 102 -149 111v65h473v-65q-96 -6 -116.5 -31t-20.5 -72v-643q0 -66 34 -82t172 -16q141 0 160 10.5t19 69.5v653q0 60 -38 83.5t-104 27.5v65h465v-65q-100 -6 -118.5 -31t-18.5 -72v-645q0 -65 34 -80.5t175 -15.5q140 0 159 10t19 70v653
q0 59 -36.5 82.5t-104.5 28.5v65h471v-65q-102 -6 -124 -33.5t-22 -69.5v-639q0 -101 154 -112v-66h-1632v66z" />
    <glyph glyph-name="uni0449" unicode="&#x449;" horiz-adv-x="1769" 
d="M1720 78v-371h-71q-63 264 -181 293h-1398v66l50 5q99 6 99 97v641q0 102 -149 111v65h473v-65q-96 -6 -116.5 -31t-20.5 -72v-643q0 -67 34.5 -82.5t173.5 -15.5q137 0 157 10.5t20 69.5v653q0 60 -38 83.5t-104 27.5v65h465v-65q-100 -6 -118.5 -31t-18.5 -72v-645
q0 -66 34 -81t177 -15q138 0 157 10.5t19 69.5v653q0 59 -36.5 82.5t-104.5 28.5v65h471v-65q-102 -6 -124 -33.5t-22 -69.5v-641q0 -57 26 -77.5t83 -20.5h63z" />
    <glyph glyph-name="uni044A" unicode="&#x44a;" horiz-adv-x="1184" 
d="M729 920q-115 -5 -138.5 -31.5t-23.5 -71.5v-233l152 4q420 0 420 -285q0 -139 -109 -221t-270 -82h-531v66q26 3 52 5q104 6 104 97v743l-132 -5q-52 -2 -102.5 -77.5t-76.5 -156.5h-62v313h717v-65zM567 504v-352q0 -84 142 -84q229 0 229 239q0 90 -64.5 147.5
t-175.5 57.5q-48 0 -131 -8z" />
    <glyph glyph-name="uni044B" unicode="&#x44b;" horiz-adv-x="1552" 
d="M1001 0v66l47 5q99 7 99 97v641q0 102 -152 111v65h484v-65q-101 -6 -123.5 -33t-22.5 -70v-639q0 -101 150 -112v-66h-482zM74 0v66l48 5q97 7 97 97v641q0 102 -151 111v65h495v-65q-118 -5 -139 -34t-21 -69v-233l152 4q420 0 420 -285q0 -141 -111 -222t-270 -81
h-520zM403 504v-352q0 -84 142 -84q110 0 168.5 63t58.5 176q0 89 -63.5 147t-176.5 58q-51 0 -129 -8z" />
    <glyph glyph-name="uni044C" unicode="&#x44c;" horiz-adv-x="1018" 
d="M563 920q-118 -5 -139 -34t-21 -69v-233l152 4q420 0 420 -285q0 -141 -111 -222t-270 -81h-520v66l48 5q97 7 97 97v641q0 102 -151 111v65h495v-65zM403 504v-352q0 -84 142 -84q110 0 168.5 63t58.5 176q0 89 -63.5 147t-176.5 58q-51 0 -129 -8z" />
    <glyph glyph-name="uni044D" unicode="&#x44d;" horiz-adv-x="995" 
d="M248 106q70 -59 178 -59q137 0 219 118t82 308h-395v94h397q-4 371 -256 371q-195 0 -289 -272h-65l6 348h68l30 -47q93 47 258 47q202 0 322.5 -136t120.5 -341q0 -251 -136 -407.5t-364 -156.5q-170 0 -266.5 69t-96.5 173t99 104q49 0 79.5 -27t30.5 -65q0 -31 -8 -62
t-14 -59z" />
    <glyph glyph-name="uni044E" unicode="&#x44e;" horiz-adv-x="1618" 
d="M403 481v-303q0 -100 152 -112v-66h-481v66l48 5q97 7 97 97v641q0 102 -151 111v65h481v-65q-101 -6 -123.5 -33t-22.5 -70v-254h211q22 212 148 331.5t317 119.5q209 0 338 -141.5t129 -368.5q0 -236 -131 -385.5t-350 -149.5q-191 0 -320 139t-133 373h-209zM1077 938
q-132 0 -200 -114t-68 -318q0 -213 68 -337t200 -124q126 0 194 121.5t68 335.5q0 205 -66.5 320.5t-195.5 115.5z" />
    <glyph glyph-name="uni044F" unicode="&#x44f;" horiz-adv-x="1122" 
d="M1049 985v-65q-103 -6 -124.5 -33t-21.5 -70v-639q0 -101 150 -112v-66h-484v66l48 5q100 7 100 97v276h-41q-103 0 -161 -46t-111.5 -175.5t-77.5 -222.5h-338v66q114 13 142 35t46 61q110 274 240 313v6q-258 52 -258 248q0 118 103.5 187t270.5 69h517zM717 915h-113
q-114 0 -178 -52.5t-64 -141.5q0 -203 281 -203h74v397z" />
    <glyph glyph-name="uni0451" unicode="&#x451;" horiz-adv-x="989" 
d="M948 231q-138 -258 -405 -258q-222 0 -346.5 145.5t-124.5 383.5q0 210 126.5 361t323.5 151q195 0 298.5 -113.5t103.5 -310.5v-66h-654q0 -210 85.5 -325t244.5 -115q88 0 150.5 39t128.5 151zM727 608q0 330 -207 330q-104 0 -174 -88t-76 -242h457zM743 1241
q-50 0 -84.5 36.5t-34.5 86.5q0 49 34.5 86t84.5 37q51 0 85 -37t34 -86t-34.5 -86t-84.5 -37zM313 1241q-50 0 -84.5 37t-34.5 86t34 86t85 37q50 0 84.5 -37t34.5 -86q0 -50 -34.5 -86.5t-84.5 -36.5z" />
    <glyph glyph-name="uni0452" unicode="&#x452;" horiz-adv-x="1169" 
d="M672 -360q88 0 116.5 126t28.5 603q0 191 -4 304t-53.5 167.5t-118.5 54.5q-171 0 -256 -150v-567q0 -101 152 -112v-66h-484v66l49 5q97 7 97 97v1001h-242v86h242v62q0 39 -19.5 76.5t-49.5 48.5t-124 18v66l365 22l14 -14v-279h350v-86h-350v-323h4q109 110 181 139
t155 29q127 0 196.5 -76t77 -195t7.5 -366q0 -354 -17.5 -447t-67 -180t-135.5 -140.5t-190 -53.5q-83 0 -130.5 33.5t-47.5 84.5q0 109 94 109q75 0 130 -93q15 -26 30 -50z" />
    <glyph glyph-name="uni0453" unicode="&#x453;" horiz-adv-x="901" 
d="M883 659h-62q-38 106 -80 166.5t-71 73t-158 12.5h-106v-733q0 -46 28 -74t137 -38v-66h-497v66l48 5q97 7 97 97v641q0 100 -158 111v65h822v-326zM392 1110l-39 33q114 165 202 307q53 88 127 88q34 0 58 -23.5t24 -54.5q0 -56 -43 -91t-221 -174q-47 -36 -108 -85z
" />
    <glyph glyph-name="uni0454" unicode="&#x454;" horiz-adv-x="995" 
d="M739 102q-18 75 -18 115q0 37 30.5 64.5t79.5 27.5q99 0 99 -102q0 -97 -113 -165.5t-278 -68.5q-225 0 -346 140.5t-121 380.5q0 210 134 365t329 155q155 0 249 -47l33 47h68v-348h-68q-77 272 -274 272q-101 0 -180.5 -96t-94.5 -275h402v-94h-402v-12
q0 -185 80 -298.5t223 -113.5q98 0 168 53z" />
    <glyph glyph-name="uni0455" unicode="&#x455;" horiz-adv-x="885" 
d="M178 61l-20 -63h-74l-10 342h67q30 -118 116 -203.5t198 -85.5q200 0 200 168q0 69 -49.5 114t-204.5 91q-303 89 -303 301q0 124 92.5 206.5t239.5 82.5q122 0 217 -51l23 53h71l17 -318h-70q-55 240 -260 240q-79 0 -127.5 -40.5t-48.5 -100.5q0 -77 46.5 -114
t203.5 -89q177 -57 242 -129.5t65 -179.5q0 -137 -104 -224.5t-265 -87.5q-146 0 -262 88z" />
    <glyph glyph-name="uni0456" unicode="&#x456;" horiz-adv-x="600" 
d="M295 1245q-50 0 -87.5 39.5t-37.5 93.5q0 55 37 96.5t88 41.5q56 0 93.5 -39t37.5 -91q0 -57 -38 -99t-93 -42zM74 0v66l48 5q97 7 97 97v608q0 122 -176 135v66l348 20l15 -14v-803q0 -57 35.5 -81t109.5 -33v-66h-477z" />
    <glyph glyph-name="uni0457" unicode="&#x457;" horiz-adv-x="600" 
d="M74 0v66l48 5q97 7 97 97v608q0 122 -176 135v66l348 20l15 -14v-803q0 -57 35.5 -81t109.5 -33v-66h-477zM485 1241q-50 0 -84.5 36.5t-34.5 86.5q0 49 34.5 86t84.5 37q51 0 85 -37t34 -86t-34.5 -86t-84.5 -37zM55 1241q-50 0 -84.5 37t-34.5 86t34 86t85 37
q50 0 84.5 -37t34.5 -86q0 -50 -34.5 -86.5t-84.5 -36.5z" />
    <glyph glyph-name="uni0458" unicode="&#x458;" horiz-adv-x="598" 
d="M315 1245q-49 0 -87 40t-38 93q0 56 38 97t87 41q56 0 93.5 -38t37.5 -89q0 -59 -39 -101.5t-92 -42.5zM430 59q0 -222 -114.5 -362.5t-286.5 -140.5q-83 0 -132 33.5t-49 84.5q0 109 95 109q76 0 131 -93q15 -26 30 -50q76 0 109 93.5t33 293.5v741q0 45 -35.5 89.5
t-190.5 55.5v64l398 20l12 -14v-924z" />
    <glyph glyph-name="uni0459" unicode="&#x459;" horiz-adv-x="1583" 
d="M1130 920q-115 -5 -138 -31t-23 -72v-233l151 4q420 0 420 -285q0 -140 -110 -221.5t-271 -81.5h-520v66l47 5q98 7 98 97v735h-272q0 -442 -112 -682.5t-269 -240.5q-67 0 -106 35.5t-39 88.5q0 42 25.5 71.5t66.5 29.5q68 0 121 -66q12 -15 20 -24q65 60 124.5 255
t59.5 404q0 84 -39 109t-147 37v65h913v-65zM969 504v-352q0 -84 141 -84q110 0 168.5 63t58.5 176q0 91 -63.5 148t-173.5 57q-51 0 -131 -8z" />
    <glyph glyph-name="uni045A" unicode="&#x45a;" horiz-adv-x="1634" 
d="M1180 920q-117 -6 -138.5 -31t-21.5 -72v-233l149 4q420 0 420 -285q0 -139 -109 -221t-270 -82h-520v66l48 5q98 6 98 97v319h-433v-309q0 -100 152 -112v-66h-481v66l48 5q97 7 97 97v641q0 102 -151 111v65h481v-65q-101 -6 -123.5 -33t-22.5 -70v-248h433v240
q0 99 -154 111v65h498v-65zM1020 504v-352q0 -84 139 -84q112 0 171 63.5t59 175.5q0 89 -63.5 147t-176.5 58q-51 0 -129 -8z" />
    <glyph glyph-name="uni045B" unicode="&#x45b;" horiz-adv-x="1192" 
d="M385 846h4q109 110 181 139t155 29q274 0 274 -326v-512q0 -99 144 -110v-66h-484v66q28 3 52 5q100 6 100 97v508q0 99 -47.5 159t-122.5 60q-171 0 -256 -150v-567q0 -101 152 -112v-66h-484v66l49 5q97 7 97 97v1001h-242v86h242v62q0 39 -19.5 76.5t-49.5 48.5
t-124 18v66l365 22l14 -14v-279h350v-86h-350v-323z" />
    <glyph glyph-name="uni045C" unicode="&#x45c;" horiz-adv-x="1128" 
d="M403 178q0 -100 152 -112v-66h-481v66l48 5q97 7 97 97v641q0 102 -151 111v65h481v-65q-101 -6 -123.5 -33t-22.5 -70v-289h64q66 0 110.5 40.5t96.5 180.5q34 92 52 129t68.5 78t131.5 41q147 0 147 -114q0 -45 -28 -76t-74 -31q-33 0 -56 12.5t-86 88.5
q-18 -14 -46 -97q-72 -217 -158 -266v-12q107 -24 167.5 -90t125.5 -223q21 -52 48 -81t152 -42v-66h-340q-66 242 -145 348.5t-207 106.5h-23v-277zM486 1110l-39 33q114 165 202 307q53 88 127 88q34 0 58 -23.5t24 -54.5q0 -56 -43 -91t-221 -174q-47 -36 -108 -85z" />
    <glyph glyph-name="uni045E" unicode="&#x45e;" horiz-adv-x="1008" 
d="M1038 924q-34 -5 -78 -35t-58 -53.5t-89 -202.5l-138 -330q-141 -341 -210 -478.5t-146 -203t-155 -65.5q-73 0 -119.5 34.5t-46.5 87.5q0 48 25.5 80.5t68.5 32.5q86 0 156 -127q44 23 112.5 129t108.5 211l-336 820q-33 73 -151 96v65h448v-70q-113 -7 -113 -43
q0 -2 5 -14l10 -31l237 -583l201 491q4 12 11 27q24 54 24 84q0 51 -133 76v63h366v-61zM350 1290q50 -65 166 -65q117 0 168 65l-19 54q-12 31 -12 63q0 92 101 92q42 0 70 -30t28 -78q0 -89 -88.5 -160.5t-247.5 -71.5q-158 0 -246 70t-88 162q0 48 28.5 78t70.5 30
q100 0 100 -92q0 -39 -31 -117z" />
    <glyph glyph-name="uni045F" unicode="&#x45f;" horiz-adv-x="1235" 
d="M74 66l48 5q97 7 97 97v641q0 102 -149 111v65h483v-65q-101 -6 -124 -33t-23 -70v-647q0 -68 35 -83t194 -15q153 0 173.5 9.5t20.5 70.5v657q0 100 -149 111v65h481v-65q-101 -6 -123 -33t-22 -70v-639q0 -58 36.5 -81.5t112.5 -30.5v-66h-379q-78 0 -129 -303h-71
q-9 44 -18 95q-35 194 -109 208h-385v66z" />
    <glyph glyph-name="uni0490" unicode="&#x490;" horiz-adv-x="1180" 
d="M692 1419q177 0 223 21.5t98.5 107.5t78.5 189h75v-398h-665v-1136q0 -59 43 -90t178 -41v-72h-637v72q114 9 138.5 13.5t44.5 30.5t20 72v1024q0 70 -53.5 99t-149.5 37v71h606z" />
    <glyph glyph-name="uni0491" unicode="&#x491;" horiz-adv-x="883" 
d="M500 985q125 0 155 11.5t73 73.5t81 167h61v-326h-464v-733q0 -46 28 -74t137 -38v-66h-497v66l48 5q97 7 97 97v641q0 100 -158 111v65h439z" />
    <glyph glyph-name="Wgrave" unicode="&#x1e80;" horiz-adv-x="1999" 
d="M2028 1348q-48 -4 -90.5 -23.5t-70 -49t-35.5 -49.5t-88 -281l-296 -963h-92l-359 1091l-372 -1091h-88l-352 1240q-34 111 -189 126v71h579v-71q-184 -12 -184 -52q0 -24 20.5 -99.5t243.5 -850.5l355 1053h98l356 -1075q246 836 246 936q0 71 -197 88v71h515v-71z
M1214 1507q-116 58 -209 102q-103 48 -166 81t-63 98q0 80 92 80q56 0 102 -50t275 -272z" />
    <glyph glyph-name="wgrave" unicode="&#x1e81;" horiz-adv-x="1509" 
d="M1540 922q-69 -10 -108 -46.5t-57 -94t-126 -373t-133 -414.5h-86l-264 725l-268 -725h-82l-268 807q-30 95 -152 119v65h438v-70q-108 -5 -108 -43q0 -18 188 -616l252 711h96l256 -701q180 540 180 586q0 30 -47.5 50t-85.5 20v63h375v-63zM919 1110q-105 85 -252 197
q-81 61 -100.5 87t-19.5 66q0 31 24 54.5t58 23.5q74 0 127 -88q88 -142 202 -307z" />
    <glyph glyph-name="Wacute" unicode="&#x1e82;" horiz-adv-x="1999" 
d="M2028 1348q-48 -4 -90.5 -23.5t-70 -49t-35.5 -49.5t-88 -281l-296 -963h-92l-359 1091l-372 -1091h-88l-352 1240q-34 111 -189 126v71h579v-71q-184 -12 -184 -52q0 -24 20.5 -99.5t243.5 -850.5l355 1053h98l356 -1075q246 836 246 936q0 71 -197 88v71h515v-71z
M901 1507l-31 39q166 158 262 258q60 64 115 64q39 0 65.5 -22.5t26.5 -57.5q0 -48 -35 -76.5t-193 -102.5q-94 -44 -210 -102z" />
    <glyph glyph-name="wacute" unicode="&#x1e83;" horiz-adv-x="1509" 
d="M1540 922q-69 -10 -108 -46.5t-57 -94t-126 -373t-133 -414.5h-86l-264 725l-268 -725h-82l-268 807q-30 95 -152 119v65h438v-70q-108 -5 -108 -43q0 -18 188 -616l252 711h96l256 -701q180 540 180 586q0 30 -47.5 50t-85.5 20v63h375v-63zM709 1110l-39 33
q114 165 202 307q53 88 127 88q34 0 58 -23.5t24 -54.5q0 -56 -43 -91t-221 -174q-47 -36 -108 -85z" />
    <glyph glyph-name="Wdieresis" unicode="&#x1e84;" horiz-adv-x="1999" 
d="M2028 1348q-48 -4 -90.5 -23.5t-70 -49t-35.5 -49.5t-88 -281l-296 -963h-92l-359 1091l-372 -1091h-88l-352 1240q-34 111 -189 126v71h579v-71q-184 -12 -184 -52q0 -24 20.5 -99.5t243.5 -850.5l355 1053h98l356 -1075q246 836 246 936q0 71 -197 88v71h515v-71z
M1282 1608q-49 0 -84 35.5t-35 87.5q0 51 35 86.5t84 35.5t83 -35.5t34 -86.5q0 -52 -34 -87.5t-83 -35.5zM832 1608q-49 0 -83 35.5t-34 87.5q0 51 34 86.5t83 35.5t84 -35.5t35 -86.5q0 -52 -35 -87.5t-84 -35.5z" />
    </font>
</defs>
</svg>
