<?xml version="1.0" standalone="no"?>
<!DOCTYPE svg PUBLIC "-//W3C//DTD SVG 1.1//EN" "http://www.w3.org/Graphics/SVG/1.1/DTD/svg11.dtd" >
<svg xmlns="http://www.w3.org/2000/svg" xmlns:xlink="http://www.w3.org/1999/xlink" version="1.1">
<metadata>
Created by FontForge 20170731 at Sat Nov 12 09:27:45 2011
 By Aleksey,,,
(c) 2011 Microsoft Corporation. All Rights Reserved.
</metadata>
<defs>
<font id="GeorgiaPro-SemiBold" horiz-adv-x="1378" >
  <font-face 
    font-family="GeorgiaPro"
    font-weight="600"
    font-stretch="normal"
    units-per-em="2048"
    panose-1="2 4 7 2 5 4 5 2 3 3"
    ascent="1638"
    descent="-410"
    x-height="987"
    cap-height="1419"
    bbox="-373 -621 2521 1868"
    underline-thickness="102"
    underline-position="-307"
    unicode-range="U+0020-FB04"
  />
<missing-glyph horiz-adv-x="2048" 
d="M256 0v1536h1536v-1536h-1536zM385 129h1280v1280h-1280v-1280z" />
    <glyph glyph-name="f_f" unicode="ff" horiz-adv-x="1382" 
d="M1552 1403q0 -61 -34 -96t-95 -35q-38 0 -64.5 14t-48 39.5t-40 60.5t-39.5 76q-63 -18 -89 -112.5t-26 -274.5v-92h266v-100h-264v-699q0 -47 29.5 -72.5t94.5 -33.5l69 -8v-70h-598v70q86 4 116.5 27t30.5 77v709h-389v-699q0 -39 11.5 -61t34.5 -33t106 -20v-70h-557
v70q86 4 116.5 27t30.5 77v709h-199v100h199v18q0 152 57 270t165 183.5t249 65.5q104 0 162.5 -37.5t58.5 -100.5q0 -57 -34 -91t-95 -34q-49 0 -85 26.5t-67 82.5l-40 72q-63 -17 -89 -106.5t-26 -260.5v-88h391v21q0 245 128.5 394.5t342.5 149.5q105 0 163 -39.5
t58 -105.5z" />
    <glyph glyph-name="fi" unicode="fi" horiz-adv-x="1309" 
d="M725 0v70q78 2 106.5 26t28.5 80v612q0 65 -41 95h-348v-699q0 -37 13.5 -59t39 -34.5t90.5 -20.5v-70h-548v70q85 2 116 26.5t31 79.5v707h-199v100h199v21q0 150 49 258.5t177.5 197t297.5 88.5q156 0 247 -48t91 -130q0 -50 -38 -83.5t-93 -33.5q-86 0 -129.5 56
t-56.5 157h-27q-125 0 -193.5 -104t-68.5 -299v-80h342l291 16l14 -14v-799q0 -49 35 -78t115 -38v-70h-541z" />
    <glyph glyph-name="fl" unicode="fl" horiz-adv-x="1325" 
d="M729 0v70q90 4 119 26.5t29 77.5v1118q-38 19 -57.5 54.5t-35.5 113.5q-10 4 -43 4q-135 0 -203.5 -103.5t-68.5 -299.5v-78h256v-100h-254v-699q0 -36 14 -58t39.5 -34.5t91.5 -21.5v-70h-550v70q85 2 116 26.5t31 79.5v707h-199v100h199v21v12q0 163 74.5 286
t195.5 184.5t258 61.5q160 0 271 -41l106 41l15 -16v-1346q0 -50 34.5 -79t112.5 -37v-70h-551z" />
    <glyph glyph-name="f_f_i" unicode="ffi" horiz-adv-x="1956" 
d="M1372 0v70q78 2 106.5 26t28.5 80v612q0 65 -41 95h-348v-699q0 -37 13.5 -59t39.5 -34.5t91 -20.5v-70h-549v70q85 2 116 26.5t31 79.5v707h-389v-699q0 -39 11.5 -61t34.5 -33t106 -20v-70h-557v70q86 4 116.5 27t30.5 77v709h-199v100h199v18q0 152 57 270t165 183.5
t249 65.5q104 0 162.5 -37.5t58.5 -100.5q0 -57 -34 -91t-95 -34q-49 0 -85 26.5t-67 82.5l-40 72q-63 -17 -89 -106.5t-26 -260.5v-88h391v21q0 150 49 258.5t177.5 197t297.5 88.5q156 0 247 -48t91 -130q0 -50 -38 -83.5t-93 -33.5q-86 0 -129 55.5t-57 157.5h-27
q-125 0 -193.5 -104t-68.5 -299v-80h342l291 16l14 -14v-799q0 -49 35 -78t115 -38v-70h-541z" />
    <glyph glyph-name="f_f_l" unicode="ffl" horiz-adv-x="1972" 
d="M1376 0v70q90 4 119 26.5t29 77.5v1118q-37 18 -56.5 52.5t-35.5 115.5q-10 4 -43 4q-136 0 -204.5 -104t-68.5 -299v-78h256v-100h-254v-699q0 -36 14 -58.5t40 -35t92 -20.5v-70h-551v70q85 2 116 26.5t31 79.5v707h-389v-699q0 -39 11.5 -61t34.5 -33t106 -20v-70
h-557v70q86 4 116.5 27t30.5 77v709h-199v100h199v18q0 152 57 270t165 183.5t249 65.5q104 0 162.5 -37.5t58.5 -100.5q0 -57 -34 -91t-95 -34q-49 0 -85 26.5t-67 82.5l-40 72q-63 -17 -89 -106.5t-26 -260.5v-88h391v21v12q0 162 73.5 284.5t195 185t260.5 62.5
q159 0 270 -41l106 41l15 -16v-1346q0 -50 34.5 -79t112.5 -37v-70h-551z" />
    <glyph glyph-name="f_j" unicode="fj" horiz-adv-x="1282" 
d="M1118 139q0 -174 -56.5 -307t-163 -204.5t-251.5 -71.5q-101 0 -158 39.5t-57 105.5q0 59 34 92t91 33q42 0 71 -14.5t53.5 -45.5t68.5 -122q60 15 85 106.5t25 296.5v737q0 69 -41 99h-348v-699q0 -37 13.5 -59t39 -34.5t90.5 -20.5v-70h-548v70q85 2 116 26.5t31 79.5
v707h-199v100h199v21q0 118 34.5 213.5t110 174t170.5 117.5t209 39q165 0 254.5 -52t89.5 -142q0 -28 -18.5 -60t-47.5 -51.5t-65 -19.5q-79 0 -123.5 51.5t-68.5 191.5h-27q-125 0 -193.5 -104t-68.5 -299v-80h385l250 16l14 -14v-846z" />
    <glyph glyph-name=".notdef" horiz-adv-x="2048" 
d="M256 0v1536h1536v-1536h-1536zM385 129h1280v1280h-1280v-1280z" />
    <glyph glyph-name=".null" horiz-adv-x="0" 
 />
    <glyph glyph-name="nonmarkingreturn" horiz-adv-x="506" 
 />
    <glyph glyph-name="space" unicode=" " horiz-adv-x="506" 
 />
    <glyph glyph-name="space" unicode="&#xa0;" horiz-adv-x="506" 
 />
    <glyph glyph-name="exclam" unicode="!" horiz-adv-x="723" 
d="M524 1290q0 -46 -40 -298q-60 -370 -83 -546h-77q-31 251 -80 545q-41 246 -41 299q0 70 47 116t115 46q67 0 113 -46.5t46 -115.5zM528 135q0 -66 -47.5 -113t-115.5 -47q-69 0 -117.5 46.5t-48.5 113.5t49 114.5t117 47.5q67 0 115 -48t48 -114z" />
    <glyph glyph-name="quotedbl" unicode="&#x22;" horiz-adv-x="944" 
d="M823 1393q0 -35 -37 -184q-47 -189 -69 -314h-66q-17 103 -67 313q-37 151 -37 185q0 60 38 98.5t101 38.5q62 0 99.5 -39t37.5 -98zM395 1393q0 -39 -36 -184q-45 -183 -70 -314h-64q-22 121 -69 313q-37 149 -37 185q0 60 38 98.5t101 38.5q62 0 99.5 -39t37.5 -98z
" />
    <glyph glyph-name="numbersign" unicode="#" 
d="M969 745l-76 -253h270v-142h-311l-104 -350h-130l103 350h-223l-103 -350h-131l105 350h-215v142h256l75 253h-272v142h313l105 352h129l-105 -352h226l102 352h131l-104 -352h213v-142h-254zM614 748l-75 -259h225l78 259h-228z" />
    <glyph glyph-name="dollar" unicode="$" horiz-adv-x="1280" 
d="M1155 387q0 -167 -125.5 -278.5t-331.5 -126.5v-281h-92v281q-129 1 -239.5 43.5t-173 114.5t-62.5 155q0 66 33.5 106.5t95.5 40.5q68 0 105.5 -34.5t37.5 -88.5q0 -23 -7.5 -53.5t-37.5 -115.5q31 -35 99 -61t149 -26v478l-110 34q-161 34 -244.5 122.5t-83.5 224.5
q0 98 54.5 183t154 137t229.5 58v224h92v-224q123 -4 221 -42t151.5 -101t53.5 -135q0 -60 -33 -97.5t-90 -37.5q-63 0 -101 32.5t-38 81.5q0 42 12 83.5t21 72.5q-77 60 -197 60v-437q53 -13 103 -30q182 -45 268 -135t86 -228zM606 1217q-106 -6 -168.5 -61t-62.5 -134
q0 -84 42.5 -133t135.5 -76l53 -16v420zM944 289q0 168 -196 223l-50 14v-463q118 9 182 68t64 158z" />
    <glyph glyph-name="percent" unicode="%" horiz-adv-x="1737" 
d="M829 1083q0 -168 -100.5 -269t-263.5 -101q-165 0 -266 103.5t-101 266.5t101 268t264 105q108 0 192 -48t129 -133.5t45 -191.5zM354 0h-149l1177 1425h154zM1636 338q0 -168 -100.5 -270.5t-263.5 -102.5q-161 0 -262 103t-101 270q0 162 99.5 267.5t265.5 105.5
q161 0 261.5 -103.5t100.5 -269.5zM610 1083q0 299 -147 299q-71 0 -108.5 -74t-37.5 -221q0 -303 148 -303q70 0 107.5 75t37.5 224zM1421 338q0 150 -39 224.5t-110 74.5q-72 0 -110 -77t-38 -218q0 -301 150 -301q75 0 111 79.5t36 217.5z" />
    <glyph glyph-name="ampersand" unicode="&#x26;" horiz-adv-x="1544" 
d="M1534 825q-79 -9 -111.5 -18t-58 -24.5t-50.5 -45.5t-90 -159q-77 -152 -143 -238q70 -81 127 -134t96 -75t105 -37t133 -18v-76h-500l-137 158q-193 -193 -416 -193q-119 0 -214.5 45.5t-149 129.5t-53.5 196q0 137 76.5 239.5t257.5 198.5q-101 133 -133.5 206
t-32.5 155q0 140 108.5 229.5t269.5 89.5q148 0 240 -76.5t92 -197.5q0 -106 -62 -192t-204 -167q118 -157 253 -310l89 -105q62 92 97.5 182t35.5 151q0 32 -45.5 51.5t-126.5 34.5v74h547v-74zM809 1161q0 97 -44.5 149t-119.5 52q-67 0 -111.5 -48t-44.5 -120
q0 -58 32.5 -126.5t117.5 -182.5q170 104 170 276zM852 219l-102 126q-225 269 -299 368q-123 -101 -123 -283q0 -136 81.5 -221.5t211.5 -85.5q69 0 124.5 22.5t106.5 73.5z" />
    <glyph glyph-name="quotesingle" unicode="'" horiz-adv-x="496" 
d="M387 1393q0 -35 -37 -184q-49 -200 -71 -314h-64q-22 121 -69 313q-37 149 -37 185q0 60 38 98.5t101 38.5q64 0 101.5 -39t37.5 -98z" />
    <glyph glyph-name="parenleft" unicode="(" horiz-adv-x="842" 
d="M774 -328q-198 25 -347 143.5t-230.5 320t-81.5 462.5q0 263 81.5 466t229.5 322t348 146v-86q-391 -75 -391 -848q0 -381 99 -593.5t292 -246.5v-86z" />
    <glyph glyph-name="parenright" unicode=")" horiz-adv-x="842" 
d="M725 598q0 -260 -81.5 -461t-231 -321t-344.5 -144v86q193 34 292 246.5t99 593.5q0 772 -391 848v86q198 -26 346.5 -145.5t229.5 -321.5t81 -467z" />
    <glyph glyph-name="asterisk" unicode="*" horiz-adv-x="977" 
d="M895 1092q0 -42 -24.5 -61t-59.5 -19q-14 0 -40 7q-159 38 -241 48q45 -59 82 -98t64 -68t42 -51.5t15 -46.5q0 -29 -26 -51.5t-58 -22.5q-58 0 -82 82q-36 120 -50.5 160.5t-29.5 72.5q-28 -67 -58 -170l-19 -63q-24 -82 -82 -82q-31 0 -56.5 22.5t-25.5 51.5
q0 24 15 46.5t41.5 51.5t63 68t80.5 98q-87 -10 -240 -48q-26 -7 -40 -7q-35 0 -58.5 19t-23.5 61q0 37 23.5 57t58.5 20q14 0 40 -6q166 -38 240 -47q-44 58 -80.5 97.5t-63 68.5t-41.5 51.5t-15 46.5q0 28 25.5 51t56.5 23q57 0 82 -81q26 -87 39.5 -131t37.5 -101
q34 75 62 170l18 62q25 81 82 81q31 0 57.5 -22.5t26.5 -51.5q0 -25 -15 -47.5t-42 -51t-64 -68t-82 -97.5q75 9 241 47q26 6 40 6q35 0 59.5 -20t24.5 -57z" />
    <glyph glyph-name="plus" unicode="+" 
d="M762 496v-463h-146v463h-462v143h462v461h146v-461h463v-143h-463z" />
    <glyph glyph-name="comma" unicode="," horiz-adv-x="612" 
d="M483 43q0 -114 -92 -232t-223 -184l-47 70q115 63 172 138t67 165h-53q-82 0 -128 39t-46 113q0 57 44 100t106 43q98 0 149 -65.5t51 -186.5z" />
    <glyph glyph-name="hyphen" unicode="-" horiz-adv-x="770" 
d="M86 449v190h600v-190h-600z" />
    <glyph glyph-name="hyphen" unicode="&#xad;" horiz-adv-x="770" 
d="M86 449v190h600v-190h-600z" />
    <glyph glyph-name="period" unicode="." horiz-adv-x="612" 
d="M475 139q0 -65 -48.5 -114.5t-119.5 -49.5t-119.5 49.5t-48.5 114.5q0 69 49.5 118.5t118.5 49.5t118.5 -49.5t49.5 -118.5z" />
    <glyph glyph-name="slash" unicode="/" horiz-adv-x="963" 
d="M193 -424h-156l690 1948h156z" />
    <glyph glyph-name="zero" unicode="0" horiz-adv-x="1264" 
d="M1182 711q0 -357 -145.5 -551.5t-405.5 -194.5q-266 0 -407.5 194t-141.5 552q0 346 143.5 542.5t407.5 196.5q176 0 298.5 -88.5t186.5 -254t64 -396.5zM883 711q0 326 -63.5 492.5t-186.5 166.5q-125 0 -188.5 -167.5t-63.5 -491.5q0 -333 63.5 -499.5t186.5 -166.5
q125 0 188.5 169.5t63.5 496.5z" />
    <glyph glyph-name="one" unicode="1" horiz-adv-x="1264" 
d="M233 74q154 9 199 22.5t67.5 40t22.5 66.5v1005h-286v90h69q112 0 211 42.5t152 109.5h131q-11 -242 -11 -309v-932q0 -35 15 -58t49 -40t99.5 -26t109.5 -11v-74h-828v74z" />
    <glyph glyph-name="two" unicode="2" horiz-adv-x="1264" 
d="M106 0v178q60 103 263 269q236 192 297 261.5t90.5 147t29.5 178.5q0 158 -63.5 243t-175.5 85q-50 0 -94 -15.5t-70 -41.5l12 -40q25 -86 25 -143q0 -54 -41.5 -89.5t-112.5 -35.5q-63 0 -98 39.5t-35 102.5q0 83 58.5 154.5t164.5 114t238 42.5q230 0 360.5 -110.5
t130.5 -311.5q0 -98 -28.5 -167t-82 -125t-130.5 -106t-174 -108q-131 -78 -227.5 -143.5t-153.5 -128.5v-4h846v-246h-1029z" />
    <glyph glyph-name="three" unicode="3" horiz-adv-x="1264" 
d="M1130 408q0 -125 -75.5 -224.5t-210.5 -154t-301 -54.5q-126 0 -230.5 39t-164.5 107.5t-60 146.5q0 64 37 106t98 42q71 0 111.5 -36t40.5 -91q0 -53 -25 -135l-12 -39q69 -54 188 -54q141 0 222 95t81 256q0 145 -64.5 212.5t-197.5 67.5h-129v117h88q132 0 191 75.5
t59 229.5q0 122 -56.5 185t-162.5 63q-85 0 -166 -57q35 -105 35 -183q0 -54 -40 -89.5t-112 -35.5q-60 0 -95.5 41t-35.5 105q0 78 62 150.5t170.5 114.5t240.5 42q137 0 237.5 -39t160 -119.5t59.5 -171.5q0 -129 -85 -217t-240 -125v-16q111 -8 201.5 -54t135.5 -122
t45 -178z" />
    <glyph glyph-name="four" unicode="4" horiz-adv-x="1264" 
d="M979 383v-383h-264v383h-649v190l708 865h205v-865h209v-190h-209zM715 1206l-518 -633h518v633z" />
    <glyph glyph-name="five" unicode="5" horiz-adv-x="1264" 
d="M1122 475q0 -142 -76 -256t-211.5 -178t-295.5 -64q-122 0 -225.5 38t-162.5 105t-59 144q0 64 37 106t98 42q69 0 110.5 -36.5t41.5 -92.5q0 -49 -26 -135l-11 -39q71 -46 166 -46q92 0 166 50.5t114.5 143.5t40.5 216q0 140 -80 232t-208 92q-173 0 -281 -133l-72 26
l91 729h780v-245h-705l-47 -359q156 96 322 96q140 0 257.5 -56.5t176.5 -155t59 -224.5z" />
    <glyph glyph-name="six" unicode="6" horiz-adv-x="1264" 
d="M1165 461q0 -137 -68 -251.5t-189 -179.5t-269 -65q-242 0 -386.5 160.5t-144.5 433.5q0 239 104 432.5t297.5 313.5t448.5 151l21 -94l-99 -19q-203 -61 -320.5 -199.5t-154.5 -367.5q80 71 163.5 102t189.5 31q112 0 207 -59t147.5 -162t52.5 -227zM870 434
q0 164 -65 258t-172 94q-69 0 -126 -26.5t-108 -89.5l-2 -123q0 -232 65.5 -365t178.5 -133q106 0 167.5 105.5t61.5 279.5z" />
    <glyph glyph-name="seven" unicode="7" horiz-adv-x="1264" 
d="M446 -20h-137l705 1198h-537q-141 0 -187 -17.5t-72 -67t-40 -139.5h-67v463h1089v-112z" />
    <glyph glyph-name="eight" unicode="8" horiz-adv-x="1264" 
d="M1180 387q0 -119 -71.5 -216.5t-201.5 -152.5t-294 -55q-156 0 -275.5 48.5t-185.5 138t-66 202.5q0 253 328 350q-140 70 -206 164.5t-66 202.5q0 106 67 196t185.5 141.5t261.5 51.5q207 0 339 -100t132 -256q0 -104 -68.5 -189t-216.5 -139q173 -67 255.5 -160
t82.5 -227zM865 1108q0 118 -61 192t-167 74q-98 0 -162.5 -67t-64.5 -170q0 -62 23 -105.5t68.5 -79.5t113 -69t155.5 -74q95 93 95 299zM912 313q0 66 -28 112t-82 84.5t-133.5 75t-182.5 83.5q-65 -47 -100 -124.5t-35 -174.5q0 -146 77.5 -234t208.5 -88q127 0 201 72.5
t74 193.5z" />
    <glyph glyph-name="nine" unicode="9" horiz-adv-x="1264" 
d="M1153 858q0 -236 -102.5 -424t-296.5 -307t-455 -154l-18 95l96 16q205 60 322.5 195.5t154.5 363.5q-79 -69 -159.5 -100t-192.5 -31q-111 0 -205 59t-147.5 162t-53.5 230q0 135 68.5 249.5t190 178t266.5 63.5q158 0 279.5 -72.5t187 -208t65.5 -315.5zM864 872
q0 232 -65.5 365t-177.5 133q-105 0 -168.5 -102t-63.5 -279q0 -160 65 -257t175 -97q69 0 125.5 26t105.5 89z" />
    <glyph glyph-name="colon" unicode=":" horiz-adv-x="696" 
d="M514 825q0 -69 -48 -117.5t-118 -48.5q-71 0 -119.5 49.5t-48.5 116.5t49 116.5t119 49.5q67 0 116.5 -49t49.5 -117zM514 139q0 -67 -49 -115.5t-117 -48.5q-71 0 -119.5 49.5t-48.5 114.5q0 69 49.5 118.5t118.5 49.5q67 0 116.5 -49t49.5 -119z" />
    <glyph glyph-name="semicolon" unicode=";" horiz-adv-x="696" 
d="M514 825q0 -69 -48 -117.5t-118 -48.5q-71 0 -119.5 49.5t-48.5 116.5t49 116.5t119 49.5q67 0 116.5 -49t49.5 -117zM526 43q0 -114 -91.5 -231.5t-225.5 -184.5l-45 70q115 63 172 138t67 165h-53q-82 0 -129 39.5t-47 112.5q0 58 45 100.5t107 42.5q97 0 148.5 -65.5
t51.5 -186.5z" />
    <glyph glyph-name="semicolon" unicode="&#x37e;" horiz-adv-x="696" 
d="M514 825q0 -69 -48 -117.5t-118 -48.5q-71 0 -119.5 49.5t-48.5 116.5t49 116.5t119 49.5q67 0 116.5 -49t49.5 -117zM526 43q0 -114 -91.5 -231.5t-225.5 -184.5l-45 70q115 63 172 138t67 165h-53q-82 0 -129 39.5t-47 112.5q0 58 45 100.5t107 42.5q97 0 148.5 -65.5
t51.5 -186.5z" />
    <glyph glyph-name="less" unicode="&#x3c;" 
d="M201 504v127l962 489v-162l-778 -391l778 -391v-162z" />
    <glyph glyph-name="equal" unicode="=" 
d="M168 693v143h1040v-143h-1040zM168 299v143h1040v-143h-1040z" />
    <glyph glyph-name="greater" unicode="&#x3e;" 
d="M215 14v162l778 391l-778 391v162l963 -489v-127z" />
    <glyph glyph-name="question" unicode="?" horiz-adv-x="1051" 
d="M946 1038q0 -191 -127 -313t-346 -143l-4 -179h-90v385q163 15 245.5 93.5t82.5 214.5q0 130 -61 202t-171 72q-80 0 -133 -37q9 -34 20 -74.5t11 -82.5q0 -53 -40.5 -87t-109.5 -34q-61 0 -96 39t-35 104t52.5 125t143 94.5t199.5 34.5q206 0 332.5 -114.5t126.5 -299.5
zM592 135q0 -67 -49 -113.5t-115 -46.5q-69 0 -117.5 47.5t-48.5 112.5t49 113.5t117 48.5q66 0 115 -47.5t49 -114.5z" />
    <glyph glyph-name="at" unicode="@" horiz-adv-x="1942" 
d="M1571 -121q-115 -97 -260.5 -147.5t-304.5 -50.5q-237 0 -435.5 104t-303.5 282.5t-105 409.5q0 243 124 452t335 326t471 117q207 0 363 -80t242.5 -232t86.5 -343q0 -161 -63 -298t-174.5 -215.5t-248.5 -78.5q-99 0 -163 39.5t-76 107.5h-6q-50 -63 -107 -103
t-131 -40q-114 0 -180 74t-66 205q0 124 73.5 262t186 215.5t232.5 77.5q128 0 156 -111h4l36 98h203l-194 -547q-10 -22 -15.5 -54.5t-5.5 -53.5q0 -94 84 -94q102 0 183.5 65.5t126 187t44.5 273.5q0 164 -72.5 290.5t-209 195.5t-318.5 69q-200 0 -375.5 -106
t-271.5 -285t-96 -399q0 -226 82.5 -389.5t235 -249.5t356.5 -86q167 0 293 44t229 126zM1186 750q-9 66 -35.5 103.5t-85.5 37.5q-67 0 -130 -69.5t-105 -192.5t-42 -242q0 -158 86 -158q49 0 91 30t86 101z" />
    <glyph glyph-name="A" unicode="A" horiz-adv-x="1462" 
d="M831 0v74q85 7 139 22.5t54 34.5q0 10 -3 22.5t-126 329.5h-494q-40 -98 -70 -190.5t-30 -130.5q0 -34 54 -57t155 -31v-74h-559v74q91 7 150.5 47t95.5 129l477 1190h141q133 -330 405 -1029l78 -198q25 -60 73.5 -94.5t144.5 -44.5v-74h-685zM645 1108l-207 -533h418z
" />
    <glyph glyph-name="B" unicode="B" horiz-adv-x="1444" 
d="M1356 385q0 -186 -148 -285.5t-422 -99.5h-704v74q28 2 77 9.5t62 12.5q62 28 62 103v1009q0 61 -36.5 88.5t-160.5 46.5v76h713q233 0 356 -80.5t123 -232.5q0 -124 -85 -208.5t-269 -129.5v-12q206 -25 319 -123t113 -248zM965 1083q0 250 -267 250l-131 -4v-534h88
q150 0 230 71.5t80 216.5zM1034 410q0 141 -88 219t-244 78q-85 0 -135 -5v-509q5 -51 52.5 -79t128.5 -28q135 0 210.5 84.5t75.5 239.5z" />
    <glyph glyph-name="C" unicode="C" horiz-adv-x="1389" 
d="M1362 356q-173 -393 -594 -393q-196 0 -355.5 92.5t-249 260.5t-89.5 380q0 216 92.5 389.5t258.5 270t372 96.5q198 0 366 -94l51 61h82l11 -512h-86q-64 235 -166.5 345t-245.5 110q-196 0 -306 -168.5t-110 -474.5q0 -290 123.5 -459.5t333.5 -169.5q279 0 432 311z
" />
    <glyph glyph-name="D" unicode="D" horiz-adv-x="1620" 
d="M1546 700q0 -209 -98.5 -365.5t-287.5 -245.5t-427 -89h-651v74q116 8 139 18q62 25 62 101v1015q0 69 -49 98t-150 37v76h688q222 0 407 -93.5t276 -253t91 -372.5zM1225 700q0 290 -136.5 460.5t-365.5 170.5l-156 -4v-1081q0 -82 48 -121t151 -39q228 0 343.5 155
t115.5 459z" />
    <glyph glyph-name="E" unicode="E" horiz-adv-x="1407" 
d="M1331 0h-1253v74q61 5 109 13.5t72 35t24 74.5v1011q0 46 -20 71t-75 42t-110 22v76h1177v-352h-75q-17 53 -56.5 112.5t-85 99t-89 47t-169.5 7.5h-213v-555h152q85 0 133 25.5t76.5 91t36.5 121.5h75v-574h-75q-9 67 -37.5 134t-77 91.5t-131.5 24.5h-152v-418
q0 -88 17 -124.5t60 -50t159 -13.5q159 0 223 12.5t86 36.5q43 45 99.5 144.5t74.5 150.5h72z" />
    <glyph glyph-name="F" unicode="F" horiz-adv-x="1300" 
d="M1196 1053q-29 89 -99 176t-130 96q-59 8 -170 8h-230v-563h150q63 0 107 13.5t77 50.5q21 18 41.5 70t26.5 106h75v-578h-75q-6 61 -36.5 132.5t-80.5 95.5t-135 24h-150v-479q0 -48 23 -75.5t81 -40t95 -15.5v-74h-688v74q121 9 151 23.5t42 40t12 57.5v1013
q0 45 -19 70t-76 42.5t-110 22.5v76h1192v-366h-74z" />
    <glyph glyph-name="G" unicode="G" horiz-adv-x="1569" 
d="M1559 571q-97 -12 -128.5 -28t-43 -44t-11.5 -59v-201q0 -92 4 -130q-112 -59 -277.5 -102.5t-311.5 -43.5q-204 0 -368.5 92t-256.5 260t-92 381q0 219 94.5 392t267 268.5t387.5 95.5q206 0 381 -94l51 61h84l9 -508h-84q-69 234 -174.5 342.5t-262.5 108.5
q-202 0 -317 -171.5t-115 -471.5q0 -303 118.5 -482.5t324.5 -179.5q157 0 264 86q4 48 4 163v120q0 71 -42 100t-146 41l-37 4v76h678v-76z" />
    <glyph glyph-name="H" unicode="H" horiz-adv-x="1769" 
d="M1006 0v74q114 9 135 18q37 14 49 40t12 61v497h-635v-485q0 -73 60 -103q10 -6 57.5 -16t75.5 -12v-74h-676v74q107 9 137 18q62 25 62 103v1013q0 70 -62 101q-76 29 -137 34v76h676v-76q-103 -8 -148 -30t-45 -94v-433h635v422q0 78 -69 104.5t-127 30.5v76h677v-76
q-115 -9 -155.5 -32.5t-40.5 -91.5v-1014q0 -50 24 -77t79 -39t93 -15v-74h-677z" />
    <glyph glyph-name="I" unicode="I" horiz-adv-x="856" 
d="M72 0v74q98 7 125.5 12t48.5 18t30 35.5t9 53.5v1015q0 45 -20 70.5t-82.5 43.5t-110.5 21v76h712v-76q-129 -9 -172 -33t-43 -91v-1016q0 -72 64 -101q12 -6 65 -15.5t86 -12.5v-74h-712z" />
    <glyph glyph-name="J" unicode="J" horiz-adv-x="1139" 
d="M1085 1343q-119 -12 -157.5 -33.5t-38.5 -90.5v-811q0 -120 -62.5 -223t-174.5 -162.5t-249 -59.5q-179 0 -285 93t-106 245q0 84 45.5 139.5t122.5 55.5q73 0 117.5 -41t44.5 -109q0 -37 -14 -67t-33.5 -57t-41 -51.5t-36.5 -49.5v-8q16 -25 54 -44.5t89 -19.5
q244 0 244 383v776q0 43 -19.5 69t-63 40.5t-128.5 25.5v76h692v-76z" />
    <glyph glyph-name="K" unicode="K" horiz-adv-x="1546" 
d="M1124 0q-95 148 -203 290t-317 384h-37v-469q0 -73 60 -103q11 -7 55 -16t74 -12v-74h-672v74q117 9 137 18q62 25 62 101v1015q0 76 -67 103t-132 32v76h684v-76q-67 -5 -119.5 -18.5t-67 -39.5t-14.5 -66v-486h29q217 187 355.5 346t138.5 221q0 15 -26.5 25t-121.5 18
v76h576v-76q-198 -19 -287 -108l-106 -110q-215 -227 -289 -300q142 -168 234 -282l247 -305q39 -48 81 -82.5t87 -55t121 -26.5v-74h-482z" />
    <glyph glyph-name="L" unicode="L" horiz-adv-x="1321" 
d="M1290 0h-1206v74l73 9q47 5 64 11q62 25 62 103v1009q0 61 -40.5 90t-158.5 47v76h688v-76q-127 -10 -166 -34t-39 -92v-945q0 -94 16 -127.5t55.5 -47t166.5 -13.5q211 0 262 51q43 45 97 138.5t83 164.5h74z" />
    <glyph glyph-name="M" unicode="M" horiz-adv-x="1997" 
d="M1214 0v74q109 11 146.5 24.5t56.5 38t19 68.5v1046h-9l-487 -1228h-86l-87 241l-376 1008h-6v-856q0 -77 6.5 -130t20.5 -89.5t38 -58.5t87.5 -41.5t95.5 -22.5v-74h-592v74q87 7 144 33t75.5 90.5t18.5 208.5v712q0 77 -25.5 124t-70.5 71.5t-132 29.5v76h567
l379 -1001l322 825q15 42 28 95.5t17 80.5h547v-76q-112 -6 -154.5 -36.5t-42.5 -87.5v-1014q0 -59 41 -88t158 -43v-74h-699z" />
    <glyph glyph-name="N" unicode="N" horiz-adv-x="1645" 
d="M1626 1343q-64 -5 -129 -27t-86.5 -85.5t-21.5 -216.5v-1026h-132l-872 1130v-698q0 -77 6.5 -130t20 -90.5t36.5 -60t83.5 -41t105.5 -24.5v-74h-596v74q37 3 97 20t82 36.5t35 53.5t18.5 87.5t5.5 136.5v686q0 63 -26.5 116.5t-90.5 88.5t-135 44v76h469l786 -1022v607
q0 73 -5.5 125.5t-18.5 89t-31.5 57t-80.5 41t-114 26.5v76h594v-76z" />
    <glyph glyph-name="O" unicode="O" horiz-adv-x="1602" 
d="M1526 713q0 -215 -93 -387t-259.5 -267.5t-376.5 -95.5q-202 0 -368.5 94.5t-259.5 264.5t-93 378q0 217 93.5 390t261.5 268.5t370 95.5t369.5 -94t261.5 -263.5t94 -383.5zM1204 711q0 306 -105.5 478.5t-297.5 172.5q-194 0 -300 -170.5t-106 -484.5
q0 -308 106.5 -479t299.5 -171t298 170.5t105 483.5z" />
    <glyph glyph-name="P" unicode="P" horiz-adv-x="1341" 
d="M1290 1067q0 -212 -157.5 -331.5t-430.5 -119.5h-135v-413q0 -77 60 -105q17 -7 68 -14t77 -10v-74h-688v74l73 9q47 5 64 11q62 25 62 103v1013q0 78 -62 105q-73 23 -141 28v76h715q235 0 365 -91.5t130 -260.5zM973 1016q0 162 -74 238.5t-221 76.5h-111v-624h70
q161 0 248.5 79t87.5 230z" />
    <glyph glyph-name="Q" unicode="Q" horiz-adv-x="1602" 
d="M1526 713q0 -249 -124 -435t-347 -268q3 -75 37.5 -142.5t90 -107t113.5 -39.5q92 0 187 19v-82q-62 -25 -161 -42t-189 -17q-166 0 -269.5 96.5t-120.5 269.5q-189 12 -342.5 109.5t-239 262t-85.5 363.5q0 217 93.5 390t261.5 268.5t370 95.5t369.5 -94t261.5 -263.5
t94 -383.5zM1204 711q0 306 -105.5 478.5t-297.5 172.5q-194 0 -300 -170.5t-106 -484.5q0 -308 106.5 -479t299.5 -171t298 170.5t105 483.5z" />
    <glyph glyph-name="R" unicode="R" horiz-adv-x="1534" 
d="M1124 0q-153 236 -245 364t-213 277h-99v-440q0 -76 60 -103q15 -6 63.5 -14t71.5 -10v-74h-678v74l73 9q47 5 64 11q62 28 62 103v1013q0 78 -62 105q-16 5 -38 10t-99 18v76h725q241 0 368.5 -87t127.5 -251q0 -141 -81.5 -233.5t-265.5 -147.5l347 -454
q39 -50 76.5 -87.5t74.5 -57t133 -27.5v-74h-465zM985 1057q0 134 -76 204t-219 70h-123v-600h103q146 0 230.5 85t84.5 241z" />
    <glyph glyph-name="S" unicode="S" horiz-adv-x="1239" 
d="M1161 408q0 -125 -68 -227.5t-192 -159t-276 -56.5q-100 0 -202.5 27t-191.5 78l-57 -70h-82l-14 498h84q76 -221 194 -330t267 -109q130 0 202 64t72 178q0 174 -221 254q-230 81 -291 107q-268 113 -268 385q0 112 62.5 206t174 146.5t244.5 52.5q87 0 177.5 -24.5
t172.5 -71.5l51 63h84l9 -477h-84q-59 174 -111.5 253.5t-122 122t-164.5 42.5q-103 0 -170 -60.5t-67 -150.5q0 -102 70.5 -165t281.5 -132q250 -83 343 -185t93 -259z" />
    <glyph glyph-name="T" unicode="T" horiz-adv-x="1333" 
d="M1245 1024q-29 96 -96 194.5t-125 108.5q-101 8 -162 8h-53v-1124q0 -51 24 -78t91.5 -41.5t107.5 -17.5v-74h-731v74q27 2 87 9.5t73 12.5q63 27 63 105v1134h-51h-22t-142 -8q-37 -6 -80.5 -54t-84 -120.5t-56.5 -128.5h-76v395h1307v-395h-74z" />
    <glyph glyph-name="U" unicode="U" horiz-adv-x="1626" 
d="M1618 1343q-74 -6 -136 -29t-82 -90t-20 -206v-572q0 -145 -71.5 -254.5t-196.5 -169t-276 -59.5q-268 0 -425 124.5t-157 338.5v782q0 39 -17 66t-48 41t-123 31v73h667v-73q-99 -15 -133 -25q-61 -20 -61 -102v-750q0 -190 90.5 -286.5t267.5 -96.5t276 103.5t99 285.5
v533q0 226 -68 278q-21 16 -75.5 33t-108.5 24v76h598v-76z" />
    <glyph glyph-name="V" unicode="V" horiz-adv-x="1462" 
d="M1503 1343q-52 -6 -92.5 -22t-74 -49t-60.5 -98l-126 -304l-276 -673l-86 -215h-141l-289 740l-186 470q-54 135 -223 151v76h678v-73q-88 -10 -135.5 -22.5t-47.5 -37.5q0 -17 15 -53l126 -327l232 -597l174 433l125 321q49 130 49 192q0 70 -213 88v76h551v-76z" />
    <glyph glyph-name="W" unicode="W" horiz-adv-x="2152" 
d="M2185 1343q-51 -5 -97 -27t-73.5 -53t-46.5 -89l-389 -1192h-145l-367 1073l-356 -1073h-144l-377 1210q-17 51 -48 82.5t-68 47.5t-97 21v76h668v-73q-88 -10 -134 -22.5t-46 -35.5t8 -55l91 -300l175 -568l340 1044h156l364 -1071q54 174 99.5 329t100 349t54.5 239
q0 34 -46.5 56t-164.5 32v76h543v-76z" />
    <glyph glyph-name="X" unicode="X" horiz-adv-x="1554" 
d="M793 0v74q92 5 141 17.5t49 41.5q0 54 -276 459q-316 -385 -316 -451q0 -37 39.5 -49t120.5 -18v-74h-541v74q65 6 98.5 15.5t67.5 31.5t67.5 55.5t407.5 499.5l-340 493q-62 86 -102 116t-85 42.5t-106 15.5v76h764v-76q-94 -5 -142 -18t-48 -39q0 -52 250 -420
q282 350 282 412q0 32 -39 45.5t-122 19.5v76h540v-76q-67 -4 -102.5 -15t-74.5 -39t-101 -100t-326 -405l367 -536q33 -46 71.5 -86t75.5 -60t143 -28v-74h-763z" />
    <glyph glyph-name="Y" unicode="Y" 
d="M1440 1343q-77 -12 -114.5 -36t-58.5 -44t-57 -69t-91 -134t-125.5 -201.5t-107.5 -180t-47 -101t-10 -128.5v-236q0 -32 11 -56.5t35.5 -40t90 -28t87.5 -14.5v-74h-729v74q125 10 159 22q62 27 62 107v297q0 38 -9 66t-61 122q-111 205 -274 483q-37 65 -77.5 102
t-81 51.5t-95.5 18.5v76h708v-76l-57 -3q-131 -4 -131 -46q0 -21 77 -164.5t240 -427.5q165 262 246.5 402t81.5 166q0 32 -40 49.5t-142 23.5v76h510v-76z" />
    <glyph glyph-name="Z" unicode="Z" horiz-adv-x="1321" 
d="M1257 0h-1237v47l906 1286h-318q-134 0 -192 -20q-113 -29 -254 -312h-74l43 418h1149v-49l-905 -1284h348q131 0 205.5 11.5t103.5 43.5q49 50 106 139.5t95 180.5h72z" />
    <glyph glyph-name="bracketleft" unicode="[" horiz-adv-x="842" 
d="M176 -309v1829h598v-97h-352v-1638h352v-94h-598z" />
    <glyph glyph-name="backslash" unicode="\" horiz-adv-x="963" 
d="M770 -424l-692 1948h158l688 -1948h-154z" />
    <glyph glyph-name="bracketright" unicode="]" horiz-adv-x="842" 
d="M68 -309v94h350v1638h-350v97h598v-1829h-598z" />
    <glyph glyph-name="asciicircum" unicode="^" 
d="M1008 778l-318 518l-321 -518h-170l428 678h127l426 -678h-172z" />
    <glyph glyph-name="underscore" unicode="_" 
d="M-4 -293v113h1388v-113h-1388z" />
    <glyph glyph-name="grave" unicode="`" horiz-adv-x="1024" 
d="M698 1106l-290 193q-77 49 -106.5 80.5t-29.5 80.5q0 35 32 58.5t71 23.5q50 0 84 -20.5t69 -75.5q86 -131 211 -305z" />
    <glyph glyph-name="a" unicode="a" horiz-adv-x="1126" 
d="M1102 18q-30 -13 -87.5 -29t-107.5 -16q-187 0 -223 144h-6q-137 -146 -332 -146q-116 0 -191 69t-75 179q0 103 52.5 171.5t162.5 107.5l101 35q115 37 184 60t100 40v96q0 104 -44.5 157.5t-123.5 53.5q-48 0 -82 -14.5t-49 -28.5q3 -23 14 -58t11 -77q0 -49 -39 -79
t-107 -30q-62 0 -97.5 35t-35.5 96q0 62 58.5 116t153 86t187.5 32q157 0 243.5 -35t127.5 -109t41 -188l-6 -481q0 -33 8 -55t27 -38t37.5 -20t51 -4h46.5v-70zM680 545q-140 -45 -202.5 -82.5t-94 -87t-31.5 -117.5q0 -73 36 -113.5t101 -40.5q37 0 66 10t54 26t67 61z
" />
    <glyph glyph-name="b" unicode="b" horiz-adv-x="1235" 
d="M1161 492q0 -146 -64.5 -266.5t-179 -189.5t-251.5 -69q-70 0 -127 11.5t-102 30t-111 61.5l-109 -123l-61 18q10 155 10 385v957q0 31 -11 58.5t-28.5 46t-56 28.5t-88.5 14v70l428 24l14 -16v-649l6 -2q60 63 137.5 99t155.5 36q198 0 318 -143.5t120 -380.5zM879 481
q0 188 -68.5 295t-192.5 107q-119 0 -194 -88v-580q20 -73 75 -120.5t132 -47.5q114 0 181 116.5t67 317.5z" />
    <glyph glyph-name="c" unicode="c" horiz-adv-x="1008" 
d="M1006 240q-67 -125 -181 -198t-247 -73q-236 0 -371 141t-135 388q0 140 67 260.5t186 190t267 69.5q167 0 265.5 -70t98.5 -188q0 -70 -35.5 -107t-101.5 -37q-65 0 -107 32t-42 81q0 47 23 133l7 33q-24 43 -106 43q-111 0 -174.5 -113t-63.5 -317q0 -180 80.5 -295
t210.5 -115q91 0 156.5 40.5t130.5 148.5z" />
    <glyph glyph-name="d" unicode="d" horiz-adv-x="1266" 
d="M834 -6l-17 14v92l-8 2q-60 -63 -137.5 -98t-155.5 -35q-124 0 -226 67t-160 189t-58 275q0 142 64 260.5t177 187t242 68.5q150 0 260 -64v336q0 50 -21 88t-65.5 54.5t-142.5 25.5v68l473 24l14 -16v-1321q0 -29 8.5 -51t26 -37.5t39 -22t104.5 -12.5v-70zM815 766
q-26 81 -80 122.5t-127 41.5q-113 0 -183.5 -121t-70.5 -324q0 -177 69.5 -283t192.5 -106q59 0 105 21.5t94 77.5v571z" />
    <glyph glyph-name="e" unicode="e" horiz-adv-x="1079" 
d="M1040 236q-69 -125 -187 -196t-261 -71q-241 0 -380.5 142t-139.5 389q0 141 63 261t177 188.5t257 68.5q210 0 327.5 -110.5t117.5 -315.5v-66h-664q0 -212 84 -320t246 -108q86 0 154 42.5t133 144.5zM739 612q0 168 -44.5 247t-133.5 79q-95 0 -151 -87t-60 -241z" />
    <glyph glyph-name="f" unicode="f" horiz-adv-x="735" 
d="M905 1403q0 -59 -34 -95t-95 -36q-38 0 -64.5 14t-48 39.5t-40 60.5t-39.5 76q-63 -18 -89 -112.5t-26 -274.5v-92h266v-100h-264v-699q0 -47 30 -73t94 -33l69 -8v-70h-598v70q86 4 116.5 27t30.5 77v709h-199v100h199v21q0 245 128.5 394.5t342.5 149.5
q105 0 163 -39.5t58 -105.5z" />
    <glyph glyph-name="g" unicode="g" horiz-adv-x="1112" 
d="M1090 -90q0 -163 -148.5 -258.5t-415.5 -95.5q-240 0 -365.5 64t-125.5 194q0 88 77 143t216 61v13q-185 57 -185 188q0 116 179 174v15q-230 92 -230 286q0 145 119.5 233.5t304.5 88.5q90 0 205 -33h364v-100h-225q76 -92 76 -201q0 -87 -53 -157.5t-147 -111
t-204 -40.5h-141q-32 -21 -40 -31t-12.5 -21t-4.5 -24q0 -35 20.5 -53t58.5 -26.5t142 -10.5l242 -12q130 -10 211.5 -88.5t81.5 -196.5zM678 686q0 123 -43 189.5t-123 66.5q-158 0 -158 -248q0 -112 44 -181t116 -69q77 0 120.5 65t43.5 177zM858 -145q0 107 -106 131
q-64 12 -330 12q-141 -46 -141 -182q0 -81 77 -131t209 -50q291 0 291 220z" />
    <glyph glyph-name="h" unicode="h" horiz-adv-x="1292" 
d="M707 0v70q70 5 92 12q47 20 47 92v488q0 105 -44.5 158.5t-115.5 53.5q-70 0 -133.5 -36.5t-103.5 -100.5v-553q0 -65 49 -92q36 -15 92 -22v-70h-545v70q63 5 92 12q56 21 56 92v1133q0 43 -23 81.5t-60.5 50t-105.5 15.5v70l430 24l15 -16v-688h4l64 60
q119 112 288 112q145 0 223 -85t78 -247v-502q0 -53 29 -78t114 -34v-70h-542z" />
    <glyph glyph-name="i" unicode="i" horiz-adv-x="662" 
d="M485 1374q0 -67 -49 -114.5t-117 -47.5q-66 0 -112.5 46.5t-46.5 111.5q0 66 46.5 114t112.5 48q69 0 117.5 -46.5t48.5 -111.5zM66 0v70q84 6 105.5 18t32.5 33.5t11 52.5v596q0 54 -42 92t-136 45v70l420 22l14 -14v-799q0 -49 32.5 -78t117.5 -38v-70h-555z" />
    <glyph glyph-name="j" unicode="j" horiz-adv-x="653" 
d="M500 1376q0 -69 -48 -116.5t-116 -47.5q-66 0 -114 46.5t-48 111.5q0 66 48 114t114 48q67 0 115.5 -46t48.5 -110zM489 88q0 -151 -59 -274t-166.5 -190.5t-243.5 -67.5q-100 0 -158.5 39t-58.5 106q0 58 34 94.5t93 36.5q40 0 69 -16t53 -47t69 -127q60 16 85 105.5
t25 299.5v717q0 68 -55 108q-29 20 -151 37v68l452 22l12 -14v-897z" />
    <glyph glyph-name="k" unicode="k" horiz-adv-x="1196" 
d="M844 0q-158 254 -324 475l-71 -65v-226q0 -58 32 -82.5t115 -31.5v-70h-551v70q81 6 103.5 16.5t33.5 33.5t11 54v1131q0 43 -22.5 81.5t-61.5 50.5t-105 17v70l430 24l15 -16v-1038q138 127 319 313q33 33 33 59q0 37 -127 56v65h471v-63q-98 -29 -168 -67.5
t-143.5 -101t-124.5 -112.5q112 -150 344 -483q31 -45 69.5 -65t106.5 -25v-70h-385z" />
    <glyph glyph-name="l" unicode="l" horiz-adv-x="645" 
d="M47 0v70q83 6 105 18t32.5 34t10.5 52v1126q0 46 -24 82.5t-72.5 52.5t-98.5 19v70l438 24l15 -16v-1346q0 -54 33.5 -80.5t113.5 -35.5v-70h-553z" />
    <glyph glyph-name="m" unicode="m" horiz-adv-x="1942" 
d="M1364 0v70q81 3 106 25.5t25 78.5v490q0 105 -42 157.5t-112 52.5q-69 0 -131 -36.5t-98 -100.5v-553q0 -50 27 -76.5t104 -37.5v-70h-520v70q81 5 105 28t24 76v490q0 105 -42 157.5t-112 52.5q-69 0 -130 -36t-99 -101v-551q0 -52 28 -79t107 -37v-70h-541v70
q86 4 118 26.5t32 77.5v598q0 59 -44 94.5t-120 40.5v70l404 22l16 -14v-139h4l63 60q59 56 127.5 83t155.5 27q100 0 173 -47.5t112 -130.5l68 63q125 115 290 115q142 0 217.5 -87.5t75.5 -250.5v-494q0 -53 30 -78.5t118 -35.5v-70h-539z" />
    <glyph glyph-name="n" unicode="n" horiz-adv-x="1311" 
d="M727 0v70l49 4q49 4 68.5 28t19.5 72v488q0 106 -43 159t-114 53q-72 0 -137.5 -38t-100.5 -99v-553q0 -65 49 -92q36 -15 92 -22v-70h-547v70q80 5 104 15.5t35 34t11 54.5v596q0 32 -16.5 62t-40.5 49q-37 21 -105 26v70l404 22l14 -14v-141h4l64 60q119 112 286 112
q145 0 223 -85t78 -247v-502q0 -52 31 -77.5t115 -34.5v-70h-543z" />
    <glyph glyph-name="o" unicode="o" horiz-adv-x="1202" 
d="M1130 502q0 -155 -66 -277t-189 -190t-283 -68q-147 0 -267 66t-187.5 185.5t-67.5 273.5q0 234 145 380t387 146q157 0 277.5 -64t185.5 -183.5t65 -268.5zM846 502q0 217 -63 326.5t-181 109.5q-121 0 -183.5 -109.5t-62.5 -322.5q0 -225 62.5 -342t183.5 -117
q118 0 181 118.5t63 336.5z" />
    <glyph glyph-name="p" unicode="p" horiz-adv-x="1257" 
d="M1186 492q0 -144 -63 -262.5t-175.5 -187.5t-242.5 -69q-156 0 -248 68h-8v-289q0 -31 12.5 -55t35 -37t83.5 -23t77 -12v-69h-637v69q93 10 124 21.5t42.5 46t6.5 45.5v1036q-4 67 -56 105q-40 22 -114 28v70l411 22l15 -12v-110l8 -3q68 72 144.5 107t150.5 35
q125 0 224.5 -65.5t154.5 -185.5t55 -273zM903 485q0 185 -68 291.5t-192 106.5q-117 0 -194 -95v-575q22 -69 78 -113.5t128 -44.5q113 0 180.5 112.5t67.5 317.5z" />
    <glyph glyph-name="q" unicode="q" horiz-adv-x="1237" 
d="M637 -444v69q117 8 147.5 30.5t30.5 82.5v358l-6 2q-61 -61 -135 -93t-154 -32q-130 0 -233 66.5t-159 187.5t-56 277q0 144 67 261.5t185 184t254 66.5q163 0 293 -69l57 -32l106 129l56 -10q-17 -272 -17 -352v-926q0 -57 35 -88t145 -43v-69h-616zM815 768
q-26 83 -80.5 124.5t-130.5 41.5q-111 0 -180.5 -122t-69.5 -325q0 -184 72 -285.5t197 -101.5q113 0 192 90v578z" />
    <glyph glyph-name="r" unicode="r" horiz-adv-x="952" 
d="M940 834q0 -66 -38 -113t-99 -47q-65 0 -104.5 32.5t-39.5 86.5q0 42 13 81q-53 -1 -108.5 -35t-94.5 -91v-562q0 -55 31 -80.5t159 -35.5v-70h-596v70q80 5 104 15.5t35 34t11 54.5v596q0 32 -16.5 62t-40.5 49q-37 21 -105 26v70l404 22l14 -14v-141h4q136 168 293 168
q79 0 126.5 -49t47.5 -129z" />
    <glyph glyph-name="s" unicode="s" horiz-adv-x="967" 
d="M897 297q0 -149 -115.5 -238.5t-302.5 -89.5q-75 0 -155 23.5t-142 64.5l-24 -65h-76l-12 358h69q22 -76 75 -147t121.5 -112.5t145.5 -41.5q189 0 189 158q0 63 -49.5 103.5t-214.5 88.5t-237.5 126.5t-72.5 189.5q0 133 107 217t274 84q143 0 256 -55l23 57h73l17 -330
h-72q-30 109 -107 178.5t-173 69.5q-79 0 -124.5 -37t-45.5 -96q0 -46 18.5 -75.5t61.5 -52t178 -63.5q169 -51 242 -125t73 -190z" />
    <glyph glyph-name="t" unicode="t" horiz-adv-x="760" 
d="M741 43q-159 -68 -290 -68q-267 0 -267 267v641h-178v100h182v305h254v-305h281v-100h-279v-539q0 -104 14 -148.5t47 -65.5t93 -21q34 0 78 4.5t65 9.5v-80z" />
    <glyph glyph-name="u" unicode="u" horiz-adv-x="1282" 
d="M848 -6l-17 14v127h-6q-74 -74 -119.5 -102.5t-100.5 -45t-130 -16.5q-139 0 -215 87t-76 255v461q0 41 -19 69.5t-45 42.5t-95 21v70l407 22l12 -14v-674q0 -100 41.5 -154.5t114.5 -54.5q67 0 128.5 35t100.5 96v549q0 36 -15.5 64t-39 42t-123.5 19v70l422 22l14 -14
v-776q0 -26 8.5 -46t26 -37.5t37 -25.5t86.5 -12v-70z" />
    <glyph glyph-name="v" unicode="v" horiz-adv-x="1090" 
d="M1122 922q-113 -21 -157 -119l-64 -143q-107 -233 -196 -441q-50 -107 -87 -227h-133l-69 168q-66 158 -285 653q-18 42 -61 71t-93 36v67h535v-69q-49 -3 -86 -16t-37 -32l14 -45l236 -551l209 490q20 51 20 80q0 24 -39.5 45t-101.5 31v67h395v-65z" />
    <glyph glyph-name="w" unicode="w" horiz-adv-x="1638" 
d="M1661 920q-53 -8 -94.5 -39.5t-61.5 -83.5l-213 -578q-30 -86 -71 -227h-140l-258 702l-254 -702h-137l-60 172l-179 501l-54 146q-14 43 -57.5 72.5t-91.5 36.5v67h526v-69q-119 -13 -119 -48q0 -23 193 -575l237 684h148l254 -690l166 483q13 46 13 66l-1 8
q0 27 -42 48t-99 26v67h395v-67z" />
    <glyph glyph-name="x" unicode="x" horiz-adv-x="1118" 
d="M571 0v70q111 6 111 32q0 21 -84.5 147.5t-108.5 158.5l-136 -175l-48 -63q-24 -30 -24 -49q0 -20 26 -33.5t86 -19.5v-68h-387v68q53 13 96.5 36.5t96.5 77.5l169 199l74 88l-260 367q-26 37 -59.5 57t-99.5 27v67h520v-67q-97 0 -97 -21q0 -28 179 -285l161 213
q19 26 19 43q0 16 -18.5 27.5t-84.5 22.5v67h379v-65q-54 -12 -100 -37t-83 -65.5t-226 -264.5l272 -389q39 -54 75.5 -73t90.5 -23v-70h-539z" />
    <glyph glyph-name="y" unicode="y" horiz-adv-x="1079" 
d="M1112 922q-43 -7 -85 -36.5t-62.5 -68t-184.5 -424.5q-198 -463 -271 -586.5t-148 -187t-164 -63.5q-82 0 -135.5 42.5t-53.5 104.5q0 59 34.5 96t92.5 37q80 0 146 -87l38 -50q41 28 98.5 115t88.5 172q-115 267 -190 428l-185 399q-22 46 -65.5 73t-90.5 34v67h531v-69
q-47 -3 -82 -15.5t-35 -32.5q0 -7 5 -23t65 -153t184 -403q123 286 195 467q24 67 24 86q0 24 -40 45.5t-99 30.5v67h389v-65z" />
    <glyph glyph-name="z" unicode="z" horiz-adv-x="991" 
d="M49 0v61l565 842h-108q-193 0 -254 -24q-26 -13 -56 -76t-42 -129h-66v313h842v-51l-572 -850q128 -2 166 -2q107 0 193 8q42 2 63 26.5t35 55.5q39 100 59 186h66v-360h-891z" />
    <glyph glyph-name="braceleft" unicode="{" horiz-adv-x="952" 
d="M885 -334q-210 0 -314 36.5t-155 116.5t-51 218q0 63 8 126t8 122q0 84 -30 134.5t-92.5 76t-186.5 34.5v142q126 9 187.5 34.5t91.5 76.5t30 135q0 58 -8 122t-8 127q0 135 50.5 215.5t156.5 117t313 36.5v-84q-112 -7 -159 -29.5t-73 -69t-26 -124.5v-213
q0 -117 -35 -192t-103.5 -120t-216.5 -75v-56q144 -28 213.5 -73t105.5 -120.5t36 -195.5v-211q0 -79 26 -124.5t73 -68.5t159 -30v-84z" />
    <glyph glyph-name="bar" unicode="|" horiz-adv-x="780" 
d="M315 -424v1948h150v-1948h-150z" />
    <glyph glyph-name="braceright" unicode="}" horiz-adv-x="952" 
d="M881 530q-125 -9 -187.5 -34.5t-91.5 -76t-29 -134.5q0 -59 6.5 -122t6.5 -126q0 -138 -51 -218.5t-155 -116.5t-312 -36v84q112 7 159 30t73 69t26 124v211q0 119 36 195.5t105 121t213 72.5v56q-148 30 -215.5 74.5t-103 119.5t-35.5 193v213q0 78 -25.5 124t-72.5 69
t-160 30v84q205 0 311 -36.5t156.5 -117.5t50.5 -215q0 -63 -6.5 -127t-6.5 -122q0 -84 28.5 -134.5t89.5 -76.5t190 -35v-142z" />
    <glyph glyph-name="asciitilde" unicode="~" 
d="M1241 725q-30 -84 -85.5 -157t-124 -116.5t-144.5 -43.5q-116 0 -250 78q-70 39 -117.5 58t-89.5 19q-57 0 -101 -36.5t-100 -149.5l-92 35q29 83 88.5 161t127.5 117t136 39q118 0 253 -78q76 -44 119.5 -61t84.5 -17q42 0 74.5 18t60.5 52.5t70 116.5z" />
    <glyph glyph-name="exclamdown" unicode="&#xa1;" horiz-adv-x="723" 
d="M528 1284q0 -64 -47 -112t-116 -48q-70 0 -118 47.5t-48 112.5q0 67 48 114.5t118 47.5q69 0 116 -48t47 -114zM524 129q0 -69 -46.5 -114.5t-112.5 -45.5q-67 0 -114.5 45t-47.5 115q0 54 41 300q49 293 80 544h77q22 -171 83 -546q40 -252 40 -298z" />
    <glyph glyph-name="cent" unicode="&#xa2;" horiz-adv-x="1188" 
d="M1108 248q-62 -113 -165 -183.5t-220 -82.5v-281h-90v281q-232 7 -365 144t-133 372q0 132 63.5 247.5t176.5 187t258 83.5v260h90v-258q147 -9 238.5 -76.5t91.5 -163.5q0 -62 -37 -100.5t-98 -38.5q-56 0 -89.5 32t-33.5 87q0 41 14 125q-8 23 -34.5 38.5t-51.5 16.5
v-834q2 -2 14 -2q98 0 170 46t133 149zM633 938q-104 -22 -160.5 -134t-56.5 -296q0 -149 57.5 -250.5t159.5 -138.5v819z" />
    <glyph glyph-name="sterling" unicode="&#xa3;" horiz-adv-x="1343" 
d="M1229 223v-223h-1108v168q85 28 133 80.5t69 130.5t21 244h-180v106h180l-3 50q-13 162 -13 196q0 137 61 248t172.5 173t257.5 62q106 0 196.5 -39.5t141.5 -107.5t51 -144q0 -66 -36 -105.5t-97 -39.5q-71 0 -113 34.5t-42 90.5q0 28 8.5 66.5t32.5 109.5
q-63 49 -140 49q-102 0 -158.5 -76.5t-56.5 -210.5l10 -356h392v-106h-392q-12 -134 -65.5 -225.5t-171.5 -164.5v-10h850z" />
    <glyph glyph-name="currency" unicode="&#xa4;" horiz-adv-x="1305" 
d="M1028 92l-211 209q-82 -49 -166 -49t-164 49l-213 -211l-94 103l207 210q-47 75 -47 162t47 162l-207 215l99 96l208 -209q79 48 164 48q84 0 162 -46l211 207l100 -96l-209 -215q50 -80 50 -162t-50 -162l209 -213zM834 565q0 79 -53.5 133t-129.5 54t-129 -54.5
t-53 -132.5q0 -77 52.5 -131.5t129.5 -54.5q79 0 131 54.5t52 131.5z" />
    <glyph glyph-name="yen" unicode="&#xa5;" 
d="M1401 1343l-26 -5q-109 -22 -178.5 -115t-277.5 -432l-98 -162v-58h414v-106h-412v-254q0 -31 10.5 -55.5t34 -40t86.5 -28t80 -13.5v-74h-694v74q105 9 141.5 19.5t52 39.5t15.5 68v264h-412v106h412v41q-97 182 -313 559q-47 81 -103.5 122.5t-146.5 49.5v76h682v-76
l-55 -3q-119 -4 -119 -46q0 -23 72.5 -157.5t217.5 -382.5q194 315 244.5 404.5t50.5 111.5q0 32 -36.5 49.5t-129.5 23.5v76h488v-76z" />
    <glyph glyph-name="brokenbar" unicode="&#xa6;" horiz-adv-x="780" 
d="M315 723v801h150v-801h-150zM315 -424v809h150v-809h-150z" />
    <glyph glyph-name="section" unicode="&#xa7;" horiz-adv-x="1087" 
d="M967 639q0 -97 -62 -177.5t-192 -129.5q97 -39 152 -106.5t55 -157.5t-54 -161.5t-154 -112t-229 -40.5q-105 0 -178.5 25t-112 68t-38.5 94q0 53 30.5 82.5t81.5 29.5q93 0 146 -141l28 -72q20 -6 58 -6q94 0 154.5 46t60.5 120q0 50 -23.5 86t-71 67.5t-196.5 92.5
q-161 63 -231 144.5t-70 195.5q0 202 250 299q-114 50 -161.5 117.5t-47.5 152.5q0 132 120.5 215.5t313.5 83.5q106 0 179.5 -25t112 -68t38.5 -95t-30 -82.5t-83 -30.5q-93 0 -146 143l-28 70q-29 8 -57 8q-95 0 -154 -45t-59 -121q0 -45 22.5 -78t67.5 -61t221 -100
q148 -62 217.5 -141.5t69.5 -188.5zM762 582q0 55 -29.5 98.5t-88.5 80.5t-191 89q-60 -33 -93.5 -87t-33.5 -122q0 -56 27 -99t83.5 -80t200.5 -97q72 46 98.5 100.5t26.5 116.5z" />
    <glyph glyph-name="dieresis" unicode="&#xa8;" horiz-adv-x="1024" 
d="M883 1356q0 -60 -43 -103t-97 -43q-58 0 -98.5 43.5t-40.5 102.5q0 60 41 102.5t98 42.5q55 0 97.5 -41.5t42.5 -103.5zM420 1356q0 -59 -41.5 -102.5t-97.5 -43.5q-57 0 -98.5 43.5t-41.5 102.5q0 61 41 103t99 42q56 0 97.5 -42.5t41.5 -102.5z" />
    <glyph glyph-name="copyright" unicode="&#xa9;" horiz-adv-x="1929" 
d="M1849 604q0 -234 -117 -438.5t-321.5 -325.5t-443.5 -121q-242 0 -448 121.5t-322.5 325.5t-116.5 438q0 230 115.5 433t323 325.5t448.5 122.5q239 0 444.5 -122t321.5 -325t116 -434zM1751 604q0 216 -105.5 400t-285.5 288.5t-393 104.5q-212 0 -393.5 -103.5
t-288.5 -287t-107 -402.5q0 -222 108 -407.5t289.5 -288.5t391.5 -103q211 0 391 104t286.5 289t106.5 406zM1382 391q-54 -134 -160 -206t-243 -72q-144 0 -257.5 59t-176 169.5t-62.5 250.5q0 142 67.5 258t187.5 180t268 64q58 0 121.5 -18t109.5 -46l41 60h61l4 -367
h-61q-52 162 -120.5 228.5t-172.5 66.5q-119 0 -188.5 -110t-69.5 -300q0 -183 78.5 -288t216.5 -105q96 0 168 49.5t127 157.5z" />
    <glyph glyph-name="ordfeminine" unicode="&#xaa;" horiz-adv-x="1077" 
d="M993 647q-99 -37 -166 -37q-154 0 -184 119h-6q-116 -121 -275 -121q-94 0 -157.5 57.5t-63.5 145.5q0 65 24 112t71 76.5t255 95.5q105 32 148 54v61q0 83 -36.5 127.5t-100.5 44.5q-68 0 -103 -30q3 -20 11 -47.5t8 -59.5q0 -36 -34 -61t-93 -25q-52 0 -81.5 29.5
t-29.5 77.5q0 74 103.5 131t230.5 57q187 0 264.5 -65t77.5 -201l-6 -383q0 -63 47 -86q19 -8 96 -8v-64zM639 1069q-125 -41 -171.5 -68t-69.5 -63t-23 -88q0 -119 106 -119q43 0 79 15t77 59z" />
    <glyph glyph-name="guillemotleft" unicode="&#xab;" horiz-adv-x="1219" 
d="M1012 109q-72 51 -212 170l-173 147q-25 20 -41.5 45t-16.5 66q0 66 58 112l38 32q261 221 347 286l51 -43l-285 -389l285 -385zM602 109q-72 51 -212 170l-173 147q-25 20 -42 45t-17 66q0 62 59 112l99 84q186 159 286 234l51 -43l-284 -389l284 -385z" />
    <glyph glyph-name="logicalnot" unicode="&#xac;" 
d="M1063 61v463h-909v144h1060v-607h-151z" />
    <glyph glyph-name="registered" unicode="&#xae;" horiz-adv-x="1929" 
d="M1849 604q0 -234 -117 -438.5t-321.5 -325.5t-443.5 -121q-242 0 -448 121.5t-322.5 325.5t-116.5 438q0 230 115.5 433t323 325.5t448.5 122.5q239 0 444.5 -122t321.5 -325t116 -434zM1751 604q0 216 -105.5 400t-285.5 288.5t-393 104.5q-212 0 -393.5 -103.5
t-288.5 -287t-107 -402.5q0 -222 108 -407.5t289.5 -288.5t391.5 -103q211 0 391 104t286.5 289t106.5 406zM1233 145q-92 132 -140 198t-167 212h-68v-266q0 -39 25 -57.5t104 -28.5v-58h-459v58q88 10 109.5 26.5t21.5 57.5v639q0 52 -38.5 66.5t-92.5 25.5v57h502
q160 0 246 -57.5t86 -163.5q0 -101 -56 -162.5t-176 -95.5q75 -89 173 -214q68 -89 97 -115.5t59 -41t100 -22.5v-58h-326zM1139 834q0 86 -48 128t-151 42h-82v-377h68q100 0 156.5 51.5t56.5 155.5z" />
    <glyph glyph-name="macron" unicode="&#xaf;" horiz-adv-x="1317" 
d="M-4 1604v100h1327v-100h-1327z" />
    <glyph glyph-name="degree" unicode="&#xb0;" horiz-adv-x="858" 
d="M764 1128q0 -144 -95 -235.5t-241 -91.5q-147 0 -240.5 93t-93.5 234q0 144 95.5 236t238.5 92q146 0 241 -91.5t95 -236.5zM600 1120q0 124 -47 188t-125 64q-77 0 -123.5 -64t-46.5 -178q0 -115 44.5 -181t129.5 -66q74 0 121 66t47 171z" />
    <glyph glyph-name="plusminus" unicode="&#xb1;" 
d="M156 0v143h460v398h-460v145h460v463h146v-463h459v-145h-459v-398h459v-143h-1065z" />
    <glyph glyph-name="twosuperior" unicode="&#xb2;" horiz-adv-x="1077" 
d="M162 489v138q38 49 90 88.5t108 76.5t110.5 74.5t98 82.5t70.5 102t27 133q0 89 -45 141.5t-127 52.5q-77 0 -121 -41q6 -24 16 -59t10 -72q0 -42 -33.5 -69t-89.5 -27q-48 0 -77 32.5t-29 86.5q0 56 47.5 109t130 84.5t180.5 31.5q174 0 275.5 -74t101.5 -202
q0 -81 -28 -137t-72 -95.5t-132 -83t-210 -99.5q-75 -35 -141 -81v-6h628v-187h-788z" />
    <glyph glyph-name="threesuperior" unicode="&#xb3;" horiz-adv-x="1077" 
d="M930 750q0 -131 -124.5 -214t-313.5 -83q-98 0 -180.5 29t-129.5 78.5t-47 103.5q0 49 29 82.5t76 33.5q57 0 88.5 -27t31.5 -67t-26 -121q17 -11 53.5 -24t81.5 -13q106 0 164.5 58t58.5 166q0 97 -48.5 138.5t-143.5 41.5h-97v92h68q98 0 140 50t42 153q0 68 -39 109.5
t-114 41.5q-65 0 -119 -35q8 -26 17.5 -58.5t9.5 -67.5q0 -41 -32.5 -66t-86.5 -25q-48 0 -77.5 30t-29.5 81q0 55 47 105.5t130.5 81t183.5 30.5q105 0 171.5 -24.5t104.5 -59.5t52 -74t14 -67q0 -88 -59 -146t-171 -84v-12q131 -9 203 -72.5t72 -164.5z" />
    <glyph glyph-name="acute" unicode="&#xb4;" horiz-adv-x="1024" 
d="M750 1460q0 -45 -23.5 -74t-111.5 -86q-201 -131 -291 -194l-41 35q8 11 15.5 21.5t195.5 283.5q37 57 70 76.5t83 19.5q39 0 71 -24t32 -58z" />
    <glyph glyph-name="mu" unicode="&#xb5;" horiz-adv-x="1278" 
d="M1262 18q-44 -17 -107 -30t-102 -13q-195 0 -224 160h-6q-63 -87 -134.5 -124.5t-156.5 -37.5q-124 0 -188 70h-10v-43q0 -43 8.5 -85.5t18 -83t18 -78.5t8.5 -72q0 -55 -40.5 -90t-102.5 -35q-54 0 -91.5 34t-37.5 91q0 65 32 210q25 117 25 248v848h260v-668
q0 -106 47.5 -157t122.5 -51q68 0 126 32t95 93v751h260v-778q0 -39 12 -63t37.5 -41t70.5 -17h59v-70z" />
    <glyph glyph-name="paragraph" unicode="&#xb6;" horiz-adv-x="1073" 
d="M1036 1339h-110v-1554h-113v1554h-162v-1554h-114v883q-204 0 -324.5 100.5t-120.5 271.5q0 166 111 272.5t293 106.5h540v-80z" />
    <glyph glyph-name="periodcentered" unicode="&#xb7;" horiz-adv-x="631" 
d="M485 551q0 -65 -48.5 -114.5t-119.5 -49.5t-119.5 49.5t-48.5 114.5q0 69 49.5 118.5t118.5 49.5t118.5 -49.5t49.5 -118.5z" />
    <glyph glyph-name="cedilla" unicode="&#xb8;" horiz-adv-x="1024" 
d="M717 -250q0 -102 -93 -148t-329 -46v73q121 0 163 7.5t65.5 25.5t23.5 53t-34 52.5t-118 17.5v231h82v-114q115 0 177.5 -40t62.5 -112z" />
    <glyph glyph-name="onesuperior" unicode="&#xb9;" horiz-adv-x="1077" 
d="M250 489v72q25 0 82 5.5t75 14.5t28.5 25.5t10.5 40.5v606h-200v82h53q165 0 264 113h103q-7 -185 -7 -234v-559q0 -52 46 -71q16 -9 69 -16t72 -7v-72h-596z" />
    <glyph glyph-name="ordmasculine" unicode="&#xba;" horiz-adv-x="1077" 
d="M973 1036q0 -123 -54.5 -222t-155 -153.5t-233.5 -54.5q-120 0 -218.5 52.5t-154 149.5t-55.5 220q0 191 118 308.5t319 117.5q196 0 315 -114.5t119 -303.5zM729 1036q0 170 -49 256t-141 86t-142.5 -83.5t-50.5 -254.5q0 -176 48.5 -268t144.5 -92q92 0 141 91t49 265z
" />
    <glyph glyph-name="guillemotright" unicode="&#xbb;" horiz-adv-x="1219" 
d="M1061 537q0 -41 -17 -66t-40 -45l-175 -147q-135 -115 -213 -170l-51 41l285 385l-285 389l51 43q57 -43 118.5 -93.5t135 -113t132.5 -112.5t59 -111zM651 537q0 -14 -2 -26.5t-6.5 -23t-13.5 -23t-19.5 -23.5t-175.5 -150t-227 -182l-51 41l284 385l-284 389l51 43
q42 -31 112.5 -88.5t145.5 -121.5t131.5 -111.5t54.5 -108.5z" />
    <glyph glyph-name="onequarter" unicode="&#xbc;" horiz-adv-x="2171" 
d="M1512 1423l-778 -1423h-146l776 1423h148zM143 489v72q25 0 82 5.5t75 14.5t28.5 25.5t10.5 40.5v606h-200v82h53q165 0 264 113h103q-7 -185 -7 -234v-559q0 -52 46 -71q16 -9 69 -16t72 -7v-72h-596zM2025 209h-155v-227h-201v227h-486v144l523 612h164v-616h155v-140z
M1669 349v438l-373 -438h373z" />
    <glyph glyph-name="onehalf" unicode="&#xbd;" horiz-adv-x="2171" 
d="M1487 1423l-778 -1423h-146l776 1423h148zM143 489v72q25 0 82 5.5t75 14.5t28.5 25.5t10.5 40.5v606h-200v82h53q165 0 264 113h103q-7 -185 -7 -234v-559q0 -52 46 -71q16 -9 69 -16t72 -7v-72h-596zM1290 2v138q38 49 90 88.5t108 76.5t110.5 74.5t98 82.5t70.5 102
t27 133q0 89 -45 141.5t-127 52.5q-77 0 -121 -41q6 -24 16 -59t10 -72q0 -42 -33.5 -69t-89.5 -27q-48 0 -77 32.5t-29 86.5q0 56 47.5 109t130 84.5t180.5 31.5q174 0 275.5 -74t101.5 -202q0 -81 -28 -137t-72 -95.5t-132 -83t-210 -99.5q-75 -35 -141 -81v-6h628v-187
h-788z" />
    <glyph glyph-name="threequarters" unicode="&#xbe;" horiz-adv-x="2171" 
d="M1636 1423l-778 -1423h-146l776 1423h148zM2093 209h-155v-227h-201v227h-486v144l523 612h164v-616h155v-140zM1737 349v438l-373 -438h373zM912 750q0 -131 -124.5 -214t-313.5 -83q-98 0 -180.5 29t-129.5 78.5t-47 103.5q0 49 29 82.5t76 33.5q57 0 88.5 -27
t31.5 -67t-26 -121q17 -11 53.5 -24t81.5 -13q106 0 164.5 58t58.5 166q0 97 -48.5 138.5t-143.5 41.5h-97v92h68q98 0 140 50t42 153q0 68 -39 109.5t-114 41.5q-65 0 -119 -35q8 -26 17.5 -58.5t9.5 -67.5q0 -41 -32.5 -66t-86.5 -25q-48 0 -77.5 30t-29.5 81
q0 55 47 105.5t130.5 81t183.5 30.5q105 0 171.5 -24.5t104.5 -59.5t52 -74t14 -67q0 -88 -59 -146t-171 -84v-12q131 -9 203 -72.5t72 -164.5z" />
    <glyph glyph-name="questiondown" unicode="&#xbf;" horiz-adv-x="1051" 
d="M788 1288q0 -67 -49 -114.5t-116 -47.5q-68 0 -116 48t-48 114q0 64 47 112t117 48q69 0 117 -47.5t48 -112.5zM958 225q0 -65 -53 -125t-144 -94.5t-196 -34.5q-206 0 -333.5 114.5t-127.5 299.5q0 191 127 312.5t347 142.5l4 180h90v-385q-159 -12 -243.5 -90.5
t-84.5 -216.5q0 -129 61 -202t170 -73q77 0 134 37q-29 99 -29 156q0 54 38 88.5t109 34.5q59 0 95 -40t36 -104z" />
    <glyph glyph-name="Agrave" unicode="&#xc0;" horiz-adv-x="1462" 
d="M831 0v74q85 7 139 22.5t54 34.5q0 10 -3 22.5t-126 329.5h-494q-40 -98 -70 -190.5t-30 -130.5q0 -34 54 -57t155 -31v-74h-559v74q91 7 150.5 47t95.5 129l477 1190h141q133 -330 405 -1029l78 -198q25 -60 73.5 -94.5t144.5 -44.5v-74h-685zM645 1108l-207 -533h418z
M932 1495l-171 75q-205 84 -243.5 105.5t-54 45t-15.5 57.5q0 38 32.5 64t88.5 26q35 0 69.5 -20.5t78.5 -65.5q129 -135 155 -159l92 -87z" />
    <glyph glyph-name="Aacute" unicode="&#xc1;" horiz-adv-x="1462" 
d="M831 0v74q85 7 139 22.5t54 34.5q0 10 -3 22.5t-126 329.5h-494q-40 -98 -70 -190.5t-30 -130.5q0 -34 54 -57t155 -31v-74h-559v74q91 7 150.5 47t95.5 129l477 1190h141q133 -330 405 -1029l78 -198q25 -60 73.5 -94.5t144.5 -44.5v-74h-685zM645 1108l-207 -533h418z
M573 1495l-32 41q65 61 264 262q63 70 131 70q52 0 86.5 -26t34.5 -64q0 -44 -26 -69.5t-71 -45.5l-152 -65z" />
    <glyph glyph-name="Acircumflex" unicode="&#xc2;" horiz-adv-x="1462" 
d="M831 0v74q85 7 139 22.5t54 34.5q0 10 -3 22.5t-126 329.5h-494q-40 -98 -70 -190.5t-30 -130.5q0 -34 54 -57t155 -31v-74h-559v74q91 7 150.5 47t95.5 129l477 1190h141q133 -330 405 -1029l78 -198q25 -60 73.5 -94.5t144.5 -44.5v-74h-685zM645 1108l-207 -533h418z
M1056 1495l-315 207l-309 -207l-41 31l155 188l39 52q36 51 73.5 76t86.5 26q39 0 62.5 -10.5t46.5 -38.5l102 -123l141 -170z" />
    <glyph glyph-name="Atilde" unicode="&#xc3;" horiz-adv-x="1462" 
d="M831 0v74q85 7 139 22.5t54 34.5q0 10 -3 22.5t-126 329.5h-494q-40 -98 -70 -190.5t-30 -130.5q0 -34 54 -57t155 -31v-74h-559v74q91 7 150.5 47t95.5 129l477 1190h141q133 -330 405 -1029l78 -198q25 -60 73.5 -94.5t144.5 -44.5v-74h-685zM645 1108l-207 -533h418z
M1157 1833q-19 -69 -62 -132t-99.5 -102t-117.5 -39q-67 0 -113 16.5t-83 37t-70 37t-74 16.5q-27 0 -46 -9t-35.5 -29t-63.5 -104l-66 29q41 117 116 192.5t157 75.5q63 0 109.5 -16.5t84 -36t70 -35.5t67.5 -16q54 0 83.5 18t48.5 61l26 60z" />
    <glyph glyph-name="Adieresis" unicode="&#xc4;" horiz-adv-x="1462" 
d="M831 0v74q85 7 139 22.5t54 34.5q0 10 -3 22.5t-126 329.5h-494q-40 -98 -70 -190.5t-30 -130.5q0 -34 54 -57t155 -31v-74h-559v74q91 7 150.5 47t95.5 129l477 1190h141q133 -330 405 -1029l78 -198q25 -60 73.5 -94.5t144.5 -44.5v-74h-685zM645 1108l-207 -533h418z
M1126 1706q0 -61 -41 -103t-96 -42q-56 0 -98 42.5t-42 102.5t41.5 103t98.5 43q56 0 96.5 -42.5t40.5 -103.5zM634 1706q0 -59 -41 -102t-98 -43q-56 0 -96.5 42.5t-40.5 102.5t39.5 103t97.5 43t98.5 -43.5t40.5 -102.5z" />
    <glyph glyph-name="Aring" unicode="&#xc5;" horiz-adv-x="1462" 
d="M831 0v74q85 7 139 22.5t54 34.5q0 10 -3 22.5t-126 329.5h-494q-40 -98 -70 -190.5t-30 -130.5q0 -34 54 -57t155 -31v-74h-559v74q91 7 150.5 47t95.5 129l477 1190h141q133 -330 405 -1029l78 -198q25 -60 73.5 -94.5t144.5 -44.5v-74h-685zM645 1108l-207 -533h418z
M1007 1640q0 -102 -73.5 -164.5t-194.5 -62.5q-124 0 -196 62t-72 165q0 100 74 164t194 64q122 0 195 -62.5t73 -165.5zM870 1640q0 69 -33 114.5t-98 45.5q-63 0 -97 -42.5t-34 -117.5q0 -71 33 -115t98 -44t98 43.5t33 115.5z" />
    <glyph glyph-name="AE" unicode="&#xc6;" horiz-adv-x="2089" 
d="M2013 0h-1239v74q62 5 111 13.5t71.5 34.5t22.5 75v399h-487q-111 -191 -154 -275t-52.5 -112t-9.5 -45q0 -36 42 -58t139 -32v-74h-553v74q92 10 151.5 48t110.5 126l303 521l315 552q-59 16 -178 22v76h1331v-352h-75q-17 53 -56.5 112.5t-85 99t-89 47t-169.5 7.5
h-198v-555h137q85 0 133 25.5t76.5 91t36.5 121.5h75v-574h-75q-9 67 -37.5 134t-77 91.5t-131.5 24.5h-137v-418q0 -91 16 -125.5t57 -48.5t158 -14q131 0 185.5 7.5t83.5 21t67 66t81.5 133t55.5 116.5h72zM979 1329h-76l-360 -641h436v641z" />
    <glyph glyph-name="Ccedilla" unicode="&#xc7;" horiz-adv-x="1389" 
d="M1362 356q-173 -393 -594 -393q-196 0 -355.5 92.5t-249 260.5t-89.5 380q0 216 92.5 389.5t258.5 270t372 96.5q198 0 366 -94l51 61h82l11 -512h-86q-64 235 -166.5 345t-245.5 110q-196 0 -306 -168.5t-110 -474.5q0 -290 123.5 -459.5t333.5 -169.5q279 0 432 311z
M1018 -250q0 -102 -93 -148t-329 -46v73q121 0 163 7.5t65.5 25.5t23.5 53t-34 52.5t-118 17.5v231h82v-114q115 0 177.5 -40t62.5 -112z" />
    <glyph glyph-name="Egrave" unicode="&#xc8;" horiz-adv-x="1407" 
d="M1331 0h-1253v74q61 5 109 13.5t72 35t24 74.5v1011q0 46 -20 71t-75 42t-110 22v76h1177v-352h-75q-17 53 -56.5 112.5t-85 99t-89 47t-169.5 7.5h-213v-555h152q85 0 133 25.5t76.5 91t36.5 121.5h75v-574h-75q-9 67 -37.5 134t-77 91.5t-131.5 24.5h-152v-418
q0 -88 17 -124.5t60 -50t159 -13.5q159 0 223 12.5t86 36.5q43 45 99.5 144.5t74.5 150.5h72zM881 1495l-171 75q-205 84 -243.5 105.5t-54 45t-15.5 57.5q0 38 32.5 64t88.5 26q35 0 69.5 -20.5t78.5 -65.5q129 -135 155 -159l92 -87z" />
    <glyph glyph-name="Eacute" unicode="&#xc9;" horiz-adv-x="1407" 
d="M1331 0h-1253v74q61 5 109 13.5t72 35t24 74.5v1011q0 46 -20 71t-75 42t-110 22v76h1177v-352h-75q-17 53 -56.5 112.5t-85 99t-89 47t-169.5 7.5h-213v-555h152q85 0 133 25.5t76.5 91t36.5 121.5h75v-574h-75q-9 67 -37.5 134t-77 91.5t-131.5 24.5h-152v-418
q0 -88 17 -124.5t60 -50t159 -13.5q159 0 223 12.5t86 36.5q43 45 99.5 144.5t74.5 150.5h72zM528 1495l-32 41q65 61 264 262q63 70 131 70q52 0 86.5 -26t34.5 -64q0 -44 -26 -69.5t-71 -45.5l-152 -65z" />
    <glyph glyph-name="Ecircumflex" unicode="&#xca;" horiz-adv-x="1407" 
d="M1331 0h-1253v74q61 5 109 13.5t72 35t24 74.5v1011q0 46 -20 71t-75 42t-110 22v76h1177v-352h-75q-17 53 -56.5 112.5t-85 99t-89 47t-169.5 7.5h-213v-555h152q85 0 133 25.5t76.5 91t36.5 121.5h75v-574h-75q-9 67 -37.5 134t-77 91.5t-131.5 24.5h-152v-418
q0 -88 17 -124.5t60 -50t159 -13.5q159 0 223 12.5t86 36.5q43 45 99.5 144.5t74.5 150.5h72zM1036 1495l-315 207l-309 -207l-41 31l155 188l39 52q36 51 73.5 76t86.5 26q39 0 62.5 -10.5t46.5 -38.5l102 -123l141 -170z" />
    <glyph glyph-name="Edieresis" unicode="&#xcb;" horiz-adv-x="1407" 
d="M1331 0h-1253v74q61 5 109 13.5t72 35t24 74.5v1011q0 46 -20 71t-75 42t-110 22v76h1177v-352h-75q-17 53 -56.5 112.5t-85 99t-89 47t-169.5 7.5h-213v-555h152q85 0 133 25.5t76.5 91t36.5 121.5h75v-574h-75q-9 67 -37.5 134t-77 91.5t-131.5 24.5h-152v-418
q0 -88 17 -124.5t60 -50t159 -13.5q159 0 223 12.5t86 36.5q43 45 99.5 144.5t74.5 150.5h72zM1116 1714q0 -61 -41 -103t-96 -42q-56 0 -98 42.5t-42 102.5t41.5 103t98.5 43q56 0 96.5 -42.5t40.5 -103.5zM624 1714q0 -59 -41 -102t-98 -43q-56 0 -96.5 42.5t-40.5 102.5
t39.5 103t97.5 43t98.5 -43.5t40.5 -102.5z" />
    <glyph glyph-name="Igrave" unicode="&#xcc;" horiz-adv-x="856" 
d="M72 0v74q98 7 125.5 12t48.5 18t30 35.5t9 53.5v1015q0 45 -20 70.5t-82.5 43.5t-110.5 21v76h712v-76q-129 -9 -172 -33t-43 -91v-1016q0 -72 64 -101q12 -6 65 -15.5t86 -12.5v-74h-712zM688 1495l-171 75q-205 84 -243.5 105.5t-54 45t-15.5 57.5q0 38 32.5 64
t88.5 26q35 0 69.5 -20.5t78.5 -65.5q129 -135 155 -159l92 -87z" />
    <glyph glyph-name="Iacute" unicode="&#xcd;" horiz-adv-x="856" 
d="M72 0v74q98 7 125.5 12t48.5 18t30 35.5t9 53.5v1015q0 45 -20 70.5t-82.5 43.5t-110.5 21v76h712v-76q-129 -9 -172 -33t-43 -91v-1016q0 -72 64 -101q12 -6 65 -15.5t86 -12.5v-74h-712zM202 1495l-32 41q65 61 264 262q63 70 131 70q52 0 86.5 -26t34.5 -64
q0 -44 -26 -69.5t-71 -45.5l-152 -65z" />
    <glyph glyph-name="Icircumflex" unicode="&#xce;" horiz-adv-x="856" 
d="M72 0v74q98 7 125.5 12t48.5 18t30 35.5t9 53.5v1015q0 45 -20 70.5t-82.5 43.5t-110.5 21v76h712v-76q-129 -9 -172 -33t-43 -91v-1016q0 -72 64 -101q12 -6 65 -15.5t86 -12.5v-74h-712zM743 1495l-315 207l-309 -207l-41 31l155 188l39 52q36 51 73.5 76t86.5 26
q39 0 62.5 -10.5t46.5 -38.5l102 -123l141 -170z" />
    <glyph glyph-name="Idieresis" unicode="&#xcf;" horiz-adv-x="856" 
d="M72 0v74q98 7 125.5 12t48.5 18t30 35.5t9 53.5v1015q0 45 -20 70.5t-82.5 43.5t-110.5 21v76h712v-76q-129 -9 -172 -33t-43 -91v-1016q0 -72 64 -101q12 -6 65 -15.5t86 -12.5v-74h-712zM801 1714q0 -60 -43 -103t-97 -43q-58 0 -98.5 43.5t-40.5 102.5q0 60 41 102.5
t98 42.5q55 0 97.5 -41.5t42.5 -103.5zM338 1714q0 -59 -41.5 -102.5t-97.5 -43.5q-57 0 -98.5 43.5t-41.5 102.5q0 61 41 103t99 42q56 0 97.5 -42.5t41.5 -102.5z" />
    <glyph glyph-name="Eth" unicode="&#xd0;" horiz-adv-x="1620" 
d="M1546 700q0 -209 -98.5 -365.5t-287.5 -245.5t-427 -89h-651v74q116 8 139 18q62 25 62 101v499h-191v103h191v413q0 69 -49 98t-150 37v76h688q222 0 407 -93.5t276 -253t91 -372.5zM1225 700q0 290 -136.5 460.5t-365.5 170.5l-158 -4v-532h303v-103h-303v-446
q0 -81 49 -120.5t152 -39.5q228 0 343.5 155t115.5 459z" />
    <glyph glyph-name="Ntilde" unicode="&#xd1;" horiz-adv-x="1645" 
d="M1626 1343q-64 -5 -129 -27t-86.5 -85.5t-21.5 -216.5v-1026h-132l-872 1130v-698q0 -77 6.5 -130t20 -90.5t36.5 -60t83.5 -41t105.5 -24.5v-74h-596v74q37 3 97 20t82 36.5t35 53.5t18.5 87.5t5.5 136.5v686q0 63 -26.5 116.5t-90.5 88.5t-135 44v76h469l786 -1022v607
q0 73 -5.5 125.5t-18.5 89t-31.5 57t-80.5 41t-114 26.5v76h594v-76zM1262 1840q-19 -69 -62 -132t-99.5 -102t-117.5 -39q-67 0 -113 16.5t-83 37t-70 37t-74 16.5q-27 0 -46 -9t-35.5 -29t-63.5 -104l-66 29q41 117 116 192.5t157 75.5q63 0 109.5 -16.5t84 -36t70 -35.5
t67.5 -16q54 0 83.5 18t48.5 61l26 60z" />
    <glyph glyph-name="Ograve" unicode="&#xd2;" horiz-adv-x="1602" 
d="M1526 713q0 -215 -93 -387t-259.5 -267.5t-376.5 -95.5q-202 0 -368.5 94.5t-259.5 264.5t-93 378q0 217 93.5 390t261.5 268.5t370 95.5t369.5 -94t261.5 -263.5t94 -383.5zM1204 711q0 306 -105.5 478.5t-297.5 172.5q-194 0 -300 -170.5t-106 -484.5
q0 -308 106.5 -479t299.5 -171t298 170.5t105 483.5zM1037 1495l-171 75q-205 84 -243.5 105.5t-54 45t-15.5 57.5q0 38 32.5 64t88.5 26q35 0 69.5 -20.5t78.5 -65.5q129 -135 155 -159l92 -87z" />
    <glyph glyph-name="Oacute" unicode="&#xd3;" horiz-adv-x="1602" 
d="M1526 713q0 -215 -93 -387t-259.5 -267.5t-376.5 -95.5q-202 0 -368.5 94.5t-259.5 264.5t-93 378q0 217 93.5 390t261.5 268.5t370 95.5t369.5 -94t261.5 -263.5t94 -383.5zM1204 711q0 306 -105.5 478.5t-297.5 172.5q-194 0 -300 -170.5t-106 -484.5
q0 -308 106.5 -479t299.5 -171t298 170.5t105 483.5zM567 1495l-32 41q65 61 264 262q63 70 131 70q52 0 86.5 -26t34.5 -64q0 -44 -26 -69.5t-71 -45.5l-152 -65z" />
    <glyph glyph-name="Ocircumflex" unicode="&#xd4;" horiz-adv-x="1602" 
d="M1526 713q0 -215 -93 -387t-259.5 -267.5t-376.5 -95.5q-202 0 -368.5 94.5t-259.5 264.5t-93 378q0 217 93.5 390t261.5 268.5t370 95.5t369.5 -94t261.5 -263.5t94 -383.5zM1204 711q0 306 -105.5 478.5t-297.5 172.5q-194 0 -300 -170.5t-106 -484.5
q0 -308 106.5 -479t299.5 -171t298 170.5t105 483.5zM1112 1495l-315 207l-309 -207l-41 31l155 188l39 52q36 51 73.5 76t86.5 26q39 0 62.5 -10.5t46.5 -38.5l102 -123l141 -170z" />
    <glyph glyph-name="Otilde" unicode="&#xd5;" horiz-adv-x="1602" 
d="M1526 713q0 -215 -93 -387t-259.5 -267.5t-376.5 -95.5q-202 0 -368.5 94.5t-259.5 264.5t-93 378q0 217 93.5 390t261.5 268.5t370 95.5t369.5 -94t261.5 -263.5t94 -383.5zM1204 711q0 306 -105.5 478.5t-297.5 172.5q-194 0 -300 -170.5t-106 -484.5
q0 -308 106.5 -479t299.5 -171t298 170.5t105 483.5zM1215 1840q-19 -69 -62 -132t-99.5 -102t-117.5 -39q-67 0 -113 16.5t-83 37t-70 37t-74 16.5q-27 0 -46 -9t-35.5 -29t-63.5 -104l-66 29q41 117 116 192.5t157 75.5q63 0 109.5 -16.5t84 -36t70 -35.5t67.5 -16
q54 0 83.5 18t48.5 61l26 60z" />
    <glyph glyph-name="Odieresis" unicode="&#xd6;" horiz-adv-x="1602" 
d="M1526 713q0 -215 -93 -387t-259.5 -267.5t-376.5 -95.5q-202 0 -368.5 94.5t-259.5 264.5t-93 378q0 217 93.5 390t261.5 268.5t370 95.5t369.5 -94t261.5 -263.5t94 -383.5zM1204 711q0 306 -105.5 478.5t-297.5 172.5q-194 0 -300 -170.5t-106 -484.5
q0 -308 106.5 -479t299.5 -171t298 170.5t105 483.5zM1184 1714q0 -61 -41 -103t-96 -42q-56 0 -98 42.5t-42 102.5t41.5 103t98.5 43q56 0 96.5 -42.5t40.5 -103.5zM692 1714q0 -59 -41 -102t-98 -43q-56 0 -96.5 42.5t-40.5 102.5t39.5 103t97.5 43t98.5 -43.5
t40.5 -102.5z" />
    <glyph glyph-name="multiply" unicode="&#xd7;" 
d="M1061 94l-373 373l-373 -375l-100 103l373 372l-373 371l100 102l373 -372l373 372l100 -102l-375 -371l375 -372z" />
    <glyph glyph-name="Oslash" unicode="&#xd8;" horiz-adv-x="1602" 
d="M1526 713q0 -215 -93 -387t-259.5 -267.5t-376.5 -95.5q-264 0 -457 158l-186 -211l-70 59l190 211q-94 97 -146 230t-52 290q0 217 93.5 390t261.5 268.5t370 95.5q271 0 461 -158l174 197l69 -61l-176 -195q91 -97 144 -229.5t53 -294.5zM1126 1149q-105 215 -325 215
q-197 0 -303.5 -172.5t-106.5 -484.5q0 -202 47 -349zM1210 711q0 205 -45 346l-690 -789q107 -213 326 -213q195 0 302 171t107 485z" />
    <glyph glyph-name="Ugrave" unicode="&#xd9;" horiz-adv-x="1626" 
d="M1618 1343q-74 -6 -136 -29t-82 -90t-20 -206v-572q0 -145 -71.5 -254.5t-196.5 -169t-276 -59.5q-268 0 -425 124.5t-157 338.5v782q0 39 -17 66t-48 41t-123 31v73h667v-73q-99 -15 -133 -25q-61 -20 -61 -102v-750q0 -190 90.5 -286.5t267.5 -96.5t276 103.5t99 285.5
v533q0 226 -68 278q-21 16 -75.5 33t-108.5 24v76h598v-76zM1039 1495l-171 75q-205 84 -243.5 105.5t-54 45t-15.5 57.5q0 38 32.5 64t88.5 26q35 0 69.5 -20.5t78.5 -65.5q129 -135 155 -159l92 -87z" />
    <glyph glyph-name="Uacute" unicode="&#xda;" horiz-adv-x="1626" 
d="M1618 1343q-74 -6 -136 -29t-82 -90t-20 -206v-572q0 -145 -71.5 -254.5t-196.5 -169t-276 -59.5q-268 0 -425 124.5t-157 338.5v782q0 39 -17 66t-48 41t-123 31v73h667v-73q-99 -15 -133 -25q-61 -20 -61 -102v-750q0 -190 90.5 -286.5t267.5 -96.5t276 103.5t99 285.5
v533q0 226 -68 278q-21 16 -75.5 33t-108.5 24v76h598v-76zM641 1495l-32 41q65 61 264 262q63 70 131 70q52 0 86.5 -26t34.5 -64q0 -44 -26 -69.5t-71 -45.5l-152 -65z" />
    <glyph glyph-name="Ucircumflex" unicode="&#xdb;" horiz-adv-x="1626" 
d="M1618 1343q-74 -6 -136 -29t-82 -90t-20 -206v-572q0 -145 -71.5 -254.5t-196.5 -169t-276 -59.5q-268 0 -425 124.5t-157 338.5v782q0 39 -17 66t-48 41t-123 31v73h667v-73q-99 -15 -133 -25q-61 -20 -61 -102v-750q0 -190 90.5 -286.5t267.5 -96.5t276 103.5t99 285.5
v533q0 226 -68 278q-21 16 -75.5 33t-108.5 24v76h598v-76zM1181 1495l-315 207l-309 -207l-41 31l155 188l39 52q36 51 73.5 76t86.5 26q39 0 62.5 -10.5t46.5 -38.5l102 -123l141 -170z" />
    <glyph glyph-name="Udieresis" unicode="&#xdc;" horiz-adv-x="1626" 
d="M1618 1343q-74 -6 -136 -29t-82 -90t-20 -206v-572q0 -145 -71.5 -254.5t-196.5 -169t-276 -59.5q-268 0 -425 124.5t-157 338.5v782q0 39 -17 66t-48 41t-123 31v73h667v-73q-99 -15 -133 -25q-61 -20 -61 -102v-750q0 -190 90.5 -286.5t267.5 -96.5t276 103.5t99 285.5
v533q0 226 -68 278q-21 16 -75.5 33t-108.5 24v76h598v-76zM1245 1714q0 -61 -41 -103t-96 -42q-56 0 -98 42.5t-42 102.5t41.5 103t98.5 43q56 0 96.5 -42.5t40.5 -103.5zM753 1714q0 -59 -41 -102t-98 -43q-56 0 -96.5 42.5t-40.5 102.5t39.5 103t97.5 43t98.5 -43.5
t40.5 -102.5z" />
    <glyph glyph-name="Yacute" unicode="&#xdd;" 
d="M1440 1343q-77 -12 -114.5 -36t-58.5 -44t-57 -69t-91 -134t-125.5 -201.5t-107.5 -180t-47 -101t-10 -128.5v-236q0 -32 11 -56.5t35.5 -40t90 -28t87.5 -14.5v-74h-729v74q125 10 159 22q62 27 62 107v297q0 38 -9 66t-61 122q-111 205 -274 483q-37 65 -77.5 102
t-81 51.5t-95.5 18.5v76h708v-76l-57 -3q-131 -4 -131 -46q0 -21 77 -164.5t240 -427.5q165 262 246.5 402t81.5 166q0 32 -40 49.5t-142 23.5v76h510v-76zM559 1495l-32 41q65 61 264 262q63 70 131 70q52 0 86.5 -26t34.5 -64q0 -44 -26 -69.5t-71 -45.5l-152 -65z" />
    <glyph glyph-name="Thorn" unicode="&#xde;" horiz-adv-x="1354" 
d="M1294 754q0 -131 -70.5 -228t-195.5 -149.5t-280 -52.5h-181v-123q0 -63 39.5 -91t161.5 -36v-74h-684v74q100 8 137 20q62 28 62 103v1011q0 44 -18 69t-75 43.5t-108 22.5v76h680v-76q-56 -4 -107.5 -17.5t-69.5 -39.5t-18 -69v-78h236q233 0 362 -99.5t129 -285.5z
M973 729q0 320 -297 320h-109v-633h80q155 0 240.5 79t85.5 234z" />
    <glyph glyph-name="germandbls" unicode="&#xdf;" horiz-adv-x="1235" 
d="M1159 498q0 -148 -58 -263.5t-162.5 -180t-236.5 -64.5q-92 0 -159 12v84q32 -8 75 -8q125 0 192 110.5t67 315.5q0 181 -71.5 282t-199.5 101h-22v88h37q59 0 109 31.5t79 91t29 141.5q0 115 -47 173t-125 58q-112 0 -163.5 -94t-51.5 -297v-1079h-404v70q69 5 92 14
q54 17 54 92v836q0 190 50.5 294.5t163.5 174t271 69.5q180 0 291.5 -84t111.5 -225q0 -80 -37.5 -144t-101.5 -106t-137 -53v-8q101 -21 181.5 -80.5t126.5 -147.5t46 -204z" />
    <glyph glyph-name="agrave" unicode="&#xe0;" horiz-adv-x="1126" 
d="M1102 18q-30 -13 -87.5 -29t-107.5 -16q-187 0 -223 144h-6q-137 -146 -332 -146q-116 0 -191 69t-75 179q0 103 52.5 171.5t162.5 107.5l101 35q115 37 184 60t100 40v96q0 104 -44.5 157.5t-123.5 53.5q-48 0 -82 -14.5t-49 -28.5q3 -23 14 -58t11 -77q0 -49 -39 -79
t-107 -30q-62 0 -97.5 35t-35.5 96q0 62 58.5 116t153 86t187.5 32q157 0 243.5 -35t127.5 -109t41 -188l-6 -481q0 -33 8 -55t27 -38t37.5 -20t51 -4h46.5v-70zM680 545q-140 -45 -202.5 -82.5t-94 -87t-31.5 -117.5q0 -73 36 -113.5t101 -40.5q37 0 66 10t54 26t67 61z
M714 1106l-290 193q-77 49 -106.5 80.5t-29.5 80.5q0 35 32 58.5t71 23.5q50 0 84 -20.5t69 -75.5q86 -131 211 -305z" />
    <glyph glyph-name="aacute" unicode="&#xe1;" horiz-adv-x="1126" 
d="M1102 18q-30 -13 -87.5 -29t-107.5 -16q-187 0 -223 144h-6q-137 -146 -332 -146q-116 0 -191 69t-75 179q0 103 52.5 171.5t162.5 107.5l101 35q115 37 184 60t100 40v96q0 104 -44.5 157.5t-123.5 53.5q-48 0 -82 -14.5t-49 -28.5q3 -23 14 -58t11 -77q0 -49 -39 -79
t-107 -30q-62 0 -97.5 35t-35.5 96q0 62 58.5 116t153 86t187.5 32q157 0 243.5 -35t127.5 -109t41 -188l-6 -481q0 -33 8 -55t27 -38t37.5 -20t51 -4h46.5v-70zM680 545q-140 -45 -202.5 -82.5t-94 -87t-31.5 -117.5q0 -73 36 -113.5t101 -40.5q37 0 66 10t54 26t67 61z
M811 1460q0 -45 -23.5 -74t-111.5 -86q-201 -131 -291 -194l-41 35q8 11 15.5 21.5t195.5 283.5q37 57 70 76.5t83 19.5q39 0 71 -24t32 -58z" />
    <glyph glyph-name="acircumflex" unicode="&#xe2;" horiz-adv-x="1126" 
d="M1102 18q-30 -13 -87.5 -29t-107.5 -16q-187 0 -223 144h-6q-137 -146 -332 -146q-116 0 -191 69t-75 179q0 103 52.5 171.5t162.5 107.5l101 35q115 37 184 60t100 40v96q0 104 -44.5 157.5t-123.5 53.5q-48 0 -82 -14.5t-49 -28.5q3 -23 14 -58t11 -77q0 -49 -39 -79
t-107 -30q-62 0 -97.5 35t-35.5 96q0 62 58.5 116t153 86t187.5 32q157 0 243.5 -35t127.5 -109t41 -188l-6 -481q0 -33 8 -55t27 -38t37.5 -20t51 -4h46.5v-70zM680 545q-140 -45 -202.5 -82.5t-94 -87t-31.5 -117.5q0 -73 36 -113.5t101 -40.5q37 0 66 10t54 26t67 61z
M838 1112l-299 264l-297 -264l-49 31l35 55q125 190 162.5 245.5t54 71.5t38.5 23.5t58 7.5q40 0 62.5 -8.5t46 -39.5t40 -55t79 -115.5t120.5 -184.5z" />
    <glyph glyph-name="atilde" unicode="&#xe3;" horiz-adv-x="1126" 
d="M1102 18q-30 -13 -87.5 -29t-107.5 -16q-187 0 -223 144h-6q-137 -146 -332 -146q-116 0 -191 69t-75 179q0 103 52.5 171.5t162.5 107.5l101 35q115 37 184 60t100 40v96q0 104 -44.5 157.5t-123.5 53.5q-48 0 -82 -14.5t-49 -28.5q3 -23 14 -58t11 -77q0 -49 -39 -79
t-107 -30q-62 0 -97.5 35t-35.5 96q0 62 58.5 116t153 86t187.5 32q157 0 243.5 -35t127.5 -109t41 -188l-6 -481q0 -33 8 -55t27 -38t37.5 -20t51 -4h46.5v-70zM680 545q-140 -45 -202.5 -82.5t-94 -87t-31.5 -117.5q0 -73 36 -113.5t101 -40.5q37 0 66 10t54 26t67 61z
M963 1473q-19 -69 -62 -132t-99.5 -102t-117.5 -39q-67 0 -113 16.5t-83 37t-70 37t-74 16.5q-27 0 -46 -9t-35.5 -29t-63.5 -104l-66 29q41 117 116 192.5t157 75.5q63 0 109.5 -16.5t84 -36t70 -35.5t67.5 -16q54 0 83.5 18t48.5 61l26 60z" />
    <glyph glyph-name="adieresis" unicode="&#xe4;" horiz-adv-x="1126" 
d="M1102 18q-30 -13 -87.5 -29t-107.5 -16q-187 0 -223 144h-6q-137 -146 -332 -146q-116 0 -191 69t-75 179q0 103 52.5 171.5t162.5 107.5l101 35q115 37 184 60t100 40v96q0 104 -44.5 157.5t-123.5 53.5q-48 0 -82 -14.5t-49 -28.5q3 -23 14 -58t11 -77q0 -49 -39 -79
t-107 -30q-62 0 -97.5 35t-35.5 96q0 62 58.5 116t153 86t187.5 32q157 0 243.5 -35t127.5 -109t41 -188l-6 -481q0 -33 8 -55t27 -38t37.5 -20t51 -4h46.5v-70zM680 545q-140 -45 -202.5 -82.5t-94 -87t-31.5 -117.5q0 -73 36 -113.5t101 -40.5q37 0 66 10t54 26t67 61z
M914 1356q0 -60 -43 -103t-97 -43q-58 0 -98.5 43.5t-40.5 102.5q0 60 41 102.5t98 42.5q55 0 97.5 -41.5t42.5 -103.5zM451 1356q0 -59 -41.5 -102.5t-97.5 -43.5q-57 0 -98.5 43.5t-41.5 102.5q0 61 41 103t99 42q56 0 97.5 -42.5t41.5 -102.5z" />
    <glyph glyph-name="aring" unicode="&#xe5;" horiz-adv-x="1126" 
d="M1102 18q-30 -13 -87.5 -29t-107.5 -16q-187 0 -223 144h-6q-137 -146 -332 -146q-116 0 -191 69t-75 179q0 103 52.5 171.5t162.5 107.5l101 35q115 37 184 60t100 40v96q0 104 -44.5 157.5t-123.5 53.5q-48 0 -82 -14.5t-49 -28.5q3 -23 14 -58t11 -77q0 -49 -39 -79
t-107 -30q-62 0 -97.5 35t-35.5 96q0 62 58.5 116t153 86t187.5 32q157 0 243.5 -35t127.5 -109t41 -188l-6 -481q0 -33 8 -55t27 -38t37.5 -20t51 -4h46.5v-70zM680 545q-140 -45 -202.5 -82.5t-94 -87t-31.5 -117.5q0 -73 36 -113.5t101 -40.5q37 0 66 10t54 26t67 61z
M811 1333q0 -102 -73.5 -164.5t-194.5 -62.5q-124 0 -196 62t-72 165q0 100 74 164t194 64q122 0 195 -62.5t73 -165.5zM674 1333q0 69 -33 114.5t-98 45.5q-63 0 -97 -42.5t-34 -117.5q0 -71 33 -115t98 -44t98 43.5t33 115.5z" />
    <glyph glyph-name="ae" unicode="&#xe6;" horiz-adv-x="1632" 
d="M1593 236q-71 -129 -184.5 -198t-247.5 -69q-277 0 -416 191h-6q-147 -189 -385 -189q-122 0 -198 69t-76 179q0 95 44.5 163t146 111t237.5 82l164 46v108q0 100 -42.5 155.5t-115.5 55.5q-51 0 -85 -14.5t-48 -28.5l5 -26q20 -73 20 -109q0 -49 -39 -79t-107 -30
q-62 0 -97.5 35t-35.5 96q0 60 56.5 114t151 87t187.5 33q106 0 189.5 -24.5t140.5 -86.5q132 111 287 111q204 0 316 -109.5t112 -308.5v-61h-639q0 -441 315 -441q87 0 153 44.5t124 142.5zM1292 625q0 172 -42.5 242.5t-125.5 70.5q-88 0 -141 -86.5t-55 -228.5zM672 535
q-172 -39 -246 -104.5t-74 -168.5q0 -81 37.5 -119.5t95.5 -38.5q116 0 187 95v336z" />
    <glyph glyph-name="ccedilla" unicode="&#xe7;" horiz-adv-x="1008" 
d="M1006 240q-67 -125 -181 -198t-247 -73q-236 0 -371 141t-135 388q0 140 67 260.5t186 190t267 69.5q167 0 265.5 -70t98.5 -188q0 -70 -35.5 -107t-101.5 -37q-65 0 -107 32t-42 81q0 47 23 133l7 33q-24 43 -106 43q-111 0 -174.5 -113t-63.5 -317q0 -180 80.5 -295
t210.5 -115q91 0 156.5 40.5t130.5 148.5zM823 -250q0 -102 -93 -148t-329 -46v73q121 0 163 7.5t65.5 25.5t23.5 53t-34 52.5t-118 17.5v231h82v-114q115 0 177.5 -40t62.5 -112z" />
    <glyph glyph-name="egrave" unicode="&#xe8;" horiz-adv-x="1079" 
d="M1040 236q-69 -125 -187 -196t-261 -71q-241 0 -380.5 142t-139.5 389q0 141 63 261t177 188.5t257 68.5q210 0 327.5 -110.5t117.5 -315.5v-66h-664q0 -212 84 -320t246 -108q86 0 154 42.5t133 144.5zM739 612q0 168 -44.5 247t-133.5 79q-95 0 -151 -87t-60 -241z
M718 1106l-290 193q-77 49 -106.5 80.5t-29.5 80.5q0 35 32 58.5t71 23.5q50 0 84 -20.5t69 -75.5q86 -131 211 -305z" />
    <glyph glyph-name="eacute" unicode="&#xe9;" horiz-adv-x="1079" 
d="M1040 236q-69 -125 -187 -196t-261 -71q-241 0 -380.5 142t-139.5 389q0 141 63 261t177 188.5t257 68.5q210 0 327.5 -110.5t117.5 -315.5v-66h-664q0 -212 84 -320t246 -108q86 0 154 42.5t133 144.5zM739 612q0 168 -44.5 247t-133.5 79q-95 0 -151 -87t-60 -241z
M824 1460q0 -45 -23.5 -74t-111.5 -86q-201 -131 -291 -194l-41 35q8 11 15.5 21.5t195.5 283.5q37 57 70 76.5t83 19.5q39 0 71 -24t32 -58z" />
    <glyph glyph-name="ecircumflex" unicode="&#xea;" horiz-adv-x="1079" 
d="M1040 236q-69 -125 -187 -196t-261 -71q-241 0 -380.5 142t-139.5 389q0 141 63 261t177 188.5t257 68.5q210 0 327.5 -110.5t117.5 -315.5v-66h-664q0 -212 84 -320t246 -108q86 0 154 42.5t133 144.5zM739 612q0 168 -44.5 247t-133.5 79q-95 0 -151 -87t-60 -241z
M856 1110l-299 264l-297 -264l-49 31l35 55q125 190 162.5 245.5t54 71.5t38.5 23.5t58 7.5q40 0 62.5 -8.5t46 -39.5t40 -55t79 -115.5t120.5 -184.5z" />
    <glyph glyph-name="edieresis" unicode="&#xeb;" horiz-adv-x="1079" 
d="M1040 236q-69 -125 -187 -196t-261 -71q-241 0 -380.5 142t-139.5 389q0 141 63 261t177 188.5t257 68.5q210 0 327.5 -110.5t117.5 -315.5v-66h-664q0 -212 84 -320t246 -108q86 0 154 42.5t133 144.5zM739 612q0 168 -44.5 247t-133.5 79q-95 0 -151 -87t-60 -241z
M932 1356q0 -60 -43 -103t-97 -43q-58 0 -98.5 43.5t-40.5 102.5q0 60 41 102.5t98 42.5q55 0 97.5 -41.5t42.5 -103.5zM469 1356q0 -59 -41.5 -102.5t-97.5 -43.5q-57 0 -98.5 43.5t-41.5 102.5q0 61 41 103t99 42q56 0 97.5 -42.5t41.5 -102.5z" />
    <glyph glyph-name="igrave" unicode="&#xec;" horiz-adv-x="662" 
d="M66 0v70q84 6 105.5 18t32.5 33.5t11 52.5v596q0 55 -42.5 92.5t-135.5 44.5v70l420 22l14 -14v-799q0 -49 32.5 -78t117.5 -38v-70h-555zM477 1106l-290 193q-77 49 -106.5 80.5t-29.5 80.5q0 35 32 58.5t71 23.5q50 0 84 -20.5t69 -75.5q86 -131 211 -305z" />
    <glyph glyph-name="iacute" unicode="&#xed;" horiz-adv-x="662" 
d="M66 0v70q84 6 105.5 18t32.5 33.5t11 52.5v596q0 55 -42.5 92.5t-135.5 44.5v70l420 22l14 -14v-799q0 -49 32.5 -78t117.5 -38v-70h-555zM576 1460q0 -45 -23.5 -74t-111.5 -86q-201 -131 -291 -194l-41 35q8 11 15.5 21.5t195.5 283.5q37 57 70 76.5t83 19.5
q39 0 71 -24t32 -58z" />
    <glyph glyph-name="icircumflex" unicode="&#xee;" horiz-adv-x="662" 
d="M66 0v70q84 6 105.5 18t32.5 33.5t11 52.5v596q0 55 -42.5 92.5t-135.5 44.5v70l420 22l14 -14v-799q0 -49 32.5 -78t117.5 -38v-70h-555zM598 1110l-299 264l-297 -264l-49 31l35 55q125 190 162.5 245.5t54 71.5t38.5 23.5t58 7.5q40 0 62.5 -8.5t46 -39.5t40 -55
t79 -115.5t120.5 -184.5z" />
    <glyph glyph-name="idieresis" unicode="&#xef;" horiz-adv-x="662" 
d="M66 0v70q84 6 105.5 18t32.5 33.5t11 52.5v596q0 55 -42.5 92.5t-135.5 44.5v70l420 22l14 -14v-799q0 -49 32.5 -78t117.5 -38v-70h-555zM674 1356q0 -60 -43 -103t-97 -43q-58 0 -98.5 43.5t-40.5 102.5q0 60 41 102.5t98 42.5q55 0 97.5 -41.5t42.5 -103.5zM211 1356
q0 -59 -41.5 -102.5t-97.5 -43.5q-57 0 -98.5 43.5t-41.5 102.5q0 61 41 103t99 42q56 0 97.5 -42.5t41.5 -102.5z" />
    <glyph glyph-name="eth" unicode="&#xf0;" horiz-adv-x="1198" 
d="M1122 621q0 -303 -141 -478.5t-393 -175.5q-147 0 -266.5 65.5t-185.5 185.5t-66 274q0 148 61 264.5t171 180.5t253 64q94 0 164 -35.5t110 -91.5l11 3q-27 218 -158 395l-221 -135l-55 80l217 131q-60 67 -168 139l49 65q124 -59 229 -137l201 125l55 -82l-178 -106
q160 -148 235.5 -328.5t75.5 -402.5zM836 506q0 196 -61.5 301.5t-176.5 105.5q-242 0 -242 -411q0 -226 62 -340.5t180 -114.5q113 0 175.5 119t62.5 340z" />
    <glyph glyph-name="ntilde" unicode="&#xf1;" horiz-adv-x="1311" 
d="M727 0v70l49 4q49 4 68.5 28t19.5 72v488q0 106 -43 159t-114 53q-72 0 -137.5 -38t-100.5 -99v-553q0 -65 49 -92q36 -15 92 -22v-70h-547v70q80 5 104 15.5t35 34t11 54.5v596q0 32 -16.5 62t-40.5 49q-37 21 -105 26v70l404 22l14 -14v-141h4l64 60q119 112 286 112
q145 0 223 -85t78 -247v-502q0 -52 31 -77.5t115 -34.5v-70h-543zM1067 1473q-19 -69 -62 -132t-99.5 -102t-117.5 -39q-67 0 -113 16.5t-83 37t-70 37t-74 16.5q-27 0 -46 -9t-35.5 -29t-63.5 -104l-66 29q41 117 116 192.5t157 75.5q63 0 109.5 -16.5t84 -36t70 -35.5
t67.5 -16q54 0 83.5 18t48.5 61l26 60z" />
    <glyph glyph-name="ograve" unicode="&#xf2;" horiz-adv-x="1202" 
d="M1130 502q0 -155 -66 -277t-189 -190t-283 -68q-147 0 -267 66t-187.5 185.5t-67.5 273.5q0 234 145 380t387 146q157 0 277.5 -64t185.5 -183.5t65 -268.5zM846 502q0 217 -63 326.5t-181 109.5q-121 0 -183.5 -109.5t-62.5 -322.5q0 -225 62.5 -342t183.5 -117
q118 0 181 118.5t63 336.5zM790 1106l-290 193q-77 49 -106.5 80.5t-29.5 80.5q0 35 32 58.5t71 23.5q50 0 84 -20.5t69 -75.5q86 -131 211 -305z" />
    <glyph glyph-name="oacute" unicode="&#xf3;" horiz-adv-x="1202" 
d="M1130 502q0 -155 -66 -277t-189 -190t-283 -68q-147 0 -267 66t-187.5 185.5t-67.5 273.5q0 234 145 380t387 146q157 0 277.5 -64t185.5 -183.5t65 -268.5zM846 502q0 217 -63 326.5t-181 109.5q-121 0 -183.5 -109.5t-62.5 -322.5q0 -225 62.5 -342t183.5 -117
q118 0 181 118.5t63 336.5zM842 1460q0 -45 -23.5 -74t-111.5 -86q-201 -131 -291 -194l-41 35q8 11 15.5 21.5t195.5 283.5q37 57 70 76.5t83 19.5q39 0 71 -24t32 -58z" />
    <glyph glyph-name="ocircumflex" unicode="&#xf4;" horiz-adv-x="1202" 
d="M1130 502q0 -155 -66 -277t-189 -190t-283 -68q-147 0 -267 66t-187.5 185.5t-67.5 273.5q0 234 145 380t387 146q157 0 277.5 -64t185.5 -183.5t65 -268.5zM846 502q0 217 -63 326.5t-181 109.5q-121 0 -183.5 -109.5t-62.5 -322.5q0 -225 62.5 -342t183.5 -117
q118 0 181 118.5t63 336.5zM901 1110l-299 264l-297 -264l-49 31l35 55q125 190 162.5 245.5t54 71.5t38.5 23.5t58 7.5q40 0 62.5 -8.5t46 -39.5t40 -55t79 -115.5t120.5 -184.5z" />
    <glyph glyph-name="otilde" unicode="&#xf5;" horiz-adv-x="1202" 
d="M1130 502q0 -155 -66 -277t-189 -190t-283 -68q-147 0 -267 66t-187.5 185.5t-67.5 273.5q0 234 145 380t387 146q157 0 277.5 -64t185.5 -183.5t65 -268.5zM846 502q0 217 -63 326.5t-181 109.5q-121 0 -183.5 -109.5t-62.5 -322.5q0 -225 62.5 -342t183.5 -117
q118 0 181 118.5t63 336.5zM1018 1473q-19 -69 -62 -132t-99.5 -102t-117.5 -39q-67 0 -113 16.5t-83 37t-70 37t-74 16.5q-27 0 -46 -9t-35.5 -29t-63.5 -104l-66 29q41 117 116 192.5t157 75.5q63 0 109.5 -16.5t84 -36t70 -35.5t67.5 -16q54 0 83.5 18t48.5 61l26 60z
" />
    <glyph glyph-name="odieresis" unicode="&#xf6;" horiz-adv-x="1202" 
d="M1130 502q0 -155 -66 -277t-189 -190t-283 -68q-147 0 -267 66t-187.5 185.5t-67.5 273.5q0 234 145 380t387 146q157 0 277.5 -64t185.5 -183.5t65 -268.5zM846 502q0 217 -63 326.5t-181 109.5q-121 0 -183.5 -109.5t-62.5 -322.5q0 -225 62.5 -342t183.5 -117
q118 0 181 118.5t63 336.5zM975 1356q0 -60 -43 -103t-97 -43q-58 0 -98.5 43.5t-40.5 102.5q0 60 41 102.5t98 42.5q55 0 97.5 -41.5t42.5 -103.5zM512 1356q0 -59 -41.5 -102.5t-97.5 -43.5q-57 0 -98.5 43.5t-41.5 102.5q0 61 41 103t99 42q56 0 97.5 -42.5t41.5 -102.5z
" />
    <glyph glyph-name="divide" unicode="&#xf7;" 
d="M836 973q0 -60 -44 -104t-102 -44q-59 0 -103 43t-44 105q0 61 43 104t104 43q60 0 103 -44t43 -103zM154 496v143h1071v-143h-1071zM836 160q0 -60 -43 -104t-103 -44q-61 0 -104 43t-43 105q0 59 42.5 103t104.5 44q60 0 103 -44.5t43 -102.5z" />
    <glyph glyph-name="oslash" unicode="&#xf8;" horiz-adv-x="1202" 
d="M1130 502q0 -155 -66 -276.5t-188.5 -189t-283.5 -67.5q-182 0 -322 105l-88 -100l-67 -72l-62 51l158 174q-141 143 -141 365q0 234 145 380t387 146q187 0 328 -98l145 159l62 -53l-150 -160q143 -143 143 -364zM807 788q-61 152 -205 152q-123 0 -188.5 -110.5
t-65.5 -323.5q0 -91 21 -217zM852 502q0 117 -21 203l-436 -500q63 -162 207 -162q120 0 185 119t65 340z" />
    <glyph glyph-name="ugrave" unicode="&#xf9;" horiz-adv-x="1282" 
d="M848 -6l-17 14v127h-6q-74 -74 -119.5 -102.5t-100.5 -45t-130 -16.5q-139 0 -215 87t-76 255v461q0 41 -19 69.5t-45 42.5t-95 21v70l407 22l12 -14v-674q0 -100 41.5 -154.5t114.5 -54.5q67 0 128.5 35t100.5 96v549q0 36 -15.5 64t-39 42t-123.5 19v70l422 22l14 -14
v-776q0 -26 8.5 -46t26 -37.5t37 -25.5t86.5 -12v-70zM796 1106l-290 193q-77 49 -106.5 80.5t-29.5 80.5q0 35 32 58.5t71 23.5q50 0 84 -20.5t69 -75.5q86 -131 211 -305z" />
    <glyph glyph-name="uacute" unicode="&#xfa;" horiz-adv-x="1282" 
d="M848 -6l-17 14v127h-6q-74 -74 -119.5 -102.5t-100.5 -45t-130 -16.5q-139 0 -215 87t-76 255v461q0 41 -19 69.5t-45 42.5t-95 21v70l407 22l12 -14v-674q0 -100 41.5 -154.5t114.5 -54.5q67 0 128.5 35t100.5 96v549q0 36 -15.5 64t-39 42t-123.5 19v70l422 22l14 -14
v-776q0 -26 8.5 -46t26 -37.5t37 -25.5t86.5 -12v-70zM891 1460q0 -45 -23.5 -74t-111.5 -86q-201 -131 -291 -194l-41 35q8 11 15.5 21.5t195.5 283.5q37 57 70 76.5t83 19.5q39 0 71 -24t32 -58z" />
    <glyph glyph-name="ucircumflex" unicode="&#xfb;" horiz-adv-x="1282" 
d="M848 -6l-17 14v127h-6q-74 -74 -119.5 -102.5t-100.5 -45t-130 -16.5q-139 0 -215 87t-76 255v461q0 41 -19 69.5t-45 42.5t-95 21v70l407 22l12 -14v-674q0 -100 41.5 -154.5t114.5 -54.5q67 0 128.5 35t100.5 96v549q0 36 -15.5 64t-39 42t-123.5 19v70l422 22l14 -14
v-776q0 -26 8.5 -46t26 -37.5t37 -25.5t86.5 -12v-70zM922 1110l-299 264l-297 -264l-49 31l35 55q125 190 162.5 245.5t54 71.5t38.5 23.5t58 7.5q40 0 62.5 -8.5t46 -39.5t40 -55t79 -115.5t120.5 -184.5z" />
    <glyph glyph-name="udieresis" unicode="&#xfc;" horiz-adv-x="1282" 
d="M848 -6l-17 14v127h-6q-74 -74 -119.5 -102.5t-100.5 -45t-130 -16.5q-139 0 -215 87t-76 255v461q0 41 -19 69.5t-45 42.5t-95 21v70l407 22l12 -14v-674q0 -100 41.5 -154.5t114.5 -54.5q67 0 128.5 35t100.5 96v549q0 36 -15.5 64t-39 42t-123.5 19v70l422 22l14 -14
v-776q0 -26 8.5 -46t26 -37.5t37 -25.5t86.5 -12v-70zM996 1356q0 -60 -43 -103t-97 -43q-58 0 -98.5 43.5t-40.5 102.5q0 60 41 102.5t98 42.5q55 0 97.5 -41.5t42.5 -103.5zM533 1356q0 -59 -41.5 -102.5t-97.5 -43.5q-57 0 -98.5 43.5t-41.5 102.5q0 61 41 103t99 42
q56 0 97.5 -42.5t41.5 -102.5z" />
    <glyph glyph-name="yacute" unicode="&#xfd;" horiz-adv-x="1079" 
d="M1112 922q-43 -7 -85 -36.5t-62.5 -68t-184.5 -424.5q-198 -463 -271 -586.5t-148 -187t-164 -63.5q-82 0 -135.5 42.5t-53.5 104.5q0 59 34.5 96t92.5 37q80 0 146 -87l38 -50q41 28 98.5 115t88.5 172q-115 267 -190 428l-185 399q-22 46 -65.5 73t-90.5 34v67h531v-69
q-47 -3 -82 -15.5t-35 -32.5q0 -7 5 -23t65 -153t184 -403q123 286 195 467q24 67 24 86q0 24 -40 45.5t-99 30.5v67h389v-65zM842 1460q0 -45 -23.5 -74t-111.5 -86q-201 -131 -291 -194l-41 35q8 11 15.5 21.5t195.5 283.5q37 57 70 76.5t83 19.5q39 0 71 -24t32 -58z" />
    <glyph glyph-name="thorn" unicode="&#xfe;" horiz-adv-x="1233" 
d="M1159 485q0 -140 -64 -258t-176 -186t-241 -68q-156 0 -246 68h-8v-289q0 -32 13 -56t36 -37t82 -22.5t78 -11.5v-69h-637v69q90 9 117 19q53 16 53 94v1569q-2 30 -13 59t-28 47t-56 28t-89 13v70l430 24l14 -16v-655l8 -3q61 68 138.5 105t152.5 37q193 0 314.5 -146.5
t121.5 -384.5zM877 485q0 185 -68 291.5t-191 106.5q-117 0 -194 -95v-575q23 -72 78 -115t129 -43q113 0 179.5 115.5t66.5 314.5z" />
    <glyph glyph-name="ydieresis" unicode="&#xff;" horiz-adv-x="1079" 
d="M1112 922q-43 -7 -85 -36.5t-62.5 -68t-184.5 -424.5q-198 -463 -271 -586.5t-148 -187t-164 -63.5q-82 0 -135.5 42.5t-53.5 104.5q0 59 34.5 96t92.5 37q80 0 146 -87l38 -50q41 28 98.5 115t88.5 172q-115 267 -190 428l-185 399q-22 46 -65.5 73t-90.5 34v67h531v-69
q-47 -3 -82 -15.5t-35 -32.5q0 -7 5 -23t65 -153t184 -403q123 286 195 467q24 67 24 86q0 24 -40 45.5t-99 30.5v67h389v-65zM959 1356q0 -60 -43 -103t-97 -43q-58 0 -98.5 43.5t-40.5 102.5q0 60 41 102.5t98 42.5q55 0 97.5 -41.5t42.5 -103.5zM496 1356
q0 -59 -41.5 -102.5t-97.5 -43.5q-57 0 -98.5 43.5t-41.5 102.5q0 61 41 103t99 42q56 0 97.5 -42.5t41.5 -102.5z" />
    <glyph glyph-name="Amacron" unicode="&#x100;" horiz-adv-x="1462" 
d="M831 0v74q85 7 139 22.5t54 34.5q0 10 -3 22.5t-126 329.5h-494q-40 -98 -70 -190.5t-30 -130.5q0 -34 54 -57t155 -31v-74h-559v74q91 7 150.5 47t95.5 129l477 1190h141q133 -330 405 -1029l78 -198q25 -60 73.5 -94.5t144.5 -44.5v-74h-685zM645 1108l-207 -533h418z
M387 1639v155h706v-155h-706z" />
    <glyph glyph-name="amacron" unicode="&#x101;" horiz-adv-x="1126" 
d="M1102 18q-30 -13 -87.5 -29t-107.5 -16q-187 0 -223 144h-6q-137 -146 -332 -146q-116 0 -191 69t-75 179q0 103 52.5 171.5t162.5 107.5l101 35q115 37 184 60t100 40v96q0 104 -44.5 157.5t-123.5 53.5q-48 0 -82 -14.5t-49 -28.5q3 -23 14 -58t11 -77q0 -49 -39 -79
t-107 -30q-62 0 -97.5 35t-35.5 96q0 62 58.5 116t153 86t187.5 32q157 0 243.5 -35t127.5 -109t41 -188l-6 -481q0 -33 8 -55t27 -38t37.5 -20t51 -4h46.5v-70zM680 545q-140 -45 -202.5 -82.5t-94 -87t-31.5 -117.5q0 -73 36 -113.5t101 -40.5q37 0 66 10t54 26t67 61z
M199 1264v155h706v-155h-706z" />
    <glyph glyph-name="Abreve" unicode="&#x102;" horiz-adv-x="1462" 
d="M831 0v74q85 7 139 22.5t54 34.5q0 10 -3 22.5t-126 329.5h-494q-40 -98 -70 -190.5t-30 -130.5q0 -34 54 -57t155 -31v-74h-559v74q91 7 150.5 47t95.5 129l477 1190h141q133 -330 405 -1029l78 -198q25 -60 73.5 -94.5t144.5 -44.5v-74h-685zM645 1108l-207 -533h418z
M1069 1851q-22 -148 -110.5 -234.5t-219.5 -86.5q-129 0 -220 87t-110 234l62 17q53 -176 268 -176q211 0 266 176z" />
    <glyph glyph-name="abreve" unicode="&#x103;" horiz-adv-x="1126" 
d="M1102 18q-30 -13 -87.5 -29t-107.5 -16q-187 0 -223 144h-6q-137 -146 -332 -146q-116 0 -191 69t-75 179q0 103 52.5 171.5t162.5 107.5l101 35q115 37 184 60t100 40v96q0 104 -44.5 157.5t-123.5 53.5q-48 0 -82 -14.5t-49 -28.5q3 -23 14 -58t11 -77q0 -49 -39 -79
t-107 -30q-62 0 -97.5 35t-35.5 96q0 62 58.5 116t153 86t187.5 32q157 0 243.5 -35t127.5 -109t41 -188l-6 -481q0 -33 8 -55t27 -38t37.5 -20t51 -4h46.5v-70zM680 545q-140 -45 -202.5 -82.5t-94 -87t-31.5 -117.5q0 -73 36 -113.5t101 -40.5q37 0 66 10t54 26t67 61z
M861 1513q-51 -383 -322 -383q-138 0 -218.5 99.5t-103.5 283.5l64 15q32 -102 63 -145t78 -66t117 -23q69 0 115.5 22.5t79 68t63.5 143.5z" />
    <glyph glyph-name="Aogonek" unicode="&#x104;" horiz-adv-x="1462" 
d="M831 0v74q85 7 139 22.5t54 34.5q0 10 -3 22.5t-126 329.5h-494q-40 -98 -70 -190.5t-30 -130.5q0 -34 54 -57t155 -31v-74h-559v74q91 7 150.5 47t95.5 129l477 1190h141q133 -330 405 -1029l78 -198q25 -60 73.5 -94.5t144.5 -44.5v-74h-685zM645 1108l-207 -533h418z
M1323 -444q-165 0 -250.5 50t-85.5 142q0 154 250 291h74q-71 -66 -103.5 -128.5t-32.5 -131.5q0 -76 53.5 -110.5t157.5 -39.5v-73h-63z" />
    <glyph glyph-name="aogonek" unicode="&#x105;" horiz-adv-x="1126" 
d="M1102 18q-30 -13 -87.5 -29t-107.5 -16q-187 0 -223 144h-6q-137 -146 -332 -146q-116 0 -191 69t-75 179q0 103 52.5 171.5t162.5 107.5l101 35q115 37 184 60t100 40v96q0 104 -44.5 157.5t-123.5 53.5q-48 0 -82 -14.5t-49 -28.5q3 -23 14 -58t11 -77q0 -49 -39 -79
t-107 -30q-62 0 -97.5 35t-35.5 96q0 62 58.5 116t153 86t187.5 32q157 0 243.5 -35t127.5 -109t41 -188l-6 -481q0 -33 8 -55t27 -38t37.5 -20t51 -4h46.5v-70zM680 545q-140 -45 -202.5 -82.5t-94 -87t-31.5 -117.5q0 -73 36 -113.5t101 -40.5q37 0 66 10t54 26t67 61z
M965 -444q-165 0 -250.5 50t-85.5 142q0 154 250 291h74q-71 -66 -103.5 -128.5t-32.5 -131.5q0 -76 53.5 -110.5t157.5 -39.5v-73h-63z" />
    <glyph glyph-name="Cacute" unicode="&#x106;" horiz-adv-x="1389" 
d="M1362 356q-173 -393 -594 -393q-196 0 -355.5 92.5t-249 260.5t-89.5 380q0 216 92.5 389.5t258.5 270t372 96.5q198 0 366 -94l51 61h82l11 -512h-86q-64 235 -166.5 345t-245.5 110q-196 0 -306 -168.5t-110 -474.5q0 -290 123.5 -459.5t333.5 -169.5q279 0 432 311z
M557 1495l-32 41q65 61 264 262q63 70 131 70q52 0 86.5 -26t34.5 -64q0 -44 -26 -69.5t-71 -45.5l-152 -65z" />
    <glyph glyph-name="cacute" unicode="&#x107;" horiz-adv-x="1008" 
d="M1006 240q-67 -125 -181 -198t-247 -73q-236 0 -371 141t-135 388q0 140 67 260.5t186 190t267 69.5q167 0 265.5 -70t98.5 -188q0 -70 -35.5 -107t-101.5 -37q-65 0 -107 32t-42 81q0 47 23 133l7 33q-24 43 -106 43q-111 0 -174.5 -113t-63.5 -317q0 -180 80.5 -295
t210.5 -115q91 0 156.5 40.5t130.5 148.5zM799 1460q0 -45 -23.5 -74t-111.5 -86q-201 -131 -291 -194l-41 35q8 11 15.5 21.5t195.5 283.5q37 57 70 76.5t83 19.5q39 0 71 -24t32 -58z" />
    <glyph glyph-name="Ccircumflex" unicode="&#x108;" horiz-adv-x="1389" 
d="M1362 356q-173 -393 -594 -393q-196 0 -355.5 92.5t-249 260.5t-89.5 380q0 216 92.5 389.5t258.5 270t372 96.5q198 0 366 -94l51 61h82l11 -512h-86q-64 235 -166.5 345t-245.5 110q-196 0 -306 -168.5t-110 -474.5q0 -290 123.5 -459.5t333.5 -169.5q279 0 432 311z
M1093 1495l-315 207l-309 -207l-41 31l155 188l39 52q36 51 73.5 76t86.5 26q39 0 62.5 -10.5t46.5 -38.5l102 -123l141 -170z" />
    <glyph glyph-name="ccircumflex" unicode="&#x109;" horiz-adv-x="1008" 
d="M1006 240q-67 -125 -181 -198t-247 -73q-236 0 -371 141t-135 388q0 140 67 260.5t186 190t267 69.5q167 0 265.5 -70t98.5 -188q0 -70 -35.5 -107t-101.5 -37q-65 0 -107 32t-42 81q0 47 23 133l7 33q-24 43 -106 43q-111 0 -174.5 -113t-63.5 -317q0 -180 80.5 -295
t210.5 -115q91 0 156.5 40.5t130.5 148.5zM866 1110l-299 264l-297 -264l-49 31l35 55q125 190 162.5 245.5t54 71.5t38.5 23.5t58 7.5q40 0 62.5 -8.5t46 -39.5t40 -55t79 -115.5t120.5 -184.5z" />
    <glyph glyph-name="Cdotaccent" unicode="&#x10a;" horiz-adv-x="1389" 
d="M1362 356q-173 -393 -594 -393q-196 0 -355.5 92.5t-249 260.5t-89.5 380q0 216 92.5 389.5t258.5 270t372 96.5q198 0 366 -94l51 61h82l11 -512h-86q-64 235 -166.5 345t-245.5 110q-196 0 -306 -168.5t-110 -474.5q0 -290 123.5 -459.5t333.5 -169.5q279 0 432 311z
M941 1708q0 -65 -44 -109.5t-106 -44.5t-104.5 44t-42.5 106t43 107t104 45q60 0 105 -43t45 -105z" />
    <glyph glyph-name="cdotaccent" unicode="&#x10b;" horiz-adv-x="1008" 
d="M1006 240q-67 -125 -181 -198t-247 -73q-236 0 -371 141t-135 388q0 140 67 260.5t186 190t267 69.5q167 0 265.5 -70t98.5 -188q0 -70 -35.5 -107t-101.5 -37q-65 0 -107 32t-42 81q0 47 23 133l7 33q-24 43 -106 43q-111 0 -174.5 -113t-63.5 -317q0 -180 80.5 -295
t210.5 -115q91 0 156.5 40.5t130.5 148.5zM719 1368q0 -65 -44 -109.5t-106 -44.5t-104.5 44t-42.5 106t43 107t104 45q60 0 105 -43t45 -105z" />
    <glyph glyph-name="Ccaron" unicode="&#x10c;" horiz-adv-x="1389" 
d="M1362 356q-173 -393 -594 -393q-196 0 -355.5 92.5t-249 260.5t-89.5 380q0 216 92.5 389.5t258.5 270t372 96.5q198 0 366 -94l51 61h82l11 -512h-86q-64 235 -166.5 345t-245.5 110q-196 0 -306 -168.5t-110 -474.5q0 -290 123.5 -459.5t333.5 -169.5q279 0 432 311z
M1132 1837l-153 -186l-38 -52q-70 -100 -157 -100q-93 0 -154 98l-34 48l-158 192l41 31l307 -203l305 203z" />
    <glyph glyph-name="ccaron" unicode="&#x10d;" horiz-adv-x="1008" 
d="M1006 240q-67 -125 -181 -198t-247 -73q-236 0 -371 141t-135 388q0 140 67 260.5t186 190t267 69.5q167 0 265.5 -70t98.5 -188q0 -70 -35.5 -107t-101.5 -37q-65 0 -107 32t-42 81q0 47 23 133l7 33q-24 43 -106 43q-111 0 -174.5 -113t-63.5 -317q0 -180 80.5 -295
t210.5 -115q91 0 156.5 40.5t130.5 148.5zM917 1513q-36 -60 -124.5 -190.5t-114.5 -163t-45 -40.5t-64 -9q-42 0 -65 9.5t-50 43.5q-153 219 -233 350l49 31l297 -262l299 262z" />
    <glyph glyph-name="Dcaron" unicode="&#x10e;" horiz-adv-x="1620" 
d="M1546 700q0 -209 -98.5 -365.5t-287.5 -245.5t-427 -89h-651v74q116 8 139 18q62 25 62 101v1015q0 69 -49 98t-150 37v76h688q222 0 407 -93.5t276 -253t91 -372.5zM1225 700q0 290 -136.5 460.5t-365.5 170.5l-156 -4v-1081q0 -82 48 -121t151 -39q228 0 343.5 155
t115.5 459zM1089 1837l-153 -186l-38 -52q-70 -100 -157 -100q-93 0 -154 98l-34 48l-158 192l41 31l307 -203l305 203z" />
    <glyph glyph-name="dcaron" unicode="&#x10f;" horiz-adv-x="1526" 
d="M834 -6l-17 14v92l-8 2q-60 -63 -137.5 -98t-155.5 -35q-124 0 -226 67t-160 189t-58 275q0 142 64 260.5t177 187t242 68.5q150 0 260 -64v336q0 50 -21 88t-65.5 54.5t-142.5 25.5v68l473 24l14 -16v-1321q0 -29 8.5 -51t26 -37.5t39 -22t104.5 -12.5v-70zM815 766
q-26 81 -80 122.5t-127 41.5q-113 0 -183.5 -121t-70.5 -324q0 -177 69.5 -283t192.5 -106q59 0 105 21.5t94 77.5v571zM1546 1296q0 -108 -84.5 -212.5t-218.5 -170.5l-39 66q120 64 168.5 127.5t54.5 148.5h-51q-80 0 -125 36.5t-45 107.5q0 55 44 96t104 41
q92 0 142 -61.5t50 -178.5z" />
    <glyph glyph-name="Dcroat" unicode="&#x110;" horiz-adv-x="1620" 
d="M1546 700q0 -209 -98.5 -365.5t-287.5 -245.5t-427 -89h-651v74q116 8 139 18q62 25 62 101v499h-191v103h191v413q0 69 -49 98t-150 37v76h688q222 0 407 -93.5t276 -253t91 -372.5zM1225 700q0 290 -136.5 460.5t-365.5 170.5l-158 -4v-532h303v-103h-303v-446
q0 -81 49 -120.5t152 -39.5q228 0 343.5 155t115.5 459z" />
    <glyph glyph-name="dcroat" unicode="&#x111;" horiz-adv-x="1266" 
d="M815 762q-26 81 -80 122.5t-127 41.5q-113 0 -183.5 -121t-70.5 -322q0 -177 69 -282t193 -105q59 0 105 21.5t94 77.5v567zM438 1159v92h379v43q0 50 -24 86.5t-70 52t-137 23.5v68l473 24l14 -16v-281h217v-92h-217v-948q0 -29 8.5 -51t26 -37.5t39 -22t104.5 -12.5
v-70l-417 -24l-17 14v90l-8 2q-65 -65 -140.5 -98t-152.5 -33q-124 0 -226 67t-160 189.5t-58 272.5q0 141 63.5 258.5t176.5 186.5t243 69q150 0 260 -64v211h-377z" />
    <glyph glyph-name="Emacron" unicode="&#x112;" horiz-adv-x="1407" 
d="M1331 0h-1253v74q61 5 109 13.5t72 35t24 74.5v1011q0 46 -20 71t-75 42t-110 22v76h1177v-352h-75q-17 53 -56.5 112.5t-85 99t-89 47t-169.5 7.5h-213v-555h152q85 0 133 25.5t76.5 91t36.5 121.5h75v-574h-75q-9 67 -37.5 134t-77 91.5t-131.5 24.5h-152v-418
q0 -88 17 -124.5t60 -50t159 -13.5q159 0 223 12.5t86 36.5q43 45 99.5 144.5t74.5 150.5h72zM389 1639v155h706v-155h-706z" />
    <glyph glyph-name="emacron" unicode="&#x113;" horiz-adv-x="1079" 
d="M1040 236q-69 -125 -187 -196t-261 -71q-241 0 -380.5 142t-139.5 389q0 141 63 261t177 188.5t257 68.5q210 0 327.5 -110.5t117.5 -315.5v-66h-664q0 -212 84 -320t246 -108q86 0 154 42.5t133 144.5zM739 612q0 168 -44.5 247t-133.5 79q-95 0 -151 -87t-60 -241z
M207 1264v155h706v-155h-706z" />
    <glyph glyph-name="Ebreve" unicode="&#x114;" horiz-adv-x="1407" 
d="M1331 0h-1253v74q61 5 109 13.5t72 35t24 74.5v1011q0 46 -20 71t-75 42t-110 22v76h1177v-352h-75q-17 53 -56.5 112.5t-85 99t-89 47t-169.5 7.5h-213v-555h152q85 0 133 25.5t76.5 91t36.5 121.5h75v-574h-75q-9 67 -37.5 134t-77 91.5t-131.5 24.5h-152v-418
q0 -88 17 -124.5t60 -50t159 -13.5q159 0 223 12.5t86 36.5q43 45 99.5 144.5t74.5 150.5h72zM1080 1851q-22 -148 -110.5 -234.5t-219.5 -86.5q-129 0 -220 87t-110 234l62 17q53 -176 268 -176q211 0 266 176z" />
    <glyph glyph-name="ebreve" unicode="&#x115;" horiz-adv-x="1079" 
d="M1040 236q-69 -125 -187 -196t-261 -71q-241 0 -380.5 142t-139.5 389q0 141 63 261t177 188.5t257 68.5q210 0 327.5 -110.5t117.5 -315.5v-66h-664q0 -212 84 -320t246 -108q86 0 154 42.5t133 144.5zM739 612q0 168 -44.5 247t-133.5 79q-95 0 -151 -87t-60 -241z
M885 1513q-51 -383 -322 -383q-138 0 -218.5 99.5t-103.5 283.5l64 15q32 -102 63 -145t78 -66t117 -23q69 0 115.5 22.5t79 68t63.5 143.5z" />
    <glyph glyph-name="Edotaccent" unicode="&#x116;" horiz-adv-x="1407" 
d="M1331 0h-1253v74q61 5 109 13.5t72 35t24 74.5v1011q0 46 -20 71t-75 42t-110 22v76h1177v-352h-75q-17 53 -56.5 112.5t-85 99t-89 47t-169.5 7.5h-213v-555h152q85 0 133 25.5t76.5 91t36.5 121.5h75v-574h-75q-9 67 -37.5 134t-77 91.5t-131.5 24.5h-152v-418
q0 -88 17 -124.5t60 -50t159 -13.5q159 0 223 12.5t86 36.5q43 45 99.5 144.5t74.5 150.5h72zM875 1708q0 -65 -44 -109.5t-106 -44.5t-104.5 44t-42.5 106t43 107t104 45q60 0 105 -43t45 -105z" />
    <glyph glyph-name="edotaccent" unicode="&#x117;" horiz-adv-x="1079" 
d="M1040 236q-69 -125 -187 -196t-261 -71q-241 0 -380.5 142t-139.5 389q0 141 63 261t177 188.5t257 68.5q210 0 327.5 -110.5t117.5 -315.5v-66h-664q0 -212 84 -320t246 -108q86 0 154 42.5t133 144.5zM739 612q0 168 -44.5 247t-133.5 79q-95 0 -151 -87t-60 -241z
M709 1368q0 -65 -44 -109.5t-106 -44.5t-104.5 44t-42.5 106t43 107t104 45q60 0 105 -43t45 -105z" />
    <glyph glyph-name="Eogonek" unicode="&#x118;" horiz-adv-x="1407" 
d="M1331 0h-1253v74q61 5 109 13.5t72 35t24 74.5v1011q0 46 -20 71t-75 42t-110 22v76h1177v-352h-75q-17 53 -56.5 112.5t-85 99t-89 47t-169.5 7.5h-213v-555h152q85 0 133 25.5t76.5 91t36.5 121.5h75v-574h-75q-9 67 -37.5 134t-77 91.5t-131.5 24.5h-152v-418
q0 -88 17 -124.5t60 -50t159 -13.5q159 0 223 12.5t86 36.5q43 45 99.5 144.5t74.5 150.5h72zM1223 -444q-165 0 -250.5 50t-85.5 142q0 154 250 291h74q-71 -66 -103.5 -128.5t-32.5 -131.5q0 -76 53.5 -110.5t157.5 -39.5v-73h-63z" />
    <glyph glyph-name="eogonek" unicode="&#x119;" horiz-adv-x="1079" 
d="M1040 236q-69 -125 -187 -196t-261 -71q-241 0 -380.5 142t-139.5 389q0 141 63 261t177 188.5t257 68.5q210 0 327.5 -110.5t117.5 -315.5v-66h-664q0 -212 84 -320t246 -108q86 0 154 42.5t133 144.5zM739 612q0 168 -44.5 247t-133.5 79q-95 0 -151 -87t-60 -241z
M854 -444q-165 0 -250.5 50t-85.5 142q0 154 250 291h74q-71 -66 -103.5 -128.5t-32.5 -131.5q0 -76 53.5 -110.5t157.5 -39.5v-73h-63z" />
    <glyph glyph-name="Ecaron" unicode="&#x11a;" horiz-adv-x="1407" 
d="M1331 0h-1253v74q61 5 109 13.5t72 35t24 74.5v1011q0 46 -20 71t-75 42t-110 22v76h1177v-352h-75q-17 53 -56.5 112.5t-85 99t-89 47t-169.5 7.5h-213v-555h152q85 0 133 25.5t76.5 91t36.5 121.5h75v-574h-75q-9 67 -37.5 134t-77 91.5t-131.5 24.5h-152v-418
q0 -88 17 -124.5t60 -50t159 -13.5q159 0 223 12.5t86 36.5q43 45 99.5 144.5t74.5 150.5h72zM1069 1837l-153 -186l-38 -52q-70 -100 -157 -100q-93 0 -154 98l-34 48l-158 192l41 31l307 -203l305 203z" />
    <glyph glyph-name="ecaron" unicode="&#x11b;" horiz-adv-x="1079" 
d="M1040 236q-69 -125 -187 -196t-261 -71q-241 0 -380.5 142t-139.5 389q0 141 63 261t177 188.5t257 68.5q210 0 327.5 -110.5t117.5 -315.5v-66h-664q0 -212 84 -320t246 -108q86 0 154 42.5t133 144.5zM739 612q0 168 -44.5 247t-133.5 79q-95 0 -151 -87t-60 -241z
M913 1513q-36 -60 -124.5 -190.5t-114.5 -163t-45 -40.5t-64 -9q-42 0 -65 9.5t-50 43.5q-153 219 -233 350l49 31l297 -262l299 262z" />
    <glyph glyph-name="Gcircumflex" unicode="&#x11c;" horiz-adv-x="1569" 
d="M1559 571q-97 -12 -128.5 -28t-43 -44t-11.5 -59v-201q0 -92 4 -130q-112 -59 -277.5 -102.5t-311.5 -43.5q-204 0 -368.5 92t-256.5 260t-92 381q0 219 94.5 392t267 268.5t387.5 95.5q206 0 381 -94l51 61h84l9 -508h-84q-69 234 -174.5 342.5t-262.5 108.5
q-202 0 -317 -171.5t-115 -471.5q0 -303 118.5 -482.5t324.5 -179.5q157 0 264 86q4 48 4 163v120q0 71 -42 100t-146 41l-37 4v76h678v-76zM1118 1495l-315 207l-309 -207l-41 31l155 188l39 52q36 51 73.5 76t86.5 26q39 0 62.5 -10.5t46.5 -38.5l102 -123l141 -170z" />
    <glyph glyph-name="gcircumflex" unicode="&#x11d;" horiz-adv-x="1112" 
d="M1090 -90q0 -163 -148.5 -258.5t-415.5 -95.5q-240 0 -365.5 64t-125.5 194q0 88 77 143t216 61v13q-185 57 -185 188q0 116 179 174v15q-230 92 -230 286q0 145 119.5 233.5t304.5 88.5q90 0 205 -33h364v-100h-225q76 -92 76 -201q0 -87 -53 -157.5t-147 -111
t-204 -40.5h-141q-32 -21 -40 -31t-12.5 -21t-4.5 -24q0 -35 20.5 -53t58.5 -26.5t142 -10.5l242 -12q130 -10 211.5 -88.5t81.5 -196.5zM678 686q0 123 -43 189.5t-123 66.5q-158 0 -158 -248q0 -112 44 -181t116 -69q77 0 120.5 65t43.5 177zM858 -145q0 107 -106 131
q-64 12 -330 12q-141 -46 -141 -182q0 -81 77 -131t209 -50q291 0 291 220zM821 1110l-299 264l-297 -264l-49 31l35 55q125 190 162.5 245.5t54 71.5t38.5 23.5t58 7.5q40 0 62.5 -8.5t46 -39.5t40 -55t79 -115.5t120.5 -184.5z" />
    <glyph glyph-name="Gbreve" unicode="&#x11e;" horiz-adv-x="1569" 
d="M1559 571q-97 -12 -128.5 -28t-43 -44t-11.5 -59v-201q0 -92 4 -130q-112 -59 -277.5 -102.5t-311.5 -43.5q-204 0 -368.5 92t-256.5 260t-92 381q0 219 94.5 392t267 268.5t387.5 95.5q206 0 381 -94l51 61h84l9 -508h-84q-69 234 -174.5 342.5t-262.5 108.5
q-202 0 -317 -171.5t-115 -471.5q0 -303 118.5 -482.5t324.5 -179.5q157 0 264 86q4 48 4 163v120q0 71 -42 100t-146 41l-37 4v76h678v-76zM1141 1851q-22 -148 -110.5 -234.5t-219.5 -86.5q-129 0 -220 87t-110 234l62 17q53 -176 268 -176q211 0 266 176z" />
    <glyph glyph-name="gbreve" unicode="&#x11f;" horiz-adv-x="1112" 
d="M1090 -90q0 -163 -148.5 -258.5t-415.5 -95.5q-240 0 -365.5 64t-125.5 194q0 88 77 143t216 61v13q-185 57 -185 188q0 116 179 174v15q-230 92 -230 286q0 145 119.5 233.5t304.5 88.5q90 0 205 -33h364v-100h-225q76 -92 76 -201q0 -87 -53 -157.5t-147 -111
t-204 -40.5h-141q-32 -21 -40 -31t-12.5 -21t-4.5 -24q0 -35 20.5 -53t58.5 -26.5t142 -10.5l242 -12q130 -10 211.5 -88.5t81.5 -196.5zM678 686q0 123 -43 189.5t-123 66.5q-158 0 -158 -248q0 -112 44 -181t116 -69q77 0 120.5 65t43.5 177zM858 -145q0 107 -106 131
q-64 12 -330 12q-141 -46 -141 -182q0 -81 77 -131t209 -50q291 0 291 220zM854 1513q-51 -383 -322 -383q-138 0 -218.5 99.5t-103.5 283.5l64 15q32 -102 63 -145t78 -66t117 -23q69 0 115.5 22.5t79 68t63.5 143.5z" />
    <glyph glyph-name="Gdotaccent" unicode="&#x120;" horiz-adv-x="1569" 
d="M1559 571q-97 -12 -128.5 -28t-43 -44t-11.5 -59v-201q0 -92 4 -130q-112 -59 -277.5 -102.5t-311.5 -43.5q-204 0 -368.5 92t-256.5 260t-92 381q0 219 94.5 392t267 268.5t387.5 95.5q206 0 381 -94l51 61h84l9 -508h-84q-69 234 -174.5 342.5t-262.5 108.5
q-202 0 -317 -171.5t-115 -471.5q0 -303 118.5 -482.5t324.5 -179.5q157 0 264 86q4 48 4 163v120q0 71 -42 100t-146 41l-37 4v76h678v-76zM963 1708q0 -65 -44 -109.5t-106 -44.5t-104.5 44t-42.5 106t43 107t104 45q60 0 105 -43t45 -105z" />
    <glyph glyph-name="gdotaccent" unicode="&#x121;" horiz-adv-x="1112" 
d="M1090 -90q0 -163 -148.5 -258.5t-415.5 -95.5q-240 0 -365.5 64t-125.5 194q0 88 77 143t216 61v13q-185 57 -185 188q0 116 179 174v15q-230 92 -230 286q0 145 119.5 233.5t304.5 88.5q90 0 205 -33h364v-100h-225q76 -92 76 -201q0 -87 -53 -157.5t-147 -111
t-204 -40.5h-141q-32 -21 -40 -31t-12.5 -21t-4.5 -24q0 -35 20.5 -53t58.5 -26.5t142 -10.5l242 -12q130 -10 211.5 -88.5t81.5 -196.5zM678 686q0 123 -43 189.5t-123 66.5q-158 0 -158 -248q0 -112 44 -181t116 -69q77 0 120.5 65t43.5 177zM858 -145q0 107 -106 131
q-64 12 -330 12q-141 -46 -141 -182q0 -81 77 -131t209 -50q291 0 291 220zM685 1368q0 -65 -44 -109.5t-106 -44.5t-104.5 44t-42.5 106t43 107t104 45q60 0 105 -43t45 -105z" />
    <glyph glyph-name="uni0122" unicode="&#x122;" horiz-adv-x="1569" 
d="M1559 571q-97 -12 -128.5 -28t-43 -44t-11.5 -59v-201q0 -92 4 -130q-112 -59 -277.5 -102.5t-311.5 -43.5q-204 0 -368.5 92t-256.5 260t-92 381q0 219 94.5 392t267 268.5t387.5 95.5q206 0 381 -94l51 61h84l9 -508h-84q-69 234 -174.5 342.5t-262.5 108.5
q-202 0 -317 -171.5t-115 -471.5q0 -303 118.5 -482.5t324.5 -179.5q157 0 264 86q4 48 4 163v120q0 71 -42 100t-146 41l-37 4v76h678v-76zM979 -231q0 -103 -75.5 -158t-211.5 -55v59q97 6 139 33.5t47 89.5h-55q-74 0 -103.5 24.5t-29.5 73.5q0 41 36 69.5t93 28.5
q74 0 117 -45.5t43 -119.5z" />
    <glyph glyph-name="uni0123" unicode="&#x123;" horiz-adv-x="1112" 
d="M1090 -90q0 -163 -148.5 -258.5t-415.5 -95.5q-240 0 -365.5 64t-125.5 194q0 88 77 143t216 61v13q-185 57 -185 188q0 116 179 174v15q-230 92 -230 286q0 145 119.5 233.5t304.5 88.5q90 0 205 -33h364v-100h-225q76 -92 76 -201q0 -87 -53 -157.5t-147 -111
t-204 -40.5h-141q-32 -21 -40 -31t-12.5 -21t-4.5 -24q0 -35 20.5 -53t58.5 -26.5t142 -10.5l242 -12q130 -10 211.5 -88.5t81.5 -196.5zM678 686q0 123 -43 189.5t-123 66.5q-158 0 -158 -248q0 -112 44 -181t116 -69q77 0 120.5 65t43.5 177zM858 -145q0 107 -106 131
q-64 12 -330 12q-141 -46 -141 -182q0 -81 77 -131t209 -50q291 0 291 220zM678 1602q-94 -48 -130.5 -79t-57.5 -69t-27 -88h49q77 0 119.5 -33t42.5 -92q0 -50 -40 -88.5t-99 -38.5q-97 0 -143 58t-46 155q0 99 81 189t214 147z" />
    <glyph glyph-name="Hcircumflex" unicode="&#x124;" horiz-adv-x="1769" 
d="M1006 0v74q114 9 135 18q37 14 49 40t12 61v497h-635v-485q0 -73 60 -103q10 -6 57.5 -16t75.5 -12v-74h-676v74q107 9 137 18q62 25 62 103v1013q0 70 -62 101q-76 29 -137 34v76h676v-76q-103 -8 -148 -30t-45 -94v-433h635v422q0 78 -69 104.5t-127 30.5v76h677v-76
q-115 -9 -155.5 -32.5t-40.5 -91.5v-1014q0 -50 24 -77t79 -39t93 -15v-74h-677zM1196 1495l-315 207l-309 -207l-41 31l155 188l39 52q36 51 73.5 76t86.5 26q39 0 62.5 -10.5t46.5 -38.5l102 -123l141 -170z" />
    <glyph glyph-name="hcircumflex" unicode="&#x125;" horiz-adv-x="1292" 
d="M707 0v70q70 5 92 12q47 20 47 92v488q0 105 -44.5 158.5t-115.5 53.5q-70 0 -133.5 -36.5t-103.5 -100.5v-553q0 -65 49 -92q36 -15 92 -22v-70h-545v70q63 5 92 12q56 21 56 92v1004q0 43 -23 81.5t-60.5 50t-105.5 15.5v70l430 24l15 -16v-559h4l64 60
q119 112 288 112q145 0 223 -85t78 -247v-502q0 -53 29 -78t114 -34v-70h-542zM973 1495l-318 207l-309 -207l-39 29l238 291q22 28 47.5 40.5t66.5 12.5q38 0 60 -8.5t51 -40.5l242 -295z" />
    <glyph glyph-name="Hbar" unicode="&#x126;" horiz-adv-x="1769" 
d="M92 1010v94h191v104q0 70 -62 101q-76 29 -137 34v76h676v-76q-103 -8 -148 -30t-45 -94v-115h635v104q0 78 -69 104.5t-127 30.5v76h677v-76q-115 -9 -155.5 -32.5t-40.5 -91.5v-115h190v-94h-190v-805q0 -50 24 -77t79 -39t93 -15v-74h-677v74q114 9 135 18
q37 14 49 40t12 61v497h-635v-485q0 -73 60 -103q10 -6 57.5 -16t75.5 -12v-74h-676v74q107 9 137 18q62 25 62 103v815h-191zM567 1010v-224h635v224h-635z" />
    <glyph glyph-name="hbar" unicode="&#x127;" horiz-adv-x="1292" 
d="M449 842h4l64 59q118 111 288 111q145 0 223 -85t78 -247v-498q0 -53 29 -78t114 -34v-70h-542v70q70 5 92 12q47 20 47 92v485q0 100 -43 155.5t-117 55.5q-72 0 -135.5 -36.5t-101.5 -100.5v-549q0 -65 49 -92q36 -15 92 -22v-70h-545v70q63 5 92 12q56 21 56 92v985
h-234v92h234v56q0 43 -23 81.5t-60.5 50t-105.5 15.5v70l430 24l15 -16v-281h352v-92h-352v-317z" />
    <glyph glyph-name="Itilde" unicode="&#x128;" horiz-adv-x="856" 
d="M72 0v74q98 7 125.5 12t48.5 18t30 35.5t9 53.5v1015q0 45 -20 70.5t-82.5 43.5t-110.5 21v76h712v-76q-129 -9 -172 -33t-43 -91v-1016q0 -72 64 -101q12 -6 65 -15.5t86 -12.5v-74h-712zM848 1844q-19 -69 -62 -132t-99.5 -102t-117.5 -39q-67 0 -113 16.5t-83 37
t-70 37t-74 16.5q-27 0 -46 -9t-35.5 -29t-63.5 -104l-66 29q41 117 116 192.5t157 75.5q63 0 109.5 -16.5t84 -36t70 -35.5t67.5 -16q54 0 83.5 18t48.5 61l26 60z" />
    <glyph glyph-name="itilde" unicode="&#x129;" horiz-adv-x="662" 
d="M66 0v70q84 6 105.5 18t32.5 33.5t11 52.5v596q0 54 -42 92t-136 45v70l420 22l14 -14v-799q0 -49 32.5 -78t117.5 -38v-70h-555zM690 1473q-17 -68 -57.5 -132t-94 -102.5t-110.5 -38.5t-96 16.5t-70.5 37t-61.5 37t-69 16.5q-32 0 -58 -24t-73 -118l-63 29
q39 119 108.5 193.5t147.5 74.5q54 0 93 -16.5t71.5 -36t61 -35.5t60.5 -16q37 0 60 10.5t38.5 30.5t45.5 98z" />
    <glyph glyph-name="Imacron" unicode="&#x12a;" horiz-adv-x="856" 
d="M72 0v74q98 7 125.5 12t48.5 18t30 35.5t9 53.5v1015q0 45 -20 70.5t-82.5 43.5t-110.5 21v76h712v-76q-129 -9 -172 -33t-43 -91v-1016q0 -72 64 -101q12 -6 65 -15.5t86 -12.5v-74h-712zM74 1649v155h706v-155h-706z" />
    <glyph glyph-name="imacron" unicode="&#x12b;" horiz-adv-x="662" 
d="M66 0v70q84 6 105.5 18t32.5 33.5t11 52.5v596q0 54 -42 92t-136 45v70l420 22l14 -14v-799q0 -49 32.5 -78t117.5 -38v-70h-555zM-18 1268v151h641v-151h-641z" />
    <glyph glyph-name="Ibreve" unicode="&#x12c;" horiz-adv-x="856" 
d="M72 0v74q98 7 125.5 12t48.5 18t30 35.5t9 53.5v1015q0 45 -20 70.5t-82.5 43.5t-110.5 21v76h712v-76q-129 -9 -172 -33t-43 -91v-1016q0 -72 64 -101q12 -6 65 -15.5t86 -12.5v-74h-712zM760 1851q-22 -148 -110.5 -234.5t-219.5 -86.5q-129 0 -220 87t-110 234l62 17
q53 -176 268 -176q211 0 266 176z" />
    <glyph glyph-name="ibreve" unicode="&#x12d;" horiz-adv-x="662" 
d="M66 0v70q84 6 105.5 18t32.5 33.5t11 52.5v596q0 54 -42 92t-136 45v70l420 22l14 -14v-799q0 -49 32.5 -78t117.5 -38v-70h-555zM602 1513q-23 -194 -95.5 -288.5t-201.5 -94.5q-256 0 -295 383l62 15q33 -115 60 -153.5t68 -59.5t105 -21q66 0 108 20.5t70 63t60 150.5
z" />
    <glyph glyph-name="Iogonek" unicode="&#x12e;" horiz-adv-x="856" 
d="M72 0v74q98 7 125.5 12t48.5 18t30 35.5t9 53.5v1015q0 45 -20 70.5t-82.5 43.5t-110.5 21v76h712v-76q-129 -9 -172 -33t-43 -91v-1016q0 -72 64 -101q12 -6 65 -15.5t86 -12.5v-74h-712zM596 -444q-165 0 -250.5 50t-85.5 142q0 154 250 291h74q-71 -66 -103.5 -128.5
t-32.5 -131.5q0 -76 53.5 -110.5t157.5 -39.5v-73h-63z" />
    <glyph glyph-name="iogonek" unicode="&#x12f;" horiz-adv-x="662" 
d="M485 1374q0 -67 -49 -114.5t-117 -47.5q-66 0 -112.5 46.5t-46.5 111.5q0 66 46.5 114t112.5 48q69 0 117.5 -46.5t48.5 -111.5zM66 0v70q84 6 105.5 18t32.5 33.5t11 52.5v596q0 54 -42 92t-136 45v70l420 22l14 -14v-799q0 -49 32.5 -78t117.5 -38v-70h-555zM514 -444
q-165 0 -250.5 50t-85.5 142q0 154 250 291h74q-71 -66 -103.5 -128.5t-32.5 -131.5q0 -76 53.5 -110.5t157.5 -39.5v-73h-63z" />
    <glyph glyph-name="Idotaccent" unicode="&#x130;" horiz-adv-x="856" 
d="M72 0v74q98 7 125.5 12t48.5 18t30 35.5t9 53.5v1015q0 45 -20 70.5t-82.5 43.5t-110.5 21v76h712v-76q-129 -9 -172 -33t-43 -91v-1016q0 -72 64 -101q12 -6 65 -15.5t86 -12.5v-74h-712zM580 1683q0 -65 -44 -109.5t-106 -44.5t-104.5 44t-42.5 106t43 107t104 45
q60 0 105 -43t45 -105z" />
    <glyph glyph-name="dotlessi" unicode="&#x131;" horiz-adv-x="662" 
d="M66 0v70q84 6 105.5 18t32.5 33.5t11 52.5v596q0 55 -42.5 92.5t-135.5 44.5v70l420 22l14 -14v-799q0 -49 32.5 -78t117.5 -38v-70h-555z" />
    <glyph glyph-name="IJ" unicode="&#x132;" horiz-adv-x="1995" 
d="M72 0v74q98 7 125.5 12t48.5 18t30 35.5t9 53.5v1015q0 45 -20 70.5t-82.5 43.5t-110.5 21v76h712v-76q-129 -9 -172 -33t-43 -91v-1016q0 -72 64 -101q12 -6 65 -15.5t86 -12.5v-74h-712zM1941 1343q-119 -12 -157.5 -33.5t-38.5 -90.5v-811q0 -120 -62.5 -223
t-174.5 -162.5t-249 -59.5q-179 0 -285 93t-106 245q0 84 45.5 139.5t122.5 55.5q73 0 117.5 -41t44.5 -109q0 -37 -14 -67t-33.5 -57t-41 -51.5t-36.5 -49.5v-8q16 -25 54 -44.5t89 -19.5q244 0 244 383v776q0 43 -19.5 69t-63 40.5t-128.5 25.5v76h692v-76z" />
    <glyph glyph-name="ij" unicode="&#x133;" horiz-adv-x="1278" 
d="M485 1374q0 -67 -49 -114.5t-117 -47.5q-66 0 -112.5 46.5t-46.5 111.5q0 66 46.5 114t112.5 48q69 0 117.5 -46.5t48.5 -111.5zM66 0v70q84 6 105.5 18t32.5 33.5t11 52.5v596q0 54 -42 92t-136 45v70l420 22l14 -14v-799q0 -49 32.5 -78t117.5 -38v-70h-555zM1125 1376
q0 -69 -48 -116.5t-116 -47.5q-66 0 -114 46.5t-48 111.5q0 66 48 114t114 48q67 0 115.5 -46t48.5 -110zM1114 88q0 -151 -59 -274t-166.5 -190.5t-243.5 -67.5q-100 0 -158.5 39t-58.5 106q0 58 34 94.5t93 36.5q40 0 69 -16t53 -47t69 -127q60 16 85 105.5t25 299.5v717
q0 68 -55 108q-29 20 -151 37v68l452 22l12 -14v-897z" />
    <glyph glyph-name="Jcircumflex" unicode="&#x134;" horiz-adv-x="1139" 
d="M1085 1343q-119 -12 -157.5 -33.5t-38.5 -90.5v-811q0 -120 -62.5 -223t-174.5 -162.5t-249 -59.5q-179 0 -285 93t-106 245q0 84 45.5 139.5t122.5 55.5q73 0 117.5 -41t44.5 -109q0 -37 -14 -67t-33.5 -57t-41 -51.5t-36.5 -49.5v-8q16 -25 54 -44.5t89 -19.5
q244 0 244 383v776q0 43 -19.5 69t-63 40.5t-128.5 25.5v76h692v-76zM1036 1495l-315 207l-309 -207l-41 31l155 188l39 52q36 51 73.5 76t86.5 26q39 0 62.5 -10.5t46.5 -38.5l102 -123l141 -170z" />
    <glyph glyph-name="jcircumflex" unicode="&#x135;" horiz-adv-x="653" 
d="M489 88q0 -151 -59 -274t-166.5 -190.5t-243.5 -67.5q-100 0 -158.5 39t-58.5 106q0 58 34 94.5t93 36.5q40 0 69 -16t53 -47t69 -127q60 16 85 105.5t25 299.5v717q0 68 -55 108q-29 20 -151 37v68l452 22l12 -14v-897zM590 1110l-299 264l-297 -264l-49 31l35 55
q125 190 162.5 245.5t54 71.5t38.5 23.5t58 7.5q40 0 62.5 -8.5t46 -39.5t40 -55t79 -115.5t120.5 -184.5z" />
    <glyph glyph-name="uni0136" unicode="&#x136;" horiz-adv-x="1546" 
d="M1124 0q-95 148 -203 290t-317 384h-37v-469q0 -73 60 -103q11 -7 55 -16t74 -12v-74h-672v74q117 9 137 18q62 25 62 101v1015q0 76 -67 103t-132 32v76h684v-76q-67 -5 -119.5 -18.5t-67 -39.5t-14.5 -66v-486h29q217 187 355.5 346t138.5 221q0 15 -26.5 25t-121.5 18
v76h576v-76q-198 -19 -287 -108l-106 -110q-215 -227 -289 -300q142 -168 234 -282l247 -305q39 -48 81 -82.5t87 -55t121 -26.5v-74h-482zM1004 -231q0 -103 -75.5 -158t-211.5 -55v59q97 6 139 33.5t47 89.5h-55q-74 0 -103.5 24.5t-29.5 73.5q0 41 36 69.5t93 28.5
q74 0 117 -45.5t43 -119.5z" />
    <glyph glyph-name="uni0137" unicode="&#x137;" horiz-adv-x="1196" 
d="M844 0q-158 254 -324 475l-71 -65v-226q0 -58 32 -82.5t115 -31.5v-70h-551v70q81 6 103.5 16.5t33.5 33.5t11 54v1131q0 43 -22.5 81.5t-61.5 50.5t-105 17v70l430 24l15 -16v-1038q138 127 319 313q33 33 33 59q0 37 -127 56v65h471v-63q-98 -29 -168 -67.5
t-143.5 -101t-124.5 -112.5q112 -150 344 -483q31 -45 69.5 -65t106.5 -25v-70h-385zM830 -231q0 -103 -75.5 -158t-211.5 -55v59q97 6 139 33.5t47 89.5h-55q-74 0 -103.5 24.5t-29.5 73.5q0 41 36 69.5t93 28.5q74 0 117 -45.5t43 -119.5z" />
    <glyph glyph-name="kgreenlandic" unicode="&#x138;" horiz-adv-x="1214" 
d="M213 770q0 32 -16.5 62t-40.5 49q-37 21 -105 26v70l404 22l14 -14v-491q138 127 319 313q33 33 33 59q0 36 -127 56v65h471v-63q-155 -45 -256 -125q-40 -29 -180 -156l187 -259l157 -224q30 -43 67.5 -64t108.5 -26v-70h-385q-139 224 -323 475l-72 -65v-226
q0 -61 36 -85t111 -29v-70h-550v70q82 6 104 16.5t32.5 33.5t10.5 54v596z" />
    <glyph glyph-name="Lacute" unicode="&#x139;" horiz-adv-x="1321" 
d="M1290 0h-1206v74l73 9q47 5 64 11q62 25 62 103v1009q0 61 -40.5 90t-158.5 47v76h688v-76q-127 -10 -166 -34t-39 -92v-945q0 -94 16 -127.5t55.5 -47t166.5 -13.5q211 0 262 51q43 45 97 138.5t83 164.5h74zM458 1495l-32 41q65 61 264 262q63 70 131 70q52 0 86.5 -26
t34.5 -64q0 -44 -26 -69.5t-71 -45.5l-152 -65z" />
    <glyph glyph-name="lacute" unicode="&#x13a;" horiz-adv-x="645" 
d="M47 0v70q83 6 105 18t32.5 34t10.5 52v997q0 46 -24 82.5t-72.5 52.5t-98.5 19v70l438 24l15 -16v-1217q0 -54 33.5 -80.5t113.5 -35.5v-70h-553zM141 1495l-30 41q135 130 262 262q37 40 67 55t64 15q54 0 87.5 -25t33.5 -65q0 -47 -30.5 -74t-129.5 -68
q-174 -72 -324 -141z" />
    <glyph glyph-name="uni013B" unicode="&#x13b;" horiz-adv-x="1321" 
d="M1290 0h-1206v74l73 9q47 5 64 11q62 25 62 103v1009q0 61 -40.5 90t-158.5 47v76h688v-76q-127 -10 -166 -34t-39 -92v-945q0 -94 16 -127.5t55.5 -47t166.5 -13.5q211 0 262 51q43 45 97 138.5t83 164.5h74zM897 -231q0 -103 -75.5 -158t-211.5 -55v59q97 6 139 33.5
t47 89.5h-55q-74 0 -103.5 24.5t-29.5 73.5q0 41 36 69.5t93 28.5q74 0 117 -45.5t43 -119.5z" />
    <glyph glyph-name="uni013C" unicode="&#x13c;" horiz-adv-x="645" 
d="M47 0v70q83 6 105 18t32.5 34t10.5 52v1126q0 46 -24 82.5t-72.5 52.5t-98.5 19v70l438 24l15 -16v-1346q0 -54 33.5 -80.5t113.5 -35.5v-70h-553zM488 -231q0 -103 -75.5 -158t-211.5 -55v59q97 6 139 33.5t47 89.5h-55q-74 0 -103.5 24.5t-29.5 73.5q0 41 36 69.5
t93 28.5q74 0 117 -45.5t43 -119.5z" />
    <glyph glyph-name="Lcaron" unicode="&#x13d;" horiz-adv-x="1321" 
d="M1290 0h-1206v74l73 9q47 5 64 11q62 25 62 103v1009q0 61 -40.5 90t-158.5 47v76h688v-76q-127 -10 -166 -34t-39 -92v-945q0 -94 16 -127.5t55.5 -47t166.5 -13.5q211 0 262 51q43 45 97 138.5t83 164.5h74zM1241 1196q0 -108 -84.5 -212.5t-218.5 -170.5l-39 66
q120 64 168.5 127.5t54.5 148.5h-51q-80 0 -125 36.5t-45 107.5q0 55 44 96t104 41q92 0 142 -61.5t50 -178.5z" />
    <glyph glyph-name="lcaron" unicode="&#x13e;" horiz-adv-x="903" 
d="M47 0v70q83 6 105 18t32.5 34t10.5 52v1126q0 46 -24 82.5t-72.5 52.5t-98.5 19v70l438 24l15 -16v-1346q0 -54 33.5 -80.5t113.5 -35.5v-70h-553zM923 1296q0 -108 -84.5 -212.5t-218.5 -170.5l-39 66q120 64 168.5 127.5t54.5 148.5h-51q-80 0 -125 36.5t-45 107.5
q0 55 44 96t104 41q92 0 142 -61.5t50 -178.5z" />
    <glyph glyph-name="Ldot" unicode="&#x13f;" horiz-adv-x="1321" 
d="M1290 0h-1206v74l73 9q47 5 64 11q62 25 62 103v1009q0 61 -40.5 90t-158.5 47v76h688v-76q-127 -10 -166 -34t-39 -92v-945q0 -94 16 -127.5t55.5 -47t166.5 -13.5q211 0 262 51q43 45 97 138.5t83 164.5h74zM1153 721q0 -65 -48.5 -114.5t-119.5 -49.5t-119.5 49.5
t-48.5 114.5q0 69 49.5 118.5t118.5 49.5t118.5 -49.5t49.5 -118.5z" />
    <glyph glyph-name="ldot" unicode="&#x140;" horiz-adv-x="981" 
d="M47 0v70q83 6 105 18t32.5 34t10.5 52v1126q0 46 -24 82.5t-72.5 52.5t-98.5 19v70l438 24l15 -16v-1346q0 -54 33.5 -80.5t113.5 -35.5v-70h-553zM981 551q0 -65 -48.5 -114.5t-119.5 -49.5t-119.5 49.5t-48.5 114.5q0 69 49.5 118.5t118.5 49.5t118.5 -49.5
t49.5 -118.5z" />
    <glyph glyph-name="Lslash" unicode="&#x141;" horiz-adv-x="1321" 
d="M565 272q0 -91 15.5 -125.5t55 -48.5t169.5 -14q211 0 262 51q43 45 97 138.5t83 164.5h74l-31 -438h-1206v74l73 9q47 5 64 11q62 25 62 103v419l-166 -69l-39 90l205 84v485q0 61 -40.5 90t-158.5 47v76h688v-76q-126 -9 -166.5 -34.5t-40.5 -91.5v-383l264 108l39 -90
l-303 -123v-457z" />
    <glyph glyph-name="lslash" unicode="&#x142;" horiz-adv-x="645" 
d="M453 711v-525q0 -54 33.5 -80.5t113.5 -35.5v-70h-553v70q83 6 105 18t32.5 34t10.5 52v440l-134 -55l-34 86l168 70v585q0 46 -24 82.5t-72.5 52.5t-98.5 19v70l438 24l15 -16v-721l135 57l35 -88z" />
    <glyph glyph-name="Nacute" unicode="&#x143;" horiz-adv-x="1645" 
d="M1626 1343q-64 -5 -129 -27t-86.5 -85.5t-21.5 -216.5v-1026h-132l-872 1130v-698q0 -77 6.5 -130t20 -90.5t36.5 -60t83.5 -41t105.5 -24.5v-74h-596v74q37 3 97 20t82 36.5t35 53.5t18.5 87.5t5.5 136.5v686q0 63 -26.5 116.5t-90.5 88.5t-135 44v76h469l786 -1022v607
q0 73 -5.5 125.5t-18.5 89t-31.5 57t-80.5 41t-114 26.5v76h594v-76zM692 1495l-32 41q65 61 264 262q63 70 131 70q52 0 86.5 -26t34.5 -64q0 -44 -26 -69.5t-71 -45.5l-152 -65z" />
    <glyph glyph-name="nacute" unicode="&#x144;" horiz-adv-x="1311" 
d="M727 0v70l49 4q49 4 68.5 28t19.5 72v488q0 106 -43 159t-114 53q-72 0 -137.5 -38t-100.5 -99v-553q0 -65 49 -92q36 -15 92 -22v-70h-547v70q80 5 104 15.5t35 34t11 54.5v596q0 32 -16.5 62t-40.5 49q-37 21 -105 26v70l404 22l14 -14v-141h4l64 60q119 112 286 112
q145 0 223 -85t78 -247v-502q0 -52 31 -77.5t115 -34.5v-70h-543zM924 1460q0 -45 -23.5 -74t-111.5 -86q-201 -131 -291 -194l-41 35q8 11 15.5 21.5t195.5 283.5q37 57 70 76.5t83 19.5q39 0 71 -24t32 -58z" />
    <glyph glyph-name="uni0145" unicode="&#x145;" horiz-adv-x="1645" 
d="M1626 1343q-64 -5 -129 -27t-86.5 -85.5t-21.5 -216.5v-1026h-132l-872 1130v-698q0 -77 6.5 -130t20 -90.5t36.5 -60t83.5 -41t105.5 -24.5v-74h-596v74q37 3 97 20t82 36.5t35 53.5t18.5 87.5t5.5 136.5v686q0 63 -26.5 116.5t-90.5 88.5t-135 44v76h469l786 -1022v607
q0 73 -5.5 125.5t-18.5 89t-31.5 57t-80.5 41t-114 26.5v76h594v-76zM971 -231q0 -103 -75.5 -158t-211.5 -55v59q97 6 139 33.5t47 89.5h-55q-74 0 -103.5 24.5t-29.5 73.5q0 41 36 69.5t93 28.5q74 0 117 -45.5t43 -119.5z" />
    <glyph glyph-name="uni0146" unicode="&#x146;" horiz-adv-x="1311" 
d="M727 0v70l49 4q49 4 68.5 28t19.5 72v488q0 106 -43 159t-114 53q-72 0 -137.5 -38t-100.5 -99v-553q0 -65 49 -92q36 -15 92 -22v-70h-547v70q80 5 104 15.5t35 34t11 54.5v596q0 32 -16.5 62t-40.5 49q-37 21 -105 26v70l404 22l14 -14v-141h4l64 60q119 112 286 112
q145 0 223 -85t78 -247v-502q0 -52 31 -77.5t115 -34.5v-70h-543zM836 -231q0 -103 -75.5 -158t-211.5 -55v59q97 6 139 33.5t47 89.5h-55q-74 0 -103.5 24.5t-29.5 73.5q0 41 36 69.5t93 28.5q74 0 117 -45.5t43 -119.5z" />
    <glyph glyph-name="Ncaron" unicode="&#x147;" horiz-adv-x="1645" 
d="M1626 1343q-64 -5 -129 -27t-86.5 -85.5t-21.5 -216.5v-1026h-132l-872 1130v-698q0 -77 6.5 -130t20 -90.5t36.5 -60t83.5 -41t105.5 -24.5v-74h-596v74q37 3 97 20t82 36.5t35 53.5t18.5 87.5t5.5 136.5v686q0 63 -26.5 116.5t-90.5 88.5t-135 44v76h469l786 -1022v607
q0 73 -5.5 125.5t-18.5 89t-31.5 57t-80.5 41t-114 26.5v76h594v-76zM1171 1837l-153 -186l-38 -52q-70 -100 -157 -100q-93 0 -154 98l-34 48l-158 192l41 31l307 -203l305 203z" />
    <glyph glyph-name="ncaron" unicode="&#x148;" horiz-adv-x="1311" 
d="M727 0v70l49 4q49 4 68.5 28t19.5 72v488q0 106 -43 159t-114 53q-72 0 -137.5 -38t-100.5 -99v-553q0 -65 49 -92q36 -15 92 -22v-70h-547v70q80 5 104 15.5t35 34t11 54.5v596q0 32 -16.5 62t-40.5 49q-37 21 -105 26v70l404 22l14 -14v-141h4l64 60q119 112 286 112
q145 0 223 -85t78 -247v-502q0 -52 31 -77.5t115 -34.5v-70h-543zM1014 1513q-36 -60 -124.5 -190.5t-114.5 -163t-45 -40.5t-64 -9q-42 0 -65 9.5t-50 43.5q-153 219 -233 350l49 31l297 -262l299 262z" />
    <glyph glyph-name="napostrophe" unicode="&#x149;" horiz-adv-x="1507" 
d="M922 0v70l49 4q49 4 68.5 28t19.5 72v488q0 106 -43 159t-114 53q-72 0 -137.5 -38t-100.5 -99v-553q0 -65 49 -92q36 -15 92 -22v-70h-547v70q80 5 104 15.5t35 34t11 54.5v596q0 32 -16.5 62t-40.5 49q-37 21 -105 26v70l404 22l14 -14v-141h4l64 60q119 112 286 112
q145 0 223 -85t78 -247v-502q0 -52 31 -77.5t115 -34.5v-70h-543zM317 1290q0 -108 -84.5 -212.5t-218.5 -170.5l-39 66q120 64 168.5 127.5t54.5 148.5h-51q-80 0 -125 36.5t-45 107.5q0 55 44 96t104 41q92 0 142 -61.5t50 -178.5z" />
    <glyph glyph-name="Eng" unicode="&#x14a;" horiz-adv-x="1645" 
d="M385 420q0 -76 6 -129t19.5 -90t36 -60t81.5 -41.5t109 -25.5v-74h-596v74q37 3 97 20t82 36.5t35 53.5t18.5 87.5t5.5 136.5v686q0 63 -26.5 116.5t-90.5 88.5t-135 44v76h469l786 -999v584q0 73 -5.5 125.5t-18.5 89t-31.5 57t-80.5 41t-114 26.5v76h594v-76
q-64 -5 -129 -27t-86.5 -85.5t-21.5 -216.5l2 -930q0 -248 -117 -388t-324 -140q-100 0 -163.5 42.5t-63.5 114.5q0 59 34 98t93 39q47 0 82.5 -26.5t69.5 -87.5l38 -66q103 4 167.5 92t66.5 232l-889 1124v-698z" />
    <glyph glyph-name="eng" unicode="&#x14b;" horiz-adv-x="1290" 
d="M469 184q0 -65 49 -92q36 -15 92 -22v-70h-547v70q80 5 104 15.5t35 34t11 54.5v596q0 32 -16.5 62t-40.5 49q-37 21 -105 26v70l404 22l14 -14v-141h4l64 60q119 112 286 112q143 0 222 -85.5t81 -246.5l2 -299l-4 -297q-4 -241 -133 -386.5t-338 -145.5
q-100 0 -158.5 39t-58.5 106q0 59 35.5 95t91.5 36q40 0 69 -16t53 -48.5t69 -125.5q57 16 82 101.5t28 297.5t4 330l-4 293q-2 106 -44.5 158t-114.5 52q-73 0 -137.5 -38t-98.5 -99v-553z" />
    <glyph glyph-name="Omacron" unicode="&#x14c;" horiz-adv-x="1602" 
d="M1526 713q0 -215 -93 -387t-259.5 -267.5t-376.5 -95.5q-202 0 -368.5 94.5t-259.5 264.5t-93 378q0 217 93.5 390t261.5 268.5t370 95.5t369.5 -94t261.5 -263.5t94 -383.5zM1204 711q0 306 -105.5 478.5t-297.5 172.5q-194 0 -300 -170.5t-106 -484.5
q0 -308 106.5 -479t299.5 -171t298 170.5t105 483.5zM447 1649v155h706v-155h-706z" />
    <glyph glyph-name="omacron" unicode="&#x14d;" horiz-adv-x="1202" 
d="M1130 502q0 -155 -66 -277t-189 -190t-283 -68q-147 0 -267 66t-187.5 185.5t-67.5 273.5q0 234 145 380t387 146q157 0 277.5 -64t185.5 -183.5t65 -268.5zM846 502q0 217 -63 326.5t-181 109.5q-121 0 -183.5 -109.5t-62.5 -322.5q0 -225 62.5 -342t183.5 -117
q118 0 181 118.5t63 336.5zM248 1264v155h706v-155h-706z" />
    <glyph glyph-name="Obreve" unicode="&#x14e;" horiz-adv-x="1602" 
d="M1526 713q0 -215 -93 -387t-259.5 -267.5t-376.5 -95.5q-202 0 -368.5 94.5t-259.5 264.5t-93 378q0 217 93.5 390t261.5 268.5t370 95.5t369.5 -94t261.5 -263.5t94 -383.5zM1204 711q0 306 -105.5 478.5t-297.5 172.5q-194 0 -300 -170.5t-106 -484.5
q0 -308 106.5 -479t299.5 -171t298 170.5t105 483.5zM1131 1851q-22 -148 -110.5 -234.5t-219.5 -86.5q-129 0 -220 87t-110 234l62 17q53 -176 268 -176q211 0 266 176z" />
    <glyph glyph-name="obreve" unicode="&#x14f;" horiz-adv-x="1202" 
d="M1130 502q0 -155 -66 -277t-189 -190t-283 -68q-147 0 -267 66t-187.5 185.5t-67.5 273.5q0 234 145 380t387 146q157 0 277.5 -64t185.5 -183.5t65 -268.5zM846 502q0 217 -63 326.5t-181 109.5q-121 0 -183.5 -109.5t-62.5 -322.5q0 -225 62.5 -342t183.5 -117
q118 0 181 118.5t63 336.5zM924 1513q-51 -383 -322 -383q-138 0 -218.5 99.5t-103.5 283.5l64 15q32 -102 63 -145t78 -66t117 -23q69 0 115.5 22.5t79 68t63.5 143.5z" />
    <glyph glyph-name="Ohungarumlaut" unicode="&#x150;" horiz-adv-x="1602" 
d="M1526 713q0 -215 -93 -387t-259.5 -267.5t-376.5 -95.5q-202 0 -368.5 94.5t-259.5 264.5t-93 378q0 217 93.5 390t261.5 268.5t370 95.5t369.5 -94t261.5 -263.5t94 -383.5zM1204 711q0 306 -105.5 478.5t-297.5 172.5q-194 0 -300 -170.5t-106 -484.5
q0 -308 106.5 -479t299.5 -171t298 170.5t105 483.5zM504 1495l-31 39q55 58 104.5 117.5t94.5 107.5t86 78.5t78 30.5q54 0 86 -27.5t32 -64.5q0 -41 -24 -66.5t-66 -44.5q-205 -90 -360 -170zM963 1495l-31 39l124 137q97 112 149.5 154.5t93.5 42.5q51 0 84.5 -26
t33.5 -66q0 -43 -28.5 -71t-107.5 -60q-115 -47 -318 -150z" />
    <glyph glyph-name="ohungarumlaut" unicode="&#x151;" horiz-adv-x="1202" 
d="M1130 502q0 -155 -66 -277t-189 -190t-283 -68q-147 0 -267 66t-187.5 185.5t-67.5 273.5q0 234 145 380t387 146q157 0 277.5 -64t185.5 -183.5t65 -268.5zM846 502q0 217 -63 326.5t-181 109.5q-121 0 -183.5 -109.5t-62.5 -322.5q0 -225 62.5 -342t183.5 -117
q118 0 181 118.5t63 336.5zM1102 1462q0 -36 -26.5 -69t-162.5 -140l-186 -151l-35 31q105 167 153 255l33 60q32 53 60 73.5t73 20.5q38 0 64.5 -24.5t26.5 -55.5zM715 1462q0 -31 -18 -58t-62 -63q-237 -196 -287 -239l-37 31q80 128 180 315q31 53 58.5 73.5t74.5 20.5
q37 0 64 -25t27 -55z" />
    <glyph glyph-name="OE" unicode="&#x152;" horiz-adv-x="2148" 
d="M2073 0h-1227q-216 0 -401 92.5t-277 252t-92 368.5q0 205 94.5 363.5t281.5 250.5t412 92h1131v-352h-74q-16 50 -52.5 107t-79 96.5t-79.5 51t-188 11.5h-199v-555h137q60 0 102 12.5t71.5 46t48 85.5t24.5 94h76v-574h-76q-4 44 -28 108t-52 91.5t-68 39t-98 11.5
h-137v-418q0 -91 16 -125.5t57 -48.5t158 -14q127 0 180.5 6.5t84 19.5t65.5 60t78 122.5t66 135.5h71zM1038 1327l-149 4q-233 0 -363.5 -164t-130.5 -454q0 -287 136.5 -457t365.5 -170l141 4v1237z" />
    <glyph glyph-name="oe" unicode="&#x153;" horiz-adv-x="1796" 
d="M1755 236q-64 -124 -178 -195.5t-252 -71.5q-121 0 -215.5 44t-157.5 122q-66 -75 -160 -121.5t-212 -46.5q-144 0 -262 66t-183 186t-65 273q0 154 64.5 274t184 186t275.5 66q105 0 200.5 -42.5t168.5 -123.5q70 79 156 122.5t181 43.5q206 0 318.5 -111.5
t112.5 -310.5v-70h-644q2 -213 80 -320.5t240 -107.5q85 0 150.5 43.5t125.5 143.5zM1456 612q0 126 -17 191t-54 100t-97 35q-92 0 -145.5 -89t-55.5 -239zM815 496q0 227 -56.5 334.5t-168.5 107.5q-117 0 -176.5 -110t-59.5 -322q0 -230 60.5 -344.5t175.5 -114.5
q225 0 225 449z" />
    <glyph glyph-name="Racute" unicode="&#x154;" horiz-adv-x="1534" 
d="M1124 0q-153 236 -245 364t-213 277h-99v-440q0 -76 60 -103q15 -6 63.5 -14t71.5 -10v-74h-678v74l73 9q47 5 64 11q62 28 62 103v1013q0 78 -62 105q-16 5 -38 10t-99 18v76h725q241 0 368.5 -87t127.5 -251q0 -141 -81.5 -233.5t-265.5 -147.5l347 -454
q39 -50 76.5 -87.5t74.5 -57t133 -27.5v-74h-465zM985 1057q0 134 -76 204t-219 70h-123v-600h103q146 0 230.5 85t84.5 241zM563 1495l-32 41q65 61 264 262q63 70 131 70q52 0 86.5 -26t34.5 -64q0 -44 -26 -69.5t-71 -45.5l-152 -65z" />
    <glyph glyph-name="racute" unicode="&#x155;" horiz-adv-x="952" 
d="M940 834q0 -66 -38 -113t-99 -47q-65 0 -104.5 32.5t-39.5 86.5q0 42 13 81q-53 -1 -108.5 -35t-94.5 -91v-562q0 -55 31 -80.5t159 -35.5v-70h-596v70q80 5 104 15.5t35 34t11 54.5v596q0 32 -16.5 62t-40.5 49q-37 21 -105 26v70l404 22l14 -14v-141h4q136 168 293 168
q79 0 126.5 -49t47.5 -129zM773 1460q0 -45 -23.5 -74t-111.5 -86q-201 -131 -291 -194l-41 35q8 11 15.5 21.5t195.5 283.5q37 57 70 76.5t83 19.5q39 0 71 -24t32 -58z" />
    <glyph glyph-name="uni0156" unicode="&#x156;" horiz-adv-x="1534" 
d="M1124 0q-153 236 -245 364t-213 277h-99v-440q0 -76 60 -103q15 -6 63.5 -14t71.5 -10v-74h-678v74l73 9q47 5 64 11q62 28 62 103v1013q0 78 -62 105q-16 5 -38 10t-99 18v76h725q241 0 368.5 -87t127.5 -251q0 -141 -81.5 -233.5t-265.5 -147.5l347 -454
q39 -50 76.5 -87.5t74.5 -57t133 -27.5v-74h-465zM985 1057q0 134 -76 204t-219 70h-123v-600h103q146 0 230.5 85t84.5 241zM991 -231q0 -103 -75.5 -158t-211.5 -55v59q97 6 139 33.5t47 89.5h-55q-74 0 -103.5 24.5t-29.5 73.5q0 41 36 69.5t93 28.5q74 0 117 -45.5
t43 -119.5z" />
    <glyph glyph-name="uni0157" unicode="&#x157;" horiz-adv-x="952" 
d="M940 834q0 -66 -38 -113t-99 -47q-65 0 -104.5 32.5t-39.5 86.5q0 42 13 81q-53 -1 -108.5 -35t-94.5 -91v-562q0 -55 31 -80.5t159 -35.5v-70h-596v70q80 5 104 15.5t35 34t11 54.5v596q0 32 -16.5 62t-40.5 49q-37 21 -105 26v70l404 22l14 -14v-141h4q136 168 293 168
q79 0 126.5 -49t47.5 -129zM572 -231q0 -103 -75.5 -158t-211.5 -55v59q97 6 139 33.5t47 89.5h-55q-74 0 -103.5 24.5t-29.5 73.5q0 41 36 69.5t93 28.5q74 0 117 -45.5t43 -119.5z" />
    <glyph glyph-name="Rcaron" unicode="&#x158;" horiz-adv-x="1534" 
d="M1124 0q-153 236 -245 364t-213 277h-99v-440q0 -76 60 -103q15 -6 63.5 -14t71.5 -10v-74h-678v74l73 9q47 5 64 11q62 28 62 103v1013q0 78 -62 105q-16 5 -38 10t-99 18v76h725q241 0 368.5 -87t127.5 -251q0 -141 -81.5 -233.5t-265.5 -147.5l347 -454
q39 -50 76.5 -87.5t74.5 -57t133 -27.5v-74h-465zM985 1057q0 134 -76 204t-219 70h-123v-600h103q146 0 230.5 85t84.5 241zM1063 1837l-153 -186l-38 -52q-70 -100 -157 -100q-93 0 -154 98l-34 48l-158 192l41 31l307 -203l305 203z" />
    <glyph glyph-name="rcaron" unicode="&#x159;" horiz-adv-x="952" 
d="M940 834q0 -66 -38 -113t-99 -47q-65 0 -104.5 32.5t-39.5 86.5q0 42 13 81q-53 -1 -108.5 -35t-94.5 -91v-562q0 -55 31 -80.5t159 -35.5v-70h-596v70q80 5 104 15.5t35 34t11 54.5v596q0 32 -16.5 62t-40.5 49q-37 21 -105 26v70l404 22l14 -14v-141h4q136 168 293 168
q79 0 126.5 -49t47.5 -129zM817 1513q-36 -60 -124.5 -190.5t-114.5 -163t-45 -40.5t-64 -9q-42 0 -65 9.5t-50 43.5q-153 219 -233 350l49 31l297 -262l299 262z" />
    <glyph glyph-name="Sacute" unicode="&#x15a;" horiz-adv-x="1239" 
d="M1161 408q0 -125 -68 -227.5t-192 -159t-276 -56.5q-100 0 -202.5 27t-191.5 78l-57 -70h-82l-14 498h84q76 -221 194 -330t267 -109q130 0 202 64t72 178q0 174 -221 254q-230 81 -291 107q-268 113 -268 385q0 112 62.5 206t174 146.5t244.5 52.5q87 0 177.5 -24.5
t172.5 -71.5l51 63h84l9 -477h-84q-59 174 -111.5 253.5t-122 122t-164.5 42.5q-103 0 -170 -60.5t-67 -150.5q0 -102 70.5 -165t281.5 -132q250 -83 343 -185t93 -259zM438 1495l-32 41q65 61 264 262q63 70 131 70q52 0 86.5 -26t34.5 -64q0 -44 -26 -69.5t-71 -45.5
l-152 -65z" />
    <glyph glyph-name="sacute" unicode="&#x15b;" horiz-adv-x="967" 
d="M897 297q0 -149 -115.5 -238.5t-302.5 -89.5q-75 0 -155 23.5t-142 64.5l-24 -65h-76l-12 358h69q22 -76 75 -147t121.5 -112.5t145.5 -41.5q189 0 189 158q0 63 -49.5 103.5t-214.5 88.5t-237.5 126.5t-72.5 189.5q0 133 107 217t274 84q143 0 256 -55l23 57h73l17 -330
h-72q-30 109 -107 178.5t-173 69.5q-79 0 -124.5 -37t-45.5 -96q0 -46 18.5 -75.5t61.5 -52t178 -63.5q169 -51 242 -125t73 -190zM770 1460q0 -45 -23.5 -74t-111.5 -86q-201 -131 -291 -194l-41 35q8 11 15.5 21.5t195.5 283.5q37 57 70 76.5t83 19.5q39 0 71 -24t32 -58z
" />
    <glyph glyph-name="Scircumflex" unicode="&#x15c;" horiz-adv-x="1239" 
d="M1161 408q0 -125 -68 -227.5t-192 -159t-276 -56.5q-100 0 -202.5 27t-191.5 78l-57 -70h-82l-14 498h84q76 -221 194 -330t267 -109q130 0 202 64t72 178q0 174 -221 254q-230 81 -291 107q-268 113 -268 385q0 112 62.5 206t174 146.5t244.5 52.5q87 0 177.5 -24.5
t172.5 -71.5l51 63h84l9 -477h-84q-59 174 -111.5 253.5t-122 122t-164.5 42.5q-103 0 -170 -60.5t-67 -150.5q0 -102 70.5 -165t281.5 -132q250 -83 343 -185t93 -259zM932 1495l-315 207l-309 -207l-41 31l155 188l39 52q36 51 73.5 76t86.5 26q39 0 62.5 -10.5
t46.5 -38.5l102 -123l141 -170z" />
    <glyph glyph-name="scircumflex" unicode="&#x15d;" horiz-adv-x="967" 
d="M897 297q0 -149 -115.5 -238.5t-302.5 -89.5q-75 0 -155 23.5t-142 64.5l-24 -65h-76l-12 358h69q22 -76 75 -147t121.5 -112.5t145.5 -41.5q189 0 189 158q0 63 -49.5 103.5t-214.5 88.5t-237.5 126.5t-72.5 189.5q0 133 107 217t274 84q143 0 256 -55l23 57h73l17 -330
h-72q-30 109 -107 178.5t-173 69.5q-79 0 -124.5 -37t-45.5 -96q0 -46 18.5 -75.5t61.5 -52t178 -63.5q169 -51 242 -125t73 -190zM793 1110l-299 264l-297 -264l-49 31l35 55q125 190 162.5 245.5t54 71.5t38.5 23.5t58 7.5q40 0 62.5 -8.5t46 -39.5t40 -55t79 -115.5
t120.5 -184.5z" />
    <glyph glyph-name="Scedilla" unicode="&#x15e;" horiz-adv-x="1239" 
d="M1161 408q0 -125 -68 -227.5t-192 -159t-276 -56.5q-100 0 -202.5 27t-191.5 78l-57 -70h-82l-14 498h84q76 -221 194 -330t267 -109q130 0 202 64t72 178q0 174 -221 254q-230 81 -291 107q-268 113 -268 385q0 112 62.5 206t174 146.5t244.5 52.5q87 0 177.5 -24.5
t172.5 -71.5l51 63h84l9 -477h-84q-59 174 -111.5 253.5t-122 122t-164.5 42.5q-103 0 -170 -60.5t-67 -150.5q0 -102 70.5 -165t281.5 -132q250 -83 343 -185t93 -259zM834 -250q0 -102 -93 -148t-329 -46v73q121 0 163 7.5t65.5 25.5t23.5 53t-34 52.5t-118 17.5v231h82
v-114q115 0 177.5 -40t62.5 -112z" />
    <glyph glyph-name="scedilla" unicode="&#x15f;" horiz-adv-x="967" 
d="M897 297q0 -149 -115.5 -238.5t-302.5 -89.5q-75 0 -155 23.5t-142 64.5l-24 -65h-76l-12 358h69q22 -76 75 -147t121.5 -112.5t145.5 -41.5q189 0 189 158q0 63 -49.5 103.5t-214.5 88.5t-237.5 126.5t-72.5 189.5q0 133 107 217t274 84q143 0 256 -55l23 57h73l17 -330
h-72q-30 109 -107 178.5t-173 69.5q-79 0 -124.5 -37t-45.5 -96q0 -46 18.5 -75.5t61.5 -52t178 -63.5q169 -51 242 -125t73 -190zM723 -250q0 -102 -93 -148t-329 -46v73q121 0 163 7.5t65.5 25.5t23.5 53t-34 52.5t-118 17.5v231h82v-114q115 0 177.5 -40t62.5 -112z" />
    <glyph glyph-name="Scaron" unicode="&#x160;" horiz-adv-x="1239" 
d="M1161 408q0 -125 -68 -227.5t-192 -159t-276 -56.5q-100 0 -202.5 27t-191.5 78l-57 -70h-82l-14 498h84q76 -221 194 -330t267 -109q130 0 202 64t72 178q0 174 -221 254q-230 81 -291 107q-268 113 -268 385q0 112 62.5 206t174 146.5t244.5 52.5q87 0 177.5 -24.5
t172.5 -71.5l51 63h84l9 -477h-84q-59 174 -111.5 253.5t-122 122t-164.5 42.5q-103 0 -170 -60.5t-67 -150.5q0 -102 70.5 -165t281.5 -132q250 -83 343 -185t93 -259zM967 1837l-153 -186l-38 -52q-70 -100 -157 -100q-93 0 -154 98l-34 48l-158 192l41 31l307 -203
l305 203z" />
    <glyph glyph-name="scaron" unicode="&#x161;" horiz-adv-x="967" 
d="M897 297q0 -149 -115.5 -238.5t-302.5 -89.5q-75 0 -155 23.5t-142 64.5l-24 -65h-76l-12 358h69q22 -76 75 -147t121.5 -112.5t145.5 -41.5q189 0 189 158q0 63 -49.5 103.5t-214.5 88.5t-237.5 126.5t-72.5 189.5q0 133 107 217t274 84q143 0 256 -55l23 57h73l17 -330
h-72q-30 109 -107 178.5t-173 69.5q-79 0 -124.5 -37t-45.5 -96q0 -46 18.5 -75.5t61.5 -52t178 -63.5q169 -51 242 -125t73 -190zM842 1513q-36 -60 -124.5 -190.5t-114.5 -163t-45 -40.5t-64 -9q-42 0 -65 9.5t-50 43.5q-153 219 -233 350l49 31l297 -262l299 262z" />
    <glyph glyph-name="uni0162" unicode="&#x162;" horiz-adv-x="1333" 
d="M1245 1024q-29 96 -96 194.5t-125 108.5q-101 8 -162 8h-53v-1124q0 -51 24 -78t91.5 -41.5t107.5 -17.5v-74h-731v74q27 2 87 9.5t73 12.5q63 27 63 105v1134h-51h-22t-142 -8q-37 -6 -80.5 -54t-84 -120.5t-56.5 -128.5h-76v395h1307v-395h-74zM914 -250
q0 -102 -93 -148t-329 -46v73q121 0 163 7.5t65.5 25.5t23.5 53t-34 52.5t-118 17.5v231h82v-114q115 0 177.5 -40t62.5 -112z" />
    <glyph glyph-name="uni0163" unicode="&#x163;" horiz-adv-x="760" 
d="M741 43q-159 -68 -290 -68q-267 0 -267 267v641h-178v100h182v305h254v-305h281v-100h-279v-539q0 -104 14 -148.5t47 -65.5t93 -21q34 0 78 4.5t65 9.5v-80zM699 -250q0 -102 -93 -148t-329 -46v73q121 0 163 7.5t65.5 25.5t23.5 53t-34 52.5t-118 17.5v231h82v-114
q115 0 177.5 -40t62.5 -112z" />
    <glyph glyph-name="Tcaron" unicode="&#x164;" horiz-adv-x="1333" 
d="M1245 1024q-29 96 -96 194.5t-125 108.5q-101 8 -162 8h-53v-1124q0 -51 24 -78t91.5 -41.5t107.5 -17.5v-74h-731v74q27 2 87 9.5t73 12.5q63 27 63 105v1134h-51h-22t-142 -8q-37 -6 -80.5 -54t-84 -120.5t-56.5 -128.5h-76v395h1307v-395h-74zM1012 1837l-153 -186
l-38 -52q-70 -100 -157 -100q-93 0 -154 98l-34 48l-158 192l41 31l307 -203l305 203z" />
    <glyph glyph-name="tcaron" unicode="&#x165;" horiz-adv-x="760" 
d="M741 43q-159 -68 -290 -68q-267 0 -267 267v641h-178v100h182v305h254v-305h281v-100h-279v-539q0 -104 14 -148.5t47 -65.5t93 -21q34 0 78 4.5t65 9.5v-80zM859 1368q0 -90 -73.5 -169t-199.5 -130l-37 64q94 47 125.5 72t50 54.5t25.5 71.5h-47q-67 0 -103 30t-36 87
q0 44 35.5 77.5t89.5 33.5q81 0 125.5 -48t44.5 -143z" />
    <glyph glyph-name="Tbar" unicode="&#x166;" horiz-adv-x="1333" 
d="M1116 780v-98h-307v-471q0 -51 24 -78t91.5 -41.5t107.5 -17.5v-74h-731v74q27 2 87 9.5t73 12.5q63 27 63 105v481h-309v98h309v555h-51h-22t-142 -8q-37 -6 -80.5 -54t-84 -120.5t-56.5 -128.5h-76v395h1307v-395h-74q-29 96 -96 194.5t-125 108.5q-101 8 -162 8h-53
v-555h307z" />
    <glyph glyph-name="tbar" unicode="&#x167;" horiz-adv-x="760" 
d="M444 344q0 -104 14 -148.5t47 -65.5t93 -21q34 0 78 4.5t65 9.5v-80q-159 -68 -290 -68q-267 0 -267 267v237h-170v90h170v314h-178v100h182v305h254v-305h281v-100h-279v-314h234v-90h-234v-135z" />
    <glyph glyph-name="Utilde" unicode="&#x168;" horiz-adv-x="1626" 
d="M1618 1343q-74 -6 -136 -29t-82 -90t-20 -206v-572q0 -145 -71.5 -254.5t-196.5 -169t-276 -59.5q-268 0 -425 124.5t-157 338.5v782q0 39 -17 66t-48 41t-123 31v73h667v-73q-99 -15 -133 -25q-61 -20 -61 -102v-750q0 -190 90.5 -286.5t267.5 -96.5t276 103.5t99 285.5
v533q0 226 -68 278q-21 16 -75.5 33t-108.5 24v76h598v-76zM1274 1840q-19 -69 -62 -132t-99.5 -102t-117.5 -39q-67 0 -113 16.5t-83 37t-70 37t-74 16.5q-27 0 -46 -9t-35.5 -29t-63.5 -104l-66 29q41 117 116 192.5t157 75.5q63 0 109.5 -16.5t84 -36t70 -35.5t67.5 -16
q54 0 83.5 18t48.5 61l26 60z" />
    <glyph glyph-name="utilde" unicode="&#x169;" horiz-adv-x="1282" 
d="M848 -6l-17 14v127h-6q-74 -74 -119.5 -102.5t-100.5 -45t-130 -16.5q-139 0 -215 87t-76 255v461q0 41 -19 69.5t-45 42.5t-95 21v70l407 22l12 -14v-674q0 -100 41.5 -154.5t114.5 -54.5q67 0 128.5 35t100.5 96v549q0 36 -15.5 64t-39 42t-123.5 19v70l422 22l14 -14
v-776q0 -26 8.5 -46t26 -37.5t37 -25.5t86.5 -12v-70zM1045 1473q-19 -69 -62 -132t-99.5 -102t-117.5 -39q-67 0 -113 16.5t-83 37t-70 37t-74 16.5q-27 0 -46 -9t-35.5 -29t-63.5 -104l-66 29q41 117 116 192.5t157 75.5q63 0 109.5 -16.5t84 -36t70 -35.5t67.5 -16
q54 0 83.5 18t48.5 61l26 60z" />
    <glyph glyph-name="Umacron" unicode="&#x16a;" horiz-adv-x="1626" 
d="M1618 1343q-74 -6 -136 -29t-82 -90t-20 -206v-572q0 -145 -71.5 -254.5t-196.5 -169t-276 -59.5q-268 0 -425 124.5t-157 338.5v782q0 39 -17 66t-48 41t-123 31v73h667v-73q-99 -15 -133 -25q-61 -20 -61 -102v-750q0 -190 90.5 -286.5t267.5 -96.5t276 103.5t99 285.5
v533q0 226 -68 278q-21 16 -75.5 33t-108.5 24v76h598v-76zM459 1649v155h706v-155h-706z" />
    <glyph glyph-name="umacron" unicode="&#x16b;" horiz-adv-x="1282" 
d="M848 -6l-17 14v127h-6q-74 -74 -119.5 -102.5t-100.5 -45t-130 -16.5q-139 0 -215 87t-76 255v461q0 41 -19 69.5t-45 42.5t-95 21v70l407 22l12 -14v-674q0 -100 41.5 -154.5t114.5 -54.5q67 0 128.5 35t100.5 96v549q0 36 -15.5 64t-39 42t-123.5 19v70l422 22l14 -14
v-776q0 -26 8.5 -46t26 -37.5t37 -25.5t86.5 -12v-70zM287 1264v155h706v-155h-706z" />
    <glyph glyph-name="Ubreve" unicode="&#x16c;" horiz-adv-x="1626" 
d="M1618 1343q-74 -6 -136 -29t-82 -90t-20 -206v-572q0 -145 -71.5 -254.5t-196.5 -169t-276 -59.5q-268 0 -425 124.5t-157 338.5v782q0 39 -17 66t-48 41t-123 31v73h667v-73q-99 -15 -133 -25q-61 -20 -61 -102v-750q0 -190 90.5 -286.5t267.5 -96.5t276 103.5t99 285.5
v533q0 226 -68 278q-21 16 -75.5 33t-108.5 24v76h598v-76zM1188 1851q-22 -148 -110.5 -234.5t-219.5 -86.5q-129 0 -220 87t-110 234l62 17q53 -176 268 -176q211 0 266 176z" />
    <glyph glyph-name="ubreve" unicode="&#x16d;" horiz-adv-x="1282" 
d="M848 -6l-17 14v127h-6q-74 -74 -119.5 -102.5t-100.5 -45t-130 -16.5q-139 0 -215 87t-76 255v461q0 41 -19 69.5t-45 42.5t-95 21v70l407 22l12 -14v-674q0 -100 41.5 -154.5t114.5 -54.5q67 0 128.5 35t100.5 96v549q0 36 -15.5 64t-39 42t-123.5 19v70l422 22l14 -14
v-776q0 -26 8.5 -46t26 -37.5t37 -25.5t86.5 -12v-70zM926 1513q-51 -383 -322 -383q-138 0 -218.5 99.5t-103.5 283.5l64 15q32 -102 63 -145t78 -66t117 -23q69 0 115.5 22.5t79 68t63.5 143.5z" />
    <glyph glyph-name="Uring" unicode="&#x16e;" horiz-adv-x="1626" 
d="M1618 1343q-74 -6 -136 -29t-82 -90t-20 -206v-572q0 -145 -71.5 -254.5t-196.5 -169t-276 -59.5q-268 0 -425 124.5t-157 338.5v782q0 39 -17 66t-48 41t-123 31v73h667v-73q-99 -15 -133 -25q-61 -20 -61 -102v-750q0 -190 90.5 -286.5t267.5 -96.5t276 103.5t99 285.5
v533q0 226 -68 278q-21 16 -75.5 33t-108.5 24v76h598v-76zM1132 1638q0 -102 -73.5 -164.5t-194.5 -62.5q-124 0 -196 62t-72 165q0 100 74 164t194 64q122 0 195 -62.5t73 -165.5zM995 1638q0 69 -33 114.5t-98 45.5q-63 0 -97 -42.5t-34 -117.5q0 -71 33 -115t98 -44
t98 43.5t33 115.5z" />
    <glyph glyph-name="uring" unicode="&#x16f;" horiz-adv-x="1282" 
d="M848 -6l-17 14v127h-6q-74 -74 -119.5 -102.5t-100.5 -45t-130 -16.5q-139 0 -215 87t-76 255v461q0 41 -19 69.5t-45 42.5t-95 21v70l407 22l12 -14v-674q0 -100 41.5 -154.5t114.5 -54.5q67 0 128.5 35t100.5 96v549q0 36 -15.5 64t-39 42t-123.5 19v70l422 22l14 -14
v-776q0 -26 8.5 -46t26 -37.5t37 -25.5t86.5 -12v-70zM882 1335q0 -102 -73.5 -164.5t-194.5 -62.5q-124 0 -196 62t-72 165q0 100 74 164t194 64q122 0 195 -62.5t73 -165.5zM745 1335q0 69 -33 114.5t-98 45.5q-63 0 -97 -42.5t-34 -117.5q0 -71 33 -115t98 -44t98 43.5
t33 115.5z" />
    <glyph glyph-name="Uhungarumlaut" unicode="&#x170;" horiz-adv-x="1626" 
d="M1618 1343q-74 -6 -136 -29t-82 -90t-20 -206v-572q0 -145 -71.5 -254.5t-196.5 -169t-276 -59.5q-268 0 -425 124.5t-157 338.5v782q0 39 -17 66t-48 41t-123 31v73h667v-73q-99 -15 -133 -25q-61 -20 -61 -102v-750q0 -190 90.5 -286.5t267.5 -96.5t276 103.5t99 285.5
v533q0 226 -68 278q-21 16 -75.5 33t-108.5 24v76h598v-76zM510 1495l-31 39q55 58 104.5 117.5t94.5 107.5t86 78.5t78 30.5q54 0 86 -27.5t32 -64.5q0 -41 -24 -66.5t-66 -44.5q-205 -90 -360 -170zM969 1495l-31 39l124 137q97 112 149.5 154.5t93.5 42.5q51 0 84.5 -26
t33.5 -66q0 -43 -28.5 -71t-107.5 -60q-115 -47 -318 -150z" />
    <glyph glyph-name="uhungarumlaut" unicode="&#x171;" horiz-adv-x="1282" 
d="M848 -6l-17 14v127h-6q-74 -74 -119.5 -102.5t-100.5 -45t-130 -16.5q-139 0 -215 87t-76 255v461q0 41 -19 69.5t-45 42.5t-95 21v70l407 22l12 -14v-674q0 -100 41.5 -154.5t114.5 -54.5q67 0 128.5 35t100.5 96v549q0 36 -15.5 64t-39 42t-123.5 19v70l422 22l14 -14
v-776q0 -26 8.5 -46t26 -37.5t37 -25.5t86.5 -12v-70zM1123 1462q0 -36 -26.5 -69t-162.5 -140l-186 -151l-35 31q105 167 153 255l33 60q32 53 60 73.5t73 20.5q38 0 64.5 -24.5t26.5 -55.5zM736 1462q0 -31 -18 -58t-62 -63q-237 -196 -287 -239l-37 31q80 128 180 315
q31 53 58.5 73.5t74.5 20.5q37 0 64 -25t27 -55z" />
    <glyph glyph-name="Uogonek" unicode="&#x172;" horiz-adv-x="1626" 
d="M1618 1343q-74 -6 -136 -29t-82 -90t-20 -206v-572q0 -145 -71.5 -254.5t-196.5 -169t-276 -59.5q-268 0 -425 124.5t-157 338.5v782q0 39 -17 66t-48 41t-123 31v73h667v-73q-99 -15 -133 -25q-61 -20 -61 -102v-750q0 -190 90.5 -286.5t267.5 -96.5t276 103.5t99 285.5
v533q0 226 -68 278q-21 16 -75.5 33t-108.5 24v76h598v-76zM1153 -444q-165 0 -250.5 50t-85.5 142q0 154 250 291h74q-71 -66 -103.5 -128.5t-32.5 -131.5q0 -76 53.5 -110.5t157.5 -39.5v-73h-63z" />
    <glyph glyph-name="uogonek" unicode="&#x173;" horiz-adv-x="1282" 
d="M848 -6l-17 14v127h-6q-74 -74 -119.5 -102.5t-100.5 -45t-130 -16.5q-139 0 -215 87t-76 255v461q0 41 -19 69.5t-45 42.5t-95 21v70l407 22l12 -14v-674q0 -100 41.5 -154.5t114.5 -54.5q67 0 128.5 35t100.5 96v549q0 36 -15.5 64t-39 42t-123.5 19v70l422 22l14 -14
v-776q0 -26 8.5 -46t26 -37.5t37 -25.5t86.5 -12v-70zM1112 -444q-165 0 -250.5 50t-85.5 142q0 154 250 291h74q-71 -66 -103.5 -128.5t-32.5 -131.5q0 -76 53.5 -110.5t157.5 -39.5v-73h-63z" />
    <glyph glyph-name="Wcircumflex" unicode="&#x174;" horiz-adv-x="2152" 
d="M2185 1343q-51 -5 -97 -27t-73.5 -53t-46.5 -89l-389 -1192h-145l-367 1073l-356 -1073h-144l-377 1210q-17 51 -48 82.5t-68 47.5t-97 21v76h668v-73q-88 -10 -134 -22.5t-46 -35.5t8 -55l91 -300l175 -568l340 1044h156l364 -1071q54 174 99.5 329t100 349t54.5 239
q0 34 -46.5 56t-164.5 32v76h543v-76zM1460 1495l-315 207l-309 -207l-41 31l155 188l39 52q36 51 73.5 76t86.5 26q39 0 62.5 -10.5t46.5 -38.5l102 -123l141 -170z" />
    <glyph glyph-name="wcircumflex" unicode="&#x175;" horiz-adv-x="1638" 
d="M1661 920q-53 -8 -94.5 -39.5t-61.5 -83.5l-213 -578q-30 -86 -71 -227h-140l-258 702l-254 -702h-137l-60 172l-179 501l-54 146q-14 43 -57.5 72.5t-91.5 36.5v67h526v-69q-119 -13 -119 -48q0 -23 193 -575l237 684h148l254 -690l166 483q13 46 13 66l-1 8
q0 27 -42 48t-99 26v67h395v-67zM1188 1110l-299 264l-297 -264l-49 31l35 55q125 190 162.5 245.5t54 71.5t38.5 23.5t58 7.5q40 0 62.5 -8.5t46 -39.5t40 -55t79 -115.5t120.5 -184.5z" />
    <glyph glyph-name="Ycircumflex" unicode="&#x176;" 
d="M1440 1343q-77 -12 -114.5 -36t-58.5 -44t-57 -69t-91 -134t-125.5 -201.5t-107.5 -180t-47 -101t-10 -128.5v-236q0 -32 11 -56.5t35.5 -40t90 -28t87.5 -14.5v-74h-729v74q125 10 159 22q62 27 62 107v297q0 38 -9 66t-61 122q-111 205 -274 483q-37 65 -77.5 102
t-81 51.5t-95.5 18.5v76h708v-76l-57 -3q-131 -4 -131 -46q0 -21 77 -164.5t240 -427.5q165 262 246.5 402t81.5 166q0 32 -40 49.5t-142 23.5v76h510v-76zM1054 1495l-315 207l-309 -207l-41 31l155 188l39 52q36 51 73.5 76t86.5 26q39 0 62.5 -10.5t46.5 -38.5l102 -123
l141 -170z" />
    <glyph glyph-name="ycircumflex" unicode="&#x177;" horiz-adv-x="1079" 
d="M1112 922q-43 -7 -85 -36.5t-62.5 -68t-184.5 -424.5q-198 -463 -271 -586.5t-148 -187t-164 -63.5q-82 0 -135.5 42.5t-53.5 104.5q0 59 34.5 96t92.5 37q80 0 146 -87l38 -50q41 28 98.5 115t88.5 172q-115 267 -190 428l-185 399q-22 46 -65.5 73t-90.5 34v67h531v-69
q-47 -3 -82 -15.5t-35 -32.5q0 -7 5 -23t65 -153t184 -403q123 286 195 467q24 67 24 86q0 24 -40 45.5t-99 30.5v67h389v-65zM862 1110l-299 264l-297 -264l-49 31l35 55q125 190 162.5 245.5t54 71.5t38.5 23.5t58 7.5q40 0 62.5 -8.5t46 -39.5t40 -55t79 -115.5
t120.5 -184.5z" />
    <glyph glyph-name="Ydieresis" unicode="&#x178;" 
d="M1440 1343q-77 -12 -114.5 -36t-58.5 -44t-57 -69t-91 -134t-125.5 -201.5t-107.5 -180t-47 -101t-10 -128.5v-236q0 -32 11 -56.5t35.5 -40t90 -28t87.5 -14.5v-74h-729v74q125 10 159 22q62 27 62 107v297q0 38 -9 66t-61 122q-111 205 -274 483q-37 65 -77.5 102
t-81 51.5t-95.5 18.5v76h708v-76l-57 -3q-131 -4 -131 -46q0 -21 77 -164.5t240 -427.5q165 262 246.5 402t81.5 166q0 32 -40 49.5t-142 23.5v76h510v-76zM1126 1714q0 -61 -41 -103t-96 -42q-56 0 -98 42.5t-42 102.5t41.5 103t98.5 43q56 0 96.5 -42.5t40.5 -103.5z
M634 1714q0 -59 -41 -102t-98 -43q-56 0 -96.5 42.5t-40.5 102.5t39.5 103t97.5 43t98.5 -43.5t40.5 -102.5z" />
    <glyph glyph-name="Zacute" unicode="&#x179;" horiz-adv-x="1321" 
d="M1257 0h-1237v47l906 1286h-318q-134 0 -192 -20q-113 -29 -254 -312h-74l43 418h1149v-49l-905 -1284h348q131 0 205.5 11.5t103.5 43.5q49 50 106 139.5t95 180.5h72zM532 1495l-32 41q65 61 264 262q63 70 131 70q52 0 86.5 -26t34.5 -64q0 -44 -26 -69.5t-71 -45.5
l-152 -65z" />
    <glyph glyph-name="zacute" unicode="&#x17a;" horiz-adv-x="991" 
d="M49 0v61l565 842h-108q-193 0 -254 -24q-26 -13 -56 -76t-42 -129h-66v313h842v-51l-572 -850q128 -2 166 -2q107 0 193 8q42 2 63 26.5t35 55.5q39 100 59 186h66v-360h-891zM803 1460q0 -45 -23.5 -74t-111.5 -86q-201 -131 -291 -194l-41 35q8 11 15.5 21.5
t195.5 283.5q37 57 70 76.5t83 19.5q39 0 71 -24t32 -58z" />
    <glyph glyph-name="Zdotaccent" unicode="&#x17b;" horiz-adv-x="1321" 
d="M1257 0h-1237v47l906 1286h-318q-134 0 -192 -20q-113 -29 -254 -312h-74l43 418h1149v-49l-905 -1284h348q131 0 205.5 11.5t103.5 43.5q49 50 106 139.5t95 180.5h72zM838 1708q0 -65 -44 -109.5t-106 -44.5t-104.5 44t-42.5 106t43 107t104 45q60 0 105 -43t45 -105z
" />
    <glyph glyph-name="zdotaccent" unicode="&#x17c;" horiz-adv-x="991" 
d="M49 0v61l565 842h-108q-193 0 -254 -24q-26 -13 -56 -76t-42 -129h-66v313h842v-51l-572 -850q128 -2 166 -2q107 0 193 8q42 2 63 26.5t35 55.5q39 100 59 186h66v-360h-891zM658 1368q0 -65 -44 -109.5t-106 -44.5t-104.5 44t-42.5 106t43 107t104 45q60 0 105 -43
t45 -105z" />
    <glyph glyph-name="Zcaron" unicode="&#x17d;" horiz-adv-x="1321" 
d="M1257 0h-1237v47l906 1286h-318q-134 0 -192 -20q-113 -29 -254 -312h-74l43 418h1149v-49l-905 -1284h348q131 0 205.5 11.5t103.5 43.5q49 50 106 139.5t95 180.5h72zM1016 1837l-153 -186l-38 -52q-70 -100 -157 -100q-93 0 -154 98l-34 48l-158 192l41 31l307 -203
l305 203z" />
    <glyph glyph-name="zcaron" unicode="&#x17e;" horiz-adv-x="991" 
d="M49 0v61l565 842h-108q-193 0 -254 -24q-26 -13 -56 -76t-42 -129h-66v313h842v-51l-572 -850q128 -2 166 -2q107 0 193 8q42 2 63 26.5t35 55.5q39 100 59 186h66v-360h-891zM854 1513q-36 -60 -124.5 -190.5t-114.5 -163t-45 -40.5t-64 -9q-42 0 -65 9.5t-50 43.5
q-153 219 -233 350l49 31l297 -262l299 262z" />
    <glyph glyph-name="longs" unicode="&#x17f;" horiz-adv-x="668" 
d="M193 1018q0 152 58 273.5t165 189t250 67.5q103 0 160 -39t57 -106q0 -61 -33.5 -96t-93.5 -35q-39 0 -66.5 15t-50.5 43.5t-76 131.5q-63 -18 -87.5 -115t-24.5 -278v-885q0 -52 37.5 -79t152.5 -35v-70h-594v70q80 6 103 17.5t33 34t10 52.5v844z" />
    <glyph glyph-name="florin" unicode="&#x192;" horiz-adv-x="1124" 
d="M1120 1149q0 -59 -33.5 -94t-93.5 -35q-56 0 -100 41.5t-98 163.5q-66 -23 -104 -120.5t-56 -270.5l-10 -99h268v-106h-281q-21 -236 -49 -416q-33 -208 -108.5 -334t-180 -187t-239.5 -61q-107 0 -168.5 44t-61.5 114q0 57 34 92t91 35q41 0 72.5 -19t58.5 -55t70 -129
q37 10 63.5 50.5t46.5 104t39 178t70 583.5h-205v106h217q32 271 175.5 422.5t355.5 151.5q69 0 120.5 -21t79 -58t27.5 -81z" />
    <glyph glyph-name="Aringacute" unicode="&#x1fa;" horiz-adv-x="1462" 
d="M831 0v74q72 2 132.5 19t60.5 38q0 25 -10 45l-131 307h-475q-37 -89 -72 -192.5t-35 -128.5q0 -71 209 -88v-74h-557v74q96 5 154 51t92 125l426 981q-156 51 -156 203q0 36 11 64t32 53.5t88 78.5l78 62l70 58q73 65 116.5 91.5t75.5 26.5q50 0 77 -24t27 -56
q0 -43 -33.5 -70t-107.5 -47l-96 -29q86 -14 144.5 -74.5t58.5 -133.5q0 -69 -37.5 -121t-110.5 -80l230 -541q93 -223 206 -479q26 -60 81.5 -97t136.5 -42v-74h-685zM647 1032l-198 -457h393zM872 1432q0 66 -33.5 107.5t-99.5 41.5q-62 0 -96.5 -40t-34.5 -109t34 -110.5
t97 -41.5q66 0 99.5 41.5t33.5 110.5z" />
    <glyph glyph-name="aringacute" unicode="&#x1fb;" horiz-adv-x="1126" 
d="M1102 18q-30 -13 -87.5 -29t-107.5 -16q-187 0 -223 144h-6q-137 -146 -332 -146q-116 0 -191 69t-75 179q0 103 52.5 171.5t162.5 107.5l101 35q115 37 184 60t100 40v96q0 104 -44.5 157.5t-123.5 53.5q-48 0 -82 -14.5t-49 -28.5q3 -23 14 -58t11 -77q0 -49 -39 -79
t-107 -30q-62 0 -97.5 35t-35.5 96q0 62 58.5 116t153 86t187.5 32q157 0 243.5 -35t127.5 -109t41 -188l-6 -481q0 -33 8 -55t27 -38t37.5 -20t51 -4h46.5v-70zM680 545q-140 -45 -202.5 -82.5t-94 -87t-31.5 -117.5q0 -73 36 -113.5t101 -40.5q37 0 66 10t54 26t67 61z
M811 1222q0 -102 -73.5 -164.5t-194.5 -62.5q-124 0 -196 62t-72 165q0 100 74 164t194 64q122 0 195 -62.5t73 -165.5zM674 1222q0 69 -33 114.5t-98 45.5q-63 0 -97 -42.5t-34 -117.5q0 -71 33 -115t98 -44t98 43.5t33 115.5zM364 1487l-32 41q65 61 264 262q63 70 131 70
q52 0 86.5 -26t34.5 -64q0 -44 -26 -69.5t-71 -45.5l-152 -65z" />
    <glyph glyph-name="AEacute" unicode="&#x1fc;" horiz-adv-x="2089" 
d="M2013 0h-1239v74q62 5 111 13.5t71.5 34.5t22.5 75v399h-487q-111 -191 -154 -275t-52.5 -112t-9.5 -45q0 -36 42 -58t139 -32v-74h-553v74q92 10 151.5 48t110.5 126l303 521l315 552q-59 16 -178 22v76h1331v-352h-75q-17 53 -56.5 112.5t-85 99t-89 47t-169.5 7.5
h-198v-555h137q85 0 133 25.5t76.5 91t36.5 121.5h75v-574h-75q-9 67 -37.5 134t-77 91.5t-131.5 24.5h-137v-418q0 -91 16 -125.5t57 -48.5t158 -14q131 0 185.5 7.5t83.5 21t67 66t81.5 133t55.5 116.5h72zM979 1329h-76l-360 -641h436v641zM1134 1495l-32 41
q65 61 264 262q63 70 131 70q52 0 86.5 -26t34.5 -64q0 -44 -26 -69.5t-71 -45.5l-152 -65z" />
    <glyph glyph-name="aeacute" unicode="&#x1fd;" horiz-adv-x="1632" 
d="M1593 236q-71 -129 -184.5 -198t-247.5 -69q-277 0 -416 191h-6q-147 -189 -385 -189q-122 0 -198 69t-76 179q0 95 44.5 163t146 111t237.5 82l164 46v108q0 100 -42.5 155.5t-115.5 55.5q-51 0 -85 -14.5t-48 -28.5l5 -26q20 -73 20 -109q0 -49 -39 -79t-107 -30
q-62 0 -97.5 35t-35.5 96q0 60 56.5 114t151 87t187.5 33q106 0 189.5 -24.5t140.5 -86.5q132 111 287 111q204 0 316 -109.5t112 -308.5v-61h-639q0 -441 315 -441q87 0 153 44.5t124 142.5zM1292 625q0 172 -42.5 242.5t-125.5 70.5q-88 0 -141 -86.5t-55 -228.5zM672 535
q-172 -39 -246 -104.5t-74 -168.5q0 -81 37.5 -119.5t95.5 -38.5q116 0 187 95v336zM1170 1460q0 -45 -23.5 -74t-111.5 -86q-201 -131 -291 -194l-41 35q8 11 15.5 21.5t195.5 283.5q37 57 70 76.5t83 19.5q39 0 71 -24t32 -58z" />
    <glyph glyph-name="Oslashacute" unicode="&#x1fe;" horiz-adv-x="1602" 
d="M1526 713q0 -215 -93 -387t-259.5 -267.5t-376.5 -95.5q-264 0 -457 158l-186 -211l-70 59l190 211q-94 97 -146 230t-52 290q0 217 93.5 390t261.5 268.5t370 95.5q271 0 461 -158l174 197l69 -61l-176 -195q91 -97 144 -229.5t53 -294.5zM1126 1149q-105 215 -325 215
q-197 0 -303.5 -172.5t-106.5 -484.5q0 -202 47 -349zM1210 711q0 205 -45 346l-690 -789q107 -213 326 -213q195 0 302 171t107 485zM567 1495l-32 41q65 61 264 262q63 70 131 70q52 0 86.5 -26t34.5 -64q0 -44 -26 -69.5t-71 -45.5l-152 -65z" />
    <glyph glyph-name="oslashacute" unicode="&#x1ff;" horiz-adv-x="1202" 
d="M1130 502q0 -155 -66 -276.5t-188.5 -189t-283.5 -67.5q-182 0 -322 105l-88 -100l-67 -72l-62 51l158 174q-141 143 -141 365q0 234 145 380t387 146q187 0 328 -98l145 159l62 -53l-150 -160q143 -143 143 -364zM807 788q-61 152 -205 152q-123 0 -188.5 -110.5
t-65.5 -323.5q0 -91 21 -217zM852 502q0 117 -21 203l-436 -500q63 -162 207 -162q120 0 185 119t65 340zM842 1460q0 -45 -23.5 -74t-111.5 -86q-201 -131 -291 -194l-41 35q8 11 15.5 21.5t195.5 283.5q37 57 70 76.5t83 19.5q39 0 71 -24t32 -58z" />
    <glyph glyph-name="uni0218" unicode="&#x218;" horiz-adv-x="1239" 
d="M1161 408q0 -125 -68 -227.5t-192 -159t-276 -56.5q-100 0 -202.5 27t-191.5 78l-57 -70h-82l-14 498h84q76 -221 194 -330t267 -109q130 0 202 64t72 178q0 174 -221 254q-230 81 -291 107q-268 113 -268 385q0 112 62.5 206t174 146.5t244.5 52.5q87 0 177.5 -24.5
t172.5 -71.5l51 63h84l9 -477h-84q-59 174 -111.5 253.5t-122 122t-164.5 42.5q-103 0 -170 -60.5t-67 -150.5q0 -102 70.5 -165t281.5 -132q250 -83 343 -185t93 -259zM789 -231q0 -103 -75.5 -158t-211.5 -55v59q97 6 139 33.5t47 89.5h-55q-74 0 -103.5 24.5t-29.5 73.5
q0 41 36 69.5t93 28.5q74 0 117 -45.5t43 -119.5z" />
    <glyph glyph-name="uni0219" unicode="&#x219;" horiz-adv-x="967" 
d="M897 297q0 -149 -115.5 -238.5t-302.5 -89.5q-75 0 -155 23.5t-142 64.5l-24 -65h-76l-12 358h69q22 -76 75 -147t121.5 -112.5t145.5 -41.5q189 0 189 158q0 63 -49.5 103.5t-214.5 88.5t-237.5 126.5t-72.5 189.5q0 133 107 217t274 84q143 0 256 -55l23 57h73l17 -330
h-72q-30 109 -107 178.5t-173 69.5q-79 0 -124.5 -37t-45.5 -96q0 -46 18.5 -75.5t61.5 -52t178 -63.5q169 -51 242 -125t73 -190zM649 -231q0 -103 -75.5 -158t-211.5 -55v59q97 6 139 33.5t47 89.5h-55q-74 0 -103.5 24.5t-29.5 73.5q0 41 36 69.5t93 28.5q74 0 117 -45.5
t43 -119.5z" />
    <glyph glyph-name="uni021A" unicode="&#x21a;" horiz-adv-x="1333" 
d="M1245 1024q-29 96 -96 194.5t-125 108.5q-101 8 -162 8h-53v-1124q0 -51 24 -78t91.5 -41.5t107.5 -17.5v-74h-731v74q27 2 87 9.5t73 12.5q63 27 63 105v1134h-51h-22t-142 -8q-37 -6 -80.5 -54t-84 -120.5t-56.5 -128.5h-76v395h1307v-395h-74zM846 -231
q0 -103 -75.5 -158t-211.5 -55v59q97 6 139 33.5t47 89.5h-55q-74 0 -103.5 24.5t-29.5 73.5q0 41 36 69.5t93 28.5q74 0 117 -45.5t43 -119.5z" />
    <glyph glyph-name="uni021B" unicode="&#x21b;" horiz-adv-x="760" 
d="M741 43q-159 -68 -290 -68q-267 0 -267 267v641h-178v100h182v305h254v-305h281v-100h-279v-539q0 -104 14 -148.5t47 -65.5t93 -21q34 0 78 4.5t65 9.5v-80zM623 -231q0 -103 -75.5 -158t-211.5 -55v59q97 6 139 33.5t47 89.5h-55q-74 0 -103.5 24.5t-29.5 73.5
q0 41 36 69.5t93 28.5q74 0 117 -45.5t43 -119.5z" />
    <glyph glyph-name="uni0237" unicode="&#x237;" horiz-adv-x="653" 
d="M489 88q0 -151 -59 -274t-166.5 -190.5t-243.5 -67.5q-100 0 -158.5 39t-58.5 106q0 58 34 94.5t93 36.5q40 0 69 -16t53 -47t69 -127q60 16 85 105.5t25 299.5v717q0 68 -55 108q-29 20 -151 37v68l452 22l12 -14v-897z" />
    <glyph glyph-name="circumflex" unicode="&#x2c6;" horiz-adv-x="1024" 
d="M809 1110l-299 264l-297 -264l-49 31l35 55q125 190 162.5 245.5t54 71.5t38.5 23.5t58 7.5q40 0 62.5 -8.5t46 -39.5t40 -55t79 -115.5t120.5 -184.5z" />
    <glyph glyph-name="caron" unicode="&#x2c7;" horiz-adv-x="1024" 
d="M860 1513q-36 -60 -124.5 -190.5t-114.5 -163t-45 -40.5t-64 -9q-42 0 -65 9.5t-50 43.5q-153 219 -233 350l49 31l297 -262l299 262z" />
    <glyph glyph-name="uni02C9" unicode="&#x2c9;" horiz-adv-x="1024" 
d="M158 1264v155h706v-155h-706z" />
    <glyph glyph-name="breve" unicode="&#x2d8;" horiz-adv-x="1024" 
d="M834 1513q-51 -383 -322 -383q-138 0 -218.5 99.5t-103.5 283.5l64 15q32 -102 63 -145t78 -66t117 -23q69 0 115.5 22.5t79 68t63.5 143.5z" />
    <glyph glyph-name="dotaccent" unicode="&#x2d9;" horiz-adv-x="1024" 
d="M662 1368q0 -65 -44 -109.5t-106 -44.5t-104.5 44t-42.5 106t43 107t104 45q60 0 105 -43t45 -105z" />
    <glyph glyph-name="ring" unicode="&#x2da;" horiz-adv-x="1024" 
d="M780 1335q0 -102 -73.5 -164.5t-194.5 -62.5q-124 0 -196 62t-72 165q0 100 74 164t194 64q122 0 195 -62.5t73 -165.5zM643 1335q0 69 -33 114.5t-98 45.5q-63 0 -97 -42.5t-34 -117.5q0 -71 33 -115t98 -44t98 43.5t33 115.5z" />
    <glyph glyph-name="ogonek" unicode="&#x2db;" horiz-adv-x="1024" 
d="M633 -444q-165 0 -250.5 50t-85.5 142q0 154 250 291h74q-71 -66 -103.5 -128.5t-32.5 -131.5q0 -76 53.5 -110.5t157.5 -39.5v-73h-63z" />
    <glyph glyph-name="tilde" unicode="&#x2dc;" horiz-adv-x="1024" 
d="M926 1473q-19 -69 -62 -132t-99.5 -102t-117.5 -39q-67 0 -113 16.5t-83 37t-70 37t-74 16.5q-27 0 -46 -9t-35.5 -29t-63.5 -104l-66 29q41 117 116 192.5t157 75.5q63 0 109.5 -16.5t84 -36t70 -35.5t67.5 -16q54 0 83.5 18t48.5 61l26 60z" />
    <glyph glyph-name="hungarumlaut" unicode="&#x2dd;" horiz-adv-x="1024" 
d="M965 1462q0 -36 -26.5 -69t-162.5 -140l-186 -151l-35 31q105 167 153 255l33 60q32 53 60 73.5t73 20.5q38 0 64.5 -24.5t26.5 -55.5zM578 1462q0 -31 -18 -58t-62 -63q-237 -196 -287 -239l-37 31q80 128 180 315q31 53 58.5 73.5t74.5 20.5q37 0 64 -25t27 -55z" />
    <glyph glyph-name="gravecomb" unicode="&#x300;" horiz-adv-x="1024" 
d="M754 1495l-171 75q-205 84 -243.5 105.5t-54 45t-15.5 57.5q0 38 32.5 64t88.5 26q35 0 69.5 -20.5t78.5 -65.5q129 -135 155 -159l92 -87z" />
    <glyph glyph-name="acutecomb" unicode="&#x301;" horiz-adv-x="1024" 
d="M270 1495l-32 41q65 61 264 262q63 70 131 70q52 0 86.5 -26t34.5 -64q0 -44 -26 -69.5t-71 -45.5l-152 -65z" />
    <glyph glyph-name="uni0302" unicode="&#x302;" horiz-adv-x="1024" 
d="M823 1495l-315 207l-309 -207l-41 31l155 188l39 52q36 51 73.5 76t86.5 26q39 0 62.5 -10.5t46.5 -38.5l102 -123l141 -170z" />
    <glyph glyph-name="uni0306" unicode="&#x306;" horiz-adv-x="1024" 
d="M842 1851q-22 -148 -110.5 -234.5t-219.5 -86.5q-129 0 -220 87t-110 234l62 17q53 -176 268 -176q211 0 266 176z" />
    <glyph glyph-name="uni0308" unicode="&#x308;" horiz-adv-x="1024" 
d="M895 1714q0 -61 -41 -103t-96 -42q-56 0 -98 42.5t-42 102.5t41.5 103t98.5 43q56 0 96.5 -42.5t40.5 -103.5zM403 1714q0 -59 -41 -102t-98 -43q-56 0 -96.5 42.5t-40.5 102.5t39.5 103t97.5 43t98.5 -43.5t40.5 -102.5z" />
    <glyph glyph-name="uni030B" unicode="&#x30b;" horiz-adv-x="1024" 
d="M125 1495l-31 39q55 58 104.5 117.5t94.5 107.5t86 78.5t78 30.5q54 0 86 -27.5t32 -64.5q0 -41 -24 -66.5t-66 -44.5q-205 -90 -360 -170zM584 1495l-31 39l124 137q97 112 149.5 154.5t93.5 42.5q51 0 84.5 -26t33.5 -66q0 -43 -28.5 -71t-107.5 -60
q-115 -47 -318 -150z" />
    <glyph glyph-name="uni030C" unicode="&#x30c;" horiz-adv-x="1024" 
d="M858 1837l-153 -186l-38 -52q-70 -100 -157 -100q-93 0 -154 98l-34 48l-158 192l41 31l307 -203l305 203z" />
    <glyph glyph-name="uni0326" unicode="&#x326;" horiz-adv-x="1024" 
d="M672 -231q0 -103 -75.5 -158t-211.5 -55v59q97 6 139 33.5t47 89.5h-55q-74 0 -103.5 24.5t-29.5 73.5q0 41 36 69.5t93 28.5q74 0 117 -45.5t43 -119.5z" />
    <glyph glyph-name="tonos" unicode="&#x384;" horiz-adv-x="1024" 
d="M739 1530l-245 -397h-74l61 426h258v-29z" />
    <glyph glyph-name="dieresistonos" unicode="&#x385;" horiz-adv-x="1024" 
d="M961 1343q0 -59 -39.5 -102t-98.5 -43q-57 0 -97 44t-40 101q0 58 40.5 102t96.5 44q57 0 97.5 -43t40.5 -103zM338 1343q0 -59 -41 -102t-98 -43q-58 0 -98 43.5t-40 101.5t40.5 102t97.5 44q55 0 97 -43t42 -103zM692 1559l-225 -416h-70l58 442h237v-26z" />
    <glyph glyph-name="Alphatonos" unicode="&#x386;" horiz-adv-x="1462" 
d="M831 0v74q85 7 139 22.5t54 34.5q0 10 -3 22.5t-126 329.5h-494q-40 -98 -70 -190.5t-30 -130.5q0 -34 54 -57t155 -31v-74h-559v74q91 7 150.5 47t95.5 129l477 1190h141q133 -330 405 -1029l78 -198q25 -60 73.5 -94.5t144.5 -44.5v-74h-685zM645 1108l-207 -533h418z
M401 1393l-245 -397h-74l61 426h258v-29z" />
    <glyph glyph-name="anoteleia" unicode="&#x387;" horiz-adv-x="696" 
d="M514 825q0 -69 -48 -117.5t-118 -48.5q-71 0 -119.5 49.5t-48.5 116.5t49 116.5t119 49.5q67 0 116.5 -49t49.5 -117z" />
    <glyph glyph-name="Epsilontonos" unicode="&#x388;" horiz-adv-x="1745" 
d="M1669 0h-1253v74q61 5 109 13.5t72 35t24 74.5v1011q0 46 -20 71t-75 42t-110 22v76h1177v-352h-75q-17 53 -56.5 112.5t-85 99t-89 47t-169.5 7.5h-213v-555h152q85 0 133 25.5t76.5 91t36.5 121.5h75v-574h-75q-9 67 -37.5 134t-77 91.5t-131.5 24.5h-152v-418
q0 -88 17 -124.5t60 -50t159 -13.5q159 0 223 12.5t86 36.5q43 45 99.5 144.5t74.5 150.5h72zM342 1393l-245 -397h-74l61 426h258v-29z" />
    <glyph glyph-name="Etatonos" unicode="&#x389;" horiz-adv-x="2111" 
d="M1348 0v74q114 9 135 18q37 14 49 40t12 61v497h-635v-485q0 -73 60 -103q10 -6 57.5 -16t75.5 -12v-74h-676v74q107 9 137 18q62 25 62 103v1013q0 70 -62 101q-76 29 -137 34v76h676v-76q-103 -8 -148 -30t-45 -94v-433h635v422q0 78 -69 104.5t-127 30.5v76h677v-76
q-115 -9 -155.5 -32.5t-40.5 -91.5v-1014q0 -50 24 -77t79 -39t93 -15v-74h-677zM342 1393l-245 -397h-74l61 426h258v-29z" />
    <glyph glyph-name="Iotatonos" unicode="&#x38a;" horiz-adv-x="1192" 
d="M408 0v74q98 7 125.5 12t48.5 18t30 35.5t9 53.5v1015q0 45 -20 70.5t-82.5 43.5t-110.5 21v76h712v-76q-129 -9 -172 -33t-43 -91v-1016q0 -72 64 -101q12 -6 65 -15.5t86 -12.5v-74h-712zM342 1393l-245 -397h-74l61 426h258v-29z" />
    <glyph glyph-name="Omicrontonos" unicode="&#x38c;" horiz-adv-x="1812" 
d="M1737 713q0 -215 -93 -387t-259.5 -267.5t-376.5 -95.5q-202 0 -368.5 94.5t-259.5 264.5t-93 378q0 217 93.5 390t261.5 268.5t370 95.5t369.5 -94t261.5 -263.5t94 -383.5zM1415 711q0 306 -105.5 478.5t-297.5 172.5q-194 0 -300 -170.5t-106 -484.5
q0 -308 106.5 -479t299.5 -171t298 170.5t105 483.5zM342 1393l-245 -397h-74l61 426h258v-29z" />
    <glyph glyph-name="Upsilontonos" unicode="&#x38e;" horiz-adv-x="1819" 
d="M1880 1343q-77 -12 -114.5 -36t-58.5 -44t-57 -69t-91 -134t-125.5 -201.5t-107.5 -180t-47 -101t-10 -128.5v-236q0 -32 11 -56.5t35.5 -40t90 -28t87.5 -14.5v-74h-729v74q125 10 159 22q62 27 62 107v297q0 38 -9 66t-61 122q-111 205 -274 483q-37 65 -77.5 102
t-81 51.5t-95.5 18.5v76h708v-76l-57 -3q-131 -4 -131 -46q0 -21 77 -164.5t240 -427.5q165 262 246.5 402t81.5 166q0 32 -40 49.5t-142 23.5v76h510v-76zM342 1393l-245 -397h-74l61 426h258v-29z" />
    <glyph glyph-name="Omegatonos" unicode="&#x38f;" horiz-adv-x="1876" 
d="M196 406l72 12q55 -121 103.5 -166t105.5 -45h248v29q-194 179 -260 267t-97.5 180t-31.5 210q0 152 89.5 282t248 204.5t354.5 74.5q198 0 358 -74t249 -203.5t89 -283.5q0 -116 -32.5 -209t-98 -181t-258.5 -267v-29h246q41 0 75 22.5t63 62t71 126.5l71 -12l-102 -406
h-633v82l79 119q117 177 158.5 304t41.5 286q0 274 -97.5 422.5t-279.5 148.5t-278.5 -151t-96.5 -420q0 -115 20.5 -205t57 -170.5t88.5 -160t115 -173.5v-82h-637zM342 1393l-245 -397h-74l61 426h258v-29z" />
    <glyph glyph-name="iotadieresistonos" unicode="&#x390;" horiz-adv-x="651" 
d="M670 29q-128 -54 -240 -54q-240 0 -240 254l3 541q0 125 -173 137v70l416 22l15 -14v-711q0 -95 30.5 -136.5t104.5 -41.5q41 0 84 8v-75zM783 1343q0 -59 -39.5 -102t-98.5 -43q-57 0 -97 44t-40 101q0 58 40.5 102t96.5 44q57 0 97.5 -43t40.5 -103zM160 1343
q0 -59 -41 -102t-98 -43q-58 0 -98 43.5t-40 101.5t40.5 102t97.5 44q55 0 97 -43t42 -103zM514 1559l-225 -416h-70l58 442h237v-26z" />
    <glyph glyph-name="Alpha" unicode="&#x391;" horiz-adv-x="1462" 
d="M831 0v74q85 7 139 22.5t54 34.5q0 10 -3 22.5t-126 329.5h-494q-40 -98 -70 -190.5t-30 -130.5q0 -34 54 -57t155 -31v-74h-559v74q91 7 150.5 47t95.5 129l477 1190h141q133 -330 405 -1029l78 -198q25 -60 73.5 -94.5t144.5 -44.5v-74h-685zM645 1108l-207 -533h418z
" />
    <glyph glyph-name="Beta" unicode="&#x392;" horiz-adv-x="1444" 
d="M1356 385q0 -186 -148 -285.5t-422 -99.5h-704v74q28 2 77 9.5t62 12.5q62 28 62 103v1009q0 61 -36.5 88.5t-160.5 46.5v76h713q233 0 356 -80.5t123 -232.5q0 -124 -85 -208.5t-269 -129.5v-12q206 -25 319 -123t113 -248zM965 1083q0 250 -267 250l-131 -4v-534h88
q150 0 230 71.5t80 216.5zM1034 410q0 141 -88 219t-244 78q-85 0 -135 -5v-509q5 -51 52.5 -79t128.5 -28q135 0 210.5 84.5t75.5 239.5z" />
    <glyph glyph-name="Gamma" unicode="&#x393;" horiz-adv-x="1270" 
d="M1180 1008q-29 100 -100 203.5t-136 113.5q-61 8 -174 8h-203v-1128q0 -71 64 -103q29 -13 157 -28v-74h-710v74q121 9 151 23.5t42 40t12 57.5v1013q0 45 -19 70t-76 42.5t-110 22.5v76h1177v-411h-75z" />
    <glyph glyph-name="uni0394" unicode="&#x394;" horiz-adv-x="1434" 
d="M18 0v53l654 1387h135l606 -1387v-53h-1395zM639 1145l-446 -961h862z" />
    <glyph glyph-name="Epsilon" unicode="&#x395;" horiz-adv-x="1407" 
d="M1331 0h-1253v74q61 5 109 13.5t72 35t24 74.5v1011q0 46 -20 71t-75 42t-110 22v76h1177v-352h-75q-17 53 -56.5 112.5t-85 99t-89 47t-169.5 7.5h-213v-555h152q85 0 133 25.5t76.5 91t36.5 121.5h75v-574h-75q-9 67 -37.5 134t-77 91.5t-131.5 24.5h-152v-418
q0 -88 17 -124.5t60 -50t159 -13.5q159 0 223 12.5t86 36.5q43 45 99.5 144.5t74.5 150.5h72z" />
    <glyph glyph-name="Zeta" unicode="&#x396;" horiz-adv-x="1321" 
d="M1257 0h-1237v47l906 1286h-318q-134 0 -192 -20q-113 -29 -254 -312h-74l43 418h1149v-49l-905 -1284h348q131 0 205.5 11.5t103.5 43.5q49 50 106 139.5t95 180.5h72z" />
    <glyph glyph-name="Eta" unicode="&#x397;" horiz-adv-x="1769" 
d="M1006 0v74q114 9 135 18q37 14 49 40t12 61v497h-635v-485q0 -73 60 -103q10 -6 57.5 -16t75.5 -12v-74h-676v74q107 9 137 18q62 25 62 103v1013q0 70 -62 101q-76 29 -137 34v76h676v-76q-103 -8 -148 -30t-45 -94v-433h635v422q0 78 -69 104.5t-127 30.5v76h677v-76
q-115 -9 -155.5 -32.5t-40.5 -91.5v-1014q0 -50 24 -77t79 -39t93 -15v-74h-677z" />
    <glyph glyph-name="Theta" unicode="&#x398;" horiz-adv-x="1604" 
d="M1528 713q0 -215 -93 -387t-259.5 -267.5t-376.5 -95.5q-203 0 -370 95.5t-260 264.5t-93 377q0 217 93.5 390t261 268.5t372.5 95.5q202 0 369.5 -94t261.5 -263.5t94 -383.5zM1214 711q0 306 -108 478.5t-303 172.5q-196 0 -305 -172t-109 -483q0 -308 108.5 -479
t305.5 -171t304 173.5t107 480.5zM1010 471q-11 57 -26 87.5t-30.5 38.5t-53.5 11.5t-99 3.5q-64 0 -100.5 -3.5t-51 -11t-29 -36.5t-26.5 -90h-66v475h66q8 -45 16 -65.5t20 -39.5t33 -25.5t53.5 -8.5t84.5 -2q91 0 125 7.5t44.5 23t21 42.5t18.5 68h65v-475h-65z" />
    <glyph glyph-name="Iota" unicode="&#x399;" horiz-adv-x="856" 
d="M72 0v74q98 7 125.5 12t48.5 18t30 35.5t9 53.5v1015q0 45 -20 70.5t-82.5 43.5t-110.5 21v76h712v-76q-129 -9 -172 -33t-43 -91v-1016q0 -72 64 -101q12 -6 65 -15.5t86 -12.5v-74h-712z" />
    <glyph glyph-name="Kappa" unicode="&#x39a;" horiz-adv-x="1546" 
d="M1124 0q-95 148 -203 290t-317 384h-37v-469q0 -73 60 -103q11 -7 55 -16t74 -12v-74h-672v74q117 9 137 18q62 25 62 101v1015q0 76 -67 103t-132 32v76h684v-76q-67 -5 -119.5 -18.5t-67 -39.5t-14.5 -66v-486h29q217 187 355.5 346t138.5 221q0 15 -26.5 25t-121.5 18
v76h576v-76q-198 -19 -287 -108l-106 -110q-215 -227 -289 -300q142 -168 234 -282l247 -305q39 -48 81 -82.5t87 -55t121 -26.5v-74h-482z" />
    <glyph glyph-name="Lambda" unicode="&#x39b;" horiz-adv-x="1460" 
d="M823 0v74q85 7 139 22.5t54 34.5q0 26 -8 45l-365 928l-223 -578q-40 -103 -67 -175t-38.5 -116t-11.5 -73q0 -72 209 -88v-74h-561v74q91 7 150.5 47t95.5 129q330 819 475 1190h141l483 -1227q23 -53 56 -81.5t76.5 -41.5t82.5 -16v-74h-688z" />
    <glyph glyph-name="Mu" unicode="&#x39c;" horiz-adv-x="1997" 
d="M1214 0v74q109 11 146.5 24.5t56.5 38t19 68.5v1046h-9l-487 -1228h-86l-87 241l-376 1008h-6v-856q0 -77 6.5 -130t20.5 -89.5t38 -58.5t87.5 -41.5t95.5 -22.5v-74h-592v74q87 7 144 33t75.5 90.5t18.5 208.5v712q0 77 -25.5 124t-70.5 71.5t-132 29.5v76h567
l379 -1001l322 825q15 42 28 95.5t17 80.5h547v-76q-112 -6 -154.5 -36.5t-42.5 -87.5v-1014q0 -59 41 -88t158 -43v-74h-699z" />
    <glyph glyph-name="Nu" unicode="&#x39d;" horiz-adv-x="1645" 
d="M1626 1343q-64 -5 -129 -27t-86.5 -85.5t-21.5 -216.5v-1026h-132l-872 1130v-698q0 -77 6.5 -130t20 -90.5t36.5 -60t83.5 -41t105.5 -24.5v-74h-596v74q37 3 97 20t82 36.5t35 53.5t18.5 87.5t5.5 136.5v686q0 63 -26.5 116.5t-90.5 88.5t-135 44v76h469l786 -1022v607
q0 73 -5.5 125.5t-18.5 89t-31.5 57t-80.5 41t-114 26.5v76h594v-76z" />
    <glyph glyph-name="Xi" unicode="&#x39e;" horiz-adv-x="1495" 
d="M1284 942l-32 82q-31 78 -70 120t-90 48q-117 10 -342 10q-228 0 -338 -10q-100 -12 -160 -168l-33 -82h-74l33 477h1147l31 -477h-72zM1028 461q-8 37 -15.5 62t-22.5 50t-76.5 32t-161.5 7q-219 0 -238 -37q-17 -28 -23.5 -49.5t-15.5 -64.5h-74v502h74q8 -36 15 -61.5
t24 -51.5q19 -37 238 -37q97 0 160 7t77 30q22 35 39 113h74v-502h-74zM1319 0h-1143l-61 487h71q40 -99 70 -145.5t64.5 -75t78.5 -33.5q79 -8 168.5 -9t177.5 -3q129 0 242.5 4.5t142.5 14.5t58.5 38t56 72t64.5 137h71z" />
    <glyph glyph-name="Omicron" unicode="&#x39f;" horiz-adv-x="1602" 
d="M1526 713q0 -215 -93 -387t-259.5 -267.5t-376.5 -95.5q-202 0 -368.5 94.5t-259.5 264.5t-93 378q0 217 93.5 390t261.5 268.5t370 95.5t369.5 -94t261.5 -263.5t94 -383.5zM1204 711q0 306 -105.5 478.5t-297.5 172.5q-194 0 -300 -170.5t-106 -484.5
q0 -308 106.5 -479t299.5 -171t298 170.5t105 483.5z" />
    <glyph glyph-name="Pi" unicode="&#x3a0;" horiz-adv-x="1749" 
d="M567 205q0 -73 60 -103q11 -7 58.5 -16.5t72.5 -11.5v-74h-674v74q107 9 137 18q62 25 62 103v1013q0 70 -62 101q-76 29 -137 34v76h1579v-76q-117 -9 -157 -33t-40 -91v-1014q0 -49 24 -76.5t78 -39.5t95 -15v-74h-674v74q80 6 107 11t47.5 18.5t29.5 37t9 52.5v1128
h-615v-1116z" />
    <glyph glyph-name="Rho" unicode="&#x3a1;" horiz-adv-x="1341" 
d="M1290 1067q0 -212 -157.5 -331.5t-430.5 -119.5h-135v-413q0 -77 60 -105q17 -7 68 -14t77 -10v-74h-688v74l73 9q47 5 64 11q62 25 62 103v1013q0 78 -62 105q-73 23 -141 28v76h715q235 0 365 -91.5t130 -260.5zM973 1016q0 162 -74 238.5t-221 76.5h-111v-624h70
q161 0 248.5 79t87.5 230z" />
    <glyph glyph-name="Sigma" unicode="&#x3a3;" horiz-adv-x="1315" 
d="M1212 0h-1187v49l577 604l-567 719v47h1139v-395h-76q-31 103 -96 195t-130 104q-58 10 -174 10h-292l430 -540v-33l-523 -539h560q91 0 129 8t72 40t64.5 84t65.5 145h74z" />
    <glyph glyph-name="Tau" unicode="&#x3a4;" horiz-adv-x="1333" 
d="M1245 1024q-29 96 -96 194.5t-125 108.5q-101 8 -162 8h-53v-1124q0 -51 24 -78t91.5 -41.5t107.5 -17.5v-74h-731v74q27 2 87 9.5t73 12.5q63 27 63 105v1134h-51h-22t-142 -8q-37 -6 -80.5 -54t-84 -120.5t-56.5 -128.5h-76v395h1307v-395h-74z" />
    <glyph glyph-name="Upsilon" unicode="&#x3a5;" 
d="M1440 1343q-77 -12 -114.5 -36t-58.5 -44t-57 -69t-91 -134t-125.5 -201.5t-107.5 -180t-47 -101t-10 -128.5v-236q0 -32 11 -56.5t35.5 -40t90 -28t87.5 -14.5v-74h-729v74q125 10 159 22q62 27 62 107v297q0 38 -9 66t-61 122q-111 205 -274 483q-37 65 -77.5 102
t-81 51.5t-95.5 18.5v76h708v-76l-57 -3q-131 -4 -131 -46q0 -21 77 -164.5t240 -427.5q165 262 246.5 402t81.5 166q0 32 -40 49.5t-142 23.5v76h510v-76z" />
    <glyph glyph-name="Phi" unicode="&#x3a6;" horiz-adv-x="1718" 
d="M1348 715q0 124 -36.5 218.5t-106.5 148t-169 53.5h-37v-840q106 0 183.5 48.5t121.5 150t44 221.5zM719 1135h-37q-144 0 -228.5 -113.5t-84.5 -306.5q0 -123 43.5 -222.5t121 -148.5t185.5 -49v840zM999 1219h9q204 0 350.5 -60t222.5 -168t76 -252q0 -159 -83 -280
t-233.5 -185.5t-343.5 -64.5v-37q0 -63 44 -87t161 -28v-71h-674v71q115 7 154 32.5t39 82.5v37q-303 0 -482.5 143.5t-179.5 386.5q0 144 76 252t223 168t351 60h12v14q0 120 -195 131v74h668v-74q-195 -11 -195 -131v-14z" />
    <glyph glyph-name="Chi" unicode="&#x3a7;" horiz-adv-x="1554" 
d="M793 0v74q92 5 141 17.5t49 41.5q0 54 -276 459q-316 -385 -316 -451q0 -37 39.5 -49t120.5 -18v-74h-541v74q65 6 98.5 15.5t67.5 31.5t67.5 55.5t407.5 499.5l-340 493q-62 86 -102 116t-85 42.5t-106 15.5v76h764v-76q-94 -5 -142 -18t-48 -39q0 -52 250 -420
q282 350 282 412q0 32 -39 45.5t-122 19.5v76h540v-76q-67 -4 -102.5 -15t-74.5 -39t-101 -100t-326 -405l367 -536q33 -46 71.5 -86t75.5 -60t143 -28v-74h-763z" />
    <glyph glyph-name="Psi" unicode="&#x3a8;" horiz-adv-x="1931" 
d="M1106 213q0 -52 25 -80t89 -42t105 -17v-74h-721v74q27 2 84.5 9.5t71.5 12.5q63 27 63 107v237q-616 8 -616 494v276q0 58 -42.5 91t-144.5 42v76h469v-508q0 -177 85 -272.5t249 -108.5v682q0 75 -61 103q-72 24 -125 28v76h655v-76q-81 -6 -133.5 -27.5t-52.5 -96.5
v-689q334 30 334 381v508h469v-76q-111 -11 -148 -38.5t-37 -90.5v-280q0 -481 -618 -494v-227z" />
    <glyph glyph-name="uni03A9" unicode="&#x3a9;" horiz-adv-x="1694" 
d="M14 406l72 12q55 -121 103.5 -166t105.5 -45h248v29q-194 179 -260 267t-97.5 180t-31.5 210q0 152 89.5 282t248 204.5t354.5 74.5q198 0 358 -74t249 -203.5t89 -283.5q0 -116 -32.5 -209t-98 -181t-258.5 -267v-29h246q41 0 75 22.5t63 62t71 126.5l71 -12l-102 -406
h-633v82l79 119q117 177 158.5 304t41.5 286q0 274 -97.5 422.5t-279.5 148.5t-278.5 -151t-96.5 -420q0 -115 20.5 -205t57 -170.5t88.5 -160t115 -173.5v-82h-637z" />
    <glyph glyph-name="Iotadieresis" unicode="&#x3aa;" horiz-adv-x="856" 
d="M72 0v74q98 7 125.5 12t48.5 18t30 35.5t9 53.5v1015q0 45 -20 70.5t-82.5 43.5t-110.5 21v76h712v-76q-129 -9 -172 -33t-43 -91v-1016q0 -72 64 -101q12 -6 65 -15.5t86 -12.5v-74h-712zM801 1714q0 -60 -43 -103t-97 -43q-58 0 -98.5 43.5t-40.5 102.5q0 60 41 102.5
t98 42.5q55 0 97.5 -41.5t42.5 -103.5zM338 1714q0 -59 -41.5 -102.5t-97.5 -43.5q-57 0 -98.5 43.5t-41.5 102.5q0 61 41 103t99 42q56 0 97.5 -42.5t41.5 -102.5z" />
    <glyph glyph-name="Upsilondieresis" unicode="&#x3ab;" 
d="M1440 1343q-77 -12 -114.5 -36t-58.5 -44t-57 -69t-91 -134t-125.5 -201.5t-107.5 -180t-47 -101t-10 -128.5v-236q0 -32 11 -56.5t35.5 -40t90 -28t87.5 -14.5v-74h-729v74q125 10 159 22q62 27 62 107v297q0 38 -9 66t-61 122q-111 205 -274 483q-37 65 -77.5 102
t-81 51.5t-95.5 18.5v76h708v-76l-57 -3q-131 -4 -131 -46q0 -21 77 -164.5t240 -427.5q165 262 246.5 402t81.5 166q0 32 -40 49.5t-142 23.5v76h510v-76zM1126 1714q0 -61 -41 -103t-96 -42q-56 0 -98 42.5t-42 102.5t41.5 103t98.5 43q56 0 96.5 -42.5t40.5 -103.5z
M634 1714q0 -59 -41 -102t-98 -43q-56 0 -96.5 42.5t-40.5 102.5t39.5 103t97.5 43t98.5 -43.5t40.5 -102.5z" />
    <glyph glyph-name="alphatonos" unicode="&#x3ac;" horiz-adv-x="1307" 
d="M1321 20q-32 -13 -107 -29t-129 -16q-103 0 -156 53.5t-67 159.5q-75 -121 -161.5 -170t-198.5 -49q-118 0 -217 67t-156 188t-57 270q0 143 62.5 263.5t171 189.5t237.5 69q246 0 327 -203h4l23 174h266q-8 -88 -90 -520q4 -99 14.5 -166t27.5 -109t39 -63.5t48.5 -30.5
t56.5 -9.5t62 -0.5v-68zM596 930q-111 0 -174.5 -120.5t-63.5 -328.5q0 -192 63.5 -295.5t178.5 -103.5q107 0 169 112.5t71 327.5q-34 408 -244 408zM858 1530l-245 -397h-74l61 426h258v-29z" />
    <glyph glyph-name="epsilontonos" unicode="&#x3ad;" horiz-adv-x="1028" 
d="M1012 256q-73 -142 -194.5 -214.5t-278.5 -72.5q-208 0 -330.5 79t-122.5 214q0 112 73.5 179.5t200.5 72.5v10q-243 43 -243 236q0 72 54 131.5t152.5 93t227.5 33.5q193 0 300 -64t107 -178q0 -63 -33.5 -100t-99.5 -37q-59 0 -101 30.5t-42 78.5q0 38 10 79.5t17 73.5
q-14 13 -47.5 25t-79.5 12q-82 0 -133.5 -49.5t-51.5 -124.5q0 -111 49 -157t158 -46h70v-96h-94q-104 0 -157.5 -46.5t-53.5 -137.5q0 -94 64.5 -145.5t178.5 -51.5q205 0 328 219zM788 1530l-245 -397h-74l61 426h258v-29z" />
    <glyph glyph-name="etatonos" unicode="&#x3ae;" horiz-adv-x="1262" 
d="M842 -444v1101q0 106 -44 160.5t-116 54.5q-68 0 -129.5 -35.5t-101.5 -99.5v-737h-256v770q0 54 -36 92.5t-124 44.5v70l401 22l15 -14v-141h4l63 60q118 112 281 112q145 0 223 -87.5t78 -248.5v-1124h-258zM874 1530l-245 -397h-74l61 426h258v-29z" />
    <glyph glyph-name="iotatonos" unicode="&#x3af;" horiz-adv-x="651" 
d="M670 29q-128 -54 -240 -54q-240 0 -240 254l3 541q0 125 -173 137v70l416 22l15 -14v-711q0 -95 30.5 -136.5t104.5 -41.5q41 0 84 8v-75zM561 1530l-245 -397h-74l61 426h258v-29z" />
    <glyph glyph-name="upsilondieresistonos" unicode="&#x3b0;" horiz-adv-x="1161" 
d="M580 -31q-180 0 -283.5 90t-103.5 250l2 421q0 83 -23 116t-82 33q-13 0 -100 -13v74q108 42 156 54t87 12q117 0 171.5 -58.5t54.5 -193.5l-4 -403q0 -126 47.5 -193.5t154.5 -67.5q130 0 210.5 112.5t80.5 289.5q0 64 -26.5 110.5t-87.5 91.5q-62 44 -88.5 87
t-26.5 102q0 56 39 91.5t102 35.5q211 0 211 -373q0 -191 -60 -344.5t-172 -238.5t-259 -85zM1043 1343q0 -59 -39.5 -102t-98.5 -43q-57 0 -97 44t-40 101q0 58 40.5 102t96.5 44q57 0 97.5 -43t40.5 -103zM420 1343q0 -59 -41 -102t-98 -43q-58 0 -98 43.5t-40 101.5
t40.5 102t97.5 44q55 0 97 -43t42 -103zM774 1559l-225 -416h-70l58 442h237v-26z" />
    <glyph glyph-name="alpha" unicode="&#x3b1;" horiz-adv-x="1307" 
d="M1321 20q-32 -13 -107 -29t-129 -16q-103 0 -156 53.5t-67 159.5q-75 -121 -161.5 -170t-198.5 -49q-118 0 -217 67t-156 188t-57 270q0 143 62.5 263.5t171 189.5t237.5 69q246 0 327 -203h4l23 174h266q-8 -88 -90 -520q4 -99 14.5 -166t27.5 -109t39 -63.5t48.5 -30.5
t56.5 -9.5t62 -0.5v-68zM596 930q-111 0 -174.5 -120.5t-63.5 -328.5q0 -192 63.5 -295.5t178.5 -103.5q107 0 169 112.5t71 327.5q-34 408 -244 408z" />
    <glyph glyph-name="beta" unicode="&#x3b2;" horiz-adv-x="1249" 
d="M1176 479q0 -143 -64 -259t-178 -181.5t-248 -65.5q-154 0 -248 68h-8v-485h-258v1448q0 154 27.5 237t96.5 158t167.5 113t216.5 38q199 0 317.5 -88.5t118.5 -240.5q0 -90 -41.5 -158.5t-114.5 -111.5t-163 -54l2 -8q108 -9 198.5 -66t134.5 -146t44 -198zM889 475
q0 194 -59.5 276.5t-182.5 82.5h-84v100h60q66 0 120 34t83.5 96t29.5 150q0 125 -51 190.5t-139 65.5q-121 0 -178.5 -104t-57.5 -307v-844q25 -74 80.5 -117t126.5 -43q119 0 185.5 112.5t66.5 307.5z" />
    <glyph glyph-name="gamma" unicode="&#x3b3;" horiz-adv-x="1110" 
d="M709 -225q0 -79 -14.5 -126.5t-42.5 -70t-83 -22.5q-141 0 -141 141q0 76 11.5 148.5t39.5 168.5q-62 175 -125 326.5t-209 462.5q-46 99 -168 104v70l365 22l16 -14q24 -70 116 -280q143 -328 175 -488l74 151q48 94 72 156.5t24 112.5q0 46 -21 117q-22 71 -22 125
q0 59 45.5 98t114.5 39q63 0 98 -32.5t35 -86.5q0 -79 -57 -187t-125 -225q-153 -257 -211 -403q33 -168 33 -307z" />
    <glyph glyph-name="delta" unicode="&#x3b4;" horiz-adv-x="1202" 
d="M844 473q0 342 -232 426q-118 -4 -187 -117.5t-69 -308.5q0 -197 64 -311.5t180 -114.5q117 0 180.5 113t63.5 313zM166 1274q0 77 57 140t162.5 99.5t253.5 36.5q191 0 307.5 -62t116.5 -171q0 -68 -35.5 -107t-97.5 -39q-71 0 -108.5 33t-37.5 82q0 40 10.5 78t18.5 70
q-19 14 -59.5 25t-96.5 11q-91 0 -153 -50.5t-62 -125.5q0 -47 22.5 -82.5t75 -74.5t232.5 -138q134 -72 211.5 -146t112 -159.5t34.5 -212.5q0 -143 -68 -262t-189.5 -185.5t-270.5 -66.5q-152 0 -274 65t-190 182t-68 263q0 196 123 324.5t329 156.5v7q-188 63 -272 133
t-84 176z" />
    <glyph glyph-name="epsilon" unicode="&#x3b5;" horiz-adv-x="1028" 
d="M1012 256q-73 -142 -194.5 -214.5t-278.5 -72.5q-208 0 -330.5 79t-122.5 214q0 112 73.5 179.5t200.5 72.5v10q-243 43 -243 236q0 72 54 131.5t152.5 93t227.5 33.5q193 0 300 -64t107 -178q0 -63 -33.5 -100t-99.5 -37q-59 0 -101 30.5t-42 78.5q0 38 10 79.5t17 73.5
q-14 13 -47.5 25t-79.5 12q-82 0 -133.5 -49.5t-51.5 -124.5q0 -111 49 -157t158 -46h70v-96h-94q-104 0 -157.5 -46.5t-53.5 -137.5q0 -94 64.5 -145.5t178.5 -51.5q205 0 328 219z" />
    <glyph glyph-name="zeta" unicode="&#x3b6;" horiz-adv-x="887" 
d="M952 1354q-286 -191 -443 -423.5t-157 -461.5q0 -132 61.5 -198.5t202.5 -71.5q120 0 186 -32t100 -91.5t34 -145.5q0 -87 -52 -168.5t-140 -130.5t-187 -49q-217 0 -217 117q0 46 28 75t74 29q41 0 74.5 -21.5t67.5 -65.5l37 -46q68 3 114.5 52t46.5 124q0 78 -45 116
t-145 42l-59 2l-56 4q-182 6 -290.5 117.5t-108.5 288.5q0 428 674 911v10q-46 -3 -210.5 -8.5t-215.5 -5.5h-10q-86 0 -132.5 32t-46.5 89q0 41 24 70.5t77 29.5t86 -17.5t60 -38.5t54 -38.5t68 -17.5q171 0 446 22v-100z" />
    <glyph glyph-name="eta" unicode="&#x3b7;" horiz-adv-x="1262" 
d="M842 -444v1101q0 106 -44 160.5t-116 54.5q-68 0 -129.5 -35.5t-101.5 -99.5v-737h-256v770q0 54 -36 92.5t-124 44.5v70l401 22l15 -14v-141h4l63 60q118 112 281 112q145 0 223 -87.5t78 -248.5v-1124h-258z" />
    <glyph glyph-name="theta" unicode="&#x3b8;" horiz-adv-x="1225" 
d="M1141 762q0 -354 -142 -574.5t-387 -220.5q-153 0 -267.5 87t-187.5 268t-73 438q0 265 73 442.5t188 262.5t267 85q251 0 390 -219t139 -569zM860 834q-2 312 -64.5 474t-183.5 162q-120 0 -182.5 -161.5t-64.5 -474.5h495zM860 739h-495v-30q0 -662 247 -662
q122 0 185 168t63 494v30z" />
    <glyph glyph-name="iota" unicode="&#x3b9;" horiz-adv-x="651" 
d="M670 29q-128 -54 -240 -54q-240 0 -240 254l3 541q0 125 -173 137v70l416 22l15 -14v-711q0 -95 30.5 -136.5t104.5 -41.5q41 0 84 8v-75z" />
    <glyph glyph-name="kappa" unicode="&#x3ba;" horiz-adv-x="1194" 
d="M1208 33q-158 -56 -274 -56q-90 0 -131.5 25.5t-82.5 94t-148 282.5l-42 82l-79 -90v-371h-256v770q0 38 -22.5 73.5t-57 48t-80.5 15.5v70l401 22l15 -14v-512l156 204q70 92 149 183.5t123.5 120.5t107.5 29q65 0 103 -41t38 -109q0 -58 -39 -99.5t-94 -41.5
q-65 0 -142 42l-46 25q-10 -7 -22 -20t-25.5 -29.5t-28 -34.5t-29.5 -36q138 -268 227.5 -419t186.5 -151q55 0 92 8v-71z" />
    <glyph glyph-name="lambda" unicode="&#x3bb;" horiz-adv-x="1040" 
d="M381 1276l-79 -1q-63 0 -77 1q-57 0 -93 39.5t-36 93.5q0 61 43.5 101t110.5 40q99 0 160 -57t110 -193l97 -272q43 -126 85 -237l122 -335q48 -135 83 -214t55 -105t43.5 -38.5t73.5 -14.5h41v-66q-43 -14 -89.5 -27.5t-88.5 -13.5q-65 0 -99.5 31t-64.5 127.5
t-73 275.5q-33 130 -82 298l-273 -543q-42 -91 -67 -166h-301l528 1010q-50 156 -129 266z" />
    <glyph glyph-name="uni03BC" unicode="&#x3bc;" horiz-adv-x="1278" 
d="M1262 18q-44 -17 -107 -30t-102 -13q-195 0 -224 160h-6q-63 -87 -134.5 -124.5t-156.5 -37.5q-124 0 -188 70h-10v-43q0 -43 8.5 -85.5t18 -83t18 -78.5t8.5 -72q0 -55 -40.5 -90t-102.5 -35q-54 0 -91.5 34t-37.5 91q0 65 32 210q25 117 25 248v848h260v-668
q0 -106 47.5 -157t122.5 -51q68 0 126 32t95 93v751h260v-778q0 -39 12 -63t37.5 -41t70.5 -17h59v-70z" />
    <glyph glyph-name="nu" unicode="&#x3bd;" horiz-adv-x="1087" 
d="M639 256q91 178 115 228t32.5 86t8.5 67q0 53 -19 122q-20 68 -20 120q0 57 44.5 97t114.5 40q65 0 99.5 -31.5t34.5 -85.5q0 -44 -18 -92t-59 -116l-267 -474q-32 -55 -99 -225h-135l-120 301q-97 247 -206 510q-40 94 -165 104v70l376 22l13 -14q9 -44 23.5 -91.5
t78 -211.5t168.5 -426z" />
    <glyph glyph-name="xi" unicode="&#x3be;" horiz-adv-x="961" 
d="M926 1337h-121q-190 0 -286.5 -73.5t-96.5 -210.5q0 -117 78.5 -179.5t230.5 -62.5h133v-113h-184q-173 0 -251.5 -65.5t-78.5 -202.5q0 -115 66.5 -176t197.5 -61h113q123 0 193.5 -68.5t70.5 -194.5q0 -88 -53 -169.5t-142 -130t-186 -48.5q-215 0 -215 117
q0 45 27 74.5t74 29.5q40 0 74 -21t69 -66l37 -46q67 2 114.5 51t47.5 125q0 80 -46.5 119t-146.5 39h-166q-177 0 -290 103.5t-113 263.5q0 101 50.5 184.5t137.5 136.5t193 68v8q-153 25 -233.5 98.5t-80.5 180.5q0 104 76 180t219 114v17l-215 -12q-86 0 -134 27t-48 81
q0 40 22 68t72 28q52 0 86 -17t62.5 -38t57 -38t69.5 -17q210 0 516 18v-121z" />
    <glyph glyph-name="omicron" unicode="&#x3bf;" horiz-adv-x="1202" 
d="M1130 502q0 -155 -66 -277t-189 -190t-283 -68q-147 0 -267 66t-187.5 185.5t-67.5 273.5q0 234 145 380t387 146q157 0 277.5 -64t185.5 -183.5t65 -268.5zM846 502q0 217 -63 326.5t-181 109.5q-121 0 -183.5 -109.5t-62.5 -322.5q0 -225 62.5 -342t183.5 -117
q118 0 181 118.5t63 336.5z" />
    <glyph glyph-name="pi" unicode="&#x3c0;" horiz-adv-x="1290" 
d="M313 190q50 89 82.5 237t32.5 292q0 71 -4 123h-76q-174 0 -196 -207h-68q-4 40 -4 106q0 107 69 176.5t179 69.5h925v-145h-233v-561q0 -96 30 -140.5t105 -44.5q21 0 54.5 3.5t43.5 6.5v-75q-141 -56 -256 -56q-235 0 -235 254v613h-232v-90q0 -348 -96 -563.5
t-241 -215.5q-70 0 -112 43.5t-42 112.5q0 57 36.5 93t90.5 36q45 0 79 -21t68 -47z" />
    <glyph glyph-name="rho" unicode="&#x3c1;" horiz-adv-x="1233" 
d="M1159 506q0 -148 -65 -270.5t-178.5 -192.5t-239.5 -70q-158 0 -250 68h-10v-485h-256v991q0 106 29.5 189t101.5 151t162.5 99.5t214.5 31.5q144 0 256 -62t173.5 -178.5t61.5 -271.5zM874 510q0 215 -56 321.5t-175 106.5q-57 0 -100 -25t-75.5 -81t-43 -141
t-10.5 -294l2 -182q23 -72 80 -116t131 -44q112 0 179.5 122t67.5 333z" />
    <glyph glyph-name="sigma1" unicode="&#x3c2;" horiz-adv-x="981" 
d="M582 938q-70 0 -126 -45.5t-88 -130t-32 -205.5q0 -100 35.5 -169.5t102 -106.5t182.5 -59q134 -26 187.5 -59.5t83 -91t29.5 -132.5q0 -92 -53.5 -176t-143.5 -132.5t-192 -48.5q-111 0 -166 32.5t-55 88.5q0 46 27 74t73 28q77 0 148 -89l37 -46q70 3 119 54.5
t49 128.5q0 50 -37 86.5t-100 50.5l-61 13q-133 28 -204 50q-149 45 -238 164t-89 285q0 145 68 263.5t187 185.5t261 67q171 0 270.5 -67.5t99.5 -178.5q0 -69 -34.5 -105t-100.5 -36q-64 0 -105.5 30.5t-41.5 79.5q0 42 11 83t17 75q-39 39 -120 39z" />
    <glyph glyph-name="sigma" unicode="&#x3c3;" horiz-adv-x="1272" 
d="M1255 842h-282v-4q82 -80 119.5 -166t37.5 -191q0 -145 -66.5 -262.5t-189 -184.5t-282.5 -67q-144 0 -265 63.5t-189 178t-68 256.5q0 240 150 381t411 141h624v-145zM846 485q0 219 -66 357h-112q-312 0 -312 -377q0 -198 64 -308t184 -110q113 0 177.5 114t64.5 324z
" />
    <glyph glyph-name="tau" unicode="&#x3c4;" horiz-adv-x="958" 
d="M946 842h-330v-500q0 -114 13 -155.5t44.5 -61t88.5 -19.5q28 0 69 5.5t62 11.5v-80q-152 -68 -279 -68q-256 0 -256 267v600h-71q-81 0 -128 -48.5t-59 -158.5h-67q-6 75 -6 125q0 62 28 113.5t81.5 82.5t125.5 31h684v-145z" />
    <glyph glyph-name="upsilon" unicode="&#x3c5;" horiz-adv-x="1161" 
d="M580 -31q-180 0 -283.5 90t-103.5 250l2 421q0 83 -23 116t-82 33q-13 0 -100 -13v74q108 42 156 54t87 12q117 0 171.5 -58.5t54.5 -193.5l-4 -403q0 -126 47.5 -193.5t154.5 -67.5q130 0 210.5 112.5t80.5 289.5q0 64 -26.5 110.5t-87.5 91.5q-62 44 -88.5 87
t-26.5 102q0 56 39 91.5t102 35.5q211 0 211 -373q0 -191 -60 -344.5t-172 -238.5t-259 -85z" />
    <glyph glyph-name="phi" unicode="&#x3c6;" horiz-adv-x="1554" 
d="M1483 524q0 -157 -76 -280.5t-210.5 -195.5t-293.5 -79v-413h-256v413q-173 8 -304.5 76t-201 183t-69.5 261q0 200 114.5 335t331.5 186l27 -80q-94 -48 -139.5 -153.5t-45.5 -287.5q0 -198 78 -316t209 -122v707q0 122 88.5 190t249.5 68q137 0 253 -60t180.5 -171
t64.5 -261zM1196 532q0 182 -53.5 293t-141.5 111q-46 0 -72 -31.5t-26 -83.5v-770q136 12 214.5 138t78.5 343z" />
    <glyph glyph-name="chi" unicode="&#x3c7;" horiz-adv-x="1098" 
d="M649 225q118 -233 194.5 -360.5t123 -167t110.5 -39.5h58v-68q-111 -39 -187 -39q-80 0 -122 45t-103 194.5t-133 334.5q-50 -93 -171 -313.5t-126 -249.5h-301l465 780q-110 218 -181 337t-105 151t-75.5 46.5t-101.5 14.5v67q131 46 186 46q48 0 79 -17t57 -56t71 -147
l129 -335q42 76 105 196t104.5 194.5t71.5 147.5h301z" />
    <glyph glyph-name="psi" unicode="&#x3c8;" horiz-adv-x="1608" 
d="M1380 518q0 55 -23.5 95.5t-78.5 82.5q-54 40 -78 80.5t-24 95.5q0 64 41.5 101t103.5 37q96 0 147.5 -79.5t51.5 -238.5q0 -205 -66 -363t-186 -247.5t-283 -110.5v-415h-256v413q-265 10 -402 114t-137 288l5 359q0 84 -24.5 116.5t-82.5 32.5q-13 0 -100 -13v74
q108 42 157 54t86 12q117 0 171.5 -58.5t54.5 -193.5l-2 -385q0 -89 32 -157.5t98.5 -108.5t143.5 -44v928h256v-928q115 11 205 76t140 168t50 215z" />
    <glyph glyph-name="omega" unicode="&#x3c9;" horiz-adv-x="1565" 
d="M995 1001q220 -18 357 -156t137 -370q0 -221 -115.5 -364.5t-298.5 -143.5q-184 0 -295 164q-107 -164 -293 -164q-118 0 -212.5 64.5t-147.5 182t-53 261.5q0 227 136 367t357 159l15 -83q-111 -17 -168.5 -137t-57.5 -339q0 -185 41.5 -288t116.5 -103t107 53.5
t32 171.5v386h258v-386q0 -116 31 -170.5t107 -54.5t117.5 105t41.5 286q0 216 -57.5 337.5t-169.5 138.5z" />
    <glyph glyph-name="iotadieresis" unicode="&#x3ca;" horiz-adv-x="651" 
d="M670 29q-128 -54 -240 -54q-240 0 -240 254l3 541q0 125 -173 137v70l416 22l15 -14v-711q0 -95 30.5 -136.5t104.5 -41.5q41 0 84 8v-75zM695 1356q0 -60 -43 -103t-97 -43q-58 0 -98.5 43.5t-40.5 102.5q0 60 41 102.5t98 42.5q55 0 97.5 -41.5t42.5 -103.5zM232 1356
q0 -59 -41.5 -102.5t-97.5 -43.5q-57 0 -98.5 43.5t-41.5 102.5q0 61 41 103t99 42q56 0 97.5 -42.5t41.5 -102.5z" />
    <glyph glyph-name="upsilondieresis" unicode="&#x3cb;" horiz-adv-x="1161" 
d="M580 -31q-180 0 -283.5 90t-103.5 250l2 421q0 83 -23 116t-82 33q-13 0 -100 -13v74q108 42 156 54t87 12q117 0 171.5 -58.5t54.5 -193.5l-4 -403q0 -126 47.5 -193.5t154.5 -67.5q130 0 210.5 112.5t80.5 289.5q0 64 -26.5 110.5t-87.5 91.5q-62 44 -88.5 87
t-26.5 102q0 56 39 91.5t102 35.5q211 0 211 -373q0 -191 -60 -344.5t-172 -238.5t-259 -85zM953 1356q0 -60 -43 -103t-97 -43q-58 0 -98.5 43.5t-40.5 102.5q0 60 41 102.5t98 42.5q55 0 97.5 -41.5t42.5 -103.5zM490 1356q0 -59 -41.5 -102.5t-97.5 -43.5
q-57 0 -98.5 43.5t-41.5 102.5q0 61 41 103t99 42q56 0 97.5 -42.5t41.5 -102.5z" />
    <glyph glyph-name="omicrontonos" unicode="&#x3cc;" horiz-adv-x="1202" 
d="M1130 502q0 -155 -66 -277t-189 -190t-283 -68q-147 0 -267 66t-187.5 185.5t-67.5 273.5q0 234 145 380t387 146q157 0 277.5 -64t185.5 -183.5t65 -268.5zM846 502q0 217 -63 326.5t-181 109.5q-121 0 -183.5 -109.5t-62.5 -322.5q0 -225 62.5 -342t183.5 -117
q118 0 181 118.5t63 336.5zM850 1530l-245 -397h-74l61 426h258v-29z" />
    <glyph glyph-name="upsilontonos" unicode="&#x3cd;" horiz-adv-x="1161" 
d="M580 -31q-180 0 -283.5 90t-103.5 250l2 421q0 83 -23 116t-82 33q-13 0 -100 -13v74q108 42 156 54t87 12q117 0 171.5 -58.5t54.5 -193.5l-4 -403q0 -126 47.5 -193.5t154.5 -67.5q130 0 210.5 112.5t80.5 289.5q0 64 -26.5 110.5t-87.5 91.5q-62 44 -88.5 87
t-26.5 102q0 56 39 91.5t102 35.5q211 0 211 -373q0 -191 -60 -344.5t-172 -238.5t-259 -85zM835 1530l-245 -397h-74l61 426h258v-29z" />
    <glyph glyph-name="omegatonos" unicode="&#x3ce;" horiz-adv-x="1565" 
d="M995 1001q220 -18 357 -156t137 -370q0 -221 -115.5 -364.5t-298.5 -143.5q-184 0 -295 164q-107 -164 -293 -164q-118 0 -212.5 64.5t-147.5 182t-53 261.5q0 227 136 367t357 159l15 -83q-111 -17 -168.5 -137t-57.5 -339q0 -185 41.5 -288t116.5 -103t107 53.5
t32 171.5v386h258v-386q0 -116 31 -170.5t107 -54.5t117.5 105t41.5 286q0 216 -57.5 337.5t-169.5 138.5zM1026 1530l-245 -397h-74l61 426h258v-29z" />
    <glyph glyph-name="uni0401" unicode="&#x401;" horiz-adv-x="1407" 
d="M1331 0h-1253v74q61 5 109 13.5t72 35t24 74.5v1011q0 46 -20 71t-75 42t-110 22v76h1177v-352h-75q-17 53 -56.5 112.5t-85 99t-89 47t-169.5 7.5h-213v-555h152q85 0 133 25.5t76.5 91t36.5 121.5h75v-574h-75q-9 67 -37.5 134t-77 91.5t-131.5 24.5h-152v-418
q0 -88 17 -124.5t60 -50t159 -13.5q159 0 223 12.5t86 36.5q43 45 99.5 144.5t74.5 150.5h72zM1116 1714q0 -61 -41 -103t-96 -42q-56 0 -98 42.5t-42 102.5t41.5 103t98.5 43q56 0 96.5 -42.5t40.5 -103.5zM624 1714q0 -59 -41 -102t-98 -43q-56 0 -96.5 42.5t-40.5 102.5
t39.5 103t97.5 43t98.5 -43.5t40.5 -102.5z" />
    <glyph glyph-name="uni0402" unicode="&#x402;" horiz-adv-x="1708" 
d="M1358 406q0 167 -76 255.5t-219 88.5q-62 0 -117 -12.5t-151 -55.5v-682h-500v74q105 11 143.5 24t56 36.5t17.5 66.5v1134h-39h-22t-142 -8q-37 -6 -80.5 -54t-84 -120.5t-56.5 -128.5h-76v395h1295v-385h-74q-26 87 -95.5 185t-127.5 108q-99 8 -162 8h-53v-569
q124 66 219.5 93.5t179.5 27.5q215 0 339 -117.5t124 -316.5q0 -129 -65.5 -244t-170 -175.5t-231.5 -60.5q-130 0 -201 39.5t-71 110.5q0 55 30 89t74 34q47 0 78.5 -20.5t54 -53.5t55.5 -129h13q62 31 98.5 126.5t36.5 236.5z" />
    <glyph glyph-name="uni0403" unicode="&#x403;" horiz-adv-x="1270" 
d="M1180 1008q-29 100 -100 203.5t-136 113.5q-61 8 -174 8h-203v-1128q0 -71 64 -103q29 -13 157 -28v-74h-710v74q121 9 151 23.5t42 40t12 57.5v1013q0 45 -19 70t-76 42.5t-110 22.5v76h1177v-411h-75zM534 1495l-32 41q65 61 264 262q63 70 131 70q52 0 86.5 -26
t34.5 -64q0 -44 -26 -69.5t-71 -45.5l-152 -65z" />
    <glyph glyph-name="uni0404" unicode="&#x404;" horiz-adv-x="1423" 
d="M381 631q7 -172 66 -304t162 -203t231 -71q69 0 132 17.5t134 64.5q-8 32 -18.5 77.5t-10.5 94.5q0 65 40.5 106.5t115.5 41.5q72 0 106.5 -45.5t34.5 -114.5q0 -88 -76.5 -165.5t-211 -122t-298.5 -44.5q-213 0 -375.5 90.5t-250.5 257t-88 385.5q0 218 95.5 393
t262.5 269t365 94q206 0 368 -94l49 61h84l11 -506h-86q-58 222 -162 335.5t-250 113.5q-130 0 -227.5 -77t-150.5 -224.5t-54 -351.5l65 52q115 91 197 91q52 0 90 -13t73.5 -29t73 -29t89.5 -13q38 0 67.5 9.5t73.5 41.5l41 -53q-152 -172 -289 -172q-52 0 -90 13t-72 29
t-69 29t-82 13q-38 0 -68.5 -7.5t-97.5 -39.5z" />
    <glyph glyph-name="uni0405" unicode="&#x405;" horiz-adv-x="1239" 
d="M1161 408q0 -125 -68 -227.5t-192 -159t-276 -56.5q-100 0 -202.5 27t-191.5 78l-57 -70h-82l-14 498h84q76 -221 194 -330t267 -109q130 0 202 64t72 178q0 174 -221 254q-230 81 -291 107q-268 113 -268 385q0 112 62.5 206t174 146.5t244.5 52.5q87 0 177.5 -24.5
t172.5 -71.5l51 63h84l9 -477h-84q-59 174 -111.5 253.5t-122 122t-164.5 42.5q-103 0 -170 -60.5t-67 -150.5q0 -102 70.5 -165t281.5 -132q250 -83 343 -185t93 -259z" />
    <glyph glyph-name="uni0406" unicode="&#x406;" horiz-adv-x="856" 
d="M72 0v74q98 7 125.5 12t48.5 18t30 35.5t9 53.5v1015q0 45 -20 70.5t-82.5 43.5t-110.5 21v76h712v-76q-129 -9 -172 -33t-43 -91v-1016q0 -72 64 -101q12 -6 65 -15.5t86 -12.5v-74h-712z" />
    <glyph glyph-name="uni0407" unicode="&#x407;" horiz-adv-x="856" 
d="M72 0v74q98 7 125.5 12t48.5 18t30 35.5t9 53.5v1015q0 45 -20 70.5t-82.5 43.5t-110.5 21v76h712v-76q-129 -9 -172 -33t-43 -91v-1016q0 -72 64 -101q12 -6 65 -15.5t86 -12.5v-74h-712zM801 1714q0 -60 -43 -103t-97 -43q-58 0 -98.5 43.5t-40.5 102.5q0 60 41 102.5
t98 42.5q55 0 97.5 -41.5t42.5 -103.5zM338 1714q0 -59 -41.5 -102.5t-97.5 -43.5q-57 0 -98.5 43.5t-41.5 102.5q0 61 41 103t99 42q56 0 97.5 -42.5t41.5 -102.5z" />
    <glyph glyph-name="uni0408" unicode="&#x408;" horiz-adv-x="1139" 
d="M1085 1343q-119 -12 -157.5 -33.5t-38.5 -90.5v-811q0 -120 -62.5 -223t-174.5 -162.5t-249 -59.5q-179 0 -285 93t-106 245q0 84 45.5 139.5t122.5 55.5q73 0 117.5 -41t44.5 -109q0 -37 -14 -67t-33.5 -57t-41 -51.5t-36.5 -49.5v-8q16 -25 54 -44.5t89 -19.5
q244 0 244 383v776q0 43 -19.5 69t-63 40.5t-128.5 25.5v76h692v-76z" />
    <glyph glyph-name="uni0409" unicode="&#x409;" horiz-adv-x="2187" 
d="M1817 422q0 145 -89.5 226t-248.5 81l-131 -4v-530q10 -109 180 -109q135 0 212 88.5t77 247.5zM702 1329q-5 -298 -47.5 -548.5t-116.5 -428.5t-174 -278.5t-206 -100.5q-91 0 -143 45t-52 123q0 71 43.5 116.5t110.5 45.5q86 0 154 -88l32 -39q68 82 128 232t97 337
t37 373q0 71 -7.5 107.5t-25 57t-44 30t-144.5 30.5v76h1210v-76q-129 -10 -167.5 -35.5t-38.5 -90.5v-398l200 4q287 0 437.5 -103t150.5 -298q0 -124 -61.5 -217.5t-182.5 -149t-268 -55.5h-760v74q112 9 143.5 23t43.5 39.5t12 58.5v1134h-361z" />
    <glyph glyph-name="uni040A" unicode="&#x40a;" horiz-adv-x="2316" 
d="M567 705v-500q0 -73 60 -103q11 -7 58.5 -16.5t72.5 -11.5v-74h-674v74q107 9 137 18q62 25 62 103v1013q0 70 -62 101q-76 29 -137 34v76h674v-76q-98 -8 -144.5 -29.5t-46.5 -94.5v-418h625v405q0 46 -20.5 72t-77.5 44t-97 21v76h686v-76q-135 -10 -171.5 -37
t-36.5 -89v-398l202 4q286 0 438 -102.5t152 -298.5q0 -195 -146.5 -308.5t-367.5 -113.5h-758v74q58 4 105 12t69.5 33.5t22.5 75.5v510h-625zM1946 422q0 143 -89.5 225t-248.5 82q-91 0 -133 -4v-530q10 -109 182 -109q135 0 212 88.5t77 247.5z" />
    <glyph glyph-name="uni040B" unicode="&#x40b;" horiz-adv-x="1819" 
d="M795 758q227 137 403 137q208 0 309 -90.5t101 -292.5v-303q0 -43 22 -70t76.5 -44t97.5 -21v-74h-667v74q31 2 88.5 13.5t77.5 37t20 76.5v245q0 120 -24 177t-77 86.5t-143 29.5q-150 0 -284 -65v-467q0 -75 61 -105q11 -6 60 -16t77 -12v-74h-700v74q29 2 85.5 9.5
t67.5 12.5q66 27 66 105v1134h-39h-22t-142 -8q-37 -6 -80.5 -54t-84 -120.5t-56.5 -128.5h-76v395h1295v-385h-74q-26 87 -95.5 185t-127.5 108q-99 8 -162 8h-53v-577z" />
    <glyph glyph-name="uni040C" unicode="&#x40c;" horiz-adv-x="1530" 
d="M567 205q0 -61 40.5 -89.5t154.5 -41.5v-74h-676v74q122 8 159.5 34.5t37.5 86.5v1013q0 58 -54 94.5t-143 40.5v76h676v-76q-110 -6 -152.5 -36.5t-42.5 -87.5v-480h78q67 0 113 30t79.5 78.5t58 111t49 128t52 128t67 111t94.5 78.5t134 30q89 0 141 -42t52 -112
q0 -56 -41.5 -103t-97.5 -47q-48 0 -87.5 28.5t-93.5 107.5q-32 -25 -56 -75.5t-58 -155.5q-62 -190 -174 -283v-17q123 -34 205.5 -108.5t138.5 -192.5l57 -123l51 -108q21 -43 42.5 -69t42 -35.5t138.5 -24.5v-74h-467q-101 284 -148.5 391t-92 159.5t-106.5 75.5t-171 23
v-444zM669 1495l-32 41q65 61 264 262q63 70 131 70q52 0 86.5 -26t34.5 -64q0 -44 -26 -69.5t-71 -45.5l-152 -65z" />
    <glyph glyph-name="uni040E" unicode="&#x40e;" horiz-adv-x="1417" 
d="M-33 1343v76h692v-76l-55 -4q-54 -3 -91.5 -15t-37.5 -30q0 -9 6.5 -23t165.5 -306.5t199 -354.5q70 141 156 334.5t104 243t18 76.5q0 32 -53 52.5t-143 26.5v76h542v-76q-47 -4 -93 -20.5t-76 -44t-70 -102.5l-204 -411q-90 -186 -169.5 -342t-156.5 -256.5t-155 -148
t-181 -47.5q-93 0 -154 48.5t-61 117.5q0 63 38.5 106.5t102.5 43.5q89 0 169 -108l42 -58q53 20 95 66t93 141q-85 154 -269 482t-224 398q-44 71 -102.5 100.5t-127.5 34.5zM961 1647q-11 23 -25 54t-14 62q0 46 33.5 75.5t88.5 29.5q51 0 82 -32t31 -85
q0 -64 -48.5 -117.5t-138.5 -85.5t-218 -32t-218.5 32t-138 86t-47.5 117q0 53 30.5 85t80.5 32q54 0 88.5 -29t34.5 -76q0 -31 -14 -62t-23 -54q66 -60 207 -60q135 0 209 60z" />
    <glyph glyph-name="uni040F" unicode="&#x40f;" horiz-adv-x="1751" 
d="M84 74q94 6 130 18.5t52.5 36.5t16.5 66v1013q0 59 -56 94.5t-143 40.5v76h672v-76q-106 -6 -147.5 -35.5t-41.5 -88.5v-1018q0 -46 23.5 -70t66 -34t101.5 -10.5t129 -0.5l213 4q48 0 67 21.5t19 66.5v1030q0 58 -52.5 94t-140.5 41v76h674v-76q-112 -6 -155.5 -37
t-43.5 -87v-1014q0 -58 43 -88.5t158 -42.5v-74h-418q-131 0 -155 -4q-116 -24 -183 -354h-73q-67 330 -183 354q-24 4 -155 4h-418v74z" />
    <glyph glyph-name="uni0410" unicode="&#x410;" horiz-adv-x="1462" 
d="M831 0v74q85 7 139 22.5t54 34.5q0 10 -3 22.5t-126 329.5h-494q-40 -98 -70 -190.5t-30 -130.5q0 -34 54 -57t155 -31v-74h-559v74q91 7 150.5 47t95.5 129l477 1190h141q133 -330 405 -1029l78 -198q25 -60 73.5 -94.5t144.5 -44.5v-74h-685zM645 1108l-207 -533h418z
" />
    <glyph glyph-name="uni0411" unicode="&#x411;" horiz-adv-x="1432" 
d="M1356 422q0 -124 -61.5 -217.5t-182.5 -149t-268 -55.5h-762v74q28 2 77 9.5t62 12.5q62 28 62 101v1011q0 44 -20.5 71t-74.5 43.5t-102 20.5v76h1165v-377h-75q-29 92 -97 182t-125 99q-62 10 -166 10h-221v-514l201 4q287 0 437.5 -103t150.5 -298zM1036 422
q0 143 -89.5 225t-248.5 82q-91 0 -131 -4v-530q10 -109 181 -109q136 0 212 88.5t76 247.5z" />
    <glyph glyph-name="uni0412" unicode="&#x412;" horiz-adv-x="1444" 
d="M1356 385q0 -186 -148 -285.5t-422 -99.5h-704v74q28 2 77 9.5t62 12.5q62 28 62 103v1009q0 61 -36.5 88.5t-160.5 46.5v76h713q233 0 356 -80.5t123 -232.5q0 -124 -85 -208.5t-269 -129.5v-12q206 -25 319 -123t113 -248zM965 1083q0 250 -267 250l-131 -4v-534h88
q150 0 230 71.5t80 216.5zM1034 410q0 141 -88 219t-244 78q-85 0 -135 -5v-509q5 -51 52.5 -79t128.5 -28q135 0 210.5 84.5t75.5 239.5z" />
    <glyph glyph-name="uni0413" unicode="&#x413;" horiz-adv-x="1270" 
d="M1180 1008q-29 100 -100 203.5t-136 113.5q-61 8 -174 8h-203v-1128q0 -71 64 -103q29 -13 157 -28v-74h-710v74q121 9 151 23.5t42 40t12 57.5v1013q0 45 -19 70t-76 42.5t-110 22.5v76h1177v-411h-75z" />
    <glyph glyph-name="uni0414" unicode="&#x414;" horiz-adv-x="1559" 
d="M412 2q-104 -7 -158 -49.5t-108.5 -130.5t-73.5 -166h-76v436h139q90 137 170.5 336.5t124 391t43.5 333.5q0 88 -21.5 122.5t-73.5 47t-93 17.5l-35 3v76h1223v-76q-104 -8 -149.5 -29t-45.5 -95v-1029q0 -54 30.5 -77t92.5 -23h88v-434h-74q-18 63 -56.5 133t-84 123
t-86 69.5t-109.5 20.5h-667zM993 1329h-383q-4 -322 -93 -656t-241 -581h627q90 0 90 92v1145z" />
    <glyph glyph-name="uni0415" unicode="&#x415;" horiz-adv-x="1407" 
d="M1331 0h-1253v74q61 5 109 13.5t72 35t24 74.5v1011q0 46 -20 71t-75 42t-110 22v76h1177v-352h-75q-17 53 -56.5 112.5t-85 99t-89 47t-169.5 7.5h-213v-555h152q85 0 133 25.5t76.5 91t36.5 121.5h75v-574h-75q-9 67 -37.5 134t-77 91.5t-131.5 24.5h-152v-418
q0 -88 17 -124.5t60 -50t159 -13.5q159 0 223 12.5t86 36.5q43 45 99.5 144.5t74.5 150.5h72z" />
    <glyph glyph-name="uni0416" unicode="&#x416;" horiz-adv-x="2163" 
d="M2187 74v-74h-465l-38 109q-79 230 -138.5 345t-126 155t-196.5 40v-444q0 -60 39.5 -88.5t154.5 -42.5v-74h-669v74q89 6 124 18t51.5 35.5t16.5 67.5v454q-142 0 -214.5 -52.5t-135.5 -199.5q-80 -183 -152 -397h-463v74q51 4 111 16q63 7 115 113l108 231
q61 123 139 197t189 104v17q-106 90 -164 281q-34 113 -56.5 160.5t-51.5 72.5q-55 -75 -95 -103t-92 -28q-66 0 -100.5 38.5t-34.5 100.5q0 68 53 114t140 46q78 0 132 -30t91.5 -78.5t63.5 -111t49 -128t46.5 -128t56 -111t79 -78.5t114.5 -30h72v469q0 58 -52 94t-140 41
v76h669v-76q-108 -6 -151 -36.5t-43 -87.5v-480h71q66 0 116.5 32t87.5 97.5t89 218.5q66 198 143.5 272.5t196.5 74.5q89 0 141 -42t52 -112q0 -33 -19.5 -69.5t-51 -58.5t-69.5 -22q-56 0 -96.5 35.5t-83.5 100.5q-32 -26 -55.5 -78.5t-54.5 -152.5q-58 -191 -164 -283
v-17q103 -28 182.5 -99.5t144.5 -201.5l109 -231q52 -106 115 -113q14 -3 110 -16z" />
    <glyph glyph-name="uni0417" unicode="&#x417;" horiz-adv-x="1317" 
d="M1229 414q0 -130 -83.5 -233.5t-234.5 -160.5t-336 -57q-158 0 -279 45t-187 124.5t-66 176.5q0 67 42.5 112.5t104.5 45.5q76 0 117 -37.5t41 -99.5q0 -54 -30 -143l-13 -40q62 -53 120.5 -73.5t129.5 -20.5q162 0 257 93.5t95 261.5q0 144 -74.5 213t-222.5 69h-139
v115h102q152 0 217.5 77t65.5 232q0 118 -62 183t-171 65q-281 0 -398 -449h-84l9 506h86l49 -61q174 94 387 94q155 0 266 -42.5t171 -119t60 -170.5q0 -128 -95.5 -217.5t-266.5 -130.5v-12q125 -3 223.5 -47.5t148.5 -120.5t50 -178z" />
    <glyph glyph-name="uni0418" unicode="&#x418;" horiz-adv-x="1780" 
d="M1024 1419h672v-76q-105 -7 -151 -29t-46 -95v-1014q0 -51 24.5 -78t81 -39t91.5 -14v-74h-674v74q114 9 135 18q64 24 64 101v858l-664 -826v-10q0 -48 11 -70t50 -43q12 -7 61 -16.5t77 -11.5v-74h-672v74q107 9 137 18q62 25 62 103v1013q0 70 -62 101q-76 29 -137 34
v76h672v-76q-101 -8 -148 -30t-47 -94v-838l662 823q0 52 -21.5 76t-62.5 37.5t-115 25.5v76z" />
    <glyph glyph-name="uni0419" unicode="&#x419;" horiz-adv-x="1780" 
d="M1024 1419h672v-76q-105 -7 -151 -29t-46 -95v-1014q0 -51 24.5 -78t81 -39t91.5 -14v-74h-674v74q114 9 135 18q64 24 64 101v858l-664 -826v-10q0 -48 11 -70t50 -43q12 -7 61 -16.5t77 -11.5v-74h-672v74q107 9 137 18q62 25 62 103v1013q0 70 -62 101q-76 29 -137 34
v76h672v-76q-101 -8 -148 -30t-47 -94v-838l662 823q0 52 -21.5 76t-62.5 37.5t-115 25.5v76zM1117 1647q-11 23 -25 54t-14 62q0 46 33.5 75.5t88.5 29.5q51 0 82 -32t31 -85q0 -64 -48.5 -117.5t-138.5 -85.5t-218 -32t-218.5 32t-138 86t-47.5 117q0 53 30.5 85t80.5 32
q54 0 88.5 -29t34.5 -76q0 -31 -14 -62t-23 -54q66 -60 207 -60q135 0 209 60z" />
    <glyph glyph-name="uni041A" unicode="&#x41a;" horiz-adv-x="1530" 
d="M567 205q0 -61 40.5 -89.5t154.5 -41.5v-74h-676v74q122 8 159.5 34.5t37.5 86.5v1013q0 58 -54 94.5t-143 40.5v76h676v-76q-110 -6 -152.5 -36.5t-42.5 -87.5v-480h78q67 0 113 30t79.5 78.5t58 111t49 128t52 128t67 111t94.5 78.5t134 30q89 0 141 -42t52 -112
q0 -56 -41.5 -103t-97.5 -47q-48 0 -87.5 28.5t-93.5 107.5q-32 -25 -56 -75.5t-58 -155.5q-62 -190 -174 -283v-17q123 -34 205.5 -108.5t138.5 -192.5l57 -123l51 -108q21 -43 42.5 -69t42 -35.5t138.5 -24.5v-74h-467q-101 284 -148.5 391t-92 159.5t-106.5 75.5t-171 23
v-444z" />
    <glyph glyph-name="uni041B" unicode="&#x41b;" horiz-adv-x="1628" 
d="M344 1343v76h1200v-76q-98 -7 -147 -27.5t-49 -96.5v-1014q0 -50 24.5 -77.5t78.5 -39t93 -14.5v-74h-682v74q119 9 139 18q62 24 62 101v1136h-361q-5 -298 -47.5 -548.5t-116.5 -428.5t-174 -278.5t-206 -100.5q-91 0 -143 45t-52 123q0 71 43.5 116.5t110.5 45.5
q86 0 154 -88l32 -39q68 82 128 232t97 337t37 373q0 71 -7.5 107.5t-25 57t-44 30t-144.5 30.5z" />
    <glyph glyph-name="uni041C" unicode="&#x41c;" horiz-adv-x="1997" 
d="M1214 0v74q109 11 146.5 24.5t56.5 38t19 68.5v1046h-9l-487 -1228h-86l-87 241l-376 1008h-6v-856q0 -77 6.5 -130t20.5 -89.5t38 -58.5t87.5 -41.5t95.5 -22.5v-74h-592v74q87 7 144 33t75.5 90.5t18.5 208.5v712q0 77 -25.5 124t-70.5 71.5t-132 29.5v76h567
l379 -1001l322 825q15 42 28 95.5t17 80.5h547v-76q-112 -6 -154.5 -36.5t-42.5 -87.5v-1014q0 -59 41 -88t158 -43v-74h-699z" />
    <glyph glyph-name="uni041D" unicode="&#x41d;" horiz-adv-x="1769" 
d="M1006 0v74q114 9 135 18q37 14 49 40t12 61v497h-635v-485q0 -73 60 -103q10 -6 57.5 -16t75.5 -12v-74h-676v74q107 9 137 18q62 25 62 103v1013q0 70 -62 101q-76 29 -137 34v76h676v-76q-103 -8 -148 -30t-45 -94v-433h635v422q0 78 -69 104.5t-127 30.5v76h677v-76
q-115 -9 -155.5 -32.5t-40.5 -91.5v-1014q0 -50 24 -77t79 -39t93 -15v-74h-677z" />
    <glyph glyph-name="uni041E" unicode="&#x41e;" horiz-adv-x="1602" 
d="M1526 713q0 -215 -93 -387t-259.5 -267.5t-376.5 -95.5q-202 0 -368.5 94.5t-259.5 264.5t-93 378q0 217 93.5 390t261.5 268.5t370 95.5t369.5 -94t261.5 -263.5t94 -383.5zM1204 711q0 306 -105.5 478.5t-297.5 172.5q-194 0 -300 -170.5t-106 -484.5
q0 -308 106.5 -479t299.5 -171t298 170.5t105 483.5z" />
    <glyph glyph-name="uni041F" unicode="&#x41f;" horiz-adv-x="1749" 
d="M567 205q0 -73 60 -103q11 -7 58.5 -16.5t72.5 -11.5v-74h-674v74q107 9 137 18q62 25 62 103v1013q0 70 -62 101q-76 29 -137 34v76h1579v-76q-117 -9 -157 -33t-40 -91v-1014q0 -49 24 -76.5t78 -39.5t95 -15v-74h-674v74q80 6 107 11t47.5 18.5t29.5 37t9 52.5v1128
h-615v-1116z" />
    <glyph glyph-name="uni0420" unicode="&#x420;" horiz-adv-x="1341" 
d="M1290 1067q0 -212 -157.5 -331.5t-430.5 -119.5h-135v-413q0 -77 60 -105q17 -7 68 -14t77 -10v-74h-688v74l73 9q47 5 64 11q62 25 62 103v1013q0 78 -62 105q-73 23 -141 28v76h715q235 0 365 -91.5t130 -260.5zM973 1016q0 162 -74 238.5t-221 76.5h-111v-624h70
q161 0 248.5 79t87.5 230z" />
    <glyph glyph-name="uni0421" unicode="&#x421;" horiz-adv-x="1389" 
d="M1362 356q-173 -393 -594 -393q-196 0 -355.5 92.5t-249 260.5t-89.5 380q0 216 92.5 389.5t258.5 270t372 96.5q198 0 366 -94l51 61h82l11 -512h-86q-64 235 -166.5 345t-245.5 110q-196 0 -306 -168.5t-110 -474.5q0 -290 123.5 -459.5t333.5 -169.5q279 0 432 311z
" />
    <glyph glyph-name="uni0422" unicode="&#x422;" horiz-adv-x="1333" 
d="M1245 1024q-29 96 -96 194.5t-125 108.5q-101 8 -162 8h-53v-1124q0 -51 24 -78t91.5 -41.5t107.5 -17.5v-74h-731v74q27 2 87 9.5t73 12.5q63 27 63 105v1134h-51h-22t-142 -8q-37 -6 -80.5 -54t-84 -120.5t-56.5 -128.5h-76v395h1307v-395h-74z" />
    <glyph glyph-name="uni0423" unicode="&#x423;" horiz-adv-x="1417" 
d="M-33 1343v76h692v-76l-55 -4q-54 -3 -91.5 -15t-37.5 -30q0 -9 6.5 -23t165.5 -306.5t199 -354.5q70 141 156 334.5t104 243t18 76.5q0 32 -53 52.5t-143 26.5v76h542v-76q-47 -4 -93 -20.5t-76 -44t-70 -102.5l-204 -411q-90 -186 -169.5 -342t-156.5 -256.5t-155 -148
t-181 -47.5q-93 0 -154 48.5t-61 117.5q0 63 38.5 106.5t102.5 43.5q89 0 169 -108l42 -58q53 20 95 66t93 141q-85 154 -269 482t-224 398q-44 71 -102.5 100.5t-127.5 34.5z" />
    <glyph glyph-name="uni0424" unicode="&#x424;" horiz-adv-x="1718" 
d="M1348 715q0 124 -36.5 218.5t-106.5 148t-169 53.5h-37v-840q106 0 183.5 48.5t121.5 150t44 221.5zM719 1135h-37q-144 0 -228.5 -113.5t-84.5 -306.5q0 -123 43.5 -222.5t121 -148.5t185.5 -49v840zM999 1219h9q204 0 350.5 -60t222.5 -168t76 -252q0 -159 -83 -280
t-233.5 -185.5t-343.5 -64.5v-37q0 -63 44 -87t161 -28v-71h-674v71q115 7 154 32.5t39 82.5v37q-303 0 -482.5 143.5t-179.5 386.5q0 144 76 252t223 168t351 60h12v14q0 120 -195 131v74h668v-74q-195 -11 -195 -131v-14z" />
    </font>
</defs>
</svg>
